<svg height="48" viewBox="0 0 48 48" width="48" xmlns="http://www.w3.org/2000/svg"><g fill="#161514"><path d="m24.0001987 0c-13.2532064 0-24.0001987 11.0169476-24.0001987 24.6076131 0 10.872288 6.87678742 20.0962718 16.4128006 23.3500936 1.1994536.2277879 1.6398096-.5338143 1.6398096-1.1837636 0-.5867881-.0222562-2.5252265-.0325895-4.58143-6.6768785 1.4885675-8.08577934-2.9033789-8.08577934-2.9033789-1.09174912-2.8442926-2.6647899-3.6005973-2.6647899-3.6005973-2.17753674-1.5272792.16413993-1.4959023.16413993-1.4959023 2.41003517.1735915 3.67903961 2.5358213 3.67903961 2.5358213 2.1405754 3.761964 5.6145393 2.6743686 6.9840943 2.0456088.2154089-1.5904404.8373919-2.6759986 1.5237591-3.2904961-5.3307722-.62224-10.93458088-2.7322324-10.93458088-12.1611845 0-2.6865932.93754504-4.8817514 2.47282968-6.6050342-.2491906-.6197949-1.0706852-3.1226094.2324984-6.512126 0 0 2.015384-.66135909 6.6017636 2.5223741 1.914436-.545224 3.9675761-.818651 6.0072035-.8280233 2.0396275.0093723 4.0943573.2827993 6.0123701.8280233 4.5808156-3.18373319 6.5934175-2.5223741 6.5934175-2.5223741 1.3063631 3.3895166.4844711 5.8923311.2352805 6.512126 1.5388615 1.7232828 2.4700476 3.918441 2.4700476 6.6050342 0 9.4513642-5.6145394 11.5324247-10.9588242 12.1416249.8608404.7636395 1.6278865 2.2611718 1.6278865 4.5569805 0 3.2925334-.0278203 5.9424524-.0278203 6.7529536 0 .6548392.4320099 1.4221463 1.6485531 1.1805037 9.5308466-3.2574893 16.3988905-12.4782131 16.3988905-23.3468337 0-13.5906655-10.7454026-24.6076131-23.9998013-24.6076131"/><path d="m9.16085952 35.1623051c-.05276032.121042-.24.1573547-.41057856.0742391-.173752-.0794842-.2713388-.2445048-.21500824-.3659504.05157024-.1246733.23920664-.159372.412562-.075853.17414872.0794843.27332232.2461188.2130248.3675643"/><path d="m10.1311735 36.2629806c-.1142479.1077274-.3375867.0576967-.4891239-.1125691-.15669424-.1698623-.1860496-.3970178-.07021488-.5063591.11781816-.1077274.3344132-.0572933.49150418.1125691.1566941.1718797.1872396.3974213.0678346.5063591"/><path d="m11.0757025 37.6662612c-.1467769.1036927-.3867769.0064556-.5351405-.2102097-.1467769-.2166652-.1467769-.4765021.0031735-.5805982.1487603-.1040961.3851901-.0104904.5355372.204561.1463802.2202965.1463802.4801334-.0035702.5862469"/><path d="m12.369719 39.0219319c-.1313058.1472678-.4109752.1077273-.6156694-.0932024-.2094546-.1964916-.2677686-.4752917-.1360662-.6225595.1328926-.1476713.4141488-.1061135.6204298.0932023.2078678.1960882.2713389.4769057.1313058.6225596"/><path d="m14.154843 39.8091085c-.0579174.190843-.3272728.2775897-.5986116.1964916-.2709421-.083519-.4482644-.3070433-.3935207-.4999036.0563307-.1920534.3268761-.2824314.6001984-.1956846.2705455.0831155.4482644.3050259.3919339.4990966"/><path d="m16.1153058 39.9551659c.0067438.2009297-.2233388.3675642-.5081653.3711956-.2864132.0064555-.5180827-.1561443-.5212562-.3538463 0-.2029471.2249256-.3679677.5113388-.3728094.2848265-.0056486.5180827.1557407.5180827.3554601"/><path d="m17.9397025 39.6392462c.0341157.1960881-.1638347.3974214-.4466777.4510833-.2780826.0516446-.5355372-.0693975-.570843-.2638716-.0345124-.2009298.1670083-.402263.4446942-.4543111.2832397-.0500307.5367273.0677835.5728265.2670994"/></g></svg>