<svg height="48" viewBox="0 0 48 48" width="48" xmlns="http://www.w3.org/2000/svg" xmlns:xlink="http://www.w3.org/1999/xlink"><linearGradient id="a" x1="66.67%" x2="41.67%" y1="16.67%" y2="75%"><stop offset="0" stop-color="#37aee2"/><stop offset="1" stop-color="#1e96c8"/></linearGradient><linearGradient id="b" x1="61.234676%" x2="74.706438%" y1="43.69%" y2="80.24%"><stop offset="0" stop-color="#eff7fc"/><stop offset="1" stop-color="#fff"/></linearGradient><g fill="none"><circle cx="24" cy="24" fill="url(#a)" r="24"/><path d="m19.6 35c-.77752 0-.6454-.29358-.91356-1.0339l-2.28644-7.52492 17.6-10.44118" fill="#c8daea"/><path d="m19.6 35c.6 0 .8651-.2744 1.2-.6l3.2-3.1116-3.9916-2.407" fill="#a9c9dd"/><path d="m20.008 28.882 9.672 7.1458c1.1037.60898 1.90028.29368 2.1752-1.0247l3.937-18.5526c.40308-1.61604-.61602-2.349-1.67188-1.86964l-23.118 8.9142c-1.57802.63294-1.56882 1.51332-.28764 1.9056l5.9326 1.85166 13.7346-8.665c.64838-.39318 1.24346-.181798.75504.25168" fill="url(#b)"/></g></svg>