<svg height="48" viewBox="0 0 48 48" width="48" xmlns="http://www.w3.org/2000/svg"><g fill="none"><path d="m0 24c0-13.2548346 10.7451654-24 24-24s24 10.7451654 24 24-10.7451654 24-24 24-24-10.7451654-24-24z" fill="#55acee"/><path d="m23.2812026 19.5075006.0503625.8304542-.8393752-.1016883c-3.0553257-.389805-5.7245388-1.7117524-7.9908518-3.9319462l-1.1079753-1.1016228-.2853875.8135061c-.6043502 1.8134407-.2182376 3.7285696 1.0408252 5.016621.6715001.7118178.5204126.813506-.6379251.389805-.4029001-.1355844-.7554377-.2372726-.7890128-.1864285-.1175124.1186363.2853876 1.6609083.6043502 2.2710379.4364751.8474021 1.3262128 1.6778563 2.2998881 2.1693496l.8225877.389805-.9736753.016948c-.9401002 0-.9736752.0169481-.8729502.372857.3357501 1.1016228 1.6619629 2.2710378 3.1392632 2.7794792l1.0408253.3559088-.9065252.5423375c-1.3430003.77961-2.9210257 1.2202591-4.499051 1.2541552-.7554377.0169481-1.3765754.0847402-1.3765754.1355844 0 .1694804 2.0480754 1.1185709 3.2399882 1.4914278 3.5757384 1.1016229 7.8229768.6270776 11.0126026-1.2541553 2.266313-1.3388954 4.5326261-3.9997383 5.5902388-6.5758409.5707751-1.3727915 1.1415503-3.881102 1.1415503-5.0844131 0-.77961.0503625-.8812983.9904627-1.8134408.5539876-.5423373 1.0744003-1.1355188 1.1751253-1.3049993.1678751-.3220128.1510875-.3220128-.7050752-.0338961-1.4269378.5084414-1.6283878.4406491-.9233127-.3220128.5204126-.5423374 1.1415502-1.5253239 1.1415502-1.8134407 0-.0508441-.2518125.0338961-.5372.1864285-.3021752.1694804-.9736753.4237011-1.4773004.5762335l-.9065252.2881167-.8225877-.5592854c-.4532626-.3050648-1.0911878-.6440257-1.4269379-.745714-.8561626-.2372726-2.165588-.2033765-2.9378131.0677922-2.098438.762662-3.4246508 2.728635-3.2735633 4.8810366z" fill="#fff"/></g></svg>