<svg width="162" height="32" viewBox="0 0 162 32" fill="none" xmlns="http://www.w3.org/2000/svg">
<g clip-path="url(#clip0)">
<path d="M9.78413 13.4467L16.0866 7.23248L22.3924 13.45L26.0596 9.83396L16.0866 0L6.11691 9.83068L9.78413 13.4467Z" fill="#B7B7B7"/>
<path d="M7.19435 15.9995L3.52719 12.3835L-0.140146 15.9997L3.52701 19.6156L7.19435 15.9995Z" fill="#B7B7B7"/>
<path d="M9.78411 18.5533L16.0866 24.7675L22.3921 18.5503L26.0614 22.1643L26.0596 22.1663L16.0866 32L6.11664 22.1696L6.11151 22.1645L9.78411 18.5533Z" fill="#B7B7B7"/>
<path d="M28.6464 19.6173L32.3137 16.0012L28.6465 12.3853L24.9792 16.0014L28.6464 19.6173Z" fill="#B7B7B7"/>
<path d="M19.8064 15.9982H19.808L16.0867 12.3289L13.3366 15.0405H13.3363L13.0205 15.3522L12.3687 15.9949L12.3636 15.9999L12.3687 16.0053L16.0867 19.6713L19.808 16.002L19.8097 15.9999L19.8064 15.9982Z" fill="#B7B7B7"/>
<path d="M38.0307 7.75391H46.0067C47.9863 7.75391 49.4832 8.25484 50.4977 9.25671C51.2828 10.0326 51.6753 10.9943 51.6753 12.1415V12.19C51.6753 12.6748 51.6145 13.1032 51.4923 13.4747C51.3703 13.8468 51.2072 14.1817 51.0035 14.4807C50.8002 14.7799 50.5639 15.0425 50.2952 15.2685C50.0264 15.4949 49.7375 15.689 49.4281 15.8503C50.4231 16.2223 51.2065 16.727 51.7776 17.3655C52.3484 18.0041 52.6342 18.889 52.6342 20.02V20.0683C52.6342 20.8442 52.483 21.5228 52.1802 22.1049C51.8775 22.6864 51.4438 23.1715 50.8791 23.5594C50.3145 23.9474 49.6355 24.238 48.8419 24.4321C48.0483 24.626 47.1689 24.7228 46.2038 24.7228H38.0307V7.75391ZM45.2093 14.6141C46.0454 14.6141 46.7093 14.4731 47.2006 14.19C47.6923 13.9072 47.9381 13.4505 47.9381 12.8204V12.7719C47.9381 12.2065 47.7248 11.7743 47.2988 11.475C46.8725 11.176 46.2579 11.0264 45.4551 11.0264H41.7181V14.6141H45.2093ZM46.2174 21.4505C47.0533 21.4505 47.7084 21.3014 48.1842 21.0022C48.6594 20.7032 48.8972 20.2384 48.8972 19.608V19.5598C48.8972 18.9941 48.6758 18.5458 48.2334 18.2142C47.7907 17.8833 47.0779 17.7175 46.0943 17.7175H41.7181V21.4508H46.2174V21.4505Z" fill="#B7B7B7"/>
<path d="M57.3844 7.75391H61.1708V24.7233H57.3844V7.75391Z" fill="#B7B7B7"/>
<path d="M66.9055 7.75391H70.3961L78.4603 18.2023V7.75391H82.1973V24.7233H78.9768L70.6422 13.9357V24.7233H66.9055V7.75391Z" fill="#B7B7B7"/>
<path d="M93.66 7.63281H97.1509L104.527 24.7233H100.568L98.9949 20.9175H91.7176L90.1443 24.7233H86.2838L93.66 7.63281ZM97.6428 17.6202L95.3561 12.1175L93.0702 17.6202H97.6428Z" fill="#B7B7B7"/>
<path d="M108.614 7.75391H112.105L120.169 18.2023V7.75391H123.906V24.7233H120.686L112.351 13.9357V24.7233H108.614V7.75391Z" fill="#B7B7B7"/>
<path d="M137.532 25.0141C136.269 25.0141 135.098 24.7876 134.016 24.3355C132.934 23.8833 132 23.2649 131.213 22.4809C130.427 21.6971 129.812 20.7718 129.37 19.7052C128.927 18.6384 128.706 17.499 128.706 16.2869V16.2386C128.706 15.0265 128.927 13.8914 129.37 12.8327C129.812 11.7742 130.427 10.8448 131.213 10.0449C132 9.24497 132.943 8.61438 134.04 8.15388C135.138 7.69338 136.352 7.46313 137.68 7.46313C138.482 7.46313 139.215 7.52809 139.879 7.65699C140.543 7.78665 141.145 7.96407 141.687 8.19028C142.228 8.41673 142.727 8.69146 143.187 9.01447C143.645 9.33798 144.071 9.69334 144.465 10.0813L142.056 12.8205C141.383 12.2228 140.699 11.7537 140.003 11.4145C139.306 11.0753 138.523 10.9055 137.655 10.9055C136.933 10.9055 136.265 11.043 135.651 11.3177C135.037 11.5924 134.508 11.9721 134.065 12.4568C133.623 12.9416 133.279 13.5034 133.032 14.1416C132.787 14.7803 132.664 15.4629 132.664 16.1901V16.2384C132.664 16.9655 132.787 17.6527 133.032 18.2987C133.279 18.9455 133.618 19.5109 134.053 19.9956C134.487 20.4804 135.012 20.8646 135.626 21.1474C136.241 21.4305 136.917 21.5715 137.655 21.5715C138.638 21.5715 139.469 21.3938 140.15 21.0382C140.83 20.6831 141.506 20.1981 142.178 19.5837L144.588 21.9837C144.145 22.4525 143.685 22.8729 143.211 23.2441C142.735 23.6162 142.215 23.9351 141.649 24.202C141.084 24.4684 140.465 24.6709 139.794 24.8079C139.121 24.9451 138.367 25.0141 137.532 25.0141Z" fill="#B7B7B7"/>
<path d="M149.044 7.75391H162V11.0752H152.781V14.5176H160.894V17.8386H152.781V21.4023H162.124V24.7233H149.044V7.75391Z" fill="#B7B7B7"/>
</g>
<defs>
<clipPath id="clip0">
<rect width="162" height="32" fill="white"/>
</clipPath>
</defs>
</svg>
