<svg width="1121" height="814" viewBox="0 0 1121 814" fill="none" xmlns="http://www.w3.org/2000/svg">
<path d="M557.5 2.29999C555.3 3.60001 545.9 9.10001 536.5 14.5C527.2 19.9 517.9 25.2 516 26.3C511.8 28.6 487.8 42.5 458 59.8C446.2 66.7 433.6 74 430 76C426.4 78 418.1 82.8 411.5 86.7C404.9 90.5 388.3 100.1 374.5 108C360.8 115.8 347.8 123.4 345.8 124.8L342 127.3V253.9C342 373.4 342.1 380.6 343.8 381.6C344.7 382.2 347.5 383.8 350 385.2C352.5 386.6 364.6 393.6 377 400.7C397.8 412.8 427.4 429.9 434.5 434C436.2 434.9 444.9 440 454 445.2C479.2 459.7 509.5 477.2 519 482.7C523.7 485.4 535 492 544.2 497.3C553.4 502.6 561.5 507 562.1 507C562.8 507 566.7 505 570.9 502.6C575.1 500.2 586.8 493.4 597 487.5C607.2 481.6 624.1 471.8 634.5 465.7C645 459.7 655.5 453.6 658 452.2C660.5 450.8 671.1 444.7 681.5 438.7C692 432.6 701.9 426.9 703.5 426C705.2 425 717.8 417.7 731.5 409.8C745.3 401.8 762.2 392 769.3 388L782 380.6V253.8V127L778 124.5C775.8 123.1 773.8 122 773.5 122C773.2 122 771.3 120.9 769.2 119.7C767.2 118.4 751.6 109.3 734.5 99.5C680.5 68.4 672.9 64 653.5 52.7C643.1 46.7 632.5 40.6 630 39.2C627.5 37.9 623.5 35.5 621 34C618.5 32.5 611.6 28.4 605.5 25C599.5 21.5 592 17.3 589 15.5C571 5 563.9 0.899994 562.7 0.5C562.1 0.199982 559.7 1.10001 557.5 2.29999ZM647.6 109.7C648.4 110 649 110.9 649 111.6C649 112.9 651.4 123.4 660 159.5C661.6 166.1 664.3 177.2 666 184.2C667.6 191.2 669 197.2 669 197.5C669 198.2 456.5 198.1 455.8 197.5C455.5 197.2 455.6 195.2 456.1 193.2C460.8 173.3 463.7 160.5 466 150C467.5 143.1 469.9 132.3 471.4 126C472.8 119.7 474.3 113.5 474.5 112.3L475 110L522.3 109.8C548.2 109.6 586.7 109.4 607.8 109.3C628.9 109.2 646.8 109.4 647.6 109.7ZM617.8 212.2C617.5 212.9 613.3 224.1 608.5 237L599.7 260.5L602.3 287.4C603.8 302.2 604.8 314.5 604.6 314.7C604.4 314.9 585.2 315.2 561.9 315.3L519.5 315.5L519.7 312.5C519.8 310.8 521.1 298.3 522.6 284.6C524.7 264.3 525 259.3 524 257.1C521.3 251.4 507 213.6 507 212.4C507 211.2 516.5 211 562.6 211C606.7 211 618.1 211.3 617.8 212.2ZM479 243.5C489.7 250.4 500.2 256.9 502.3 258L506 260L506.1 289.8V319.5L525.5 338L544.9 356.5L545 365.1V373.7L534.8 383.2C529.1 388.5 520.7 396.4 516 400.9L507.5 408.9L491.9 409H476.2L473.2 404.2C471.6 401.6 467.1 393.9 463.2 387C459.4 380.1 451.7 366.7 446.1 357.1C440.6 347.6 436 339.6 436 339.4C436 339.2 433.5 335 430.5 330C427.5 325 425 320.7 425 320.5C425 320.2 423.2 317.1 421 313.5C418.8 309.9 417 306.7 417 306.5C417 306.2 415.9 304.3 414.7 302.2C413.4 300.2 408.8 292.4 404.6 285L396.8 271.6L399.7 269C401.3 267.6 411.6 260 422.5 252C433.4 244 445 235.4 448.4 232.8C455.5 227.3 451.9 226.1 479 243.5ZM698 249C713.3 260.6 726.2 270.5 726.5 271C726.8 271.5 723.3 278.3 718.7 286.2C712.3 297.2 679.8 353.7 673.5 364.8C671.5 368.4 662.6 383.7 659.5 389C657.8 392 654.7 397.5 652.6 401.2L648.9 408H632.9H616.8L610.2 401.7C606.5 398.3 600.8 393 597.5 389.9C594.2 386.9 588.9 382 585.8 379L580 373.7V365V356.3L588.8 348C593.6 343.5 602.3 335.1 608.3 329.2L619 318.7V289.5V260.4L632 251.9C639.2 247.3 645.8 243 646.7 242.5C647.5 241.9 652.8 238.5 658.4 234.8C663.9 231.1 668.8 228.1 669.2 228C669.7 228 682.6 237.5 698 249Z" fill="black" fill-opacity="0.54"/>
<path d="M467.6 649.1C467.3 650.8 467 657.4 467 663.6V675H460.5H453.9L454.2 685.2L454.5 695.5L461.1 695.8L467.7 696.1L467.6 727.8C467.5 762.1 467.8 765.1 472.8 772.5C474.6 775.2 477.4 777.5 481.5 779.5C487.1 782.3 488.4 782.5 500.8 782.8L514.1 783.2L513.8 772.3L513.5 761.5L506 760.9C497.1 760.3 495.9 759.8 493.7 756.1C492.2 753.5 492 749.7 492 724.6V696H503H514V685.5V675H503H492V660.5V646H480.1H468.3L467.6 649.1Z" fill="black" fill-opacity="0.54"/>
<path d="M763 673.1C754 673.9 746.7 676.5 738.8 681.7C715.3 697.2 707.2 727.7 719.7 753.8C725.7 766.3 741.8 778.9 755.5 782C767.3 784.6 784.5 782.8 794.3 777.9C799.9 775 811 766.1 811 764.4C811 763.9 807.8 760.4 804 756.6L797 749.8L793.6 752.8C784.9 760.4 775.4 763.4 764.7 761.9C754.6 760.6 746.1 754 741.4 743.7C738.8 738.2 738.5 736.4 738.5 728C738.5 719.8 738.9 717.7 741.1 712.9C744.7 705.3 749.8 699.9 756.6 696.6C761.7 694.1 763.1 693.8 770.4 694.2C779.7 694.6 785.7 697.1 792.4 703.2C794.6 705.3 796.6 707 796.9 707C797.1 707 800.6 703.5 804.6 699.3L811.9 691.5L809.2 688.7C798.3 677.2 781.4 671.5 763 673.1Z" fill="black" fill-opacity="0.54"/>
<path d="M41.3 674.5C22.8 679.5 7.50001 695.1 2.50001 714C0.100014 723 0.500014 736.8 3.50001 745.7C6.80001 755.5 9.90001 760.7 16.5 767.4C25.5 776.5 35.6 781.4 49 783.1C61.8 784.7 76.5 781.6 85.8 775.5C90.7 772.2 98 765.1 98 763.6C98 762.1 85.5 750 84 750C83.6 750 83 750.3 82.8 750.8C82.3 751.9 74.8 757.6 71.5 759.3C63 763.6 49.6 763.2 41.4 758.5C31.5 752.8 26 743.1 25.2 730.4C24.5 717.9 27.4 710.4 36.1 701.9C42.4 695.7 48.7 693.5 58.6 694.3C66.7 694.9 72.8 697.6 79.5 703.5L83.3 707L90.4 699.3C94.3 695.2 97.5 691.2 97.5 690.7C97.5 689.2 86.4 680.4 81.5 678C71.3 673.1 52.7 671.5 41.3 674.5Z" fill="black" fill-opacity="0.54"/>
<path d="M121 728.5V784H133H145V762.1C145 738.4 146 727.6 149.1 719.4C153.3 708.3 164.1 700.3 176.3 699.1L182.5 698.5L182.8 685.6L183.1 672.7L176.6 673.3C169.5 674 162.5 677.1 157.5 681.7C153.7 685.2 148 692.5 148 693.8C148 694.3 147.3 695.3 146.5 696C145.2 697.1 145 695.8 145 685.1V673H133H121V728.5Z" fill="black" fill-opacity="0.54"/>
<path d="M200.4 678.7C201.7 681.9 209.1 699.7 216.9 718.3C224.6 736.9 231 752.3 231 752.5C231 752.8 232.1 755.3 233.4 758.2C234.7 761.1 237.7 768.1 240 773.8L244.2 784L238.6 797.8C235.5 805.4 233 812.1 233 812.8C233 814.2 255.7 813.7 257 812.3C257.5 811.9 261.1 802.9 265 792.5C275.9 763.8 289.8 727.2 292.4 720.5C293.7 717.2 295.9 711.6 297.3 708C298.7 704.4 302.2 695.4 305 688C307.9 680.6 310.4 674.2 310.7 673.7C310.9 673.3 305.3 673 298.3 673H285.4L281.8 683.2C270.7 714.6 255.6 754 255 753.3C254.6 752.9 252.6 748.2 250.7 743C248.7 737.8 242.5 721.6 237 707C231.4 692.4 226.2 678.9 225.6 677L224.3 673.5L211.2 673.2L198.1 672.9L200.4 678.7Z" fill="black" fill-opacity="0.54"/>
<path d="M328.2 743.2L328.5 813.5H340H351.5L351.8 789.7C351.9 776.7 352.3 766 352.6 766C353 766 355.5 768.3 358.3 771.1C361.2 773.8 366.4 777.5 370 779.3C375.7 782 377.8 782.5 386.5 782.8C397.4 783.2 405 781.4 413.5 776.5C427.6 768.2 436.9 751 437.7 731.5C438.9 706.4 428.3 686.7 408.8 677.4C400.6 673.5 400.4 673.5 388.5 673.5C376.9 673.5 376.3 673.6 370.2 676.8C366.8 678.6 361.5 682.5 358.6 685.5C355.7 688.5 352.9 691 352.6 691C352.2 691 352 686.9 352.2 682L352.5 673H340.2H328L328.2 743.2ZM395.7 696.9C407.2 702.4 413.2 713.3 413.2 728.8C413.2 742.1 407.5 752.7 397.2 758.8C393 761.2 391.6 761.5 383 761.5C375 761.5 372.8 761.1 369.5 759.3C357.2 752.4 351.4 741.1 352.2 725.6C352.9 713.2 357.9 704.3 367.4 698.2C372.8 694.9 375.3 694.2 383 694.1C388.2 694 390.7 694.6 395.7 696.9Z" fill="black" fill-opacity="0.54"/>
<path d="M577.5 674.4C564 677.7 551.1 687.2 543.6 699.3C531.1 719.6 532.5 743.4 547.3 762.9C552.1 769.1 562.9 777.1 570.5 779.9C585.1 785.4 603 784.5 617.3 777.6C646.5 763.6 657.2 727.7 640.5 699.5C633.7 687.9 620.4 678.1 606.6 674.4C600.4 672.7 584.3 672.7 577.5 674.4ZM601.6 695.5C604.3 696.3 608.8 698.7 611.5 700.8C625.2 711.2 628.2 734.5 617.9 749.6C612.1 758.1 603.6 762.2 591.8 762.2C582.7 762.3 575.9 759.5 569.5 753.3C563 746.8 558.2 733.1 559.6 724.7C562.3 708.3 569.6 699 583 694.9C587.2 693.6 596.4 693.9 601.6 695.5Z" fill="black" fill-opacity="0.54"/>
<path d="M867.3 674.5C849.7 679.4 836 691.8 829.2 708.7C826.8 714.8 826.6 716.8 826.6 728.5C826.6 739.8 826.9 742.3 828.9 747.5C833.4 758.8 841.1 768.3 850.8 774.6C873.7 789.4 906.2 785.4 924 765.7C929 760.2 934.8 750.4 936.6 744.5C942.2 725.7 936.8 703 923.7 690.1C916.3 682.9 912.7 680.5 904.1 676.9C897.3 674 895.3 673.7 884.5 673.4C876 673.1 871 673.4 867.3 674.5ZM893.4 696C896.3 697.2 900.8 699.9 903.3 702.1C917.8 714.8 918.2 741.5 904.1 754.3C898.8 759 895.7 760.6 888.5 761.9C868.7 765.6 851.7 751.8 850.3 730.9C849.1 713.6 858 699.5 873 694.9C878 693.4 887.8 694 893.4 696Z" fill="black" fill-opacity="0.54"/>
<path d="M959.6 673.7C959.3 674.1 959 698.8 959 728.7L959.1 783L961.3 783.5C962.5 783.8 968 784 973.5 783.8L983.5 783.5L984 747.5L984.5 711.5L987.4 706.3C989.1 703.2 992 699.9 994.4 698.3C998.1 695.8 999.3 695.5 1007.4 695.5C1013.7 695.5 1016.5 695.9 1016.8 696.7C1017 697.4 1017.7 698 1018.4 698C1020.5 698 1024 702.5 1026 707.9C1027.9 712.6 1028 715.7 1028 748V782.9L1031.3 783.5C1033 783.8 1038.6 784 1043.5 783.8L1052.5 783.5L1053 747C1053.5 712 1053.6 710.3 1055.7 706.5C1056.8 704.3 1058.9 701.5 1060.2 700.3C1068.5 692.5 1085.9 693.5 1092 702C1096.6 708.5 1097 712 1097 749.2V784H1109H1121V743.5C1121 705.1 1120.9 702.6 1118.9 696.8C1115.6 686.8 1109.7 679.9 1101 675.8C1097.2 673.9 1094.7 673.6 1084.5 673.6C1072.8 673.5 1072.3 673.6 1065.5 676.9C1061.5 678.9 1056.3 682.6 1053.3 685.6L1047.9 690.9L1045.4 687.1C1042.3 682.4 1037 678.1 1031 675.5C1027.5 673.9 1024.3 673.5 1016 673.5C1006.8 673.5 1004.9 673.8 1000.5 676C997.8 677.4 992.9 681.1 989.8 684.3L984 690.1V681.5V673H972.2C965.7 673 960 673.3 959.6 673.7Z" fill="black" fill-opacity="0.54"/>
<path d="M675 757.3L669.5 760.6L669.2 767.3L668.9 773.9L673 776.5C680.8 781.5 681 781.5 687.3 777.8L693 774.5V767.5L692.9 760.5L687.6 757.2C684.6 755.5 681.8 754 681.3 754C680.9 754 678 755.5 675 757.3Z" fill="black" fill-opacity="0.54"/>
</svg>
