<svg viewBox="0 0 561 258" xmlns="http://www.w3.org/2000/svg"><g fill="#c0c0c0"><path d="m96.3 66.61 9.7 29.5 8.3-29.5h14.9l-15.4 49.7h-15.1l-10.8-32.1-10.6 32.1h-15.4l-15.6-49.7h15.8l8.3 29.39 9.8-29.4z"/><path d="m180.7 102c-2.4 8.6-10.3 15.8-22.9 15.8-13.7 0-25.9-9.8-25.9-26.5 0-16 11.9-26.2 24.8-26.2 15.4 0 24.9 9.5 24.9 25.5a31.72 31.72 0 0 1 -.3 4.7h-34.6c.3 5.6 5.4 9.6 11.3 9.6 5.5 0 8.6-2.6 10-6.5zm-13.8-16.5c-.2-3.8-2.8-8.4-10-8.4-6.4 0-9.6 4.7-9.9 8.4z"/><path d="m191.4 116.31v-72.4h14.9v27.4c2.1-3.1 7.6-5.9 14.4-5.9 14.4 0 23.1 11 23.1 25.9 0 15.2-9.8 26.1-23.7 26.1-6.6 0-11.7-2.9-14-6.7v5.6zm26-37.2c-5.9 0-11.3 3.9-11.3 12.3 0 8.2 5.4 12.4 11.3 12.4s11.2-4.1 11.2-12.4-5.3-12.3-11.2-12.3z"/><path d="m263.79 77.71 16-13.1h-27.1v-13.2h46.81v12.2l-16 12.39a19.43 19.43 0 0 1 18.2 19.8c0 11.5-9.5 21.9-25.5 21.9-15.11 0-24.71-9.7-25.71-20.8l15.21-2.8c.2 5.7 4.3 10.2 10.4 10.2s9.7-4.1 9.7-8.9c0-6.2-4.8-8.8-9.4-8.8a13.08 13.08 0 0 0 -5.8 1.5z"/><path d="m319.7 96.71a10.33 10.33 0 0 1 10.3 10.2 10.25 10.25 0 1 1 -20.5 0 10.24 10.24 0 0 1 10.2-10.2z"/><path d="m343.5 61c4.3-6.5 11.5-11.1 22-11.1s17.8 4.6 22.1 11.1c4.5 6.8 5.7 14.9 5.7 22.9s-1.2 16.1-5.7 22.9c-4.3 6.4-11.5 11.1-22.1 11.1s-17.7-4.7-22-11.1c-4.5-6.8-5.71-14.9-5.71-22.9s1.21-16.09 5.71-22.9zm12.5 37c1.8 3.6 4.7 6 9.5 6s7.7-2.4 9.5-6c1.9-3.8 2.5-8.9 2.5-14.1s-.6-10.3-2.5-14.1c-1.8-3.6-4.6-6-9.5-6s-7.7 2.4-9.5 6c-1.8 3.8-2.4 8.9-2.4 14.1s.6 10.31 2.4 14.1z"/><path d="m51.9 208.31v-72.4h14.9v27.4c2.1-3.1 7.6-5.9 14.4-5.9 14.4 0 23.1 11 23.1 25.9 0 15.2-9.8 26.1-23.7 26.1-6.6 0-11.7-2.9-14-6.7v5.6zm26-37.2c-5.9 0-11.3 3.9-11.3 12.3 0 8.2 5.4 12.4 11.3 12.4s11.2-4.1 11.2-12.4-5.3-12.3-11.2-12.3z"/><path d="m163.3 183.41c0 15.4-11.5 26.4-26.4 26.4s-26.4-11-26.4-26.4 11.6-26.3 26.4-26.3 26.4 10.89 26.4 26.3zm-15.2 0c0-8.4-5.4-12.3-11.2-12.3s-11.2 3.9-11.2 12.3 5.5 12.4 11.2 12.4 11.2-4 11.2-12.4z"/><path d="m222.3 183.41c0 15.4-11.5 26.4-26.4 26.4s-26.4-11-26.4-26.4 11.6-26.3 26.4-26.3 26.4 10.89 26.4 26.3zm-15.2 0c0-8.4-5.4-12.3-11.2-12.3s-11.2 3.9-11.2 12.3 5.5 12.4 11.2 12.4 11.2-4 11.2-12.4z"/><path d="m250.2 158.61h9.7v13.3h-9.7v18.6c0 4.1 2.2 5.2 5.5 5.2a18.75 18.75 0 0 0 4-.5v12.6c-.6.3-3.1 1.4-7.9 1.4-10.3 0-16.6-6.1-16.6-16v-21.3h-8.8v-13.3h2.5c5.2 0 7.7-3.5 7.7-8.1v-6.4h13.6z"/><path d="m281.8 183.51c0 7.9 5.3 12.3 11.6 12.3a10.25 10.25 0 0 0 10.3-7.4l13.4 4.1c-2.2 8.7-10.4 17.3-23.7 17.3-14.8 0-26.7-10.9-26.7-26.3s11.6-26.4 26.2-26.4c13.7 0 21.7 8.4 23.9 17.3l-13.6 4.1a9.77 9.77 0 0 0 -10-7.4c-6.3 0-11.4 4.4-11.4 12.4z"/><path d="m338 179.61 11.7-1.8c2.7-.4 3.6-1.7 3.6-3.4 0-2.9-2.5-5.4-7.3-5.4-5.3 0-8.21 3.6-8.5 7.3l-13.21-2.7c.6-7.1 7.2-16.5 21.81-16.5 16.1 0 22 9 22 19.2v24.3a48.84 48.84 0 0 0 .6 7.7h-13.7a24.31 24.31 0 0 1 -.5-5.6c-2.6 4.2-7.4 7-14 7-10.91 0-17.21-7.2-17.21-15.1 0-8.8 6.5-13.8 14.71-15zm15.3 9.2v-2.2l-9.4 1.5c-3.2.5-5.61 2-5.61 5.5 0 2.6 1.71 5.1 5.91 5.1 4.5 0 9.1-2.2 9.1-9.9z"/><path d="m379.59 208.31v-49.7h14.5v5.7c2.5-4.4 8.9-7.2 14.3-7.2 7.11 0 12.21 2.9 14.71 7.8 3.9-5.6 8.7-7.8 15.4-7.8 9.4 0 18.4 5.5 18.4 19v32.2h-14.7v-28.8c0-4.7-2.5-8.4-7.9-8.4s-8.3 4.1-8.3 8.5v28.7h-15v-28.8c0-4.7-2.5-8.4-8-8.4-5.3 0-8.2 4.1-8.2 8.6v28.6z"/><path d="m468.69 227.31v-68.7h14.7v5.1c2.1-3.2 7.5-6.3 14.6-6.3 14.4 0 23.1 11 23.1 25.9 0 15.2-9.8 26.1-23.7 26.1-6.4 0-11.2-2.2-13.5-5v22.9zm26.2-56.2c-5.9 0-11.2 4-11.2 12.3s5.3 12.4 11.2 12.4 11.3-4.1 11.3-12.4-5.3-12.3-11.3-12.3z"/></g></svg>