<svg fill="none" height="120" viewBox="0 0 120 120" width="120" xmlns="http://www.w3.org/2000/svg"><g clip-rule="evenodd" fill="#eaeaea" fill-rule="evenodd"><path d="m60 0c33.1371 0 60 26.8629 60 60s-26.8629 60-60 60-60-26.8629-60-60 26.8629-60 60-60zm36 46h-72v42.8c0 3.9765 3.2236 7.2 7.2 7.2h57.6c3.9765 0 7.2-3.2235 7.2-7.2v-16.7998l-11.6291.0002-.1344.2692c-4.4849 8.8582-13.6743 14.9304-24.282 14.9304-12.9604 0-23.8037-9.0646-26.536-21.1997l2.5815-.0001 60-.0002zm-18.5347 26.0003h-35.0216l.1153.1669c3.8315 5.4886 10.1942 9.0791 17.3955 9.0791 7.2741 0 13.6925-3.6634 17.5108-9.246zm11.3347-48.0003h-57.6c-3.9764 0-7.2 3.2236-7.2 7.2v8.8h72v-8.8c0-3.9764-3.2235-7.2-7.2-7.2z"/><path d="m38.0501 48.2218-2.8284 2.8285 4.9498 4.9497-4.9498 4.9497 2.8284 2.8285 4.9498-4.9498 4.9497 4.9498 2.8285-2.8285-4.9498-4.9497 4.9498-4.9497-2.8285-2.8285-4.9497 4.9498zm30.8996 2.8285 2.8284-2.8284 4.9497 4.9497 4.9498-4.9498 2.8284 2.8285-4.9497 4.9497 4.9498 4.9498-2.8285 2.8284-4.9498-4.9498-4.9497 4.9498-2.8284-2.8284 4.9497-4.9498z"/></g></svg>