<svg fill="none" height="120" viewBox="0 0 120 120" width="120" xmlns="http://www.w3.org/2000/svg"><path clip-rule="evenodd" d="m60 0c33.1371 0 60 26.8629 60 60s-26.8629 60-60 60-60-26.8629-60-60 26.8629-60 60-60zm36 46h-72v42.8c0 3.9765 3.2236 7.2 7.2 7.2h57.6c3.9765 0 7.2-3.2235 7.2-7.2v-16.7998l-11.6291.0002-.1344.2692c-4.4849 8.8582-13.6743 14.9304-24.282 14.9304-12.9604 0-23.8037-9.0646-26.536-21.1997l2.5815-.0001v-.0002h60zm-18.5347 26.0003h-35.0216l.1153.1669c3.8315 5.4886 10.1942 9.0791 17.3955 9.0791 7.2741 0 13.6925-3.6634 17.5108-9.246zm-32.8653-21.2003c5.6424 0 10.3102 4.1724 11.0866 9.6001h-6.1374l-.0243-.0735c-.6967-2.0509-2.6384-3.5266-4.9249-3.5266-2.3137 0-4.2744 1.511-4.9492 3.6001h-6.1374l.0245-.1625c.8453-5.3483 5.4761-9.4376 11.0621-9.4376zm30.8 0c5.6424 0 10.3102 4.1724 11.0866 9.6001h-6.1374l-.0243-.0735c-.6967-2.0509-2.6384-3.5266-4.9249-3.5266-2.3137 0-4.2744 1.511-4.9492 3.6001h-6.1374l.0245-.1625c.8453-5.3483 5.4761-9.4376 11.0621-9.4376zm13.4-26.8h-57.6c-3.9764 0-7.2 3.2236-7.2 7.2v8.8h72v-8.8c0-3.9764-3.2235-7.2-7.2-7.2z" fill="#eaeaea" fill-rule="evenodd"/></svg>