<svg id="euao4ILAmxt1" xmlns="http://www.w3.org/2000/svg" xmlns:xlink="http://www.w3.org/1999/xlink" viewBox="0 0 994 871" shape-rendering="geometricPrecision" text-rendering="geometricPrecision"><style><![CDATA[#euao4ILAmxt2 {animation: euao4ILAmxt2_c_o 7000ms linear infinite normal forwards}@keyframes euao4ILAmxt2_c_o { 0% {opacity: 0} 10% {opacity: 0.41} 100% {opacity: 0.41}} #euao4ILAmxt3 {animation: euao4ILAmxt3_c_o 7000ms linear infinite normal forwards}@keyframes euao4ILAmxt3_c_o { 0% {opacity: 0} 17.142857% {opacity: 0} 25.714286% {opacity: 1} 100% {opacity: 1}} #euao4ILAmxt7 {animation: euao4ILAmxt7_c_o 7000ms linear infinite normal forwards}@keyframes euao4ILAmxt7_c_o { 0% {opacity: 0} 12.857143% {opacity: 1} 100% {opacity: 1}} #euao4ILAmxt18 {animation: euao4ILAmxt18_c_o 7000ms linear infinite normal forwards}@keyframes euao4ILAmxt18_c_o { 0% {opacity: 0} 17.142857% {opacity: 0} 35.714286% {opacity: 0.37} 52.857143% {opacity: 0.37} 71.428571% {opacity: 0} 100% {opacity: 0}} #euao4ILAmxt23_to {animation: euao4ILAmxt23_to__to 7000ms linear infinite normal forwards}@keyframes euao4ILAmxt23_to__to { 0% {transform: translate(595.630995px,355.321016px)} 17.142857% {transform: translate(595.630995px,355.321016px)} 35.714286% {transform: translate(672.728428px,391.661545px)} 52.857143% {transform: translate(672.728428px,391.661545px)} 71.428571% {transform: translate(595.630995px,355.321016px)} 100% {transform: translate(595.630995px,355.321016px)}} #euao4ILAmxt67 {animation: euao4ILAmxt67_c_o 7000ms linear infinite normal forwards}@keyframes euao4ILAmxt67_c_o { 0% {opacity: 0} 12.857143% {opacity: 0} 14.285714% {opacity: 1} 100% {opacity: 1}} #euao4ILAmxt83 {animation: euao4ILAmxt83_c_o 7000ms linear infinite normal forwards}@keyframes euao4ILAmxt83_c_o { 0% {opacity: 0} 44.285714% {opacity: 0} 47.142857% {opacity: 1} 100% {opacity: 1}} #euao4ILAmxt91 {animation: euao4ILAmxt91_f_p 7000ms linear infinite normal forwards}@keyframes euao4ILAmxt91_f_p { 0% {fill: rgb(171,194,242)} 57.142857% {fill: rgb(171,194,242)} 62.857143% {fill: rgb(108,255,236)} 100% {fill: rgb(108,255,236)}} #euao4ILAmxt93 {animation: euao4ILAmxt93_f_p 7000ms linear infinite normal forwards}@keyframes euao4ILAmxt93_f_p { 0% {fill: rgb(171,194,242)} 68.571429% {fill: rgb(171,194,242)} 71.428571% {fill: rgb(108,255,236)} 100% {fill: rgb(108,255,236)}} #euao4ILAmxt94 {animation: euao4ILAmxt94_f_p 7000ms linear infinite normal forwards}@keyframes euao4ILAmxt94_f_p { 0% {fill: rgb(171,194,242)} 62.857143% {fill: rgb(171,194,242)} 68.571429% {fill: rgb(108,255,236)} 100% {fill: rgb(108,255,236)}} #euao4ILAmxt95 {animation: euao4ILAmxt95_f_p 7000ms linear infinite normal forwards}@keyframes euao4ILAmxt95_f_p { 0% {fill: rgb(171,194,242)} 52.857143% {fill: rgb(171,194,242)} 57.142857% {fill: rgb(108,255,236)} 100% {fill: rgb(108,255,236)}} #euao4ILAmxt98 {animation: euao4ILAmxt98_f_p 7000ms linear infinite normal forwards}@keyframes euao4ILAmxt98_f_p { 0% {fill: rgb(171,194,242)} 47.142857% {fill: rgb(171,194,242)} 52.857143% {fill: rgb(108,255,236)} 100% {fill: rgb(108,255,236)}} #euao4ILAmxt102 {animation: euao4ILAmxt102_c_o 7000ms linear infinite normal forwards}@keyframes euao4ILAmxt102_c_o { 0% {opacity: 0} 27.142857% {opacity: 0} 30% {opacity: 1} 100% {opacity: 1}} #euao4ILAmxt106 {animation: euao4ILAmxt106_f_p 7000ms linear infinite normal forwards}@keyframes euao4ILAmxt106_f_p { 0% {fill: rgb(171,194,242)} 34.285714% {fill: rgb(171,194,242)} 40% {fill: rgb(108,255,236)} 100% {fill: rgb(108,255,236)}} #euao4ILAmxt108 {animation: euao4ILAmxt108_f_p 7000ms linear infinite normal forwards}@keyframes euao4ILAmxt108_f_p { 0% {fill: rgb(171,194,242)} 47.142857% {fill: rgb(171,194,242)} 52.857143% {fill: rgb(108,255,236)} 100% {fill: rgb(108,255,236)}} #euao4ILAmxt109 {animation: euao4ILAmxt109_f_p 7000ms linear infinite normal forwards}@keyframes euao4ILAmxt109_f_p { 0% {fill: rgb(171,194,242)} 40% {fill: rgb(171,194,242)} 47.142857% {fill: rgb(108,255,236)} 100% {fill: rgb(108,255,236)}} #euao4ILAmxt116 {animation: euao4ILAmxt116_c_o 7000ms linear infinite normal forwards}@keyframes euao4ILAmxt116_c_o { 0% {opacity: 0} 18.571429% {opacity: 0} 21.428571% {opacity: 1} 100% {opacity: 1}} #euao4ILAmxt118 {animation: euao4ILAmxt118_f_p 7000ms linear infinite normal forwards}@keyframes euao4ILAmxt118_f_p { 0% {fill: rgb(171,194,242)} 21.428571% {fill: rgb(171,194,242)} 28.571429% {fill: rgb(108,255,236)} 100% {fill: rgb(108,255,236)}} #euao4ILAmxt120 {animation: euao4ILAmxt120_f_p 7000ms linear infinite normal forwards}@keyframes euao4ILAmxt120_f_p { 0% {fill: rgb(171,194,242)} 35.714286% {fill: rgb(171,194,242)} 42.857143% {fill: rgb(108,255,236)} 100% {fill: rgb(108,255,236)}} #euao4ILAmxt121 {animation: euao4ILAmxt121_f_p 7000ms linear infinite normal forwards}@keyframes euao4ILAmxt121_f_p { 0% {fill: rgb(171,194,242)} 28.571429% {fill: rgb(171,194,242)} 35.714286% {fill: rgb(108,255,236)} 100% {fill: rgb(108,255,236)}}]]></style><defs><filter id="euao4ILAmxt2-filter" x="-400%" width="600%" y="-400%" height="600%"><feGaussianBlur id="euao4ILAmxt2-filter-blur-0" stdDeviation="40,40" result="result"/></filter><linearGradient id="euao4ILAmxt2-fill" x1="812.077" y1="314.654" x2="243.169" y2="543.527" spreadMethod="pad" gradientUnits="userSpaceOnUse" gradientTransform="matrix(1 0 0 1 0 0)"><stop id="euao4ILAmxt2-fill-0" offset="0%" stop-color="rgb(85,153,255)"/><stop id="euao4ILAmxt2-fill-1" offset="51.2648%" stop-color="rgb(239,212,224)"/><stop id="euao4ILAmxt2-fill-2" offset="100%" stop-color="rgb(185,251,255)"/></linearGradient><linearGradient id="euao4ILAmxt9-fill" x1="574.186" y1="341.77" x2="574.186" y2="185.23" spreadMethod="pad" gradientUnits="userSpaceOnUse" gradientTransform="matrix(1 0 0 1 0 0)"><stop id="euao4ILAmxt9-fill-0" offset="0%" stop-color="rgb(197,220,253)"/><stop id="euao4ILAmxt9-fill-1" offset="100%" stop-color="rgb(134,175,240)"/></linearGradient><linearGradient id="euao4ILAmxt10-fill" x1="496.614" y1="606.344" x2="496.614" y2="274.836" spreadMethod="pad" gradientUnits="userSpaceOnUse" gradientTransform="matrix(1 0 0 1 0 0)"><stop id="euao4ILAmxt10-fill-0" offset="0%" stop-color="rgb(153,188,242)"/><stop id="euao4ILAmxt10-fill-1" offset="100%" stop-color="rgb(101,151,230)"/></linearGradient><linearGradient id="euao4ILAmxt11-fill" x1="632.224" y1="637.864" x2="632.224" y2="374.201" spreadMethod="pad" gradientUnits="userSpaceOnUse" gradientTransform="matrix(1 0 0 1 0 0)"><stop id="euao4ILAmxt11-fill-0" offset="0%" stop-color="rgb(119,163,231)"/><stop id="euao4ILAmxt11-fill-1" offset="100%" stop-color="rgb(57,117,212)"/></linearGradient><linearGradient id="euao4ILAmxt14-fill" x1="638.21" y1="612.415" x2="638.21" y2="468.281" spreadMethod="pad" gradientUnits="userSpaceOnUse" gradientTransform="matrix(1 0 0 1 0 0)"><stop id="euao4ILAmxt14-fill-0" offset="0%" stop-color="rgb(119,163,231)"/><stop id="euao4ILAmxt14-fill-1" offset="100%" stop-color="rgb(57,117,212)"/></linearGradient><linearGradient id="euao4ILAmxt15-fill" x1="568.173" y1="595.16" x2="568.173" y2="474.743" spreadMethod="pad" gradientUnits="userSpaceOnUse" gradientTransform="matrix(1 0 0 1 0 0)"><stop id="euao4ILAmxt15-fill-0" offset="0%" stop-color="rgb(153,188,242)"/><stop id="euao4ILAmxt15-fill-1" offset="100%" stop-color="rgb(101,151,230)"/></linearGradient><linearGradient id="euao4ILAmxt16-fill" x1="608.377" y1="509.931" x2="626.947" y2="462.79" spreadMethod="pad" gradientUnits="userSpaceOnUse" gradientTransform="matrix(1 0 0 1 0 0)"><stop id="euao4ILAmxt16-fill-0" offset="0%" stop-color="rgb(228,241,255)"/><stop id="euao4ILAmxt16-fill-1" offset="49.55%" stop-color="rgb(211,226,253)"/><stop id="euao4ILAmxt16-fill-2" offset="100%" stop-color="rgb(190,206,250)"/></linearGradient><linearGradient id="euao4ILAmxt17-fill" x1="599.862" y1="490.015" x2="686.305" y2="490.015" spreadMethod="pad" gradientUnits="userSpaceOnUse" gradientTransform="matrix(1 0 0 1 0 0)"><stop id="euao4ILAmxt17-fill-0" offset="0%" stop-color="rgb(221,232,255)"/><stop id="euao4ILAmxt17-fill-1" offset="45.65%" stop-color="rgb(238,244,255)"/><stop id="euao4ILAmxt17-fill-2" offset="100%" stop-color="rgb(255,255,255)"/></linearGradient><linearGradient id="euao4ILAmxt19-fill" x1="634.876" y1="478.59" x2="634.876" y2="397.73" spreadMethod="pad" gradientUnits="userSpaceOnUse" gradientTransform="matrix(1 0 0 1 0 0)"><stop id="euao4ILAmxt19-fill-0" offset="0%" stop-color="rgb(73,126,201)"/><stop id="euao4ILAmxt19-fill-1" offset="100%" stop-color="rgb(58,111,195)"/></linearGradient><linearGradient id="euao4ILAmxt26-fill" x1="650.817" y1="461.075" x2="650.817" y2="293.55" spreadMethod="pad" gradientUnits="userSpaceOnUse" gradientTransform="matrix(1 0 0 1 0 0)"><stop id="euao4ILAmxt26-fill-0" offset="0%" stop-color="rgb(245,158,91)"/><stop id="euao4ILAmxt26-fill-1" offset="100%" stop-color="rgb(245,194,91)"/></linearGradient><linearGradient id="euao4ILAmxt30-fill" x1="641.089" y1="346.09" x2="662.603" y2="408.563" spreadMethod="pad" gradientUnits="userSpaceOnUse" gradientTransform="matrix(1 0 0 1 0 0)"><stop id="euao4ILAmxt30-fill-0" offset="0%" stop-color="rgb(255,255,255)"/><stop id="euao4ILAmxt30-fill-1" offset="99.51%" stop-color="rgb(206,218,250)"/></linearGradient><linearGradient id="euao4ILAmxt31-fill" x1="592.391" y1="438.471" x2="594.45" y2="438.432" spreadMethod="pad" gradientUnits="userSpaceOnUse" gradientTransform="matrix(1 0 0 1 0 0)"><stop id="euao4ILAmxt31-fill-0" offset="0%" stop-color="rgb(228,241,255)"/><stop id="euao4ILAmxt31-fill-1" offset="49.55%" stop-color="rgb(211,226,253)"/><stop id="euao4ILAmxt31-fill-2" offset="100%" stop-color="rgb(190,206,250)"/></linearGradient><linearGradient id="euao4ILAmxt32-fill" x1="592.272" y1="327.77" x2="710.67" y2="327.77" spreadMethod="pad" gradientUnits="userSpaceOnUse" gradientTransform="matrix(1 0 0 1 0 0)"><stop id="euao4ILAmxt32-fill-0" offset="0%" stop-color="rgb(221,232,255)"/><stop id="euao4ILAmxt32-fill-1" offset="45.65%" stop-color="rgb(238,244,255)"/><stop id="euao4ILAmxt32-fill-2" offset="100%" stop-color="rgb(255,255,255)"/></linearGradient><linearGradient id="euao4ILAmxt33-fill" x1="644.217" y1="347.946" x2="665.729" y2="410.421" spreadMethod="pad" gradientUnits="userSpaceOnUse" gradientTransform="matrix(1 0 0 1 0 0)"><stop id="euao4ILAmxt33-fill-0" offset="0%" stop-color="rgb(255,255,255)"/><stop id="euao4ILAmxt33-fill-1" offset="99.51%" stop-color="rgb(206,218,250)"/></linearGradient><linearGradient id="euao4ILAmxt34-fill" x1="595.527" y1="440.28" x2="597.562" y2="440.241" spreadMethod="pad" gradientUnits="userSpaceOnUse" gradientTransform="matrix(1 0 0 1 0 0)"><stop id="euao4ILAmxt34-fill-0" offset="0%" stop-color="rgb(228,241,255)"/><stop id="euao4ILAmxt34-fill-1" offset="49.55%" stop-color="rgb(211,226,253)"/><stop id="euao4ILAmxt34-fill-2" offset="100%" stop-color="rgb(190,206,250)"/></linearGradient><linearGradient id="euao4ILAmxt35-fill" x1="595.409" y1="329.59" x2="713.808" y2="329.59" spreadMethod="pad" gradientUnits="userSpaceOnUse" gradientTransform="matrix(1 0 0 1 0 0)"><stop id="euao4ILAmxt35-fill-0" offset="0%" stop-color="rgb(221,232,255)"/><stop id="euao4ILAmxt35-fill-1" offset="45.65%" stop-color="rgb(238,244,255)"/><stop id="euao4ILAmxt35-fill-2" offset="100%" stop-color="rgb(255,255,255)"/></linearGradient><linearGradient id="euao4ILAmxt38-fill" x1="658.43" y1="465.529" x2="658.43" y2="318.101" spreadMethod="pad" gradientUnits="userSpaceOnUse" gradientTransform="matrix(1 0 0 1 0 0)"><stop id="euao4ILAmxt38-fill-0" offset="0%" stop-color="rgb(245,158,91)"/><stop id="euao4ILAmxt38-fill-1" offset="100%" stop-color="rgb(245,194,91)"/></linearGradient><linearGradient id="euao4ILAmxt39-fill" x1="671.276" y1="472.737" x2="671.276" y2="305.226" spreadMethod="pad" gradientUnits="userSpaceOnUse" gradientTransform="matrix(1 0 0 1 0 0)"><stop id="euao4ILAmxt39-fill-0" offset="0%" stop-color="rgb(245,158,91)"/><stop id="euao4ILAmxt39-fill-1" offset="100%" stop-color="rgb(245,194,91)"/></linearGradient><linearGradient id="euao4ILAmxt43-fill" x1="661.541" y1="357.759" x2="683.052" y2="420.228" spreadMethod="pad" gradientUnits="userSpaceOnUse" gradientTransform="matrix(1 0 0 1 0 0)"><stop id="euao4ILAmxt43-fill-0" offset="0%" stop-color="rgb(255,255,255)"/><stop id="euao4ILAmxt43-fill-1" offset="99.51%" stop-color="rgb(206,218,250)"/></linearGradient><linearGradient id="euao4ILAmxt44-fill" x1="612.843" y1="450.135" x2="614.902" y2="450.096" spreadMethod="pad" gradientUnits="userSpaceOnUse" gradientTransform="matrix(1 0 0 1 0 0)"><stop id="euao4ILAmxt44-fill-0" offset="0%" stop-color="rgb(228,241,255)"/><stop id="euao4ILAmxt44-fill-1" offset="49.55%" stop-color="rgb(211,226,253)"/><stop id="euao4ILAmxt44-fill-2" offset="100%" stop-color="rgb(190,206,250)"/></linearGradient><linearGradient id="euao4ILAmxt45-fill" x1="612.724" y1="339.431" x2="731.122" y2="339.431" spreadMethod="pad" gradientUnits="userSpaceOnUse" gradientTransform="matrix(1 0 0 1 0 0)"><stop id="euao4ILAmxt45-fill-0" offset="0%" stop-color="rgb(221,232,255)"/><stop id="euao4ILAmxt45-fill-1" offset="45.65%" stop-color="rgb(238,244,255)"/><stop id="euao4ILAmxt45-fill-2" offset="100%" stop-color="rgb(255,255,255)"/></linearGradient><linearGradient id="euao4ILAmxt46-fill" x1="664.67" y1="359.607" x2="686.182" y2="422.082" spreadMethod="pad" gradientUnits="userSpaceOnUse" gradientTransform="matrix(1 0 0 1 0 0)"><stop id="euao4ILAmxt46-fill-0" offset="0%" stop-color="rgb(255,255,255)"/><stop id="euao4ILAmxt46-fill-1" offset="99.51%" stop-color="rgb(206,218,250)"/></linearGradient><linearGradient id="euao4ILAmxt47-fill" x1="615.981" y1="451.956" x2="618.039" y2="451.916" spreadMethod="pad" gradientUnits="userSpaceOnUse" gradientTransform="matrix(1 0 0 1 0 0)"><stop id="euao4ILAmxt47-fill-0" offset="0%" stop-color="rgb(228,241,255)"/><stop id="euao4ILAmxt47-fill-1" offset="49.55%" stop-color="rgb(211,226,253)"/><stop id="euao4ILAmxt47-fill-2" offset="100%" stop-color="rgb(190,206,250)"/></linearGradient><linearGradient id="euao4ILAmxt48-fill" x1="615.861" y1="341.252" x2="734.26" y2="341.252" spreadMethod="pad" gradientUnits="userSpaceOnUse" gradientTransform="matrix(1 0 0 1 0 0)"><stop id="euao4ILAmxt48-fill-0" offset="0%" stop-color="rgb(221,232,255)"/><stop id="euao4ILAmxt48-fill-1" offset="45.65%" stop-color="rgb(238,244,255)"/><stop id="euao4ILAmxt48-fill-2" offset="100%" stop-color="rgb(255,255,255)"/></linearGradient><linearGradient id="euao4ILAmxt51-fill" x1="678.882" y1="477.19" x2="678.882" y2="329.762" spreadMethod="pad" gradientUnits="userSpaceOnUse" gradientTransform="matrix(1 0 0 1 0 0)"><stop id="euao4ILAmxt51-fill-0" offset="0%" stop-color="rgb(245,158,91)"/><stop id="euao4ILAmxt51-fill-1" offset="100%" stop-color="rgb(245,194,91)"/></linearGradient><linearGradient id="euao4ILAmxt52-fill" x1="573.039" y1="483.166" x2="642.314" y2="416.733" spreadMethod="pad" gradientUnits="userSpaceOnUse" gradientTransform="matrix(1 0 0 1 0 0)"><stop id="euao4ILAmxt52-fill-0" offset="0%" stop-color="rgb(228,241,255)"/><stop id="euao4ILAmxt52-fill-1" offset="49.55%" stop-color="rgb(211,226,253)"/><stop id="euao4ILAmxt52-fill-2" offset="100%" stop-color="rgb(190,206,250)"/></linearGradient><linearGradient id="euao4ILAmxt53-fill" x1="573.039" y1="491.356" x2="597.296" y2="440" spreadMethod="pad" gradientUnits="userSpaceOnUse" gradientTransform="matrix(1 0 0 1 0 0)"><stop id="euao4ILAmxt53-fill-0" offset="0%" stop-color="rgb(228,241,255)"/><stop id="euao4ILAmxt53-fill-1" offset="49.55%" stop-color="rgb(211,226,253)"/><stop id="euao4ILAmxt53-fill-2" offset="100%" stop-color="rgb(190,206,250)"/></linearGradient><linearGradient id="euao4ILAmxt54-fill" x1="564.848" y1="404.36" x2="652.73" y2="404.36" spreadMethod="pad" gradientUnits="userSpaceOnUse" gradientTransform="matrix(1 0 0 1 0 0)"><stop id="euao4ILAmxt54-fill-0" offset="0%" stop-color="rgb(221,232,255)"/><stop id="euao4ILAmxt54-fill-1" offset="45.65%" stop-color="rgb(238,244,255)"/><stop id="euao4ILAmxt54-fill-2" offset="100%" stop-color="rgb(255,255,255)"/></linearGradient><linearGradient id="euao4ILAmxt55-fill" x1="714.696" y1="530.611" x2="714.696" y2="386.466" spreadMethod="pad" gradientUnits="userSpaceOnUse" gradientTransform="matrix(1 0 0 1 0 0)"><stop id="euao4ILAmxt55-fill-0" offset="0%" stop-color="rgb(119,163,231)"/><stop id="euao4ILAmxt55-fill-1" offset="100%" stop-color="rgb(57,117,212)"/></linearGradient><linearGradient id="euao4ILAmxt56-fill" x1="644.659" y1="513.355" x2="644.659" y2="392.922" spreadMethod="pad" gradientUnits="userSpaceOnUse" gradientTransform="matrix(1 0 0 1 0 0)"><stop id="euao4ILAmxt56-fill-0" offset="0%" stop-color="rgb(153,188,242)"/><stop id="euao4ILAmxt56-fill-1" offset="100%" stop-color="rgb(101,151,230)"/></linearGradient><linearGradient id="euao4ILAmxt57-fill" x1="564.848" y1="477.244" x2="641.333" y2="477.244" spreadMethod="pad" gradientUnits="userSpaceOnUse" gradientTransform="matrix(1 0 0 1 0 0)"><stop id="euao4ILAmxt57-fill-0" offset="0%" stop-color="rgb(221,232,255)"/><stop id="euao4ILAmxt57-fill-1" offset="45.65%" stop-color="rgb(238,244,255)"/><stop id="euao4ILAmxt57-fill-2" offset="100%" stop-color="rgb(255,255,255)"/></linearGradient><linearGradient id="euao4ILAmxt58-fill" x1="711.355" y1="396.785" x2="711.355" y2="315.925" spreadMethod="pad" gradientUnits="userSpaceOnUse" gradientTransform="matrix(1 0 0 1 0 0)"><stop id="euao4ILAmxt58-fill-0" offset="0%" stop-color="rgb(197,220,253)"/><stop id="euao4ILAmxt58-fill-1" offset="100%" stop-color="rgb(134,175,240)"/></linearGradient><linearGradient id="euao4ILAmxt59-fill" x1="746.02" y1="383.483" x2="752.619" y2="379.242" spreadMethod="pad" gradientUnits="userSpaceOnUse" gradientTransform="matrix(1 0 0 1 0 0)"><stop id="euao4ILAmxt59-fill-0" offset="0%" stop-color="rgb(228,241,255)"/><stop id="euao4ILAmxt59-fill-1" offset="49.55%" stop-color="rgb(211,226,253)"/><stop id="euao4ILAmxt59-fill-2" offset="100%" stop-color="rgb(190,206,250)"/></linearGradient><linearGradient id="euao4ILAmxt60-fill" x1="684.204" y1="412.79" x2="702.775" y2="365.649" spreadMethod="pad" gradientUnits="userSpaceOnUse" gradientTransform="matrix(1 0 0 1 0 0)"><stop id="euao4ILAmxt60-fill-0" offset="0%" stop-color="rgb(228,241,255)"/><stop id="euao4ILAmxt60-fill-1" offset="49.55%" stop-color="rgb(211,226,253)"/><stop id="euao4ILAmxt60-fill-2" offset="100%" stop-color="rgb(190,206,250)"/></linearGradient><linearGradient id="euao4ILAmxt61-fill" x1="675.69" y1="392.875" x2="762.132" y2="392.875" spreadMethod="pad" gradientUnits="userSpaceOnUse" gradientTransform="matrix(1 0 0 1 0 0)"><stop id="euao4ILAmxt61-fill-0" offset="0%" stop-color="rgb(221,232,255)"/><stop id="euao4ILAmxt61-fill-1" offset="45.65%" stop-color="rgb(238,244,255)"/><stop id="euao4ILAmxt61-fill-2" offset="100%" stop-color="rgb(255,255,255)"/></linearGradient><linearGradient id="euao4ILAmxt72-fill" x1="520.493" y1="529.221" x2="523.479" y2="535.193" spreadMethod="pad" gradientUnits="userSpaceOnUse" gradientTransform="matrix(1 0 0 1 0 0)"><stop id="euao4ILAmxt72-fill-0" offset="0%" stop-color="rgb(245,228,140)"/><stop id="euao4ILAmxt72-fill-1" offset="100%" stop-color="rgb(246,187,92)"/></linearGradient><linearGradient id="euao4ILAmxt75-fill" x1="515.689" y1="594.393" x2="515.689" y2="531.689" spreadMethod="pad" gradientUnits="userSpaceOnUse" gradientTransform="matrix(1 0 0 1 0 0)"><stop id="euao4ILAmxt75-fill-0" offset="0%" stop-color="rgb(245,158,91)"/><stop id="euao4ILAmxt75-fill-1" offset="100%" stop-color="rgb(245,194,91)"/></linearGradient><linearGradient id="euao4ILAmxt82-fill" x1="459.335" y1="561.08" x2="459.335" y2="591.475" spreadMethod="pad" gradientUnits="userSpaceOnUse" gradientTransform="matrix(1 0 0 1 0 0)"><stop id="euao4ILAmxt82-fill-0" offset="0%" stop-color="rgb(195,130,0)"/><stop id="euao4ILAmxt82-fill-1" offset="100%" stop-color="rgb(246,164,0)"/></linearGradient><linearGradient id="euao4ILAmxt84-fill" x1="496.077" y1="689.934" x2="589.908" y2="689.934" spreadMethod="pad" gradientUnits="userSpaceOnUse" gradientTransform="matrix(1 0 0 1 0 0)"><stop id="euao4ILAmxt84-fill-0" offset="0%" stop-color="rgb(221,232,255)"/><stop id="euao4ILAmxt84-fill-1" offset="45.65%" stop-color="rgb(238,244,255)"/><stop id="euao4ILAmxt84-fill-2" offset="100%" stop-color="rgb(255,255,255)"/></linearGradient><linearGradient id="euao4ILAmxt100-fill" x1="542.98" y1="726.023" x2="542.98" y2="690.06" spreadMethod="pad" gradientUnits="userSpaceOnUse" gradientTransform="matrix(1 0 0 1 0 0)"><stop id="euao4ILAmxt100-fill-0" offset="0%" stop-color="rgb(221,232,255)"/><stop id="euao4ILAmxt100-fill-1" offset="100%" stop-color="rgb(228,241,255)"/></linearGradient><linearGradient id="euao4ILAmxt103-fill" x1="311.908" y1="646.796" x2="405.739" y2="646.796" spreadMethod="pad" gradientUnits="userSpaceOnUse" gradientTransform="matrix(1 0 0 1 0 0)"><stop id="euao4ILAmxt103-fill-0" offset="0%" stop-color="rgb(221,232,255)"/><stop id="euao4ILAmxt103-fill-1" offset="45.65%" stop-color="rgb(238,244,255)"/><stop id="euao4ILAmxt103-fill-2" offset="100%" stop-color="rgb(255,255,255)"/></linearGradient><linearGradient id="euao4ILAmxt114-fill" x1="358.825" y1="682.87" x2="358.825" y2="646.907" spreadMethod="pad" gradientUnits="userSpaceOnUse" gradientTransform="matrix(1 0 0 1 0 0)"><stop id="euao4ILAmxt114-fill-0" offset="0%" stop-color="rgb(221,232,255)"/><stop id="euao4ILAmxt114-fill-1" offset="100%" stop-color="rgb(228,241,255)"/></linearGradient><linearGradient id="euao4ILAmxt117-fill" x1="243.82" y1="542.48" x2="337.651" y2="542.48" spreadMethod="pad" gradientUnits="userSpaceOnUse" gradientTransform="matrix(1 0 0 1 0 0)"><stop id="euao4ILAmxt117-fill-0" offset="0%" stop-color="rgb(221,232,255)"/><stop id="euao4ILAmxt117-fill-1" offset="45.65%" stop-color="rgb(238,244,255)"/><stop id="euao4ILAmxt117-fill-2" offset="100%" stop-color="rgb(255,255,255)"/></linearGradient><linearGradient id="euao4ILAmxt126-fill" x1="290.748" y1="578.569" x2="290.748" y2="542.622" spreadMethod="pad" gradientUnits="userSpaceOnUse" gradientTransform="matrix(1 0 0 1 0 0)"><stop id="euao4ILAmxt126-fill-0" offset="0%" stop-color="rgb(221,232,255)"/><stop id="euao4ILAmxt126-fill-1" offset="100%" stop-color="rgb(228,241,255)"/></linearGradient></defs><path id="euao4ILAmxt2" d="M556.382,689.238C382.335,722.068,214.628,607.59,181.797,433.543C148.967,259.496,278.912,233.348,452.959,200.518C627.006,167.687,779.247,140.607,812.077,314.654C844.907,488.701,730.429,656.408,556.382,689.238Z" transform="matrix(1 0 0 1 0 -0.332344)" opacity="0" filter="url(#euao4ILAmxt2-filter)" fill="url(#euao4ILAmxt2-fill)" stroke="none" stroke-width="1"/><g id="euao4ILAmxt3" transform="matrix(1 0 0 1 0 0.000001)" opacity="0"><path id="euao4ILAmxt4" d="M532.664,635.42L532.324,635.228L396.191,556.632L397.213,556.04L571.806,455.232L572.147,455.425L708.279,534.02L707.258,534.612L532.664,635.42ZM398.914,556.618L532.664,633.837L705.556,534.02L571.806,456.801L398.914,556.618Z" fill="rgb(42,255,193)" stroke="none" stroke-width="1"/><path id="euao4ILAmxt5" d="M543.989,700.456L543.648,700.264L289.364,553.447L432.037,471.078L484.395,501.312L483.714,502.496L432.037,472.662L292.087,553.447L543.989,698.888L683.909,618.087L618.337,580.78L619.018,579.596L686.662,618.087L543.989,700.456Z" fill="rgb(42,255,193)" stroke="none" stroke-width="1"/><path id="euao4ILAmxt6" d="M412.955,623.65L358.44,656.008L359.135,657.179L413.65,624.821L412.955,623.65Z" fill="rgb(42,255,193)" stroke="none" stroke-width="1"/></g><g id="euao4ILAmxt7" transform="matrix(1 0 0 1 0.000001 0)" opacity="0"><g id="euao4ILAmxt8" transform="matrix(1 0 0 1 0.000001 0)"><path id="euao4ILAmxt9" d="M554.618,341.77L438.612,274.806L593.76,185.23L709.766,252.194L554.618,341.77Z" fill="url(#euao4ILAmxt9-fill)" stroke="none" stroke-width="1"/><path id="euao4ILAmxt10" d="M554.618,606.339L438.612,539.375L438.626,274.836L554.618,341.799L554.618,606.339Z" fill="url(#euao4ILAmxt10-fill)" stroke="none" stroke-width="1"/><path id="euao4ILAmxt11" d="M554.647,606.324L554.647,341.784L709.796,252.208L709.796,516.748L554.647,606.324Z" fill="url(#euao4ILAmxt11-fill)" stroke="none" stroke-width="1"/><path id="euao4ILAmxt12" d="M564.844,347.423L700.961,268.827L700.976,511.406L564.844,590.001L564.844,347.423Z" fill="rgb(0,44,112)" stroke="none" stroke-width="1"/><path id="euao4ILAmxt13" d="M698.919,387.616L565.524,464.628L565.524,348.059L698.919,271.047L698.919,387.616Z" fill="rgb(2,52,130)" stroke="none" stroke-width="1"/><path id="euao4ILAmxt14" d="M704.912,518.161L571.518,595.173L571.503,478.605L704.912,401.593L704.912,518.161Z" fill="url(#euao4ILAmxt14-fill)" stroke="none" stroke-width="1"/><path id="euao4ILAmxt15" d="M571.503,595.158L564.844,591.311L564.844,474.742L571.503,478.59L571.503,595.158Z" fill="url(#euao4ILAmxt15-fill)" stroke="none" stroke-width="1"/><path id="euao4ILAmxt16" d="M669.618,477.007L608.721,512.168L599.857,510.466L599.857,517.288L605.688,520.648L605.924,520.781C608.248,522.128,612.007,522.128,614.33,520.781L684.549,480.233C685.852,479.478,686.236,478.472,686.266,477.48C686.296,476.4,686.296,470.703,686.296,470.703L678.497,471.886L669.618,477.007Z" fill="url(#euao4ILAmxt16-fill)" stroke="none" stroke-width="1"/><path id="euao4ILAmxt17" d="M669.618,470.184L675.448,473.544L614.552,508.705L608.722,505.346L599.857,510.466L605.688,513.825L605.925,513.959C608.248,515.305,612.007,515.305,614.33,513.959L684.55,473.411C686.873,472.064,686.873,469.903,684.55,468.557L684.313,468.423L678.482,465.064L669.618,470.184Z" fill="url(#euao4ILAmxt17-fill)" stroke="none" stroke-width="1"/><path id="euao4ILAmxt18" d="M704.912,418.478L704.912,401.593L571.503,478.605L571.517,595.173L651.681,548.883L704.912,418.478Z" transform="matrix(1 0 0 1 0 -0.015)" opacity="0" fill="rgb(38,34,117)" stroke="none" stroke-width="1"/><path id="euao4ILAmxt19" d="M571.517,478.59L564.843,474.742L698.238,397.73L704.912,401.578L571.517,478.59Z" fill="url(#euao4ILAmxt19-fill)" stroke="none" stroke-width="1"/><path id="euao4ILAmxt20" d="M599.871,476.934L597.932,475.809L676.557,430.422L678.481,431.546L599.871,476.934Z" fill="rgb(235,239,252)" stroke="none" stroke-width="1"/><path id="euao4ILAmxt21" d="M675.462,480.604L669.632,477.23L669.632,466.989L675.462,470.363L675.462,480.604Z" fill="rgb(204,208,219)" stroke="none" stroke-width="1"/></g><g id="euao4ILAmxt22" mask="url(#euao4ILAmxt65)"><g id="euao4ILAmxt23_to" transform="translate(595.630995,355.321016)"><g id="euao4ILAmxt23" transform="translate(-673.124023,-399.699997)"><path id="euao4ILAmxt24" d="M781.405,436.548L668.285,371.035L668.285,288.962L781.405,354.475L781.405,436.548Z" fill="rgb(163,166,176)" stroke="none" stroke-width="1"/><path id="euao4ILAmxt25" d="M744.779,333.254L668.285,288.962L673.42,286.032L749.514,330.531L744.779,333.254Z" fill="rgb(235,239,252)" stroke="none" stroke-width="1"/><path id="euao4ILAmxt26" d="M654.463,325.263L637.518,315.23L592.264,341.364L592.264,361.164L592.264,461.07L709.366,393.455L709.366,293.55L654.463,325.263Z" fill="url(#euao4ILAmxt26-fill)" stroke="none" stroke-width="1"/><path id="euao4ILAmxt27" d="M592.264,461.085L589.038,459.22L589.038,339.499L592.264,341.364L592.264,461.085Z" fill="rgb(245,194,91)" stroke="none" stroke-width="1"/><path id="euao4ILAmxt28" d="M592.264,341.379L589.038,339.514L634.485,313.276L637.711,315.141L592.264,341.379Z" fill="rgb(245,228,140)" stroke="none" stroke-width="1"/><path id="euao4ILAmxt29" d="M654.537,325.233L651.311,323.369L706.14,291.7L709.366,293.564L654.537,325.233Z" fill="rgb(245,228,140)" stroke="none" stroke-width="1"/><path id="euao4ILAmxt30" d="M710.653,394.233L593.552,461.847L593.552,361.942L710.653,294.327L710.653,394.233Z" fill="url(#euao4ILAmxt30-fill)" stroke="none" stroke-width="1"/><path id="euao4ILAmxt31" d="M593.552,461.839L592.264,461.085L592.264,361.179L593.552,361.934L593.552,461.839Z" fill="url(#euao4ILAmxt31-fill)" stroke="none" stroke-width="1"/><path id="euao4ILAmxt32" d="M593.552,361.949L592.264,361.209L709.366,293.594L710.653,294.334L593.552,361.949Z" fill="url(#euao4ILAmxt32-fill)" stroke="none" stroke-width="1"/><path id="euao4ILAmxt33" d="M713.79,396.089L596.674,463.704L596.674,363.799L713.79,296.184L713.79,396.089Z" fill="url(#euao4ILAmxt33-fill)" stroke="none" stroke-width="1"/><path id="euao4ILAmxt34" d="M596.675,463.645L595.402,462.905L595.402,363L596.675,363.739L596.675,463.645Z" fill="url(#euao4ILAmxt34-fill)" stroke="none" stroke-width="1"/><path id="euao4ILAmxt35" d="M596.675,363.769L595.402,363.029L712.503,295.414L713.791,296.154L596.675,363.769Z" fill="url(#euao4ILAmxt35-fill)" stroke="none" stroke-width="1"/><path id="euao4ILAmxt36" d="M599.871,465.494L596.645,463.63L596.659,383.806L599.871,385.671L599.871,465.494Z" fill="rgb(245,194,91)" stroke="none" stroke-width="1"/><path id="euao4ILAmxt37" d="M599.871,385.7L596.645,383.836L713.761,316.221L716.987,318.086L599.871,385.7Z" fill="rgb(245,228,140)" stroke="none" stroke-width="1"/><path id="euao4ILAmxt38" d="M716.987,397.909L599.871,465.524L599.871,385.7L716.987,318.1L716.987,397.909Z" fill="url(#euao4ILAmxt38-fill)" stroke="none" stroke-width="1"/><path id="euao4ILAmxt39" d="M674.915,336.924L657.97,326.906L612.716,353.025L612.716,372.826L612.716,472.731L729.832,405.131L729.818,305.226L674.915,336.924Z" fill="url(#euao4ILAmxt39-fill)" stroke="none" stroke-width="1"/><path id="euao4ILAmxt40" d="M612.716,472.746L609.49,470.881L609.49,351.175L612.716,353.04L612.716,472.746Z" fill="rgb(245,194,91)" stroke="none" stroke-width="1"/><path id="euao4ILAmxt41" d="M612.716,353.04L609.49,351.175L654.937,324.938L658.163,326.802L612.716,353.04Z" fill="rgb(245,228,140)" stroke="none" stroke-width="1"/><path id="euao4ILAmxt42" d="M674.989,336.895L671.763,335.03L726.607,303.376L729.833,305.226L674.989,336.895Z" fill="rgb(245,228,140)" stroke="none" stroke-width="1"/><path id="euao4ILAmxt43" d="M731.105,405.907L614.004,473.507L614.004,373.602L731.105,306.002L731.105,405.907Z" fill="url(#euao4ILAmxt43-fill)" stroke="none" stroke-width="1"/><path id="euao4ILAmxt44" d="M614.004,473.5L612.716,472.76L612.716,372.855L614.004,373.595L614.004,473.5Z" fill="url(#euao4ILAmxt44-fill)" stroke="none" stroke-width="1"/><path id="euao4ILAmxt45" d="M614.004,373.61L612.717,372.87L729.818,305.255L731.105,305.995L614.004,373.61Z" fill="url(#euao4ILAmxt45-fill)" stroke="none" stroke-width="1"/><path id="euao4ILAmxt46" d="M734.243,407.75L617.142,475.365L617.127,375.46L734.243,307.845L734.243,407.75Z" fill="url(#euao4ILAmxt46-fill)" stroke="none" stroke-width="1"/><path id="euao4ILAmxt47" d="M617.141,475.321L615.854,474.566L615.854,374.676L617.141,375.415L617.141,475.321Z" fill="url(#euao4ILAmxt47-fill)" stroke="none" stroke-width="1"/><path id="euao4ILAmxt48" d="M617.141,375.43L615.854,374.69L732.955,307.076L734.242,307.815L617.141,375.43Z" fill="url(#euao4ILAmxt48-fill)" stroke="none" stroke-width="1"/><path id="euao4ILAmxt49" d="M620.337,477.156L617.111,475.291L617.111,395.482L620.337,397.332L620.337,477.156Z" fill="rgb(245,194,91)" stroke="none" stroke-width="1"/><path id="euao4ILAmxt50" d="M620.337,397.362L617.111,395.512L734.213,327.897L737.439,329.762L620.337,397.362Z" fill="rgb(245,228,140)" stroke="none" stroke-width="1"/><path id="euao4ILAmxt51" d="M737.439,409.585L620.323,477.185L620.323,397.377L737.439,329.762L737.439,409.585Z" fill="url(#euao4ILAmxt51-fill)" stroke="none" stroke-width="1"/><path id="euao4ILAmxt52" d="M647.996,513.368L564.843,465.361L564.843,383.273L647.996,431.295L647.996,513.368Z" fill="url(#euao4ILAmxt52-fill)" stroke="none" stroke-width="1"/><path id="euao4ILAmxt53" d="M647.996,505.036L564.843,457.03L564.843,446.108L647.996,494.115L647.996,505.036Z" fill="url(#euao4ILAmxt53-fill)" stroke="none" stroke-width="1"/><path id="euao4ILAmxt54" d="M647.996,431.325L564.843,383.303L564.843,377.398L652.717,428.587L647.996,431.325Z" fill="url(#euao4ILAmxt54-fill)" stroke="none" stroke-width="1"/><path id="euao4ILAmxt55" d="M781.391,436.356L647.996,513.368L647.996,396.799L781.391,319.773L781.391,436.356Z" fill="url(#euao4ILAmxt55-fill)" stroke="none" stroke-width="1"/><path id="euao4ILAmxt56" d="M647.996,513.353L641.322,509.505L641.322,392.922L647.996,396.77L647.996,513.353Z" fill="url(#euao4ILAmxt56-fill)" stroke="none" stroke-width="1"/><path id="euao4ILAmxt57" d="M641.322,497.548L564.843,453.389L564.843,456.941L641.322,501.1L641.322,497.548Z" fill="url(#euao4ILAmxt57-fill)" stroke="none" stroke-width="1"/><path id="euao4ILAmxt58" d="M647.996,396.784L641.322,392.937L774.717,315.925L781.391,319.773L647.996,396.784Z" fill="url(#euao4ILAmxt58-fill)" stroke="none" stroke-width="1"/><path id="euao4ILAmxt59" d="M751.275,386.644L745.445,383.27L745.445,373.029L751.275,376.403L751.275,386.644Z" fill="url(#euao4ILAmxt59-fill)" stroke="none" stroke-width="1"/><path id="euao4ILAmxt60" d="M745.445,379.866L684.549,415.027L675.684,413.326L675.684,420.148L681.515,423.507L681.752,423.64C684.075,424.987,687.834,424.987,690.157,423.64L760.377,383.092C761.679,382.337,762.064,381.331,762.093,380.34C762.123,379.259,762.123,373.562,762.123,373.562L754.324,374.746L745.445,379.866Z" fill="url(#euao4ILAmxt60-fill)" stroke="none" stroke-width="1"/><path id="euao4ILAmxt61" d="M745.445,373.044L751.276,376.403L690.379,411.565L684.549,408.205L675.684,413.326L681.515,416.685L681.752,416.818C684.075,418.165,687.834,418.165,690.157,416.818L760.377,376.27C762.7,374.923,762.7,372.763,760.377,371.416L760.14,371.283L754.309,367.924L745.445,373.044Z" fill="url(#euao4ILAmxt61-fill)" stroke="none" stroke-width="1"/><path id="euao4ILAmxt62" d="M589.039,479.331L564.843,465.539L564.843,383.273L573.752,388.423L589.039,479.331Z" opacity="0.3" fill="rgb(38,34,117)" stroke="none" stroke-width="1"/><path id="euao4ILAmxt63" d="M573.722,388.409L578.768,385.508L564.843,377.398L564.843,383.273L573.722,388.409Z" opacity="0.3" fill="rgb(38,34,117)" stroke="none" stroke-width="1"/><path id="euao4ILAmxt64" d="M694.567,298.389L673.42,286.032L668.285,288.962L689.565,301.274L694.567,298.389Z" opacity="0.3" fill="rgb(38,34,117)" stroke="none" stroke-width="1"/></g></g><mask id="euao4ILAmxt65" mask-type="alpha"><path id="euao4ILAmxt66" d="M700.798002,268.827L565.524002,347.423L565.489,477.2445L647.996002,521.79126L792.795061,438.16L793.475527,295.414L700.798002,268.827Z" transform="matrix(1 0 0 1 0.000003 0)" fill="rgb(255,255,255)" stroke="none" stroke-width="1.988"/></mask></g></g><g id="euao4ILAmxt67" opacity="0"><path id="euao4ILAmxt68" d="M425.24,498.288L450.027,483.889C450.634,483.534,451.477,483.593,452.395,484.126L427.607,498.525C426.675,497.992,425.846,497.933,425.24,498.288Z" fill="rgb(255,241,168)" stroke="none" stroke-width="1"/><path id="euao4ILAmxt69" d="M520.513,596.403L495.725,610.802C500.342,608.124,503.213,602.441,503.228,594.39L528.016,579.991C527.986,588.042,525.115,593.725,520.513,596.403Z" fill="rgb(229,50,43)" stroke="none" stroke-width="1"/><path id="euao4ILAmxt70" d="M503.228,594.39L528.016,579.991C527.986,588.042,525.115,593.725,520.513,596.403L495.725,610.802C500.327,608.138,503.198,602.456,503.228,594.39Z" fill="rgb(229,50,43)" stroke="none" stroke-width="1"/><path id="euao4ILAmxt71" d="M503.361,546.088L528.149,531.689L528.016,579.991L503.228,594.391L503.361,546.088Z" fill="rgb(229,50,43)" stroke="none" stroke-width="1"/><path id="euao4ILAmxt72" d="M427.607,498.525L452.395,484.111C452.395,484.111,523.266,523.173,525.545,525.333C527.824,527.492,528.155,528.44,528.155,531.689C528.155,534.937,503.47,546.255,503.47,546.255L427.607,498.525Z" fill="url(#euao4ILAmxt72-fill)" stroke="none" stroke-width="1"/><path id="euao4ILAmxt73" d="M520.513,596.403L495.725,610.802C500.342,608.124,503.213,602.441,503.228,594.391L528.016,579.992C527.986,588.042,525.115,593.725,520.513,596.403Z" fill="rgb(229,50,43)" stroke="none" stroke-width="1"/><path id="euao4ILAmxt74" d="M503.228,594.391L528.016,579.992C527.986,588.042,525.115,593.725,520.513,596.403L495.725,610.802C500.327,608.139,503.198,602.456,503.228,594.391Z" fill="rgb(246,161,92)" stroke="none" stroke-width="1"/><path id="euao4ILAmxt75" d="M503.361,546.088L528.149,531.689L528.016,579.991L503.228,594.391L503.361,546.088Z" fill="url(#euao4ILAmxt75-fill)" stroke="none" stroke-width="1"/><path id="euao4ILAmxt76" d="M500.046,540.346C501.881,541.412,503.376,543.987,503.361,546.103L503.228,594.405C503.184,610.625,491.596,617.225,477.478,609.071L449.701,593.029C435.598,584.875,424.085,564.941,424.13,548.737L424.263,500.434C424.263,498.318,425.757,497.46,427.607,498.525L500.046,540.346Z" fill="rgb(245,194,91)" stroke="none" stroke-width="1"/><path id="euao4ILAmxt77" d="M450.338,497.83C447.23,499.62,442.139,499.62,439.032,497.83C435.924,496.039,435.924,493.094,439.032,491.304C442.139,489.513,447.23,489.513,450.338,491.304C453.446,493.094,453.446,496.024,450.338,497.83Z" fill="rgb(245,194,91)" stroke="none" stroke-width="1"/><path id="euao4ILAmxt78" d="M511.012,532.68C507.904,534.471,502.814,534.471,499.706,532.68C496.598,530.89,496.598,527.945,499.706,526.154C502.814,524.364,507.904,524.364,511.012,526.154C514.12,527.945,514.12,530.89,511.012,532.68Z" fill="rgb(202,151,48)" stroke="none" stroke-width="1"/><path id="euao4ILAmxt79" d="M437.315,464.246L437.434,495.686C437.434,496.751,438.075,497.203,439.492,497.997C442.019,499.414,446.804,499.526,449.772,498.085C451.177,497.256,451.788,496.872,451.773,495.806L451.655,464.187C451.64,458.815,453.135,454.849,455.799,453.31C458.448,451.771,462.636,452.407,467.297,455.086L475.214,459.614C487.616,466.717,498.152,484.801,498.197,499.097L498.315,529.878C498.315,530.943,499.025,532.024,500.431,532.823C502.237,533.859,504.752,534.229,507.061,533.918C508.348,533.74,509.577,533.37,510.583,532.778C510.968,532.556,511.293,532.32,511.56,532.068C512.314,531.372,512.684,530.588,512.67,529.804L512.551,499.037C512.522,489.685,509.384,479.178,503.716,469.455C498.063,459.732,490.472,451.815,482.347,447.168L474.43,442.64C469.961,440.08,465.492,438.6,461.185,438.245C456.612,437.86,452.247,438.792,448.577,440.923C444.907,443.054,441.947,446.384,440.023,450.557C438.218,454.479,437.3,459.096,437.315,464.246Z" fill="rgb(218,218,249)" stroke="none" stroke-width="1"/><path id="euao4ILAmxt80" d="M451.847,454.144C452.661,453.671,453.608,453.404,454.674,453.345C452.735,455.254,451.655,458.791,451.67,463.334L451.788,495.743C451.803,496.823,451.169,497.326,449.701,498.13C449.071,498.436,448.514,498.568,447.833,498.76L447.718,465.021C447.689,459.649,449.198,455.683,451.847,454.144Z" fill="rgb(191,190,237)" stroke="none" stroke-width="1"/><path id="euao4ILAmxt81" d="M447.615,441.876C450.116,441.166,452.809,440.914,455.562,441.151C459.868,441.506,464.323,442.986,468.807,445.546L476.724,450.075C484.848,454.721,492.425,462.639,498.093,472.361C503.761,482.084,506.898,492.591,506.928,501.944L507.046,533.05C508.334,532.873,509.562,532.503,510.568,531.911C510.953,531.689,511.279,531.452,511.545,531.201L511.441,500.079C511.412,490.726,508.274,480.219,502.607,470.497C496.939,460.774,489.347,452.857,481.237,448.21L473.32,443.682C468.851,441.121,464.382,439.642,460.075,439.286C455.547,438.902,451.255,439.804,447.615,441.876Z" fill="rgb(244,244,250)" stroke="none" stroke-width="1"/><path id="euao4ILAmxt82" d="M452.395,566.036C452.38,561.626,455.473,559.821,459.306,562.011C463.139,564.201,466.261,569.558,466.276,573.983C466.291,576.899,464.944,578.66,462.931,578.896L462.976,591.475L455.843,587.391L455.799,574.812C453.771,572.267,452.41,568.952,452.395,566.036Z" fill="url(#euao4ILAmxt82-fill)" stroke="none" stroke-width="1"/></g><g id="euao4ILAmxt83" opacity="0"><path id="euao4ILAmxt84" d="M542.983,717.016C568.891,717.016,589.894,704.891,589.894,689.935C589.894,674.978,568.891,662.853,542.983,662.853C517.074,662.853,496.071,674.978,496.071,689.935C496.071,704.891,517.074,717.016,542.983,717.016Z" transform="matrix(1 0 0 1 -0.686914 -0.4435)" fill="url(#euao4ILAmxt84-fill)" stroke="none" stroke-width="1"/><path id="euao4ILAmxt85" d="M519.525,686.768L525.83,700.354L549.363,703.995L566.591,694.048L560.286,680.462L536.753,676.821L519.525,686.768L519.525,686.768Z" fill="rgb(70,158,162)" stroke="none" stroke-width="1"/><path id="euao4ILAmxt86" d="M556.697,680.769L539.612,678.123C539.434,678.246,539.238,678.359,539.026,678.462L543.59,688.316C544.364,688.383,545.079,688.591,545.633,688.911C546.186,689.23,546.547,689.643,546.663,690.09L563.73,692.725C563.908,692.602,564.104,692.489,564.317,692.387L559.77,682.543C558.996,682.476,558.28,682.267,557.727,681.948C557.174,681.629,556.813,681.215,556.697,680.769L556.697,680.769ZM563.056,694.325L545.899,691.72C545.409,692.071,544.74,692.323,543.987,692.441C543.235,692.559,542.437,692.536,541.707,692.376L529.293,699.565C529.391,699.71,529.462,699.861,529.506,700.016L546.574,702.651C547.063,702.3,547.732,702.048,548.485,701.93C549.238,701.813,550.036,701.835,550.765,701.995L563.269,694.776C563.177,694.629,563.105,694.478,563.056,694.325L563.056,694.325ZM536.202,678.903C535.934,678.877,535.673,678.836,535.42,678.78L522.917,685.998C523.207,686.418,523.254,686.882,523.049,687.318C522.844,687.755,522.398,688.141,521.78,688.418L526.345,698.273C526.612,698.298,526.874,698.339,527.126,698.396L539.629,691.177C539.339,690.757,539.292,690.294,539.497,689.857C539.702,689.421,540.148,689.034,540.766,688.757L536.202,678.903L536.202,678.903Z" fill="rgb(106,202,209)" stroke="none" stroke-width="1"/><path id="euao4ILAmxt87" d="M558.42,681.538L564.05,693.689L548.652,702.579L527.606,699.329L521.976,687.178L537.392,678.277L558.42,681.538ZM560.25,680.482L536.717,676.841L519.489,686.788L525.794,700.374L549.327,704.015L566.555,694.068L560.25,680.482L560.25,680.482Z" fill="rgb(70,158,162)" stroke="none" stroke-width="1"/><path id="euao4ILAmxt88" d="M540.234,692.161L540.02,692.038C539.653,691.827,539.362,691.576,539.163,691.3C538.964,691.024,538.861,690.727,538.861,690.428C538.861,690.129,538.964,689.833,539.163,689.556C539.362,689.28,539.653,689.029,540.02,688.818L540.234,688.695C540.599,688.483,541.034,688.315,541.512,688.2C541.991,688.085,542.504,688.026,543.022,688.026C543.54,688.026,544.053,688.085,544.532,688.2C545.01,688.315,545.445,688.483,545.81,688.695L546.023,688.818C546.391,689.029,546.682,689.28,546.881,689.556C547.08,689.833,547.183,690.129,547.183,690.428C547.183,690.727,547.08,691.024,546.881,691.3C546.682,691.576,546.391,691.827,546.023,692.038L545.81,692.161C545.445,692.373,545.01,692.541,544.532,692.656C544.053,692.771,543.54,692.83,543.022,692.83C542.504,692.83,541.991,692.771,541.512,692.656C541.034,692.541,540.599,692.373,540.234,692.161L540.234,692.161ZM528.778,698.775L528.565,698.652C528.071,698.365,527.453,698.159,526.776,698.057C526.098,697.954,525.385,697.958,524.711,698.067L525.794,700.374L529.79,701C529.98,700.611,529.987,700.199,529.809,699.808C529.631,699.417,529.275,699.06,528.778,698.775L528.778,698.775ZM552.222,702.364L552.115,702.302C551.75,702.09,551.315,701.922,550.837,701.807C550.358,701.692,549.845,701.633,549.327,701.633C548.809,701.633,548.296,701.692,547.817,701.807C547.339,701.922,546.904,702.09,546.539,702.302L546.325,702.425C545.849,702.697,545.506,703.037,545.331,703.41L549.345,704.025L552.222,702.364L552.222,702.364ZM565.489,691.771C564.844,691.874,564.257,692.072,563.784,692.346L563.571,692.469C563.203,692.68,562.912,692.931,562.713,693.207C562.514,693.483,562.412,693.779,562.412,694.079C562.412,694.378,562.514,694.674,562.713,694.95C562.912,695.227,563.203,695.477,563.571,695.688L563.677,695.75L566.572,694.079L565.489,691.771ZM560.25,680.482L556.254,679.856C556.06,680.246,556.05,680.659,556.225,681.052C556.4,681.445,556.753,681.804,557.248,682.092L557.461,682.215C557.955,682.501,558.573,682.707,559.25,682.81C559.928,682.912,560.641,682.909,561.315,682.799L560.25,680.482L560.25,680.482ZM540.731,677.457L536.717,676.841L533.822,678.513L533.929,678.574C534.294,678.787,534.729,678.955,535.207,679.07C535.686,679.185,536.199,679.244,536.717,679.244C537.235,679.244,537.748,679.185,538.227,679.07C538.705,678.955,539.14,678.787,539.505,678.574L539.718,678.451C540.19,678.172,540.538,677.831,540.731,677.457L540.731,677.457ZM522.473,685.188L522.366,685.127L519.489,686.788L520.555,689.105C521.2,689.002,521.787,688.804,522.26,688.531L522.473,688.408C522.84,688.197,523.132,687.946,523.331,687.67C523.53,687.394,523.632,687.097,523.632,686.798C523.632,686.499,523.53,686.203,523.331,685.926C523.132,685.65,522.84,685.399,522.473,685.188L522.473,685.188Z" fill="rgb(70,158,162)" stroke="none" stroke-width="1"/><path id="euao4ILAmxt89" d="M525.706,700.426L542.951,690.469L536.646,676.882L519.401,686.839L525.706,700.426Z" fill="rgb(8,59,84)" fill-opacity="0.15" stroke="none" stroke-width="1"/><path id="euao4ILAmxt90" d="M549.415,703.984L566.643,694.038L543.11,690.398L525.865,700.354L549.415,703.984Z" fill="rgb(8,59,84)" fill-opacity="0.05" stroke="none" stroke-width="1"/><path id="euao4ILAmxt91" d="M507.229,689.18C507.318,684.134,510.589,679.088,517.07,675.181L513.238,672.961C505.705,677.489,501.902,683.32,501.813,689.18L507.229,689.18Z" transform="matrix(1 0 0 1 -0.1515 0)" fill="rgb(171,194,242)" stroke="none" stroke-width="1"/><path id="euao4ILAmxt92" d="M572.24,672.842L568.407,675.062C575.007,678.999,578.366,684.075,578.44,689.18L583.856,689.18C583.768,683.275,579.905,677.386,572.24,672.842Z" fill="rgb(108,255,236)" stroke="none" stroke-width="1"/><path id="euao4ILAmxt93" d="M543.175,668.832C552.01,668.876,560.83,670.815,567.637,674.633L571.47,672.413C563.597,667.989,553.401,665.754,543.175,665.71L543.175,668.832L543.175,668.832Z" fill="rgb(171,194,242)" stroke="none" stroke-width="1"/><path id="euao4ILAmxt94" d="M517.825,674.737C524.558,670.904,533.289,668.936,542.08,668.832L542.08,665.695C531.898,665.798,521.776,668.077,513.977,672.517L517.825,674.737Z" transform="matrix(1 0 0 1 -0.1815 0)" fill="rgb(171,194,242)" stroke="none" stroke-width="1"/><path id="euao4ILAmxt95" d="M517.277,703.697C510.766,699.82,507.436,694.833,507.259,689.816L501.843,689.816C502.02,695.647,505.897,701.433,513.459,705.917L517.277,703.697Z" fill="rgb(171,194,242)" stroke="none" stroke-width="1"/><path id="euao4ILAmxt96" d="M567.43,704.26C560.652,708.004,551.936,709.898,543.175,709.942L543.175,713.08C553.312,713.035,563.42,710.83,571.263,706.48L567.43,704.26Z" fill="rgb(108,255,236)" stroke="none" stroke-width="1"/><path id="euao4ILAmxt97" d="M578.426,689.816C578.248,694.892,574.844,699.939,568.2,703.816L572.033,706.036C579.728,701.537,583.664,695.691,583.842,689.816L578.426,689.816Z" fill="rgb(108,255,236)" stroke="none" stroke-width="1"/><path id="euao4ILAmxt98" d="M542.095,709.928C533.393,709.824,524.751,707.9,518.047,704.141L514.214,706.361C521.969,710.727,532.002,712.961,542.095,713.065L542.095,709.928Z" fill="rgb(171,194,242)" stroke="none" stroke-width="1"/><path id="euao4ILAmxt99" d="M589.894,689.831L589.894,689.609L589.88,689.624C589.88,689.683,589.894,689.757,589.894,689.831Z" fill="rgb(86,113,232)" stroke="none" stroke-width="1"/><path id="euao4ILAmxt100" d="M576.147,709.099C557.826,719.68,528.125,719.68,509.804,709.099C500.718,703.846,496.145,696.979,496.071,690.098L496.071,698.015C495.568,705.296,500.185,712.517,509.804,718.082C528.125,728.663,557.826,728.663,576.147,718.082C585.307,712.799,589.88,705.858,589.88,698.932L589.88,690.053C589.835,696.949,585.262,703.831,576.147,709.099Z" fill="url(#euao4ILAmxt100-fill)" stroke="none" stroke-width="1"/><path id="euao4ILAmxt101" d="M496.086,689.491L496.071,689.787C496.071,689.683,496.086,689.58,496.086,689.491Z" fill="rgb(86,113,232)" stroke="none" stroke-width="1"/></g><g id="euao4ILAmxt102" transform="matrix(1 0 0 1 -0.686913 0)" opacity="0"><path id="euao4ILAmxt103" d="M358.814,673.878C384.722,673.878,405.725,661.753,405.725,646.797C405.725,631.84,384.722,619.715,358.814,619.715C332.905,619.715,311.902,631.84,311.902,646.797C311.902,661.753,332.905,673.878,358.814,673.878Z" transform="matrix(1 0 0 1 0 -0.3105)" fill="url(#euao4ILAmxt103-fill)" stroke="none" stroke-width="1"/><path id="euao4ILAmxt104" d="M373.224,638.111C364.826,633.262,351.21,633.262,342.812,638.111C334.414,642.96,334.414,650.821,342.812,655.669C351.21,660.518,364.826,660.518,373.224,655.669C381.622,650.821,381.622,642.96,373.224,638.111ZM339.978,636.475C349.941,630.722,366.095,630.722,376.058,636.475C386.022,642.227,386.022,651.553,376.058,657.306C366.095,663.058,349.941,663.058,339.978,657.306C330.014,651.553,330.014,642.227,339.978,636.475Z" clip-rule="evenodd" fill="rgb(0,0,0)" fill-rule="evenodd" stroke="none" stroke-width="1"/><path id="euao4ILAmxt105" d="M355.262,652.122C355.342,651.982,355.458,651.836,355.611,651.683C355.764,651.53,355.936,651.374,356.129,651.216C355.743,651.225,355.341,651.211,354.922,651.174C354.503,651.136,354.077,651.071,353.642,650.978C353.224,650.885,352.801,650.757,352.374,650.594C351.939,650.436,351.516,650.238,351.105,650.001C350.437,649.615,349.917,649.203,349.546,648.766C349.183,648.334,348.973,647.902,348.916,647.47C348.859,647.037,348.955,646.619,349.204,646.215C349.46,645.806,349.87,645.44,350.433,645.115C351.808,644.321,353.38,644.004,355.151,644.163C356.938,644.322,358.85,644.99,360.889,646.166L362.761,647.248L363.533,646.802C364.16,646.44,364.449,646.036,364.4,645.59C364.359,645.139,363.952,644.691,363.179,644.244C362.494,643.849,361.846,643.646,361.234,643.637C360.631,643.622,360.083,643.757,359.593,644.04L356.234,642.1C356.789,641.78,357.436,641.546,358.176,641.398C358.924,641.254,359.721,641.208,360.566,641.26C361.419,641.316,362.293,641.477,363.186,641.742C364.096,642.008,364.99,642.394,365.868,642.901C366.658,643.356,367.294,643.835,367.778,644.337C368.27,644.844,368.576,645.351,368.698,645.857C368.82,646.364,368.732,646.866,368.435,647.363C368.146,647.855,367.624,648.319,366.868,648.755L361.273,651.986C360.574,652.39,360.039,652.75,359.669,653.065C359.3,653.381,359.035,653.683,358.874,653.971L358.669,654.089L355.262,652.122ZM354.411,648.915C354.749,649.111,355.104,649.269,355.474,649.39C355.845,649.511,356.211,649.602,356.573,649.662C356.935,649.723,357.281,649.756,357.611,649.761C357.949,649.761,358.251,649.74,358.517,649.698L360.76,648.403L359.044,647.413C358.52,647.111,358.021,646.883,357.546,646.729C357.079,646.571,356.636,646.477,356.217,646.449C355.807,646.417,355.417,646.442,355.047,646.525C354.685,646.604,354.355,646.729,354.058,646.901C353.607,647.161,353.391,647.468,353.407,647.821C353.432,648.178,353.767,648.543,354.411,648.915Z" fill="rgb(0,0,0)" stroke="none" stroke-width="1"/><path id="euao4ILAmxt106" d="M323.075,646.042C323.164,640.996,326.434,635.949,332.916,632.043L329.083,629.823C321.551,634.351,317.748,640.182,317.659,646.042L323.075,646.042Z" fill="rgb(171,194,242)" stroke="none" stroke-width="1"/><path id="euao4ILAmxt107" d="M388.071,629.704L384.238,631.924C390.838,635.86,394.197,640.936,394.271,646.042L399.688,646.042C399.614,640.137,395.736,634.247,388.071,629.704Z" fill="rgb(108,255,236)" stroke="none" stroke-width="1"/><path id="euao4ILAmxt108" d="M359.006,625.679C367.841,625.723,376.661,627.662,383.468,631.48L387.301,629.26C379.428,624.836,369.232,622.601,359.006,622.557L359.006,625.679Z" fill="rgb(171,194,242)" stroke="none" stroke-width="1"/><path id="euao4ILAmxt109" d="M333.671,631.584C340.404,627.751,349.135,625.783,357.926,625.679L357.926,622.542C347.744,622.645,337.622,624.924,329.823,629.364L333.671,631.584Z" fill="rgb(171,194,242)" stroke="none" stroke-width="1"/><path id="euao4ILAmxt110" d="M333.109,660.545C326.597,656.667,323.267,651.68,323.09,646.664L317.674,646.664C317.851,652.494,321.728,658.28,329.29,662.764L333.109,660.545Z" fill="rgb(108,255,236)" stroke="none" stroke-width="1"/><path id="euao4ILAmxt111" d="M383.261,661.107C376.484,664.851,367.767,666.745,359.006,666.79L359.006,669.927C369.143,669.882,379.251,667.678,387.094,663.327L383.261,661.107Z" fill="rgb(108,255,236)" stroke="none" stroke-width="1"/><path id="euao4ILAmxt112" d="M394.256,646.664C394.079,651.739,390.675,656.786,384.031,660.663L387.863,662.883C395.559,658.384,399.495,652.539,399.673,646.664L394.256,646.664Z" fill="rgb(108,255,236)" stroke="none" stroke-width="1"/><path id="euao4ILAmxt113" d="M357.926,666.79C349.224,666.686,340.582,664.762,333.878,661.003L330.045,663.223C337.8,667.589,347.833,669.823,357.926,669.927L357.926,666.79Z" fill="rgb(108,255,236)" stroke="none" stroke-width="1"/><path id="euao4ILAmxt114" d="M391.992,665.946C373.672,676.527,343.971,676.527,325.65,665.946C316.564,660.693,311.991,653.826,311.917,646.945L311.917,654.862C311.414,662.143,316.031,669.365,325.65,674.929C343.971,685.51,373.672,685.51,391.992,674.929C401.153,669.646,405.725,662.705,405.725,655.779L405.725,646.9C405.681,653.796,401.093,660.693,391.992,665.946Z" fill="url(#euao4ILAmxt114-fill)" stroke="none" stroke-width="1"/><path id="euao4ILAmxt115" d="M311.917,646.338L311.902,646.634C311.917,646.53,311.917,646.441,311.917,646.338Z" fill="rgb(86,113,232)" stroke="none" stroke-width="1"/></g><g id="euao4ILAmxt116" transform="matrix(1 0 0 1 0 0.000001)" opacity="0"><path id="euao4ILAmxt117" d="M290.726,569.563C316.634,569.563,337.637,557.438,337.637,542.481C337.637,527.525,316.634,515.4,290.726,515.4C264.817,515.4,243.814,527.525,243.814,542.481C243.814,557.438,264.817,569.563,290.726,569.563Z" fill="url(#euao4ILAmxt117-fill)" stroke="none" stroke-width="1"/><path id="euao4ILAmxt118" d="M254.987,541.727C255.076,536.68,258.346,531.634,264.828,527.727L260.995,525.507C253.463,530.036,249.659,535.866,249.571,541.727L254.987,541.727Z" transform="matrix(1 0 0 1 0 -0.38397)" fill="rgb(171,194,242)" stroke="none" stroke-width="1"/><path id="euao4ILAmxt119" d="M319.982,525.389L316.149,527.609C322.75,531.545,326.109,536.621,326.183,541.727L331.599,541.727C331.525,535.822,327.648,529.932,319.982,525.389Z" fill="rgb(108,255,236)" stroke="none" stroke-width="1"/><path id="euao4ILAmxt120" d="M290.918,521.364C299.753,521.408,308.573,523.347,315.38,527.165L319.213,524.945C311.34,520.52,301.144,518.285,290.918,518.241L290.918,521.364Z" fill="rgb(171,194,242)" stroke="none" stroke-width="1"/><path id="euao4ILAmxt121" d="M265.583,527.283C272.316,523.45,281.047,521.482,289.837,521.378L289.837,518.241C279.656,518.345,269.534,520.624,261.735,525.063L265.583,527.283Z" fill="rgb(171,194,242)" stroke="none" stroke-width="1"/><path id="euao4ILAmxt122" d="M265.02,556.244C258.509,552.367,255.179,547.38,255.002,542.363L249.585,542.363C249.763,548.194,253.64,553.98,261.202,558.464L265.02,556.244Z" transform="matrix(1 0 0 1 -0.192 0)" fill="rgb(108,255,236)" stroke="none" stroke-width="1"/><path id="euao4ILAmxt123" d="M315.173,556.792C308.395,560.536,299.679,562.43,290.918,562.474L290.918,565.611C301.055,565.567,311.162,563.362,319.006,559.011L315.173,556.792Z" fill="rgb(108,255,236)" stroke="none" stroke-width="1"/><path id="euao4ILAmxt124" d="M326.168,542.348C325.99,547.424,322.587,552.47,315.942,556.348L319.775,558.567C327.47,554.069,331.407,548.223,331.584,542.348L326.168,542.348Z" fill="rgb(108,255,236)" stroke="none" stroke-width="1"/><path id="euao4ILAmxt125" d="M289.838,562.474C281.136,562.371,272.494,560.447,265.79,556.688L261.957,558.908C269.711,563.273,279.745,565.508,289.838,565.611L289.838,562.474Z" fill="rgb(108,255,236)" stroke="none" stroke-width="1"/><path id="euao4ILAmxt126" d="M337.637,542.615C337.622,544.124,337.386,545.648,336.927,547.143C336.853,547.394,336.779,547.646,336.69,547.898C336.646,548.016,336.601,548.134,336.557,548.238C336.468,548.49,336.379,548.726,336.276,548.978C336.261,549.022,336.231,549.052,336.216,549.096C336.009,549.555,335.787,550.029,335.536,550.487C335.432,550.68,335.328,550.872,335.21,551.079C335.121,551.242,335.018,551.405,334.914,551.568C334.781,551.775,334.648,551.997,334.5,552.204C332.221,555.637,328.684,558.863,323.889,561.631C305.569,572.212,275.868,572.212,257.547,561.631C252.693,558.819,249.127,555.563,246.848,552.071C246.774,551.952,246.7,551.834,246.626,551.716C246.478,551.464,246.315,551.227,246.182,550.976C246.152,550.931,246.123,550.872,246.108,550.828C245.397,549.57,244.85,548.268,244.48,546.98C244.066,545.53,243.829,544.08,243.814,542.615L243.873,552.263C244.273,558.863,248.816,565.582,257.547,570.628C275.868,581.209,305.569,581.209,323.889,570.628C332.62,565.582,337.223,558.967,337.622,552.352L337.637,542.615Z" fill="url(#euao4ILAmxt126-fill)" stroke="none" stroke-width="1"/><path id="euao4ILAmxt127" d="M299.03,535.578L311.193,546.173L300.883,548.793L280.856,546.987L270.134,536.644L299.03,535.578ZM296.794,536.093L272.453,536.991L283.502,539.525L296.794,536.093ZM283.084,539.893L271.656,537.273L280.91,546.199L283.084,539.893ZM284.889,546.914L300.418,548.314L300.142,546.547L284.889,546.914ZM300.889,546.529L301.158,548.251L308.673,546.342L300.889,546.529ZM308.891,545.904L300.822,546.099L300.486,543.946L308.891,545.904ZM309.66,545.618L300.41,543.463L299.343,536.631L309.66,545.618ZM297.307,536.433L289.904,541.016L284.466,539.749L297.307,536.433ZM283.789,540.056L281.71,546.088L289.358,541.354L283.789,540.056ZM290.1,541.527L281.982,546.552L300.075,546.117L299.707,543.765L290.1,541.527ZM299.632,543.282L298.541,536.301L290.646,541.189L299.632,543.282Z" clip-rule="evenodd" fill="rgb(210,218,222)" fill-rule="evenodd" stroke="none" stroke-width="1"/><circle id="euao4ILAmxt128" r="1.64458" transform="matrix(0.866025 0.5 -0.866025 0.5 298.748 535.787)" fill="rgb(243,67,53)" stroke="none" stroke-width="1"/><circle id="euao4ILAmxt129" r="3.05439" transform="matrix(0.866025 0.5 -0.866025 0.5 310.855 546.154)" fill="rgb(255,193,7)" stroke="none" stroke-width="1"/><circle id="euao4ILAmxt130" r="1.64203" transform="matrix(0.866025 0.5 -0.866025 0.5 300.874 548.665)" fill="rgb(139,195,73)" stroke="none" stroke-width="1"/><circle id="euao4ILAmxt131" r="1.64203" transform="matrix(0.866025 0.5 -0.866025 0.5 283.496 539.701)" fill="rgb(156,39,175)" stroke="none" stroke-width="1"/><circle id="euao4ILAmxt132" r="1.64203" transform="matrix(0.866025 0.5 -0.866025 0.5 270.856 536.759)" fill="rgb(243,67,53)" stroke="none" stroke-width="1"/><circle id="euao4ILAmxt133" r="2.26837" transform="matrix(0.866025 0.5 -0.866025 0.5 281.122 546.706)" fill="rgb(33,150,244)" stroke="none" stroke-width="1"/></g></svg>