<svg id="ek4woScnxZd1" xmlns="http://www.w3.org/2000/svg" xmlns:xlink="http://www.w3.org/1999/xlink" viewBox="0 0 1058 646" shape-rendering="geometricPrecision" text-rendering="geometricPrecision"><style><![CDATA[#ek4woScnxZd2_to {animation: ek4woScnxZd2_to__to 7000ms linear infinite normal forwards}@keyframes ek4woScnxZd2_to__to { 0% {transform: translate(472.528633px,309.43691px)} 35.714286% {transform: translate(472.528633px,309.43691px)} 50% {transform: translate(611.358px,165.512616px)} 100% {transform: translate(611.358px,165.512616px)}} #ek4woScnxZd2 {animation: ek4woScnxZd2_c_o 7000ms linear infinite normal forwards}@keyframes ek4woScnxZd2_c_o { 0% {opacity: 0} 36.142857% {opacity: 0} 50% {opacity: 1} 100% {opacity: 1}} #ek4woScnxZd9 {animation: ek4woScnxZd9_c_o 7000ms linear infinite normal forwards}@keyframes ek4woScnxZd9_c_o { 0% {opacity: 0} 7.142857% {opacity: 0.3} 100% {opacity: 0.3}} #ek4woScnxZd12_to {animation: ek4woScnxZd12_to__to 7000ms linear infinite normal forwards}@keyframes ek4woScnxZd12_to__to { 0% {transform: translate(367.813004px,-175.528439px)} 14.285714% {transform: translate(367.813004px,204.475945px)} 100% {transform: translate(367.813004px,204.475945px)}} #ek4woScnxZd12 {animation: ek4woScnxZd12_c_o 7000ms linear infinite normal forwards}@keyframes ek4woScnxZd12_c_o { 0% {opacity: 0} 1.428571% {opacity: 0} 4.285714% {opacity: 1} 100% {opacity: 1}} #ek4woScnxZd23_to {animation: ek4woScnxZd23_to__to 7000ms linear infinite normal forwards}@keyframes ek4woScnxZd23_to__to { 0% {transform: translate(657.087647px,-208.408142px)} 10% {transform: translate(657.087647px,-208.408142px)} 27.142857% {transform: translate(657.087647px,416.185135px)} 100% {transform: translate(657.087647px,416.185135px)}} #ek4woScnxZd23 {animation: ek4woScnxZd23_c_o 7000ms linear infinite normal forwards}@keyframes ek4woScnxZd23_c_o { 0% {opacity: 0} 10% {opacity: 0} 12.857143% {opacity: 1} 100% {opacity: 1}} #ek4woScnxZd27 {animation: ek4woScnxZd27_c_o 7000ms linear infinite normal forwards}@keyframes ek4woScnxZd27_c_o { 0% {opacity: 0} 25.714286% {opacity: 0} 30% {opacity: 0.4} 100% {opacity: 0.4}} #ek4woScnxZd29_to {animation: ek4woScnxZd29_to__to 7000ms linear infinite normal forwards}@keyframes ek4woScnxZd29_to__to { 0% {transform: translate(367.81398px,-85.390789px)} 7.142857% {transform: translate(367.81398px,-85.390789px)} 18.571429% {transform: translate(367.81398px,377.307999px)} 100% {transform: translate(367.81398px,377.307999px)}} #ek4woScnxZd29 {animation: ek4woScnxZd29_c_o 7000ms linear infinite normal forwards}@keyframes ek4woScnxZd29_c_o { 0% {opacity: 0} 7.142857% {opacity: 0} 10% {opacity: 1} 100% {opacity: 1}} #ek4woScnxZd32 {animation: ek4woScnxZd32_f_p 7000ms linear infinite normal forwards}@keyframes ek4woScnxZd32_f_p { 0% {fill: rgb(156,179,218)} 10% {fill: rgb(74,253,151)} 42.857143% {fill: rgb(74,253,151)} 55.714286% {fill: rgb(156,179,218)} 100% {fill: rgb(156,179,218)}} #ek4woScnxZd33_to {animation: ek4woScnxZd33_to__to 7000ms linear infinite normal forwards}@keyframes ek4woScnxZd33_to__to { 0% {transform: translate(433.656138px,420.411545px)} 1.428571% {transform: translate(433.656138px,420.411545px)} 10% {transform: translate(302.099988px,420.411645px)} 42.857143% {transform: translate(302.099988px,420.411645px)} 55.714286% {transform: translate(433.656138px,420.411545px)} 100% {transform: translate(433.656138px,420.411545px)}} #ek4woScnxZd35_to {animation: ek4woScnxZd35_to__to 7000ms linear infinite normal forwards}@keyframes ek4woScnxZd35_to__to { 0% {transform: translate(372.667007px,-0.000001px)} 14.285714% {transform: translate(372.667007px,-0.000001px)} 24.285714% {transform: translate(372.667007px,114.422653px)} 34.285714% {transform: translate(372.667007px,192.752093px)} 100% {transform: translate(372.667007px,192.752093px)}} #ek4woScnxZd35 {animation: ek4woScnxZd35_c_o 7000ms linear infinite normal forwards}@keyframes ek4woScnxZd35_c_o { 0% {opacity: 0} 14.285714% {opacity: 0} 18.571429% {opacity: 1} 100% {opacity: 1}} #ek4woScnxZd50_to {animation: ek4woScnxZd50_to__to 7000ms linear infinite normal forwards}@keyframes ek4woScnxZd50_to__to { 0% {transform: translate(374.441499px,186.08456px)} 30% {transform: translate(374.441499px,186.08456px)} 41.428571% {transform: translate(853.396117px,470.77005px)} 50% {transform: translate(926.568982px,514.485811px)} 58.571429% {transform: translate(925.336738px,555.070885px)} 100% {transform: translate(925.336738px,555.070885px)}} #ek4woScnxZd58_to {animation: ek4woScnxZd58_to__to 7000ms linear infinite normal forwards}@keyframes ek4woScnxZd58_to__to { 0% {transform: translate(374.441499px,186.08456px)} 37.142857% {transform: translate(374.441499px,186.08456px)} 48.571429% {transform: translate(853.396117px,470.77005px)} 57.142857% {transform: translate(926.568982px,514.485811px)} 64.285714% {transform: translate(925.336738px,542.070885px)} 100% {transform: translate(925.336738px,542.070885px)}} #ek4woScnxZd66_to {animation: ek4woScnxZd66_to__to 7000ms linear infinite normal forwards}@keyframes ek4woScnxZd66_to__to { 0% {transform: translate(374.441499px,186.08456px)} 42.857143% {transform: translate(374.441499px,186.08456px)} 54.285714% {transform: translate(853.396117px,470.77005px)} 62.857143% {transform: translate(926.568982px,514.485811px)} 71.428571% {transform: translate(925.336738px,527.195279px)} 100% {transform: translate(925.336738px,527.195279px)}}]]></style><defs><linearGradient id="ek4woScnxZd3-fill" x1="639.577" y1="128.307" x2="582.972" y2="185.039" spreadMethod="pad" gradientUnits="userSpaceOnUse" gradientTransform="matrix(1 0 0 1 0 0)"><stop id="ek4woScnxZd3-fill-0" offset="0.540541%" stop-color="rgb(0,174,239)"/><stop id="ek4woScnxZd3-fill-1" offset="100%" stop-color="rgba(1,175,240,0)"/></linearGradient><linearGradient id="ek4woScnxZd4-fill" x1="598.786" y1="128.629" x2="644.718" y2="82.4281" spreadMethod="pad" gradientUnits="userSpaceOnUse" gradientTransform="matrix(1 0 0 1 0 0)"><stop id="ek4woScnxZd4-fill-0" offset="3.71%" stop-color="rgb(0,174,239)"/><stop id="ek4woScnxZd4-fill-1" offset="100%" stop-color="rgba(1,175,240,0)"/></linearGradient><linearGradient id="ek4woScnxZd5-fill" x1="582.495" y1="148.769" x2="707.898" y2="148.769" spreadMethod="pad" gradientUnits="userSpaceOnUse" gradientTransform="matrix(1 0 0 1 0 0)"><stop id="ek4woScnxZd5-fill-0" offset="3.71%" stop-color="rgb(0,174,239)"/><stop id="ek4woScnxZd5-fill-1" offset="100%" stop-color="rgba(1,175,240,0.55)"/></linearGradient><filter id="ek4woScnxZd10-filter" x="-400%" width="600%" y="-400%" height="600%"><feGaussianBlur id="ek4woScnxZd10-filter-blur-0" stdDeviation="50,50" result="result"/></filter><linearGradient id="ek4woScnxZd10-fill" x1="176.322" y1="380.94" x2="881.597" y2="342.047" spreadMethod="pad" gradientUnits="userSpaceOnUse" gradientTransform="matrix(1 0 0 1 0 0)"><stop id="ek4woScnxZd10-fill-0" offset="0%" stop-color="rgb(255,173,13)"/><stop id="ek4woScnxZd10-fill-1" offset="51.2648%" stop-color="rgb(239,212,224)"/><stop id="ek4woScnxZd10-fill-2" offset="100%" stop-color="rgb(55,135,255)"/></linearGradient><filter id="ek4woScnxZd11-filter" x="-400%" width="600%" y="-400%" height="600%"><feGaussianBlur id="ek4woScnxZd11-filter-blur-0" stdDeviation="50,50" result="result"/></filter><linearGradient id="ek4woScnxZd11-fill" x1="176.322" y1="380.94" x2="881.597" y2="342.047" spreadMethod="pad" gradientUnits="userSpaceOnUse" gradientTransform="matrix(1 0 0 1 0 0)"><stop id="ek4woScnxZd11-fill-0" offset="0%" stop-color="rgb(255,173,13)"/><stop id="ek4woScnxZd11-fill-1" offset="51.2648%" stop-color="rgb(239,212,224)"/><stop id="ek4woScnxZd11-fill-2" offset="100%" stop-color="rgb(55,135,255)"/></linearGradient><linearGradient id="ek4woScnxZd13-fill" x1="86.2082" y1="0" x2="86.2082" y2="172.416" spreadMethod="pad" gradientUnits="userSpaceOnUse" gradientTransform="matrix(1 0 0 1 0 0)"><stop id="ek4woScnxZd13-fill-0" offset="0%" stop-color="rgb(255,220,149)"/><stop id="ek4woScnxZd13-fill-1" offset="100%" stop-color="rgb(245,194,91)"/></linearGradient><linearGradient id="ek4woScnxZd14-fill" x1="268.71" y1="214.352" x2="293.673" y2="271.694" spreadMethod="pad" gradientUnits="userSpaceOnUse" gradientTransform="matrix(1 0 0 1 0 0)"><stop id="ek4woScnxZd14-fill-0" offset="0%" stop-color="rgba(255,255,255,0.88)"/><stop id="ek4woScnxZd14-fill-1" offset="28.8688%" stop-color="rgb(255,255,255)"/><stop id="ek4woScnxZd14-fill-2" offset="100%" stop-color="rgba(255,255,255,0.94)"/></linearGradient><linearGradient id="ek4woScnxZd19-fill" x1="86.2082" y1="0" x2="86.2082" y2="172.416" spreadMethod="pad" gradientUnits="userSpaceOnUse" gradientTransform="matrix(1 0 0 1 0 0)"><stop id="ek4woScnxZd19-fill-0" offset="0%" stop-color="rgb(255,225,148)"/><stop id="ek4woScnxZd19-fill-1" offset="100%" stop-color="rgb(255,230,165)"/></linearGradient><linearGradient id="ek4woScnxZd20-fill" x1="50" y1="0" x2="50" y2="100" spreadMethod="pad" gradientUnits="userSpaceOnUse" gradientTransform="matrix(1 0 0 1 0 0)"><stop id="ek4woScnxZd20-fill-0" offset="0%" stop-color="rgb(192,128,19)"/><stop id="ek4woScnxZd20-fill-1" offset="100%" stop-color="rgb(246,189,92)"/></linearGradient><linearGradient id="ek4woScnxZd21-fill" x1="86.2108" y1="172.422" x2="86.2108" y2="0.000699" spreadMethod="pad" gradientUnits="userSpaceOnUse" gradientTransform="matrix(1 0 0 1 0 0)"><stop id="ek4woScnxZd21-fill-0" offset="0%" stop-color="rgb(245,158,91)"/><stop id="ek4woScnxZd21-fill-1" offset="100%" stop-color="rgb(245,194,91)"/></linearGradient><linearGradient id="ek4woScnxZd22-fill" x1="50" y1="0" x2="50" y2="100" spreadMethod="pad" gradientUnits="userSpaceOnUse" gradientTransform="matrix(1 0 0 1 0 0)"><stop id="ek4woScnxZd22-fill-0" offset="0%" stop-color="rgb(170,107,0)"/><stop id="ek4woScnxZd22-fill-1" offset="100%" stop-color="rgb(172,108,0)"/></linearGradient><linearGradient id="ek4woScnxZd24-fill" x1="-70.5769" y1="67.7326" x2="-67.6517" y2="-33.6799" spreadMethod="pad" gradientUnits="userSpaceOnUse" gradientTransform="matrix(1 0 0 1 0 0)"><stop id="ek4woScnxZd24-fill-0" offset="0%" stop-color="rgb(244,247,254)"/><stop id="ek4woScnxZd24-fill-1" offset="49.55%" stop-color="rgb(211,226,253)"/><stop id="ek4woScnxZd24-fill-2" offset="100%" stop-color="rgb(190,206,250)"/></linearGradient><linearGradient id="ek4woScnxZd25-fill" x1="0" y1="86.2074" x2="495.653" y2="86.2074" spreadMethod="pad" gradientUnits="userSpaceOnUse" gradientTransform="matrix(1 0 0 1 0 0)"><stop id="ek4woScnxZd25-fill-0" offset="0%" stop-color="rgb(221,232,255)"/><stop id="ek4woScnxZd25-fill-1" offset="45.65%" stop-color="rgb(238,244,255)"/><stop id="ek4woScnxZd25-fill-2" offset="100%" stop-color="rgb(255,255,255)"/></linearGradient><linearGradient id="ek4woScnxZd26-fill" x1="531.723" y1="34.1545" x2="-2.536302" y2="28.530021" spreadMethod="pad" gradientUnits="userSpaceOnUse" gradientTransform="matrix(1 0 0 1 0 0)"><stop id="ek4woScnxZd26-fill-0" offset="0%" stop-color="rgb(197,220,253)"/><stop id="ek4woScnxZd26-fill-1" offset="100%" stop-color="rgb(134,175,240)"/></linearGradient><radialGradient id="ek4woScnxZd27-fill" cx="0" cy="0" r="1" spreadMethod="pad" gradientUnits="userSpaceOnUse" gradientTransform="matrix(322.746 3.40977 -5.114127 484.069 364.542 268.163)"><stop id="ek4woScnxZd27-fill-0" offset="0%" stop-color="rgba(1,0,80,0.73)"/><stop id="ek4woScnxZd27-fill-1" offset="100%" stop-color="rgba(17,7,59,0.47)"/></radialGradient><linearGradient id="ek4woScnxZd28-fill" x1="775.802" y1="621.82" x2="736.125" y2="539.433" spreadMethod="pad" gradientUnits="userSpaceOnUse" gradientTransform="matrix(1 0 0 1 0 0)"><stop id="ek4woScnxZd28-fill-0" offset="0%" stop-color="rgb(245,249,255)"/><stop id="ek4woScnxZd28-fill-1" offset="49.55%" stop-color="rgb(211,226,253)"/><stop id="ek4woScnxZd28-fill-2" offset="100%" stop-color="rgb(190,206,250)"/></linearGradient><linearGradient id="ek4woScnxZd30-fill" x1="293.153" y1="423.297" x2="367.812" y2="293.984" spreadMethod="pad" gradientUnits="userSpaceOnUse" gradientTransform="matrix(1 0 0 1 0 0)"><stop id="ek4woScnxZd30-fill-0" offset="0%" stop-color="rgb(197,220,253)"/><stop id="ek4woScnxZd30-fill-1" offset="100%" stop-color="rgb(134,175,240)"/></linearGradient><linearGradient id="ek4woScnxZd31-fill" x1="367.964" y1="467.794" x2="367.964" y2="407.904" spreadMethod="pad" gradientUnits="userSpaceOnUse" gradientTransform="matrix(1 0 0 1 0 0)"><stop id="ek4woScnxZd31-fill-0" offset="0%" stop-color="rgb(183,212,255)"/><stop id="ek4woScnxZd31-fill-1" offset="100%" stop-color="rgb(57,117,212)"/></linearGradient><linearGradient id="ek4woScnxZd36-fill" x1="408.318" y1="99.4085" x2="347.453" y2="118.856" spreadMethod="pad" gradientUnits="userSpaceOnUse" gradientTransform="matrix(1 0 0 1 0 0)"><stop id="ek4woScnxZd36-fill-0" offset="0%" stop-color="rgb(172,205,255)"/><stop id="ek4woScnxZd36-fill-1" offset="100%" stop-color="rgb(125,146,255)"/></linearGradient><linearGradient id="ek4woScnxZd37-fill" x1="397.5" y1="76.4225" x2="397.409" y2="76.4519" spreadMethod="pad" gradientUnits="userSpaceOnUse" gradientTransform="matrix(1 0 0 1 0 0)"><stop id="ek4woScnxZd37-fill-0" offset="0%" stop-color="rgb(54,207,204)"/><stop id="ek4woScnxZd37-fill-1" offset="100%" stop-color="rgb(38,138,134)"/></linearGradient><linearGradient id="ek4woScnxZd38-fill" x1="348.62" y1="123.363" x2="389.781" y2="61.4009" spreadMethod="pad" gradientUnits="userSpaceOnUse" gradientTransform="matrix(1 0 0 1 0 0)"><stop id="ek4woScnxZd38-fill-0" offset="0%" stop-color="rgb(189,215,255)"/><stop id="ek4woScnxZd38-fill-1" offset="46.5773%" stop-color="rgb(255,255,255)"/><stop id="ek4woScnxZd38-fill-2" offset="100%" stop-color="rgb(219,225,255)"/></linearGradient><radialGradient id="ek4woScnxZd51-fill" cx="0" cy="0" r="1" spreadMethod="pad" gradientUnits="userSpaceOnUse" gradientTransform="matrix(-15.1257 -16.4329 19.2142 -17.6857 28.1713 24.4754)"><stop id="ek4woScnxZd51-fill-0" offset="0%" stop-color="rgb(255,228,121)"/><stop id="ek4woScnxZd51-fill-1" offset="73.9148%" stop-color="rgb(244,177,79)"/><stop id="ek4woScnxZd51-fill-2" offset="100%" stop-color="rgb(240,159,65)"/></radialGradient><linearGradient id="ek4woScnxZd52-fill" x1="33.922" y1="17.5865" x2="6.00411" y2="27.9525" spreadMethod="pad" gradientUnits="userSpaceOnUse" gradientTransform="matrix(1 0 0 1 0 0)"><stop id="ek4woScnxZd52-fill-0" offset="0%" stop-color="rgb(255,228,121)"/><stop id="ek4woScnxZd52-fill-1" offset="100%" stop-color="rgb(240,159,65)"/></linearGradient><radialGradient id="ek4woScnxZd59-fill" cx="0" cy="0" r="1" spreadMethod="pad" gradientUnits="userSpaceOnUse" gradientTransform="matrix(-15.1257 -16.4329 19.2142 -17.6857 28.1713 24.4754)"><stop id="ek4woScnxZd59-fill-0" offset="0%" stop-color="rgb(255,228,121)"/><stop id="ek4woScnxZd59-fill-1" offset="73.9148%" stop-color="rgb(244,177,79)"/><stop id="ek4woScnxZd59-fill-2" offset="100%" stop-color="rgb(240,159,65)"/></radialGradient><linearGradient id="ek4woScnxZd60-fill" x1="33.922" y1="17.5865" x2="6.00411" y2="27.9525" spreadMethod="pad" gradientUnits="userSpaceOnUse" gradientTransform="matrix(1 0 0 1 0 0)"><stop id="ek4woScnxZd60-fill-0" offset="0%" stop-color="rgb(255,228,121)"/><stop id="ek4woScnxZd60-fill-1" offset="100%" stop-color="rgb(240,159,65)"/></linearGradient><radialGradient id="ek4woScnxZd67-fill" cx="0" cy="0" r="1" spreadMethod="pad" gradientUnits="userSpaceOnUse" gradientTransform="matrix(-15.1257 -16.4329 19.2142 -17.6857 28.1713 24.4754)"><stop id="ek4woScnxZd67-fill-0" offset="0%" stop-color="rgb(255,228,121)"/><stop id="ek4woScnxZd67-fill-1" offset="73.9148%" stop-color="rgb(244,177,79)"/><stop id="ek4woScnxZd67-fill-2" offset="100%" stop-color="rgb(240,159,65)"/></radialGradient><linearGradient id="ek4woScnxZd68-fill" x1="33.922" y1="17.5865" x2="6.00411" y2="27.9525" spreadMethod="pad" gradientUnits="userSpaceOnUse" gradientTransform="matrix(1 0 0 1 0 0)"><stop id="ek4woScnxZd68-fill-0" offset="0%" stop-color="rgb(255,228,121)"/><stop id="ek4woScnxZd68-fill-1" offset="100%" stop-color="rgb(240,159,65)"/></linearGradient></defs><g id="ek4woScnxZd2_to" transform="translate(472.528633,309.43691)"><g id="ek4woScnxZd2" transform="translate(-628.889648,-142.904701)" opacity="0"><path id="ek4woScnxZd3" d="M665.958,129.113L609.451,185.557C601.715,193.284,589.189,193.284,581.453,185.557C573.718,177.83,573.718,165.318,581.453,157.591L637.96,101.147C645.696,93.4202,658.222,93.4202,665.958,101.147C673.693,108.874,673.693,121.405,665.958,129.113Z" fill="url(#ek4woScnxZd3-fill)" stroke="none" stroke-width="1"/><path id="ek4woScnxZd4" d="M649.17,98.0965L597.966,148.659C592.517,154.029,583.739,153.992,578.362,148.549C572.986,143.106,573.023,134.338,578.472,128.967L629.676,78.405C635.125,73.0346,643.903,73.0711,649.28,78.5146C654.656,83.9581,654.619,92.7261,649.17,98.0965Z" fill="url(#ek4woScnxZd4-fill)" stroke="none" stroke-width="1"/><path id="ek4woScnxZd5" d="M705.256,101.494C708.767,97.987,708.767,92.2878,705.256,88.7806C702.788,86.3146,699.222,85.5839,696.095,86.5886L582.934,199.623C581.929,202.746,582.642,206.29,585.129,208.774C588.64,212.282,594.345,212.282,597.857,208.774L629.676,176.99C631.505,175.31,634.358,175.328,636.131,177.118C637.905,178.89,637.942,181.74,636.259,183.566L634.193,185.63C632.364,187.457,632.364,190.416,634.193,192.225C636.022,194.051,638.984,194.051,640.795,192.225L689.493,143.581C691.322,141.754,691.322,138.795,689.493,136.986C687.664,135.16,684.702,135.16,682.891,136.986L676.491,143.38C674.662,145.06,671.809,145.042,670.036,143.252C668.262,141.48,668.225,138.63,669.908,136.804L705.256,101.494Z" fill="url(#ek4woScnxZd5-fill)" stroke="none" stroke-width="1"/><path id="ek4woScnxZd6" d="M561.228,171.857C567.489,171.857,572.566,166.787,572.566,160.532C572.566,154.277,567.489,149.207,561.228,149.207C554.966,149.207,549.89,154.277,549.89,160.532C549.89,166.787,554.966,171.857,561.228,171.857Z" fill="rgb(0,174,239)" stroke="none" stroke-width="1"/><path id="ek4woScnxZd7" d="M680.898,83.9397L676.253,83.9397L676.253,79.3C676.253,78.0944,675.266,77.108,674.059,77.108C672.852,77.108,671.864,78.0944,671.864,79.3L671.864,83.9397L667.219,83.9397C666.012,83.9397,665.025,84.9261,665.025,86.1317C665.025,87.3373,666.012,88.3237,667.219,88.3237L671.864,88.3237L671.864,92.9634C671.864,94.169,672.852,95.1554,674.059,95.1554C675.266,95.1554,676.253,94.169,676.253,92.9634L676.253,88.342L680.898,88.342C682.105,88.342,683.092,87.3556,683.092,86.15C683.111,84.9261,682.123,83.9397,680.898,83.9397Z" fill="rgb(0,174,239)" stroke="none" stroke-width="1"/><path id="ek4woScnxZd8" d="M659.923,120.162C658.076,121.003,656.046,121.496,654.053,121.843C655.004,121.679,656.393,119.98,656.96,119.286C657.82,118.226,658.515,117.021,658.917,115.724C658.972,115.614,659.008,115.486,658.899,115.413C658.771,115.358,658.698,115.395,658.588,115.431C656.357,116.619,654.053,117.496,651.602,118.098C651.401,118.153,651.255,118.098,651.127,117.97C650.926,117.733,650.724,117.532,650.523,117.349C649.499,116.473,648.384,115.778,647.14,115.285C645.513,114.628,643.72,114.335,641.947,114.445C640.228,114.555,638.545,115.048,637.027,115.833C635.51,116.637,634.138,117.733,633.059,119.066C631.944,120.455,631.121,122.08,630.682,123.816C630.279,125.478,630.298,127.14,630.554,128.821C630.59,129.095,630.572,129.131,630.316,129.095C620.734,127.67,612.779,124.236,606.323,116.893C606.049,116.582,605.885,116.582,605.665,116.911C602.849,121.131,604.22,127.926,607.732,131.269C608.207,131.707,608.682,132.164,609.213,132.566C609.03,132.602,606.671,132.346,604.586,131.269C604.312,131.086,604.166,131.196,604.147,131.506C604.129,131.963,604.166,132.383,604.22,132.876C604.769,137.169,607.732,141.133,611.81,142.667C612.285,142.868,612.834,143.051,613.346,143.142C612.413,143.343,611.462,143.489,608.811,143.288C608.481,143.233,608.353,143.398,608.481,143.708C610.475,149.152,614.79,150.759,618.027,151.691C618.466,151.764,618.887,151.764,619.326,151.873C619.307,151.91,619.271,151.91,619.252,151.946C618.173,153.572,614.461,154.796,612.742,155.399C609.597,156.495,606.177,156.988,602.849,156.659C602.319,156.586,602.209,156.586,602.063,156.659C601.916,156.751,602.044,156.878,602.209,157.006C602.886,157.445,603.562,157.847,604.275,158.23C606.378,159.344,608.591,160.24,610.895,160.879C622.782,164.149,636.168,161.756,645.092,152.896C652.096,145.937,654.546,136.347,654.546,126.757C654.546,126.373,654.985,126.172,655.26,125.971C657.088,124.601,658.533,122.957,659.886,121.131C660.197,120.729,660.179,120.363,660.179,120.199C660.179,120.181,660.179,120.144,660.179,120.144C660.142,119.998,660.16,120.053,659.923,120.162Z" fill="rgb(255,255,255)" stroke="none" stroke-width="1"/></g></g><g id="ek4woScnxZd9" opacity="0"><path id="ek4woScnxZd10" d="M518.837,177.92C713.593,167.18,876.006,240.662,881.597,342.047C887.188,443.431,741.499,452.389,546.743,463.129C351.987,473.869,181.914,482.324,176.323,380.94C170.732,279.555,324.08,188.66,518.837,177.92Z" transform="matrix(1 0 0 1 0.030502 0.185059)" filter="url(#ek4woScnxZd10-filter)" fill="url(#ek4woScnxZd10-fill)" stroke="none" stroke-width="1"/><path id="ek4woScnxZd11" d="M518.837,177.92C713.593,167.18,876.006,240.662,881.597,342.047C887.188,443.431,741.499,452.389,546.743,463.129C351.987,473.869,181.914,482.324,176.323,380.94C170.732,279.555,324.08,188.66,518.837,177.92Z" transform="matrix(1 0 0 1 0 0.185059)" filter="url(#ek4woScnxZd11-filter)" fill="url(#ek4woScnxZd11-fill)" stroke="none" stroke-width="1"/></g><g id="ek4woScnxZd12_to" transform="translate(367.813004,-175.528439)"><g id="ek4woScnxZd12" transform="translate(-367.813003,-204.475944)" opacity="0"><rect id="ek4woScnxZd13" width="172.416" height="172.416" rx="0" ry="0" transform="matrix(0.866025 0.5 0 1 218.497 118.268)" fill="url(#ek4woScnxZd13-fill)" stroke="none" stroke-width="1"/><path id="ek4woScnxZd14" d="M302.1,245.41L268.71,226.132L268.71,249.051C268.71,251.181,270.205,253.77,272.049,254.834L298.761,270.256C300.605,271.321,302.1,270.458,302.1,268.329L302.1,259.333L296.707,256.219L296.645,256.327C294.565,259.87,290.303,260.661,285.384,257.821C279.374,254.351,274.345,246.594,273.078,239.364L302.1,256.12L302.1,245.41ZM293.505,254.37L277.264,244.993L277.317,245.114C279.094,249.079,282.045,252.705,285.384,254.633C288.757,256.58,291.734,256.337,293.505,254.37ZM278.264,234.218C280.88,235.729,283.045,239.213,283.405,242.327L280.559,240.684L280.547,240.638C280.224,239.354,279.324,238.043,278.264,237.431C277.191,236.812,276.281,237.096,275.968,238.034L273.122,236.391L273.134,236.31C273.526,233.673,275.673,232.723,278.264,234.218ZM292.547,242.465C295.163,243.975,297.328,247.459,297.688,250.574L294.842,248.931L294.831,248.885C294.508,247.6,293.607,246.29,292.547,245.678C291.474,245.058,290.565,245.342,290.252,246.28L287.406,244.637L287.417,244.557C287.809,241.919,289.956,240.969,292.547,242.465ZM298.761,231.702L272.049,216.28C270.205,215.215,268.71,216.078,268.71,218.207L268.71,222.92L302.1,242.197L302.1,237.485C302.1,235.355,300.605,232.766,298.761,231.702Z" opacity="0.32" clip-rule="evenodd" fill="url(#ek4woScnxZd14-fill)" fill-rule="evenodd" stroke="none" stroke-width="1"/><circle id="ek4woScnxZd15" r="5.64236" transform="matrix(0.866025 0.5 0 1 230.571 142.608)" fill="rgb(255,255,255)" stroke="rgb(229,162,46)" stroke-width="1"/><circle id="ek4woScnxZd16" r="5.64236" transform="matrix(0.866025 0.5 0 1 230.571 284.772)" opacity="0.4" fill="rgb(255,255,255)" stroke="rgb(229,162,46)" stroke-width="1"/><circle id="ek4woScnxZd17" r="5.64236" transform="matrix(0.866025 0.5 0 1 355.881 213.69)" fill="rgb(255,255,255)" stroke="rgb(229,162,46)" stroke-width="1"/><circle id="ek4woScnxZd18" r="5.64236" transform="matrix(0.866025 0.5 0 1 355.881 355.854)" fill="rgb(255,255,255)" stroke="rgb(0,46,135)" stroke-width="1"/><rect id="ek4woScnxZd19" width="172.416" height="172.416" rx="0" ry="0" transform="matrix(0.866025 0.5 -0.866025 0.5 367.813 32.0599)" fill="url(#ek4woScnxZd19-fill)" stroke="none" stroke-width="1"/><circle id="ek4woScnxZd20" r="50" transform="matrix(0.866025 -0.5 0.866025 0.5 367.814 118.268)" fill="url(#ek4woScnxZd20-fill)" stroke="none" stroke-width="1"/><rect id="ek4woScnxZd21" width="172.416" height="172.416" rx="0" ry="0" transform="matrix(0.866025 -0.5 0 1 367.813 204.476)" fill="url(#ek4woScnxZd21-fill)" stroke="none" stroke-width="1"/><circle id="ek4woScnxZd22" r="50" transform="matrix(0.866025 -0.5 0 1 448.227 243.268)" fill="url(#ek4woScnxZd22-fill)" stroke="none" stroke-width="1"/></g></g><g id="ek4woScnxZd23_to" transform="translate(657.087647,-208.408142)"><g id="ek4woScnxZd23" transform="translate(-657.087646,-416.185135)" opacity="0"><rect id="ek4woScnxZd24" width="495.655" height="82.7798" rx="0" ry="0" transform="matrix(0.866025 0.5 0 1 367.814 293.986)" fill="url(#ek4woScnxZd24-fill)" stroke="none" stroke-width="1"/><rect id="ek4woScnxZd25" width="495.655" height="172.416" rx="0" ry="0" transform="matrix(0.866025 0.5 -0.866025 0.5 517.131 207.777)" fill="url(#ek4woScnxZd25-fill)" stroke="none" stroke-width="1"/><rect id="ek4woScnxZd26" width="531.723" height="68.309" rx="0" ry="0" transform="matrix(0.807847 0.466411 -0.866025 0.5 477.868646 230.185958)" fill="url(#ek4woScnxZd26-fill)" stroke="none" stroke-width="1"/><path id="ek4woScnxZd27" d="M517.112,207.777L666.429,293.986L585.549,293.986C585.549,293.986,556.765,310.608,528.812,308.394C500.859,306.18,467.44,293.986,467.44,293.986L367.794,293.986L517.112,207.777Z" opacity="0" fill="url(#ek4woScnxZd27-fill)" stroke="none" stroke-width="1"/><path id="ek4woScnxZd28" d="M797.063,541.813L847.241,512.843C847.241,512.843,905.946,478.95,905.946,478.95L946.38,455.605L946.38,538.383L797.063,624.591L797.063,541.813Z" transform="matrix(1 0 0 1 0.001254 -0.00041)" fill="url(#ek4woScnxZd28-fill)" stroke="none" stroke-width="1"/></g></g><g id="ek4woScnxZd29_to" transform="translate(367.81398,-85.390789)"><g id="ek4woScnxZd29" transform="translate(-367.81398,-377.307998)" opacity="0"><path id="ek4woScnxZd30" d="M367.814,293.986L517.131,380.194L218.497,380.194L367.814,293.986Z" fill="url(#ek4woScnxZd30-fill)" stroke="none" stroke-width="1"/><path id="ek4woScnxZd31" d="M218.785,380.194L517.131,380.194L517.131,460.63L218.785,460.63L218.785,380.194Z" fill="url(#ek4woScnxZd31-fill)" stroke="none" stroke-width="1"/><rect id="ek4woScnxZd32" width="166.597" height="35.4833" rx="17.7416" ry="17.7416" transform="matrix(1 0 0 1 284.515 402.67)" fill="rgb(156,179,218)" stroke="none" stroke-width="1"/><g id="ek4woScnxZd33_to" transform="translate(433.656138,420.411545)"><rect id="ek4woScnxZd33" width="29.1417" height="30.6371" rx="14.5708" ry="14.5708" transform="translate(-14.570838,-15.318545)" opacity="0.9" fill="rgb(255,255,255)" stroke="none" stroke-width="1"/></g></g></g><g id="ek4woScnxZd34" mask="url(#ek4woScnxZd46)"><g id="ek4woScnxZd35_to" transform="translate(372.667007,-0.000001)"><g id="ek4woScnxZd35" transform="translate(-372.667007,-106.033691)" opacity="0"><path id="ek4woScnxZd36" d="M405.003947,92.429153C405.003947,109.551053,392.908947,131.398053,377.954947,140.018053C370.513947,144.293053,363.765947,144.746053,358.885947,142.000053C358.585947,141.833053,358.310947,141.654053,358.035947,141.463053L357.987947,141.427053C356.480947,140.412053,355.188947,139.087053,354.135947,137.427053C353.860947,137.009053,353.597947,136.579053,353.370947,136.114053C351.778947,133.093053,350.905947,129.236053,350.905947,124.616053C350.905947,107.494053,363.012947,86.250529,377.954947,77.641929C380.921947,75.934529,383.768947,74.836129,386.436947,74.334629C388.158947,73.976429,389.809947,73.868929,391.364947,73.988329C393.434947,74.143629,394.905947,74.454029,396.580947,75.397229L396.771947,75.516629L397.011947,75.659929C397.059947,75.695729,397.095947,75.731529,397.154947,75.767429C401.736947,78.644829,405.014947,84.190753,405.003947,92.429153Z" transform="matrix(1 0 0 1 0 0.385624)" fill="url(#ek4woScnxZd36-fill)" stroke="none" stroke-width="1"/><path id="ek4woScnxZd37" d="M397.545,76.4924L397.509,76.4924C397.461,76.4567,397.425,76.4211,397.365,76.3854L397.545,76.4924Z" fill="url(#ek4woScnxZd37-fill)" stroke="none" stroke-width="1"/><path id="ek4woScnxZd38" d="M396.934,76.1235C395.259,75.1803,393.357,74.6072,391.287,74.452C389.732,74.3326,388.093,74.44,386.359,74.7982C383.679,75.2997,380.832,76.3981,377.865,78.1055C363.20537,87.223358,351.08452,107.167129,350.905947,124.390129C350.858048,129.009881,351.701,133.172,353.281,136.193C353.508,136.658,353.759,137.088,354.046,137.506C355.099,139.166,356.391,140.491,357.898,141.506L348.352,136.037C343.423,133.267,340.408,127.059,340.408,118.462C340.408,101.364,352.515,80.4935,367.457,71.8969C374.922,67.5985,381.466,67.3,386.359,70.0462L386.478,70.1178L387.148,70.5357L396.934,76.1235Z" fill="url(#ek4woScnxZd38-fill)" stroke="none" stroke-width="1"/><path id="ek4woScnxZd39" d="M381.017,123.43L380.396,123.076L392.935,107.117L393.547,107.472L381.017,123.43Z" fill="rgb(119,115,201)" stroke="none" stroke-width="1"/><path id="ek4woScnxZd40" d="M368.444,121.804L381.017,123.43L393.547,107.471L381.052,132.209L368.444,121.804Z" fill="rgb(255,255,255)" stroke="none" stroke-width="1"/><path id="ek4woScnxZd41" d="M368.444,121.805L367.831,121.45L380.396,123.077L381.017,123.431L368.444,121.805Z" fill="rgb(255,255,255)" stroke="none" stroke-width="1"/><path id="ek4woScnxZd42" d="M381.052,132.21L380.431,131.856L367.831,121.45L368.444,121.805L381.052,132.21Z" fill="rgb(255,255,255)" stroke="none" stroke-width="1"/><path id="ek4woScnxZd43" d="M393.529,101.607L381,117.574L368.426,115.939L380.921,88.2686L393.529,101.607Z" transform="matrix(1 0 0 1 0.245 0)" fill="rgb(255,255,255)" stroke="none" stroke-width="1"/><path id="ek4woScnxZd44" d="M393.529,101.607L381,117.574L368.426,115.939L380.921,88.2686L393.529,101.607Z" fill="rgb(255,255,255)" stroke="none" stroke-width="1"/><path id="ek4woScnxZd45" d="M368.426,115.94L367.814,115.585L380.309,87.9146L380.921,88.2692L368.426,115.94Z" fill="rgb(119,115,201)" stroke="none" stroke-width="1"/></g></g><mask id="ek4woScnxZd46" mask-type="alpha"><path id="ek4woScnxZd47" d="M324.51274,143.26801C314.49923,137.48671,308.67858,130.20135,307.05077,122.67148L304.12564,122.67148L304.12564,0L431.46237,0L431.46237,122.67148L428.57723,122.67148C426.9494,130.20134,421.12874,137.48669,411.11524,143.26799C387.20061,157.07511,348.42735,157.07512,324.51274,143.26801Z" fill="rgb(255,255,255)" stroke="none" stroke-width="1"/></mask></g><g id="ek4woScnxZd48" mask="url(#ek4woScnxZd74)"><g id="ek4woScnxZd49" transform="matrix(1 0 0 1 0.000001 0)"><g id="ek4woScnxZd50_to" transform="translate(374.441499,186.08456)"><g id="ek4woScnxZd50" transform="scale(1.572665,1.572665) translate(-30.615701,-18.586676)"><path id="ek4woScnxZd51" d="M15.5154,32.7005C23.8552,37.5155,37.3767,37.5155,45.7165,32.7005C49.6534,30.4275,51.7318,27.4879,51.9519,24.5111L51.9677,24.5111L51.9677,24.2122C51.9726,24.0588,51.9726,23.9055,51.9677,23.7521L51.9677,17.4681L48.7532,17.4681C47.9076,16.6848,46.8954,15.9444,45.7165,15.2638C37.3767,10.4488,23.8552,10.4488,15.5154,15.2638C14.3366,15.9444,13.3244,16.6848,12.4788,17.4681L9.26531,17.4681L9.26531,23.7214C9.25898,23.8952,9.25898,24.0691,9.26531,24.2429L9.26531,24.5111L9.2801,24.5111C9.50013,27.4879,11.5786,30.4275,15.5154,32.7005Z" clip-rule="evenodd" fill="url(#ek4woScnxZd51-fill)" fill-rule="evenodd" stroke="none" stroke-width="1"/><circle id="ek4woScnxZd52" r="17.4366" transform="matrix(0.866025 0.5 -0.866025 0.5 30.6157 18.2982)" fill="url(#ek4woScnxZd52-fill)" stroke="none" stroke-width="1"/><path id="ek4woScnxZd53" d="M21.9428,22.0271L41.1809,20.9116L41.1809,21.6185L22.089,22.7211L21.9428,22.0271Z" fill="rgb(255,228,145)" stroke="none" stroke-width="1"/><path id="ek4woScnxZd54" d="M21.9428,22.0271L41.1809,20.9116L41.1809,21.6185L22.089,22.7211L21.9428,22.0271Z" fill="rgb(255,228,145)" stroke="none" stroke-width="1"/><path id="ek4woScnxZd55" d="M43.0401,16.9325C43.0135,17.0605,42.9427,17.2198,42.9427,17.2198L41.1809,20.9119L41.1809,21.6188C41.1809,21.6188,43.1775,17.7719,43.1863,17.7105C43.195,17.6492,43.0666,17.0959,43.0401,16.9325Z" fill="rgb(255,228,145)" stroke="none" stroke-width="1"/><path id="ek4woScnxZd56" d="M43.0401,16.9325C43.0135,17.0605,42.9427,17.2198,42.9427,17.2198L41.1809,20.9119L41.1809,21.6188C41.1809,21.6188,43.1775,17.7719,43.1863,17.7105C43.195,17.6492,43.0666,17.0959,43.0401,16.9325Z" fill="rgb(255,228,145)" stroke="none" stroke-width="1"/><path id="ek4woScnxZd57" d="M21.9553,22.0257C22.5926,18.2919,23.2198,14.6178,23.8481,10.9369C26.1154,10.5712,28.3459,10.2043,30.5875,9.86145C30.8048,9.82826,31.1652,9.90098,31.3337,9.99753C35.1739,12.1982,39.0001,14.407,42.8106,16.6248C42.9733,16.7195,43.0724,16.9314,43.0136,17.0602C42.4283,18.3409,41.8033,19.6158,41.1706,20.9318C34.7953,21.2947,28.4131,21.658,21.9553,22.0257Z" fill="rgb(255,255,255)" stroke="none" stroke-width="1"/></g></g><g id="ek4woScnxZd58_to" transform="translate(374.441499,186.08456)"><g id="ek4woScnxZd58" transform="scale(1.572665,1.572665) translate(-30.615701,-18.586676)"><path id="ek4woScnxZd59" d="M15.5154,32.7005C23.8552,37.5155,37.3767,37.5155,45.7165,32.7005C49.6534,30.4275,51.7318,27.4879,51.9519,24.5111L51.9677,24.5111L51.9677,24.2122C51.9726,24.0588,51.9726,23.9055,51.9677,23.7521L51.9677,17.4681L48.7532,17.4681C47.9076,16.6848,46.8954,15.9444,45.7165,15.2638C37.3767,10.4488,23.8552,10.4488,15.5154,15.2638C14.3366,15.9444,13.3244,16.6848,12.4788,17.4681L9.26531,17.4681L9.26531,23.7214C9.25898,23.8952,9.25898,24.0691,9.26531,24.2429L9.26531,24.5111L9.2801,24.5111C9.50013,27.4879,11.5786,30.4275,15.5154,32.7005Z" clip-rule="evenodd" fill="url(#ek4woScnxZd59-fill)" fill-rule="evenodd" stroke="none" stroke-width="1"/><circle id="ek4woScnxZd60" r="17.4366" transform="matrix(0.866025 0.5 -0.866025 0.5 30.6157 18.2982)" fill="url(#ek4woScnxZd60-fill)" stroke="none" stroke-width="1"/><path id="ek4woScnxZd61" d="M21.9428,22.0271L41.1809,20.9116L41.1809,21.6185L22.089,22.7211L21.9428,22.0271Z" fill="rgb(255,228,145)" stroke="none" stroke-width="1"/><path id="ek4woScnxZd62" d="M21.9428,22.0271L41.1809,20.9116L41.1809,21.6185L22.089,22.7211L21.9428,22.0271Z" fill="rgb(255,228,145)" stroke="none" stroke-width="1"/><path id="ek4woScnxZd63" d="M43.0401,16.9325C43.0135,17.0605,42.9427,17.2198,42.9427,17.2198L41.1809,20.9119L41.1809,21.6188C41.1809,21.6188,43.1775,17.7719,43.1863,17.7105C43.195,17.6492,43.0666,17.0959,43.0401,16.9325Z" fill="rgb(255,228,145)" stroke="none" stroke-width="1"/><path id="ek4woScnxZd64" d="M43.0401,16.9325C43.0135,17.0605,42.9427,17.2198,42.9427,17.2198L41.1809,20.9119L41.1809,21.6188C41.1809,21.6188,43.1775,17.7719,43.1863,17.7105C43.195,17.6492,43.0666,17.0959,43.0401,16.9325Z" fill="rgb(255,228,145)" stroke="none" stroke-width="1"/><path id="ek4woScnxZd65" d="M21.9553,22.0257C22.5926,18.2919,23.2198,14.6178,23.8481,10.9369C26.1154,10.5712,28.3459,10.2043,30.5875,9.86145C30.8048,9.82826,31.1652,9.90098,31.3337,9.99753C35.1739,12.1982,39.0001,14.407,42.8106,16.6248C42.9733,16.7195,43.0724,16.9314,43.0136,17.0602C42.4283,18.3409,41.8033,19.6158,41.1706,20.9318C34.7953,21.2947,28.4131,21.658,21.9553,22.0257Z" fill="rgb(255,255,255)" stroke="none" stroke-width="1"/></g></g><g id="ek4woScnxZd66_to" transform="translate(374.441499,186.08456)"><g id="ek4woScnxZd66" transform="scale(1.572665,1.572665) translate(-30.615701,-18.586676)"><path id="ek4woScnxZd67" d="M15.5154,32.7005C23.8552,37.5155,37.3767,37.5155,45.7165,32.7005C49.6534,30.4275,51.7318,27.4879,51.9519,24.5111L51.9677,24.5111L51.9677,24.2122C51.9726,24.0588,51.9726,23.9055,51.9677,23.7521L51.9677,17.4681L48.7532,17.4681C47.9076,16.6848,46.8954,15.9444,45.7165,15.2638C37.3767,10.4488,23.8552,10.4488,15.5154,15.2638C14.3366,15.9444,13.3244,16.6848,12.4788,17.4681L9.26531,17.4681L9.26531,23.7214C9.25898,23.8952,9.25898,24.0691,9.26531,24.2429L9.26531,24.5111L9.2801,24.5111C9.50013,27.4879,11.5786,30.4275,15.5154,32.7005Z" clip-rule="evenodd" fill="url(#ek4woScnxZd67-fill)" fill-rule="evenodd" stroke="none" stroke-width="1"/><circle id="ek4woScnxZd68" r="17.4366" transform="matrix(0.866025 0.5 -0.866025 0.5 30.6157 18.2982)" fill="url(#ek4woScnxZd68-fill)" stroke="none" stroke-width="1"/><path id="ek4woScnxZd69" d="M21.9428,22.0271L41.1809,20.9116L41.1809,21.6185L22.089,22.7211L21.9428,22.0271Z" fill="rgb(255,228,145)" stroke="none" stroke-width="1"/><path id="ek4woScnxZd70" d="M21.9428,22.0271L41.1809,20.9116L41.1809,21.6185L22.089,22.7211L21.9428,22.0271Z" fill="rgb(255,228,145)" stroke="none" stroke-width="1"/><path id="ek4woScnxZd71" d="M43.0401,16.9325C43.0135,17.0605,42.9427,17.2198,42.9427,17.2198L41.1809,20.9119L41.1809,21.6188C41.1809,21.6188,43.1775,17.7719,43.1863,17.7105C43.195,17.6492,43.0666,17.0959,43.0401,16.9325Z" fill="rgb(255,228,145)" stroke="none" stroke-width="1"/><path id="ek4woScnxZd72" d="M43.0401,16.9325C43.0135,17.0605,42.9427,17.2198,42.9427,17.2198L41.1809,20.9119L41.1809,21.6188C41.1809,21.6188,43.1775,17.7719,43.1863,17.7105C43.195,17.6492,43.0666,17.0959,43.0401,16.9325Z" fill="rgb(255,228,145)" stroke="none" stroke-width="1"/><path id="ek4woScnxZd73" d="M21.9553,22.0257C22.5926,18.2919,23.2198,14.6178,23.8481,10.9369C26.1154,10.5712,28.3459,10.2043,30.5875,9.86145C30.8048,9.82826,31.1652,9.90098,31.3337,9.99753C35.1739,12.1982,39.0001,14.407,42.8106,16.6248C42.9733,16.7195,43.0724,16.9314,43.0136,17.0602C42.4283,18.3409,41.8033,19.6158,41.1706,20.9318C34.7953,21.2947,28.4131,21.658,21.9553,22.0257Z" fill="rgb(255,255,255)" stroke="none" stroke-width="1"/></g></g></g><mask id="ek4woScnxZd74" mask-type="luminance"><path id="ek4woScnxZd75" d="M404.925998,272.373882L835.812931,523.748281L835.812931,627.584421L967.92512,627.584421L967.925119,492.07594L491.528263,222.153538C491.528263,171.814914,447.987831,181.561135,421.731526,219.332357C411.40054,234.194081,404.925998,256.119999,404.925998,272.373882Z" transform="matrix(1 0 0 1 0.06403 -2.993831)" fill="rgb(255,255,255)" stroke="none" stroke-width="2.116"/></mask></g></svg>