<svg id="ezf0Muk9Qho1" xmlns="http://www.w3.org/2000/svg" xmlns:xlink="http://www.w3.org/1999/xlink" viewBox="0 0 441 512" shape-rendering="geometricPrecision" text-rendering="geometricPrecision"><style><![CDATA[#ezf0Muk9Qho8-fill {animation: ezf0Muk9Qho8-fill__t 7000ms linear infinite normal forwards}@keyframes ezf0Muk9Qho8-fill__t { 0% {transform: matrix(0,-0.011055,0.011055,0,0.549005,0.040172)} 8.571429% {transform: matrix(0,-0.011055,0.011055,0,0.549005,0.040172)} 28.571429% {transform: matrix(0,-0.024055,0.024055,0,0.549005,0.053172)} 48.571429% {transform: matrix(0,-1.014985,1.014985,0,0.5,1)} 100% {transform: matrix(0,-1.014985,1.014985,0,0.5,1)}} #ezf0Muk9Qho8-fill-0 {animation: ezf0Muk9Qho8-fill-0__c 7000ms linear infinite normal forwards}@keyframes ezf0Muk9Qho8-fill-0__c { 0% {stop-color: rgb(0,0,0)} 8.571429% {stop-color: rgb(0,0,0)} 28.571429% {stop-color: rgb(0,0,0)} 48.571429% {stop-color: rgb(255,255,255)} 100% {stop-color: rgb(255,255,255)}} #ezf0Muk9Qho8-fill-1 {animation: ezf0Muk9Qho8-fill-1__c 7000ms linear infinite normal forwards}@keyframes ezf0Muk9Qho8-fill-1__c { 0% {stop-color: rgb(36,36,36)} 8.571429% {stop-color: rgb(36,36,36)} 28.571429% {stop-color: rgb(36,36,36)} 48.571429% {stop-color: rgb(255,255,255)} 100% {stop-color: rgb(255,255,255)}} #ezf0Muk9Qho9 {animation: ezf0Muk9Qho9_c_o 7000ms linear infinite normal forwards}@keyframes ezf0Muk9Qho9_c_o { 0% {opacity: 0} 28.571429% {opacity: 0} 42.857143% {opacity: 1} 100% {opacity: 1}} #ezf0Muk9Qho13 {animation: ezf0Muk9Qho13_c_o 7000ms linear infinite normal forwards}@keyframes ezf0Muk9Qho13_c_o { 0% {opacity: 0} 7.142857% {opacity: 0} 24.285714% {opacity: 1} 100% {opacity: 1}} #ezf0Muk9Qho17 {animation: ezf0Muk9Qho17_c_o 7000ms linear infinite normal forwards}@keyframes ezf0Muk9Qho17_c_o { 0% {opacity: 0} 12.857143% {opacity: 0} 28.571429% {opacity: 1} 100% {opacity: 1}} #ezf0Muk9Qho22 {animation: ezf0Muk9Qho22_c_o 7000ms linear infinite normal forwards}@keyframes ezf0Muk9Qho22_c_o { 0% {opacity: 0} 22.857143% {opacity: 0} 35.714286% {opacity: 1} 40% {opacity: 0.41} 44.285714% {opacity: 1} 48.571429% {opacity: 0.4} 52.857143% {opacity: 1} 57.142857% {opacity: 0.4} 61.428571% {opacity: 1} 100% {opacity: 1}} #ezf0Muk9Qho30-fill {animation: ezf0Muk9Qho30-fill__t 7000ms linear infinite normal forwards}@keyframes ezf0Muk9Qho30-fill__t { 0% {transform: matrix(-0.004619,0.991539,-0.991539,-0.004619,0.425364,0.008366)} 24.285714% {transform: matrix(-0.004619,0.991539,-0.991539,-0.004619,0.425364,0.008366)} 37.142857% {transform: matrix(0,0.983317,-0.983317,0,0.444591,0.008366)} 100% {transform: matrix(0,0.983317,-0.983317,0,0.444591,0.008366)}} #ezf0Muk9Qho30-fill-0 {animation: ezf0Muk9Qho30-fill-0__c 7000ms linear infinite normal forwards}@keyframes ezf0Muk9Qho30-fill-0__c { 0% {stop-color: rgb(0,0,0)} 24.285714% {stop-color: rgb(0,0,0)} 37.142857% {stop-color: rgb(255,255,255)} 100% {stop-color: rgb(255,255,255)}} #ezf0Muk9Qho30-fill-1 {animation: ezf0Muk9Qho30-fill-1__c 7000ms linear infinite normal forwards}@keyframes ezf0Muk9Qho30-fill-1__c { 0% {stop-color: rgb(0,0,0)} 24.285714% {stop-color: rgb(0,0,0)} 37.142857% {stop-color: rgb(255,255,255)} 100% {stop-color: rgb(255,255,255)}} #ezf0Muk9Qho31_to {animation: ezf0Muk9Qho31_to__to 7000ms linear infinite normal forwards}@keyframes ezf0Muk9Qho31_to__to { 0% {transform: translate(272.14901px,-46.653042px)} 22.857143% {transform: translate(272.14901px,-46.653042px)} 35.714286% {transform: translate(272.14901px,70px)} 40% {transform: translate(272.14901px,55px)} 44.285714% {transform: translate(272.14901px,70px)} 48.571429% {transform: translate(272.14901px,60px)} 52.857143% {transform: translate(272.314012px,70px)} 57.142857% {transform: translate(272.314012px,65px)} 61.428571% {transform: translate(272.314012px,70px)} 100% {transform: translate(272.314012px,70px)}} #ezf0Muk9Qho34 {animation: ezf0Muk9Qho34_c_o 7000ms linear infinite normal forwards}@keyframes ezf0Muk9Qho34_c_o { 0% {opacity: 0} 14.285714% {opacity: 1} 100% {opacity: 1}}]]></style><defs><linearGradient id="ezf0Muk9Qho4-fill" x1="281.633" y1="8.9813" x2="346.119" y2="208.561" spreadMethod="pad" gradientUnits="userSpaceOnUse" gradientTransform="matrix(1 0 0 1 0 0)"><stop id="ezf0Muk9Qho4-fill-0" offset="0%" stop-color="rgb(6,1,142)"/><stop id="ezf0Muk9Qho4-fill-1" offset="100%" stop-color="rgb(185,182,255)"/></linearGradient><linearGradient id="ezf0Muk9Qho5-fill" x1="368.939" y1="393.207" x2="458.271" y2="101.982" spreadMethod="pad" gradientUnits="userSpaceOnUse" gradientTransform="matrix(1 0 0 1 0 0)"><stop id="ezf0Muk9Qho5-fill-0" offset="0%" stop-color="rgb(6,1,142)"/><stop id="ezf0Muk9Qho5-fill-1" offset="98.3247%" stop-color="rgb(74,70,193)"/></linearGradient><linearGradient id="ezf0Muk9Qho6-fill" x1="368.939" y1="393.207" x2="458.271" y2="101.982" spreadMethod="pad" gradientUnits="userSpaceOnUse" gradientTransform="matrix(1 0 0 1 0 0)"><stop id="ezf0Muk9Qho6-fill-0" offset="0%" stop-color="rgb(6,1,142)"/><stop id="ezf0Muk9Qho6-fill-1" offset="98.3247%" stop-color="rgb(74,70,193)"/></linearGradient><linearGradient id="ezf0Muk9Qho8-fill" x1="0" y1="0" x2="1" y2="0" spreadMethod="pad" gradientUnits="objectBoundingBox" gradientTransform="matrix(0 -0.011055 0.011055 0 0.549005 0.040172)"><stop id="ezf0Muk9Qho8-fill-0" offset="0%" stop-color="rgb(0,0,0)"/><stop id="ezf0Muk9Qho8-fill-1" offset="100%" stop-color="rgb(36,36,36)"/></linearGradient><linearGradient id="ezf0Muk9Qho10-fill" x1="74.0296" y1="258.065" x2="74.0296" y2="224.933" spreadMethod="pad" gradientUnits="userSpaceOnUse" gradientTransform="matrix(1 0 0 1 0 0)"><stop id="ezf0Muk9Qho10-fill-0" offset="0%" stop-color="rgb(172,168,255)"/><stop id="ezf0Muk9Qho10-fill-1" offset="100%" stop-color="rgb(133,129,252)"/></linearGradient><linearGradient id="ezf0Muk9Qho11-fill" x1="59.6824" y1="448.8" x2="59.6824" y2="241.5" spreadMethod="pad" gradientUnits="userSpaceOnUse" gradientTransform="matrix(1 0 0 1 0 0)"><stop id="ezf0Muk9Qho11-fill-0" offset="0%" stop-color="rgb(6,1,142)"/><stop id="ezf0Muk9Qho11-fill-1" offset="100%" stop-color="rgb(125,120,234)"/></linearGradient><linearGradient id="ezf0Muk9Qho12-fill" x1="88.3771" y1="467.477" x2="88.3771" y2="258.289" spreadMethod="pad" gradientUnits="userSpaceOnUse" gradientTransform="matrix(1 0 0 1 0 0)"><stop id="ezf0Muk9Qho12-fill-0" offset="0%" stop-color="rgb(7,2,139)"/><stop id="ezf0Muk9Qho12-fill-1" offset="100%" stop-color="rgb(67,62,197)"/></linearGradient><linearGradient id="ezf0Muk9Qho14-fill" x1="131.417" y1="127.921" x2="131.417" y2="94.789" spreadMethod="pad" gradientUnits="userSpaceOnUse" gradientTransform="matrix(1 0 0 1 0 0)"><stop id="ezf0Muk9Qho14-fill-0" offset="0%" stop-color="rgb(172,168,255)"/><stop id="ezf0Muk9Qho14-fill-1" offset="100%" stop-color="rgb(133,129,252)"/></linearGradient><linearGradient id="ezf0Muk9Qho15-fill" x1="117.071" y1="318.668" x2="117.071" y2="111.356" spreadMethod="pad" gradientUnits="userSpaceOnUse" gradientTransform="matrix(1 0 0 1 0 0)"><stop id="ezf0Muk9Qho15-fill-0" offset="0%" stop-color="rgb(6,1,142)"/><stop id="ezf0Muk9Qho15-fill-1" offset="100%" stop-color="rgb(125,120,234)"/></linearGradient><linearGradient id="ezf0Muk9Qho16-fill" x1="145.765" y1="337.346" x2="145.765" y2="128.146" spreadMethod="pad" gradientUnits="userSpaceOnUse" gradientTransform="matrix(1 0 0 1 0 0)"><stop id="ezf0Muk9Qho16-fill-0" offset="0%" stop-color="rgb(7,2,139)"/><stop id="ezf0Muk9Qho16-fill-1" offset="100%" stop-color="rgb(67,62,197)"/></linearGradient><linearGradient id="ezf0Muk9Qho18-fill" x1="266.105" y1="141.65" x2="266.105" y2="47.9402" spreadMethod="pad" gradientUnits="userSpaceOnUse" gradientTransform="matrix(1 0 0 1 0 0)"><stop id="ezf0Muk9Qho18-fill-0" offset="0%" stop-color="rgb(172,168,255)"/><stop id="ezf0Muk9Qho18-fill-1" offset="100%" stop-color="rgb(133,129,252)"/></linearGradient><linearGradient id="ezf0Muk9Qho19-fill" x1="306.685" y1="432.756" x2="306.685" y2="119.899" spreadMethod="pad" gradientUnits="userSpaceOnUse" gradientTransform="matrix(1 0 0 1 0 0)"><stop id="ezf0Muk9Qho19-fill-0" offset="0%" stop-color="rgb(7,2,139)"/><stop id="ezf0Muk9Qho19-fill-1" offset="100%" stop-color="rgb(67,62,197)"/></linearGradient><linearGradient id="ezf0Muk9Qho20-fill" x1="225.537" y1="409.478" x2="225.537" y2="94.79" spreadMethod="pad" gradientUnits="userSpaceOnUse" gradientTransform="matrix(1 0 0 1 0 0)"><stop id="ezf0Muk9Qho20-fill-0" offset="0%" stop-color="rgb(6,1,142)"/><stop id="ezf0Muk9Qho20-fill-1" offset="100%" stop-color="rgb(125,120,234)"/></linearGradient><radialGradient id="ezf0Muk9Qho22-fill" cx="0" cy="0" r="1" spreadMethod="pad" gradientUnits="userSpaceOnUse" gradientTransform="matrix(33.6487 0.051482 -0.025924 16.9441 273.832 99.3623)"><stop id="ezf0Muk9Qho22-fill-0" offset="0%" stop-color="rgb(38,38,186)"/><stop id="ezf0Muk9Qho22-fill-1" offset="99%" stop-color="rgba(97,97,220,0)"/></radialGradient><linearGradient id="ezf0Muk9Qho25-fill" x1="52.039" y1="497.596" x2="85.7673" y2="218.532" spreadMethod="pad" gradientUnits="userSpaceOnUse" gradientTransform="matrix(1 0 0 1 0 0)"><stop id="ezf0Muk9Qho25-fill-0" offset="0%" stop-color="rgb(6,1,142)"/><stop id="ezf0Muk9Qho25-fill-1" offset="98.3247%" stop-color="rgb(74,70,193)"/></linearGradient><linearGradient id="ezf0Muk9Qho26-fill" x1="70.0297" y1="500.216" x2="101.731" y2="229.549" spreadMethod="pad" gradientUnits="userSpaceOnUse" gradientTransform="matrix(1 0 0 1 0 0)"><stop id="ezf0Muk9Qho26-fill-0" offset="0%" stop-color="rgb(6,1,142)"/><stop id="ezf0Muk9Qho26-fill-1" offset="98.3247%" stop-color="rgb(74,70,193)"/></linearGradient><linearGradient id="ezf0Muk9Qho27-fill" x1="9.71893" y1="378.179" x2="228.978" y2="250.958" spreadMethod="pad" gradientUnits="userSpaceOnUse" gradientTransform="matrix(1 0 0 1 0 0)"><stop id="ezf0Muk9Qho27-fill-0" offset="0%" stop-color="rgb(6,1,142)"/><stop id="ezf0Muk9Qho27-fill-1" offset="100%" stop-color="rgb(205,202,255)"/></linearGradient><linearGradient id="ezf0Muk9Qho30-fill" x1="0" y1="0" x2="1" y2="0" spreadMethod="pad" gradientUnits="objectBoundingBox" gradientTransform="matrix(-0.004619 0.991539 -0.991539 -0.004619 0.425364 0.008366)"><stop id="ezf0Muk9Qho30-fill-0" offset="0%" stop-color="rgb(0,0,0)"/><stop id="ezf0Muk9Qho30-fill-1" offset="100%" stop-color="rgb(0,0,0)"/></linearGradient><radialGradient id="ezf0Muk9Qho32-fill" cx="0" cy="0" r="1.003612" spreadMethod="pad" gradientUnits="userSpaceOnUse" gradientTransform="matrix(56.133 13.8756 -13.8756 56.133 254.847 44.652025)"><stop id="ezf0Muk9Qho32-fill-0" offset="0%" stop-color="rgb(255,255,255)"/><stop id="ezf0Muk9Qho32-fill-1" offset="19.8%" stop-color="rgb(181,196,255)"/><stop id="ezf0Muk9Qho32-fill-2" offset="44%" stop-color="rgb(140,148,255)"/><stop id="ezf0Muk9Qho32-fill-3" offset="78%" stop-color="rgb(44,44,236)"/><stop id="ezf0Muk9Qho32-fill-4" offset="100%" stop-color="rgb(87,84,255)"/></radialGradient><filter id="ezf0Muk9Qho34-filter" x="-400%" width="600%" y="-400%" height="600%"><feGaussianBlur id="ezf0Muk9Qho34-filter-blur-0" stdDeviation="0,0" result="result"/></filter><linearGradient id="ezf0Muk9Qho35-fill" x1="322.725" y1="264.141" x2="322.725" y2="231.009" spreadMethod="pad" gradientUnits="userSpaceOnUse" gradientTransform="matrix(1 0 0 1 0 0)"><stop id="ezf0Muk9Qho35-fill-0" offset="0%" stop-color="rgb(172,168,255)"/><stop id="ezf0Muk9Qho35-fill-1" offset="100%" stop-color="rgb(133,129,252)"/></linearGradient><linearGradient id="ezf0Muk9Qho36-fill" x1="308.379" y1="454.876" x2="308.379" y2="247.576" spreadMethod="pad" gradientUnits="userSpaceOnUse" gradientTransform="matrix(1 0 0 1 0 0)"><stop id="ezf0Muk9Qho36-fill-0" offset="0%" stop-color="rgb(6,1,142)"/><stop id="ezf0Muk9Qho36-fill-1" offset="100%" stop-color="rgb(125,120,234)"/></linearGradient><linearGradient id="ezf0Muk9Qho37-fill" x1="337.067" y1="473.554" x2="337.067" y2="264.365" spreadMethod="pad" gradientUnits="userSpaceOnUse" gradientTransform="matrix(1 0 0 1 0 0)"><stop id="ezf0Muk9Qho37-fill-0" offset="0%" stop-color="rgb(7,2,139)"/><stop id="ezf0Muk9Qho37-fill-1" offset="100%" stop-color="rgb(67,62,197)"/></linearGradient></defs><g id="ezf0Muk9Qho2" mask="url(#ezf0Muk9Qho7)"><g id="ezf0Muk9Qho3" transform="matrix(1 0 0 1 0 1)"><path id="ezf0Muk9Qho4" d="M346.117,208.561L346.117,184.482L382.161,163.667C418.962,142.424,418.962,107.855,382.161,86.6116L253,12.0399L273.852,0L403.013,74.5717C451.312,102.459,451.312,147.832,403.013,175.707L346.117,208.561Z" fill="url(#ezf0Muk9Qho4-fill)" stroke="none" stroke-width="1"/><path id="ezf0Muk9Qho5" d="M345.865,208.638L345.865,214.248L345.865,406.861L350.151,404.39L350.151,222.342C350.151,218.118,353.114,212.975,356.77,210.869C360.426,208.751,363.389,210.466,363.389,214.689L363.389,396.738L367.675,394.267L367.675,201.653L371.747,199.296L371.747,196.51L406.833,176.25L406.833,173.426L345.865,208.638Z" fill="url(#ezf0Muk9Qho5-fill)" stroke="none" stroke-width="1"/><path id="ezf0Muk9Qho6" d="M406.833,173.426L406.833,176.25C412.426,172.644,423.673,165.958,431.842,153.922C438.259,144.468,439.885,133.264,440.291,128.444C440.512,125.816,440.533,119.575,437.702,113.864C438.618,117.111,439.075,119.531,439.234,124.503C439.437,130.821,436.754,140.05,434.745,144.258C432.737,148.466,427.576,155.999,423.673,159.938C416.065,167.615,412.014,169.798,406.833,173.426Z" fill="url(#ezf0Muk9Qho6-fill)" stroke="none" stroke-width="1"/></g><mask id="ezf0Muk9Qho7" mask-type="luminance"><rect id="ezf0Muk9Qho8" width="208.112537" height="100.000526" rx="0" ry="0" transform="matrix(0.99882 0 0 5.323872 233.133054 -20.387095)" fill="url(#ezf0Muk9Qho8-fill)" stroke="none" stroke-width="0"/></mask></g><g id="ezf0Muk9Qho9" opacity="0"><path id="ezf0Muk9Qho10" d="M74.0302,258.065L102.724,241.499L74.0302,224.933L45.3362,241.499L74.0302,258.065Z" fill="url(#ezf0Muk9Qho10-fill)" stroke="none" stroke-width="1"/><path id="ezf0Muk9Qho11" d="M74.0295,473.913L74.0295,258.065L45.3354,241.499L45.3354,450L74.0295,473.913Z" transform="matrix(1 0 0 1 0 -0.15057)" fill="url(#ezf0Muk9Qho11-fill)" stroke="none" stroke-width="1"/><path id="ezf0Muk9Qho12" d="M74.0295,473.913L74.0295,258.065L102.724,241.499L102.724,454.5L74.0295,473.913Z" fill="url(#ezf0Muk9Qho12-fill)" stroke="none" stroke-width="1"/></g><g id="ezf0Muk9Qho13" opacity="0"><path id="ezf0Muk9Qho14" d="M131.418,127.921L160.112,111.355L131.418,94.7891L102.724,111.355L131.418,127.921Z" fill="url(#ezf0Muk9Qho14-fill)" stroke="none" stroke-width="1"/><path id="ezf0Muk9Qho15" d="M131.418,343.782L131.418,127.921L102.724,111.355L102.724,323.5L131.418,343.782Z" fill="url(#ezf0Muk9Qho15-fill)" stroke="none" stroke-width="1"/><path id="ezf0Muk9Qho16" d="M131.418,343.782L131.418,127.921L160.112,111.355L160.112,327L131.418,343.782Z" fill="url(#ezf0Muk9Qho16-fill)" stroke="none" stroke-width="1"/></g><g id="ezf0Muk9Qho17" opacity="0"><path id="ezf0Muk9Qho18" d="M266.113,141.65L184.96,94.7889L266.113,47.9404L347.253,94.7889L266.113,141.65Z" fill="url(#ezf0Muk9Qho18-fill)" stroke="none" stroke-width="1"/><path id="ezf0Muk9Qho19" d="M266.113,447.594L266.113,141.5L347.253,94.6387L347.253,380.107L266.113,447.594Z" fill="url(#ezf0Muk9Qho19-fill)" stroke="none" stroke-width="1"/><path id="ezf0Muk9Qho20" d="M266.113,447.601L266.113,141.65L184.96,94.7891L184.96,383.128L266.113,447.601Z" fill="url(#ezf0Muk9Qho20-fill)" stroke="none" stroke-width="1"/><path id="ezf0Muk9Qho21" d="M231.154,259.665L213.163,249.277L213.163,230.366C213.163,224.201,216.907,221.365,221.534,224.037L222.782,224.756C227.409,227.429,231.154,234.59,231.154,240.755L231.154,259.665Z" fill="rgb(35,30,167)" stroke="none" stroke-width="1"/></g><path id="ezf0Muk9Qho22" d="M307.481,99.4137C307.495,90.0558,292.441,82.4466,273.858,82.4181C255.274,82.3897,240.197,89.9528,240.183,99.3108C240.169,108.669,255.222,116.278,273.806,116.306C292.39,116.335,307.466,108.772,307.481,99.4137Z" transform="matrix(1 0 0 1 -1.847 3.288375)" opacity="0" fill="url(#ezf0Muk9Qho22-fill)" stroke="none" stroke-width="1"/><g id="ezf0Muk9Qho23" mask="url(#ezf0Muk9Qho29)"><g id="ezf0Muk9Qho24" transform="matrix(1 0 0 1 0 0.000001)"><path id="ezf0Muk9Qho25" d="M213.163,249.365L0,372.437L0,375.261L25.807,360.359L25.807,363.145L29.8791,360.788L29.8791,509.73L34.1656,507.259L34.1656,368.869C34.1656,364.646,37.1283,359.502,40.7844,357.397C44.4404,355.279,47.4031,356.993,47.4031,361.217L47.4031,499.593L51.6896,497.122L51.6896,348.193L55.7617,345.836L55.7617,343.05L86.952,325.046L86.952,327.833L91.0241,325.475L91.0241,483.456L95.3106,480.985L95.3106,333.556C95.3106,329.333,98.2733,324.189,101.929,322.084C105.585,319.966,108.548,321.68,108.548,325.904L108.548,473.333L112.835,470.862L112.835,312.893L116.907,310.536L116.907,307.749L148.097,289.746L148.097,292.532L152.169,290.175L152.169,499.379L156.456,496.908L156.456,298.256C156.456,294.033,159.418,288.889,163.074,286.783C166.731,284.665,169.693,286.38,169.693,290.603L169.693,489.255L173.98,486.784L173.98,277.58L178.052,275.223L178.052,272.436L213.138,252.177L213.138,249.365L213.163,249.365Z" fill="url(#ezf0Muk9Qho25-fill)" stroke="none" stroke-width="1"/><path id="ezf0Muk9Qho26" d="M231.154,259.666L17.9907,382.737L17.9907,385.561L43.7977,370.66L43.7977,373.446L47.8699,371.088L47.8699,511.974L52.1563,509.503L52.1563,379.169C52.1563,374.946,55.119,369.802,58.7751,367.697C62.4312,365.579,65.3939,367.293,65.3939,371.517L65.3939,501.85L69.6803,499.379L69.6803,358.494L73.7525,356.136L73.7525,353.35L104.943,335.347L104.943,338.133L109.015,335.775L109.015,499.367L113.301,496.896L113.301,343.869C113.301,339.646,116.264,334.502,119.92,332.397C123.576,330.279,126.539,331.993,126.539,336.217L126.539,489.256L130.825,486.785L130.825,323.193L134.898,320.836L134.898,318.05L166.088,300.046L166.088,302.833L170.16,300.475L170.16,493.088L174.446,490.617L174.446,308.569C174.446,304.346,177.409,299.202,181.065,297.096C184.721,294.978,187.684,296.693,187.684,300.916L187.684,482.965L191.97,480.494L191.97,287.88L196.043,285.523L196.043,282.737L231.128,262.477L231.128,259.666L231.154,259.666Z" fill="url(#ezf0Muk9Qho26-fill)" stroke="none" stroke-width="1"/><path id="ezf0Muk9Qho27" d="M231.053,239.065L213.163,249.277L0,372.437L17.9905,382.737L231.153,259.666L231.153,240.755C231.153,240.2,231.116,239.633,231.053,239.065Z" fill="url(#ezf0Muk9Qho27-fill)" stroke="none" stroke-width="1"/><path id="ezf0Muk9Qho28" d="M0.014893,372.441L17.9905,382.687L17.9905,385.55L0.014893,375.253L0.014893,372.441Z" fill="rgb(32,27,169)" stroke="none" stroke-width="1"/></g><mask id="ezf0Muk9Qho29" mask-type="luminance"><rect id="ezf0Muk9Qho30" width="231.053" height="272.934999" rx="0" ry="0" transform="matrix(1 0 0 1 0 239.065001)" fill="url(#ezf0Muk9Qho30-fill)" stroke="none" stroke-width="0"/></mask></g><g id="ezf0Muk9Qho31_to" transform="translate(272.14901,-46.653042)"><g id="ezf0Muk9Qho31" transform="translate(-272.14901,-71.941418)"><path id="ezf0Muk9Qho32" d="M273.996,102.992C296.637,102.992,314.992,84.6375,314.992,61.996C314.992,39.3545,296.637,21,273.996,21C251.355,21,233,39.3545,233,61.996C233,84.6375,251.355,102.992,273.996,102.992Z" transform="matrix(1 0 0 1 -2.011 3.288375)" fill="url(#ezf0Muk9Qho32-fill)" stroke="none" stroke-width="1"/><path id="ezf0Muk9Qho33" d="M292.98,54.7295L292.98,65.11L261.34,65.11L259.978,65.1101C261.419,71.4085,267.137,76.1132,273.972,76.1132C279.622,76.1132,284.51,72.8976,286.848,68.2243L292.98,68.2242L292.98,76.9437C292.98,79.0075,291.28,80.6806,289.183,80.6806L258.808,80.6806C256.711,80.6806,255.011,79.0075,255.011,76.9437L255.011,54.7295L292.98,54.7295ZM283.206,68.2243C281.193,71.1217,277.808,73.0232,273.972,73.0232C270.136,73.0232,266.751,71.1217,264.738,68.2243L283.206,68.2243ZM265.875,57.2208C262.899,57.2208,260.438,59.3864,260.028,62.2035L263.265,62.2035C263.621,61.1192,264.655,60.335,265.875,60.335C267.095,60.335,268.129,61.1192,268.485,62.2035L271.721,62.2035C271.312,59.3864,268.85,57.2208,265.875,57.2208ZM282.117,57.2208C279.142,57.2208,276.68,59.3864,276.271,62.2035L279.507,62.2035C279.863,61.1192,280.897,60.335,282.117,60.335C283.337,60.335,284.371,61.1192,284.727,62.2035L287.964,62.2035C287.554,59.3864,285.093,57.2208,282.117,57.2208ZM289.183,43.311C291.28,43.311,292.98,44.9841,292.98,47.048L292.98,51.6154L255.011,51.6154L255.011,47.048C255.011,44.9841,256.711,43.311,258.808,43.311L289.183,43.311Z" transform="matrix(1 0 0 1 -1.847 3.288375)" clip-rule="evenodd" fill="rgb(255,255,255)" fill-rule="evenodd" stroke="none" stroke-width="1"/></g></g><g id="ezf0Muk9Qho34" transform="matrix(1 0 0 1 0.000001 0)" opacity="0" filter="url(#ezf0Muk9Qho34-filter)"><path id="ezf0Muk9Qho35" d="M322.72,264.141L351.414,247.575L322.72,231.009L294.038,247.575L322.72,264.141Z" fill="url(#ezf0Muk9Qho35-fill)" stroke="none" stroke-width="1"/><path id="ezf0Muk9Qho36" d="M322.72,479.99L322.72,264.142L294.038,247.576L294.038,461.5L322.72,479.99Z" transform="matrix(1 0 0 1 0 -0.001)" fill="url(#ezf0Muk9Qho36-fill)" stroke="none" stroke-width="1"/><path id="ezf0Muk9Qho37" d="M322.719,479.99L322.719,264.142L351.414,247.576L351.414,465.5L322.719,479.99Z" fill="url(#ezf0Muk9Qho37-fill)" stroke="none" stroke-width="1"/></g></svg>