<svg fill="none" height="160" viewBox="0 0 160 160" width="160" xmlns="http://www.w3.org/2000/svg" xmlns:xlink="http://www.w3.org/1999/xlink"><clipPath id="a"><path d="m0 0h160v160h-160z"/></clipPath><g clip-path="url(#a)"><g fill="#e3e7f2"><path d="m130.673 2.7002-13.331 5.33215-7.998-5.33215-15.9965 5.33215-13.331-5.33215-13.331 5.33215-18.6631-5.33215-7.9977 5.33215-10.6643-5.33215v69.3193h101.3126z"/><path d="m130.673 2.7002v69.3193h-7.999v-66.11928z"/><path d="m42.6902 61.3552h15.9978c1.4718 0 2.6654 1.1936 2.6654 2.6667v7.9976h-21.3286v-7.9976c0-1.4731 1.1936-2.6667 2.6654-2.6667z"/></g><path d="m5.36505 72.0194h149.30295c1.472 0 2.665 1.1936 2.665 2.6667v10.6643c0 1.4719-1.193 2.6655-2.665 2.6655h-149.30295c-1.47308 0-2.66669-1.1936-2.66669-2.6655v-10.6643c0-1.4731 1.19361-2.6667 2.66669-2.6667z" fill="#a4c2f7"/><path d="m5.36505 72.0194h141.30395c1.473 0 2.667 1.1936 2.667 2.6667v10.6643c0 1.4719-1.194 2.6655-2.667 2.6655h-141.30395c-1.47308 0-2.66669-1.1936-2.66669-2.6655v-10.6643c0-1.4731 1.19361-2.6667 2.66669-2.6667z" fill="#e3e7f2"/><path d="m18.696 72.0194h122.641v15.9965h-122.641z" fill="#e3e7f2"/><path d="m37.358 6.69962-7.9976-3.99942v69.3193h7.9976z" fill="#fff"/><path d="m5.36505 88.0159h7.99885c-1.4731 0-2.6667-1.1936-2.6667-2.6655v-10.6643c0-1.4731 1.1936-2.6667 2.6667-2.6667h-7.99885c-1.47308 0-2.66669 1.1936-2.66669 2.6667v10.6643c0 1.4719 1.19361 2.6655 2.66669 2.6655z" fill="#fff"/><path d="m154.668 90.6826h-149.30288c-2.94496 0-5.332161-2.3872-5.332161-5.3321v-10.6643c0-2.945 2.387201-5.3322 5.332161-5.3322h149.30288c2.945 0 5.332 2.3872 5.332 5.3322v10.6643c0 2.9449-2.387 5.3321-5.332 5.3321zm-149.30288-15.9964v10.6643h149.30288v-10.6643z" fill="#428dff"/><path d="m18.6961 90.6826c-1.4731 0-2.6667-1.1936-2.6667-2.6667v-15.9964c0-1.4719 1.1936-2.6655 2.6667-2.6655 1.4718 0 2.6654 1.1936 2.6654 2.6655v15.9964c0 1.4731-1.1936 2.6667-2.6654 2.6667z" fill="#428dff"/><path d="m141.337 90.6826c-1.472 0-2.665-1.1936-2.665-2.6667v-15.9964c0-1.4719 1.193-2.6655 2.665-2.6655 1.473 0 2.667 1.1936 2.667 2.6655v15.9964c0 1.4731-1.194 2.6667-2.667 2.6667z" fill="#428dff"/><path d="m26.6938 72.0195v-69.3193h5.3321v69.3193z" fill="#fff"/><g fill="#428dff"><path d="m29.3604 58.6896c-1.473 0-2.6666 1.1936-2.6666 2.6654v10.6643h5.3321v-10.6643c0-1.4718-1.1936-2.6654-2.6655-2.6654z"/><path d="m32.0259 2.70013h-5.3321v37.32637c0 1.4718 1.1936 2.6654 2.6666 2.6654 1.4719 0 2.6655-1.1936 2.6655-2.6654z"/><path d="m26.6938 50.6908c.011.7054.2868 1.3815.7738 1.8929l.3991.3198c.1489.1013.31.1818.4808.2404.1502.0769.3125.1306.4797.1599.1757.0293.3539.0476.5333.0537.7054-.011 1.3816-.2868 1.8929-.7738.2405-.2551.4309-.5541.5602-.8799.4016-.9947.1819-2.1322-.5602-2.9059-.255-.2417-.554-.4309-.8799-.5602-.321-.1367-.6651-.2087-1.013-.2136-.7091-.0061-1.3913.2721-1.8929.7738-.5016.5016-.7811 1.1838-.7738 1.8929z"/><path d="m130.673 74.6861h-101.3126c-1.473 0-2.6666-1.1936-2.6666-2.6667 0-1.4719 1.1936-2.6655 2.6666-2.6655h98.6456v-62.71536l-9.672 3.87126c-.818.3234-1.742.2246-2.472-.2673l-6.913-4.60961-14.7593 4.93061c-.5981.199-1.2486.1806-1.8344-.0537l-12.3387-4.93793-12.3388 4.93793c-.5492.2185-1.157.249-1.7257.0854l-17.4757-4.99404-6.9725 4.64994c-.7957.5248-1.8099.5882-2.6654.1684l-10.6643-5.33215c-1.3181-.65905-1.8527-2.26028-1.1949-3.57837.6579-1.31809 2.2603-1.852649 3.5784-1.194825l9.2803 4.641385 6.7052-4.472962c.6517-.4344814 1.4609-.5601878 2.2127-.344168l17.7856 5.07952 12.4828-4.994088c.6383-.2501929 1.3462-.2501929 1.9845 0l12.4205 4.972128 15.0717-5.025828c.781-.2599565 1.638-.1440134 2.322.312436l6.831 4.553512 12.03-4.798823c.819-.3270815 1.747-.22822472 2.479.264838.731.493063 1.171 1.315645 1.176 2.198035v69.31926c0 1.4731-1.193 2.6667-2.666 2.6667z"/><path d="m74.6843 21.3633h-34.6596c-1.4731 0-2.6667-1.1936-2.6667-2.6654 0-1.4731 1.1936-2.6667 2.6667-2.6667h34.6596c1.4719 0 2.6655 1.1936 2.6655 2.6667 0 1.4718-1.1936 2.6654-2.6655 2.6654z"/><path d="m74.6843 32.0276h-34.6596c-1.4731 0-2.6667-1.1936-2.6667-2.6655 0-1.4731 1.1936-2.6667 2.6667-2.6667h34.6596c1.4719 0 2.6655 1.1936 2.6655 2.6667 0 1.4719-1.1936 2.6655-2.6655 2.6655z"/><path d="m120.008 21.3633h-34.6594c-1.4731 0-2.6667-1.1936-2.6667-2.6654 0-1.4731 1.1936-2.6667 2.6667-2.6667h34.6594c1.472 0 2.666 1.1936 2.666 2.6667 0 1.4718-1.194 2.6654-2.666 2.6654z"/><path d="m120.008 32.0276h-34.6594c-1.4731 0-2.6667-1.1936-2.6667-2.6655 0-1.4731 1.1936-2.6667 2.6667-2.6667h34.6594c1.472 0 2.666 1.1936 2.666 2.6667 0 1.4719-1.194 2.6655-2.666 2.6655z"/><path d="m120.008 42.6919h-79.9833c-1.4731 0-2.6667-1.1936-2.6667-2.6655 0-1.4731 1.1936-2.6667 2.6667-2.6667h79.9833c1.472 0 2.666 1.1936 2.666 2.6667 0 1.4719-1.194 2.6655-2.666 2.6655z"/><path d="m120.008 53.3575h-79.9833c-1.4731 0-2.6667-1.1948-2.6667-2.6667 0-1.4731 1.1936-2.6667 2.6667-2.6667h79.9833c1.472 0 2.666 1.1936 2.666 2.6667 0 1.4719-1.194 2.6667-2.666 2.6667z"/><path d="m120.008 64.0217h-47.9904c-1.4719 0-2.6655-1.1936-2.6655-2.6667 0-1.4718 1.1936-2.6654 2.6655-2.6654h47.9904c1.472 0 2.666 1.1936 2.666 2.6654 0 1.4731-1.194 2.6667-2.666 2.6667z"/><path d="m61.3533 74.686h-21.3286c-1.4731 0-2.6667-1.1936-2.6667-2.6667v-7.9976c0-2.9449 2.3872-5.3321 5.3321-5.3321h15.9977c2.945 0 5.3322 2.3872 5.3322 5.3321v7.9976c0 1.4731-1.1936 2.6667-2.6667 2.6667zm-18.6632-5.3321h15.9977v-5.3322h-15.9977z"/><path d="m125.34 133.341h-5.332c-2.945 0-5.332-2.388-5.332-5.333v-10.665c0-2.945 2.387-5.332 5.332-5.332h5.332c2.945 0 5.333 2.387 5.333 5.332v10.665c0 2.945-2.388 5.333-5.333 5.333zm-5.332-15.998v10.665h5.332v-10.665z"/><path d="m74.6845 133.341c-1.4731 0-2.6667-1.195-2.6667-2.667v-15.996c0-1.473 1.1936-2.667 2.6667-2.667 1.4718 0 2.6654 1.194 2.6654 2.667v15.996c0 1.472-1.1936 2.667-2.6654 2.667z"/><path d="m64.0201 133.341c-1.4731 0-2.6667-1.195-2.6667-2.667v-15.996c0-1.473 1.1936-2.667 2.6667-2.667 1.4719 0 2.6655 1.194 2.6655 2.667v15.996c0 1.472-1.1936 2.667-2.6655 2.667z"/><path d="m85.3486 133.341c-1.4731 0-2.6667-1.195-2.6667-2.667v-15.996c0-1.473 1.1936-2.667 2.6667-2.667 1.4719 0 2.6655 1.194 2.6655 2.667v15.996c0 1.472-1.1936 2.667-2.6655 2.667z"/><path d="m32.0259 133.341c-1.4719 0-2.6655-1.195-2.6655-2.667v-15.996c0-1.473 1.1936-2.667 2.6655-2.667 1.473 0 2.6666 1.194 2.6666 2.667v15.996c0 1.472-1.1936 2.667-2.6666 2.667z"/><path d="m32.0259 133.341c-1.4719 0-2.6655-1.195-2.6655-2.667v-15.996c0-1.473 1.1936-2.667 2.6655-2.667 1.473 0 2.6666 1.194 2.6666 2.667v15.996c0 1.472-1.1936 2.667-2.6666 2.667z"/><path d="m50.6892 133.341h-5.3322c-2.9449 0-5.3321-2.388-5.3321-5.333v-10.665c0-2.945 2.3872-5.332 5.3321-5.332h5.3322c2.9449 0 5.3321 2.387 5.3321 5.332v10.665c0 2.945-2.3872 5.333-5.3321 5.333zm-5.3322-15.998v10.665h5.3322v-10.665z"/><path d="m104.012 133.341h-5.3324c-2.9449 0-5.3321-2.388-5.3321-5.333v-10.665c0-2.945 2.3872-5.332 5.3321-5.332h5.3324c2.945 0 5.332 2.387 5.332 5.332v10.665c0 2.945-2.387 5.333-5.332 5.333zm-5.3324-15.998v10.665h5.3324v-10.665z"/><path d="m40.0247 106.679h-5.3322c-2.9449 0-5.3321-2.387-5.3321-5.332v-13.3311c0-1.4719 1.1936-2.6655 2.6655-2.6655 1.473 0 2.6666 1.1936 2.6666 2.6655v13.3311h5.3322v-13.3311c0-1.4719 1.1936-2.6655 2.6655-2.6655 1.473 0 2.6667 1.1936 2.6667 2.6655v13.3311c0 2.945-2.3873 5.332-5.3322 5.332z"/><path d="m85.3486 106.679c-1.4731 0-2.6667-1.194-2.6667-2.665v-15.9981c0-1.4719 1.1936-2.6655 2.6667-2.6655 1.4719 0 2.6655 1.1936 2.6655 2.6655v15.9981c0 1.471-1.1936 2.665-2.6655 2.665z"/><path d="m96.0129 106.679c-1.4718 0-2.6654-1.194-2.6654-2.665v-15.9981c0-1.4719 1.1936-2.6655 2.6654-2.6655 1.4731 0 2.6667 1.1936 2.6667 2.6655v15.9981c0 1.471-1.1936 2.665-2.6667 2.665z"/><path d="m74.6845 106.679c-1.4731 0-2.6667-1.194-2.6667-2.665v-15.9981c0-1.4719 1.1936-2.6655 2.6667-2.6655 1.4718 0 2.6654 1.1936 2.6654 2.6655v15.9981c0 1.471-1.1936 2.665-2.6654 2.665z"/><path d="m128.006 106.679c-1.472 0-2.665-1.194-2.665-2.665v-15.9981c0-1.4719 1.193-2.6655 2.665-2.6655 1.473 0 2.667 1.1936 2.667 2.6655v15.9981c0 1.471-1.194 2.665-2.667 2.665z"/><path d="m128.006 106.679c-1.472 0-2.665-1.194-2.665-2.665v-15.9981c0-1.4719 1.193-2.6655 2.665-2.6655 1.473 0 2.667 1.1936 2.667 2.6655v15.9981c0 1.471-1.194 2.665-2.667 2.665z"/><path d="m114.676 106.679h-5.332c-2.945 0-5.332-2.387-5.332-5.332v-13.3311c0-1.4719 1.194-2.6655 2.665-2.6655 1.473 0 2.667 1.1936 2.667 2.6655v13.3311h5.332v-13.3311c0-1.4719 1.194-2.6655 2.666-2.6655 1.473 0 2.666 1.1936 2.666 2.6655v13.3311c0 2.945-2.387 5.332-5.332 5.332z"/><path d="m61.3533 106.679h-5.3321c-2.945 0-5.3322-2.387-5.3322-5.332v-13.3311c0-1.4719 1.1936-2.6655 2.6667-2.6655 1.4719 0 2.6655 1.1936 2.6655 2.6655v13.3311h5.3321v-13.3311c0-1.4719 1.1936-2.6655 2.6667-2.6655 1.4719 0 2.6655 1.1936 2.6655 2.6655v13.3311c0 2.945-2.3872 5.332-5.3322 5.332z"/><path d="m40.0247 160.002h-5.3322c-2.9449 0-5.3321-2.387-5.3321-5.332v-10.665c0-2.945 2.3872-5.332 5.3321-5.332h5.3322c2.9449 0 5.3322 2.387 5.3322 5.332v10.665c0 2.945-2.3873 5.332-5.3322 5.332zm-5.3322-15.997v10.665h5.3322v-10.665z"/><path d="m96.0129 160.002c-1.4718 0-2.6654-1.194-2.6654-2.667v-15.996c0-1.472 1.1936-2.666 2.6654-2.666 1.4731 0 2.6667 1.194 2.6667 2.666v15.996c0 1.473-1.1936 2.667-2.6667 2.667z"/><path d="m64.0201 160.002c-1.4731 0-2.6667-1.194-2.6667-2.667v-15.996c0-1.472 1.1936-2.666 2.6667-2.666 1.4719 0 2.6655 1.194 2.6655 2.666v15.996c0 1.473-1.1936 2.667-2.6655 2.667z"/><path d="m53.3557 160.002c-1.4731 0-2.6667-1.194-2.6667-2.667v-15.996c0-1.472 1.1936-2.666 2.6667-2.666 1.4719 0 2.6655 1.194 2.6655 2.666v15.996c0 1.473-1.1936 2.667-2.6655 2.667z"/><path d="m128.006 160.002c-1.472 0-2.665-1.194-2.665-2.667v-15.996c0-1.472 1.193-2.666 2.665-2.666 1.473 0 2.667 1.194 2.667 2.666v15.996c0 1.473-1.194 2.667-2.667 2.667z"/><path d="m128.006 160.002c-1.472 0-2.665-1.194-2.665-2.667v-15.996c0-1.472 1.193-2.666 2.665-2.666 1.473 0 2.667 1.194 2.667 2.666v15.996c0 1.473-1.194 2.667-2.667 2.667z"/><path d="m114.676 160.002h-5.332c-2.945 0-5.332-2.387-5.332-5.332v-10.665c0-2.945 2.387-5.332 5.332-5.332h5.332c2.945 0 5.332 2.387 5.332 5.332v10.665c0 2.945-2.387 5.332-5.332 5.332zm-5.332-15.997v10.665h5.332v-10.665z"/><path d="m82.6821 160.002h-5.3322c-2.9449 0-5.3321-2.387-5.3321-5.332v-10.665c0-2.945 2.3872-5.332 5.3321-5.332h5.3322c2.9449 0 5.3321 2.387 5.3321 5.332v10.665c0 2.945-2.3872 5.332-5.3321 5.332zm-5.3322-15.997v10.665h5.3322v-10.665z"/><path d="m149.336 157.335c-1.473 0-2.667-1.193-2.667-2.665v-15.997c0-1.473 1.194-2.666 2.667-2.666 1.472 0 2.665 1.193 2.665 2.666v15.997c0 1.472-1.193 2.665-2.665 2.665z"/><path d="m149.336 160.002c-.708 0-1.385-.282-1.886-.781l-7.997-7.999c-1.011-1.046-.996-2.71.031-3.737 1.029-1.029 2.691-1.044 3.738-.033l6.114 6.113 6.113-6.113c1.046-1.011 2.709-.996 3.737.033 1.029 1.027 1.043 2.691.033 3.737l-7.999 7.999c-.499.499-1.178.781-1.884.781z"/><path d="m149.336 130.674c-1.473 0-2.667-1.193-2.667-2.666v-5.332c0-1.472 1.194-2.666 2.667-2.666 1.472 0 2.665 1.194 2.665 2.666v5.332c0 1.473-1.193 2.666-2.665 2.666z"/><path d="m149.336 114.678c-1.473 0-2.667-1.194-2.667-2.667v-5.332c0-1.472 1.194-2.665 2.667-2.665 1.472 0 2.665 1.193 2.665 2.665v5.332c0 1.473-1.193 2.667-2.665 2.667z"/><path d="m10.6971 157.335c-1.47185 0-2.66667-1.193-2.66667-2.665v-15.997c0-1.473 1.19482-2.666 2.66667-2.666 1.4731 0 2.6667 1.193 2.6667 2.666v15.997c0 1.472-1.1936 2.665-2.6667 2.665z"/><path d="m10.6972 160.002c-.70659 0-1.38517-.282-1.88433-.781l-7.998848-7.999c-.693218-.669-.971481-1.661-.7273902-2.592.2440902-.933.9726982-1.661 1.9039082-1.904.93242-.244 1.92343.033 2.59346.726l6.1132 6.113 6.1133-6.113c1.0459-1.011 2.7094-.996 3.737.033 1.0289 1.027 1.0435 2.691.033 3.737l-7.9989 7.999c-.4991.499-1.1777.781-1.8844.781z"/><path d="m10.6971 130.674c-1.47185 0-2.66667-1.193-2.66667-2.666v-5.332c0-1.472 1.19482-2.666 2.66667-2.666 1.4731 0 2.6667 1.194 2.6667 2.666v5.332c0 1.473-1.1936 2.666-2.6667 2.666z"/><path d="m10.6971 114.678c-1.47185 0-2.66667-1.194-2.66667-2.667v-5.332c0-1.472 1.19482-2.665 2.66667-2.665 1.4731 0 2.6667 1.193 2.6667 2.665v5.332c0 1.473-1.1936 2.667-2.6667 2.667z"/></g></g></svg>