<svg fill="none" height="160" viewBox="0 0 160 160" width="160" xmlns="http://www.w3.org/2000/svg" xmlns:xlink="http://www.w3.org/1999/xlink"><linearGradient id="a" gradientUnits="userSpaceOnUse" x1="16.0271" x2="82.1728" y1="-.026276" y2="154.393"><stop offset="0" stop-color="#d3dff2"/><stop offset=".172" stop-color="#d3dff2"/><stop offset=".2" stop-color="#dae2f2"/><stop offset=".201" stop-color="#f6eff2"/><stop offset=".202" stop-color="#fdf2f2"/><stop offset=".205" stop-color="#fff"/><stop offset=".2519" stop-color="#fff"/><stop offset=".252" stop-color="#fff3f2"/><stop offset=".26" stop-color="#d3dff2"/><stop offset=".397" stop-color="#d3dff2"/><stop offset=".42" stop-color="#dae2f2"/><stop offset=".421" stop-color="#f6eff2"/><stop offset=".422" stop-color="#fdf2f2"/><stop offset=".425" stop-color="#fff"/><stop offset=".46875" stop-color="#fff"/><stop offset=".489" stop-color="#fff"/><stop offset=".5" stop-color="#d5e0f2"/><stop offset=".501" stop-color="#d3dff2"/><stop offset=".706" stop-color="#d3dff2"/><stop offset=".74" stop-color="#d3dff2"/><stop offset=".741" stop-color="#fff"/><stop offset=".835" stop-color="#fff"/><stop offset=".85" stop-color="#fff"/><stop offset=".851" stop-color="#d3dff2"/></linearGradient><path d="m157.333 8.00049v5.33321h-154.66576v-5.33321c.00854-2.9419 2.39135-5.32471 5.33325-5.33325h143.99951c2.941.00854 5.324 2.39135 5.333 5.33325z" fill="#a4c2f7"/><path d="m149.333 8.00049v5.33321h-146.66576v-5.33321c.00854-2.9419 2.39135-5.32471 5.33325-5.33325h135.99951c2.942.00854 5.325 2.39135 5.333 5.33325z" fill="#e3e7f2"/><path d="m149.333 13.3337h-146.66576v101.2273h154.66576v-101.2273z" fill="url(#a)"/><path d="m157.333 114.561v10.772c-.009 2.942-2.392 5.325-5.333 5.334h-143.99951c-2.9419-.009-5.32471-2.392-5.33325-5.334v-10.772z" fill="#a4c2f7"/><path d="m149.333 114.561v10.772c-.008 2.942-2.391 5.325-5.333 5.334h-135.99951c-2.9419-.009-5.32471-2.392-5.33325-5.334v-10.772z" fill="#e3e7f2"/><path d="m114.667 157.333h-69.3337v-5.248c0-2.963 2.4023-5.365 5.3649-5.365h58.6348c2.946 0 5.334 2.388 5.334 5.333z" fill="#e3e7f2"/><path d="m93.3337 130.667h-29.3335v2.152c0 3.813-1.1279 7.541-3.2434 10.715l-2.0898 3.132h42.666l-2.3437-2.343c-3.6219-3.622-5.6556-8.534-5.6556-13.656z" fill="#a4c2f7"/><path d="m152 160h-18.666c-1.474 0-2.667-1.194-2.667-2.667v-1.333c0-6.627 5.372-12 12-12 6.627 0 12 5.373 12 12v1.333c0 1.473-1.194 2.667-2.667 2.667z" fill="#a4c2f7"/><g fill="#fff"><path d="m8.00049 130.667h7.99931c-2.9419-.009-5.3248-2.392-5.3333-5.334v-117.33251c.0085-2.9419 2.3914-5.32471 5.3333-5.33325h-7.99931c-2.9419.00854-5.32471 2.39135-5.33325 5.33325v117.33251c.00854 2.942 2.39135 5.325 5.33325 5.334z"/><path d="m60.7568 143.534-2.0898 3.132h7.9993l2.091-3.132c2.1143-3.174 3.2434-6.902 3.2422-10.715v-2.152h-7.9993v2.152c0 3.813-1.1279 7.541-3.2434 10.715z"/><path d="m45.3333 152.085v5.248h8.0004v-5.248c0-2.963 2.4024-5.365 5.365-5.365h-8.0005c-2.9626 0-5.3649 2.402-5.3649 5.365z"/></g><path d="m152 133.334h-143.99951c-4.41895 0-8.00049-3.582-8.00049-8.001v-10.772c0-1.474 1.19385-2.668 2.66724-2.668h154.66576c1.473 0 2.667 1.194 2.667 2.668v10.772c0 4.419-3.582 8.001-8 8.001zm-146.66675-16.107v8.106c0 1.474 1.19385 2.667 2.66724 2.667h143.99951c1.473 0 2.667-1.193 2.667-2.667v-8.106z" fill="#428dff"/><path d="m114.667 160h-69.3337c-1.4722 0-2.6661-1.194-2.6661-2.667v-5.248c.0037-4.434 3.5974-8.027 8.031-8.032h58.6348c4.415.009 7.991 3.586 8 8v5.28c0 1.473-1.194 2.667-2.666 2.667zm-66.6665-5.333h63.9995v-2.609c0-1.472-1.194-2.666-2.667-2.666h-58.6348c-1.4868.001-2.694 1.206-2.6977 2.693z" fill="#428dff"/><path d="m5.33325 8.00049v106.56051h-5.33325v-106.56051z" fill="#fff"/><g fill="#428dff"><path d="m2.66724 21.333c1.47216 0 2.66601-1.1938 2.66601-2.666v-10.66651h-5.33325v10.66651c0 1.4722 1.19385 2.666 2.66724 2.666z"/><path d="m0 114.561h5.33325v-74.561c0-1.4722-1.19385-2.6672-2.66601-2.6672-1.47339 0-2.66724 1.195-2.66724 2.6672z"/><path d="m5.33325 29.3335c-.00976-.7056-.28686-1.3818-.7727-1.8933l-.40039-.3198c-.14893-.1014-.31006-.1819-.47974-.2405-.15137-.0769-.31372-.1306-.48096-.1599-.17578-.0293-.354-.0476-.53222-.0537-.70679.0109-1.38306.2868-1.893312.7739-.2417.2551-.432129.553-.560303.8801-.402832.9949-.1831055 2.1326.560303 2.9065.253902.2405.552982.4309.878902.5603.32105.1367.66529.2087 1.01441.2124.70556-.0098 1.38183-.2856 1.89331-.7727.48584-.5115.76294-1.1877.7727-1.8933z"/><path d="m157.333 117.227h-154.66576c-1.47339 0-2.66724-1.194-2.66724-2.666 0-1.474 1.19385-2.668 2.66724-2.668h151.99976v-103.89251c0-1.47339-1.194-2.66724-2.667-2.66724h-143.99951c-1.47339 0-2.66724 1.19385-2.66724 2.66724 0 1.47217-1.19385 2.66601-2.66601 2.66601-1.47339 0-2.66724-1.19384-2.66724-2.66601 0-4.41895 3.58154-8.00049 8.00049-8.00049h143.99951c4.418 0 8 3.58154 8 8.00049v106.56051c0 1.472-1.194 2.666-2.667 2.666z"/><path d="m101.333 149.333h-42.666c-.9839 0-1.8884-.541-2.3523-1.408-.4638-.868-.4126-1.92.1331-2.738l2.0886-3.134c1.8274-2.732 2.8015-5.947 2.7966-9.234v-2.152c0-1.473 1.1939-2.667 2.6673-2.667h29.3335c1.4722 0 2.666 1.194 2.666 2.667-.0122 4.417 1.7432 8.656 4.8752 11.771l2.344 2.343c.762.763.99 1.91.577 2.906-.412.996-1.384 1.646-2.463 1.646zm-37.7221-5.333h31.5576c-2.3816-3.1-3.8806-6.786-4.342-10.666h-24.1602c-.0867 3.758-1.1389 7.431-3.0554 10.666z"/><path d="m157.333 15.9998h-154.66576c-1.47339 0-2.66724-1.1939-2.66724-2.6661 0-1.4733 1.19385-2.6672 2.66724-2.6672h154.66576c1.473 0 2.667 1.1939 2.667 2.6672 0 1.4722-1.194 2.6661-2.667 2.6661z"/><path d="m152 160h-18.666c-1.474 0-2.667-1.194-2.667-2.667v-1.333c0-6.627 5.372-12 12-12 6.627 0 12 5.373 12 12v1.333c0 1.473-1.194 2.667-2.667 2.667zm-15.867-5.333h13.067c-.631-3.107-3.363-5.341-6.533-5.341-3.171 0-5.903 2.234-6.534 5.341z"/><path d="m133.334 154.667c-5.891 0-10.667-4.776-10.667-10.667v-13.333c0-1.473 1.194-2.667 2.666-2.667 1.474 0 2.667 1.194 2.667 2.667v13.333c0 2.946 2.388 5.333 5.334 5.333 1.472 0 2.666 1.194 2.666 2.667s-1.194 2.667-2.666 2.667z"/></g><path d="m97.1893 48.8542 6.1647 12.1499-4.6952 19.8914-11.1464-9.1034 1.9712-14.5871z" fill="#fff"/><path d="m80.7385 44.7684c-1.2903 0-2.3296-1.0394-2.3296-2.3296v-18.3144c0-1.2903 1.0393-2.3297 2.3296-2.3297 1.2902 0 2.3296 1.0394 2.3296 2.3297v18.3144c-.0358 1.2902-1.0752 2.3296-2.3296 2.3296z" fill="#428dff"/><path d="m84.4661 44.7684h-7.2039c-1.2903-.0359-2.2938-1.0752-2.2938-2.3655.0358-1.2544 1.0394-2.2579 2.2938-2.2938h7.2039c1.2902.0359 2.2937 1.0752 2.2937 2.3655-.0358 1.2902-1.0752 2.2938-2.2937 2.2938z" fill="#428dff"/><path d="m97.1893 48.8542 7.6337-7.2039c-5.8417-5.842-13.9416-9.4619-22.83-9.4619-17.8485 0-32.328 14.4795-32.328 32.328s14.4795 32.328 32.328 32.328c6.6663 0 12.5083 2.4371 17.6335-1.0035l6.3795.896-.179-10.3937-18.3146-14.5153 3.9425-18.5295z" fill="#fff"/><path d="m81.993 99.9984c-19.5688 0-35.482-15.9132-35.482-35.482s15.9132-35.4819 35.482-35.4819c9.4618 0 18.386 3.6915 25.088 10.3937l2.294 2.2938-10.0353 9.426-4.3367-4.6234 5.125-4.8385c-5.125-4.1216-11.4687-6.3437-18.1709-6.3437-16.0564 0-29.1382 13.0817-29.1382 29.1382 0 16.0564 13.0818 29.1382 29.1382 29.1382" fill="#428dff"/><path d="m99.8057 81.7556-4.5518-4.4083c3.369-3.4765 5.1971-8.0283 5.1971-12.8309 0-5.0176-1.9714-9.7485-5.5913-13.2251l-2.3655-2.3296 2.5447-2.4013 2.1863 2.2938 2.0787-2.1504c4.8381 4.6951 7.5261 11.0388 7.5261 17.7768-.035 6.4871-2.508 12.6158-7.0243 17.275z" fill="#a4c2f7"/><path d="m74.7174 64.5164c0-4.0141 3.2614-7.3114 7.3114-7.3114 4.0141 0 7.3114 3.2615 7.3114 7.3114 0 4.0142-3.2614 7.3115-7.3114 7.3115-4.05-.0359-7.3114-3.2973-7.3114-7.3115z" fill="#eff4ee"/><path d="m81.9931 60.3948c-2.2579 0-4.1216 1.8637-4.1216 4.1217 0 2.2579 1.8637 4.1216 4.1216 4.1216s4.1216-1.8637 4.1216-4.1216c0-2.2938-1.8278-4.1217-4.1216-4.1217zm0 14.587c-5.7703 0-10.4654-4.695-10.4654-10.4653s4.6951-10.4654 10.4654-10.4654 10.4654 4.6951 10.4654 10.4654-4.6951 10.4653-10.4654 10.4653zm22.8659-33.3315-18.4576 17.06z" fill="#428dff"/><path d="m102.709 39.3206 4.301 4.6593-18.4582 17.06-4.3009-4.6593z" fill="#428dff"/><path d="m85.4338 70.9319 13.2609 9.9636 7.1683 5.376v13.691l-14.3722-.6809" fill="#fff"/><path d="m109.017 99.9983h-27.5974v-6.3437h21.2534v-5.7703l-19.1388-14.4078 3.7991-5.0535 21.6837 16.3074z" fill="#428dff"/><path d="m69.6998 51.1838c-1.2903 0-2.3297-1.0394-2.3297-2.3296v-24.7299c.0359-1.2902 1.0753-2.2937 2.3655-2.2937 1.2544.0358 2.2579 1.0393 2.2938 2.2937v24.7299c0 1.2902-1.0394 2.3296-2.3296 2.3296z" fill="#428dff"/></svg>