<svg width="160" height="160" viewBox="0 0 160 160" fill="none" xmlns="http://www.w3.org/2000/svg">
<g clip-path="url(#clip0)">
<path d="M130.673 2.7002L117.342 8.03235L109.344 2.7002L93.3475 8.03235L80.0165 2.7002L66.6855 8.03235L48.0224 2.7002L40.0247 8.03235L29.3604 2.7002V72.0195H130.673V2.7002Z" fill="#E3E7F2"/>
<path d="M130.673 2.7002V72.0195H122.674V5.90022L130.673 2.7002Z" fill="#E3E7F2"/>
<path d="M42.6902 61.3552H58.688C60.1598 61.3552 61.3534 62.5488 61.3534 64.0219V72.0195H40.0248V64.0219C40.0248 62.5488 41.2184 61.3552 42.6902 61.3552Z" fill="#E3E7F2"/>
<path d="M5.36505 72.0194H154.668C156.14 72.0194 157.333 73.213 157.333 74.6861V85.3504C157.333 86.8223 156.14 88.0159 154.668 88.0159H5.36505C3.89197 88.0159 2.69836 86.8223 2.69836 85.3504V74.6861C2.69836 73.213 3.89197 72.0194 5.36505 72.0194Z" fill="#A4C2F7"/>
<path d="M5.36505 72.0194H146.669C148.142 72.0194 149.336 73.213 149.336 74.6861V85.3504C149.336 86.8223 148.142 88.0159 146.669 88.0159H5.36505C3.89197 88.0159 2.69836 86.8223 2.69836 85.3504V74.6861C2.69836 73.213 3.89197 72.0194 5.36505 72.0194Z" fill="#E3E7F2"/>
<path d="M18.696 72.0194H141.337V88.0159H18.696V72.0194Z" fill="#E3E7F2"/>
<path d="M37.358 6.69962L29.3604 2.7002V72.0195H37.358V6.69962Z" fill="white"/>
<path d="M5.36505 88.0159H13.3639C11.8908 88.0159 10.6972 86.8223 10.6972 85.3504V74.6861C10.6972 73.213 11.8908 72.0194 13.3639 72.0194H5.36505C3.89197 72.0194 2.69836 73.213 2.69836 74.6861V85.3504C2.69836 86.8223 3.89197 88.0159 5.36505 88.0159Z" fill="white"/>
<path d="M154.668 90.6826H5.36512C2.42016 90.6826 0.032959 88.2954 0.032959 85.3505V74.6862C0.032959 71.7412 2.42016 69.354 5.36512 69.354H154.668C157.613 69.354 160 71.7412 160 74.6862V85.3505C160 88.2954 157.613 90.6826 154.668 90.6826ZM5.36512 74.6862V85.3505H154.668V74.6862H5.36512Z" fill="#428DFF"/>
<path d="M18.6961 90.6826C17.223 90.6826 16.0294 89.489 16.0294 88.0159V72.0195C16.0294 70.5476 17.223 69.354 18.6961 69.354C20.1679 69.354 21.3615 70.5476 21.3615 72.0195V88.0159C21.3615 89.489 20.1679 90.6826 18.6961 90.6826Z" fill="#428DFF"/>
<path d="M141.337 90.6826C139.865 90.6826 138.672 89.489 138.672 88.0159V72.0195C138.672 70.5476 139.865 69.354 141.337 69.354C142.81 69.354 144.004 70.5476 144.004 72.0195V88.0159C144.004 89.489 142.81 90.6826 141.337 90.6826Z" fill="#428DFF"/>
<path d="M26.6938 72.0195V2.7002H32.0259V72.0195H26.6938Z" fill="white"/>
<path d="M29.3604 58.6896C27.8874 58.6896 26.6938 59.8832 26.6938 61.355V72.0193H32.0259V61.355C32.0259 59.8832 30.8323 58.6896 29.3604 58.6896Z" fill="#428DFF"/>
<path d="M32.0259 2.70013H26.6938V40.0265C26.6938 41.4983 27.8874 42.6919 29.3604 42.6919C30.8323 42.6919 32.0259 41.4983 32.0259 40.0265V2.70013Z" fill="#428DFF"/>
<path d="M26.6938 50.6908C26.7048 51.3962 26.9806 52.0723 27.4676 52.5837L27.8667 52.9035C28.0156 53.0048 28.1767 53.0853 28.3475 53.1439C28.4977 53.2208 28.66 53.2745 28.8272 53.3038C29.0029 53.3331 29.1811 53.3514 29.3605 53.3575C30.0659 53.3465 30.7421 53.0707 31.2534 52.5837C31.4939 52.3286 31.6843 52.0296 31.8136 51.7038C32.2152 50.7091 31.9955 49.5716 31.2534 48.7979C30.9984 48.5562 30.6994 48.367 30.3735 48.2377C30.0525 48.101 29.7084 48.029 29.3605 48.0241C28.6514 48.018 27.9692 48.2962 27.4676 48.7979C26.966 49.2995 26.6865 49.9817 26.6938 50.6908Z" fill="#428DFF"/>
<path d="M130.673 74.6861H29.3604C27.8874 74.6861 26.6938 73.4925 26.6938 72.0194C26.6938 70.5475 27.8874 69.3539 29.3604 69.3539H128.006V6.63854L118.334 10.5098C117.516 10.8332 116.592 10.7344 115.862 10.2425L108.949 5.63289L94.1897 10.5635C93.5916 10.7625 92.9411 10.7441 92.3553 10.5098L80.0166 5.57187L67.6778 10.5098C67.1286 10.7283 66.5208 10.7588 65.9521 10.5952L48.4764 5.60116L41.5039 10.2511C40.7082 10.7759 39.694 10.8393 38.8385 10.4195L28.1742 5.08735C26.8561 4.4283 26.3215 2.82707 26.9793 1.50898C27.6372 0.19089 29.2396 -0.343669 30.5577 0.314155L39.838 4.95554L46.5432 0.482578C47.1949 0.0480966 48.0041 -0.0776098 48.7559 0.13841L66.5415 5.21793L79.0243 0.223842C79.6626 -0.0263509 80.3705 -0.0263509 81.0088 0.223842L93.4293 5.19597L108.501 0.170142C109.282 -0.0898145 110.139 0.0261286 110.823 0.482578L117.654 5.03609L129.684 0.237267C130.503 -0.0898145 131.431 0.00904228 132.163 0.502105C132.894 0.995168 133.334 1.81775 133.339 2.70014V72.0194C133.339 73.4925 132.146 74.6861 130.673 74.6861Z" fill="#428DFF"/>
<path d="M74.6843 21.3633H40.0247C38.5516 21.3633 37.358 20.1697 37.358 18.6979C37.358 17.2248 38.5516 16.0312 40.0247 16.0312H74.6843C76.1562 16.0312 77.3498 17.2248 77.3498 18.6979C77.3498 20.1697 76.1562 21.3633 74.6843 21.3633Z" fill="#428DFF"/>
<path d="M74.6843 32.0276H40.0247C38.5516 32.0276 37.358 30.834 37.358 29.3621C37.358 27.889 38.5516 26.6954 40.0247 26.6954H74.6843C76.1562 26.6954 77.3498 27.889 77.3498 29.3621C77.3498 30.834 76.1562 32.0276 74.6843 32.0276Z" fill="#428DFF"/>
<path d="M120.008 21.3633H85.3486C83.8755 21.3633 82.6819 20.1697 82.6819 18.6979C82.6819 17.2248 83.8755 16.0312 85.3486 16.0312H120.008C121.48 16.0312 122.674 17.2248 122.674 18.6979C122.674 20.1697 121.48 21.3633 120.008 21.3633Z" fill="#428DFF"/>
<path d="M120.008 32.0276H85.3486C83.8755 32.0276 82.6819 30.834 82.6819 29.3621C82.6819 27.889 83.8755 26.6954 85.3486 26.6954H120.008C121.48 26.6954 122.674 27.889 122.674 29.3621C122.674 30.834 121.48 32.0276 120.008 32.0276Z" fill="#428DFF"/>
<path d="M120.008 42.6919H40.0247C38.5516 42.6919 37.358 41.4983 37.358 40.0264C37.358 38.5533 38.5516 37.3597 40.0247 37.3597H120.008C121.48 37.3597 122.674 38.5533 122.674 40.0264C122.674 41.4983 121.48 42.6919 120.008 42.6919Z" fill="#428DFF"/>
<path d="M120.008 53.3575H40.0247C38.5516 53.3575 37.358 52.1627 37.358 50.6908C37.358 49.2177 38.5516 48.0241 40.0247 48.0241H120.008C121.48 48.0241 122.674 49.2177 122.674 50.6908C122.674 52.1627 121.48 53.3575 120.008 53.3575Z" fill="#428DFF"/>
<path d="M120.008 64.0217H72.0176C70.5457 64.0217 69.3521 62.8281 69.3521 61.355C69.3521 59.8832 70.5457 58.6896 72.0176 58.6896H120.008C121.48 58.6896 122.674 59.8832 122.674 61.355C122.674 62.8281 121.48 64.0217 120.008 64.0217Z" fill="#428DFF"/>
<path d="M61.3533 74.686H40.0247C38.5516 74.686 37.358 73.4924 37.358 72.0193V64.0217C37.358 61.0768 39.7452 58.6896 42.6901 58.6896H58.6878C61.6328 58.6896 64.02 61.0768 64.02 64.0217V72.0193C64.02 73.4924 62.8264 74.686 61.3533 74.686ZM42.6901 69.3539H58.6878V64.0217H42.6901V69.3539Z" fill="#428DFF"/>
<path d="M125.34 133.341H120.008C117.063 133.341 114.676 130.953 114.676 128.008V117.343C114.676 114.398 117.063 112.011 120.008 112.011H125.34C128.285 112.011 130.673 114.398 130.673 117.343V128.008C130.673 130.953 128.285 133.341 125.34 133.341ZM120.008 117.343V128.008H125.34V117.343H120.008Z" fill="#428DFF"/>
<path d="M74.6845 133.341C73.2114 133.341 72.0178 132.146 72.0178 130.674V114.678C72.0178 113.205 73.2114 112.011 74.6845 112.011C76.1563 112.011 77.3499 113.205 77.3499 114.678V130.674C77.3499 132.146 76.1563 133.341 74.6845 133.341Z" fill="#428DFF"/>
<path d="M64.0201 133.341C62.547 133.341 61.3534 132.146 61.3534 130.674V114.678C61.3534 113.205 62.547 112.011 64.0201 112.011C65.492 112.011 66.6856 113.205 66.6856 114.678V130.674C66.6856 132.146 65.492 133.341 64.0201 133.341Z" fill="#428DFF"/>
<path d="M85.3486 133.341C83.8755 133.341 82.6819 132.146 82.6819 130.674V114.678C82.6819 113.205 83.8755 112.011 85.3486 112.011C86.8205 112.011 88.0141 113.205 88.0141 114.678V130.674C88.0141 132.146 86.8205 133.341 85.3486 133.341Z" fill="#428DFF"/>
<path d="M32.0259 133.341C30.554 133.341 29.3604 132.146 29.3604 130.674V114.678C29.3604 113.205 30.554 112.011 32.0259 112.011C33.4989 112.011 34.6925 113.205 34.6925 114.678V130.674C34.6925 132.146 33.4989 133.341 32.0259 133.341Z" fill="#428DFF"/>
<path d="M32.0259 133.341C30.554 133.341 29.3604 132.146 29.3604 130.674V114.678C29.3604 113.205 30.554 112.011 32.0259 112.011C33.4989 112.011 34.6925 113.205 34.6925 114.678V130.674C34.6925 132.146 33.4989 133.341 32.0259 133.341Z" fill="#428DFF"/>
<path d="M50.6892 133.341H45.357C42.4121 133.341 40.0249 130.953 40.0249 128.008V117.343C40.0249 114.398 42.4121 112.011 45.357 112.011H50.6892C53.6341 112.011 56.0213 114.398 56.0213 117.343V128.008C56.0213 130.953 53.6341 133.341 50.6892 133.341ZM45.357 117.343V128.008H50.6892V117.343H45.357Z" fill="#428DFF"/>
<path d="M104.012 133.341H98.6796C95.7347 133.341 93.3475 130.953 93.3475 128.008V117.343C93.3475 114.398 95.7347 112.011 98.6796 112.011H104.012C106.957 112.011 109.344 114.398 109.344 117.343V128.008C109.344 130.953 106.957 133.341 104.012 133.341ZM98.6796 117.343V128.008H104.012V117.343H98.6796Z" fill="#428DFF"/>
<path d="M40.0247 106.679H34.6925C31.7476 106.679 29.3604 104.292 29.3604 101.347V88.0159C29.3604 86.544 30.554 85.3504 32.0259 85.3504C33.4989 85.3504 34.6925 86.544 34.6925 88.0159V101.347H40.0247V88.0159C40.0247 86.544 41.2183 85.3504 42.6902 85.3504C44.1632 85.3504 45.3569 86.544 45.3569 88.0159V101.347C45.3569 104.292 42.9696 106.679 40.0247 106.679Z" fill="#428DFF"/>
<path d="M85.3486 106.679C83.8755 106.679 82.6819 105.485 82.6819 104.014V88.0159C82.6819 86.544 83.8755 85.3504 85.3486 85.3504C86.8205 85.3504 88.0141 86.544 88.0141 88.0159V104.014C88.0141 105.485 86.8205 106.679 85.3486 106.679Z" fill="#428DFF"/>
<path d="M96.0129 106.679C94.5411 106.679 93.3475 105.485 93.3475 104.014V88.0159C93.3475 86.544 94.5411 85.3504 96.0129 85.3504C97.486 85.3504 98.6796 86.544 98.6796 88.0159V104.014C98.6796 105.485 97.486 106.679 96.0129 106.679Z" fill="#428DFF"/>
<path d="M74.6845 106.679C73.2114 106.679 72.0178 105.485 72.0178 104.014V88.0159C72.0178 86.544 73.2114 85.3504 74.6845 85.3504C76.1563 85.3504 77.3499 86.544 77.3499 88.0159V104.014C77.3499 105.485 76.1563 106.679 74.6845 106.679Z" fill="#428DFF"/>
<path d="M128.006 106.679C126.534 106.679 125.341 105.485 125.341 104.014V88.0159C125.341 86.544 126.534 85.3504 128.006 85.3504C129.479 85.3504 130.673 86.544 130.673 88.0159V104.014C130.673 105.485 129.479 106.679 128.006 106.679Z" fill="#428DFF"/>
<path d="M128.006 106.679C126.534 106.679 125.341 105.485 125.341 104.014V88.0159C125.341 86.544 126.534 85.3504 128.006 85.3504C129.479 85.3504 130.673 86.544 130.673 88.0159V104.014C130.673 105.485 129.479 106.679 128.006 106.679Z" fill="#428DFF"/>
<path d="M114.676 106.679H109.344C106.399 106.679 104.012 104.292 104.012 101.347V88.0159C104.012 86.544 105.206 85.3504 106.677 85.3504C108.15 85.3504 109.344 86.544 109.344 88.0159V101.347H114.676V88.0159C114.676 86.544 115.87 85.3504 117.342 85.3504C118.815 85.3504 120.008 86.544 120.008 88.0159V101.347C120.008 104.292 117.621 106.679 114.676 106.679Z" fill="#428DFF"/>
<path d="M61.3533 106.679H56.0212C53.0762 106.679 50.689 104.292 50.689 101.347V88.0159C50.689 86.544 51.8826 85.3504 53.3557 85.3504C54.8276 85.3504 56.0212 86.544 56.0212 88.0159V101.347H61.3533V88.0159C61.3533 86.544 62.5469 85.3504 64.02 85.3504C65.4919 85.3504 66.6855 86.544 66.6855 88.0159V101.347C66.6855 104.292 64.2983 106.679 61.3533 106.679Z" fill="#428DFF"/>
<path d="M40.0247 160.002H34.6925C31.7476 160.002 29.3604 157.615 29.3604 154.67V144.005C29.3604 141.06 31.7476 138.673 34.6925 138.673H40.0247C42.9696 138.673 45.3569 141.06 45.3569 144.005V154.67C45.3569 157.615 42.9696 160.002 40.0247 160.002ZM34.6925 144.005V154.67H40.0247V144.005H34.6925Z" fill="#428DFF"/>
<path d="M96.0129 160.002C94.5411 160.002 93.3475 158.808 93.3475 157.335V141.339C93.3475 139.867 94.5411 138.673 96.0129 138.673C97.486 138.673 98.6796 139.867 98.6796 141.339V157.335C98.6796 158.808 97.486 160.002 96.0129 160.002Z" fill="#428DFF"/>
<path d="M64.0201 160.002C62.547 160.002 61.3534 158.808 61.3534 157.335V141.339C61.3534 139.867 62.547 138.673 64.0201 138.673C65.492 138.673 66.6856 139.867 66.6856 141.339V157.335C66.6856 158.808 65.492 160.002 64.0201 160.002Z" fill="#428DFF"/>
<path d="M53.3557 160.002C51.8826 160.002 50.689 158.808 50.689 157.335V141.339C50.689 139.867 51.8826 138.673 53.3557 138.673C54.8276 138.673 56.0212 139.867 56.0212 141.339V157.335C56.0212 158.808 54.8276 160.002 53.3557 160.002Z" fill="#428DFF"/>
<path d="M128.006 160.002C126.534 160.002 125.341 158.808 125.341 157.335V141.339C125.341 139.867 126.534 138.673 128.006 138.673C129.479 138.673 130.673 139.867 130.673 141.339V157.335C130.673 158.808 129.479 160.002 128.006 160.002Z" fill="#428DFF"/>
<path d="M128.006 160.002C126.534 160.002 125.341 158.808 125.341 157.335V141.339C125.341 139.867 126.534 138.673 128.006 138.673C129.479 138.673 130.673 139.867 130.673 141.339V157.335C130.673 158.808 129.479 160.002 128.006 160.002Z" fill="#428DFF"/>
<path d="M114.676 160.002H109.344C106.399 160.002 104.012 157.615 104.012 154.67V144.005C104.012 141.06 106.399 138.673 109.344 138.673H114.676C117.621 138.673 120.008 141.06 120.008 144.005V154.67C120.008 157.615 117.621 160.002 114.676 160.002ZM109.344 144.005V154.67H114.676V144.005H109.344Z" fill="#428DFF"/>
<path d="M82.6821 160.002H77.3499C74.405 160.002 72.0178 157.615 72.0178 154.67V144.005C72.0178 141.06 74.405 138.673 77.3499 138.673H82.6821C85.627 138.673 88.0142 141.06 88.0142 144.005V154.67C88.0142 157.615 85.627 160.002 82.6821 160.002ZM77.3499 144.005V154.67H82.6821V144.005H77.3499Z" fill="#428DFF"/>
<path d="M149.336 157.335C147.863 157.335 146.669 156.142 146.669 154.67V138.673C146.669 137.2 147.863 136.007 149.336 136.007C150.808 136.007 152.001 137.2 152.001 138.673V154.67C152.001 156.142 150.808 157.335 149.336 157.335Z" fill="#428DFF"/>
<path d="M149.336 160.002C148.628 160.002 147.951 159.72 147.45 159.221L139.453 151.222C138.442 150.176 138.457 148.512 139.484 147.485C140.513 146.456 142.175 146.441 143.222 147.452L149.336 153.565L155.449 147.452C156.495 146.441 158.158 146.456 159.186 147.485C160.215 148.512 160.229 150.176 159.219 151.222L151.22 159.221C150.721 159.72 150.042 160.002 149.336 160.002Z" fill="#428DFF"/>
<path d="M149.336 130.674C147.863 130.674 146.669 129.481 146.669 128.008V122.676C146.669 121.204 147.863 120.01 149.336 120.01C150.808 120.01 152.001 121.204 152.001 122.676V128.008C152.001 129.481 150.808 130.674 149.336 130.674Z" fill="#428DFF"/>
<path d="M149.336 114.678C147.863 114.678 146.669 113.484 146.669 112.011V106.679C146.669 105.207 147.863 104.014 149.336 104.014C150.808 104.014 152.001 105.207 152.001 106.679V112.011C152.001 113.484 150.808 114.678 149.336 114.678Z" fill="#428DFF"/>
<path d="M10.6971 157.335C9.22525 157.335 8.03043 156.142 8.03043 154.67V138.673C8.03043 137.2 9.22525 136.007 10.6971 136.007C12.1702 136.007 13.3638 137.2 13.3638 138.673V154.67C13.3638 156.142 12.1702 157.335 10.6971 157.335Z" fill="#428DFF"/>
<path d="M10.6972 160.002C9.99061 160.002 9.31203 159.72 8.81287 159.221L0.814022 151.222C0.120804 150.553 -0.157459 149.561 0.0866318 148.63C0.330722 147.697 1.05933 146.969 1.99054 146.726C2.92296 146.482 3.91397 146.759 4.584 147.452L10.6972 153.565L16.8105 147.452C17.8564 146.441 19.5199 146.456 20.5475 147.485C21.5764 148.512 21.591 150.176 20.5805 151.222L12.5816 159.221C12.0825 159.72 11.4039 160.002 10.6972 160.002Z" fill="#428DFF"/>
<path d="M10.6971 130.674C9.22525 130.674 8.03043 129.481 8.03043 128.008V122.676C8.03043 121.204 9.22525 120.01 10.6971 120.01C12.1702 120.01 13.3638 121.204 13.3638 122.676V128.008C13.3638 129.481 12.1702 130.674 10.6971 130.674Z" fill="#428DFF"/>
<path d="M10.6971 114.678C9.22525 114.678 8.03043 113.484 8.03043 112.011V106.679C8.03043 105.207 9.22525 104.014 10.6971 104.014C12.1702 104.014 13.3638 105.207 13.3638 106.679V112.011C13.3638 113.484 12.1702 114.678 10.6971 114.678Z" fill="#428DFF"/>
</g>
<defs>
<clipPath id="clip0">
<rect width="160" height="160" fill="white"/>
</clipPath>
</defs>
</svg>
