<svg fill="none" height="160" viewBox="0 0 160 160" width="160" xmlns="http://www.w3.org/2000/svg"><path d="m104.062 90.6665-6.7537-11.2561c-.708-1.1768-2.1923-1.6248-3.4326-1.0339l-53.8134 25.6235z" fill="#a4c2f7"/><path d="m105.582 19.4666-5.626 16.8798c-.7312 2.179-2.7698 3.6487-5.0671 3.6536h-29.6534c-2.2973-.0049-4.3359-1.4746-5.0659-3.6536l-5.6274-16.8798c-.2625-.8045-.1245-1.6858.3711-2.3719.4956-.6848 1.2903-1.0925 2.1362-1.0949h46.0265c.846.0024 1.64.4101 2.135 1.0949.496.6861.634 1.5674.371 2.3719z" fill="#a4c2f7"/><path d="m97.583 19.4666-5.6275 16.8798c-.73 2.179-2.7685 3.6487-5.0659 3.6536h-21.6541c-2.2973-.0049-4.3359-1.4746-5.0659-3.6536l-5.6274-16.8798c-.2625-.8045-.1245-1.6858.3711-2.3719.4956-.6848 1.2903-1.0925 2.1362-1.0949h38.0261c.846.0024 1.6407.4101 2.1363 1.0949.4956.6861.6335 1.5674.3711 2.3719z" fill="#e3e7f2"/><path d="m133.396 117.333v34.667c-.009 2.941-2.391 5.324-5.333 5.333h-48.0007v-40z" fill="#7fabfa"/><path d="m80.0623 117.333v40h-47.9993c-2.9419-.009-5.3247-2.392-5.3333-5.333v-34.667z" fill="#e3e7f2"/><path d="m133.396 109.333v8h-106.6663v-8c.0086-2.941 2.3914-5.324 5.3333-5.333h96c2.942.009 5.324 2.392 5.333 5.333z" fill="#7fabfa"/><path d="m125.396 117.333v34.667c-.009 2.941-2.392 5.324-5.334 5.333h-39.9997v-40z" fill="#e3e7f2"/><path d="m125.396 109.333v8h-98.6663v-8c.0086-2.941 2.3914-5.324 5.3333-5.333h87.999c2.942.009 5.325 2.392 5.334 5.333z" fill="#7fabfa"/><path d="m40.0623 128h26.6674c1.4722 0 2.6661 1.194 2.6661 2.667v13.333c0 1.472-1.1939 2.666-2.6661 2.666h-26.6674c-1.4722 0-2.6661-1.194-2.6661-2.666v-13.333c0-1.473 1.1939-2.667 2.6661-2.667z" fill="#e3e7f2"/><path d="m120.062 117.333-4.84-26.6262c-.128-.7104-.539-1.3391-1.14-1.7419-.599-.4016-1.337-.5432-2.043-.3919l-71.9767 15.427 2.6672 13.333z" fill="#e3e7f2"/><path d="m85.3955 114.667c0-2.946-2.3877-5.334-5.3332-5.334-2.9456 0-5.3333 2.388-5.3333 5.334v2.666h10.6665z" fill="#a4c2f7"/><g fill="#fff"><path d="m40.0623 157.333c-2.9419-.009-5.3248-2.392-5.3333-5.333v-42.667c.0085-2.941 2.3914-5.324 5.3333-5.333h-7.9993c-2.9419.009-5.3247 2.392-5.3333 5.333v42.667c.0086 2.941 2.3914 5.324 5.3333 5.333z"/><path d="m60.1696 36.3464c.73 2.179 2.7686 3.6487 5.0659 3.6536h8.0005c-2.2973-.0049-4.3359-1.4746-5.0671-3.6536l-5.6262-16.8798c-.2625-.8045-.1245-1.6858.3711-2.3719.4956-.6848 1.289-1.0925 2.135-1.0949h-7.9993c-.8459.0024-1.6406.4101-2.1362 1.0949-.4956.6861-.6336 1.5674-.3711 2.3719z"/><path d="m112.039 88.5755-1.092.2356.913 1.5173 2.95-.6323c-.608-.9046-1.706-1.3477-2.771-1.1206z"/></g><g fill="#428dff"><path d="m80.0623 74.6667c-1.4722 0-2.6661-1.1938-2.6661-2.6672v-5.3332c0-1.4722 1.1939-2.6661 2.6661-2.6661 1.4733 0 2.6672 1.1939 2.6672 2.6661v5.3332c0 1.4734-1.1939 2.6672-2.6672 2.6672z"/><path d="m80.0623 58.667c-1.4722 0-2.6661-1.1939-2.6661-2.6672v-5.3333c0-1.4722 1.1939-2.666 2.6661-2.666 1.4733 0 2.6672 1.1938 2.6672 2.666v5.3333c0 1.4733-1.1939 2.6672-2.6672 2.6672z"/><path d="m96.062 66.6662c-.7068 0-1.3843-.2807-1.8848-.7812l-5.3333-5.3333c-1.0107-1.0461-.9961-2.7087.0318-3.7378 1.029-1.029 2.6928-1.0437 3.739-.0329l3.4473 3.4485 11.449-11.4478c1.046-1.0107 2.709-.9961 3.738.0318 1.029 1.029 1.042 2.6916.033 3.739l-13.3341 13.3325c-.5004.5005-1.1779.7812-1.8859.7812z"/><path d="m94.8889 42.6672h-29.6533c-3.4387-.0012-6.4893-2.2033-7.5732-5.4675l-5.6263-16.8799c-.5395-1.6162-.2697-3.3935.7251-4.7778.9949-1.3843 2.594-2.2058 4.2981-2.2083h46.0057c1.707-.0012 3.308.8191 4.307 2.2034.997 1.3843 1.268 3.1641.727 4.7827l-5.637 16.8799c-1.083 3.2642-4.1344 5.4663-7.5731 5.4675zm8.1521-24.0356-45.9817.0354 5.6507 16.8445c.3637 1.0876 1.3806 1.8201 2.5256 1.8213h29.6533c1.1463-.0012 2.1619-.7337 2.5257-1.8213z"/><path d="m98.7292 18.667c-.9375 0-1.8054-.4907-2.2876-1.294l-7.2217-12.03975h-18.3142l-7.2241 12.03975c-.4822.835-1.3769 1.3453-2.3413 1.3343s-1.8469-.5408-2.3096-1.388c-.4626-.8459-.4321-1.875.0794-2.6928l8.0005-13.33378c.4821-.801997 1.3488-1.29272 2.2851-1.29272h21.333c.9363 0 1.8042.490723 2.2852 1.29272l8.0001 13.33378c.495.8239.508 1.8506.036 2.6867-.474.8362-1.3601 1.3538-2.3208 1.3538z"/><path d="m69.3958 31.9995c-1.4722 0-2.6661-1.1938-2.6661-2.666v-2.6672c0-1.4722 1.1939-2.6661 2.6661-2.6661 1.4733 0 2.6672 1.1939 2.6672 2.6661v2.6672c0 1.4722-1.1939 2.666-2.6672 2.666z"/><path d="m80.0623 31.9995c-1.4722 0-2.6661-1.1938-2.6661-2.666v-2.6672c0-1.4722 1.1939-2.6661 2.6661-2.6661 1.4733 0 2.6672 1.1939 2.6672 2.6661v2.6672c0 1.4722-1.1939 2.666-2.6672 2.666z"/><path d="m80.0623 31.9995c-1.4722 0-2.6661-1.1938-2.6661-2.666v-2.6672c0-1.4722 1.1939-2.6661 2.6661-2.6661 1.4733 0 2.6672 1.1939 2.6672 2.6661v2.6672c0 1.4722-1.1939 2.666-2.6672 2.666z"/><path d="m90.7288 31.9995c-1.4722 0-2.6661-1.1938-2.6661-2.666v-2.6672c0-1.4722 1.1939-2.6661 2.6661-2.6661 1.4733 0 2.6672 1.1939 2.6672 2.6661v2.6672c0 1.4722-1.1939 2.666-2.6672 2.666z"/><path d="m128.063 160h-96c-4.419 0-8.0005-3.582-8.0005-8v-34.667c0-1.472 1.1938-2.666 2.6672-2.666h106.6663c1.472 0 2.666 1.194 2.666 2.666v34.667c0 4.418-3.582 8-7.999 8zm-98.6672-40v32c0 1.473 1.1938 2.667 2.6672 2.667h96c1.472 0 2.666-1.194 2.666-2.667v-32z"/><path d="m133.396 120h-106.6663c-1.4734 0-2.6672-1.194-2.6672-2.667v-8c0-4.418 3.5815-8 8.0005-8h7.9993c1.4733 0 2.6672 1.194 2.6672 2.667 0 1.472-1.1939 2.666-2.6672 2.666h-7.9993c-1.4734 0-2.6672 1.194-2.6672 2.667v5.334h101.3332v-5.334c0-1.473-1.194-2.667-2.666-2.667h-10.667c-1.473 0-2.667-1.194-2.667-2.666 0-1.473 1.194-2.667 2.667-2.667h10.667c4.417 0 7.999 3.582 7.999 8v8c0 1.473-1.194 2.667-2.666 2.667z"/><path d="m80.0623 160c-1.4722 0-2.6661-1.194-2.6661-2.667v-40c0-1.472 1.1939-2.666 2.6661-2.666 1.4733 0 2.6672 1.194 2.6672 2.666v40c0 1.473-1.1939 2.667-2.6672 2.667z"/><path d="m69.3958 149.333h-31.9996c-1.4733 0-2.6672-1.193-2.6672-2.667v-18.666c0-1.473 1.1939-2.667 2.6672-2.667h31.9996c1.4733 0 2.6672 1.194 2.6672 2.667v18.666c0 1.474-1.1939 2.667-2.6672 2.667zm-29.3335-5.333h26.6674v-13.333h-26.6674z"/><path d="m122.729 133.334h-32.0002c-1.4722 0-2.6661-1.194-2.6661-2.667s1.1939-2.667 2.6661-2.667h32.0002c1.473 0 2.667 1.194 2.667 2.667s-1.194 2.667-2.667 2.667z"/><path d="m122.729 146.666h-32.0002c-1.4722 0-2.6661-1.194-2.6661-2.666 0-1.473 1.1939-2.667 2.6661-2.667h32.0002c1.473 0 2.667 1.194 2.667 2.667 0 1.472-1.194 2.666-2.667 2.666z"/><path d="m109.396 146.666h-18.6672c-1.4722 0-2.6661-1.194-2.6661-2.666 0-1.473 1.1939-2.667 2.6661-2.667h18.6672c1.473 0 2.667 1.194 2.667 2.667 0 1.472-1.194 2.666-2.667 2.666z"/><path d="m42.7295 120c-1.2671-.001-2.3572-.892-2.6111-2.134l-2.666-13.332c-.2869-1.431.6287-2.826 2.0557-3.131l74.6669-16.0002c.705-.1513 1.443-.0097 2.042.3931.599.4016 1.011 1.0303 1.139 1.7395l5.333 29.3336c.264 1.45-.697 2.838-2.147 3.102-1.449.263-2.837-.697-3.101-2.148l-4.845-26.6389-69.4026 14.8719 2.1496 10.745c.1416.692.0012 1.413-.3882 2.003-.3906.591-.9997 1.002-1.6919 1.142-.1757.037-.354.055-.5334.054z"/><path d="m40.0622 106.666c-1.2402-.007-2.3108-.868-2.5854-2.077-.2735-1.21.3235-2.448 1.4392-2.989l55.9997-26.6671c1.2403-.5896 2.7246-.1416 3.4326 1.0351l7.9997 13.3338c.511.8166.542 1.8469.079 2.6928-.461.846-1.345 1.377-2.31 1.388-.963.011-1.859-.4993-2.34-1.3343l-6.7551-11.2671-53.8122 25.6188c-.3577.173-.7495.264-1.1475.266z"/><path d="m85.3955 117.333c-1.4722 0-2.666-1.194-2.666-2.666 0-1.474-1.1939-2.667-2.6672-2.667-1.4722 0-2.6661 1.193-2.6661 2.667 0 1.472-1.1938 2.666-2.6672 2.666-1.4722 0-2.666-1.194-2.666-2.666 0-4.419 3.5815-8.001 7.9993-8.001 4.4189 0 8.0004 3.582 8.0004 8.001 0 1.472-1.1938 2.666-2.6672 2.666z"/></g></svg>