<svg width="160" height="160" viewBox="0 0 160 160" fill="none" xmlns="http://www.w3.org/2000/svg">
<g clip-path="url(#clip0)">
<path d="M8.00823 112.005C3.58973 112.005 0.00854492 108.424 0.00854492 104.005C0.00854492 99.5879 3.58973 96.0067 8.00823 96.0067C12.4255 96.0067 16.0067 99.5879 16.0067 104.005C16.0067 108.424 12.4255 112.005 8.00823 112.005Z" fill="#E3E7F2"/>
<path d="M32.0049 130.67C27.5876 130.67 24.0064 127.089 24.0064 122.67C24.0064 118.253 27.5876 114.672 32.0049 114.672C36.4234 114.672 40.0046 118.253 40.0046 122.67C40.0046 127.089 36.4234 130.67 32.0049 130.67Z" fill="#E3E7F2"/>
<path d="M151.993 120.005C147.576 120.005 143.994 116.422 143.994 112.005C143.994 107.588 147.576 104.005 151.993 104.005C156.411 104.005 159.993 107.588 159.993 112.005C159.993 116.422 156.411 120.005 151.993 120.005Z" fill="#E3E7F2"/>
<path d="M117.331 122.67C112.912 122.67 109.331 119.089 109.331 114.672C109.331 110.253 112.912 106.672 117.331 106.672C121.748 106.672 125.329 110.253 125.329 114.672C125.329 119.089 121.748 122.67 117.331 122.67Z" fill="#E3E7F2"/>
<path d="M135.995 88.007H127.996C138.698 87.8227 147.668 79.8621 149.126 69.2577C150.583 58.6533 144.092 48.57 133.836 45.5052C133.468 45.3904 133.095 45.3013 132.715 45.2378C132.549 45.1841 132.379 45.1402 132.208 45.1048L131.756 45.0255C129.582 44.6276 127.359 44.5739 125.169 44.8643C124.286 44.9803 123.401 44.6556 122.801 43.9977C122.201 43.3386 121.96 42.4281 122.157 41.559C122.728 38.7505 122.819 35.865 122.423 33.0259C120.958 22.6315 112.975 14.3571 102.639 12.5214C105.151 12.0808 107.718 12.0539 110.238 12.442C120.748 14.1399 128.93 22.4838 130.423 33.0259C130.817 35.865 130.727 38.7505 130.155 41.559C129.872 42.8687 130.569 44.1943 131.809 44.7045C131.955 44.7655 132.107 44.8094 132.262 44.8387C132.42 44.8705 132.581 44.8888 132.742 44.8912H132.796C132.92 44.8961 133.046 44.8875 133.169 44.8643C136.07 44.475 139.022 44.6935 141.834 45.5052C152.091 48.57 158.582 58.6533 157.125 69.2577C155.668 79.8621 146.698 87.8227 135.995 88.007Z" fill="#A4C2F7"/>
<path d="M127.996 88.007H27.4997C14.5542 88.0973 3.74108 78.1679 2.728 65.2627C1.8797 53.5976 9.46683 42.9834 20.7804 40.0125C20.9269 39.9551 21.0782 39.9112 21.2332 39.8782C23.0141 39.4486 24.8401 39.2326 26.6721 39.2387H28.0331C29.4514 39.2594 30.6427 38.1743 30.7526 36.7584C31.8242 19.2431 45.2701 5.00013 62.6952 2.92271C64.0134 2.76159 65.3402 2.68225 66.6682 2.68225C76.1326 2.68713 85.2027 6.46849 91.8658 13.1878C92.1856 13.4807 92.4798 13.7749 92.7727 14.0947C93.5673 14.993 94.8575 15.264 95.9463 14.7611C98.0481 13.6748 100.306 12.9193 102.639 12.5214C112.975 14.3571 120.958 22.6314 122.423 33.0259C122.819 35.865 122.728 38.7504 122.157 41.559C121.961 42.428 122.201 43.3386 122.801 43.9977C123.401 44.6556 124.286 44.9803 125.169 44.8643C127.359 44.5738 129.582 44.6275 131.756 45.0254L132.209 45.1048C132.379 45.1402 132.549 45.1841 132.715 45.2378C133.095 45.3013 133.468 45.3904 133.836 45.5051C144.092 48.57 150.583 58.6532 149.126 69.2576C147.668 79.862 138.698 87.8227 127.996 88.007Z" fill="#D4E1F4"/>
<path d="M80.0006 88.007H61.3354V104.005C61.3354 105.478 62.5292 106.672 64.0024 106.672H73.6621C74.3115 106.672 74.9376 106.437 75.4246 106.008L79.0864 102.809C79.6698 102.3 80.003 101.564 80.0006 100.79V88.007Z" fill="#E3E7F2"/>
<path d="M101.331 120.005V135.442C101.327 136.215 100.997 136.95 100.426 137.469L96.7457 140.669C96.2612 141.101 95.635 141.338 94.9856 141.335H85.3333C83.8613 141.335 82.6675 140.142 82.6675 138.668V120.005C82.6675 118.531 83.8613 117.338 85.3333 117.338H98.6657C100.138 117.338 101.331 118.531 101.331 120.005Z" fill="#E3E7F2"/>
<path d="M93.333 120.005V135.442C93.3269 136.215 92.9985 136.95 92.4261 137.469L88.746 140.669C88.2627 141.101 87.6353 141.338 86.9872 141.335H85.3333C83.8613 141.335 82.6675 140.142 82.6675 138.668V120.005C82.6675 118.531 83.8613 117.338 85.3333 117.338H90.666C92.1393 117.338 93.333 118.531 93.333 120.005Z" fill="#E3E7F2"/>
<path d="M69.3351 133.336H56.0027C54.5307 133.336 53.337 134.529 53.337 136.003V154.668C53.337 156.14 54.5307 157.334 56.0027 157.334H65.6636C66.3117 157.334 66.9391 157.098 67.4261 156.67L71.0867 153.47C71.6701 152.961 72.0033 152.225 72.0009 151.452V136.003C72.0009 134.529 70.8071 133.336 69.3351 133.336Z" fill="#E3E7F2"/>
<path d="M2.728 65.2627C3.74108 78.1679 14.5542 88.0973 27.4997 88.007H35.4982C22.5539 88.0973 11.7396 78.1679 10.7277 65.2627C9.87939 53.5976 17.4665 42.9834 28.7789 40.0125C28.9266 39.9551 29.0779 39.9112 29.2329 39.8782C31.0138 39.4486 32.8397 39.2326 34.6718 39.2387H36.0316C37.4511 39.2594 38.6412 38.1743 38.751 36.7584C39.8227 19.2529 53.254 5.01478 70.668 2.92515C69.3412 2.76891 68.0059 2.68835 66.6682 2.68225C65.3402 2.68225 64.0134 2.76159 62.6952 2.92271C45.2701 5.00013 31.8242 19.2431 30.7525 36.7584C30.6427 38.1743 29.4514 39.2594 28.0331 39.2387H26.6721C24.8401 39.2326 23.0141 39.4486 21.2332 39.8782C21.0782 39.9112 20.9269 39.9551 20.7804 40.0125C9.46683 42.9834 1.8797 53.5976 2.728 65.2627Z" fill="white"/>
<path d="M12.0069 110.893C9.53396 109.482 8.00823 106.853 8.00823 104.005C8.00823 101.159 9.53396 98.5297 12.0069 97.1187C10.7973 96.3985 9.41679 96.014 8.00823 96.0067C3.58973 96.0067 0.00854492 99.5879 0.00854492 104.005C0.00854492 108.424 3.58973 112.005 8.00823 112.005C9.41679 111.996 10.7973 111.613 12.0069 110.893Z" fill="white"/>
<path d="M61.3354 104.005C61.3354 105.478 62.5292 106.672 64.0024 106.672H72.0009C70.5289 106.672 69.3351 105.478 69.3351 104.005V88.007H61.3354V104.005Z" fill="white"/>
<path d="M36.0047 115.783C34.7951 115.064 33.4134 114.679 32.0049 114.672C27.5876 114.672 24.0064 118.253 24.0064 122.67C24.0064 127.089 27.5876 130.67 32.0049 130.67C33.4134 130.661 34.7951 130.278 36.0047 129.558C33.5318 128.147 32.0061 125.518 32.0061 122.67C32.0061 119.823 33.5318 117.195 36.0047 115.783Z" fill="white"/>
<path d="M64.0024 133.336H56.0027C54.5307 133.336 53.337 134.529 53.337 136.003V154.668C53.337 156.14 54.5307 157.334 56.0027 157.334H64.0024C62.5292 157.334 61.3354 156.14 61.3354 154.668V136.003C61.3354 134.529 62.5292 133.336 64.0024 133.336Z" fill="white"/>
<path d="M102.639 12.5214C101.709 12.6935 100.791 12.9242 99.8899 13.2123C100.201 13.4979 100.487 13.7823 100.772 14.0947C101.566 14.9931 102.856 15.2641 103.945 14.7612C106.048 13.6749 108.305 12.9193 110.637 12.5214C110.502 12.497 110.371 12.4628 110.229 12.4421C107.711 12.0539 105.147 12.082 102.639 12.5214Z" fill="white"/>
<path d="M85.3333 141.335H93.333C91.8597 141.335 90.666 140.142 90.666 138.668V120.005C90.666 118.531 91.8597 117.338 93.333 117.338H85.3333C83.8613 117.338 82.6675 118.531 82.6675 120.005V138.668C82.6675 140.142 83.8613 141.335 85.3333 141.335Z" fill="white"/>
<path d="M32.0049 106.672H13.341C11.8677 106.672 10.674 105.478 10.674 104.005C10.674 102.533 11.8677 101.339 13.341 101.339H30.9015L46.1185 86.1225C47.1645 85.1118 48.8281 85.1265 49.8571 86.1542C50.8848 87.1831 50.8995 88.8468 49.8888 89.8928L33.8907 105.891C33.3902 106.391 32.7128 106.672 32.0049 106.672Z" fill="#428DFF"/>
<path d="M8.00823 112.005C3.58973 112.005 0.00854492 108.424 0.00854492 104.005C0.00854492 99.5879 3.58973 96.0067 8.00823 96.0067C12.4255 96.0067 16.0067 99.5879 16.0067 104.005C16.0067 108.424 12.4255 112.005 8.00823 112.005ZM8.00823 101.339C6.53499 101.339 5.34126 102.533 5.34126 104.005C5.34126 105.478 6.53499 106.672 8.00823 106.672C9.48026 106.672 10.674 105.478 10.674 104.005C10.674 102.533 9.48026 101.339 8.00823 101.339Z" fill="#428DFF"/>
<path d="M32.0049 130.67C27.5876 130.67 24.0064 127.089 24.0064 122.67C24.0064 118.253 27.5876 114.672 32.0049 114.672C36.4234 114.672 40.0046 118.253 40.0046 122.67C40.0046 127.089 36.4234 130.67 32.0049 130.67ZM32.0049 120.005C30.5328 120.005 29.3391 121.198 29.3391 122.67C29.3391 124.144 30.5328 125.337 32.0049 125.337C33.4781 125.337 34.6718 124.144 34.6718 122.67C34.6718 121.198 33.4781 120.005 32.0049 120.005Z" fill="#428DFF"/>
<path d="M146.66 114.672H140.794C138.712 114.677 136.714 113.849 135.245 112.372L112.766 89.8928C111.755 88.8468 111.77 87.1831 112.798 86.1542C113.827 85.1265 115.489 85.1118 116.536 86.1225L139.016 108.603C139.487 109.075 140.128 109.34 140.794 109.338H146.66C148.133 109.338 149.327 110.533 149.327 112.005C149.327 113.477 148.133 114.672 146.66 114.672Z" fill="#428DFF"/>
<path d="M151.993 120.005C147.576 120.005 143.994 116.422 143.994 112.005C143.994 107.588 147.576 104.005 151.993 104.005C156.411 104.005 159.993 107.588 159.993 112.005C159.993 116.422 156.411 120.005 151.993 120.005ZM151.993 109.338C150.521 109.338 149.327 110.533 149.327 112.005C149.327 113.477 150.521 114.672 151.993 114.672C153.466 114.672 154.66 113.477 154.66 112.005C154.66 110.533 153.466 109.338 151.993 109.338Z" fill="#428DFF"/>
<path d="M122.664 112.005C121.585 112.005 120.613 111.356 120.2 110.358C119.788 109.362 120.016 108.216 120.778 107.453L126.11 102.121C127.156 101.11 128.82 101.125 129.849 102.154C130.877 103.181 130.891 104.845 129.881 105.891L124.548 111.224C124.048 111.724 123.37 112.005 122.664 112.005Z" fill="#428DFF"/>
<path d="M117.331 122.67C112.912 122.67 109.331 119.089 109.331 114.672C109.331 110.253 112.912 106.672 117.331 106.672C121.748 106.672 125.329 110.253 125.329 114.672C125.329 119.089 121.748 122.67 117.331 122.67ZM117.331 112.005C115.858 112.005 114.664 113.199 114.664 114.672C114.664 116.144 115.858 117.338 117.331 117.338C118.803 117.338 119.997 116.144 119.997 114.672C119.997 113.199 118.803 112.005 117.331 112.005Z" fill="#428DFF"/>
<path d="M32.0049 120.005C30.5328 120.005 29.3391 118.811 29.3391 117.338V104.005C29.3391 102.533 30.5328 101.339 32.0049 101.339C33.4781 101.339 34.6718 102.533 34.6718 104.005V117.338C34.6718 118.811 33.4781 120.005 32.0049 120.005Z" fill="#428DFF"/>
<path d="M66.6682 5.34926C55.7562 5.36635 45.5558 10.7699 39.4101 19.7875C35.9217 24.8639 33.8516 30.7801 33.4159 36.9245L28.0831 36.5693C28.586 29.4643 30.9796 22.6229 35.016 16.7532C42.1601 6.29521 54.0034 0.0324081 66.6682 0.0165405V5.34926Z" fill="white"/>
<path d="M53.6482 5.16984C54.1487 6.49905 55.5865 7.21919 56.9499 6.82372C60.1075 5.89486 63.3775 5.3993 66.6682 5.34926V0.0165405C62.8416 0.0665843 59.0407 0.642699 55.3717 1.7278C54.6735 1.93651 54.0925 2.42475 53.7654 3.07654C53.4395 3.72833 53.3968 4.48631 53.6482 5.16984Z" fill="#428DFF"/>
<path d="M28.0941 36.5693L33.4268 36.9245C33.8626 30.7801 35.9315 24.8639 39.4211 19.7875C39.8752 19.1003 40.3707 18.4412 40.9053 17.8138C41.7366 16.675 41.5925 15.0968 40.5697 14.1264C40.0351 13.6272 39.3125 13.3782 38.5838 13.4441C37.8551 13.51 37.1887 13.8835 36.7517 14.4706C36.1365 15.1981 35.5629 15.9598 35.0343 16.7531C30.9954 22.6217 28.5994 29.463 28.0941 36.5693Z" fill="#428DFF"/>
<path d="M48.1104 11.1189C48.6304 10.7161 49.0051 10.1547 49.1772 9.51875L49.2334 9.02319C49.2407 8.84376 49.2248 8.66556 49.1882 8.4898C49.1772 8.32136 49.1406 8.15536 49.0808 7.99668C49.0173 7.82946 48.9441 7.6659 48.8599 7.50845C48.4949 6.89572 47.8993 6.45509 47.206 6.28421C46.8435 6.21463 46.4688 6.21463 46.105 6.28421C45.0041 6.54541 44.1509 7.4169 43.9141 8.52397C43.864 8.87062 43.886 9.22214 43.98 9.55902C44.0691 9.89835 44.2266 10.2169 44.4438 10.4928C44.8991 11.0286 45.5216 11.396 46.2124 11.5351C46.8752 11.6462 47.5551 11.4973 48.1104 11.1189Z" fill="#428DFF"/>
<path d="M135.995 90.674H27.4936C16.6121 90.8229 6.69489 84.4539 2.30446 74.4952C-2.08475 64.5377 -0.0964235 52.919 7.354 44.9876C12.3376 39.611 19.3426 36.5644 26.6721 36.5827H28.027C28.1527 35.1131 29.4258 34.0097 30.899 34.0927C32.3735 34.1843 33.4976 35.4488 33.4159 36.9245C33.2071 39.744 30.8551 41.924 28.027 41.9154H26.6721C20.817 41.9032 15.2231 44.3395 11.2452 48.6347C5.24972 55.0171 3.65686 64.368 7.20143 72.375C10.746 80.3808 18.7384 85.4889 27.4936 85.3413H135.995C141.424 85.329 146.575 82.9379 150.088 78.7977C153.751 74.4671 155.329 68.7475 154.406 63.1511C153.2 56.0022 148.042 50.1556 141.098 48.0672C138.647 47.3531 136.073 47.1615 133.543 47.5045C131.818 47.7461 130.083 47.1334 128.895 45.8616C127.683 44.5616 127.178 42.7527 127.542 41.0122C128.056 38.5039 128.135 35.926 127.778 33.3909C126.49 24.001 119.209 16.5591 109.849 15.0675C105.511 14.4072 101.074 15.1261 97.1668 17.1242C95.0198 18.191 92.4249 17.6954 90.8235 15.9109C84.6058 9.16357 75.8445 5.33216 66.6682 5.34925C65.1961 5.34925 64.0024 4.15552 64.0024 2.68228C64.0024 1.21026 65.1961 0.01653 66.6682 0.01653C77.3251 -0.00544053 87.501 4.44358 94.722 12.2809C102.435 8.45075 111.523 8.57525 119.129 12.6178C126.733 16.6592 131.922 24.1218 133.062 32.6585C133.504 35.7966 133.403 38.9872 132.769 42.0924C136.062 41.7482 139.392 42.0375 142.576 42.9456C151.539 45.5564 158.196 53.0984 159.675 62.3162C160.845 69.4542 158.823 76.7447 154.145 82.2617C149.62 87.5896 142.985 90.6642 135.995 90.674Z" fill="#428DFF"/>
<path d="M73.6621 109.338H64.0024C61.0572 109.338 58.6697 106.95 58.6697 104.005V88.007C58.6697 86.535 59.8634 85.3413 61.3354 85.3413H80.0006C81.4738 85.3413 82.6675 86.535 82.6675 88.007V100.79C82.6663 102.332 82.0011 103.798 80.8403 104.813L77.1823 108.014C76.2082 108.867 74.9571 109.338 73.6621 109.338ZM64.0024 90.674V104.005H73.6621L77.3348 100.806V90.674H64.0024Z" fill="#428DFF"/>
<path d="M94.9942 144.001H85.3333C82.388 144.001 80.0006 141.614 80.0006 138.668V117.338C80.0006 115.866 81.1943 114.672 82.6675 114.672H98.6657C101.611 114.672 103.998 117.059 103.998 120.005V135.453C103.997 136.995 103.332 138.461 102.171 139.477L98.5131 142.677C97.5391 143.53 96.2892 144.001 94.9942 144.001ZM85.3333 120.005V138.668H94.9942L98.6657 135.469V120.005H85.3333Z" fill="#428DFF"/>
<path d="M65.6636 160.001H56.0027C53.0575 160.001 50.67 157.613 50.67 154.668V136.003C50.67 133.057 53.0575 130.67 56.0027 130.67H69.3351C72.2804 130.67 74.6679 133.057 74.6679 136.003V151.452C74.6666 152.993 74.0014 154.459 72.8419 155.475L69.1826 158.675C68.2085 159.528 66.9587 159.999 65.6636 160.001ZM56.0027 136.003V154.668H65.6636L69.3351 151.467V136.003H56.0027Z" fill="#428DFF"/>
<path d="M101.331 109.338C99.8594 109.338 98.6657 108.144 98.6657 106.672V101.339C98.6657 99.8662 99.8594 98.6725 101.331 98.6725C102.805 98.6725 103.998 99.8662 103.998 101.339V106.672C103.998 108.144 102.805 109.338 101.331 109.338Z" fill="#428DFF"/>
<path d="M90.666 109.338C89.194 109.338 88.0002 108.144 88.0002 106.672V101.339C88.0002 99.8662 89.194 98.6725 90.666 98.6725C92.1392 98.6725 93.333 99.8662 93.333 101.339V106.672C93.333 108.144 92.1392 109.338 90.666 109.338Z" fill="#428DFF"/>
<path d="M53.337 125.337C51.8637 125.337 50.67 124.144 50.67 122.67V117.338C50.67 115.866 51.8637 114.672 53.337 114.672C54.809 114.672 56.0027 115.866 56.0027 117.338V122.67C56.0027 124.144 54.809 125.337 53.337 125.337Z" fill="#428DFF"/>
<path d="M64.0024 125.337C62.5292 125.337 61.3354 124.144 61.3354 122.67V117.338C61.3354 115.866 62.5292 114.672 64.0024 114.672C65.4744 114.672 66.6682 115.866 66.6682 117.338V122.67C66.6682 124.144 65.4744 125.337 64.0024 125.337Z" fill="#428DFF"/>
<path fill-rule="evenodd" clip-rule="evenodd" d="M55 49.9609C55 36.1754 66.1754 25 79.9609 25C93.7465 25 104.922 36.1754 104.922 49.9609C104.922 63.7465 93.7465 74.9219 79.9609 74.9219C66.1754 74.9219 55 63.7465 55 49.9609Z" fill="white"/>
<path fill-rule="evenodd" clip-rule="evenodd" d="M58.6208 49.9609C58.6208 38.1751 68.1751 28.6208 79.9609 28.6208C91.7468 28.6208 101.301 38.1751 101.301 49.9609C101.301 61.7468 91.7468 71.3011 79.9609 71.3011C68.1751 71.3011 58.6208 61.7468 58.6208 49.9609ZM79.9609 25C66.1754 25 55 36.1754 55 49.9609C55 63.7465 66.1754 74.9219 79.9609 74.9219C93.7465 74.9219 104.922 63.7465 104.922 49.9609C104.922 36.1754 93.7465 25 79.9609 25ZM83.5292 57.9792C83.5983 58.2528 83.6964 58.5182 83.8219 58.7709H88.6884V58.4782C88.427 57.9451 88.2413 57.378 88.1368 56.7935C87.9991 55.9755 87.9363 55.1466 87.9492 54.3171V46.3401C87.9695 45.3583 87.7627 44.3849 87.3451 43.496C86.956 42.6879 86.3782 41.9852 85.6604 41.4474C84.905 40.886 84.051 40.4711 83.1427 40.2242C82.12 39.9424 81.0631 39.8035 80.0022 39.8115C78.8753 39.7983 77.7534 39.9629 76.6778 40.2992C75.7873 40.5718 74.9543 41.0055 74.2202 41.5787C73.5767 42.0824 73.0537 42.7233 72.6893 43.4548C72.3429 44.1546 72.1631 44.9251 72.164 45.706H76.9405C76.9256 45.3947 76.9778 45.0837 77.0937 44.7943C77.2096 44.5049 77.3864 44.2439 77.6121 44.0288C78.0586 43.6086 78.7678 43.4022 79.7433 43.4022C80.8427 43.4022 81.6869 43.6611 82.2685 44.1827C82.562 44.4504 82.7928 44.7794 82.9446 45.1465C83.0963 45.5136 83.1653 45.9096 83.1465 46.3064V47.402H80.4825C77.5809 47.4045 75.3996 47.941 73.9388 49.0117C72.478 50.0823 71.7476 51.5969 71.7476 53.5555C71.7393 54.3135 71.8985 55.064 72.2137 55.7534C72.5289 56.4429 72.9924 57.0543 73.5711 57.544C74.1753 58.0565 74.8719 58.4488 75.6235 58.6996C76.47 58.9819 77.3577 59.1214 78.25 59.1123C78.7984 59.1155 79.3455 59.0602 79.8821 58.9473C80.3644 58.8502 80.8348 58.7018 81.2854 58.5045C81.6827 58.3228 82.0599 58.1002 82.4111 57.8404C82.7408 57.6021 83.0462 57.3319 83.3228 57.0337C83.3751 57.3522 83.444 57.6678 83.5292 57.9792ZM80.5913 55.2477C80.1579 55.3623 79.7113 55.419 79.2631 55.4165C78.35 55.419 77.6672 55.2076 77.2144 54.7824C76.9897 54.5806 76.8114 54.3326 76.6915 54.0554C76.5717 53.7782 76.5133 53.4784 76.5203 53.1765C76.5157 52.7712 76.5975 52.3695 76.7604 51.9983C76.9285 51.6301 77.1866 51.3101 77.5108 51.0678C77.8985 50.7883 78.3369 50.5869 78.8015 50.475C79.4249 50.321 80.0657 50.2491 80.7076 50.2611H83.1427V53.4579C82.9878 53.7206 82.7971 53.9605 82.5762 54.1708C82.3202 54.4185 82.031 54.6294 81.7169 54.7974C81.3603 54.9903 80.9826 55.1414 80.5913 55.2477Z" fill="#428DFF"/>
</g>
<defs>
<clipPath id="clip0">
<rect width="160" height="160" fill="white"/>
</clipPath>
</defs>
</svg>
