<svg fill="none" height="160" viewBox="0 0 160 160" width="160" xmlns="http://www.w3.org/2000/svg" xmlns:xlink="http://www.w3.org/1999/xlink"><clipPath id="a"><path d="m0 0h160v160h-160z"/></clipPath><g clip-path="url(#a)"><path d="m8.00823 112.005c-4.4185 0-7.99968508-3.581-7.99968508-8 0-4.4171 3.58118508-7.9983 7.99968508-7.9983 4.41727 0 7.99847 3.5812 7.99847 7.9983 0 4.419-3.5812 8-7.99847 8z" fill="#e3e7f2"/><path d="m32.0049 130.67c-4.4173 0-7.9985-3.581-7.9985-8 0-4.417 3.5812-7.998 7.9985-7.998 4.4185 0 7.9997 3.581 7.9997 7.998 0 4.419-3.5812 8-7.9997 8z" fill="#e3e7f2"/><path d="m151.993 120.005c-4.417 0-7.999-3.583-7.999-8s3.582-8 7.999-8c4.418 0 8 3.583 8 8s-3.582 8-8 8z" fill="#e3e7f2"/><path d="m117.331 122.67c-4.419 0-8-3.581-8-7.998 0-4.419 3.581-8 8-8 4.417 0 7.998 3.581 7.998 8 0 4.417-3.581 7.998-7.998 7.998z" fill="#e3e7f2"/><path d="m135.995 88.007h-7.999c10.702-.1843 19.672-8.1449 21.13-18.7493 1.457-10.6044-5.034-20.6877-15.29-23.7525-.368-.1148-.741-.2039-1.121-.2674-.166-.0537-.336-.0976-.507-.133l-.452-.0793c-2.174-.3979-4.397-.4516-6.587-.1612-.883.116-1.768-.2087-2.368-.8666-.6-.6591-.841-1.5696-.644-2.4387.571-2.8085.662-5.694.266-8.5331-1.465-10.3944-9.448-18.6688-19.784-20.5045 2.512-.4406 5.079-.4675 7.599-.0794 10.51 1.6979 18.692 10.0418 20.185 20.5839.394 2.8391.304 5.7246-.268 8.5331-.283 1.3097.414 2.6353 1.654 3.1455.146.061.298.1049.453.1342.158.0318.319.0501.48.0525h.054c.124.0049.25-.0037.373-.0269 2.901-.3893 5.853-.1708 8.665.6409 10.257 3.0648 16.748 13.1481 15.291 23.7525s-10.427 18.565-21.13 18.7493z" fill="#a4c2f7"/><path d="m127.996 88.007h-100.4963c-12.9455.0903-23.75862-9.8391-24.7717-22.7443-.8483-11.6651 6.73883-22.2793 18.0524-25.2502.1465-.0574.2978-.1013.4528-.1343 1.7809-.4296 3.6069-.6456 5.4389-.6395h1.361c1.4183.0207 2.6096-1.0644 2.7195-2.4803 1.0716-17.5153 14.5175-31.75827 31.9426-33.83569 1.3182-.16112 2.645-.24046 3.973-.24046 9.4644.00488 18.5345 3.78624 25.1976 10.50555.3198.2929.614.5871.9069.9069.7946.8983 2.0848 1.1693 3.1736.6664 2.1018-1.0863 4.3597-1.8418 6.6927-2.2397 10.336 1.8357 18.319 10.11 19.784 20.5045.396 2.8391.305 5.7245-.266 8.5331-.196.869.044 1.7796.644 2.4387.6.6579 1.485.9826 2.368.8666 2.19-.2905 4.413-.2368 6.587.1611l.453.0794c.17.0354.34.0793.506.133.38.0635.753.1526 1.121.2673 10.256 3.0649 16.747 13.1481 15.29 23.7525-1.458 10.6044-10.428 18.5651-21.13 18.7494z" fill="#d4e1f4"/><path d="m80.0006 88.007h-18.6652v15.998c0 1.473 1.1938 2.667 2.667 2.667h9.6597c.6494 0 1.2755-.235 1.7625-.664l3.6618-3.199c.5834-.509.9166-1.245.9142-2.019z" fill="#e3e7f2"/><path d="m101.331 120.005v15.437c-.004.773-.334 1.508-.905 2.027l-3.6803 3.2c-.4845.432-1.1107.669-1.7601.666h-9.6523c-1.472 0-2.6658-1.193-2.6658-2.667v-18.663c0-1.474 1.1938-2.667 2.6658-2.667h13.3324c1.4723 0 2.6653 1.193 2.6653 2.667z" fill="#e3e7f2"/><path d="m93.333 120.005v15.437c-.0061.773-.3345 1.508-.9069 2.027l-3.6801 3.2c-.4833.432-1.1107.669-1.7588.666h-1.6539c-1.472 0-2.6658-1.193-2.6658-2.667v-18.663c0-1.474 1.1938-2.667 2.6658-2.667h5.3327c1.4733 0 2.667 1.193 2.667 2.667z" fill="#e3e7f2"/><path d="m69.3351 133.336h-13.3324c-1.472 0-2.6657 1.193-2.6657 2.667v18.665c0 1.472 1.1937 2.666 2.6657 2.666h9.6609c.6481 0 1.2755-.236 1.7625-.664l3.6606-3.2c.5834-.509.9166-1.245.9142-2.018v-15.449c0-1.474-1.1938-2.667-2.6658-2.667z" fill="#e3e7f2"/><path d="m2.728 65.2627c1.01308 12.9052 11.8262 22.8346 24.7717 22.7443h7.9985c-12.9443.0903-23.7586-9.8391-24.7705-22.7443-.84831-11.6651 6.7388-22.2793 18.0512-25.2502.1477-.0574.299-.1013.454-.1343 1.7809-.4296 3.6068-.6456 5.4389-.6395h1.3598c1.4195.0207 2.6096-1.0644 2.7194-2.4803 1.0717-17.5055 14.503-31.74362 31.917-33.83325-1.3268-.15624-2.6621-.2368-3.9998-.2429-1.328 0-2.6548.07934-3.973.24046-17.4251 2.07742-30.871 16.32039-31.9427 33.83569-.1098 1.4159-1.3011 2.501-2.7194 2.4803h-1.361c-1.832-.0061-3.658.2099-5.4389.6395-.155.033-.3063.0769-.4528.1343-11.31357 2.9709-18.9007 13.5851-18.0524 25.2502z" fill="#fff"/><path d="m12.0069 110.893c-2.47294-1.411-3.99867-4.04-3.99867-6.888 0-2.846 1.52573-5.4753 3.99867-6.8863-1.2096-.7202-2.59011-1.1047-3.99867-1.112-4.4185 0-7.99968508 3.5812-7.99968508 7.9983 0 4.419 3.58118508 8 7.99968508 8 1.40856-.009 2.78907-.392 3.99867-1.112z" fill="#fff"/><path d="m61.3354 104.005c0 1.473 1.1938 2.667 2.667 2.667h7.9985c-1.472 0-2.6658-1.194-2.6658-2.667v-15.998h-7.9997z" fill="#fff"/><path d="m36.0047 115.783c-1.2096-.719-2.5913-1.104-3.9998-1.111-4.4173 0-7.9985 3.581-7.9985 7.998 0 4.419 3.5812 8 7.9985 8 1.4085-.009 2.7902-.392 3.9998-1.112-2.4729-1.411-3.9986-4.04-3.9986-6.888 0-2.847 1.5257-5.475 3.9986-6.887z" fill="#fff"/><path d="m64.0024 133.336h-7.9997c-1.472 0-2.6657 1.193-2.6657 2.667v18.665c0 1.472 1.1937 2.666 2.6657 2.666h7.9997c-1.4732 0-2.667-1.194-2.667-2.666v-18.665c0-1.474 1.1938-2.667 2.667-2.667z" fill="#fff"/><path d="m102.639 12.5214c-.93.1721-1.848.4028-2.7491.6909.3111.2856.5971.57.8821.8824.794.8984 2.084 1.1694 3.173.6665 2.103-1.0863 4.36-1.8419 6.692-2.2398-.135-.0244-.266-.0586-.408-.0793-2.518-.3882-5.082-.3601-7.59.0793z" fill="#fff"/><path d="m85.3333 141.335h7.9997c-1.4733 0-2.667-1.193-2.667-2.667v-18.663c0-1.474 1.1937-2.667 2.667-2.667h-7.9997c-1.472 0-2.6658 1.193-2.6658 2.667v18.663c0 1.474 1.1938 2.667 2.6658 2.667z" fill="#fff"/><g fill="#428dff"><path d="m32.0049 106.672h-18.6639c-1.4733 0-2.667-1.194-2.667-2.667 0-1.472 1.1937-2.666 2.667-2.666h17.5605l15.217-15.2165c1.046-1.0107 2.7096-.996 3.7386.0317 1.0277 1.0289 1.0424 2.6926.0317 3.7386l-15.9981 15.9982c-.5005.5-1.1779.781-1.8858.781z"/><path d="m8.00823 112.005c-4.4185 0-7.99968508-3.581-7.99968508-8 0-4.4171 3.58118508-7.9983 7.99968508-7.9983 4.41727 0 7.99847 3.5812 7.99847 7.9983 0 4.419-3.5812 8-7.99847 8zm0-10.666c-1.47324 0-2.66697 1.194-2.66697 2.666 0 1.473 1.19373 2.667 2.66697 2.667 1.47203 0 2.66577-1.194 2.66577-2.667 0-1.472-1.19374-2.666-2.66577-2.666z"/><path d="m32.0049 130.67c-4.4173 0-7.9985-3.581-7.9985-8 0-4.417 3.5812-7.998 7.9985-7.998 4.4185 0 7.9997 3.581 7.9997 7.998 0 4.419-3.5812 8-7.9997 8zm0-10.665c-1.4721 0-2.6658 1.193-2.6658 2.665 0 1.474 1.1937 2.667 2.6658 2.667 1.4732 0 2.6669-1.193 2.6669-2.667 0-1.472-1.1937-2.665-2.6669-2.665z"/><path d="m146.66 114.672h-5.866c-2.082.005-4.08-.823-5.549-2.3l-22.479-22.4792c-1.011-1.046-.996-2.7097.032-3.7386 1.029-1.0277 2.691-1.0424 3.738-.0317l22.48 22.4805c.471.472 1.112.737 1.778.735h5.866c1.473 0 2.667 1.195 2.667 2.667s-1.194 2.667-2.667 2.667z"/><path d="m151.993 120.005c-4.417 0-7.999-3.583-7.999-8s3.582-8 7.999-8c4.418 0 8 3.583 8 8s-3.582 8-8 8zm0-10.667c-1.472 0-2.666 1.195-2.666 2.667s1.194 2.667 2.666 2.667c1.473 0 2.667-1.195 2.667-2.667s-1.194-2.667-2.667-2.667z"/><path d="m122.664 112.005c-1.079 0-2.051-.649-2.464-1.647-.412-.996-.184-2.142.578-2.905l5.332-5.332c1.046-1.011 2.71-.996 3.739.033 1.028 1.027 1.042 2.691.032 3.737l-5.333 5.333c-.5.5-1.178.781-1.884.781z"/><path d="m117.331 122.67c-4.419 0-8-3.581-8-7.998 0-4.419 3.581-8 8-8 4.417 0 7.998 3.581 7.998 8 0 4.417-3.581 7.998-7.998 7.998zm0-10.665c-1.473 0-2.667 1.194-2.667 2.667 0 1.472 1.194 2.666 2.667 2.666 1.472 0 2.666-1.194 2.666-2.666 0-1.473-1.194-2.667-2.666-2.667z"/><path d="m32.0049 120.005c-1.4721 0-2.6658-1.194-2.6658-2.667v-13.333c0-1.472 1.1937-2.666 2.6658-2.666 1.4732 0 2.6669 1.194 2.6669 2.666v13.333c0 1.473-1.1937 2.667-2.6669 2.667z"/></g><path d="m66.6682 5.34926c-10.912.01709-21.1124 5.42064-27.2581 14.43824-3.4884 5.0764-5.5585 10.9926-5.9942 17.137l-5.3328-.3552c.5029-7.105 2.8965-13.9464 6.9329-19.8161 7.1441-10.45799 18.9874-16.7207919 31.6522-16.7366595z" fill="#fff"/><g fill="#428dff"><path d="m53.6482 5.16984c.5005 1.32921 1.9383 2.04935 3.3017 1.65388 3.1576-.92886 6.4276-1.42442 9.7183-1.47446v-5.3327195c-3.8266.0500438-7.6275.6261585-11.2965 1.7112595-.6982.20871-1.2792.69695-1.6063 1.34874-.3259.65179-.3686 1.40977-.1172 2.0933z"/><path d="m28.0941 36.5693 5.3327.3552c.4358-6.1444 2.5047-12.0606 5.9943-17.137.4541-.6872.9496-1.3463 1.4842-1.9737.8313-1.1388.6872-2.717-.3356-3.6874-.5346-.4992-1.2572-.7482-1.9859-.6823s-1.3951.4394-1.8321 1.0265c-.6152.7275-1.1888 1.4892-1.7174 2.2825-4.0389 5.8686-6.4349 12.7099-6.9402 19.8162z"/><path d="m48.1104 11.1189c.52-.4028.8947-.9642 1.0668-1.60015l.0562-.49556c.0073-.17943-.0086-.35763-.0452-.53339-.011-.16844-.0476-.33444-.1074-.49312-.0635-.16722-.1367-.33078-.2209-.48823-.365-.61273-.9606-1.05336-1.6539-1.22424-.3625-.06958-.7372-.06958-1.101 0-1.1009.2612-1.9541 1.13269-2.1909 2.23976-.0501.34665-.0281.69817.0659 1.03505.0891.33933.2466.65788.4638.93378.4553.5358 1.0778.9032 1.7686 1.0423.6628.1111 1.3427-.0378 1.898-.4162z"/><path d="m135.995 90.674h-108.5014c-10.8815.1489-20.79871-6.2201-25.18914-16.1788-4.38921-9.9575-2.4008835-21.5762 5.04954-29.5076 4.9836-5.3766 11.9886-8.4232 19.3181-8.4049h1.3549c.1257-1.4696 1.3988-2.573 2.872-2.49 1.4745.0916 2.5986 1.3561 2.5169 2.8318-.2088 2.8195-2.5608 4.9995-5.3889 4.9909h-1.3549c-5.8551-.0122-11.449 2.4241-15.4269 6.7193-5.99548 6.3824-7.58834 15.7333-4.04377 23.7403 3.54457 8.0058 11.53697 13.1139 20.29217 12.9663h108.5014c5.429-.0123 10.58-2.4034 14.093-6.5436 3.663-4.3306 5.241-10.0502 4.318-15.6466-1.206-7.1489-6.364-12.9955-13.308-15.0839-2.451-.7141-5.025-.9057-7.555-.5627-1.725.2416-3.46-.3711-4.648-1.6429-1.212-1.3-1.717-3.1089-1.353-4.8494.514-2.5083.593-5.0862.236-7.6213-1.288-9.3899-8.569-16.8318-17.929-18.3234-4.338-.6603-8.775.0586-12.6822 2.0567-2.147 1.0668-4.7419.5712-6.3433-1.2133-6.2177-6.74733-14.979-10.57874-24.1553-10.56165-1.4721 0-2.6658-1.19373-2.6658-2.66697 0-1.47202 1.1937-2.66575 2.6658-2.66575 10.6569-.02197053 20.8328 4.42705 28.0538 12.26437 7.713-3.83015 16.801-3.70565 24.407.3369 7.604 4.0414 12.793 11.504 13.933 20.0407.442 3.1381.341 6.3287-.293 9.4339 3.293-.3442 6.623-.0549 9.807.8532 8.963 2.6108 15.62 10.1528 17.099 19.3706 1.17 7.138-.852 14.4285-5.53 19.9455-4.525 5.3279-11.16 8.4025-18.15 8.4123z"/><path d="m73.6621 109.338h-9.6597c-2.9452 0-5.3327-2.388-5.3327-5.333v-15.998c0-1.472 1.1937-2.6657 2.6657-2.6657h18.6652c1.4732 0 2.6669 1.1937 2.6669 2.6657v12.783c-.0012 1.542-.6664 3.008-1.8272 4.023l-3.658 3.201c-.9741.853-2.2252 1.324-3.5202 1.324zm-9.6597-18.664v13.331h9.6597l3.6727-3.199v-10.132z"/><path d="m94.9942 144.001h-9.6609c-2.9453 0-5.3327-2.387-5.3327-5.333v-21.33c0-1.472 1.1937-2.666 2.6669-2.666h15.9982c2.9453 0 5.3323 2.387 5.3323 5.333v15.448c-.001 1.542-.666 3.008-1.827 4.024l-3.6579 3.2c-.974.853-2.2239 1.324-3.5189 1.324zm-9.6609-23.996v18.663h9.6609l3.6715-3.199v-15.464z"/><path d="m65.6636 160.001h-9.6609c-2.9452 0-5.3327-2.388-5.3327-5.333v-18.665c0-2.946 2.3875-5.333 5.3327-5.333h13.3324c2.9453 0 5.3328 2.387 5.3328 5.333v15.449c-.0013 1.541-.6665 3.007-1.826 4.023l-3.6593 3.2c-.9741.853-2.2239 1.324-3.519 1.326zm-9.6609-23.998v18.665h9.6609l3.6715-3.201v-15.464z"/><path d="m101.331 109.338c-1.4716 0-2.6653-1.194-2.6653-2.666v-5.333c0-1.4728 1.1937-2.6665 2.6653-2.6665 1.474 0 2.667 1.1937 2.667 2.6665v5.333c0 1.472-1.193 2.666-2.667 2.666z"/><path d="m90.666 109.338c-1.472 0-2.6658-1.194-2.6658-2.666v-5.333c0-1.4728 1.1938-2.6665 2.6658-2.6665 1.4732 0 2.667 1.1937 2.667 2.6665v5.333c0 1.472-1.1938 2.666-2.667 2.666z"/><path d="m53.337 125.337c-1.4733 0-2.667-1.193-2.667-2.667v-5.332c0-1.472 1.1937-2.666 2.667-2.666 1.472 0 2.6657 1.194 2.6657 2.666v5.332c0 1.474-1.1937 2.667-2.6657 2.667z"/><path d="m64.0024 125.337c-1.4732 0-2.667-1.193-2.667-2.667v-5.332c0-1.472 1.1938-2.666 2.667-2.666 1.472 0 2.6658 1.194 2.6658 2.666v5.332c0 1.474-1.1938 2.667-2.6658 2.667z"/></g><path clip-rule="evenodd" d="m55 49.9609c0-13.7855 11.1754-24.9609 24.9609-24.9609 13.7856 0 24.9611 11.1754 24.9611 24.9609 0 13.7856-11.1755 24.961-24.9611 24.961-13.7855 0-24.9609-11.1754-24.9609-24.961z" fill="#fff" fill-rule="evenodd"/><path clip-rule="evenodd" d="m58.6208 49.9609c0-11.7858 9.5543-21.3401 21.3401-21.3401 11.7859 0 21.3401 9.5543 21.3401 21.3401 0 11.7859-9.5542 21.3402-21.3401 21.3402-11.7858 0-21.3401-9.5543-21.3401-21.3402zm21.3401-24.9609c-13.7855 0-24.9609 11.1754-24.9609 24.9609 0 13.7856 11.1754 24.961 24.9609 24.961 13.7856 0 24.9611-11.1754 24.9611-24.961 0-13.7855-11.1755-24.9609-24.9611-24.9609zm3.5683 32.9792c.0691.2736.1672.539.2927.7917h4.8665v-.2927c-.2614-.5331-.4471-1.1002-.5516-1.6847-.1377-.818-.2005-1.6469-.1876-2.4764v-7.977c.0203-.9818-.1865-1.9552-.6041-2.8441-.3891-.8081-.9669-1.5108-1.6847-2.0486-.7554-.5614-1.6094-.9763-2.5177-1.2232-1.0227-.2818-2.0796-.4207-3.1405-.4127-1.1269-.0132-2.2488.1514-3.3244.4877-.8905.2726-1.7235.7063-2.4576 1.2795-.6435.5037-1.1665 1.1446-1.5309 1.8761-.3464.6998-.5262 1.4703-.5253 2.2512h4.7765c-.0149-.3113.0373-.6223.1532-.9117s.2927-.5504.5184-.7655c.4465-.4202 1.1557-.6266 2.1312-.6266 1.0994 0 1.9436.2589 2.5252.7805.2935.2677.5243.5967.6761.9638.1517.3671.2207.7631.2019 1.1599v1.0956h-2.664c-2.9016.0025-5.0829.539-6.5437 1.6097-1.4608 1.0706-2.1912 2.5852-2.1912 4.5438-.0083.758.1509 1.5085.4661 2.1979.3152.6895.7787 1.3009 1.3574 1.7906.6042.5125 1.3008.9048 2.0524 1.1556.8465.2823 1.7342.4218 2.6265.4127.5484.0032 1.0955-.0521 1.6321-.165.4823-.0971.9527-.2455 1.4033-.4428.3973-.1817.7745-.4043 1.1257-.6641.3297-.2383.6351-.5085.9117-.8067.0523.3185.1212.6341.2064.9455zm-2.9379-2.7315c-.4334.1146-.88.1713-1.3282.1688-.9131.0025-1.5959-.2089-2.0487-.6341-.2247-.2018-.403-.4498-.5229-.727-.1198-.2772-.1782-.577-.1712-.8789-.0046-.4053.0772-.807.2401-1.1782.1681-.3682.4262-.6882.7504-.9305.3877-.2795.8261-.4809 1.2907-.5928.6234-.154 1.2642-.2259 1.9061-.2139h2.4351v3.1968c-.1549.2627-.3456.5026-.5665.7129-.256.2477-.5452.4586-.8593.6266-.3566.1929-.7343.344-1.1256.4503z" fill="#428dff" fill-rule="evenodd"/></g></svg>