<svg fill="none" height="18" viewBox="0 0 24 18" width="24" xmlns="http://www.w3.org/2000/svg"><path clip-rule="evenodd" d="m1.40823 10.0851h17.71277l-5.3199 5.052c-.2681.2546-.4187.5999-.4187.9599 0 .3601.1506.7054.4187.96.268.2545.6315.3975 1.0105.3975s.7425-.143 1.0105-.3975l7.7597-7.37011c.5576-.53045.5576-1.38967 0-1.92012l-7.7597-7.36917c-.2792-.265167-.6445-.3976-1.0107-.3976s-.732.132131-1.0106.397298c-.2681.254544-.4187.599849-.4187.959912 0 .36006.1506.70536.4187.95991l5.3202 5.05265h-17.71277c-.781117.01106-1.40823.61565-1.40823 1.35766s.627113 1.34657 1.40823 1.35767z" fill="#1c68f3" fill-rule="evenodd"/></svg>