<svg width="260" height="40" viewBox="0 0 260 40" fill="none" xmlns="http://www.w3.org/2000/svg">
<g clip-path="url(#clip0)">
<path d="M65.1135 27.0585C65.0156 26.8549 64.9371 26.6425 64.879 26.4242C64.8159 26.1867 64.7617 25.9342 64.7136 25.6667C64.492 25.9056 64.2473 26.1221 63.9832 26.313C63.7019 26.5213 63.3996 26.6996 63.0813 26.8451C62.7209 27.002 62.3451 27.1209 61.96 27.1998C61.53 27.29 61.0917 27.3343 60.6523 27.3321C59.9374 27.3398 59.2261 27.2281 58.548 27.0014C57.9449 26.8004 57.3858 26.4862 56.9006 26.0755C56.4463 25.6876 56.0803 25.2068 55.8274 24.6656C55.5673 24.1066 55.4358 23.4964 55.4426 22.88C55.4426 21.3107 56.0278 20.0972 57.1982 19.2395C58.3686 18.3817 60.1152 17.9518 62.438 17.9498H64.5724V17.072C64.5878 16.7544 64.533 16.4372 64.412 16.1432C64.2909 15.8491 64.1065 15.5853 63.8719 15.3706C63.403 14.9517 62.7276 14.7433 61.8458 14.7453C61.0672 14.7453 60.496 14.9106 60.1383 15.2473C59.9579 15.4199 59.8165 15.6292 59.7237 15.8609C59.6309 16.0927 59.5888 16.3417 59.6002 16.5911H55.7763C55.7745 15.9656 55.9176 15.3483 56.1942 14.7874C56.487 14.2019 56.9058 13.6886 57.4207 13.2843C58.0092 12.8256 58.6765 12.4783 59.3897 12.2592C60.2525 11.9898 61.1524 11.8579 62.0562 11.8684C62.9052 11.8621 63.7509 11.9734 64.5694 12.1991C65.297 12.3969 65.9812 12.7293 66.5865 13.1791C67.1566 13.6083 67.6154 14.1681 67.9242 14.8114C68.2578 15.5238 68.4224 16.3036 68.4052 17.0901V23.4902C68.3942 24.1549 68.4455 24.8192 68.5585 25.4743C68.6401 25.9427 68.7878 26.3972 68.9974 26.824V27.0585H65.1135ZM61.464 24.371C61.8261 24.3739 62.1871 24.3284 62.5372 24.2357C62.8509 24.1511 63.1535 24.03 63.439 23.875C63.6912 23.7412 63.923 23.5721 64.1274 23.373C64.3053 23.2053 64.4582 23.0129 64.5814 22.8018V20.2405H62.6274C62.112 20.231 61.5977 20.2886 61.0972 20.4119C60.7254 20.5034 60.3751 20.6668 60.0661 20.8929C59.8055 21.0862 59.5986 21.3428 59.4649 21.6384C59.3334 21.9356 59.2668 22.2574 59.2695 22.5823C59.2639 22.8222 59.3095 23.0605 59.4033 23.2814C59.4971 23.5022 59.637 23.7005 59.8136 23.863C60.1783 24.2037 60.7285 24.373 61.464 24.371Z" fill="#C0C0C0"/>
<path d="M85.5493 11.8683C86.0867 11.8654 86.6234 11.9046 87.1546 11.9856C87.5605 12.045 87.9621 12.1304 88.3571 12.2411L87.7799 16.0769C87.2694 15.9583 86.7525 15.869 86.2318 15.8094C85.7328 15.7511 85.231 15.721 84.7287 15.7192C83.8227 15.6699 82.9215 15.8806 82.1313 16.3265C81.4732 16.7533 80.9654 17.3757 80.6794 18.1061V27.0585H76.8585V12.1689H80.4268L80.6042 14.6069C81.1764 13.7932 81.9191 13.1141 82.7807 12.6169C83.6211 12.1269 84.5765 11.8686 85.5493 11.8683Z" fill="#C0C0C0"/>
<path d="M103.424 22.3899L104.717 12.1689H108.231L105.558 27.0735H102.198L100.24 17.58L98.3647 27.0585H94.9917L92.3223 12.1689H95.8184L97.1141 22.444L98.9869 12.1689H101.548L103.424 22.3899Z" fill="#C0C0C0"/>
<path d="M120.168 27.335C119.1 27.3492 118.038 27.1574 117.042 26.7699C116.149 26.4178 115.332 25.8961 114.637 25.2337C113.971 24.5857 113.446 23.8068 113.095 22.946C112.73 22.0521 112.545 21.0948 112.551 20.1292V19.5791C112.538 18.5149 112.72 17.4573 113.089 16.4587C113.423 15.5559 113.934 14.729 114.592 14.0267C115.238 13.3471 116.016 12.8078 116.88 12.4425C118.723 11.701 120.779 11.6892 122.63 12.4094C123.444 12.7471 124.173 13.2604 124.765 13.9125C125.365 14.585 125.817 15.3755 126.093 16.2333C126.408 17.2037 126.563 18.2192 126.55 19.2394V20.8627H116.42C116.487 21.3472 116.639 21.8162 116.868 22.2486C117.309 23.0778 118.043 23.7132 118.927 24.0312C119.4 24.2011 119.9 24.2856 120.403 24.2808C120.779 24.2811 121.155 24.2439 121.524 24.1695C121.89 24.0992 122.248 23.9904 122.591 23.8449C122.928 23.6974 123.247 23.5118 123.541 23.2917C123.834 23.0828 124.095 22.8316 124.314 22.5462L126.229 24.6144C125.961 24.9846 125.648 25.3199 125.297 25.6125C124.887 25.9596 124.433 26.2517 123.947 26.4813C123.394 26.7422 122.814 26.9438 122.219 27.0825C121.548 27.2494 120.859 27.3342 120.168 27.335ZM119.708 14.9797C119.302 14.9749 118.9 15.0516 118.524 15.2051C118.167 15.3559 117.846 15.579 117.58 15.8605C117.299 16.1601 117.069 16.5045 116.901 16.8796C116.708 17.3017 116.569 17.746 116.486 18.2023H122.769V17.9017C122.752 17.5108 122.673 17.1252 122.534 16.7593C122.4 16.4105 122.196 16.0932 121.933 15.8274C121.664 15.5581 121.343 15.3472 120.989 15.2082C120.581 15.051 120.146 14.9735 119.708 14.9797Z" fill="#C0C0C0"/>
<path d="M141.29 27.0585C141.192 26.8553 141.114 26.6429 141.058 26.4242C140.99 26.1748 140.935 25.9219 140.893 25.6667C140.667 25.9055 140.418 26.1219 140.15 26.313C139.869 26.5211 139.567 26.6995 139.249 26.8451C138.891 27.0023 138.518 27.1212 138.136 27.1998C137.706 27.2903 137.268 27.3346 136.829 27.3321C136.114 27.3398 135.402 27.2281 134.724 27.0014C134.122 26.8004 133.564 26.4862 133.08 26.0755C132.616 25.6832 132.245 25.1933 131.992 24.641C131.74 24.0886 131.612 23.4873 131.619 22.88C131.619 21.3107 132.204 20.0973 133.374 19.2395C134.545 18.3817 136.292 17.9519 138.617 17.9499H140.752V17.0721C140.767 16.7542 140.711 16.4369 140.59 16.1428C140.468 15.8487 140.283 15.585 140.048 15.3706C139.579 14.9517 138.905 14.7433 138.025 14.7453C137.243 14.7453 136.675 14.9106 136.314 15.2473C136.135 15.4202 135.994 15.6295 135.902 15.8613C135.809 16.0931 135.768 16.3419 135.779 16.5911H131.953C131.952 15.9654 132.096 15.3481 132.373 14.7874C132.666 14.2027 133.084 13.6895 133.597 13.2843C134.187 12.8256 134.855 12.4782 135.569 12.2592C136.431 11.9897 137.33 11.8578 138.232 11.8684C139.082 11.8622 139.929 11.9735 140.749 12.1991C141.476 12.3975 142.16 12.7298 142.766 13.1791C143.334 13.6092 143.792 14.1688 144.1 14.8114C144.435 15.5236 144.601 16.3034 144.584 17.0901V23.4902C144.573 24.1548 144.623 24.8191 144.735 25.4743C144.817 25.9429 144.966 26.3974 145.177 26.824V27.0585H141.29ZM137.64 24.371C138.003 24.3741 138.365 24.3286 138.716 24.2357C139.03 24.1506 139.333 24.0295 139.618 23.875C139.87 23.7404 140.102 23.5714 140.307 23.373C140.484 23.2045 140.636 23.0123 140.761 22.8018V20.2405H138.798C138.283 20.231 137.77 20.2886 137.27 20.4119C136.9 20.5017 136.551 20.6631 136.242 20.8869C135.983 21.081 135.776 21.3374 135.641 21.6324C135.511 21.9298 135.445 22.2516 135.449 22.5763C135.443 22.8163 135.488 23.0548 135.582 23.2757C135.676 23.4967 135.816 23.6949 135.993 23.857C136.357 24.1936 136.907 24.371 137.64 24.371Z" fill="#C0C0C0"/>
<path d="M157.361 22.6365L157.553 23.7097L157.745 22.6786L161.025 12.157H165.017L159.357 27.0585H155.749L150.071 12.169H154.069L157.361 22.6365Z" fill="#C0C0C0"/>
<path d="M177.3 27.335C176.232 27.3492 175.17 27.1574 174.174 26.7699C173.281 26.4178 172.464 25.8961 171.769 25.2337C171.097 24.5871 170.567 23.8081 170.212 22.946C169.847 22.0521 169.662 21.0948 169.668 20.1292V19.5791C169.657 18.5145 169.842 17.4569 170.212 16.4587C170.546 15.5561 171.057 14.7293 171.715 14.0267C172.359 13.3465 173.137 12.807 174 12.4425C175.843 11.701 177.899 11.6892 179.751 12.4094C180.564 12.7463 181.293 13.2597 181.885 13.9125C182.486 14.5848 182.939 15.3753 183.217 16.2333C183.529 17.2043 183.682 18.2194 183.671 19.2394V20.8627H173.555C173.621 21.3471 173.772 21.8161 174 22.2486C174.441 23.0778 175.175 23.7132 176.059 24.0312C176.532 24.2009 177.032 24.2854 177.535 24.2808C177.912 24.2811 178.287 24.2439 178.656 24.1695C179.022 24.0992 179.38 23.9904 179.723 23.8449C180.061 23.6981 180.379 23.5125 180.673 23.2917C180.966 23.0828 181.227 22.8316 181.446 22.5462L183.361 24.6144C183.093 24.9839 182.781 25.3191 182.432 25.6125C182.021 25.9583 181.567 26.2503 181.082 26.4813C180.529 26.7413 179.949 26.9428 179.354 27.0825C178.682 27.2493 177.993 27.334 177.3 27.335ZM176.847 14.9797C176.441 14.9746 176.038 15.0513 175.662 15.2051C175.306 15.3548 174.985 15.5781 174.721 15.8605C174.439 16.16 174.208 16.5044 174.039 16.8796C173.846 17.3014 173.708 17.7458 173.627 18.2023H179.907V17.9017C179.892 17.5106 179.812 17.1247 179.672 16.7593C179.538 16.4105 179.334 16.0932 179.071 15.8274C178.803 15.5581 178.481 15.3472 178.127 15.2082C177.719 15.0506 177.284 14.973 176.847 14.9797Z" fill="#C0C0C0"/>
<path d="M192.984 24.8399C192.98 24.4988 193.041 24.1602 193.164 23.8419C193.278 23.5402 193.456 23.2672 193.687 23.0422C193.928 22.8094 194.213 22.6274 194.526 22.5071C195.245 22.2387 196.037 22.2387 196.756 22.5071C197.068 22.6266 197.353 22.8087 197.592 23.0422C197.818 23.2711 197.996 23.543 198.115 23.8419C198.241 24.1595 198.304 24.4983 198.302 24.8399C198.304 25.1746 198.241 25.5066 198.115 25.8169C197.994 26.1093 197.816 26.3749 197.592 26.5985C197.354 26.8321 197.069 27.0124 196.756 27.1276C196.036 27.3882 195.246 27.3882 194.526 27.1276C194.212 27.0114 193.927 26.8312 193.687 26.5985C193.457 26.3752 193.278 26.1044 193.164 25.8049C193.044 25.4975 192.982 25.1701 192.984 24.8399Z" fill="#C0C0C0"/>
<path d="M207.633 19.4679C207.623 18.447 207.782 17.4314 208.102 16.4618C208.393 15.5766 208.859 14.7589 209.472 14.0569C210.084 13.3748 210.835 12.8333 211.676 12.4696C213.591 11.696 215.731 11.696 217.646 12.4696C218.492 12.8335 219.247 13.3784 219.859 14.0659C220.472 14.7679 220.938 15.5856 221.23 16.4708C221.549 17.4404 221.708 18.456 221.698 19.477V19.7776C221.709 20.8045 221.551 21.8262 221.23 22.8018C220.939 23.6864 220.475 24.5041 219.865 25.2067C219.257 25.8937 218.505 26.4369 217.661 26.797C216.72 27.192 215.706 27.3865 214.685 27.3681C213.654 27.3884 212.63 27.1939 211.679 26.797C210.831 26.4372 210.073 25.8941 209.46 25.2067C208.847 24.5051 208.381 23.6873 208.09 22.8018C207.769 21.8262 207.61 20.8045 207.621 19.7776L207.633 19.4679ZM211.462 19.7686C211.459 20.3596 211.519 20.9492 211.643 21.5272C211.745 22.0337 211.937 22.5181 212.208 22.9581C212.464 23.3812 212.829 23.7277 213.265 23.9615C213.7 24.1952 214.191 24.3076 214.685 24.2868C215.191 24.3021 215.691 24.1783 216.131 23.9291C216.533 23.6877 216.869 23.3498 217.108 22.9461C217.374 22.5039 217.563 22.0202 217.667 21.5151C217.788 20.9368 217.848 20.3474 217.845 19.7565V19.4559C217.847 18.8771 217.787 18.2997 217.667 17.7334C217.56 17.2329 217.371 16.7534 217.108 16.3145C216.867 15.9109 216.528 15.5749 216.122 15.3375C215.472 14.9571 214.699 14.8464 213.969 15.029C213.238 15.2116 212.608 15.6731 212.214 16.3145C211.944 16.7549 211.753 17.2392 211.649 17.7454C211.526 18.3113 211.466 18.8889 211.468 19.4679L211.462 19.7686Z" fill="#C0C0C0"/>
<path d="M237.905 11.8683C238.441 11.8653 238.977 11.9045 239.507 11.9856C239.913 12.0448 240.315 12.1302 240.71 12.2411L240.135 16.077C239.625 15.9583 239.108 15.869 238.587 15.8094C238.088 15.7511 237.586 15.721 237.084 15.7192C236.182 15.6759 235.286 15.8907 234.502 16.3385C233.842 16.7611 233.332 17.3791 233.041 18.1061V27.0585H229.214V12.1689H232.779L232.96 14.6069C233.532 13.7861 234.278 13.1015 235.145 12.6018C235.984 12.1187 236.936 11.8657 237.905 11.8683Z" fill="#C0C0C0"/>
<path d="M245.859 19.495C245.845 18.4476 245.982 17.4035 246.268 16.3957C246.515 15.526 246.923 14.7103 247.47 13.9907C247.977 13.3338 248.627 12.8013 249.37 12.4335C250.16 12.0499 251.029 11.8564 251.907 11.8684C252.679 11.8481 253.446 11.999 254.153 12.3103C254.773 12.6019 255.319 13.0306 255.749 13.5639L255.903 12.1449H259.387V26.5745C259.404 27.5025 259.228 28.424 258.87 29.2801C258.542 30.0446 258.048 30.7265 257.424 31.2762C256.772 31.8351 256.013 32.2546 255.193 32.5087C254.263 32.7983 253.293 32.9403 252.319 32.9296C251.834 32.9252 251.35 32.8789 250.873 32.7913C250.352 32.6965 249.841 32.5536 249.346 32.3644C248.843 32.1723 248.362 31.9253 247.912 31.6279C247.472 31.3367 247.081 30.9764 246.755 30.5607L248.477 28.2309C248.936 28.7611 249.499 29.191 250.131 29.4935C250.756 29.7844 251.438 29.9323 252.127 29.9264C253.203 29.9264 254.039 29.6258 254.64 29.0666C255.241 28.5075 255.542 27.6748 255.542 26.6196V25.7629C255.1 26.2519 254.563 26.6457 253.964 26.9202C253.306 27.208 252.595 27.3496 251.877 27.3351C251.009 27.3487 250.151 27.1517 249.376 26.7609C248.637 26.3816 247.99 25.8438 247.482 25.1857C246.935 24.4658 246.528 23.6502 246.28 22.7808C245.992 21.8049 245.851 20.7919 245.859 19.7746V19.495ZM249.704 19.7956C249.699 20.3811 249.761 20.9651 249.89 21.5362C249.997 22.035 250.19 22.5111 250.461 22.9431C250.707 23.3304 251.042 23.6531 251.438 23.884C251.867 24.1236 252.352 24.2431 252.842 24.2297C253.421 24.2512 253.995 24.1184 254.505 23.8449C254.941 23.5856 255.301 23.214 255.545 22.7687V16.4558C255.305 16.0057 254.945 15.631 254.505 15.3736C254.006 15.1065 253.447 14.9748 252.881 14.9918C252.389 14.9788 251.903 15.1004 251.475 15.3435C251.07 15.5813 250.728 15.9121 250.476 16.3085C250.201 16.7488 250.003 17.2327 249.89 17.7394C249.758 18.3152 249.694 18.9043 249.698 19.495L249.704 19.7956Z" fill="#C0C0C0"/>
<path d="M23.0934 27.0585C22.9929 26.856 22.9143 26.6434 22.8589 26.4242C22.7906 26.1748 22.7354 25.9219 22.6935 25.6667C22.4719 25.9056 22.2272 26.1221 21.963 26.313C21.6817 26.5211 21.3794 26.6995 21.0612 26.8451C20.7002 27.0031 20.3232 27.1221 19.9369 27.1998C19.5069 27.2903 19.0686 27.3346 18.6292 27.3321C17.9143 27.3393 17.2031 27.2276 16.5249 27.0014C15.9227 26.8004 15.3646 26.4862 14.8805 26.0755C14.4169 25.6832 14.0455 25.1933 13.793 24.641C13.5405 24.0886 13.4129 23.4873 13.4195 22.88C13.4195 21.3107 14.0047 20.0973 15.1751 19.2395C16.3455 18.3817 18.0931 17.9519 20.4179 17.9499H22.5522V17.0721C22.5673 16.7542 22.5121 16.4369 22.3905 16.1428C22.2689 15.8487 22.0839 15.585 21.8488 15.3706C21.3829 14.9527 20.7065 14.7453 19.8257 14.7453C19.0441 14.7453 18.4759 14.9106 18.1182 15.2473C17.9373 15.4196 17.7956 15.6287 17.7028 15.8606C17.6099 16.0925 17.5681 16.3416 17.5801 16.5911H13.7532C13.7525 15.9654 13.8965 15.3481 14.1741 14.7874C14.466 14.2013 14.885 13.6878 15.4006 13.2843C15.9887 12.825 16.6561 12.4776 17.3696 12.2592C18.2314 11.9897 19.1302 11.8578 20.0331 11.8684C20.883 11.862 21.7298 11.9733 22.5492 12.1991C23.2769 12.3969 23.9611 12.7293 24.5664 13.1791C25.1415 13.61 25.6044 14.173 25.9161 14.8204C26.2507 15.5326 26.4164 16.3124 26.4001 17.0991V23.4902C26.3898 24.1548 26.4401 24.8189 26.5504 25.4743C26.6342 25.9426 26.7829 26.3969 26.9924 26.824V27.0585H23.0934ZM19.4409 24.371C19.8 24.373 20.1578 24.3275 20.5051 24.2357C20.8185 24.1506 21.1212 24.0295 21.4069 23.875C21.6585 23.7404 21.8902 23.5714 22.0953 23.373C22.2723 23.2045 22.4251 23.0123 22.5492 22.8018V20.2405H20.5982C20.0839 20.231 19.5705 20.2886 19.0711 20.4119C18.6988 20.5016 18.3476 20.6629 18.037 20.8869C17.7772 21.081 17.5705 21.3374 17.4358 21.6324C17.3053 21.9298 17.2397 22.2516 17.2434 22.5763C17.2378 22.8182 17.2846 23.0584 17.3806 23.2805C17.4766 23.5026 17.6195 23.7013 17.7995 23.863C18.1622 24.2037 18.7094 24.373 19.4409 24.371Z" fill="#C0C0C0"/>
<path fill-rule="evenodd" clip-rule="evenodd" d="M20 2.90241C10.5573 2.90241 2.90244 10.5572 2.90244 20C2.90244 29.4427 10.5573 37.0975 20 37.0975C29.4427 37.0975 37.0975 29.4427 37.0975 20C37.0975 10.5572 29.4427 2.90241 20 2.90241ZM0.00149536 20C0.00149536 8.9551 8.95513 0.00146484 20 0.00146484C31.0449 0.00146484 39.9985 8.9551 39.9985 20C39.9985 31.0448 31.0449 39.9985 20 39.9985C8.95513 39.9985 0.00149536 31.0448 0.00149536 20Z" fill="#C0C0C0"/>
</g>
<defs>
<clipPath id="clip0">
<rect width="259.387" height="40" fill="white"/>
</clipPath>
</defs>
</svg>
