<svg fill="none" height="40" viewBox="0 0 260 40" width="260" xmlns="http://www.w3.org/2000/svg" xmlns:xlink="http://www.w3.org/1999/xlink"><clipPath id="a"><path d="m0 0h259.387v40h-259.387z"/></clipPath><g clip-path="url(#a)" fill="#c0c0c0"><path d="m65.1135 27.0585c-.0979-.2036-.1764-.416-.2345-.6343-.0631-.2375-.1173-.49-.1654-.7575-.2216.2389-.4663.4554-.7304.6463-.2813.2083-.5836.3866-.9019.5321-.3604.1569-.7362.2758-1.1213.3547-.43.0902-.8683.1345-1.3077.1323-.7149.0077-1.4262-.104-2.1043-.3307-.6031-.201-1.1622-.5152-1.6474-.9259-.4543-.3879-.8203-.8687-1.0732-1.4099-.2601-.559-.3916-1.1692-.3848-1.7856 0-1.5693.5852-2.7828 1.7556-3.6405 1.1704-.8578 2.917-1.2877 5.2398-1.2897h2.1344v-.8778c.0154-.3176-.0394-.6348-.1604-.9288-.1211-.2941-.3055-.5579-.5401-.7726-.4689-.4189-1.1443-.6273-2.0261-.6253-.7786 0-1.3498.1653-1.7075.502-.1804.1726-.3218.3819-.4146.6136-.0928.2318-.1349.4808-.1235.7302h-3.8239c-.0018-.6255.1413-1.2428.4179-1.8037.2928-.5855.7116-1.0988 1.2265-1.5031.5885-.4587 1.2558-.806 1.969-1.0251.8628-.2694 1.7627-.4013 2.6665-.3908.849-.0063 1.6947.105 2.5132.3307.7276.1978 1.4118.5302 2.0171.98.5701.4292 1.0289.989 1.3377 1.6323.3336.7124.4982 1.4922.481 2.2787v6.4001c-.011.6647.0403 1.329.1533 1.9841.0816.4684.2293.9229.4389 1.3497v.2345zm-3.6495-2.6875c.3621.0029.7231-.0426 1.0732-.1353.3137-.0846.6163-.2057.9018-.3607.2522-.1338.484-.3029.6884-.502.1779-.1677.3308-.3601.454-.5712v-2.5613h-1.954c-.5154-.0095-1.0297.0481-1.5302.1714-.3718.0915-.7221.2549-1.0311.481-.2606.1933-.4675.4499-.6012.7455-.1315.2972-.1981.619-.1954.9439-.0056.2399.04.4782.1338.6991.0938.2208.2337.4191.4103.5816.3647.3407.9149.51 1.6504.508z"/><path d="m85.5493 11.8683c.5374-.0029 1.0741.0363 1.6053.1173.4059.0594.8075.1448 1.2025.2555l-.5772 3.8358c-.5105-.1186-1.0274-.2079-1.5481-.2675-.499-.0583-1.0008-.0884-1.5031-.0902-.906-.0493-1.8072.1614-2.5974.6073-.6581.4268-1.1659 1.0492-1.4519 1.7796v8.9524h-3.8209v-14.8896h3.5683l.1774 2.438c.5722-.8137 1.3149-1.4928 2.1765-1.99.8404-.49 1.7958-.7483 2.7686-.7486z"/><path d="m103.424 22.3899 1.293-10.221h3.514l-2.673 14.9046h-3.36l-1.958-9.4935-1.8753 9.4785h-3.373l-2.6694-14.8896h3.4961l1.2957 10.2751 1.8728-10.2751h2.5611z"/><path d="m120.168 27.335c-1.068.0142-2.13-.1776-3.126-.5651-.893-.3521-1.71-.8738-2.405-1.5362-.666-.648-1.191-1.4269-1.542-2.2877-.365-.8939-.55-1.8512-.544-2.8168v-.5501c-.013-1.0642.169-2.1218.538-3.1204.334-.9028.845-1.7297 1.503-2.432.646-.6796 1.424-1.2189 2.288-1.5842 1.843-.7415 3.899-.7533 5.75-.0331.814.3377 1.543.851 2.135 1.5031.6.6725 1.052 1.463 1.328 2.3208.315.9704.47 1.9859.457 3.0061v1.6233h-10.13c.067.4845.219.9535.448 1.3859.441.8292 1.175 1.4646 2.059 1.7826.473.1699.973.2544 1.476.2496.376.0003.752-.0369 1.121-.1113.366-.0703.724-.1791 1.067-.3246.337-.1475.656-.3331.95-.5532.293-.2089.554-.4601.773-.7455l1.915 2.0682c-.268.3702-.581.7055-.932.9981-.41.3471-.864.6392-1.35.8688-.553.2609-1.133.4625-1.728.6012-.671.1669-1.36.2517-2.051.2525zm-.46-12.3553c-.406-.0048-.808.0719-1.184.2254-.357.1508-.678.3739-.944.6554-.281.2996-.511.644-.679 1.0191-.193.4221-.332.8664-.415 1.3227h6.283v-.3006c-.017-.3909-.096-.7765-.235-1.1424-.134-.3488-.338-.6661-.601-.9319-.269-.2693-.59-.4802-.944-.6192-.408-.1572-.843-.2347-1.281-.2285z"/><path d="m141.29 27.0585c-.098-.2032-.176-.4156-.232-.6343-.068-.2494-.123-.5023-.165-.7575-.226.2388-.475.4552-.743.6463-.281.2081-.583.3865-.901.5321-.358.1572-.731.2761-1.113.3547-.43.0905-.868.1348-1.307.1323-.715.0077-1.427-.104-2.105-.3307-.602-.201-1.16-.5152-1.644-.9259-.464-.3923-.835-.8822-1.088-1.4345-.252-.5524-.38-1.1537-.373-1.761 0-1.5693.585-2.7827 1.755-3.6405 1.171-.8578 2.918-1.2876 5.243-1.2896h2.135v-.8778c.015-.3179-.041-.6352-.162-.9293-.122-.2941-.307-.5578-.542-.7722-.469-.4189-1.143-.6273-2.023-.6253-.782 0-1.35.1653-1.711.502-.179.1729-.32.3822-.412.614-.093.2318-.134.4806-.123.7298h-3.826c-.001-.6257.143-1.243.42-1.8037.293-.5847.711-1.0979 1.224-1.5031.59-.4587 1.258-.8061 1.972-1.0251.862-.2695 1.761-.4014 2.663-.3908.85-.0062 1.697.1051 2.517.3307.727.1984 1.411.5307 2.017.98.568.4301 1.026.9897 1.334 1.6323.335.7122.501 1.492.484 2.2787v6.4001c-.011.6646.039 1.3289.151 1.9841.082.4686.231.9231.442 1.3497v.2345zm-3.65-2.6875c.363.0031.725-.0424 1.076-.1353.314-.0851.617-.2062.902-.3607.252-.1346.484-.3036.689-.502.177-.1685.329-.3607.454-.5712v-2.5613h-1.963c-.515-.0095-1.028.0481-1.528.1714-.37.0898-.719.2512-1.028.475-.259.1941-.466.4505-.601.7455-.13.2974-.196.6192-.192.9439-.006.24.039.4785.133.6994.094.221.234.4192.411.5813.364.3366.914.514 1.647.514z"/><path d="m157.361 22.6365.192 1.0732.192-1.0311 3.28-10.5216h3.992l-5.66 14.9015h-3.608l-5.678-14.8895h3.998z"/><path d="m177.3 27.335c-1.068.0142-2.13-.1776-3.126-.5651-.893-.3521-1.71-.8738-2.405-1.5362-.672-.6466-1.202-1.4256-1.557-2.2877-.365-.8939-.55-1.8512-.544-2.8168v-.5501c-.011-1.0646.174-2.1222.544-3.1204.334-.9026.845-1.7294 1.503-2.432.644-.6802 1.422-1.2197 2.285-1.5842 1.843-.7415 3.899-.7533 5.751-.0331.813.3369 1.542.8503 2.134 1.5031.601.6723 1.054 1.4628 1.332 2.3208.312.971.465 1.9861.454 3.0061v1.6233h-10.116c.066.4844.217.9534.445 1.3859.441.8292 1.175 1.4646 2.059 1.7826.473.1697.973.2542 1.476.2496.377.0003.752-.0369 1.121-.1113.366-.0703.724-.1791 1.067-.3246.338-.1468.656-.3324.95-.5532.293-.2089.554-.4601.773-.7455l1.915 2.0682c-.268.3695-.58.7047-.929.9981-.411.3458-.865.6378-1.35.8688-.553.26-1.133.4615-1.728.6012-.672.1668-1.361.2515-2.054.2525zm-.453-12.3553c-.406-.0051-.809.0716-1.185.2254-.356.1497-.677.373-.941.6554-.282.2995-.513.6439-.682 1.0191-.193.4218-.331.8662-.412 1.3227h6.28v-.3006c-.015-.3911-.095-.777-.235-1.1424-.134-.3488-.338-.6661-.601-.9319-.268-.2693-.59-.4802-.944-.6192-.408-.1576-.843-.2352-1.28-.2285z"/><path d="m192.984 24.8399c-.004-.3411.057-.6797.18-.998.114-.3017.292-.5747.523-.7997.241-.2328.526-.4148.839-.5351.719-.2684 1.511-.2684 2.23 0 .312.1195.597.3016.836.5351.226.2289.404.5008.523.7997.126.3176.189.6564.187.998.002.3347-.061.6667-.187.977-.121.2924-.299.558-.523.7816-.238.2336-.523.4139-.836.5291-.72.2606-1.51.2606-2.23 0-.314-.1162-.599-.2964-.839-.5291-.23-.2233-.409-.4941-.523-.7936-.12-.3074-.182-.6348-.18-.965z"/><path d="m207.633 19.4679c-.01-1.0209.149-2.0365.469-3.0061.291-.8852.757-1.7029 1.37-2.4049.612-.6821 1.363-1.2236 2.204-1.5873 1.915-.7736 4.055-.7736 5.97 0 .846.3639 1.601.9088 2.213 1.5963.613.702 1.079 1.5197 1.371 2.4049.319.9696.478 1.9852.468 3.0062v.3006c.011 1.0269-.147 2.0486-.468 3.0242-.291.8846-.755 1.7023-1.365 2.4049-.608.687-1.36 1.2302-2.204 1.5903-.941.395-1.955.5895-2.976.5711-1.031.0203-2.055-.1742-3.006-.5711-.848-.3598-1.606-.9029-2.219-1.5903-.613-.7016-1.079-1.5194-1.37-2.4049-.321-.9756-.48-1.9973-.469-3.0242zm3.829.3007c-.003.591.057 1.1806.181 1.7586.102.5065.294.9909.565 1.4309.256.4231.621.7696 1.057 1.0034.435.2337.926.3461 1.42.3253.506.0153 1.006-.1085 1.446-.3577.402-.2414.738-.5793.977-.983.266-.4422.455-.9259.559-1.431.121-.5783.181-1.1677.178-1.7586v-.3006c.002-.5788-.058-1.1562-.178-1.7225-.107-.5005-.296-.98-.559-1.4189-.241-.4036-.58-.7396-.986-.977-.65-.3804-1.423-.4911-2.153-.3085-.731.1826-1.361.6441-1.755 1.2855-.27.4404-.461.9247-.565 1.4309-.123.5659-.183 1.1435-.181 1.7225z"/><path d="m237.905 11.8683c.536-.003 1.072.0362 1.602.1173.406.0592.808.1446 1.203.2555l-.575 3.8359c-.51-.1187-1.027-.208-1.548-.2676-.499-.0583-1.001-.0884-1.503-.0902-.902-.0433-1.798.1715-2.582.6193-.66.4226-1.17 1.0406-1.461 1.7676v8.9524h-3.827v-14.8896h3.565l.181 2.438c.572-.8208 1.318-1.5054 2.185-2.0051.839-.4831 1.791-.7361 2.76-.7335z"/><path d="m245.859 19.495c-.014-1.0474.123-2.0915.409-3.0993.247-.8697.655-1.6854 1.202-2.405.507-.6569 1.157-1.1894 1.9-1.5572.79-.3836 1.659-.5771 2.537-.5651.772-.0203 1.539.1306 2.246.4419.62.2916 1.166.7203 1.596 1.2536l.154-1.419h3.484v14.4296c.017.928-.159 1.8495-.517 2.7056-.328.7645-.822 1.4464-1.446 1.9961-.652.5589-1.411.9784-2.231 1.2325-.93.2896-1.9.4316-2.874.4209-.485-.0044-.969-.0507-1.446-.1383-.521-.0948-1.032-.2377-1.527-.4269-.503-.1921-.984-.4391-1.434-.7365-.44-.2912-.831-.6515-1.157-1.0672l1.722-2.3298c.459.5302 1.022.9601 1.654 1.2626.625.2909 1.307.4388 1.996.4329 1.076 0 1.912-.3006 2.513-.8598.601-.5591.902-1.3918.902-2.447v-.8567c-.442.489-.979.8828-1.578 1.1573-.658.2878-1.369.4294-2.087.4149-.868.0136-1.726-.1834-2.501-.5742-.739-.3793-1.386-.9171-1.894-1.5752-.547-.7199-.954-1.5355-1.202-2.4049-.288-.9759-.429-1.9889-.421-3.0062zm3.845.3006c-.005.5855.057 1.1695.186 1.7406.107.4988.3.9749.571 1.4069.246.3873.581.71.977.9409.429.2396.914.3591 1.404.3457.579.0215 1.153-.1113 1.663-.3848.436-.2593.796-.6309 1.04-1.0762v-6.3129c-.24-.4501-.6-.8248-1.04-1.0822-.499-.2671-1.058-.3988-1.624-.3818-.492-.013-.978.1086-1.406.3517-.405.2378-.747.5686-.999.965-.275.4403-.473.9242-.586 1.4309-.132.5758-.196 1.1649-.192 1.7556z"/><path d="m23.0934 27.0585c-.1005-.2025-.1791-.4151-.2345-.6343-.0683-.2494-.1235-.5023-.1654-.7575-.2216.2389-.4663.4554-.7305.6463-.2813.2081-.5836.3865-.9018.5321-.361.158-.738.277-1.1243.3547-.43.0905-.8683.1348-1.3077.1323-.7149.0072-1.4261-.1045-2.1043-.3307-.6022-.201-1.1603-.5152-1.6444-.9259-.4636-.3923-.835-.8822-1.0875-1.4345-.2525-.5524-.3801-1.1537-.3735-1.761 0-1.5693.5852-2.7827 1.7556-3.6405s2.918-1.2876 5.2428-1.2896h2.1343v-.8778c.0151-.3179-.0401-.6352-.1617-.9293s-.3066-.5578-.5417-.7722c-.4659-.4179-1.1423-.6253-2.0231-.6253-.7816 0-1.3498.1653-1.7075.502-.1809.1723-.3226.3814-.4154.6133-.0929.2319-.1347.481-.1227.7305h-3.8269c-.0007-.6257.1433-1.243.4209-1.8037.2919-.5861.7109-1.0996 1.2265-1.5031.5881-.4593 1.2555-.8067 1.969-1.0251.8618-.2695 1.7606-.4014 2.6635-.3908.8499-.0064 1.6967.1049 2.5161.3307.7277.1978 1.4119.5302 2.0172.98.5751.4309 1.038.9939 1.3497 1.6413.3346.7122.5003 1.492.484 2.2787v6.3911c-.0103.6646.04 1.3287.1503 1.9841.0838.4683.2325.9226.442 1.3497v.2345zm-3.6525-2.6875c.3591.002.7169-.0435 1.0642-.1353.3134-.0851.6161-.2062.9018-.3607.2516-.1346.4833-.3036.6884-.502.177-.1685.3298-.3607.4539-.5712v-2.5613h-1.951c-.5143-.0095-1.0277.0481-1.5271.1714-.3723.0897-.7235.251-1.0341.475-.2598.1941-.4665.4505-.6012.7455-.1305.2974-.1961.6192-.1924.9439-.0056.2419.0412.4821.1372.7042s.2389.4208.4189.5825c.3627.3407.9099.51 1.6414.508z"/><path clip-rule="evenodd" d="m20 2.90241c-9.4427 0-17.09756 7.65479-17.09756 17.09759 0 9.4427 7.65486 17.0975 17.09756 17.0975s17.0975-7.6548 17.0975-17.0975c0-9.4428-7.6548-17.09759-17.0975-17.09759zm-19.99850464 17.09759c0-11.0449 8.95363464-19.99853516 19.99850464-19.99853516 11.0449 0 19.9985 8.95363516 19.9985 19.99853516 0 11.0448-8.9536 19.9985-19.9985 19.9985-11.04487 0-19.99850464-8.9537-19.99850464-19.9985z" fill-rule="evenodd"/></g></svg>