<svg fill="none" viewBox="0 0 378 378" xmlns="http://www.w3.org/2000/svg" xmlns:xlink="http://www.w3.org/1999/xlink"><mask id="a" height="55" maskUnits="userSpaceOnUse" width="55" x="205" y="109"><path d="m232.83 163.46a27.13 27.13 0 1 0 -27.14-27.13 27.13 27.13 0 0 0 27.14 27.13z" fill="#fff"/></mask><mask id="b" height="49" maskUnits="userSpaceOnUse" width="49" x="4" y="151"><path d="m28.49 199.13a23.86 23.86 0 0 0 23.84-23.88 23.86 23.86 0 0 0 -23.84-23.88 23.86 23.86 0 0 0 -23.84 23.88 23.86 23.86 0 0 0 23.84 23.88z" fill="#fff"/></mask><mask id="c" height="44" maskUnits="userSpaceOnUse" width="43" x="175" y="258"><path d="m196.53 301.43a21.38 21.38 0 1 0 .01-42.76 21.38 21.38 0 0 0 -.01 42.76z" fill="#fff"/></mask><path clip-rule="evenodd" d="m189 20c93.34 0 169 75.66 169 169s-75.66 169-169 169-169-75.66-169-169 75.66-169 169-169zm101.4 129.57h-202.8v120.55c0 11.2 9.08 20.28 20.28 20.28h162.24c11.2 0 20.28-9.08 20.28-20.28v-47.32h-32.75l-.38.76a76.64 76.64 0 0 1 -143.14-17.66h176.27zm-52.2 73.23h-98.65l.32.47a59.64 59.64 0 0 0 49 25.57 59.65 59.65 0 0 0 49.32-26.04zm-92.58-59.71a31.55 31.55 0 0 1 31.23 27.04h-17.29l-.06-.21a14.65 14.65 0 0 0 -27.82.2h-17.28l.06-.45a31.55 31.55 0 0 1 31.16-26.58zm86.76 0a31.55 31.55 0 0 1 31.22 27.04h-17.28l-.07-.21a14.65 14.65 0 0 0 -27.81.2h-17.3l.08-.45a31.55 31.55 0 0 1 31.16-26.58zm37.74-75.49h-162.24a20.28 20.28 0 0 0 -20.28 20.28v24.79h202.8v-24.79c0-11.2-9.08-20.28-20.28-20.28z" fill="#f6f9ff" fill-rule="evenodd"/><path d="m123.47 123h-66.46a5.01 5.01 0 0 0 -5.01 5.01v134.21a5.01 5.01 0 0 0 5.01 5.02h66.46a5.01 5.01 0 0 0 5.01-5.02v-134.2a5.01 5.01 0 0 0 -5-5.02z" fill="#214357"/><path d="m123.83 137.47h-67.18v115.3h67.18z" fill="#dbfffe"/><path d="m104.83 132.3h-21.43c-.79 0-1.43-.57-1.43-1.29 0-.71.64-1.29 1.43-1.29h21.43c.8 0 1.43.58 1.43 1.3 0 .7-.64 1.29-1.43 1.29z" fill="#2d5b75"/><path d="m76.03 133.34a2.33 2.33 0 1 0 0-4.65 2.33 2.33 0 0 0 0 4.65z" fill="#356975"/><path d="m94.9 260a4.65 4.65 0 1 1 -9.31 0 4.65 4.65 0 0 1 9.3 0z" fill="#2d5b75"/><path d="m95.42 154.54h-31.66a1.53 1.53 0 0 0 -1.54 1.54v.76l-3.5 2.03 3.5 2.03v.89a1.54 1.54 0 0 0 1.54 1.53h31.66c.85 0 1.54-.68 1.54-1.53v-5.72c0-.85-.69-1.53-1.54-1.53z" fill="#fff"/><path d="m84.02 175.73h31.66c.85 0 1.55-.69 1.55-1.54v-.77l3.5-2.02-3.53-2.03v-.88c0-.86-.69-1.55-1.54-1.55h-31.64c-.84 0-1.53.7-1.53 1.55v5.7c0 .85.69 1.54 1.53 1.54zm0 11.37h31.66c.85 0 1.55-.69 1.55-1.54v-.76l3.5-2.03-3.53-2.03v-.88c0-.85-.69-1.54-1.54-1.54h-31.64c-.84 0-1.53.69-1.53 1.54v5.71c0 .85.69 1.53 1.53 1.54z" fill="#a7f0ef"/><path d="m108.96 191.76h-44.53a2.48 2.48 0 0 0 -2.46 2.5v.06l-3.77 2.2 3.77 2.19v6.57c0 1.38 1.1 2.5 2.46 2.5h44.53a2.49 2.49 0 0 0 2.47-2.5v-11.03c-.01-1.38-1.11-2.5-2.47-2.5z" fill="#fff"/><path d="m70.48 222.26h44.54a2.48 2.48 0 0 1 2.46 2.5v.06l3.77 2.2-3.77 2.18v6.58a2.5 2.5 0 0 1 -2.46 2.5h-44.54c-.65 0-1.28-.26-1.74-.73a2.53 2.53 0 0 1 -.72-1.78v-11c0-.67.26-1.3.72-1.78a2.44 2.44 0 0 1 1.74-.73z" fill="#a7f0ef"/><path d="m95.9 210.89h-31.93c-.85 0-1.55.68-1.55 1.53v.72l-3.71 2.14 3.7 2.14v.71c0 .86.7 1.55 1.56 1.55h31.94c.41 0 .8-.17 1.1-.46.3-.28.46-.68.46-1.09v-5.7a1.54 1.54 0 0 0 -1.59-1.54z" fill="#fff"/><path d="m123.83 137.47h-67.18v11.9h67.18z" fill="#a7f0ef"/><path d="m123.83 243.46h-67.18v9.3h67.18z" fill="#fff"/><path d="m56.65 252.76v-29l49.88-86.28h17.3l-67.18 115.27zm34.62-114.76h-17.6l-17.03 28.6v30.83z" fill="#fff" opacity=".2"/><path d="m132.93 286.1v3.56a4.37 4.37 0 0 0 4.36 4.37h208.27a4.36 4.36 0 0 0 4.36-4.37v-3.55h-216.99z" fill="#999"/><path d="m345.87 289.51a4.35 4.35 0 0 0 4.16-5.62l-13.54-44.53a4.34 4.34 0 0 0 -4.15-3.09h-181.02a4.36 4.36 0 0 0 -4.15 3.07l-13.73 44.53a4.36 4.36 0 0 0 4.15 5.64z" fill="#e5e3e4"/><path d="m154.24 242.76h174.13l6.1 23.9h-185.49l5.25-23.9z" fill="#c3c3c3"/><path clip-rule="evenodd" d="m242.44 114.16a1.09 1.09 0 1 1 -2.17 0 1.09 1.09 0 0 1 2.17 0zm-85.32 3.62h167.77a3.24 3.24 0 0 1 3.23 3.24v7.35h-174.26v-7.35a3.24 3.24 0 0 1 3.26-3.24z" stroke="#000"/><path d="m167.78 120.44h-8.38v5.29h8.38zm76.94.72h-72.62v4.08h72.62zm-33.69 11.53h-54.51v96.03h54.51zm114.54 32.65h-41.23v63.38h41.23zm0-32.65h-41.23v28h41.23zm-44.38 0h-67v21.12h67v-21.13zm0 24.34h-67v21.13h67zm0 24.35h-67v21.13h67zm0 24.34h-67v21.13h67z" stroke="#000"/><path d="m330 109.72h-178a4.72 4.72 0 0 0 -4.72 4.72v118.04c0 2.6 2.11 4.72 4.71 4.72h178.02c2.6 0 4.71-2.11 4.71-4.72v-118.04c0-2.6-2.11-4.72-4.71-4.72z" fill="#2f3356"/><path d="m326.18 117.34h-170.36c-1.07 0-1.94.87-1.94 1.94v111.14c0 1.07.87 1.94 1.94 1.94h170.36c1.07 0 1.94-.87 1.94-1.94v-111.14c0-1.07-.87-1.94-1.94-1.94z" fill="#fff"/><path d="m314.96 236.86h-147.18v2.16h147.18z" fill="#232323"/><path d="m269.5 285.24h-56.15a2.81 2.81 0 0 1 -2.8-3.03l.68-8.73a2.8 2.8 0 0 1 2.81-2.59l54.9.24c1.48 0 2.7 1.15 2.8 2.63l.56 8.48a2.82 2.82 0 0 1 -2.8 3z" fill="#c3c3c3"/><path d="m167.47 243.79h-9.38c-.24 0-.43.2-.43.43v1.1c0 .25.2.44.44.44h9.38c.24 0 .43-.19.43-.43v-1.1c0-.25-.2-.44-.44-.44zm3.79 7.93h-14.78a.64.64 0 0 0 -.63.63v1.97c0 .35.28.64.63.64h14.78c.35 0 .64-.29.64-.64v-1.97a.64.64 0 0 0 -.64-.63zm13.54 4.67h-8.98a.64.64 0 0 0 -.63.63v1.98c0 .36.28.64.63.64h8.98c.35 0 .64-.28.64-.64v-1.97a.64.64 0 0 0 -.64-.63zm80.66 4.71h-57.28a.64.64 0 0 0 -.64.63v2.33c0 .35.29.64.64.64h57.28c.35 0 .63-.29.63-.64v-2.33a.64.64 0 0 0 -.63-.64zm-69.92-9.38h-8.98a.64.64 0 0 0 -.63.63v1.97c0 .35.28.64.63.64h8.98c.35 0 .64-.29.64-.64v-1.97a.64.64 0 0 0 -.64-.63zm12.02 0h-8.99a.64.64 0 0 0 -.63.63v1.97c0 .35.28.64.63.64h8.99c.35 0 .63-.29.63-.64v-1.97a.64.64 0 0 0 -.63-.63zm12.01 0h-8.98a.64.64 0 0 0 -.64.63v1.97c0 .35.28.64.64.64h8.98c.35 0 .63-.29.63-.64v-1.97a.64.64 0 0 0 -.63-.63zm84.07 0h-8.98a.64.64 0 0 0 -.64.63v1.97c0 .35.29.64.64.64h8.98c.35 0 .63-.29.63-.64v-1.97a.64.64 0 0 0 -.63-.63zm12.01 0h-8.98a.64.64 0 0 0 -.64.63v1.97c0 .35.29.64.64.64h8.98c.35 0 .64-.29.64-.64v-1.97a.64.64 0 0 0 -.64-.63zm3.51.17h7.16c.45 0 .8.36.8.8v6.03a.8.8 0 0 1 -.8.8h-7.16a.8.8 0 0 1 -.8-.8v-6.03c0-.44.36-.8.8-.8zm-104.72-4.6h-8.98a.64.64 0 0 0 -.64.63v1.97c0 .35.28.64.64.64h8.98c.35 0 .63-.29.63-.64v-1.97a.64.64 0 0 0 -.63-.63zm3.2-.03h8.65c.44 0 .8.36.8.8v1.63a.8.8 0 0 1 -.8.8h-8.65a.8.8 0 0 1 -.8-.8v-1.63c0-.44.36-.8.8-.8zm-26.14-3.47h-9.38c-.24 0-.44.2-.44.43v1.1c0 .25.2.44.44.44h9.38c.24 0 .44-.19.44-.43v-1.1c0-.25-.2-.44-.44-.44zm24.02 0h-9.38c-.24 0-.44.2-.44.43v1.1c0 .25.2.44.44.44h9.38c.24 0 .43-.19.43-.43v-1.1c0-.25-.2-.44-.43-.44zm60.05 0h-9.38c-.24 0-.44.2-.44.43v1.1c0 .25.2.44.44.44h9.38c.24 0 .44-.19.44-.43v-1.1c0-.25-.2-.44-.44-.44zm12.01 0h-9.38c-.24 0-.43.2-.43.43v1.1c0 .25.2.44.43.44h9.38c.24 0 .44-.19.44-.43v-1.1c0-.25-.2-.44-.44-.44zm24.02 0h-9.37c-.24 0-.44.2-.44.43v1.1c0 .25.2.44.44.44h9.38c.24 0 .43-.19.43-.43v-1.1c0-.25-.2-.44-.43-.44zm12.02 0h-9.38c-.24 0-.44.2-.44.43v1.1c0 .25.2.44.44.44h9.38c.24 0 .44-.19.44-.43v-1.1c0-.25-.2-.44-.44-.44zm-156.91 3.5h-8.98a.64.64 0 0 0 -.64.63v1.97c0 .35.29.64.64.64h8.98c.35 0 .64-.29.64-.64v-1.97a.64.64 0 0 0 -.64-.63zm0 13.98h-12.2a.64.64 0 0 0 -.63.64v1.97c0 .35.29.63.64.63h12.2c.34 0 .63-.28.63-.63v-1.97a.64.64 0 0 0 -.64-.64zm5.54-4.88h-16.75a.64.64 0 0 0 -.63.63v1.98c0 .36.28.64.63.64h16.75c.35 0 .63-.28.63-.64v-1.97a.64.64 0 0 0 -.63-.63zm6.15-9.1h-8.97a.64.64 0 0 0 -.64.63v1.97c0 .35.28.64.64.64h8.98c.35 0 .63-.29.63-.64v-1.97a.64.64 0 0 0 -.63-.63zm5 4.43h-8.98a.64.64 0 0 0 -.63.63v1.97c0 .35.28.64.63.64h8.98c.35 0 .64-.29.64-.64v-1.97a.64.64 0 0 0 -.64-.63zm-5 9.55h-8.97a.64.64 0 0 0 -.64.64v1.97c0 .35.28.63.64.63h8.98c.35 0 .63-.28.63-.63v-1.97a.64.64 0 0 0 -.63-.64zm12.17 0h-8.98a.64.64 0 0 0 -.63.64v1.97c0 .35.28.63.63.63h8.98c.35 0 .64-.28.64-.63v-1.97a.64.64 0 0 0 -.64-.64zm3.87 0h8.65c.44 0 .8.36.8.8v1.63a.8.8 0 0 1 -.8.8h-8.65a.8.8 0 0 1 -.8-.8v-1.63c0-.44.36-.8.8-.8zm76.11 0h8.64c.45 0 .8.36.8.8v1.63a.8.8 0 0 1 -.8.8h-8.64a.8.8 0 0 1 -.8-.8v-1.63c0-.44.36-.8.8-.8zm21.5 0h-8.99a.64.64 0 0 0 -.63.64v1.97c0 .35.28.63.63.63h8.99c.35 0 .63-.28.63-.63v-1.97a.64.64 0 0 0 -.63-.64zm10.08 0h-7a.64.64 0 0 0 -.64.64v1.97c0 .35.28.63.63.63h7.01c.36 0 .64-.28.64-.63v-1.97a.64.64 0 0 0 -.63-.64zm-105.32-4.88h-8.98a.64.64 0 0 0 -.63.63v1.98c0 .36.28.64.63.64h8.98c.35 0 .64-.28.64-.64v-1.97a.64.64 0 0 0 -.64-.63zm12.01 0h-8.98a.64.64 0 0 0 -.63.63v1.98c0 .36.28.64.63.64h8.98c.36 0 .64-.28.64-.64v-1.97a.64.64 0 0 0 -.64-.63zm3.2 0h8.65c.44 0 .8.36.8.8v1.63a.8.8 0 0 1 -.8.8h-8.65a.8.8 0 0 1 -.8-.8v-1.64c0-.44.36-.79.8-.8zm20.82 0h-8.98a.64.64 0 0 0 -.63.63v1.98c0 .36.28.64.63.64h8.98c.35 0 .64-.28.64-.64v-1.97a.64.64 0 0 0 -.64-.63zm12.02 0h-8.99a.64.64 0 0 0 -.63.63v1.98c0 .36.28.64.63.64h8.99c.35 0 .63-.28.63-.64v-1.97a.64.64 0 0 0 -.63-.63zm3.19 0h8.65c.44 0 .8.36.8.8v1.64a.8.8 0 0 1 -.8.8h-8.65a.8.8 0 0 1 -.8-.8v-1.65c0-.44.36-.8.8-.8zm20.83 0h-8.98a.64.64 0 0 0 -.64.63v1.98c0 .36.29.64.64.64h8.98c.35 0 .63-.28.63-.64v-1.97a.64.64 0 0 0 -.63-.63zm12.01 0h-8.99a.64.64 0 0 0 -.63.63v1.98c0 .36.28.64.63.64h8.99c.35 0 .63-.28.63-.64v-1.97a.64.64 0 0 0 -.63-.63zm12.01 0h-8.98a.64.64 0 0 0 -.64.63v1.98c0 .36.29.64.64.64h8.98c.35 0 .63-.28.63-.64v-1.97a.64.64 0 0 0 -.63-.63zm12.01 0h-8.98a.64.64 0 0 0 -.64.63v1.98c0 .36.29.64.64.64h8.98c.35 0 .63-.28.63-.64v-1.97a.64.64 0 0 0 -.63-.63zm3.09 0h7.83c.44 0 .8.36.8.8v1.63a.8.8 0 0 1 -.8.8h-7.83a.8.8 0 0 1 -.8-.8v-1.64c0-.44.37-.8.8-.8zm-76.42-4.67h-8.98a.64.64 0 0 0 -.64.63v1.97c0 .35.29.64.64.64h8.98c.35 0 .63-.29.63-.64v-1.97a.64.64 0 0 0 -.63-.63zm3.19 0h8.65c.44 0 .8.36.8.8v1.63a.8.8 0 0 1 -.8.8h-8.65a.8.8 0 0 1 -.8-.8v-1.64c.01-.44.37-.79.8-.8zm20.83 0h-8.98a.64.64 0 0 0 -.64.63v1.97c0 .35.28.64.64.64h8.98c.35 0 .63-.29.63-.64v-1.97a.64.64 0 0 0 -.63-.63zm12 0h-8.97a.64.64 0 0 0 -.64.63v1.97c0 .35.29.64.64.64h8.98c.35 0 .63-.29.63-.64v-1.97a.64.64 0 0 0 -.63-.63zm3.2 0h8.65a.8.8 0 0 1 .83.8v1.63a.8.8 0 0 1 -.8.8h-8.68a.8.8 0 0 1 -.8-.8v-1.64c0-.44.36-.8.8-.8zm20.83 0h-8.98a.64.64 0 0 0 -.63.63v1.97c0 .35.28.64.63.64h8.98c.35 0 .64-.29.64-.64v-1.97a.64.64 0 0 0 -.64-.63zm37.89 9.01h-24.61a.64.64 0 0 0 -.64.63v3.41c0 .35.29.64.64.64h24.61c.35 0 .64-.29.64-.64v-3.4a.64.64 0 0 0 -.64-.64zm-139.1-13.44h-8.98a.64.64 0 0 0 -.64.63v1.97c0 .35.29.64.64.64h8.98c.35 0 .64-.29.64-.64v-1.97a.64.64 0 0 0 -.64-.63zm12.01 0h-8.98a.64.64 0 0 0 -.63.63v1.97c0 .35.28.64.63.64h8.98c.35 0 .64-.29.64-.64v-1.97a.64.64 0 0 0 -.64-.63zm36.03 0h-8.98a.64.64 0 0 0 -.63.63v1.97c0 .35.28.64.63.64h8.98c.35 0 .64-.29.64-.64v-1.97a.64.64 0 0 0 -.64-.63zm12.01 0h-8.98a.64.64 0 0 0 -.63.63v1.97c0 .35.28.64.63.64h8.98c.35 0 .64-.29.64-.64v-1.97a.64.64 0 0 0 -.64-.63zm12.02 0h-8.99a.64.64 0 0 0 -.63.63v1.97c0 .35.28.64.63.64h8.99c.35 0 .63-.29.63-.64v-1.97a.64.64 0 0 0 -.63-.63zm12.01 0h-8.99a.64.64 0 0 0 -.63.63v1.97c0 .35.28.64.63.64h8.98c.35 0 .64-.29.64-.64v-1.97a.64.64 0 0 0 -.64-.63zm12 0h-8.98a.64.64 0 0 0 -.63.63v1.97c0 .35.28.64.63.64h8.98c.36 0 .64-.29.64-.64v-1.97a.64.64 0 0 0 -.64-.63zm12.02 0h-8.99a.64.64 0 0 0 -.63.63v1.97c0 .35.28.64.63.64h8.99c.35 0 .63-.29.63-.64v-1.97a.64.64 0 0 0 -.63-.63zm3.19-.03h22.63c.44 0 .8.36.8.8v1.63a.8.8 0 0 1 -.8.8h-22.64a.8.8 0 0 1 -.8-.8v-1.63c0-.44.36-.8.8-.8zm-122.22-3.47h-9.38c-.24 0-.44.2-.44.43v1.1c0 .25.2.44.44.44h9.38c.24 0 .43-.19.43-.43v-1.1c0-.25-.2-.44-.43-.44zm24.02 0h-9.38c-.24 0-.44.2-.44.43v1.1c0 .25.2.44.44.44h9.38c.24 0 .44-.19.44-.43v-1.1c0-.25-.2-.44-.44-.44zm24.02 0h-9.38c-.24 0-.44.2-.44.43v1.1c0 .25.2.44.44.44h9.38c.24 0 .44-.19.44-.43v-1.1c0-.25-.2-.44-.44-.44zm12.01 0h-9.38c-.24 0-.44.2-.44.43v1.1c0 .25.2.44.44.44h9.38c.24 0 .44-.19.44-.43v-1.1c0-.25-.2-.44-.44-.44zm12.01 0h-9.38c-.24 0-.43.2-.43.43v1.1c0 .25.2.44.43.44h9.38c.24 0 .44-.19.44-.43v-1.1c0-.25-.2-.44-.44-.44zm12.01 0h-9.38c-.24 0-.43.2-.43.43v1.1c0 .25.2.44.44.44h9.38c.24 0 .43-.19.43-.43v-1.1c0-.25-.2-.44-.44-.44zm36.04 0h-9.39c-.24 0-.43.2-.43.43v1.1c0 .25.2.44.44.44h9.38c.24 0 .43-.19.43-.43v-1.1c0-.25-.2-.44-.43-.44z" fill="#4d494a"/><path d="m155.82 117.34h170.36a1.94 1.94 0 0 1 1.94 1.94v8.53c0 .06-.05.12-.11.12h-174.01a.12.12 0 0 1 -.12-.12v-8.53a1.94 1.94 0 0 1 1.94-1.94z" fill="#4267b2"/><path d="m209.64 132.25h-51.73a1.4 1.4 0 0 0 -1.4 1.4v93.25c0 .76.63 1.39 1.4 1.39h51.73c.77 0 1.4-.63 1.4-1.4v-93.24c0-.77-.63-1.4-1.4-1.4zm114.54 32.65h-38.45c-.77 0-1.39.63-1.39 1.4v60.59c0 .77.62 1.4 1.4 1.4h38.44c.77 0 1.39-.63 1.39-1.4v-60.6c0-.76-.62-1.39-1.39-1.39z" fill="#d9e0f0"/><path d="m324.18 132.25h-38.45a1.4 1.4 0 0 0 -1.39 1.4v25.22c0 .77.62 1.4 1.4 1.4h38.44c.77 0 1.39-.63 1.39-1.4v-25.22c0-.77-.62-1.4-1.39-1.4zm-44.38 0h-64.23c-.77 0-1.39.63-1.39 1.4v18.34c0 .77.62 1.39 1.4 1.39h64.22a1.4 1.4 0 0 0 1.39-1.4v-18.33c0-.77-.62-1.4-1.4-1.4z" fill="#d2dfff"/><path d="m279.8 156.6h-64.23c-.77 0-1.39.63-1.39 1.4v18.34c0 .76.62 1.39 1.4 1.39h64.22c.77 0 1.39-.63 1.39-1.4v-18.33c0-.77-.62-1.39-1.4-1.39z" fill="#d9e0f0"/><path d="m279.8 180.94h-64.23c-.77 0-1.39.63-1.39 1.4v18.34c0 .77.62 1.4 1.4 1.4h64.22a1.4 1.4 0 0 0 1.39-1.4v-18.34c0-.77-.62-1.4-1.4-1.4z" fill="#d2dfff"/><path d="m279.8 205.3h-64.23c-.77 0-1.39.62-1.39 1.38v18.35c0 .77.62 1.39 1.4 1.39h64.22c.77 0 1.39-.62 1.39-1.4v-18.34c0-.76-.62-1.39-1.4-1.39z" fill="#d9e0f0"/><path d="m153.48 227.86v-13.5l56.36-97.63h19.55l-67.09 115.27-4.74-.02a4.11 4.11 0 0 1 -4.09-4.12zm39.24-110.1h-19.96l-19.28 32.35v34.85z" fill="#fff" opacity=".2"/><path d="m345.45 103.48c17.9 0 32.41 14.52 32.41 32.42v.59c0 17.9-14.5 32.42-32.4 32.42h-56.24l-11.3 11.37a3 3 0 0 1 -3.17.7l-.12-.05a3.03 3.03 0 0 1 -1.86-2.8v-9.22h-41.36a32.42 32.42 0 0 1 -32.41-32.41v-.59c0-17.9 14.5-32.42 32.4-32.42h114.05z" fill="#ef278b"/><g mask="url(#a)"><path d="m259.94 136.33c0-15-12.14-27.16-27.11-27.16a27.13 27.13 0 0 0 -27.11 27.16c0 15 12.14 27.16 27.1 27.16a27.13 27.13 0 0 0 27.12-27.16z" fill="#ff53aa"/><path d="m241.65 136.64a8.9 8.9 0 0 1 -1.57 2.93c-.47.46-1.02.84-1.63 1.1l1.6-4.33zm-17.32 0a8.88 8.88 0 0 0 1.57 2.93c.47.46 1.03.84 1.64 1.1l-1.6-4.33z" fill="#75472b"/><path d="m248.93 156.62c-1.37-7.48-2.5-11.25-10.9-11.6l-5.17 6.37-5.18-6.37c-8.4.35-9.53 4.12-10.9 11.6-.5 3.18-.8 6.39-.88 9.6h33.95c-.1-3.21-.4-6.42-.92-9.6z" fill="#fff"/><path d="m237.12 143.4v-5.62h-8.6v5.63c0 1.3-.33 1.48-.9 1.69.93 1.62 2.32 8.55 5.33 8.55 3 0 4.12-6.95 5.05-8.55-.56-.2-.88-.4-.88-1.7zm3.91-6.34c1.28.26 2.37-1.49 2.37-3.34 0-1.03-.67-2.22-1.71-1.97-.77.17-1.37.77-1.54 1.54v2.85c.11.44.45.79.88.92z" fill="#ffd08a"/><path d="m240.74 136.64c.86.2 1.59-1.13 1.59-2.52 0-.78-.45-1.68-1.15-1.5-.53.17-.93.62-1.03 1.17v2.18s.14.56.6.67z" fill="#f5b67f"/><path d="m225.05 137.06c-1.28.26-2.37-1.49-2.37-3.34 0-1.03.67-2.22 1.72-1.97.76.17 1.36.77 1.53 1.54v2.85c-.1.44-.44.8-.88.92z" fill="#ffd08a"/><path d="m225.34 136.64c-.85.2-1.58-1.13-1.58-2.52 0-.78.45-1.68 1.14-1.5.54.17.94.62 1.03 1.17v2.18s-.13.56-.59.67zm7.49 1.2h-4.27v4.13a6.74 6.74 0 0 0 5.22 2.4c1.17 0 2.33-.3 3.36-.87v-5.7z" fill="#f5b67f"/><path d="m239.24 125.9c-2.46-1.74-9.96-1.74-12.38 0-1.94 1.37-2.8 6.26-1.67 10.07 1.38 4.6 3.63 7.6 7.82 7.7 4.23-.1 6.49-3.1 7.83-7.7 1.19-3.81.33-8.7-1.6-10.07z" fill="#ffd08a"/><path d="m236.37 166.25h-7.08l1.6-13.73h3.89z" fill="#8a1c1c"/><path d="m232.08 149.5h1.54l1.46 3.7a.62.62 0 0 1 -.6.84l-3.3-.05a.61.61 0 0 1 -.57-.85z" fill="#661515"/><path d="m229.74 147c1.65 1.67 2.39 2.45 2.39 2.45s-1.08 4.16-1.8 3.46c-.71-.7-4.4-5.91-3.49-7.84.19-.4 1.63-.8 1.63-.8.1 1.03.55 2 1.27 2.74zm6.19 0c-1.66 1.67-2.39 2.45-2.39 2.45s1.07 4.16 1.78 3.46c.72-.7 4.41-5.91 3.5-7.84-.18-.4-1.63-.8-1.63-.8-.1 1.03-.54 2-1.26 2.74z" fill="#ebebeb"/><path d="m224.65 132.17v1.1c0 .38.17 1.36.17 1.36s1.47-3.25 3.52-4.03c2.04-.78 3.85-1.06 5.24-1.96.85-.55 1.76-1.03 2.7-1.42 0 0 2.13 3.56 2.8 3.72s.93.77 1.24 1.49c.3.72.78 2.61.78 2.61.2-.6.34-1.21.42-1.84v-1.38c.16-.03.33-.03.49 0l.34.05c.2-1.53.2-3.07 0-4.59-.32-1.75-1.42-5.91-4.78-5.6-.65.05-1.53-2.08-7.4-.86a7.71 7.71 0 0 0 -5.6 4.42c-.66 1.43-.7 6.55-.7 6.55l.4.16c.13.05.26.12.38.22z" fill="#75472b"/><path d="m232.92 166.25h16.93c-.1-3.23-.4-6.44-.92-9.63-1.17-6.4-2.17-10.1-7.75-11.24-1.27 3.9-4.65 12.73-8.35 12.78-3.7-.05-7.07-8.87-8.35-12.77-5.53 1.15-6.53 4.82-7.7 11.23-.5 3.18-.8 6.39-.88 9.6h17.02z" fill="#408733"/><path d="m259.94 136.33c0-15-12.14-27.16-27.11-27.16-.04.45-.04 54.58 0 54.32a27.13 27.13 0 0 0 27.1-27.16z" fill="#000" opacity=".1"/></g><path d="m313.24 132.14c0-4.01-3.01-7.4-7.04-7.89a7.92 7.92 0 0 0 -3.81 15.3l-1.16 8.47h8l-1.16-8.47a7.94 7.94 0 0 0 5.17-7.4z" fill="#ff53aa"/><path d="m104.58 146.71c15.62.01 28.27 12.8 28.27 28.58v.47a28.54 28.54 0 0 1 -20.19 26.89v9.26a2.6 2.6 0 0 1 -4.48 1.87l-9.83-9.95h-70.07c-15.45 0-28.01-12.52-28.28-28.07v-.94c.25-15.57 12.82-28.1 28.28-28.1h76.3z" fill="#8f57cc"/><path d="m88.4 171.75c0-4.01-3.02-7.4-7.04-7.89a7.92 7.92 0 0 0 -3.81 15.3l-1.17 8.47h8.01l-1.16-8.47a7.94 7.94 0 0 0 5.17-7.4z" fill="#b87dff"/><g mask="url(#b)"><path d="m28.49 199.13a23.86 23.86 0 0 0 23.84-23.88 23.86 23.86 0 0 0 -23.84-23.88 23.86 23.86 0 0 0 -23.84 23.88 23.86 23.86 0 0 0 23.84 23.88z" fill="#b87dff"/><path d="m37.21 183.93c-1.47-.03-2.87 1.44-1.88 5.03 2.15 8.3 2.2 11.2 2.2 11.2h4.25a60.93 60.93 0 0 1 -1.22-9.34c-.14-4.32-2.16-6.85-3.35-6.89zm-17.4 0c1.48-.03 2.87 1.44 1.9 5.03-2.16 8.3-2.23 11.2-2.23 11.2h-4.23c.65-3.08 1.06-6.2 1.22-9.34.13-4.32 2.15-6.85 3.34-6.89z" fill="#ffd48f"/><path d="m33.29 181.92s-3.37 3.51-4.87 3.5c-1.5-.02-4.75-3.5-4.75-3.5a7.17 7.17 0 0 0 -7.4 7v.29c.01.12.1.21.23.22 1.1.18 4.2 2.35 4.2 2.35v8.43l15.42-.04v-8.44s3.23-2.07 4.25-2.33c.12-.03.23-.1.23-.22v-.25c.29-3.87-3.24-7.01-7.31-7.01z" fill="#ffa347"/><path d="m31.79 180.64v-4.57h-7v4.57c0 1.06-1.34 1.22-1.8 1.39-.48 2.67 2.82 4.69 5.28 4.69 2.47 0 5.64-2.34 5.31-4.7-.46-.16-1.79-.33-1.79-1.38z" fill="#ffd48f"/><path d="m31.85 180.98a.98.98 0 0 1 -.06-.34v-4.57h-7v3.17a5.02 5.02 0 0 0 4.5 2.43c.9 0 1.78-.24 2.56-.7z" fill="#f5c476"/><path d="m33.41 166.29c-1.95-1.44-7.9-1.44-9.84 0-1.55 1.11-2.23 5.08-1.32 8.17 1.08 3.73 2.87 6.17 6.24 6.24 3.36-.07 5.15-2.51 6.23-6.24.92-3.1.2-7.06-1.3-8.17z" fill="#ffd48f"/><path d="m30.62 167.35s2.4 2.22 2.76 3.2c.5 1.39.38 5.85.38 5.85l2.04-3.9c.2-1.14.23-2.3.09-3.46-1.44-9.72-14.55-8.26-15.07 0-.02 1.16.02 2.32.13 3.47l1.96 3.4s-1.43-5.19 0-5.43c3.55-.56 7.71-3.13 7.71-3.13z" fill="#8f6135"/><path d="m21 168.37s-1.43 5.96-1.56 8.1c-.4 5.74 5.8 4 5.12 2.56a50.05 50.05 0 0 1 -3.56-10.66zm14.7-.05s1.44 5.96 1.56 8.08c.4 5.75-6 4.2-5.2 2.8a32.93 32.93 0 0 0 3.64-10.88z" fill="#8f6135"/><path d="m28.47 151.37v47.76a23.86 23.86 0 0 0 23.83-23.88 23.86 23.86 0 0 0 -23.83-23.88z" fill="#000" opacity=".1"/></g><path d="m285.87 254a25.78 25.78 0 0 1 25.77 25.79v.34a25.78 25.78 0 0 1 -25.77 25.8h-83.07l-8.93 9c-.66.66-1.63.87-2.5.56l-.1-.04a2.4 2.4 0 0 1 -1.48-2.23v-8a25.8 25.8 0 0 1 -19.79-25.08v-.34a25.78 25.78 0 0 1 25.78-25.8z" fill="#08c989"/><path d="m262.01 276.45c.01-4.01-3.01-7.4-7.03-7.89a7.92 7.92 0 0 0 -3.81 15.3l-1.17 8.46h8l-1.16-8.46a7.94 7.94 0 0 0 5.18-7.41z" fill="#229e79"/><g mask="url(#c)"><path d="m217.89 280.06c0-11.82-9.56-21.4-21.36-21.4a21.38 21.38 0 0 0 -21.36 21.4c0 11.82 9.56 21.4 21.36 21.4s21.36-9.58 21.36-21.4z" fill="#26af87"/><path d="m190.01 272.6s-1.26 7.83-1.43 10.63c-.36 7.58 5.36 3.78 5.63 1.81.16-1.15-1.47-1.52-1.66-4-.27-3.82-2.54-8.44-2.54-8.44zm13.2 0s1.27 7.83 1.44 10.63c.36 7.58-5.36 3.78-5.63 1.81-.16-1.15 2-1.5 2.19-3.98.33-2.89 1-5.73 2-8.46z" fill="#8f6135"/><path d="m208.1 302.38h-3.32l-2.25-9.14 2.25-6.44s3.31 1.85 3.18 7.57c-.08 3.14.13 8 .13 8zm-23.13 0h3.3l2.25-9.14-2.24-6.44s-3.3 1.85-3.18 7.57c.07 3.14-.13 8-.13 8z" fill="#ffc975"/><path d="m201.12 285.94h-9.19c-1.26.08-2.5.37-3.66.83.36 2.07.6 4.16.71 6.26v9.35h15.11v-9.35c.12-2.1.36-4.19.72-6.26a12.01 12.01 0 0 0 -3.7-.83z" fill="#fff"/><path d="m199.68 284.89v-4.1h-6.28v4.1c0 .94-1.2 1.09-1.6 1.24a5.72 5.72 0 0 0 9.48 0c-.41-.15-1.6-.32-1.6-1.24z" fill="#ffc975"/><path d="m199.72 285.2a1 1 0 0 1 -.04-.31v-4.1h-6.28v2.88a4.5 4.5 0 0 0 4.04 2.14c.8 0 1.59-.22 2.28-.62z" fill="#ebb159"/><path d="m200.98 272.03c-1.68-1.26-6.8-1.26-8.48 0-1.32 1-1.9 4.55-1.13 7.32.93 3.34 2.48 5.52 5.37 5.59 2.9-.06 4.44-2.25 5.38-5.59.74-2.77.16-6.32-1.14-7.32z" fill="#ffc975"/><path d="m193.07 272.7c1.88.82 3.8 1.54 5.77 2.15 1.34.35 2.14.38 2.76 1.03.48.54.2 5.32.2 5.32l1.65-2.96c.08-1.61.05-3.23-.08-4.84-1.28-8.7-13.05-7.4-13.48 0-.02 1.05.02 2.1.12 3.13l1.28 4.83s-.38-5.66.5-6.66c.55-.58.99-1.26 1.28-2z" fill="#8f6135"/><path d="m217.89 280.06c0-11.82-9.56-21.4-21.36-21.4.16-.07.16 42.91 0 42.8 11.8 0 21.36-9.58 21.36-21.4z" fill="#000" opacity=".1"/></g></svg>