<svg fill="none" xmlns="http://www.w3.org/2000/svg" viewBox="0 0 378 378"><path fill-rule="evenodd" clip-rule="evenodd" d="M189 20c93.34 0 169 75.66 169 169s-75.66 169-169 169S20 282.34 20 189 95.66 20 189 20zm101.4 129.57H87.6v120.55c0 11.2 9.08 20.28 20.28 20.28h162.24c11.2 0 20.28-9.08 20.28-20.28V222.8h-32.75l-.38.76a76.64 76.64 0 01-143.14-17.66H290.4v-56.33zm-52.2 73.23h-98.65l.32.47a59.64 59.64 0 0049 25.57 59.65 59.65 0 0049.32-26.04zm-92.58-59.71a31.55 31.55 0 0131.23 27.04h-17.29l-.06-.21a14.65 14.65 0 00-27.82.2H114.4l.06-.45a31.55 31.55 0 0131.16-26.58zm86.76 0a31.55 31.55 0 0131.22 27.04h-17.28l-.07-.21a14.65 14.65 0 00-27.81.2h-17.3l.08-.45a31.55 31.55 0 0131.16-26.58zm37.74-75.49H107.88a20.28 20.28 0 00-20.28 20.28v24.79h202.8v-24.79c0-11.2-9.08-20.28-20.28-20.28z" fill="#F6F9FF"/><path d="M123.47 123H57.01a5.01 5.01 0 00-5.01 5.01v134.21a5.01 5.01 0 005.01 5.02h66.46a5.01 5.01 0 005.01-5.02v-134.2a5.01 5.01 0 00-5-5.02z" fill="#214357"/><path d="M123.83 137.47H56.65v115.3h67.18v-115.3z" fill="#DBFFFE"/><path d="M104.83 132.3H83.4c-.79 0-1.43-.57-1.43-1.29 0-.71.64-1.29 1.43-1.29h21.43c.8 0 1.43.58 1.43 1.3 0 .7-.64 1.29-1.43 1.29z" fill="#2D5B75"/><path d="M76.03 133.34a2.33 2.33 0 100-4.65 2.33 2.33 0 000 4.65z" fill="#356975"/><path d="M94.9 260a4.65 4.65 0 11-9.31 0 4.65 4.65 0 019.3 0z" fill="#2D5B75"/><path d="M95.42 154.54H63.76a1.53 1.53 0 00-1.54 1.54v.76l-3.5 2.03 3.5 2.03v.89a1.54 1.54 0 001.54 1.53h31.66c.85 0 1.54-.68 1.54-1.53v-5.72c0-.85-.69-1.53-1.54-1.53z" fill="#fff"/><path d="M84.02 175.73h31.66c.85 0 1.55-.69 1.55-1.54v-.77l3.5-2.02-3.53-2.03v-.88c0-.86-.69-1.55-1.54-1.55H84.02c-.84 0-1.53.7-1.53 1.55v5.7c0 .85.69 1.54 1.53 1.54zM84.02 187.1h31.66c.85 0 1.55-.69 1.55-1.54v-.76l3.5-2.03-3.53-2.03v-.88c0-.85-.69-1.54-1.54-1.54H84.02c-.84 0-1.53.69-1.53 1.54v5.71c0 .85.69 1.53 1.53 1.54z" fill="#A7F0EF"/><path d="M108.96 191.76H64.43a2.48 2.48 0 00-2.46 2.5v.06l-3.77 2.2 3.77 2.19v6.57c0 1.38 1.1 2.5 2.46 2.5h44.53a2.49 2.49 0 002.47-2.5v-11.03c-.01-1.38-1.11-2.5-2.47-2.5z" fill="#fff"/><path d="M70.48 222.26h44.54a2.48 2.48 0 012.46 2.5v.06l3.77 2.2-3.77 2.18v6.58a2.5 2.5 0 01-2.46 2.5H70.48c-.65 0-1.28-.26-1.74-.73a2.53 2.53 0 01-.72-1.78v-11c0-.67.26-1.3.72-1.78a2.44 2.44 0 011.74-.73z" fill="#A7F0EF"/><path d="M95.9 210.89H63.97c-.85 0-1.55.68-1.55 1.53v.72l-3.71 2.14 3.7 2.14v.71c0 .86.7 1.55 1.56 1.55h31.94c.41 0 .8-.17 1.1-.46.3-.28.46-.68.46-1.09v-5.7a1.54 1.54 0 00-1.59-1.54z" fill="#fff"/><path d="M123.83 137.47H56.65v11.9h67.18v-11.9z" fill="#A7F0EF"/><path d="M123.83 243.46H56.65v9.3h67.18v-9.3z" fill="#fff"/><path opacity=".2" d="M56.65 252.76v-29l49.88-86.28h17.3L56.65 252.75zM91.27 138h-17.6L56.64 166.6v30.83L91.27 138z" fill="#fff"/><path d="M132.93 286.1v3.56a4.37 4.37 0 004.36 4.37h208.27a4.36 4.36 0 004.36-4.37v-3.55H132.93z" fill="#999"/><path d="M345.87 289.51a4.35 4.35 0 004.16-5.62l-13.54-44.53a4.34 4.34 0 00-4.15-3.09H151.32a4.36 4.36 0 00-4.15 3.07l-13.73 44.53a4.36 4.36 0 004.15 5.64h208.28z" fill="#E5E3E4"/><path d="M154.24 242.76h174.13l6.1 23.9H148.98l5.25-23.9z" fill="#C3C3C3"/><path clip-rule="evenodd" d="M242.44 114.16a1.09 1.09 0 11-2.17 0 1.09 1.09 0 012.17 0zM157.12 117.78h167.77a3.24 3.24 0 013.23 3.24v7.35H153.86v-7.35a3.24 3.24 0 013.26-3.24z" stroke="#000"/><path d="M167.78 120.44h-8.38v5.29h8.38v-5.29zM244.72 121.16H172.1v4.08h72.62v-4.08zM211.03 132.69h-54.51v96.03h54.51v-96.03zM325.57 165.34h-41.23v63.38h41.23v-63.38zM325.57 132.69h-41.23v28h41.23v-28zM281.19 132.69h-67v21.12h67v-21.13zM281.19 157.03h-67v21.13h67v-21.13zM281.19 181.38h-67v21.13h67v-21.13zM281.19 205.72h-67v21.13h67v-21.13z" stroke="#000"/><path d="M330 109.72H152a4.72 4.72 0 00-4.72 4.72v118.04c0 2.6 2.11 4.72 4.71 4.72h178.02c2.6 0 4.71-2.11 4.71-4.72V114.44c0-2.6-2.11-4.72-4.71-4.72z" fill="#2F3356"/><path d="M326.18 117.34H155.82c-1.07 0-1.94.87-1.94 1.94v111.14c0 1.07.87 1.94 1.94 1.94h170.36c1.07 0 1.94-.87 1.94-1.94V119.28c0-1.07-.87-1.94-1.94-1.94z" fill="#fff"/><path d="M314.96 236.86H167.78v2.16h147.18v-2.16z" fill="#232323"/><path d="M269.5 285.24h-56.15a2.81 2.81 0 01-2.8-3.03l.68-8.73a2.8 2.8 0 012.81-2.59l54.9.24c1.48 0 2.7 1.15 2.8 2.63l.56 8.48a2.82 2.82 0 01-2.8 3z" fill="#C3C3C3"/><path d="M167.47 243.79h-9.38c-.24 0-.43.2-.43.43v1.1c0 .25.2.44.44.44h9.38c.24 0 .43-.19.43-.43v-1.1c0-.25-.2-.44-.44-.44zM171.26 251.72h-14.78a.64.64 0 00-.63.63v1.97c0 .35.28.64.63.64h14.78c.35 0 .64-.29.64-.64v-1.97a.64.64 0 00-.64-.63zM184.8 256.39h-8.98a.64.64 0 00-.63.63V259c0 .36.28.64.63.64h8.98c.35 0 .64-.28.64-.64v-1.97a.64.64 0 00-.64-.63zM265.46 261.1h-57.28a.64.64 0 00-.64.63v2.33c0 .35.29.64.64.64h57.28c.35 0 .63-.29.63-.64v-2.33a.64.64 0 00-.63-.64zM195.54 251.72h-8.98a.64.64 0 00-.63.63v1.97c0 .35.28.64.63.64h8.98c.35 0 .64-.29.64-.64v-1.97a.64.64 0 00-.64-.63zM207.56 251.72h-8.99a.64.64 0 00-.63.63v1.97c0 .35.28.64.63.64h8.99c.35 0 .63-.29.63-.64v-1.97a.64.64 0 00-.63-.63zM219.57 251.72h-8.98a.64.64 0 00-.64.63v1.97c0 .35.28.64.64.64h8.98c.35 0 .63-.29.63-.64v-1.97a.64.64 0 00-.63-.63zM303.64 251.72h-8.98a.64.64 0 00-.64.63v1.97c0 .35.29.64.64.64h8.98c.35 0 .63-.29.63-.64v-1.97a.64.64 0 00-.63-.63zM315.65 251.72h-8.98a.64.64 0 00-.64.63v1.97c0 .35.29.64.64.64h8.98c.35 0 .64-.29.64-.64v-1.97a.64.64 0 00-.64-.63zM319.16 251.89h7.16c.45 0 .8.36.8.8v6.03a.8.8 0 01-.8.8h-7.16a.8.8 0 01-.8-.8v-6.03c0-.44.36-.8.8-.8zM214.44 247.29h-8.98a.64.64 0 00-.64.63v1.97c0 .35.28.64.64.64h8.98c.35 0 .63-.29.63-.64v-1.97a.64.64 0 00-.63-.63zM217.64 247.26h8.65c.44 0 .8.36.8.8v1.63a.8.8 0 01-.8.8h-8.65a.8.8 0 01-.8-.8v-1.63c0-.44.36-.8.8-.8zM191.5 243.79h-9.38c-.24 0-.44.2-.44.43v1.1c0 .25.2.44.44.44h9.38c.24 0 .44-.19.44-.43v-1.1c0-.25-.2-.44-.44-.44zM215.52 243.79h-9.38c-.24 0-.44.2-.44.43v1.1c0 .25.2.44.44.44h9.38c.24 0 .43-.19.43-.43v-1.1c0-.25-.2-.44-.43-.44zM275.57 243.79h-9.38c-.24 0-.44.2-.44.43v1.1c0 .25.2.44.44.44h9.38c.24 0 .44-.19.44-.43v-1.1c0-.25-.2-.44-.44-.44zM287.58 243.79h-9.38c-.24 0-.43.2-.43.43v1.1c0 .25.2.44.43.44h9.38c.24 0 .44-.19.44-.43v-1.1c0-.25-.2-.44-.44-.44zM311.6 243.79h-9.37c-.24 0-.44.2-.44.43v1.1c0 .25.2.44.44.44h9.38c.24 0 .43-.19.43-.43v-1.1c0-.25-.2-.44-.43-.44zM323.62 243.79h-9.38c-.24 0-.44.2-.44.43v1.1c0 .25.2.44.44.44h9.38c.24 0 .44-.19.44-.43v-1.1c0-.25-.2-.44-.44-.44zM166.71 247.29h-8.98a.64.64 0 00-.64.63v1.97c0 .35.29.64.64.64h8.98c.35 0 .64-.29.64-.64v-1.97a.64.64 0 00-.64-.63zM166.71 261.27h-12.2a.64.64 0 00-.63.64v1.97c0 .35.29.63.64.63h12.2c.34 0 .63-.28.63-.63v-1.97a.64.64 0 00-.64-.64zM172.25 256.39H155.5a.64.64 0 00-.63.63V259c0 .36.28.64.63.64h16.75c.35 0 .63-.28.63-.64v-1.97a.64.64 0 00-.63-.63zM178.4 247.29h-8.97a.64.64 0 00-.64.63v1.97c0 .35.28.64.64.64h8.98c.35 0 .63-.29.63-.64v-1.97a.64.64 0 00-.63-.63zM183.4 251.72h-8.98a.64.64 0 00-.63.63v1.97c0 .35.28.64.63.64h8.98c.35 0 .64-.29.64-.64v-1.97a.64.64 0 00-.64-.63zM178.4 261.27h-8.97a.64.64 0 00-.64.64v1.97c0 .35.28.63.64.63h8.98c.35 0 .63-.28.63-.63v-1.97a.64.64 0 00-.63-.64zM190.57 261.27h-8.98a.64.64 0 00-.63.64v1.97c0 .35.28.63.63.63h8.98c.35 0 .64-.28.64-.63v-1.97a.64.64 0 00-.64-.64zM194.44 261.27h8.65c.44 0 .8.36.8.8v1.63a.8.8 0 01-.8.8h-8.65a.8.8 0 01-.8-.8v-1.63c0-.44.36-.8.8-.8zM270.55 261.27h8.64c.45 0 .8.36.8.8v1.63a.8.8 0 01-.8.8h-8.64a.8.8 0 01-.8-.8v-1.63c0-.44.36-.8.8-.8zM292.05 261.27h-8.99a.64.64 0 00-.63.64v1.97c0 .35.28.63.63.63h8.99c.35 0 .63-.28.63-.63v-1.97a.64.64 0 00-.63-.64zM302.13 261.27h-7a.64.64 0 00-.64.64v1.97c0 .35.28.63.63.63h7.01c.36 0 .64-.28.64-.63v-1.97a.64.64 0 00-.63-.64zM196.81 256.39h-8.98a.64.64 0 00-.63.63V259c0 .36.28.64.63.64h8.98c.35 0 .64-.28.64-.64v-1.97a.64.64 0 00-.64-.63zM208.82 256.39h-8.98a.64.64 0 00-.63.63V259c0 .36.28.64.63.64h8.98c.36 0 .64-.28.64-.64v-1.97a.64.64 0 00-.64-.63zM212.02 256.39h8.65c.44 0 .8.36.8.8v1.63a.8.8 0 01-.8.8h-8.65a.8.8 0 01-.8-.8v-1.64c0-.44.36-.79.8-.8zM232.84 256.39h-8.98a.64.64 0 00-.63.63V259c0 .36.28.64.63.64h8.98c.35 0 .64-.28.64-.64v-1.97a.64.64 0 00-.64-.63zM244.86 256.39h-8.99a.64.64 0 00-.63.63V259c0 .36.28.64.63.64h8.99c.35 0 .63-.28.63-.64v-1.97a.64.64 0 00-.63-.63zM248.05 256.39h8.65c.44 0 .8.36.8.8v1.64a.8.8 0 01-.8.8h-8.65a.8.8 0 01-.8-.8v-1.65c0-.44.36-.8.8-.8zM268.88 256.39h-8.98a.64.64 0 00-.64.63V259c0 .36.29.64.64.64h8.98c.35 0 .63-.28.63-.64v-1.97a.64.64 0 00-.63-.63zM280.89 256.39h-8.99a.64.64 0 00-.63.63V259c0 .36.28.64.63.64h8.99c.35 0 .63-.28.63-.64v-1.97a.64.64 0 00-.63-.63zM292.9 256.39h-8.98a.64.64 0 00-.64.63V259c0 .36.29.64.64.64h8.98c.35 0 .63-.28.63-.64v-1.97a.64.64 0 00-.63-.63zM304.91 256.39h-8.98a.64.64 0 00-.64.63V259c0 .36.29.64.64.64h8.98c.35 0 .63-.28.63-.64v-1.97a.64.64 0 00-.63-.63zM308 256.39h7.83c.44 0 .8.36.8.8v1.63a.8.8 0 01-.8.8H308a.8.8 0 01-.8-.8v-1.64c0-.44.37-.8.8-.8zM231.58 251.72h-8.98a.64.64 0 00-.64.63v1.97c0 .35.29.64.64.64h8.98c.35 0 .63-.29.63-.64v-1.97a.64.64 0 00-.63-.63zM234.77 251.72h8.65c.44 0 .8.36.8.8v1.63a.8.8 0 01-.8.8h-8.65a.8.8 0 01-.8-.8v-1.64c.01-.44.37-.79.8-.8zM255.6 251.72h-8.98a.64.64 0 00-.64.63v1.97c0 .35.28.64.64.64h8.98c.35 0 .63-.29.63-.64v-1.97a.64.64 0 00-.63-.63zM267.6 251.72h-8.97a.64.64 0 00-.64.63v1.97c0 .35.29.64.64.64h8.98c.35 0 .63-.29.63-.64v-1.97a.64.64 0 00-.63-.63zM270.8 251.72h8.65a.8.8 0 01.83.8v1.63a.8.8 0 01-.8.8h-8.68a.8.8 0 01-.8-.8v-1.64c0-.44.36-.8.8-.8zM291.63 251.72h-8.98a.64.64 0 00-.63.63v1.97c0 .35.28.64.63.64h8.98c.35 0 .64-.29.64-.64v-1.97a.64.64 0 00-.64-.63zM329.52 260.73h-24.61a.64.64 0 00-.64.63v3.41c0 .35.29.64.64.64h24.61c.35 0 .64-.29.64-.64v-3.4a.64.64 0 00-.64-.64zM190.42 247.29h-8.98a.64.64 0 00-.64.63v1.97c0 .35.29.64.64.64h8.98c.35 0 .64-.29.64-.64v-1.97a.64.64 0 00-.64-.63zM202.43 247.29h-8.98a.64.64 0 00-.63.63v1.97c0 .35.28.64.63.64h8.98c.35 0 .64-.29.64-.64v-1.97a.64.64 0 00-.64-.63zM238.46 247.29h-8.98a.64.64 0 00-.63.63v1.97c0 .35.28.64.63.64h8.98c.35 0 .64-.29.64-.64v-1.97a.64.64 0 00-.64-.63zM250.47 247.29h-8.98a.64.64 0 00-.63.63v1.97c0 .35.28.64.63.64h8.98c.35 0 .64-.29.64-.64v-1.97a.64.64 0 00-.64-.63zM262.49 247.29h-8.99a.64.64 0 00-.63.63v1.97c0 .35.28.64.63.64h8.99c.35 0 .63-.29.63-.64v-1.97a.64.64 0 00-.63-.63zM274.5 247.29h-8.99a.64.64 0 00-.63.63v1.97c0 .35.28.64.63.64h8.98c.35 0 .64-.29.64-.64v-1.97a.64.64 0 00-.64-.63zM286.5 247.29h-8.98a.64.64 0 00-.63.63v1.97c0 .35.28.64.63.64h8.98c.36 0 .64-.29.64-.64v-1.97a.64.64 0 00-.64-.63zM298.52 247.29h-8.99a.64.64 0 00-.63.63v1.97c0 .35.28.64.63.64h8.99c.35 0 .63-.29.63-.64v-1.97a.64.64 0 00-.63-.63zM301.71 247.26h22.63c.44 0 .8.36.8.8v1.63a.8.8 0 01-.8.8H301.7a.8.8 0 01-.8-.8v-1.63c0-.44.36-.8.8-.8zM179.49 243.79h-9.38c-.24 0-.44.2-.44.43v1.1c0 .25.2.44.44.44h9.38c.24 0 .43-.19.43-.43v-1.1c0-.25-.2-.44-.43-.44zM203.51 243.79h-9.38c-.24 0-.44.2-.44.43v1.1c0 .25.2.44.44.44h9.38c.24 0 .44-.19.44-.43v-1.1c0-.25-.2-.44-.44-.44zM227.53 243.79h-9.38c-.24 0-.44.2-.44.43v1.1c0 .25.2.44.44.44h9.38c.24 0 .44-.19.44-.43v-1.1c0-.25-.2-.44-.44-.44zM239.54 243.79h-9.38c-.24 0-.44.2-.44.43v1.1c0 .25.2.44.44.44h9.38c.24 0 .44-.19.44-.43v-1.1c0-.25-.2-.44-.44-.44zM251.55 243.79h-9.38c-.24 0-.43.2-.43.43v1.1c0 .25.2.44.43.44h9.38c.24 0 .44-.19.44-.43v-1.1c0-.25-.2-.44-.44-.44zM263.56 243.79h-9.38c-.24 0-.43.2-.43.43v1.1c0 .25.2.44.44.44h9.38c.24 0 .43-.19.43-.43v-1.1c0-.25-.2-.44-.44-.44zM299.6 243.79h-9.39c-.24 0-.43.2-.43.43v1.1c0 .25.2.44.44.44h9.38c.24 0 .43-.19.43-.43v-1.1c0-.25-.2-.44-.43-.44z" fill="#4D494A"/><path d="M155.82 117.34h170.36a1.94 1.94 0 011.94 1.94v8.53c0 .06-.05.12-.11.12H154a.12.12 0 01-.12-.12v-8.53a1.94 1.94 0 011.94-1.94z" fill="#4267B2"/><path d="M209.64 132.25h-51.73a1.4 1.4 0 00-1.4 1.4v93.25c0 .76.63 1.39 1.4 1.39h51.73c.77 0 1.4-.63 1.4-1.4v-93.24c0-.77-.63-1.4-1.4-1.4zM324.18 164.9h-38.45c-.77 0-1.39.63-1.39 1.4v60.59c0 .77.62 1.4 1.4 1.4h38.44c.77 0 1.39-.63 1.39-1.4v-60.6c0-.76-.62-1.39-1.39-1.39z" fill="#D9E0F0"/><path d="M324.18 132.25h-38.45a1.4 1.4 0 00-1.39 1.4v25.22c0 .77.62 1.4 1.4 1.4h38.44c.77 0 1.39-.63 1.39-1.4v-25.22c0-.77-.62-1.4-1.39-1.4zM279.8 132.25h-64.23c-.77 0-1.39.63-1.39 1.4v18.34c0 .77.62 1.39 1.4 1.39h64.22a1.4 1.4 0 001.39-1.4v-18.33c0-.77-.62-1.4-1.4-1.4z" fill="#D2DFFF"/><path d="M279.8 156.6h-64.23c-.77 0-1.39.63-1.39 1.4v18.34c0 .76.62 1.39 1.4 1.39h64.22c.77 0 1.39-.63 1.39-1.4V158c0-.77-.62-1.39-1.4-1.39z" fill="#D9E0F0"/><path d="M279.8 180.94h-64.23c-.77 0-1.39.63-1.39 1.4v18.34c0 .77.62 1.4 1.4 1.4h64.22a1.4 1.4 0 001.39-1.4v-18.34c0-.77-.62-1.4-1.4-1.4z" fill="#D2DFFF"/><path d="M279.8 205.3h-64.23c-.77 0-1.39.62-1.39 1.38v18.35c0 .77.62 1.39 1.4 1.39h64.22c.77 0 1.39-.62 1.39-1.4v-18.34c0-.76-.62-1.39-1.4-1.39z" fill="#D9E0F0"/><path opacity=".2" d="M153.48 227.86v-13.5l56.36-97.63h19.55L162.3 232l-4.74-.02a4.11 4.11 0 01-4.09-4.12zM192.72 117.76h-19.96l-19.28 32.35v34.85l39.24-67.2z" fill="#fff"/><path d="M345.45 103.48c17.9 0 32.41 14.52 32.41 32.42v.59c0 17.9-14.5 32.42-32.4 32.42h-56.24l-11.3 11.37a3 3 0 01-3.17.7l-.12-.05a3.03 3.03 0 01-1.86-2.8v-9.22h-41.36A32.42 32.42 0 01199 136.5v-.59c0-17.9 14.5-32.42 32.4-32.42h114.05z" fill="#EF278B"/><mask id="a" maskUnits="userSpaceOnUse" x="205" y="109" width="55" height="55"><path d="M232.83 163.46a27.13 27.13 0 10-27.14-27.13 27.13 27.13 0 0027.14 27.13z" fill="#fff"/></mask><g mask="url(#a)"><path d="M259.94 136.33c0-15-12.14-27.16-27.11-27.16a27.13 27.13 0 00-27.11 27.16c0 15 12.14 27.16 27.1 27.16a27.13 27.13 0 0027.12-27.16z" fill="#FF53AA"/><path d="M241.65 136.64a8.9 8.9 0 01-1.57 2.93c-.47.46-1.02.84-1.63 1.1l1.6-4.33 1.6.3zM224.33 136.64a8.88 8.88 0 001.57 2.93c.47.46 1.03.84 1.64 1.1l-1.6-4.33-1.61.3z" fill="#75472B"/><path d="M248.93 156.62c-1.37-7.48-2.5-11.25-10.9-11.6l-5.17 6.37-5.18-6.37c-8.4.35-9.53 4.12-10.9 11.6-.5 3.18-.8 6.39-.88 9.6h33.95c-.1-3.21-.4-6.42-.92-9.6z" fill="#fff"/><path d="M237.12 143.4v-5.62h-8.6v5.63c0 1.3-.33 1.48-.9 1.69.93 1.62 2.32 8.55 5.33 8.55 3 0 4.12-6.95 5.05-8.55-.56-.2-.88-.4-.88-1.7zM241.03 137.06c1.28.26 2.37-1.49 2.37-3.34 0-1.03-.67-2.22-1.71-1.97-.77.17-1.37.77-1.54 1.54v2.85c.11.44.45.79.88.92z" fill="#FFD08A"/><path d="M240.74 136.64c.86.2 1.59-1.13 1.59-2.52 0-.78-.45-1.68-1.15-1.5-.53.17-.93.62-1.03 1.17v2.18s.14.56.6.67z" fill="#F5B67F"/><path d="M225.05 137.06c-1.28.26-2.37-1.49-2.37-3.34 0-1.03.67-2.22 1.72-1.97.76.17 1.36.77 1.53 1.54v2.85c-.1.44-.44.8-.88.92z" fill="#FFD08A"/><path d="M225.34 136.64c-.85.2-1.58-1.13-1.58-2.52 0-.78.45-1.68 1.14-1.5.54.17.94.62 1.03 1.17v2.18s-.13.56-.59.67zM232.83 137.84h-4.27v4.13a6.74 6.74 0 005.22 2.4c1.17 0 2.33-.3 3.36-.87v-5.7l-4.31.04z" fill="#F5B67F"/><path d="M239.24 125.9c-2.46-1.74-9.96-1.74-12.38 0-1.94 1.37-2.8 6.26-1.67 10.07 1.38 4.6 3.63 7.6 7.82 7.7 4.23-.1 6.49-3.1 7.83-7.7 1.19-3.81.33-8.7-1.6-10.07z" fill="#FFD08A"/><path d="M236.37 166.25h-7.08l1.6-13.73h3.89l1.59 13.73z" fill="#8A1C1C"/><path d="M232.08 149.5h1.54l1.46 3.7a.62.62 0 01-.6.84l-3.3-.05a.61.61 0 01-.57-.85l1.47-3.64z" fill="#661515"/><path d="M229.74 147c1.65 1.67 2.39 2.45 2.39 2.45s-1.08 4.16-1.8 3.46c-.71-.7-4.4-5.91-3.49-7.84.19-.4 1.63-.8 1.63-.8.1 1.03.55 2 1.27 2.74zM235.93 147c-1.66 1.67-2.39 2.45-2.39 2.45s1.07 4.16 1.78 3.46c.72-.7 4.41-5.91 3.5-7.84-.18-.4-1.63-.8-1.63-.8-.1 1.03-.54 2-1.26 2.74z" fill="#EBEBEB"/><path d="M224.65 132.17v1.1c0 .38.17 1.36.17 1.36s1.47-3.25 3.52-4.03c2.04-.78 3.85-1.06 5.24-1.96.85-.55 1.76-1.03 2.7-1.42 0 0 2.13 3.56 2.8 3.72.67.16.93.77 1.24 1.49.3.72.78 2.61.78 2.61.2-.6.34-1.21.42-1.84v-1.38c.16-.03.33-.03.49 0l.34.05c.2-1.53.2-3.07 0-4.59-.32-1.75-1.42-5.91-4.78-5.6-.65.05-1.53-2.08-7.4-.86a7.71 7.71 0 00-5.6 4.42c-.66 1.43-.7 6.55-.7 6.55l.4.16c.13.05.26.12.38.22z" fill="#75472B"/><path d="M232.92 166.25h16.93c-.1-3.23-.4-6.44-.92-9.63-1.17-6.4-2.17-10.1-7.75-11.24-1.27 3.9-4.65 12.73-8.35 12.78-3.7-.05-7.07-8.87-8.35-12.77-5.53 1.15-6.53 4.82-7.7 11.23-.5 3.18-.8 6.39-.88 9.6h17.02v.03z" fill="#408733"/><path opacity=".1" d="M259.94 136.33c0-15-12.14-27.16-27.11-27.16-.04.45-.04 54.58 0 54.32a27.13 27.13 0 0027.1-27.16z" fill="#000"/></g><path d="M313.24 132.14c0-4.01-3.01-7.4-7.04-7.89a7.92 7.92 0 00-3.81 15.3l-1.16 8.47h8l-1.16-8.47a7.94 7.94 0 005.17-7.4z" fill="#FF53AA"/><path d="M104.58 146.71c15.62.01 28.27 12.8 28.27 28.58v.47a28.54 28.54 0 01-20.19 26.89v9.26a2.6 2.6 0 01-4.48 1.87l-9.83-9.95H28.28C12.83 203.83.27 191.31 0 175.76v-.94c.25-15.57 12.82-28.1 28.28-28.1h76.3z" fill="#8F57CC"/><path d="M88.4 171.75c0-4.01-3.02-7.4-7.04-7.89a7.92 7.92 0 00-3.81 15.3l-1.17 8.47h8.01l-1.16-8.47a7.94 7.94 0 005.17-7.4z" fill="#B87DFF"/><mask id="b" maskUnits="userSpaceOnUse" x="4" y="151" width="49" height="49"><path d="M28.49 199.13a23.86 23.86 0 0023.84-23.88 23.86 23.86 0 00-23.84-23.88 23.86 23.86 0 00-23.84 23.88 23.86 23.86 0 0023.84 23.88z" fill="#fff"/></mask><g mask="url(#b)"><path d="M28.49 199.13a23.86 23.86 0 0023.84-23.88 23.86 23.86 0 00-23.84-23.88 23.86 23.86 0 00-23.84 23.88 23.86 23.86 0 0023.84 23.88z" fill="#B87DFF"/><path d="M37.21 183.93c-1.47-.03-2.87 1.44-1.88 5.03 2.15 8.3 2.2 11.2 2.2 11.2h4.25a60.93 60.93 0 01-1.22-9.34c-.14-4.32-2.16-6.85-3.35-6.89zM19.81 183.93c1.48-.03 2.87 1.44 1.9 5.03-2.16 8.3-2.23 11.2-2.23 11.2h-4.23c.65-3.08 1.06-6.2 1.22-9.34.13-4.32 2.15-6.85 3.34-6.89z" fill="#FFD48F"/><path d="M33.29 181.92s-3.37 3.51-4.87 3.5c-1.5-.02-4.75-3.5-4.75-3.5a7.17 7.17 0 00-7.4 7v.29c.01.12.1.21.23.22 1.1.18 4.2 2.35 4.2 2.35v8.43l15.42-.04v-8.44s3.23-2.07 4.25-2.33c.12-.03.23-.1.23-.22v-.25c.29-3.87-3.24-7.01-7.31-7.01z" fill="#FFA347"/><path d="M31.79 180.64v-4.57h-7v4.57c0 1.06-1.34 1.22-1.8 1.39-.48 2.67 2.82 4.69 5.28 4.69 2.47 0 5.64-2.34 5.31-4.7-.46-.16-1.79-.33-1.79-1.38z" fill="#FFD48F"/><path d="M31.85 180.98a.98.98 0 01-.06-.34v-4.57h-7v3.17a5.02 5.02 0 004.5 2.43c.9 0 1.78-.24 2.56-.7z" fill="#F5C476"/><path d="M33.41 166.29c-1.95-1.44-7.9-1.44-9.84 0-1.55 1.11-2.23 5.08-1.32 8.17 1.08 3.73 2.87 6.17 6.24 6.24 3.36-.07 5.15-2.51 6.23-6.24.92-3.1.2-7.06-1.3-8.17z" fill="#FFD48F"/><path d="M30.62 167.35s2.4 2.22 2.76 3.2c.5 1.39.38 5.85.38 5.85l2.04-3.9c.2-1.14.23-2.3.09-3.46-1.44-9.72-14.55-8.26-15.07 0-.02 1.16.02 2.32.13 3.47l1.96 3.4s-1.43-5.19 0-5.43c3.55-.56 7.71-3.13 7.71-3.13z" fill="#8F6135"/><path d="M21 168.37s-1.43 5.96-1.56 8.1c-.4 5.74 5.8 4 5.12 2.56A50.05 50.05 0 0121 168.37zM35.7 168.32s1.44 5.96 1.56 8.08c.4 5.75-6 4.2-5.2 2.8a32.93 32.93 0 003.64-10.88z" fill="#8F6135"/><path opacity=".1" d="M28.47 151.37v47.76a23.86 23.86 0 0023.83-23.88 23.86 23.86 0 00-23.83-23.88z" fill="#000"/></g><path d="M285.87 254a25.78 25.78 0 0125.77 25.79v.34a25.78 25.78 0 01-25.77 25.8H202.8l-8.93 9c-.66.66-1.63.87-2.5.56l-.1-.04a2.4 2.4 0 01-1.48-2.23v-8A25.8 25.8 0 01170 280.14v-.34A25.78 25.78 0 01195.78 254h90.09z" fill="#08C989"/><path d="M262.01 276.45c.01-4.01-3.01-7.4-7.03-7.89a7.92 7.92 0 00-3.81 15.3l-1.17 8.46h8l-1.16-8.46a7.94 7.94 0 005.18-7.41z" fill="#229E79"/><mask id="c" maskUnits="userSpaceOnUse" x="175" y="258" width="43" height="44"><path d="M196.53 301.43a21.38 21.38 0 10.01-42.76 21.38 21.38 0 00-.01 42.76z" fill="#fff"/></mask><g mask="url(#c)"><path d="M217.89 280.06c0-11.82-9.56-21.4-21.36-21.4a21.38 21.38 0 00-21.36 21.4c0 11.82 9.56 21.4 21.36 21.4 11.8 0 21.36-9.58 21.36-21.4z" fill="#26AF87"/><path d="M190.01 272.6s-1.26 7.83-1.43 10.63c-.36 7.58 5.36 3.78 5.63 1.81.16-1.15-1.47-1.52-1.66-4-.27-3.82-2.54-8.44-2.54-8.44zM203.21 272.6s1.27 7.83 1.44 10.63c.36 7.58-5.36 3.78-5.63 1.81-.16-1.15 2-1.5 2.19-3.98.33-2.89 1-5.73 2-8.46z" fill="#8F6135"/><path d="M208.1 302.38h-3.32l-2.25-9.14 2.25-6.44s3.31 1.85 3.18 7.57c-.08 3.14.13 8 .13 8zM184.97 302.38h3.3l2.25-9.14-2.24-6.44s-3.3 1.85-3.18 7.57c.07 3.14-.13 8-.13 8z" fill="#FFC975"/><path d="M201.12 285.94h-9.19c-1.26.08-2.5.37-3.66.83.36 2.07.6 4.16.71 6.26v9.35h15.11v-9.35c.12-2.1.36-4.19.72-6.26a12.01 12.01 0 00-3.7-.83z" fill="#fff"/><path d="M199.68 284.89v-4.1h-6.28v4.1c0 .94-1.2 1.09-1.6 1.24a5.72 5.72 0 009.48 0c-.41-.15-1.6-.32-1.6-1.24z" fill="#FFC975"/><path d="M199.72 285.2a1 1 0 01-.04-.31v-4.1h-6.28v2.88a4.5 4.5 0 004.04 2.14c.8 0 1.59-.22 2.28-.62z" fill="#EBB159"/><path d="M200.98 272.03c-1.68-1.26-6.8-1.26-8.48 0-1.32 1-1.9 4.55-1.13 7.32.93 3.34 2.48 5.52 5.37 5.59 2.9-.06 4.44-2.25 5.38-5.59.74-2.77.16-6.32-1.14-7.32z" fill="#FFC975"/><path d="M193.07 272.7c1.88.82 3.8 1.54 5.77 2.15 1.34.35 2.14.38 2.76 1.03.48.54.2 5.32.2 5.32l1.65-2.96c.08-1.61.05-3.23-.08-4.84-1.28-8.7-13.05-7.4-13.48 0-.02 1.05.02 2.1.12 3.13l1.28 4.83s-.38-5.66.5-6.66c.55-.58.99-1.26 1.28-2z" fill="#8F6135"/><path opacity=".1" d="M217.89 280.06c0-11.82-9.56-21.4-21.36-21.4.16-.07.16 42.91 0 42.8 11.8 0 21.36-9.58 21.36-21.4z" fill="#000"/></g></svg>