<svg height="24" viewBox="0 0 155 24" width="155" xmlns="http://www.w3.org/2000/svg"><path d="m129.504 39.336c1.264 0 2.376-.128 3.336-.384s1.704-.544 2.232-.864l-1.032-3c-.208.096-.44.2-.696.312s-.552.212-.888.3-.72.164-1.152.228-.92.096-1.464.096c-.864 0-1.6-.14-2.208-.42s-1.1-.66-1.476-1.14-.648-1.052-.816-1.716-.252-1.38-.252-2.148c0-.96.128-1.776.384-2.448s.596-1.22 1.02-1.644.912-.732 1.464-.924 1.116-.288 1.692-.288c.864 0 1.636.096 2.316.288s1.276.424 1.788.696l1.08-3.024c-.128-.08-.336-.192-.624-.336s-.648-.284-1.08-.42-.936-.256-1.512-.36-1.216-.156-1.92-.156c-1.216 0-2.344.192-3.384.576s-1.936.948-2.688 1.692-1.344 1.656-1.776 2.736-.648 2.308-.648 3.684c0 2.768.708 4.904 2.124 6.408s3.476 2.256 6.18 2.256zm8.358261 4.104c.672 0 1.26-.076 1.764-.228s.956-.392 1.356-.72.768-.744 1.104-1.248.672-1.116 1.008-1.836c.928-2 1.784-4.064 2.568-6.192s1.536-4.408 2.256-6.84h-3.696c-.16.624-.34 1.3-.54 2.028s-.408 1.464-.624 2.208-.436 1.468-.66 2.172-.44 1.344-.648 1.92c-.224-.576-.46-1.216-.708-1.92s-.492-1.428-.732-2.172-.468-1.48-.684-2.208-.404-1.404-.564-2.028h-3.792c.72 2.48 1.488 4.716 2.304 6.708s1.632 3.788 2.448 5.388c-.24.608-.532 1.084-.876 1.428s-.836.516-1.476.516c-.32 0-.624-.024-.912-.072s-.616-.136-.984-.264l-.624 2.856c.304.128.692.244 1.164.348s.988.156 1.548.156zm15.030261 0v-4.752c.4.176.816.312 1.248.408s.896.144 1.392.144c.896 0 1.688-.16 2.376-.48s1.264-.768 1.728-1.344.816-1.264 1.056-2.064.36-1.688.36-2.664c0-1.008-.148-1.92-.444-2.736s-.724-1.508-1.284-2.076-1.248-1.008-2.064-1.32-1.744-.468-2.784-.468c-.432 0-.884.02-1.356.06s-.936.092-1.392.156-.892.14-1.308.228-.784.18-1.104.276v16.632zm1.968-7.224c-.368 0-.732-.048-1.092-.144s-.652-.216-.876-.36v-6.456c.176-.032.4-.06.672-.084s.568-.036.888-.036c.976 0 1.712.332 2.208.996s.744 1.548.744 2.652c0 2.288-.848 3.432-2.544 3.432zm12.006261 2.784v-9.6c.224-.064.476-.124.756-.18s.58-.084.9-.084c.8 0 1.348.24 1.644.72s.444 1.296.444 2.448v6.696h3.576v-7.128c0-.864-.084-1.648-.252-2.352s-.456-1.312-.864-1.824-.952-.908-1.632-1.188-1.532-.42-2.556-.42c-.352 0-.716.036-1.092.108s-.684.148-.924.228v-6.048l-3.576.576v18.048zm16.11026.336c.448 0 .896-.024 1.344-.072s.868-.108 1.26-.18.748-.156 1.068-.252.576-.192.768-.288l-.48-2.904c-.4.176-.916.324-1.548.444s-1.276.18-1.932.18c-1.024 0-1.84-.216-2.448-.648s-.952-1.016-1.032-1.752h8.112c.016-.192.032-.412.048-.66s.024-.476.024-.684c0-2.128-.52-3.74-1.56-4.836s-2.456-1.644-4.248-1.644c-.768 0-1.516.144-2.244.432s-1.372.712-1.932 1.272-1.012 1.26-1.356 2.1-.516 1.82-.516 2.94c0 .928.132 1.792.396 2.592s.672 1.492 1.224 2.076 1.248 1.044 2.088 1.38 1.828.504 2.964.504zm1.728-7.92h-4.728c.048-.304.124-.604.228-.9s.252-.556.444-.78.432-.404.72-.54.632-.204 1.032-.204c.416 0 .764.072 1.044.216s.512.328.696.552.32.48.408.768.14.584.156.888zm9.270261 7.584v-9.648c.16-.048.396-.092.708-.132s.58-.06.804-.06c.496 0 .96.044 1.392.132s.808.172 1.128.252l.6-2.952c-.192-.08-.424-.148-.696-.204s-.544-.104-.816-.144-.544-.072-.816-.096-.504-.036-.696-.036c-1.072 0-2.044.1-2.916.3s-1.628.412-2.268.636v11.952zm10.014261 0v-7.056h6.288v7.056h3.744v-16.632h-3.744v6.36h-6.288v-6.36h-3.744v16.632zm18.510261.288c1.056 0 2.064-.076 3.024-.228s1.744-.316 2.352-.492v-12.192h-3.576v9.744c-.224.032-.48.06-.768.084s-.56.036-.816.036c-.832 0-1.4-.256-1.704-.768s-.456-1.344-.456-2.496v-6.6h-3.576v7.032c0 .864.088 1.656.264 2.376s.472 1.34.888 1.86.98.924 1.692 1.212 1.604.432 2.676.432zm11.790261-.288v-9.744c.224-.032.48-.06.768-.084s.56-.036.816-.036c.832 0 1.4.24 1.704.72s.456 1.296.456 2.448v6.696h3.576v-7.128c0-.864-.088-1.648-.264-2.352s-.472-1.312-.888-1.824-.98-.908-1.692-1.188-1.604-.42-2.676-.42c-1.056 0-2.064.076-3.024.228s-1.744.316-2.352.492v12.192zm14.910261.288c.768 0 1.416-.064 1.944-.192s1.008-.28 1.44-.456l-.504-2.784c-.336.128-.708.228-1.116.3s-.804.108-1.188.108c-.8 0-1.332-.224-1.596-.672s-.396-1.048-.396-1.8v-4.44h4.296v-2.976h-4.296v-3.72l-3.576.576v10.608c0 .816.076 1.56.228 2.232s.42 1.244.804 1.716.896.84 1.536 1.104 1.448.396 2.424.396zm10.854261.048c.448 0 .896-.024 1.344-.072s.868-.108 1.26-.18.748-.156 1.068-.252.576-.192.768-.288l-.48-2.904c-.4.176-.916.324-1.548.444s-1.276.18-1.932.18c-1.024 0-1.84-.216-2.448-.648s-.952-1.016-1.032-1.752h8.112c.016-.192.032-.412.048-.66s.024-.476.024-.684c0-2.128-.52-3.74-1.56-4.836s-2.456-1.644-4.248-1.644c-.768 0-1.516.144-2.244.432s-1.372.712-1.932 1.272-1.012 1.26-1.356 2.1-.516 1.82-.516 2.94c0 .928.132 1.792.396 2.592s.672 1.492 1.224 2.076 1.248 1.044 2.088 1.38 1.828.504 2.964.504zm1.728-7.92h-4.728c.048-.304.124-.604.228-.9s.252-.556.444-.78.432-.404.72-.54.632-.204 1.032-.204c.416 0 .764.072 1.044.216s.512.328.696.552.32.48.408.768.14.584.156.888zm9.270261 7.584v-9.648c.16-.048.396-.092.708-.132s.58-.06.804-.06c.496 0 .96.044 1.392.132s.808.172 1.128.252l.6-2.952c-.192-.08-.424-.148-.696-.204s-.544-.104-.816-.144-.544-.072-.816-.096-.504-.036-.696-.036c-1.072 0-2.044.1-2.916.3s-1.628.412-2.268.636v11.952z" fill="#121212" transform="translate(-121 -20)"/></svg>