<svg fill="none" height="22" viewBox="0 0 24 22" width="24" xmlns="http://www.w3.org/2000/svg" xmlns:xlink="http://www.w3.org/1999/xlink"><clipPath id="a"><path d="m0 0h24v22h-24z"/></clipPath><g clip-path="url(#a)"><path clip-rule="evenodd" d="m13.9355 21.0302v-3.9502c0-.5358.4288-.9699.9578-.9699 1.8875 0 2.9141-1.9604 3.0564-5.8298h-3.0564c-.529 0-.9578-.43444-.9578-.96998v-8.3407c0-.535467.4288-.96962.9578-.96962h8.1491c.5292 0 .9576.434492.9576.96962v8.3407c0 1.85488-.1844 3.55708-.548 5.05978-.3728 1.5408-.9451 2.888-1.7006 4.0043-.7773 1.1472-1.7496 2.0475-2.8901 2.6746-1.1482.631-2.4835.951-3.9683.951-.5287 0-.9575-.4341-.9575-.9698zm-12.977595-4.9201c-.52874 0-.957905.4345-.957905.9699v3.9502c0 .5357.429098.9698.957905.9698 1.484225 0 2.819665-.3201 3.967475-.951 1.14072-.6271 2.11355-1.5274 2.89099-2.6746.75514-1.1163 1.32747-2.4636 1.70039-4.0047.36334-1.5032.54774-3.2054.54774-5.05938v-8.3407c0-.535467-.42895-.96962-.95782-.96962h-8.14871c-.528738 0-.95750079.434492-.95750079.96962v8.34077c0 .53547.42869579.97001.95750079.97001h3.01279c-.14015 3.8693-1.15182 5.8297-3.012855 5.8297z" fill="#1c68f3" fill-rule="evenodd"/></g></svg>