<svg width="52" height="52" viewBox="0 0 52 52" fill="none" xmlns="http://www.w3.org/2000/svg">
<mask id="mask0" style="mask-type:alpha" maskUnits="userSpaceOnUse" x="0" y="0" width="52" height="52">
<path fill-rule="evenodd" clip-rule="evenodd" d="M0 0H52V52H0V0Z" fill="white"/>
</mask>
<g mask="url(#mask0)">
<path fill-rule="evenodd" clip-rule="evenodd" d="M26 52.0003C11.7 52.0003 0 40.3003 0 25.8703C0.13 11.5702 11.7 -0.129751 26.13 0.00024899C40.43 0.130249 52 11.7003 52 26.2603C51.87 40.4303 40.3 52.0003 26 52.0003Z" fill="#AEAEAE"/>
<path fill-rule="evenodd" clip-rule="evenodd" d="M28.47 22.88L27.69 27.04L35.1 28.08L34.58 30.03L27.3 28.99C26.78 30.68 26.52 32.5 25.87 34.06C25.22 35.88 24.57 37.7 23.79 39.39C22.75 41.6 20.93 43.16 18.46 43.55C17.03 43.81 15.47 43.68 14.3 42.77C13.91 42.51 13.52 41.99 13.52 41.6C13.52 41.08 13.78 40.43 14.17 40.17C14.43 40.04 15.08 40.17 15.47 40.3C15.86 40.69 16.25 41.21 16.51 41.73C17.29 42.77 18.33 42.9 19.37 42.12C20.54 41.08 21.19 39.65 21.58 38.22C22.36 35.1 23.14 32.11 23.79 28.99V28.47L16.9 27.43L17.16 25.48L24.31 26.52L25.22 22.49L17.81 21.32L18.07 19.24L25.74 20.28C26 19.5 26.13 18.85 26.39 18.2C27.04 15.86 27.69 13.52 29.25 11.44C30.81 9.36002 32.63 8.06002 35.36 8.19002C36.53 8.19002 37.7 8.58002 38.48 9.49002C38.61 9.62002 38.87 9.88002 38.87 10.14C38.87 10.66 38.87 11.31 38.48 11.7C37.96 12.09 37.31 11.96 36.79 11.44C36.4 11.05 36.14 10.66 35.75 10.27C34.97 9.23002 33.8 9.10002 32.89 10.01C32.24 10.66 31.59 11.57 31.2 12.48C30.29 15.21 29.64 18.07 28.73 20.93L35.88 21.97L35.36 23.92L28.47 22.88" fill="white"/>
</g>
</svg>
