<svg fill="none" height="32" viewBox="0 0 32 32" width="32" xmlns="http://www.w3.org/2000/svg"><path clip-rule="evenodd" d="m16.0397.00000828c-3.8078-.00387009-7.49245 1.34839172-10.39374 3.81445172-2.90128 2.46607-4.829539 5.88473-5.439205 9.64334-.609666 3.7586.139107 7.6115 2.112135 10.8682 1.97303 3.2567 5.04134 5.7044 8.65511 6.9043.8065.1475 1.0918-.3443 1.0918-.7771s0-1.3869 0-2.7246c-4.45585.9836-5.40013-2.1444-5.40013-2.1444-.2943-.9682-.92598-1.7988-1.78038-2.341-1.44593-.9836.11804-.9836.11804-.9836.50754.0694.99234.2546 1.417.5411s.77782.6667 1.03224 1.1114c.21668.3943.50918.7418.86067 1.0227.35149.2808.75503.4894 1.18742.6137.43238.1243.88504.1619 1.33204.1107.447-.0513.8794-.1904 1.2724-.4094.0643-.8085.4128-1.5682.9837-2.1443-3.56077-.4033-7.29857-1.7804-7.29857-7.869-.02445-1.5906.5637-3.1296 1.64267-4.2985-.48152-1.38283-.42534-2.89616.15738-4.23947 0 0 1.34757-.43279 4.40662 1.64267 2.6269-.72124 5.3996-.72124 8.0265 0 3.0591-2.07546 4.3968-1.64267 4.3968-1.64267.5888 1.3414.6486 2.85585.1672 4.23947 1.079 1.1689 1.6671 2.7079 1.6427 4.2985 0 6.1575-3.7477 7.5149-7.3182 7.869.3818.3856.6767.8484.865 1.3574.1883.5089.2657 1.0522.2268 1.5935v4.387c0 .5213.2853.9836 1.1017.777 3.5944-1.2161 6.641-3.6677 8.598-6.9188 1.9569-3.2511 2.6973-7.0908 2.0896-10.8365-.6078-3.7456-2.5243-7.15427-5.4088-9.61978-2.8845-2.46552-6.55-3.8280618-10.3445-3.84531172z" fill="#605f5f" fill-rule="evenodd"/></svg>