<svg width="64" height="64" viewBox="0 0 64 64" fill="none" xmlns="http://www.w3.org/2000/svg">
<circle cx="32" cy="32" r="30" stroke="#3333FF" stroke-width="4"/>
<path d="M43.8409 24.1218C43.1568 23.4491 42.3445 22.9155 41.4504 22.5514C40.5563 22.1874 39.598 22 38.6302 22C37.6625 22 36.7042 22.1874 35.8101 22.5514C34.916 22.9155 34.1037 23.4491 33.4195 24.1218L31.9996 25.5171L30.5798 24.1218C29.1978 22.7637 27.3234 22.0007 25.3691 22.0007C23.4147 22.0007 21.5403 22.7637 20.1583 24.1218C18.7764 25.4799 18 27.3218 18 29.2425C18 31.1631 18.7764 33.0051 20.1583 34.3632L21.5782 35.7586L31.9996 46L42.4211 35.7586L43.8409 34.3632C44.5254 33.6909 45.0684 32.8926 45.4389 32.0139C45.8093 31.1353 46 30.1936 46 29.2425C46 28.2914 45.8093 27.3497 45.4389 26.471C45.0684 25.5924 44.5254 24.7941 43.8409 24.1218Z" stroke="#3333FF" stroke-width="4" stroke-linecap="round" stroke-linejoin="round"/>
</svg>
