<svg width="84" height="83" viewBox="0 0 84 83" fill="none" xmlns="http://www.w3.org/2000/svg">
<path fill-rule="evenodd" clip-rule="evenodd" d="M41.1138 49.6422V47.1807C41.1138 46.7905 40.7968 46.4736 40.4061 46.4736C40.0155 46.4736 39.699 46.7905 39.699 47.1807V49.6963C40.0585 49.6566 40.4239 49.6341 40.794 49.6341C40.9012 49.6341 41.0075 49.6388 41.1138 49.6422Z" fill="#3333FF"/>
<path fill-rule="evenodd" clip-rule="evenodd" d="M44.5366 55.3822L44.6506 55.4928C45.7331 56.5442 46.3292 57.9547 46.3292 59.4639C46.3292 60.9094 45.7752 62.2773 44.7698 63.3157L44.7143 63.3722L45.1715 63.8156L46.3139 64.7196C47.6698 63.2961 48.4172 61.4322 48.4172 59.4639C48.4172 57.4008 47.6071 55.4727 46.1372 54.0282L45.42 54.7042L44.5366 55.3822Z" fill="#3333FF"/>
<path fill-rule="evenodd" clip-rule="evenodd" d="M46.214 64.825L46.269 64.768C46.2843 64.7522 46.2987 64.7354 46.3135 64.7196L45.1716 63.8152L46.214 64.825Z" fill="#0FCE7C"/>
<path fill-rule="evenodd" clip-rule="evenodd" d="M47.0856 68.3283H40.7938C35.9059 68.3283 31.929 64.3515 31.929 59.4636C31.929 54.5752 35.9059 50.5989 40.7938 50.5989C42.8234 50.5989 44.7486 51.2759 46.3114 52.5236L41.9922 56.5143C41.6221 56.3635 41.218 56.2797 40.7938 56.2797C39.0386 56.2797 37.6099 57.7079 37.6099 59.4636C37.6099 61.2193 39.0386 62.6475 40.7938 62.6475C41.1065 62.6475 41.4086 62.6016 41.6939 62.5173L47.0856 66.5755V68.3283ZM40.7938 60.718C40.1024 60.718 39.5394 60.1555 39.5394 59.4636C39.5394 58.7718 40.1024 58.2087 40.7938 58.2087C41.4861 58.2087 42.0487 58.7718 42.0487 59.4636C42.0487 60.1555 41.4861 60.718 40.7938 60.718ZM43.9782 59.4636C43.9782 58.8383 43.7963 58.2552 43.4841 57.763L46.06 55.3829L46.082 55.4059L49.1295 52.5332L48.4271 51.8308C46.388 49.7922 43.6776 48.6694 40.7938 48.6694C34.842 48.6694 30 53.5114 30 59.4636C30 65.3565 34.7477 70.1587 40.6191 70.253V70.2578H49.0151V65.6131L43.3549 61.3524C43.7465 60.8238 43.9782 60.1703 43.9782 59.4636Z" fill="#3333FF"/>
<path fill-rule="evenodd" clip-rule="evenodd" d="M51.2459 47.7117L50.4727 48.4849L49.6995 47.7117L50.4727 46.9385L51.2459 47.7117Z" fill="#3333FF"/>
<path fill-rule="evenodd" clip-rule="evenodd" d="M43.8835 47.8034L43.5139 48.173L43.1443 47.8034L43.5139 47.4338L43.8835 47.8034Z" fill="#3333FF"/>
<path fill-rule="evenodd" clip-rule="evenodd" d="M47.7235 44.5574C47.7235 44.2495 47.4741 44 47.1662 44C46.8583 44 46.6089 44.2495 46.6089 44.5574C46.6089 44.8653 46.8583 45.1147 47.1662 45.1147C47.4741 45.1147 47.7235 44.8653 47.7235 44.5574Z" fill="#3333FF"/>
<path fill-rule="evenodd" clip-rule="evenodd" d="M37.0577 55.4116C36.6671 55.4116 36.3501 55.0946 36.3501 54.7039V47.1808C36.3501 46.7896 36.6671 46.4731 37.0577 46.4731C37.4484 46.4731 37.7649 46.7896 37.7649 47.1808V54.7039C37.7649 55.0946 37.4484 55.4116 37.0577 55.4116Z" fill="#3333FF"/>
<path fill-rule="evenodd" clip-rule="evenodd" d="M67.0806 64.4926H72.455C97.5356 64.4926 76.038 21.4974 61.7062 14.3315H47.3745C44.7206 15.6584 41.8211 18.2139 39.0171 21.4974H43.8663C45.392 19.96 46.8921 18.7298 48.2896 17.9101L60.8166 17.9251C66.8649 21.4914 74.8216 32.7186 78.4744 43.2713C82.4687 54.8102 80.5729 60.9097 72.455 60.9097H67.0806V64.4926Z" fill="#FF8686"/>
<path fill-rule="evenodd" clip-rule="evenodd" d="M46.8082 7.40162C45.6264 5.03817 46.5237 3.58291 49.1872 3.58291H59.8936C62.5193 3.58291 63.438 5.07098 62.2727 7.40162L58.3125 15.322L61.5172 16.9244L65.4774 9.00395C67.8335 4.29181 65.1836 -3.05176e-05 59.8936 -3.05176e-05H49.1872C43.8581 -3.05176e-05 41.2315 4.26007 43.6035 9.00395L47.5637 16.9244L50.7684 15.322L46.8082 7.40162Z" fill="#FF8686"/>
<path fill-rule="evenodd" clip-rule="evenodd" d="M35.7405 21.4974H22.2938C7.96209 28.6633 -13.5355 71.6586 11.545 71.6586H14.2731C14.2192 70.582 14.2907 69.387 14.4864 68.0756H11.545C3.42717 68.0756 1.53139 61.9762 5.52564 50.4372C9.18364 39.8697 17.1576 28.6257 23.209 25.076L32.3669 25.087C31.3552 22.859 32.279 21.4974 34.8553 21.4974H35.7405Z" fill="#FF8686"/>
<path fill-rule="evenodd" clip-rule="evenodd" d="M33.6671 21.6175L37.1921 14.5675C38.3575 12.2369 37.4387 10.7488 34.8131 10.7488H24.1067C21.4431 10.7488 20.5459 12.2041 21.7276 14.5675L25.6878 22.4879L22.4831 24.0903L18.5229 16.1698C16.151 11.426 18.7775 7.16586 24.1067 7.16586H34.8131C40.1031 7.16586 42.7529 11.4577 40.3968 16.1698L37.7329 21.4976H34.8555C34.4093 21.4976 34.0127 21.5384 33.6671 21.6175Z" fill="#FF8686"/>
<path fill-rule="evenodd" clip-rule="evenodd" d="M47.3744 32.2464C61.7061 39.4123 83.2038 82.4075 58.1232 82.4075H22.2938C-2.78676 82.4075 18.7109 39.4123 33.0426 32.2464H47.3744ZM33.9578 35.8249C27.9063 39.3746 19.9324 50.6186 16.2744 61.1862C12.2802 72.7251 14.1759 78.8246 22.2938 78.8246H58.1232C66.241 78.8246 68.1368 72.7251 64.1426 61.1862C60.4897 50.6335 52.5331 39.4063 46.4848 35.84L33.9578 35.8249Z" fill="#FF8686"/>
<path fill-rule="evenodd" clip-rule="evenodd" d="M32.4764 25.3163C31.2947 22.9528 32.1919 21.4976 34.8554 21.4976H45.5618C48.1875 21.4976 49.1062 22.9856 47.9409 25.3163L43.9807 33.2367L47.1854 34.839L51.1456 26.9186C53.5017 22.2064 50.8519 17.9146 45.5618 17.9146H34.8554C29.5263 17.9146 26.8998 22.1747 29.2717 26.9186L33.2319 34.839L36.4366 33.2367L32.4764 25.3163Z" fill="#FF8686"/>
</svg>
