<svg width="778" height="546" viewBox="0 0 778 546" fill="none" xmlns="http://www.w3.org/2000/svg">
<path d="M510.466 308.445H233.116V501.276H510.466V308.445Z" fill="#3B3457"/>
<path d="M495.567 501.276V321.785H248.014V501.276H495.567Z" fill="#EFE9FF"/>
<path d="M532.003 501.276H211.579C208.825 501.276 206.183 502.37 204.236 504.319C202.288 506.267 201.194 508.91 201.194 511.666C201.196 514.421 202.291 517.062 204.238 519.01C206.185 520.958 208.826 522.054 211.579 522.056H532.003C534.757 522.054 537.397 520.958 539.344 519.01C541.292 517.062 542.387 514.421 542.389 511.666C542.389 508.91 541.295 506.267 539.347 504.319C537.399 502.37 534.758 501.276 532.003 501.276Z" fill="#C5C0D8"/>
<path d="M408.795 511.666H334.787C332.033 511.664 329.393 510.568 327.446 508.62C325.499 506.672 324.404 504.031 324.402 501.276H419.18C419.178 504.031 418.083 506.672 416.136 508.62C414.189 510.568 411.548 511.664 408.795 511.666Z" fill="#9D96B8"/>
<path d="M352.207 134.582L350.493 128.518L349.859 128.699C349.659 129.604 349.167 130.418 348.459 131.015L348.715 131.839C349.26 131.372 349.72 130.815 350.073 130.191L351.465 134.871L352.207 134.582Z" fill="white"/>
<path d="M352.585 131.246C353.167 133.273 354.104 134.124 355.394 133.8C356.687 133.478 357.082 132.284 356.555 130.191C356.028 128.098 355.081 127.241 353.755 127.571C352.429 127.9 352.05 129.219 352.585 131.246ZM353.483 131.031C353.03 129.383 353.178 128.461 353.936 128.279C354.694 128.098 355.287 128.765 355.699 130.438C356.11 132.111 355.962 132.984 355.229 133.149C354.496 133.314 353.928 132.663 353.483 131.031Z" fill="white"/>
<path d="M360.377 132.473L358.936 126.326L358.302 126.475C358.056 127.357 357.53 128.135 356.803 128.691C356.861 128.947 356.927 129.219 357.001 129.515C357.569 129.079 358.057 128.546 358.442 127.941L359.578 132.696L360.377 132.473Z" fill="white"/>
<path d="M360.879 129.153C361.374 131.212 362.271 132.102 363.581 131.839C364.89 131.575 365.335 130.389 364.89 128.279C364.446 126.17 363.54 125.272 362.205 125.544C360.871 125.816 360.443 127.109 360.879 129.153ZM361.785 128.98C361.407 127.332 361.604 126.401 362.362 126.261C363.12 126.12 363.68 126.796 364.009 128.493C364.339 130.191 364.166 131.039 363.424 131.18C362.683 131.32 362.14 130.627 361.777 128.98" fill="white"/>
<path d="M368.613 130.677L367.402 124.472L366.76 124.596C366.488 125.472 365.931 126.231 365.178 126.755C365.236 127.018 365.294 127.282 365.351 127.579C365.937 127.166 366.445 126.653 366.85 126.063L367.798 130.85L368.613 130.677Z" fill="white"/>
<path d="M369.255 127.381C369.667 129.458 370.534 130.386 371.858 130.166C373.175 129.944 373.661 128.79 373.299 126.656C372.936 124.522 372.055 123.599 370.713 123.822C369.37 124.044 368.901 125.313 369.255 127.381ZM370.169 127.249C369.856 125.601 370.079 124.662 370.845 124.547C371.61 124.431 372.146 125.132 372.418 126.837C372.689 128.543 372.484 129.383 371.734 129.507C370.985 129.631 370.474 128.905 370.169 127.249Z" fill="white"/>
<path d="M376.906 129.243L375.91 123.006L375.267 123.105C374.962 123.966 374.383 124.704 373.62 125.206C373.67 125.461 373.711 125.733 373.76 126.03C374.363 125.641 374.888 125.144 375.308 124.563L376.091 129.392L376.906 129.243Z" fill="white"/>
<path d="M377.672 125.964C378.01 128.056 378.842 129.004 380.143 128.839C381.444 128.674 381.996 127.513 381.708 125.379C381.42 123.245 380.571 122.289 379.237 122.462C377.903 122.635 377.368 123.887 377.656 125.964H377.672ZM378.57 125.856C378.315 124.167 378.57 123.277 379.344 123.187C380.118 123.096 380.621 123.813 380.835 125.527C381.049 127.241 380.835 128.081 380.061 128.172C379.287 128.262 378.817 127.529 378.57 125.856Z" fill="white"/>
<path d="M385.274 128.056L384.45 121.786L383.8 121.869C383.469 122.722 382.863 123.441 382.078 123.912C382.078 124.176 382.153 124.448 382.185 124.736C382.819 124.375 383.378 123.897 383.833 123.327L384.45 128.172L385.274 128.056Z" fill="white"/>
<path d="M386.163 124.818C386.438 126.922 387.239 127.903 388.568 127.76C389.897 127.617 390.446 126.486 390.215 124.365C389.976 122.239 389.186 121.234 387.827 121.358C386.468 121.481 385.916 122.734 386.13 124.818H386.163ZM387.052 124.736C386.855 123.039 387.135 122.157 387.876 122.083C388.617 122.009 389.128 122.767 389.293 124.481C389.457 126.194 389.186 127.035 388.428 127.093C387.67 127.15 387.209 126.417 387.019 124.736" fill="white"/>
<path d="M393.674 127.159L393.106 120.864L392.455 120.921C392.09 121.762 391.46 122.46 390.66 122.907C390.66 123.171 390.717 123.443 390.742 123.731C391.366 123.378 391.924 122.918 392.389 122.371L392.85 127.233L393.674 127.159Z" fill="white"/>
<path d="M394.671 123.945C394.877 126.055 395.643 127.043 396.986 126.969C398.328 126.895 398.921 125.774 398.773 123.624C398.625 121.473 397.842 120.468 396.483 120.551C395.124 120.633 394.531 121.861 394.671 123.945ZM395.594 123.896C395.454 122.19 395.767 121.317 396.541 121.276C397.315 121.234 397.776 121.992 397.883 123.748C397.99 125.503 397.686 126.294 396.936 126.327C396.187 126.359 395.734 125.601 395.594 123.921" fill="white"/>
<path d="M402.099 126.557L401.737 120.254H401.094C400.701 121.08 400.047 121.755 399.233 122.173C399.233 122.437 399.233 122.709 399.291 122.997C399.911 122.662 400.468 122.222 400.938 121.696L401.234 126.573L402.099 126.557Z" fill="white"/>
<path d="M403.203 123.352C403.326 125.461 404.027 126.491 405.41 126.458C406.794 126.425 407.379 125.329 407.304 123.162C407.23 120.995 406.481 119.982 405.122 120.015C403.763 120.048 403.129 121.242 403.203 123.311V123.352ZM404.125 123.311C404.035 121.605 404.381 120.74 405.155 120.732C405.929 120.723 406.366 121.481 406.415 123.203C406.464 124.925 406.135 125.741 405.377 125.758C404.62 125.774 404.208 124.991 404.125 123.286" fill="white"/>
<path d="M410.549 126.195L410.393 119.875H409.742C409.326 120.689 408.651 121.341 407.823 121.729C407.823 121.992 407.823 122.264 407.823 122.553C408.47 122.249 409.056 121.83 409.553 121.317L409.685 126.195H410.549Z" fill="white"/>
<path d="M411.76 123.047C411.818 125.165 412.518 126.219 413.86 126.227C415.203 126.236 415.87 125.165 415.87 123.006C415.87 120.847 415.153 119.801 413.794 119.784C412.436 119.768 411.752 120.946 411.76 123.08V123.047ZM412.683 123.08C412.683 121.374 413.029 120.526 413.803 120.534C414.577 120.542 414.98 121.358 414.972 123.063C414.964 124.769 414.61 125.585 413.852 125.535C413.094 125.486 412.707 124.711 412.683 123.063" fill="white"/>
<path d="M418.991 126.137L419.057 119.817H418.406C417.962 120.613 417.267 121.238 416.429 121.597V122.421C417.086 122.139 417.687 121.74 418.2 121.242V126.128L418.991 126.137Z" fill="white"/>
<path d="M420.309 123.039C420.309 125.157 420.959 126.228 422.302 126.285C423.644 126.343 424.352 125.297 424.418 123.138C424.484 120.979 423.817 119.908 422.458 119.842C421.099 119.776 420.383 120.93 420.309 123.031V123.039ZM421.231 123.072C421.264 121.369 421.667 120.545 422.442 120.6C423.265 120.6 423.595 121.424 423.529 123.163C423.463 124.901 423.076 125.634 422.318 125.634C421.56 125.634 421.198 124.81 421.231 123.097" fill="white"/>
<path d="M427.433 126.376L427.721 120.064H427.071C426.597 120.846 425.879 121.451 425.028 121.786C425.028 122.05 425.028 122.322 425.028 122.61C425.692 122.344 426.305 121.965 426.84 121.49L426.634 126.367L427.433 126.376Z" fill="white"/>
<path d="M428.866 123.327C428.775 125.445 429.401 126.524 430.735 126.623C432.07 126.722 432.819 125.709 432.967 123.558C433.116 121.408 432.481 120.303 431.123 120.188C429.764 120.073 429.006 121.226 428.866 123.311V123.327ZM429.78 123.385C429.879 121.671 430.307 120.847 431.073 120.913C431.839 120.979 432.201 121.795 432.07 123.517C431.938 125.239 431.534 125.989 430.777 125.939C430.019 125.89 429.69 125.058 429.78 123.377" fill="white"/>
<path d="M435.867 126.911L436.378 120.608L435.727 120.559C435.221 121.322 434.481 121.9 433.619 122.207C433.619 122.47 433.619 122.742 433.561 123.03C434.236 122.787 434.863 122.428 435.414 121.968L435.035 126.837L435.867 126.911Z" fill="white"/>
<path d="M437.399 123.912C437.234 126.033 437.819 127.156 439.153 127.282C440.487 127.447 441.261 126.458 441.492 124.308C441.722 122.157 441.121 121.012 439.771 120.872C438.42 120.732 437.613 121.828 437.399 123.912ZM438.313 124.028C438.469 122.322 438.93 121.514 439.696 121.556C440.462 121.597 440.792 122.487 440.594 124.201C440.396 125.914 439.968 126.672 439.219 126.574C438.469 126.475 438.165 125.667 438.313 123.986" fill="white"/>
<path d="M444.259 127.744L445.008 121.465L444.358 121.391C443.827 122.14 443.067 122.696 442.192 122.973C442.192 123.237 442.134 123.508 442.109 123.797C442.794 123.585 443.434 123.247 443.995 122.8L443.443 127.653C443.715 127.653 443.987 127.711 444.267 127.752" fill="white"/>
<path d="M445.906 124.81C445.665 126.919 446.214 128.068 447.553 128.254C448.879 128.436 449.686 127.488 450.024 125.354C450.362 123.22 449.777 122.058 448.426 121.869C447.076 121.679 446.236 122.734 445.956 124.81H445.906ZM446.87 124.958C447.084 123.261 447.57 122.487 448.336 122.594C449.102 122.701 449.398 123.541 449.159 125.255C448.92 126.969 448.434 127.727 447.685 127.587C446.936 127.447 446.672 126.639 446.861 124.958" fill="white"/>
<path d="M452.618 128.897L453.598 122.66L452.956 122.561C452.4 123.289 451.618 123.811 450.732 124.044C450.732 124.308 450.658 124.579 450.617 124.868C451.31 124.684 451.963 124.374 452.544 123.953L451.803 128.782L452.618 128.897Z" fill="white"/>
<path d="M454.372 126.022C454.054 128.114 454.553 129.284 455.871 129.532C457.181 129.779 458.037 128.848 458.424 126.722C458.811 124.596 458.301 123.426 456.958 123.187C455.616 122.948 454.743 123.953 454.372 126.022ZM455.278 126.211C455.558 124.522 456.102 123.739 456.835 123.904C457.568 124.069 457.856 124.901 457.535 126.598C457.213 128.296 456.711 129.021 455.978 128.872C455.245 128.724 454.998 127.875 455.278 126.211Z" fill="white"/>
<path d="M460.929 130.372L462.148 124.176L461.505 124.044C460.923 124.747 460.123 125.237 459.232 125.436C459.183 125.7 459.133 125.964 459.084 126.26C459.779 126.107 460.441 125.828 461.036 125.436L460.113 130.232L460.929 130.372Z" fill="white"/>
<path d="M462.789 127.571C462.385 129.655 462.847 130.809 464.148 131.122C465.449 131.435 466.339 130.529 466.808 128.427C467.277 126.326 466.808 125.132 465.49 124.819C464.173 124.505 463.234 125.527 462.789 127.571ZM463.687 127.777C464.033 126.129 464.584 125.346 465.334 125.535C466.083 125.725 466.314 126.574 465.927 128.263C465.54 129.952 465.021 130.644 464.28 130.463C463.538 130.281 463.332 129.433 463.678 127.777" fill="white"/>
<path d="M469.164 132.16L470.63 126.013L469.996 125.857C469.383 126.538 468.565 127.001 467.665 127.175C467.608 127.439 467.542 127.702 467.484 127.999C468.189 127.861 468.864 127.599 469.477 127.224L468.365 131.979L469.164 132.16Z" fill="white"/>
<path d="M471.133 129.441C470.655 131.501 471.061 132.701 472.352 133.042C473.645 133.379 474.559 132.539 475.119 130.446C475.679 128.353 475.267 127.15 473.941 126.804C472.615 126.458 471.668 127.414 471.133 129.441ZM472.022 129.688C472.434 128.04 473.019 127.307 473.76 127.513C474.501 127.719 474.707 128.576 474.246 130.24C473.785 131.904 473.241 132.597 472.516 132.391C471.792 132.185 471.619 131.328 472.022 129.688Z" fill="white"/>
<path d="M477.326 134.286L479.039 128.205L478.413 128.032C477.776 128.689 476.938 129.115 476.033 129.243C475.958 129.498 475.893 129.762 475.818 130.067C476.527 129.967 477.21 129.738 477.836 129.391L476.502 134.063L477.326 134.286Z" fill="white"/>
<path d="M479.409 131.624C478.841 133.668 479.195 134.92 480.463 135.299C481.732 135.678 482.695 134.879 483.338 132.827C483.98 130.776 483.618 129.531 482.316 129.136C481.015 128.74 480.019 129.63 479.409 131.608V131.624ZM480.282 131.904C480.76 130.257 481.369 129.573 482.102 129.812C482.835 130.051 483 130.924 482.473 132.572C481.946 134.22 481.378 134.879 480.661 134.64C479.944 134.401 479.837 133.528 480.282 131.904Z" fill="white"/>
<path d="M485.38 136.741L487.349 130.735L486.723 130.529C486.055 131.153 485.202 131.543 484.293 131.641C484.211 131.896 484.137 132.152 484.046 132.465C484.758 132.385 485.452 132.185 486.097 131.872L484.598 136.445L485.38 136.741Z" fill="white"/>
<path d="M487.572 134.187C486.918 136.197 487.223 137.425 488.486 137.87C489.746 138.331 490.726 137.565 491.451 135.53C492.175 133.495 491.871 132.234 490.627 131.781C489.383 131.328 488.305 132.209 487.613 134.187H487.572ZM488.436 134.508C488.98 132.86 489.622 132.209 490.347 132.473C491.072 132.737 491.171 133.627 490.602 135.25C490.034 136.873 489.416 137.499 488.708 137.236C488 136.972 487.885 136.107 488.436 134.508Z" fill="white"/>
<path d="M493.337 139.518L495.552 133.602L494.934 133.379C494.246 133.982 493.377 134.339 492.464 134.393C492.373 134.648 492.283 134.904 492.184 135.167C492.901 135.127 493.605 134.954 494.259 134.657L492.563 139.238L493.337 139.518Z" fill="white"/>
<path d="M495.625 137.063C494.89 139.051 495.14 140.298 496.375 140.803C497.61 141.306 498.64 140.564 499.455 138.562C500.271 136.56 499.999 135.324 498.739 134.805C497.479 134.286 496.408 135.11 495.625 137.063ZM496.449 137.425C497.067 135.835 497.734 135.184 498.442 135.489C499.15 135.794 499.266 136.667 498.582 138.266C497.899 139.864 497.289 140.474 496.597 140.177C495.905 139.88 495.84 138.999 496.449 137.425Z" fill="white"/>
<path d="M501.152 142.649L503.623 136.832L503.021 136.576C502.307 137.146 501.423 137.462 500.509 137.475L500.197 138.233C500.913 138.219 501.621 138.08 502.288 137.821L500.386 142.328L501.152 142.649Z" fill="white"/>
<path d="M503.549 140.292C502.726 142.245 502.931 143.489 504.15 144.033C505.369 144.577 506.407 143.918 507.305 141.957C508.203 139.996 507.997 138.735 506.761 138.15C505.526 137.565 504.414 138.381 503.549 140.292ZM504.373 140.68C505.056 139.114 505.748 138.488 506.448 138.817C507.148 139.147 507.19 140.045 506.448 141.611C505.707 143.176 505.065 143.753 504.389 143.423C503.714 143.094 503.673 142.229 504.389 140.68" fill="white"/>
<path d="M508.836 146.093L511.554 140.391L510.952 140.119C510.215 140.668 509.318 140.957 508.399 140.943C508.284 141.182 508.169 141.429 508.054 141.693C508.771 141.71 509.486 141.595 510.162 141.355L508.087 145.772L508.836 146.093Z" fill="white"/>
<path d="M511.332 143.86C510.426 145.772 510.566 147.041 511.76 147.65C512.954 148.26 514.025 147.609 515.055 145.689C516.084 143.77 515.878 142.509 514.667 141.883C513.457 141.256 512.32 141.99 511.373 143.86H511.332ZM512.197 144.297C512.949 142.764 513.665 142.179 514.346 142.542C515.079 142.855 515.038 143.786 514.247 145.319C513.457 146.851 512.773 147.403 512.106 147.049C511.439 146.695 511.447 145.813 512.197 144.297Z" fill="white"/>
<path d="M515.638 145.986C514.694 147.87 514.804 149.139 515.968 149.793C517.132 150.446 518.23 149.823 519.262 147.922C520.267 146.033 520.171 144.755 518.974 144.091C517.738 143.506 516.626 144.132 515.638 145.986ZM516.462 146.439C517.285 144.923 517.985 144.363 518.652 144.742C519.32 145.121 519.32 146.011 518.488 147.527C517.656 149.043 516.956 149.57 516.305 149.175C515.655 148.779 515.688 147.914 516.462 146.414" fill="white"/>
<path d="M520.507 152.158L523.604 146.645L523.035 146.324C522.255 146.808 521.339 147.027 520.425 146.95L520.037 147.675C520.752 147.731 521.471 147.664 522.162 147.478L519.79 151.746L520.507 152.158Z" fill="white"/>
<path d="M523.151 150.081C522.113 151.935 522.171 153.196 523.324 153.88C523.573 154.048 523.864 154.144 524.164 154.159C524.465 154.173 524.764 154.105 525.028 153.962C525.705 153.486 526.274 152.873 526.7 152.164C527.125 151.454 527.398 150.663 527.499 149.842C527.491 149.536 527.402 149.238 527.241 148.978C527.081 148.717 526.854 148.504 526.585 148.359C525.366 147.733 524.221 148.359 523.159 150.122L523.151 150.081ZM523.982 150.608C524.806 149.134 525.588 148.59 526.255 148.96C526.923 149.331 526.865 150.246 525.967 151.721C525.07 153.196 524.32 153.707 523.711 153.311C523.101 152.915 523.134 152.042 523.982 150.575" fill="white"/>
<path d="M527.745 156.45L531.04 151.086L530.488 150.74C529.692 151.195 528.768 151.372 527.861 151.243L527.432 151.943C528.143 152.044 528.865 152.016 529.565 151.861L527.004 155.98L527.745 156.45Z" fill="white"/>
<path d="M530.488 154.481C529.368 156.294 529.392 157.521 530.488 158.287C531.583 159.054 532.745 158.518 533.931 156.722C535.117 154.926 535.108 153.649 533.98 152.874C532.852 152.1 531.624 152.734 530.488 154.481ZM531.254 154.992C532.176 153.552 532.953 153.053 533.585 153.492C534.268 153.896 534.128 154.81 533.173 156.252C532.217 157.694 531.476 158.156 530.858 157.727C530.241 157.299 530.348 156.417 531.254 154.992Z" fill="white"/>
<path d="M534.812 161.032L538.379 155.816L537.835 155.453C537.017 155.879 536.082 156.02 535.175 155.857L534.722 156.541C535.43 156.67 536.155 156.67 536.863 156.541L534.153 160.578L534.812 161.032Z" fill="white"/>
<path d="M537.621 159.202C536.435 160.954 536.38 162.226 537.456 163.017C538.532 163.808 539.707 163.327 540.981 161.575C542.217 159.836 542.282 158.559 541.179 157.76C540.075 156.961 538.84 157.505 537.621 159.202ZM538.354 159.762C539.331 158.362 540.133 157.892 540.759 158.353C541.385 158.815 541.209 159.724 540.232 161.081C539.243 162.457 538.453 162.918 537.843 162.465C537.234 162.012 537.39 161.147 538.354 159.762Z" fill="white"/>
<path d="M541.647 165.95L545.436 160.891L544.909 160.496C544.078 160.875 543.146 160.968 542.257 160.76L541.771 161.427C542.468 161.585 543.187 161.622 543.896 161.534L540.988 165.456L541.647 165.95Z" fill="white"/>
<path d="M544.539 164.237C543.281 165.934 543.177 167.195 544.226 168.019C545.28 168.843 546.45 168.447 547.792 166.75C549.135 165.052 549.25 163.767 548.171 162.918C547.092 162.07 545.832 162.589 544.539 164.237ZM545.255 164.813C546.293 163.451 547.117 163.014 547.726 163.503C548.385 163.94 548.154 164.863 547.076 166.206C545.997 167.549 545.231 167.953 544.605 167.483C543.979 167.013 544.201 166.156 545.222 164.813" fill="white"/>
<path d="M548.286 171.141L552.281 166.247L551.77 165.835C550.923 166.186 549.984 166.243 549.101 166L548.591 166.643C549.282 166.835 550.002 166.896 550.716 166.824L547.644 170.622L548.286 171.141Z" fill="white"/>
<path d="M551.259 169.535C549.925 171.183 549.776 172.427 550.773 173.317C551.769 174.207 552.972 173.836 554.38 172.204C555.789 170.573 555.945 169.304 554.924 168.398C554.692 168.195 554.411 168.057 554.109 167.996C553.807 167.935 553.495 167.955 553.202 168.052C552.431 168.358 551.758 168.871 551.259 169.535ZM551.951 170.144C553.049 168.832 553.872 168.436 554.421 168.958C554.97 169.48 554.715 170.375 553.655 171.644C552.552 172.929 551.728 173.292 551.185 172.806C550.641 172.32 550.847 171.446 551.934 170.144" fill="white"/>
<path d="M554.743 176.596L558.943 171.866L558.449 171.438C557.585 171.753 556.642 171.776 555.764 171.504L555.22 172.13C555.907 172.343 556.627 172.43 557.345 172.385L554.117 176.052L554.743 176.596Z" fill="white"/>
<path d="M557.724 175.17C556.324 176.752 556.11 178.005 557.082 178.928C558.053 179.851 559.278 179.524 560.755 177.947C562.204 176.371 562.432 175.116 561.438 174.182C560.444 173.248 559.206 173.577 557.724 175.17ZM558.383 175.813C559.536 174.544 560.384 174.165 560.944 174.717C561.504 175.269 561.265 176.11 560.121 177.362C558.976 178.615 558.119 178.961 557.576 178.433C557.032 177.906 557.296 177.066 558.399 175.813" fill="white"/>
<path d="M560.878 182.339L565.267 177.783L564.798 177.329C563.925 177.595 562.989 177.572 562.129 177.263L561.561 177.865C562.236 178.103 562.946 178.225 563.661 178.227L560.293 181.762L560.878 182.339Z" fill="white"/>
<path d="M563.958 180.996C562.501 182.52 562.237 183.764 563.184 184.712C563.386 184.94 563.646 185.107 563.937 185.196C564.228 185.284 564.537 185.291 564.831 185.215C565.633 184.97 566.351 184.508 566.907 183.88C567.534 183.32 568 182.603 568.258 181.803C568.323 181.507 568.31 181.199 568.219 180.91C568.127 180.621 567.962 180.361 567.739 180.155C566.718 179.244 565.463 179.518 563.975 180.979L563.958 180.996ZM564.617 181.647C565.812 180.427 566.685 180.09 567.22 180.65C567.755 181.21 567.492 182.042 566.256 183.245C565.021 184.448 564.197 184.761 563.67 184.218C563.143 183.674 563.431 182.85 564.617 181.647Z" fill="white"/>
<path d="M566.833 188.354L571.387 183.979L570.943 183.509C570.059 183.75 569.12 183.689 568.274 183.336C568.093 183.526 567.895 183.715 567.69 183.921C568.351 184.196 569.057 184.347 569.773 184.366L566.273 187.72L566.833 188.354Z" fill="white"/>
<path d="M569.971 187.085C568.447 188.56 568.142 189.779 569.048 190.768C569.954 191.757 571.173 191.551 572.763 190.101C574.352 188.651 574.665 187.406 573.767 186.376C572.87 185.346 571.511 185.668 569.971 187.085ZM570.588 187.777C571.832 186.607 572.713 186.302 573.232 186.879C573.751 187.456 573.43 188.296 572.145 189.458C570.86 190.62 570.036 190.883 569.542 190.282C569.048 189.68 569.353 188.906 570.588 187.752" fill="white"/>
<path d="M572.549 194.517L577.276 190.323L576.84 189.837C575.949 190.047 575.013 189.955 574.18 189.573L573.57 190.125C574.223 190.421 574.923 190.597 575.638 190.644L571.997 193.94L572.549 194.517Z" fill="white"/>
<path d="M575.743 193.405C575.09 193.913 574.588 194.591 574.294 195.366C574.203 195.656 574.188 195.965 574.252 196.262C574.315 196.559 574.455 196.835 574.656 197.063C575.48 198.101 576.756 197.928 578.403 196.536C580.051 195.143 580.405 193.915 579.54 192.861C579.343 192.624 579.087 192.442 578.798 192.334C578.509 192.225 578.197 192.194 577.893 192.243C577.081 192.426 576.335 192.827 575.735 193.405H575.743ZM576.32 194.121C577.605 192.993 578.494 192.737 578.972 193.339C579.449 193.94 579.128 194.764 577.794 195.868C576.46 196.972 575.628 197.219 575.159 196.626C574.689 196.033 575.043 195.225 576.32 194.154" fill="white"/>
<path d="M578.042 200.927L582.918 196.906L582.498 196.412C581.596 196.594 580.66 196.47 579.837 196.058L579.211 196.585C579.858 196.902 580.555 197.103 581.27 197.178L577.507 200.293L578.042 200.927Z" fill="white"/>
<path d="M581.254 199.947C579.607 201.298 579.22 202.501 580.035 203.564C580.851 204.627 582.111 204.495 583.815 203.169C585.52 201.842 585.899 200.623 585.067 199.543C584.236 198.464 582.901 198.653 581.254 199.947ZM581.806 200.688C583.132 199.609 584.03 199.387 584.499 200.005C584.968 200.623 584.598 201.422 583.231 202.476C581.864 203.531 581.015 203.745 580.562 203.144C580.109 202.542 580.496 201.743 581.806 200.672" fill="white"/>
<path d="M583.288 207.543L588.304 203.712L587.917 203.185C587.008 203.33 586.076 203.174 585.265 202.74L584.614 203.251C585.251 203.588 585.942 203.809 586.657 203.902L582.786 206.884C582.959 207.098 583.115 207.329 583.288 207.543Z" fill="white"/>
<path d="M586.525 206.687C584.878 207.98 584.4 209.158 585.191 210.263C585.982 211.367 587.234 211.26 588.98 209.982C590.726 208.705 591.154 207.511 590.355 206.415C589.556 205.319 588.222 205.451 586.525 206.687ZM587.052 207.445C588.42 206.423 589.326 206.228 589.77 206.86C590.273 207.469 589.828 208.277 588.42 209.332C587.011 210.386 586.163 210.518 585.726 209.9C585.29 209.282 585.726 208.499 587.052 207.486" fill="white"/>
<path d="M588.287 214.358L593.434 210.691L593.064 210.164C592.155 210.261 591.238 210.068 590.445 209.612L589.778 210.098C590.4 210.451 591.076 210.699 591.779 210.831L587.809 213.674L588.287 214.358Z" fill="white"/>
<path d="M591.557 213.608C589.844 214.844 589.36 216.017 590.107 217.127C590.854 218.236 592.122 218.187 593.912 216.978C595.666 215.767 596.169 214.597 595.403 213.468C594.637 212.339 593.294 212.43 591.557 213.608ZM592.059 214.383C593.459 213.4 594.373 213.232 594.802 213.88C595.23 214.528 594.755 215.322 593.377 216.261C591.977 217.217 591.071 217.374 590.659 216.748C590.247 216.121 590.659 215.347 592.059 214.383Z" fill="white"/>
<path d="M593.064 221.312L598.327 217.819L597.973 217.275C597.065 217.357 596.155 217.128 595.395 216.624L594.712 217.085C595.306 217.483 595.972 217.762 596.672 217.909L592.628 220.636L593.064 221.312Z" fill="white"/>
<path d="M596.359 220.694C594.604 221.864 594.077 223.026 594.802 224.163C595.527 225.3 596.787 225.284 598.607 224.163C600.427 223.042 600.938 221.856 600.254 220.702C599.571 219.549 598.171 219.606 596.4 220.702L596.359 220.694ZM596.878 221.485C598.311 220.554 599.233 220.422 599.637 221.073C600.04 221.724 599.637 222.49 598.138 223.405C596.639 224.319 595.799 224.451 595.403 223.8C595.008 223.149 595.469 222.408 596.878 221.485Z" fill="white"/>
<path d="M223.06 263.993H363.358C376.599 263.993 387.333 253.254 387.333 240.007V162.901C387.333 149.655 376.599 138.916 363.358 138.916H223.06C209.82 138.916 199.086 149.655 199.086 162.901V240.007C199.086 253.254 209.82 263.993 223.06 263.993Z" fill="url(#paint0_linear)"/>
<path d="M268.275 137.268C237.893 130.125 211.225 132.794 202.775 111.001C194.325 89.2069 202.775 59.4044 202.775 59.4044C202.775 59.4044 188.552 59.1819 176.544 56.6277C176.544 56.6277 167.657 90.2781 168.547 117.32C169.436 144.363 179.188 148.367 195.659 158.592C212.131 168.818 236.32 175.945 236.32 175.945L268.275 137.268Z" fill="url(#paint1_linear)"/>
<path d="M311.291 149.9C331.255 159.037 343.666 175.5 352.355 211.968C361.044 248.437 365.038 264.446 365.038 264.446H332.144L316.134 236.432L311.291 149.9Z" fill="#3900A3"/>
<path d="M284.079 137.878C315.762 146.217 321.47 158.148 325.473 176.835C329.475 195.522 325.473 264.446 325.473 264.446H222.78C222.78 264.446 226.338 199.073 227.227 179.941C228.117 160.809 230.678 123.83 284.079 137.878Z" fill="url(#paint2_linear)"/>
<path d="M202.775 59.4127C202.775 59.4127 215.079 55.9438 218.381 45.7103C221.684 35.4768 226.403 29.1817 229.912 26.0342C233.42 22.8867 224.484 18.5527 218.381 26.0342L212.237 33.5075C212.237 33.5075 221.676 3.99338 213.415 1.23313C205.155 -1.52712 188.312 1.23313 185.323 5.56714C182.333 9.90115 177.227 24.065 178.8 35.4768C180.373 46.8886 183.124 53.2248 183.124 53.2248L183.198 57.8389L202.775 59.4127Z" fill="url(#paint3_linear)"/>
<path d="M313.308 290.582V263.812H281.534L309.759 292.057C310.05 292.346 310.421 292.542 310.824 292.621C311.227 292.7 311.644 292.658 312.024 292.501C312.403 292.343 312.727 292.077 312.956 291.736C313.184 291.394 313.307 290.993 313.308 290.582Z" fill="url(#paint4_linear)"/>
<path d="M282.769 101.954C282.769 101.954 279.393 118.318 275.62 117.279C271.848 116.241 273.15 107.812 273.15 107.812C273.15 107.812 268.299 112.921 267.533 105.266C266.767 97.6116 272.153 80.8112 273.15 70.7424L287.974 72.8435L281.641 96.8371L282.769 101.954Z" fill="#3B3457"/>
<path d="M302.972 127.216C302.972 127.216 297.108 138.949 296.598 143.984L304.504 149.273C304.504 149.273 317.261 173.778 290.503 173.267C263.745 172.756 260.401 143.654 260.656 137.532L268.308 137.277C268.308 137.277 278.372 111.594 278.849 102.481L302.972 127.216Z" fill="#FFB876"/>
<path d="M334.721 78.0341C334.317 94.7686 329.837 115.376 318.727 125.156C307.617 134.937 301.069 133.346 295.551 128.114C290.033 122.882 276.09 112.393 279.285 93.3679C282.481 74.3428 284.515 62.4283 293.805 58.358C303.095 54.2877 335.256 56.1498 334.721 78.0341Z" fill="url(#paint5_linear)"/>
<path d="M282.769 101.954C282.769 101.954 273.636 107.301 271.594 95.8152C269.551 84.3293 274.888 73.6096 283.84 83.8267L282.769 101.954Z" fill="url(#paint6_linear)"/>
<path d="M294.3 73.0985C294.3 73.0985 287.266 93.3679 283.28 93.3679C279.294 93.3679 281.633 68.2537 281.633 68.2537L294.3 73.0985Z" fill="#3B3457"/>
<path d="M337.67 85.0875C337.67 85.0875 340.684 67.2735 334.821 57.7074C328.957 48.1413 297.685 35.2958 280.571 50.4319C275.374 55.0295 273.159 70.7424 273.159 70.7424C273.159 70.7424 284.895 76.6172 294.333 77.3835L319.864 87.2709L337.67 85.0875Z" fill="url(#paint7_linear)"/>
<path d="M337.67 85.0873C337.67 85.0873 313.349 86.2161 294.3 77.3833C294.3 77.3833 299.916 91.7778 319.831 97.6526C339.745 103.527 355.039 104.64 351.95 97.6526C348.862 90.6655 337.67 85.0873 337.67 85.0873Z" fill="url(#paint8_linear)"/>
<path d="M561.792 385.881H754.025C767.266 385.881 778 375.142 778 361.896V259.906C778 246.659 767.266 235.921 754.025 235.921L561.792 235.921C548.552 235.921 537.818 246.659 537.818 259.906V361.896C537.818 375.142 548.552 385.881 561.792 385.881Z" fill="url(#paint9_linear)"/>
<path d="M644.95 417.974V385.84H683.049L649.208 419.704C648.866 420.063 648.424 420.31 647.939 420.414C647.455 420.518 646.95 420.474 646.491 420.288C646.032 420.101 645.639 419.781 645.364 419.368C645.09 418.955 644.945 418.47 644.95 417.974Z" fill="#FA6C69"/>
<path d="M695.912 129.54C718.207 144.56 725.957 156.673 723.091 179.447C720.225 202.221 719.212 220.645 727.447 228.39C735.683 236.135 756.503 252.787 745.369 268.698C734.234 284.608 721.023 288.473 721.023 288.473C721.023 288.473 727.933 310.761 705.647 311.725C683.361 312.689 615.563 302.521 611.684 275.388C607.805 248.255 611.684 236.135 600.064 226.931C588.443 217.728 594.735 198.34 600.064 187.678C605.392 177.016 588.92 158.609 603.934 143.58C618.948 128.551 635.42 117.897 652.369 129.573C669.319 141.248 695.912 129.54 695.912 129.54Z" fill="url(#paint10_linear)"/>
<path d="M572.605 295.122L562.722 302.941C562.722 302.941 554.486 280.225 546.868 258.044C539.25 235.863 537.603 224.105 537.603 224.105L516.091 229.873C516.091 229.873 521.387 256.693 526.674 292.782C531.961 328.871 544.546 343.777 554.149 345.095C563.752 346.413 601.48 312.862 601.48 312.862L572.605 295.122Z" fill="url(#paint11_linear)"/>
<path d="M624.796 248.091C607.5 248.033 598.573 251.337 586.466 268.689C574.359 286.042 566.123 295.114 566.123 295.114C566.123 295.114 579.152 311.502 593.466 316.94C607.78 322.378 624.796 248.091 624.796 248.091Z" fill="#FF4B60"/>
<path d="M657.904 254.072C619.888 243.41 613.587 246.006 599.545 268.697C585.503 291.389 573.874 314.163 581.624 328.698C589.374 343.233 598.096 356.317 595.674 385.872H691.087C691.087 385.872 685.272 366.007 691.087 341.782C696.901 317.558 719.665 301.079 705.615 281.691C691.564 262.304 657.904 254.072 657.904 254.072Z" fill="#FA6C69"/>
<path d="M64.7172 364.837C67.2917 364.837 69.3787 362.749 69.3787 360.173C69.3787 357.598 67.2917 355.51 64.7172 355.51C62.1428 355.51 60.0558 357.598 60.0558 360.173C60.0558 362.749 62.1428 364.837 64.7172 364.837Z" fill="#1194F6"/>
<path d="M640.823 231.644C640.823 231.644 643.08 244.704 640.823 252.392L639.25 257.731C639.25 257.731 624.491 256.47 624.804 270.296C625.117 284.122 640.823 295.122 654.956 295.122C669.089 295.122 686.054 285.696 682.595 275.347C679.136 264.998 675.06 266.547 675.06 261.521C675.06 256.495 677.259 237.008 680.396 224.122L640.823 231.644Z" fill="#FFB876"/>
<path d="M654.627 141.734C634.153 139.609 618.101 162.844 617.565 192.696C617.03 222.548 627.86 235.929 644.324 239.53C660.787 243.13 683.419 228.209 689.086 216.887C694.752 205.566 718.941 148.425 654.627 141.734Z" fill="url(#paint12_linear)"/>
<path d="M689.192 198.966C689.192 198.966 701.125 190.479 706.487 196.14C711.848 201.801 707.426 219.705 697.847 220.966C695.154 221.39 692.399 221.154 689.817 220.278C687.235 219.403 684.904 217.914 683.023 215.94L689.192 198.966Z" fill="url(#paint13_linear)"/>
<path d="M646.531 129.54C630.495 139.493 637.323 163.94 651.373 174.116C665.424 184.292 684.877 180.707 689.192 198.966C693.508 217.225 713.851 216.269 713.851 216.269C713.851 216.269 719.138 142.616 695.913 129.531C672.688 116.447 660.573 120.789 646.531 129.54Z" fill="url(#paint14_linear)"/>
<path d="M725.677 333.848L748.54 385.873H716.733L698.252 346.529L725.677 333.848Z" fill="url(#paint15_linear)"/>
<path d="M691.458 268.698C713.349 279.269 723.042 319.486 729.343 335.479C729.343 335.479 720.044 349.413 703.186 353.895L695.905 355.831C695.905 355.831 673.339 324.957 675.81 305.924C678.28 286.891 691.458 268.698 691.458 268.698Z" fill="#FA6C69"/>
<path d="M537.587 224.105C537.587 224.105 543.681 218.741 542.569 207.626C541.458 196.511 535.907 198.224 533.131 187.95C530.356 177.675 523.701 174.099 523.446 179.372C523.19 184.646 531.187 195.769 527.028 198.241C522.869 200.713 505.385 175.17 497.61 178.244C489.835 181.317 485.124 202.064 490.675 207.642C496.226 213.22 516.075 229.889 516.075 229.889L537.587 224.105Z" fill="url(#paint16_linear)"/>
<path d="M29.9296 505.47H222.163C235.403 505.47 246.137 494.731 246.137 481.484L246.137 379.495C246.137 366.248 235.403 355.51 222.163 355.51H29.9296C16.6888 355.51 5.95502 366.248 5.95502 379.495L5.95502 481.484C5.95502 494.731 16.6888 505.47 29.9296 505.47Z" fill="#813ABE"/>
<path d="M178.109 427.952C199.357 437.716 224.295 505.478 224.295 505.478H186.229L178.109 427.952Z" fill="url(#paint17_linear)"/>
<path d="M123.472 412.371C160.731 412.256 201.58 427.927 191.179 472.915C186.237 494.338 186.237 505.478 186.237 505.478H52.3551C52.3551 505.478 47.1088 472.866 46.45 452.069C45.7911 431.273 78.4463 412.511 123.472 412.371Z" fill="url(#paint18_linear)"/>
<path d="M146.343 392.168C146.343 392.168 142.225 406.892 142.925 417.504C142.925 417.504 158.326 420.586 153.871 428.463C149.415 436.34 142.925 443.871 125.473 441.811C108.022 439.751 87.8274 425.381 93.1313 420.586C98.4351 415.79 103.228 415.107 107.33 382.585L146.343 392.168Z" fill="#FFB876"/>
<path d="M163.358 349.693C170.77 346.726 185.595 339.649 184.87 330.742C184.499 325.921 177.079 328.517 177.079 328.517C177.079 328.517 191.179 314.782 191.179 304.952C191.179 295.122 177.82 304.391 174.114 304.952C174.114 304.952 179.681 288.473 174.114 286.586C168.547 284.699 159.652 294.751 154.455 294.38C149.258 294.01 111.793 286.034 98.8218 295.493C85.8503 304.952 86.2127 315.161 86.2127 315.161C86.2127 315.161 76.9391 320.969 79.9123 334.112C82.8854 347.254 93.3697 365.644 93.0896 374.551C92.8096 383.458 88.5105 389.918 93.0896 390.882C97.6688 391.846 101.029 388.196 101.029 388.196C101.029 388.196 98.0559 395.678 101.853 395.678C105.649 395.678 113.753 382.437 113.753 382.437L163.358 349.693Z" fill="#3B3457"/>
<path d="M167.122 327.413C167.122 327.413 167.122 354.422 164.066 369.715C161.011 385.007 143.23 403.868 130.209 401.849C117.188 399.83 100.379 386.045 96.3018 370.753C92.225 355.46 93.2463 320.022 93.2463 320.022L167.122 327.413Z" fill="url(#paint19_linear)"/>
<path d="M101.07 364.903C101.07 364.903 95.1158 369.36 90.2978 364.903C85.4799 360.445 79.5418 342.656 84.7304 339.303C89.919 335.949 101.07 342.269 101.07 342.269V364.903Z" fill="url(#paint20_linear)"/>
<path d="M172.014 320.006C172.014 320.006 176.461 334.013 156.613 334.309C136.765 334.606 121.784 327.166 114.61 332.307C107.437 337.449 108.285 363.082 99.8516 360.173C96.6067 359.061 89.5486 329.514 89.5486 329.514V312.4L172.014 320.006Z" fill="#3B3457"/>
<path d="M65.6063 425.711C39.8528 437.51 19.8315 474.934 14.2558 505.478L10.2779 516.503C10.2779 516.503 20.9104 521.397 28.9403 513.289C36.9703 505.181 72.195 469.175 72.195 469.175C76.007 462.208 77.4269 454.182 76.2366 446.33C75.0463 438.477 71.3115 431.233 65.6063 425.711Z" fill="#F4F0FF"/>
<path d="M46.2442 430.943C46.2442 430.943 43.411 453.676 38.0083 472.916C32.6056 492.155 22.2943 520.928 10.2453 516.503C-1.80376 512.078 -2.84972 495.08 5.13905 472.454C11.4642 454.541 23.085 425.439 23.085 425.439L46.2442 430.943Z" fill="#FFB876"/>
<path d="M28.611 430.943H63.8687C66.9071 430.943 69.3702 428.479 69.3702 425.439L69.3702 353.046C69.3702 350.006 66.9071 347.542 63.8687 347.542H28.611C25.5726 347.542 23.1095 350.006 23.1095 353.046L23.1095 425.439C23.1095 428.479 25.5726 430.943 28.611 430.943Z" fill="url(#paint21_linear)"/>
<path d="M11.3489 397.523C14.2475 392.549 18.7832 388.737 24.1804 386.738C35.2082 382.618 45.4536 379.059 44.1276 384.348C42.5464 390.701 33.0092 395.678 33.0092 395.678C33.0092 395.678 44.3583 387.949 44.243 395.678C44.1276 403.406 47.3067 425.9 38.5684 430.943C29.8302 435.986 21.8826 436.991 17.5258 427.952C13.1691 418.913 8.12049 403.167 11.2501 397.688L11.3489 397.523Z" fill="#FDCCA3"/>
<path d="M19.6008 392.695C19.6008 392.695 18.0359 387.57 15.6887 381.646C13.3415 375.722 14.6428 370.506 19.6008 373.11C24.5587 375.713 27.4989 389.21 27.4989 389.21L19.6008 392.695Z" fill="url(#paint22_linear)"/>
<path d="M278.199 476.145H246.079V438.013L279.92 471.869C280.284 472.21 280.536 472.653 280.644 473.139C280.752 473.626 280.71 474.134 280.523 474.597C280.337 475.06 280.016 475.455 279.601 475.731C279.186 476.008 278.697 476.152 278.199 476.145Z" fill="#813ABE"/>
<path d="M464.412 423.082H419.6C413.273 423.082 408.144 428.214 408.144 434.544V469.702C408.144 476.032 413.273 481.163 419.6 481.163H464.412C470.739 481.163 475.868 476.032 475.868 469.702V434.544C475.868 428.214 470.739 423.082 464.412 423.082Z" fill="url(#paint23_linear)"/>
<path d="M429.105 464.536V439.71C429.105 439.154 429.248 438.608 429.521 438.124C429.794 437.64 430.188 437.235 430.663 436.947C431.138 436.66 431.68 436.5 432.235 436.483C432.79 436.466 433.34 436.593 433.832 436.851L457.559 449.26C458.08 449.534 458.517 449.945 458.821 450.449C459.125 450.952 459.286 451.53 459.286 452.119C459.286 452.708 459.125 453.285 458.821 453.789C458.517 454.293 458.08 454.704 457.559 454.978L433.873 467.395C433.38 467.663 432.825 467.797 432.264 467.785C431.703 467.773 431.155 467.615 430.673 467.327C430.192 467.038 429.794 466.629 429.519 466.139C429.244 465.65 429.101 465.097 429.105 464.536Z" fill="url(#paint24_linear)"/>
<path d="M601.785 426.057C597.059 421.332 590.652 418.678 583.971 418.678C577.29 418.678 570.882 421.332 566.156 426.057C561.422 421.377 555.029 418.762 548.374 418.782C541.719 418.802 535.342 421.456 530.636 426.164C525.93 430.873 523.277 437.252 523.257 443.911C523.237 450.569 525.851 456.965 530.528 461.701L566.156 496.513L601.785 461.701C604.125 459.361 605.982 456.583 607.248 453.525C608.515 450.467 609.167 447.189 609.167 443.879C609.167 440.569 608.515 437.291 607.248 434.233C605.982 431.175 604.125 428.397 601.785 426.057Z" fill="#FF4B60"/>
<path d="M610.186 458.018C608.939 456.77 607.458 455.779 605.828 455.104C604.198 454.428 602.451 454.08 600.686 454.08C598.922 454.08 597.175 454.428 595.545 455.104C593.915 455.779 592.434 456.77 591.186 458.018C589.939 456.77 588.457 455.78 586.827 455.104C585.197 454.429 583.45 454.081 581.686 454.081C579.922 454.081 578.175 454.429 576.545 455.104C574.915 455.78 573.433 456.77 572.186 458.018C570.938 459.266 569.949 460.748 569.274 462.379C568.598 464.009 568.251 465.757 568.251 467.522C568.251 469.287 568.598 471.035 569.274 472.666C569.949 474.297 570.938 475.778 572.186 477.027L591.186 496.035L610.186 477.027C611.434 475.779 612.424 474.297 613.099 472.666C613.775 471.035 614.122 469.287 614.122 467.522C614.122 465.757 613.775 464.009 613.099 462.378C612.424 460.748 611.434 459.266 610.186 458.018Z" fill="url(#paint25_linear)"/>
<path d="M301.803 491.29H273.636C268.579 491.29 264.478 495.392 264.478 500.452V536.385C264.478 541.445 268.579 545.547 273.636 545.547H301.803C306.861 545.547 310.961 541.445 310.961 536.385V500.452C310.961 495.392 306.861 491.29 301.803 491.29Z" fill="url(#paint26_linear)"/>
<path d="M304.924 531.358L296.689 516.659C296.574 516.455 296.406 516.285 296.203 516.17C296 516.054 295.769 515.996 295.535 516.002C295.301 516.007 295.073 516.077 294.875 516.203C294.678 516.329 294.519 516.507 294.415 516.717L290.841 523.852L283.734 510.265C283.624 510.056 283.459 509.881 283.258 509.759C283.056 509.637 282.825 509.573 282.589 509.573C282.353 509.573 282.122 509.637 281.92 509.759C281.718 509.881 281.554 510.056 281.444 510.265L270.367 531.424C270.16 531.818 270.058 532.258 270.071 532.703C270.084 533.147 270.212 533.581 270.441 533.962C270.67 534.343 270.994 534.658 271.38 534.878C271.767 535.097 272.204 535.213 272.648 535.215H302.709C303.157 535.208 303.596 535.085 303.983 534.857C304.369 534.63 304.69 534.306 304.913 533.917C305.136 533.528 305.255 533.088 305.257 532.639C305.259 532.191 305.144 531.749 304.924 531.358Z" fill="url(#paint27_linear)"/>
<path d="M305.797 501.622C305.797 502.644 305.494 503.642 304.926 504.492C304.359 505.342 303.553 506.004 302.609 506.395C301.665 506.786 300.627 506.888 299.625 506.689C298.624 506.489 297.704 505.997 296.981 505.275C296.259 504.552 295.768 503.632 295.568 502.63C295.369 501.627 295.471 500.589 295.862 499.645C296.253 498.701 296.915 497.894 297.764 497.326C298.613 496.759 299.612 496.456 300.633 496.456C302.002 496.456 303.316 497 304.284 497.969C305.253 498.938 305.797 500.252 305.797 501.622Z" fill="url(#paint28_linear)"/>
<path d="M770.686 173.185H766.568V169.065C766.523 168.094 766.105 167.177 765.402 166.505C764.699 165.834 763.764 165.459 762.792 165.459C761.82 165.459 760.885 165.834 760.182 166.505C759.479 167.177 759.061 168.094 759.016 169.065V173.185H754.898C753.927 173.23 753.011 173.648 752.34 174.351C751.669 175.055 751.294 175.99 751.294 176.963C751.294 177.935 751.669 178.87 752.34 179.574C753.011 180.277 753.927 180.695 754.898 180.74H759.016V184.86C759.061 185.832 759.479 186.748 760.182 187.42C760.885 188.091 761.82 188.466 762.792 188.466C763.764 188.466 764.699 188.091 765.402 187.42C766.105 186.748 766.523 185.832 766.568 184.86V180.74H770.686C771.657 180.695 772.573 180.277 773.244 179.574C773.916 178.87 774.29 177.935 774.29 176.963C774.29 175.99 773.916 175.055 773.244 174.351C772.573 173.648 771.657 173.23 770.686 173.185Z" fill="url(#paint29_linear)"/>
<path d="M61.217 164.624H57.0991V160.504C57.0538 159.532 56.6361 158.616 55.9329 157.944C55.2297 157.273 54.295 156.898 53.323 156.898C52.3509 156.898 51.4162 157.273 50.713 157.944C50.0098 158.616 49.5922 159.532 49.5468 160.504V164.624H45.4289C44.4285 164.624 43.4691 165.021 42.7617 165.729C42.0543 166.437 41.6569 167.397 41.6569 168.397C41.6569 169.398 42.0543 170.358 42.7617 171.066C43.4691 171.774 44.4285 172.171 45.4289 172.171H49.5468V176.291C49.5922 177.262 50.0098 178.179 50.713 178.85C51.4162 179.522 52.3509 179.896 53.323 179.896C54.295 179.896 55.2297 179.522 55.9329 178.85C56.6361 178.179 57.0538 177.262 57.0991 176.291V172.171H61.217C62.2174 172.171 63.1769 171.774 63.8843 171.066C64.5917 170.358 64.9891 169.398 64.9891 168.397C64.9891 167.397 64.5917 166.437 63.8843 165.729C63.1769 165.021 62.2174 164.624 61.217 164.624Z" fill="url(#paint30_linear)"/>
<path d="M417.483 111.643C417.483 113.201 417.021 114.724 416.156 116.019C415.291 117.315 414.062 118.324 412.623 118.921C411.184 119.517 409.601 119.673 408.074 119.369C406.546 119.065 405.144 118.315 404.042 117.213C402.941 116.111 402.191 114.708 401.888 113.18C401.584 111.652 401.74 110.068 402.336 108.629C402.932 107.189 403.941 105.959 405.236 105.094C406.53 104.228 408.053 103.766 409.61 103.766C411.698 103.766 413.701 104.596 415.177 106.073C416.654 107.55 417.483 109.554 417.483 111.643Z" fill="url(#paint31_linear)"/>
<path d="M188.126 486.425C192.442 485.894 195.511 481.964 194.981 477.646C194.451 473.328 190.523 470.258 186.207 470.788C181.891 471.318 178.822 475.248 179.352 479.566C179.882 483.884 183.81 486.955 188.126 486.425Z" fill="url(#paint32_linear)"/>
<path d="M318.374 372.45C318.376 368.239 317.129 364.121 314.791 360.619C312.453 357.116 309.129 354.386 305.24 352.773C301.351 351.161 297.072 350.738 292.943 351.56C288.814 352.381 285.021 354.409 282.044 357.387C279.068 360.365 277.04 364.16 276.22 368.29C275.399 372.421 275.821 376.703 277.433 380.594C279.044 384.484 281.773 387.809 285.274 390.148C288.775 392.487 292.891 393.735 297.101 393.733C302.742 393.731 308.152 391.488 312.141 387.497C316.13 383.506 318.372 378.094 318.374 372.45ZM291.385 372.45V368.372H293.856V365.9C293.856 362.604 294.844 360.19 298.484 360.19H302.808V364.252H299.761C298.237 364.252 297.891 365.265 297.891 366.328V368.363H302.586L301.943 372.442H297.891V384.727H293.856V372.45H291.385Z" fill="#3765A4"/>
<path d="M687.34 452.366C692.029 452.366 696.614 453.757 700.513 456.364C704.412 458.97 707.451 462.675 709.246 467.01C711.041 471.344 711.51 476.114 710.595 480.716C709.68 485.317 707.422 489.544 704.106 492.861C700.79 496.179 696.565 498.438 691.966 499.354C687.366 500.269 682.599 499.799 678.266 498.004C673.933 496.208 670.23 493.168 667.625 489.267C665.019 485.366 663.629 480.779 663.629 476.088C663.629 469.796 666.127 463.763 670.574 459.314C675.02 454.865 681.051 452.366 687.34 452.366Z" fill="#3E5BF2"/>
<path d="M687.339 459.172V482.811L697.724 476.582L687.339 459.172ZM687.339 493.003L697.724 478.09L687.339 484.368V493.003ZM687.339 459.172V482.811L676.954 476.582L687.339 459.172Z" fill="white"/>
<path d="M687.339 484.368V493.003L676.954 478.09L687.339 484.368Z" fill="white"/>
<path d="M599.915 296.514L607.682 303.485L608.406 302.661C607.902 301.216 607.882 299.645 608.349 298.187L607.303 297.322C606.95 298.462 606.8 299.656 606.858 300.848L600.813 295.501L599.915 296.514Z" fill="white"/>
<path d="M602.32 301.524C599.718 299.192 597.667 298.821 596.135 300.403C594.603 301.985 595.106 304.004 597.667 306.476C600.229 308.948 602.312 309.319 603.885 307.687C605.458 306.056 604.832 303.905 602.32 301.524ZM601.25 302.612C603.317 304.523 603.91 305.949 603.004 306.863C602.098 307.778 600.706 307.366 598.655 305.372C596.605 303.378 596.069 302.076 596.942 301.17C597.815 300.263 599.199 300.716 601.25 302.612Z" fill="white"/>
<path d="M590.378 306.583L597.79 313.941L598.548 313.166C598.115 311.717 598.17 310.165 598.704 308.75L597.716 307.827C597.298 308.936 597.083 310.111 597.082 311.296L591.317 305.635L590.378 306.583Z" fill="white"/>
<path d="M592.519 311.708C590.049 309.236 587.998 308.799 586.392 310.316C584.786 311.832 585.198 313.875 587.66 316.454C590.123 319.033 592.19 319.486 593.821 317.929C595.451 316.372 594.916 314.205 592.519 311.708ZM591.407 312.771C593.395 314.781 593.917 316.221 592.972 317.088C592.083 318.055 590.658 317.506 588.698 315.441C586.738 313.375 586.227 311.936 587.166 311.123C588.028 310.222 589.442 310.771 591.407 312.771Z" fill="white"/>
<path d="M580.363 316.273L587.479 323.902L588.303 323.169C587.923 321.706 588.039 320.159 588.632 318.769L587.693 317.78C587.232 318.87 586.969 320.034 586.919 321.216L581.401 315.342L580.363 316.273Z" fill="white"/>
<path d="M582.316 321.48C579.927 318.937 577.901 318.388 576.237 319.832C574.59 321.299 574.912 323.334 577.283 326.004C579.655 328.673 581.698 329.209 583.378 327.709C585.058 326.21 584.622 324.034 582.316 321.447V321.48ZM581.163 322.436C583.062 324.523 583.532 325.984 582.571 326.819C581.648 327.75 580.24 327.133 578.354 324.982C576.468 322.831 576.04 321.472 576.987 320.656C577.934 319.84 579.277 320.384 581.163 322.436Z" fill="white"/>
<path d="M569.994 325.608L576.838 333.485L577.662 332.776C577.34 331.3 577.507 329.758 578.139 328.385L577.242 327.371C576.742 328.446 576.441 329.601 576.352 330.783L571.04 324.71L569.994 325.608Z" fill="white"/>
<path d="M571.765 330.898C569.467 328.27 567.466 327.668 565.745 329.069C564.023 330.47 564.312 332.546 566.568 335.281C568.825 338.017 570.859 338.618 572.597 337.193C574.335 335.768 573.964 333.559 571.773 330.898H571.765ZM570.587 331.846C572.416 333.996 572.836 335.463 571.839 336.262C570.843 337.061 569.5 336.501 567.721 334.293C565.942 332.085 565.522 330.692 566.494 329.918C567.466 329.143 568.8 329.728 570.612 331.846" fill="white"/>
<path d="M559.321 334.589L565.909 342.689L566.733 342.005C566.45 340.52 566.67 338.983 567.359 337.638L566.535 336.592C565.967 337.638 565.598 338.78 565.448 339.962L560.35 333.716L559.321 334.589Z" fill="white"/>
<path d="M560.894 339.904C558.698 337.201 556.716 336.531 554.948 337.893C553.18 339.256 553.386 341.318 555.565 344.081C557.748 346.85 559.741 347.567 561.536 346.207C563.222 344.724 563.005 342.612 560.886 339.871L560.894 339.904ZM559.683 340.785C561.446 342.983 561.819 344.471 560.803 345.251C559.815 346.116 558.448 345.408 556.685 343.134C554.923 340.86 554.61 339.475 555.615 338.726C556.62 337.976 557.913 338.61 559.65 340.785" fill="white"/>
<path d="M548.334 343.2L554.635 351.497L555.459 350.846C555.233 349.353 555.505 347.827 556.233 346.504L555.409 345.424C554.842 346.465 554.462 347.597 554.289 348.77L549.397 342.359L548.334 343.2Z" fill="white"/>
<path d="M549.742 348.572C547.609 345.787 545.674 345.086 543.853 346.355C542.033 347.624 542.206 349.717 544.282 352.609C546.357 355.501 548.334 356.218 550.17 354.916C552.007 353.614 551.76 351.373 549.742 348.572ZM548.49 349.453C550.181 351.722 550.503 353.219 549.454 353.944C548.441 354.768 547.098 354.018 545.443 351.695C543.788 349.371 543.491 347.962 544.512 347.245C545.534 346.528 546.827 347.245 548.49 349.453Z" fill="white"/>
<path d="M537.068 351.447L543.089 359.967L543.97 359.341C543.789 357.842 544.114 356.325 544.892 355.032L544.069 353.928C543.467 354.945 543.049 356.061 542.833 357.223L538.164 350.632L537.068 351.447Z" fill="white"/>
<path d="M538.27 356.869C536.244 354.026 534.317 353.235 532.505 354.447C530.693 355.658 530.726 357.742 532.719 360.717C534.712 363.691 536.647 364.458 538.484 363.189C540.321 361.92 540.205 359.72 538.27 356.844V356.869ZM536.993 357.668C538.602 359.986 538.877 361.491 537.817 362.184C536.771 363.008 535.461 362.184 533.88 359.811C532.299 357.438 532.052 356.012 533.106 355.328C534.16 354.644 535.412 355.378 537.01 357.668" fill="white"/>
<path d="M525.537 359.308L531.302 368.025L532.2 367.432C532.071 365.93 532.448 364.428 533.27 363.164L532.513 362.035C531.868 363.025 531.413 364.126 531.17 365.282L526.715 358.558L525.537 359.308Z" fill="white"/>
<path d="M526.592 364.779C524.664 361.868 522.743 360.994 520.827 362.159C518.91 363.323 518.91 365.413 520.827 368.429C522.721 371.406 524.626 372.305 526.542 371.124C528.387 369.838 528.387 367.712 526.542 364.779H526.592ZM525.233 365.562C526.765 367.935 526.987 369.443 525.892 370.102C524.796 370.761 523.544 370.028 522.045 367.589C520.547 365.15 520.341 363.733 521.411 363.09C522.482 362.447 523.726 363.214 525.233 365.562Z" fill="white"/>
<path d="M513.752 366.773L519.188 375.688L520.102 375.128C520.02 373.619 520.45 372.127 521.321 370.893L520.596 369.739C519.921 370.708 519.428 371.791 519.138 372.936L514.921 366.064L513.752 366.773Z" fill="white"/>
<path d="M514.616 372.277C512.788 369.303 510.918 368.38 508.991 369.467C507.064 370.555 506.99 372.64 508.777 375.729C510.564 378.819 512.442 379.734 514.402 378.621C516.362 377.509 516.354 375.276 514.616 372.277ZM513.29 373.019C514.74 375.441 514.904 376.963 513.784 377.583C512.686 378.297 511.432 377.416 510.021 374.938C508.612 372.524 508.456 371.025 509.551 370.423C510.647 369.822 511.857 370.629 513.29 373.019Z" fill="white"/>
<path d="M501.719 373.835L506.834 382.898L507.772 382.371C507.756 380.861 508.237 379.387 509.14 378.177L508.456 377.04C507.755 377.993 507.226 379.061 506.891 380.196L502.913 373.175L501.719 373.835Z" fill="white"/>
<path d="M502.386 379.355C500.657 376.306 498.837 375.351 496.868 376.356C494.9 377.361 494.752 379.454 496.432 382.593C498.112 385.732 499.957 386.713 501.95 385.699C503.943 384.686 504.017 382.404 502.386 379.355ZM501.036 380.055C502.403 382.527 502.518 384.06 501.373 384.637C500.229 385.213 499.034 384.381 497.708 381.852C496.382 379.322 496.284 377.888 497.395 377.328C498.507 376.768 499.693 377.616 501.036 380.055Z" fill="white"/>
<path d="M489.456 380.459L494.242 389.729L495.197 389.234C495.243 387.735 495.772 386.29 496.704 385.114L496.062 383.912C495.339 384.845 494.781 385.896 494.414 387.018L490.684 379.866L489.456 380.459Z" fill="white"/>
<path d="M489.917 385.996C488.27 382.89 486.499 381.835 484.514 382.807C482.53 383.779 482.291 385.815 483.847 389.02C485.404 392.225 487.224 393.288 489.258 392.316C491.218 391.217 491.438 389.105 489.917 385.979V385.996ZM488.542 386.622C489.81 389.143 489.876 390.676 488.723 391.228C487.57 391.78 486.384 390.89 485.157 388.311C483.93 385.732 483.872 384.299 485.009 383.788C486.145 383.277 487.282 384.134 488.542 386.622Z" fill="white"/>
<path d="M476.962 386.639L481.443 396.081L482.415 395.62C482.497 394.103 483.076 392.656 484.062 391.5L483.469 390.281C482.692 391.178 482.088 392.211 481.69 393.329L478.223 386.046L476.995 386.631" fill="white"/>
<path d="M477.217 392.176C475.718 389.017 473.956 387.886 471.93 388.781C469.912 389.687 469.599 391.722 471.041 394.985C472.482 398.248 474.269 399.393 476.32 398.471C478.37 397.548 478.626 395.34 477.217 392.176ZM475.809 392.769C476.995 395.334 476.995 396.867 475.809 397.366C474.651 397.976 473.503 396.971 472.367 394.351C471.23 391.805 471.23 390.28 472.367 389.794C473.503 389.308 474.623 390.231 475.784 392.769" fill="white"/>
<path d="M464.238 392.332L468.356 401.931L469.344 401.503C469.488 399.997 470.125 398.58 471.156 397.474L470.612 396.229C469.801 397.093 469.156 398.098 468.71 399.196L465.531 391.78L464.238 392.332Z" fill="white"/>
<path d="M464.305 397.894C462.921 394.689 461.2 393.477 459.141 394.285C457.082 395.092 456.67 397.144 458.013 400.456C459.355 403.769 461.06 404.955 463.152 404.131C465.244 403.307 465.622 401.107 464.305 397.894ZM462.872 398.421C463.97 401.03 463.912 402.56 462.699 403.011C461.513 403.56 460.415 402.508 459.404 399.855C458.367 397.259 458.433 395.735 459.602 395.306C460.772 394.878 461.842 395.85 462.896 398.421" fill="white"/>
<path d="M451.324 397.531L455.03 407.279L456.035 406.9C456.238 405.403 456.933 404.018 458.011 402.961C457.847 402.557 457.682 402.137 457.509 401.692C456.669 402.525 455.986 403.502 455.491 404.576L452.617 397.045L451.324 397.531Z" fill="white"/>
<path d="M451.159 403.093C449.907 399.797 448.252 398.602 446.152 399.303C444.052 400.003 443.599 402.038 444.785 405.4C445.97 408.762 447.651 410.022 449.784 409.306C451.876 408.482 452.312 406.339 451.159 403.093ZM449.718 403.587C450.698 406.232 450.591 407.773 449.372 408.169C448.153 408.564 447.091 407.559 446.16 404.873C445.229 402.187 445.336 400.753 446.53 400.357C447.725 399.962 448.754 400.975 449.718 403.596" fill="white"/>
<path d="M438.221 402.236L441.516 412.124L442.537 411.786C442.799 410.291 443.542 408.922 444.653 407.889C444.505 407.477 444.357 407.065 444.2 406.603C443.332 407.414 442.615 408.374 442.084 409.438L439.49 401.8L438.221 402.236Z" fill="white"/>
<path d="M437.834 407.773C436.736 404.477 435.119 403.148 432.983 403.785C430.875 404.453 430.323 406.43 431.336 409.841C432.349 413.252 434.029 414.604 436.171 413.961C438.312 413.318 438.831 411.118 437.818 407.814L437.834 407.773ZM436.352 408.235C437.225 410.921 437.049 412.445 435.825 412.807C434.595 413.274 433.571 412.143 432.753 409.413C431.935 406.683 432.118 405.172 433.304 404.881C434.474 404.461 435.495 405.581 436.352 408.235Z" fill="white"/>
<path d="M424.937 406.397L427.853 416.416L428.882 416.103C429.206 414.626 430.008 413.297 431.163 412.321L430.768 411.019C429.861 411.781 429.102 412.702 428.528 413.739L426.263 406.002L424.937 406.397Z" fill="white"/>
<path d="M424.335 411.942C423.347 408.586 421.782 407.18 419.641 407.724C417.499 408.268 416.882 410.264 417.788 413.714C418.71 417.114 420.264 418.539 422.449 417.99C424.601 417.298 425.23 415.282 424.335 411.942ZM422.853 412.288C423.618 415.007 423.371 416.515 422.128 416.82C420.884 417.125 419.904 416.046 419.196 413.277C418.488 410.509 418.726 409.091 419.937 408.795C421.148 408.498 422.103 409.619 422.853 412.288Z" fill="white"/>
<path d="M411.496 409.998L413.967 420.132L415.013 419.877C415.416 418.414 416.283 417.122 417.483 416.194C417.376 415.765 417.261 415.37 417.146 414.875C416.217 415.609 415.423 416.499 414.798 417.504L412.83 409.676L411.496 409.998Z" fill="white"/>
<path d="M410.664 415.502C409.818 412.107 408.317 410.654 406.159 411.143C404.001 411.596 403.293 413.533 404.051 417.018C404.808 420.503 406.332 421.962 408.539 421.508C410.735 420.882 411.444 418.88 410.664 415.502ZM409.173 415.807C409.821 418.553 409.519 420.061 408.267 420.33C407.007 420.693 406.077 419.449 405.484 416.664C404.891 413.879 405.195 412.478 406.414 412.223C407.633 411.967 408.531 413.096 409.173 415.807Z" fill="white"/>
<path d="M397.931 413.071L399.998 423.296L401.061 423.074C401.5 421.624 402.406 420.361 403.639 419.482C403.548 419.053 403.449 418.608 403.35 418.147C402.38 418.836 401.542 419.696 400.88 420.684L399.232 412.783L397.931 413.071Z" fill="white"/>
<path d="M396.868 418.526C396.16 415.098 394.719 413.571 392.545 413.945C390.37 414.318 389.588 416.257 390.197 419.762C390.829 423.228 392.256 424.774 394.48 424.401C396.676 423.89 397.472 421.931 396.868 418.526ZM395.361 418.748C395.888 421.525 395.526 423.008 394.258 423.214C392.989 423.42 392.108 422.258 391.639 419.44C391.169 416.622 391.515 415.222 392.75 415.032C393.986 414.843 394.834 416.013 395.361 418.748Z" fill="white"/>
<path d="M384.259 415.518L385.906 425.826L386.977 425.661C387.481 424.241 388.443 423.029 389.711 422.217C389.637 421.78 389.563 421.335 389.481 420.874C388.492 421.515 387.624 422.327 386.919 423.272L385.618 415.312L384.259 415.518Z" fill="white"/>
<path d="M382.951 420.932C382.401 417.482 381.029 415.908 378.833 416.21C376.642 416.458 375.769 418.344 376.23 421.879C376.691 425.414 378.075 426.996 380.348 426.749C382.555 426.304 383.436 424.359 382.975 420.932H382.951ZM381.46 421.113C381.872 423.906 381.46 425.389 380.175 425.546C378.89 425.702 378.067 424.475 377.704 421.64C377.342 418.806 377.77 417.43 379.006 417.306C380.241 417.183 381.048 418.353 381.476 421.113" fill="white"/>
<path d="M370.473 417.413L371.651 427.779L372.721 427.647C373.291 426.242 374.303 425.062 375.604 424.285C375.554 423.849 375.497 423.404 375.431 422.934C374.414 423.542 373.514 424.326 372.771 425.249L371.824 417.24L370.473 417.413Z" fill="white"/>
<path d="M368.941 422.761C368.537 419.292 367.228 417.644 365.029 417.817C362.83 417.99 361.882 419.861 362.187 423.412C362.492 426.963 363.834 428.595 366.058 428.405C368.282 428.216 369.254 426.205 368.941 422.761ZM367.417 422.86C367.713 425.67 367.219 427.111 365.943 427.202C364.666 427.293 363.884 426.073 363.653 423.222C363.423 420.372 363.9 419.012 365.136 418.921C366.371 418.831 367.137 420.083 367.417 422.86Z" fill="white"/>
<path d="M361.035 423.527C360.714 420.058 359.454 418.369 357.246 418.485C355.039 418.6 354.051 420.429 354.265 423.989C354.479 427.548 355.764 429.213 358.021 429.097C360.261 428.842 361.265 426.996 361.035 423.527ZM359.519 423.585C359.734 426.403 359.204 427.837 357.93 427.886C356.629 428.04 355.898 426.691 355.739 423.84C355.58 420.989 356.11 419.572 357.329 419.589C358.564 419.473 359.294 420.805 359.519 423.585Z" fill="white"/>
<path d="M348.846 419.144L349.323 429.567H350.402C351.076 428.21 352.163 427.102 353.507 426.403C353.507 425.974 353.458 425.521 353.425 425.051C352.372 425.598 351.421 426.323 350.616 427.194L350.213 419.135L348.846 419.144Z" fill="white"/>
<path d="M346.934 424.359C346.769 420.866 345.575 419.144 343.368 419.185C342.868 419.17 342.374 419.291 341.939 419.537C341.503 419.782 341.143 420.142 340.897 420.577C340.285 421.816 340.023 423.197 340.139 424.574C340.092 425.961 340.419 427.336 341.087 428.553C341.363 428.975 341.747 429.315 342.199 429.538C342.65 429.761 343.154 429.859 343.656 429.822C345.913 429.641 347.011 427.82 346.95 424.359H346.934ZM345.427 424.359C345.526 427.186 344.941 428.603 343.656 428.611C342.371 428.619 341.68 427.359 341.647 424.491C341.614 421.624 342.174 420.297 343.417 420.289C344.661 420.281 345.328 421.566 345.427 424.351" fill="white"/>
<path d="M334.927 419.465V429.897H336.006C336.718 428.562 337.858 427.505 339.242 426.897C339.242 426.463 339.242 426.01 339.242 425.538C338.162 426.015 337.179 426.689 336.343 427.524L336.286 419.457L334.927 419.465Z" fill="white"/>
<path d="M332.81 424.615C332.81 421.105 331.682 419.399 329.516 419.292C327.35 419.185 326.164 420.94 326.073 424.499C325.983 428.059 327.103 429.839 329.368 429.929C331.632 430.02 332.794 428.067 332.86 424.615H332.81ZM331.344 424.615C331.344 427.449 330.669 428.825 329.384 428.734C328.099 428.644 327.465 427.358 327.556 424.499C327.646 421.64 328.264 420.38 329.508 420.38C330.751 420.38 331.361 421.772 331.344 424.557" fill="white"/>
<path d="M321.025 419.226L320.597 429.657H321.676C322.449 428.349 323.634 427.332 325.044 426.765C325.044 426.329 325.044 425.875 325.044 425.406C323.942 425.853 322.929 426.495 322.054 427.301L322.359 419.234L321.025 419.226Z" fill="white"/>
<path d="M318.694 424.244C318.826 420.751 317.791 418.924 315.589 418.765C313.388 418.606 312.163 420.303 311.916 423.857C311.702 427.384 312.74 429.221 314.972 429.386C317.228 429.386 318.469 427.672 318.694 424.244ZM317.179 424.104C317.031 426.93 316.355 428.282 315.046 428.174C313.736 428.067 313.184 426.741 313.399 423.89C313.613 421.039 314.288 419.77 315.523 419.869C316.759 419.968 317.319 421.319 317.171 424.104" fill="white"/>
<path d="M307.148 418.32L306.275 428.718L307.345 428.808C308.178 427.552 309.403 426.608 310.829 426.122C310.862 425.683 310.895 425.23 310.928 424.763C309.813 425.148 308.776 425.728 307.864 426.477L308.507 418.435L307.148 418.32Z" fill="white"/>
<path d="M304.602 423.255C304.882 419.767 303.927 417.91 301.736 417.685C299.537 417.455 298.252 419.028 297.849 422.58C297.445 426.131 298.417 428.034 300.665 428.265C302.922 428.364 304.234 426.694 304.602 423.255ZM303.087 423.066C302.823 425.873 302.055 427.205 300.781 427.062C299.471 427.062 298.985 425.537 299.323 422.703C299.661 419.869 300.385 418.658 301.621 418.789C302.856 418.921 303.35 420.289 303.087 423.066Z" fill="white"/>
<path d="M293.319 416.853L292.018 427.21L293.088 427.334C293.974 426.107 295.239 425.206 296.687 424.772C296.737 424.343 296.786 423.89 296.844 423.42C295.705 423.771 294.641 424.33 293.706 425.068L294.686 417.059L293.319 416.853Z" fill="white"/>
<path d="M290.561 421.698C290.989 418.238 290.108 416.359 287.933 415.93C285.759 415.502 284.4 417.142 283.816 420.66C283.231 424.178 284.161 426.09 286.385 426.428C286.887 426.509 287.402 426.458 287.878 426.281C288.355 426.103 288.777 425.804 289.103 425.414C289.914 424.304 290.406 422.994 290.528 421.624L290.561 421.698ZM289.029 421.377C288.639 424.178 287.815 425.464 286.558 425.233C285.257 425.101 284.831 423.626 285.282 420.808C285.702 418.048 286.517 416.779 287.752 417.002C288.988 417.224 289.399 418.649 289.037 421.377" fill="white"/>
<path d="M279.557 414.843L277.811 425.126L278.874 425.299C279.8 424.085 281.104 423.215 282.58 422.827C282.646 422.39 282.72 421.945 282.786 421.476C281.638 421.782 280.553 422.29 279.582 422.975L280.9 415.016L279.557 414.843Z" fill="white"/>
<path d="M276.608 419.523C277.176 416.07 276.386 414.134 274.219 413.689C272.053 413.244 270.62 414.785 269.937 418.278C269.253 421.772 270.06 423.708 272.268 424.153C274.502 424.466 275.949 422.923 276.608 419.523ZM275.117 419.193C274.615 421.97 273.742 423.23 272.49 422.959C271.238 422.687 270.843 421.311 271.395 418.501C271.946 415.691 272.795 414.521 274.014 414.785C275.233 415.049 275.611 416.433 275.117 419.193Z" fill="white"/>
<path d="M265.894 412.198L263.728 422.407L264.782 422.637C265.767 421.496 267.097 420.706 268.57 420.388C268.661 419.959 268.743 419.515 268.842 419.053C267.676 419.306 266.562 419.758 265.548 420.388L267.195 412.486L265.894 412.198Z" fill="white"/>
<path d="M262.748 416.771C263.467 413.354 262.748 411.39 260.59 410.88C260.113 410.742 259.607 410.737 259.127 410.865C258.647 410.992 258.21 411.248 257.864 411.605C257.03 412.698 256.437 413.956 256.125 415.295C255.812 416.634 255.788 418.025 256.052 419.375C256.214 419.852 256.501 420.278 256.884 420.607C257.266 420.936 257.73 421.156 258.226 421.245C260.423 421.635 261.93 420.144 262.748 416.771ZM261.274 416.392C260.664 419.152 259.734 420.371 258.49 420.067C257.246 419.762 256.892 418.361 257.576 415.584C258.259 412.808 259.141 411.662 260.343 411.959C261.546 412.256 261.875 413.673 261.274 416.392Z" fill="white"/>
<path d="M252.338 409.026L249.769 419.144L250.815 419.408C251.838 418.297 253.204 417.561 254.694 417.315L255.007 415.996C253.844 416.188 252.727 416.593 251.712 417.191L253.664 409.364L252.338 409.026Z" fill="white"/>
<path d="M249.01 413.491C249.834 410.097 249.208 408.119 247.083 407.534C244.958 406.949 243.426 408.284 242.463 411.72C241.499 415.156 242.15 417.15 244.308 417.809C246.515 418.27 248.088 416.82 249.01 413.491ZM247.544 413.063C246.828 415.79 245.848 416.993 244.621 416.639C243.393 416.285 243.105 414.818 243.896 412.074C244.686 409.33 245.601 408.226 246.795 408.605C247.989 408.984 248.261 410.369 247.544 413.063Z" fill="white"/>
<path d="M238.905 405.342L235.948 415.353L236.986 415.65C238.05 414.577 239.441 413.89 240.939 413.697C241.06 413.28 241.184 412.843 241.31 412.387C240.136 412.54 239 412.906 237.958 413.467L240.215 405.721L238.905 405.342Z" fill="white"/>
<path d="M235.404 409.693C235.866 408.405 235.971 407.015 235.709 405.672C235.585 405.186 235.335 404.741 234.986 404.381C234.636 404.021 234.198 403.759 233.716 403.62C231.624 402.912 230.029 404.252 228.931 407.641C227.833 411.031 228.382 413.074 230.578 413.772C231.061 413.928 231.576 413.958 232.073 413.858C232.571 413.759 233.034 413.533 233.42 413.203C234.397 412.238 235.091 411.024 235.429 409.693H235.404ZM233.988 409.199C233.164 411.901 232.143 413.038 230.941 412.618C229.738 412.198 229.491 410.756 230.381 408.045C231.27 405.334 232.234 404.263 233.411 404.675C234.589 405.087 234.803 406.537 233.988 409.199Z" fill="white"/>
<path d="M225.604 401.173L222.31 411.061L223.331 411.39C224.44 410.356 225.858 409.714 227.367 409.561L227.787 408.268C226.606 408.385 225.457 408.715 224.393 409.24L226.93 401.585L225.604 401.173Z" fill="white"/>
<path d="M221.964 405.359C223.062 402.063 222.573 400.014 220.498 399.212C218.422 398.41 216.775 399.698 215.556 403.077C214.387 406.405 214.854 408.463 216.956 409.248C219.114 409.907 220.781 408.611 221.956 405.359H221.964ZM220.531 404.799C219.608 407.468 218.554 408.564 217.36 408.095C216.166 407.625 215.976 406.191 216.965 403.505C217.953 400.819 218.958 399.797 220.119 400.209C221.28 400.621 221.445 402.113 220.531 404.749" fill="white"/>
<path d="M212.476 396.477L208.836 406.249L209.84 406.636C210.996 405.651 212.443 405.072 213.958 404.988C214.107 404.576 214.263 404.164 214.428 403.711C213.242 403.773 212.078 404.052 210.993 404.535L213.81 396.971C213.382 396.823 212.987 396.641 212.534 396.477" fill="white"/>
<path d="M208.688 400.522C209.907 397.226 209.49 395.167 207.436 394.343C205.383 393.519 203.692 394.752 202.363 398.042C201.078 401.338 201.476 403.406 203.557 404.247C205.682 404.972 207.392 403.73 208.688 400.522ZM207.288 399.913C206.267 402.549 205.169 403.62 203.994 403.126C202.75 402.706 202.676 401.181 203.763 398.537C204.85 395.892 205.888 394.895 207.057 395.381C208.227 395.867 208.317 397.317 207.313 399.913" fill="white"/>
<path d="M199.513 391.319L195.502 400.934L196.49 401.354C197.669 400.427 199.11 399.897 200.608 399.838C200.773 399.435 200.946 399.014 201.119 398.578C199.94 398.624 198.776 398.866 197.676 399.295L200.748 391.879L199.513 391.319Z" fill="white"/>
<path d="M195.585 395.232C196.919 391.994 196.565 389.934 194.547 389.028C192.529 388.122 190.791 389.308 189.342 392.563C187.892 395.817 188.271 397.877 190.322 398.792C192.373 399.707 194.184 398.396 195.585 395.232ZM194.209 394.582C193.097 397.185 191.969 398.215 190.808 397.68C189.646 397.144 189.548 395.702 190.725 393.098C191.903 390.495 192.974 389.522 194.102 390.05C195.23 390.577 195.296 392.019 194.209 394.582Z" fill="white"/>
<path d="M186.731 385.724L182.399 395.216L183.379 395.669C184.581 394.765 186.051 394.29 187.554 394.318C187.727 393.923 187.917 393.494 188.106 393.074C186.928 393.055 185.756 393.251 184.647 393.651L187.941 386.301L186.731 385.724Z" fill="white"/>
<path d="M182.671 389.506C184.104 386.315 183.829 384.241 181.847 383.285C179.865 382.329 178.092 383.453 176.527 386.655C175.028 389.852 175.283 391.928 177.309 392.909C179.396 393.76 181.188 392.626 182.687 389.506H182.671ZM181.328 388.822C180.131 391.387 178.962 392.384 177.82 391.813C176.609 391.327 176.634 389.794 177.894 387.232C179.154 384.669 180.249 383.73 181.37 384.29C182.49 384.851 182.506 386.293 181.328 388.822Z" fill="white"/>
<path d="M535.404 134.64C530.763 134.642 526.226 133.266 522.366 130.688C518.507 128.109 515.498 124.444 513.721 120.154C511.943 115.865 511.478 111.145 512.382 106.591C513.287 102.037 515.521 97.8532 518.802 94.5694C522.083 91.2856 526.264 89.049 530.816 88.1426C535.367 87.2362 540.086 87.7005 544.374 89.477C548.661 91.2535 552.327 94.2623 554.905 98.1229C557.484 101.983 558.86 106.522 558.86 111.165C558.858 117.389 556.386 123.358 551.988 127.759C547.59 132.161 541.625 134.636 535.404 134.64ZM547.33 105.134C546.447 105.521 545.512 105.776 544.554 105.892C545.561 105.295 546.317 104.352 546.679 103.239C545.729 103.799 544.69 104.192 543.607 104.401C542.942 103.7 542.083 103.214 541.139 103.005C540.196 102.796 539.212 102.874 538.313 103.228C537.414 103.582 536.642 104.196 536.094 104.992C535.546 105.789 535.249 106.73 535.24 107.697C535.239 108.063 535.28 108.428 535.363 108.784C533.444 108.69 531.565 108.195 529.848 107.333C528.13 106.47 526.612 105.258 525.39 103.775C524.775 104.833 524.587 106.086 524.866 107.278C525.144 108.47 525.868 109.51 526.889 110.185C526.121 110.16 525.371 109.954 524.698 109.583V109.641C524.7 110.753 525.088 111.83 525.795 112.688C526.503 113.546 527.486 114.132 528.577 114.346C528.161 114.463 527.732 114.521 527.3 114.519C526.997 114.516 526.694 114.489 526.394 114.437C526.714 115.387 527.32 116.215 528.13 116.805C528.94 117.396 529.914 117.72 530.916 117.732C529.197 119.068 527.08 119.79 524.904 119.784C524.518 119.787 524.133 119.765 523.751 119.718C525.827 121.042 528.22 121.785 530.681 121.869C533.141 121.954 535.58 121.378 537.742 120.2C539.905 119.023 541.712 117.287 542.977 115.173C544.242 113.06 544.917 110.646 544.933 108.183C544.933 107.977 544.933 107.771 544.933 107.565C545.88 106.893 546.698 106.056 547.346 105.093" fill="#3AACED"/>
<defs>
<linearGradient id="paint0_linear" x1="228.908" y1="290.087" x2="395.379" y2="60.8353" gradientUnits="userSpaceOnUse">
<stop stop-color="#E55EC9"/>
<stop offset="1" stop-color="#FDF2FB"/>
</linearGradient>
<linearGradient id="paint1_linear" x1="161.291" y1="316.372" x2="236.753" y2="45.7278" gradientUnits="userSpaceOnUse">
<stop stop-color="#3900A3"/>
<stop offset="1" stop-color="#5251DE"/>
</linearGradient>
<linearGradient id="paint2_linear" x1="36644.8" y1="57685.1" x2="50828.7" y2="16683.5" gradientUnits="userSpaceOnUse">
<stop stop-color="#3900A3"/>
<stop offset="1" stop-color="#5251DE"/>
</linearGradient>
<linearGradient id="paint3_linear" x1="178.503" y1="29.775" x2="230.743" y2="29.775" gradientUnits="userSpaceOnUse">
<stop stop-color="#FFB876"/>
<stop offset="1" stop-color="#FDCCA3"/>
</linearGradient>
<linearGradient id="paint4_linear" x1="13672.3" y1="13280.8" x2="13175.7" y2="4104.76" gradientUnits="userSpaceOnUse">
<stop stop-color="#3900A3"/>
<stop offset="1" stop-color="#5251DE"/>
</linearGradient>
<linearGradient id="paint5_linear" x1="24380.8" y1="8256.31" x2="23658.6" y2="12469.6" gradientUnits="userSpaceOnUse">
<stop stop-color="#FFB876"/>
<stop offset="1" stop-color="#FDCCA3"/>
</linearGradient>
<linearGradient id="paint6_linear" x1="5297.59" y1="2520.75" x2="4998.44" y2="3796.58" gradientUnits="userSpaceOnUse">
<stop stop-color="#FFB876"/>
<stop offset="1" stop-color="#FDCCA3"/>
</linearGradient>
<linearGradient id="paint7_linear" x1="273.126" y1="65.3537" x2="338.444" y2="65.3537" gradientUnits="userSpaceOnUse">
<stop stop-color="#1194F6"/>
<stop offset="1" stop-color="#95D0FF"/>
</linearGradient>
<linearGradient id="paint8_linear" x1="24197" y1="3630.51" x2="28288.8" y2="3630.51" gradientUnits="userSpaceOnUse">
<stop stop-color="#1194F6"/>
<stop offset="1" stop-color="#95D0FF"/>
</linearGradient>
<linearGradient id="paint9_linear" x1="205855" y1="87695.6" x2="205600" y2="42577.8" gradientUnits="userSpaceOnUse">
<stop stop-color="#1194F6"/>
<stop offset="1" stop-color="#95D0FF"/>
</linearGradient>
<linearGradient id="paint10_linear" x1="680.693" y1="323.359" x2="656.96" y2="108.663" gradientUnits="userSpaceOnUse">
<stop stop-color="#813ABE"/>
<stop offset="1" stop-color="#E55EC9"/>
</linearGradient>
<linearGradient id="paint11_linear" x1="65401.7" y1="54501.4" x2="55985.7" y2="42099.9" gradientUnits="userSpaceOnUse">
<stop stop-color="#FFB876"/>
<stop offset="1" stop-color="#FDCCA3"/>
</linearGradient>
<linearGradient id="paint12_linear" x1="70539.5" y1="14303.7" x2="68696.8" y2="27549.5" gradientUnits="userSpaceOnUse">
<stop stop-color="#FFB876"/>
<stop offset="1" stop-color="#FDCCA3"/>
</linearGradient>
<linearGradient id="paint13_linear" x1="24270.2" y1="4223.77" x2="23835" y2="7870.65" gradientUnits="userSpaceOnUse">
<stop stop-color="#FFB876"/>
<stop offset="1" stop-color="#FDCCA3"/>
</linearGradient>
<linearGradient id="paint14_linear" x1="69718.7" y1="40328.6" x2="66370.4" y2="15726.4" gradientUnits="userSpaceOnUse">
<stop stop-color="#813ABE"/>
<stop offset="1" stop-color="#E55EC9"/>
</linearGradient>
<linearGradient id="paint15_linear" x1="46070.8" y1="24741.2" x2="49141.4" y2="24741.2" gradientUnits="userSpaceOnUse">
<stop stop-color="#FFB876"/>
<stop offset="1" stop-color="#FDCCA3"/>
</linearGradient>
<linearGradient id="paint16_linear" x1="42316.2" y1="23680.6" x2="38813.1" y2="16953.5" gradientUnits="userSpaceOnUse">
<stop stop-color="#FFB876"/>
<stop offset="1" stop-color="#FDCCA3"/>
</linearGradient>
<linearGradient id="paint17_linear" x1="130.876" y1="317.937" x2="236.855" y2="584.751" gradientUnits="userSpaceOnUse">
<stop stop-color="#BEBAD1"/>
<stop offset="0.5" stop-color="#E8E3F8"/>
<stop offset="1" stop-color="#F4F0FF"/>
</linearGradient>
<linearGradient id="paint18_linear" x1="28355.7" y1="62855.1" x2="28949.8" y2="50241.8" gradientUnits="userSpaceOnUse">
<stop stop-color="#BEBAD1"/>
<stop offset="0.5" stop-color="#E8E3F8"/>
<stop offset="1" stop-color="#F4F0FF"/>
</linearGradient>
<linearGradient id="paint19_linear" x1="15640.5" y1="34200" x2="16210.9" y2="40272.8" gradientUnits="userSpaceOnUse">
<stop stop-color="#FFB876"/>
<stop offset="1" stop-color="#FDCCA3"/>
</linearGradient>
<linearGradient id="paint20_linear" x1="3078.49" y1="12256.3" x2="3355.32" y2="14354.6" gradientUnits="userSpaceOnUse">
<stop stop-color="#FFB876"/>
<stop offset="1" stop-color="#FDCCA3"/>
</linearGradient>
<linearGradient id="paint21_linear" x1="2991.67" y1="51861.8" x2="10425.1" y2="41835.4" gradientUnits="userSpaceOnUse">
<stop stop-color="#1194F6"/>
<stop offset="1" stop-color="#95D0FF"/>
</linearGradient>
<linearGradient id="paint22_linear" x1="947.709" y1="10442.8" x2="1151.17" y2="10442.8" gradientUnits="userSpaceOnUse">
<stop stop-color="#FFB876"/>
<stop offset="1" stop-color="#FDCCA3"/>
</linearGradient>
<linearGradient id="paint23_linear" x1="36388.9" y1="40928.6" x2="41137.3" y2="30167.5" gradientUnits="userSpaceOnUse">
<stop stop-color="#E55EC9"/>
<stop offset="1" stop-color="#FDF2FB"/>
</linearGradient>
<linearGradient id="paint24_linear" x1="17227.2" y1="19380.8" x2="19206.6" y2="17760.5" gradientUnits="userSpaceOnUse">
<stop stop-color="#813ABE"/>
<stop offset="1" stop-color="#E55EC9"/>
</linearGradient>
<linearGradient id="paint25_linear" x1="34253.1" y1="28050" x2="37020.8" y2="23426.9" gradientUnits="userSpaceOnUse">
<stop stop-color="#E55EC9"/>
<stop offset="1" stop-color="#FDF2FB"/>
</linearGradient>
<linearGradient id="paint26_linear" x1="16766" y1="42610.4" x2="20443.4" y2="35202.6" gradientUnits="userSpaceOnUse">
<stop stop-color="#1194F6"/>
<stop offset="1" stop-color="#95D0FF"/>
</linearGradient>
<linearGradient id="paint27_linear" x1="14080.5" y1="18585.6" x2="14653.2" y2="16751.9" gradientUnits="userSpaceOnUse">
<stop stop-color="#3900A3"/>
<stop offset="1" stop-color="#5251DE"/>
</linearGradient>
<linearGradient id="paint28_linear" x1="4345.91" y1="7778.95" x2="4639.65" y2="7093.9" gradientUnits="userSpaceOnUse">
<stop stop-color="#3900A3"/>
<stop offset="1" stop-color="#5251DE"/>
</linearGradient>
<linearGradient id="paint29_linear" x1="22229.2" y1="6909.72" x2="24711.8" y2="4461.82" gradientUnits="userSpaceOnUse">
<stop stop-color="#BEBAD1"/>
<stop offset="0.5" stop-color="#E8E3F8"/>
<stop offset="1" stop-color="#F4F0FF"/>
</linearGradient>
<linearGradient id="paint30_linear" x1="3287.86" y1="9191.64" x2="2758.76" y2="4997.88" gradientUnits="userSpaceOnUse">
<stop stop-color="#813ABE"/>
<stop offset="1" stop-color="#E55EC9"/>
</linearGradient>
<linearGradient id="paint31_linear" x1="8347.65" y1="5443.44" x2="9083.02" y2="2778.82" gradientUnits="userSpaceOnUse">
<stop stop-color="#1194F6"/>
<stop offset="1" stop-color="#95D0FF"/>
</linearGradient>
<linearGradient id="paint32_linear" x1="4247.84" y1="11986.7" x2="5018.7" y2="8100.41" gradientUnits="userSpaceOnUse">
<stop stop-color="#BEBAD1"/>
<stop offset="0.5" stop-color="#E8E3F8"/>
<stop offset="1" stop-color="#F4F0FF"/>
</linearGradient>
</defs>
</svg>
