<svg width="109" height="68" viewBox="0 0 109 68" fill="none" xmlns="http://www.w3.org/2000/svg">
<path d="M20.5111 2H99.251C104.083 2 108 5.917 108 10.7489V58.8676C108 63.6995 104.083 67.6165 99.251 67.6165H20.5111C15.6792 67.6165 11.7622 63.6995 11.7622 58.8676V10.7489C11.7622 5.917 15.6792 2 20.5111 2ZM20.5111 4.91629C17.2898 4.91629 14.6785 7.52762 14.6785 10.7489V58.8676C14.6785 62.0888 17.2898 64.7002 20.5111 64.7002H99.251C102.472 64.7002 105.084 62.0888 105.084 58.8676V10.7489C105.084 7.52762 102.472 4.91629 99.251 4.91629H20.5111ZM78.8369 13.6651H94.8765C95.6818 13.6651 96.3347 14.318 96.3347 15.1233V35.5373C96.3347 36.3426 95.6818 36.9954 94.8765 36.9954H78.8369C78.0316 36.9954 77.3788 36.3426 77.3788 35.5373V15.1233C77.3788 14.318 78.0316 13.6651 78.8369 13.6651ZM80.2951 34.0792H93.4184V16.5814H80.2951V34.0792ZM66.3629 16.8264C67.033 16.3797 67.9383 16.5607 68.385 17.2308C68.8317 17.9008 68.6506 18.8061 67.9806 19.2528C64.5745 21.5235 61.0201 21.5235 57.6141 19.2528C55.1876 17.6351 52.9093 17.6351 50.4828 19.2528C49.8128 19.6995 48.9075 19.5185 48.4608 18.8484C48.0141 18.1783 48.1951 17.2731 48.8652 16.8264C52.2713 14.5556 55.8256 14.5556 59.2317 16.8264C61.6582 18.444 63.9364 18.444 66.3629 16.8264ZM66.3629 31.4078C67.033 30.9611 67.9383 31.1421 68.385 31.8122C68.8317 32.4823 68.6506 33.3875 67.9806 33.8342C64.5745 36.105 61.0201 36.105 57.6141 33.8342C55.1876 32.2166 52.9093 32.2166 50.4828 33.8342C49.8128 34.2809 48.9075 34.0999 48.4608 33.4298C48.0141 32.7598 48.1951 31.8545 48.8652 31.4078C52.2713 29.1371 55.8256 29.1371 59.2317 31.4078C61.6582 33.0255 63.9364 33.0255 66.3629 31.4078Z" fill="#FF8686" stroke="#FF8686" stroke-width="0.5"/>
<path d="M11.7624 2.13861L2.13867 11.7623V23.5247L10.1585 33.1484H24.0595L32.6139 23.5247V11.7623L24.0595 2.13861H11.7624Z" fill="#3333FF"/>
<path d="M17.6436 9.62381C16.2386 9.62354 14.8799 10.125 13.8136 11.0374C12.7472 11.9499 12.0438 13.2129 11.8306 14.5979C11.6173 15.9828 11.9085 17.3982 12.6512 18.5876C13.394 19.777 14.5392 20.6619 15.8796 21.082V27.802H19.4077V21.082C20.7481 20.6619 21.8933 19.777 22.6361 18.5876C23.3788 17.3982 23.6699 15.9828 23.4567 14.5979C23.2435 13.2129 22.54 11.9499 21.4737 11.0374C20.4074 10.125 19.0487 9.62354 17.6436 9.62381ZM19.3077 17.1472C18.9787 17.475 18.5596 17.6982 18.1034 17.7884C17.6472 17.8787 17.1744 17.8321 16.7448 17.6545C16.3152 17.4769 15.948 17.1763 15.6897 16.7906C15.4314 16.4049 15.2935 15.9516 15.2935 15.4878C15.2935 15.024 15.4314 14.5706 15.6897 14.1849C15.948 13.7992 16.3152 13.4986 16.7448 13.321C17.1744 13.1434 17.6472 13.0968 18.1034 13.1871C18.5596 13.2773 18.9787 13.5005 19.3077 13.8283C19.5264 14.0461 19.6999 14.3048 19.8182 14.5895C19.9366 14.8743 19.9975 15.1795 19.9975 15.4878C19.9975 15.796 19.9366 16.1012 19.8182 16.386C19.6999 16.6707 19.5264 16.9294 19.3077 17.1472Z" fill="white"/>
<path d="M26.0184 1.03509C25.3572 0.373138 24.4603 0.000823611 23.5248 0H11.7624C10.8268 0.000823611 9.92988 0.373138 9.26875 1.03509L1.03509 9.26875C0.373138 9.92988 0.000823611 10.8268 0 11.7624V23.5248C0.000823611 24.4603 0.373138 25.3572 1.03509 26.0184L9.26875 34.252C9.92988 34.914 10.8268 35.2863 11.7624 35.2871H23.5248C24.4603 35.2863 25.3572 34.914 26.0184 34.252L34.252 26.0184C34.914 25.3572 35.2863 24.4603 35.2871 23.5248V11.7624C35.2863 10.8268 34.914 9.92988 34.252 9.26875L26.0184 1.03509ZM31.7584 23.5248L23.5248 31.7584H11.7624L3.52871 23.5248V11.7624L11.7624 3.52871H23.5248L31.7584 11.7624V23.5248Z" fill="white"/>
</svg>
