<svg width="63" height="82" viewBox="0 0 63 82" fill="none" xmlns="http://www.w3.org/2000/svg">
<path d="M2.95299 10.6994C1.87438 10.9375 1.193 12.0049 1.43109 13.0835L15.8724 78.5085C16.1105 79.5871 17.1779 80.2685 18.2565 80.0304L60.2458 70.762C61.3244 70.5239 62.0057 69.4566 61.7677 68.3779L47.3263 2.95299C47.0882 1.87438 46.0208 1.193 44.9422 1.43109L2.95299 10.6994ZM28.2927 25.7479C24.8839 26.5003 21.95 27.7188 19.8471 29.1249C11.8924 27.4785 5.46228 21.6405 2.84934 13.8973C2.49059 12.8342 3.18077 11.7344 4.2764 11.4925L44.0767 2.70735C45.1723 2.46551 46.2613 3.17263 46.3834 4.28797C47.2726 12.4108 43.8976 20.414 37.3751 25.2559C34.8758 24.8656 31.7016 24.9954 28.2927 25.7479ZM60.9399 69.5236L19.0595 78.7679C17.9809 79.006 16.9135 78.3246 16.6754 77.246L3.68466 18.3927C6.89363 24.1196 12.2976 28.3485 18.7286 29.948C17.0385 31.352 16.1794 32.8797 16.4917 34.2943L17.5231 34.0666C17.0295 31.8304 21.3311 28.3697 28.5201 26.7829C35.7091 25.1961 41.0678 26.5244 41.5614 28.7606L42.5928 28.5329C42.2806 27.1184 40.8572 26.0945 38.7341 25.5322C43.8951 21.3729 47.0168 15.2621 47.516 8.71771L60.9374 69.522C60.9377 69.5231 60.9388 69.5238 60.9399 69.5236Z" fill="white" stroke="#FF8686" stroke-width="2"/>
<path d="M38.246 66.3491C46.5312 64.1961 51.5024 55.7342 49.3494 47.449C47.1964 39.1637 38.7345 34.1926 30.4493 36.3456C22.164 38.4986 17.1929 46.9604 19.3459 55.2457C21.4989 63.5309 29.9607 68.5021 38.246 66.3491Z" fill="#0000D7"/>
<path d="M31.5118 58.6605C31.2821 58.7171 31.0707 58.6938 30.8776 58.5903C30.6845 58.4869 30.5624 58.3316 30.5113 58.1245L27.7758 47.0369C27.7247 46.8297 27.7606 46.6355 27.8834 46.4541C28.0062 46.2728 28.1825 46.1537 28.4122 46.0971L31.7075 45.284C34.1054 44.6924 36.1077 44.7821 37.7146 45.553C39.3358 46.3203 40.3891 47.6878 40.8746 49.6555C41.3632 51.6362 41.0628 53.3514 39.9734 54.8012C38.884 56.2511 37.126 57.2753 34.6994 57.874L31.5118 58.6605ZM31.8705 57.336L34.4981 56.6877C36.4509 56.2059 37.8484 55.3873 38.6905 54.232C39.5471 53.073 39.7757 51.6845 39.3765 50.0663C38.9804 48.4611 38.125 47.34 36.8102 46.7031C35.5097 46.0626 33.9046 45.978 31.9949 46.4491L29.3458 47.1027L31.8705 57.336Z" fill="white"/>
<line y1="-0.5" x2="18" y2="-0.5" transform="matrix(0.976289 -0.216472 0.216484 0.976286 26 51.8965)" stroke="white"/>
<line y1="-0.5" x2="18" y2="-0.5" transform="matrix(0.976289 -0.216472 0.216484 0.976286 27 54.8965)" stroke="white"/>
</svg>
