<svg width="96" height="77" viewBox="0 0 96 77" fill="none" xmlns="http://www.w3.org/2000/svg">
<path d="M93.4333 29H91.8667V22C91.8667 21.6287 91.7016 21.2726 91.4078 21.01C91.114 20.7475 90.7155 20.6 90.3 20.6H87.1667V2.4C87.1667 2.0287 87.0016 1.6726 86.7078 1.41005C86.414 1.1475 86.0155 1 85.6 1H54.2667C53.8512 1 53.4527 1.1475 53.1589 1.41005C52.8651 1.6726 52.7 2.0287 52.7 2.4V20.6H49.5667V10.8C49.5667 10.4287 49.4016 10.0726 49.1078 9.81005C48.814 9.5475 48.4155 9.4 48 9.4H19.8C19.3845 9.4 18.986 9.5475 18.6922 9.81005C18.3984 10.0726 18.2333 10.4287 18.2333 10.8V15H2.56667C2.15116 15 1.75267 15.1475 1.45887 15.41C1.16506 15.6726 1 16.0287 1 16.4V69.6C1.00249 71.4558 1.82858 73.235 3.29708 74.5473C4.76557 75.8596 6.75657 76.5978 8.83333 76.6H87.1667C89.2434 76.5978 91.2344 75.8596 92.7029 74.5473C94.1714 73.235 94.9975 71.4558 95 69.6V30.4C95 30.0287 94.8349 29.6726 94.5411 29.41C94.2473 29.1475 93.8488 29 93.4333 29ZM88.7333 29H87.1667V23.4H88.7333V29ZM55.8333 3.8H84.0333V29H55.8333V3.8ZM32.3333 29V23.4H52.7V29H32.3333ZM21.3667 12.2H46.4333V20.6H32.3333V16.4C32.3333 16.0287 32.1683 15.6726 31.8745 15.41C31.5807 15.1475 31.1822 15 30.7667 15H21.3667V12.2ZM4.13333 17.8H29.2V29H4.13333V17.8ZM91.8667 69.6C91.8667 70.7139 91.3715 71.7822 90.4901 72.5698C89.6087 73.3575 88.4132 73.8 87.1667 73.8H8.83333C7.58682 73.8 6.39135 73.3575 5.50993 72.5698C4.62851 71.7822 4.13333 70.7139 4.13333 69.6V31.8H91.8667V69.6Z" fill="#FF8686" stroke="#FF8686" stroke-width="0.7"/>
<path d="M60.5333 9.3999H79.3333C79.7488 9.3999 80.1473 9.25241 80.4411 8.98988C80.7349 8.72735 80.9 8.37128 80.9 8C80.9 7.62872 80.7349 7.27265 80.4411 7.01012C80.1473 6.74759 79.7488 6.6001 79.3333 6.6001H60.5333C60.1178 6.6001 59.7193 6.74759 59.4255 7.01012C59.1317 7.27265 58.9667 7.62872 58.9667 8C58.9667 8.37128 59.1317 8.72735 59.4255 8.98988C59.7193 9.25241 60.1178 9.3999 60.5333 9.3999Z" fill="#FF8686" stroke="#FF8686" stroke-width="0.7"/>
<path d="M60.5333 15H79.3333C79.7488 15 80.1473 14.8525 80.4411 14.59C80.7349 14.3274 80.9 13.9714 80.9 13.6001C80.9 13.2288 80.7349 12.8728 80.4411 12.6102C80.1473 12.3477 79.7488 12.2002 79.3333 12.2002H60.5333C60.1178 12.2002 59.7193 12.3477 59.4255 12.6102C59.1317 12.8728 58.9667 13.2288 58.9667 13.6001C58.9667 13.9714 59.1317 14.3274 59.4255 14.59C59.7193 14.8525 60.1178 15 60.5333 15Z" fill="#FF8686" stroke="#FF8686" stroke-width="0.7"/>
<path d="M60.5333 20.6001H79.3333C79.7488 20.6001 80.1473 20.4526 80.4411 20.19C80.7349 19.9274 80.9 19.5713 80.9 19.2C80.9 18.8286 80.7349 18.4725 80.4411 18.2099C80.1473 17.9473 79.7488 17.7998 79.3333 17.7998H60.5333C60.1178 17.7998 59.7193 17.9473 59.4255 18.2099C59.1317 18.4725 58.9667 18.8286 58.9667 19.2C58.9667 19.5713 59.1317 19.9274 59.4255 20.19C59.7193 20.4526 60.1178 20.6001 60.5333 20.6001Z" fill="#FF8686" stroke="#FF8686" stroke-width="0.7"/>
<path d="M60.5333 26.1997H79.3333C79.7488 26.1997 80.1473 26.0522 80.4411 25.7897C80.7349 25.5272 80.9 25.1711 80.9 24.7998C80.9 24.4285 80.7349 24.0725 80.4411 23.8099C80.1473 23.5474 79.7488 23.3999 79.3333 23.3999H60.5333C60.1178 23.3999 59.7193 23.5474 59.4255 23.8099C59.1317 24.0725 58.9667 24.4285 58.9667 24.7998C58.9667 25.1711 59.1317 25.5272 59.4255 25.7897C59.7193 26.0522 60.1178 26.1997 60.5333 26.1997Z" fill="#FF8686" stroke="#FF8686" stroke-width="0.7"/>
<path d="M41.9397 41C40.1488 41 38.3556 41.7241 37.0128 43.1695C34.3273 46.0602 34.3308 50.6543 37.0128 53.5469L47.2406 64.587C47.3366 64.6909 47.4532 64.7738 47.5828 64.8305C47.7125 64.8872 47.8525 64.9165 47.994 64.9165C48.1355 64.9165 48.2755 64.8872 48.4052 64.8305C48.5349 64.7738 48.6514 64.6909 48.7475 64.587C52.1616 60.9119 55.5718 57.2328 58.9859 53.5576C61.6714 50.6669 61.6714 46.071 58.9859 43.1802C56.3004 40.2894 51.8284 40.2894 49.1429 43.1802L47.9994 44.3986L46.8558 43.1695C45.5131 41.7242 43.7305 41 41.9397 41Z" fill="#3333FF"/>
<path d="M57.479 44.5803C55.541 42.4941 52.5771 42.4941 50.6391 44.5803L48.7581 46.6109C48.6621 46.7148 48.5455 46.7977 48.4159 46.8544C48.2862 46.9111 48.1462 46.9404 48.0047 46.9404C47.8632 46.9404 47.7232 46.9111 47.5935 46.8544C47.4638 46.7977 47.3473 46.7148 47.2512 46.6109L45.3596 44.5696C44.3906 43.5265 43.1657 42.9985 41.9397 42.9985C40.7136 42.9985 39.478 43.5265 38.5091 44.5696C36.5711 46.6556 36.5828 50.0685 38.5197 52.1576L47.9994 62.3747M41.9397 41C40.1488 41 38.3556 41.7241 37.0128 43.1695C34.3273 46.0602 34.3308 50.6543 37.0128 53.5469L47.2406 64.587C47.3366 64.6909 47.4532 64.7738 47.5828 64.8305C47.7125 64.8872 47.8525 64.9165 47.994 64.9165C48.1355 64.9165 48.2755 64.8872 48.4052 64.8305C48.5349 64.7738 48.6514 64.6909 48.7475 64.587C52.1616 60.9119 55.5718 57.2328 58.9859 53.5576C61.6714 50.6669 61.6714 46.071 58.9859 43.1802C56.3004 40.2894 51.8284 40.2894 49.1429 43.1802L47.9994 44.3986L46.8558 43.1695C45.5131 41.7242 43.7305 41 41.9397 41Z" stroke="#3333FF"/>
</svg>
