<svg fill="none" height="40" viewBox="0 0 74 40" width="74" xmlns="http://www.w3.org/2000/svg"><g fill="#c0c0c0"><path d="m.393966 39.9062c-.053608-.0907 5.621614-19.6659 5.768004-19.9061.09691-.1577 7.56493-.1577 7.66183 0 .0402.065-.8062 3.134-1.8804 6.8216s-1.9268 6.7752-1.8928 6.8618c.0845.2217 2.5041.2227 2.6742 0 .1876-.2443 4.8247-16.3256 4.7423-16.4545-.0403-.066-2.2609-.1144-5.2124-.1144-2.8278 0-5.16902-.0454-5.20304-.1031-.03402-.0578 1.05566-3.8897 2.41751-8.52058l2.47423-8.4205701 9.1082-.0319586c5.0092-.0175257 9.1515.0103091 9.203.0628857.0516.052577-1.4309 5.329863-3.2989 11.727723-1.8681 6.3979-4.4443 15.2577-5.733 19.6824s-2.3948 8.1443-2.4557 8.269c-.103.2062-.6721.2196-9.21845.2196-5.00822 0-9.130873-.0423-9.161801-.0938zm18.996834-29.1143c.1412-.1824 1.2927-4.11747 1.2927-4.41953 0-.17319-.1886-.20618-1.3051-.20618-.8969 0-1.3402.04948-1.4247.1567-.1413.1866-1.2949 4.12371-1.2949 4.41751 0 .1752.1856.2062 1.3052.2062.8948 0 1.3402-.0495 1.4268-.1567zm8.0411 6.2258c-.0309-.0526 1.0588-3.8866 2.4217-8.52163l2.4742-8.4257201 3.7556-.0329896c2.0619-.0185566 3.8062.0164948 3.866.0762887.0598.059793-.532 2.316481-1.4 5.265951-.834 2.83503-1.5165 5.2505-1.5165 5.367 0 .1876.1588.2062 1.4144.1763l1.4145-.0351 1.5721-5.28862c.865-2.90823 1.6175-5.36079 1.6742-5.43914.1145-.1721639 7.4433-.2268027 7.5464-.056701.0309.051546-1.0588 3.886571-2.4227 8.520571l-2.4742 8.42569-9.1329.032c-5.0227.0175-9.1587-.0103-9.1897-.0629zm20.1216 0c-.031-.0516 1.0587-3.8866 2.4226-8.5206l2.4742-8.4257193 9.102-.0319585c5.0062-.0175257 9.1423.0103092 9.1917.0628858.0495.052577-1.0309 3.886572-2.3907 8.521602l-2.4804 8.42569-3.7556.033c-2.0619.0186-3.8062-.0165-3.866-.0763s.5392-2.3154 1.4062-5.2649c.834-2.83502 1.5165-5.25047 1.5165-5.36697 0-.18762-.1588-.20618-1.4144-.17628l-1.4145.03608-1.5721 5.28867c-.865 2.9082-1.6175 5.3607-1.6742 5.4391-.1155.1701-7.4474.2258-7.5484.0567zm22.7637-5.567c-.534-.4196-.535-.8887-.0051-2.83401.366-1.34638.5557-1.83092.8175-2.0969.1463-.14761.33-.25267.5315-.30393.2014-.05125.413-.04678.6121.01295.1991.05972.3782.17245.5181.32613.14.15367.2355.3425.2764.54629.1227.65567-.7804 3.81437-1.2165 4.26077-.1978.2046-.4655.3274-.7497.3438-.2841.0164-.5641-.0747-.7843-.2551z"/><path d="m30.3917 18.9382c-1.2041 0-1.9072.0928-2.6804.9072-1.135 1.1856-1.4 3.1444-.9742 4.5237.601 1.5712 2.3072 2.0949 3.0505 2.4351-1.8495-1.4938-1.1794-4.5144.7485-5.932h1.5731c3.5361 0 3.3134-.3288 3.3619 2.1237h.0165c.068-3.4628.0092-3.9783-3.0928-4.0474-.8093.0155-1.4608-.0082-2.0082-.0092zm6.1 6.9072c-.3557 2.2484-1.7289 2.5072-4.3804 2.5h-7.9742l-.7412 2.5h8.2092c2.9804-.0639 4.4453-2.5 4.8866-4.9979z"/></g></svg>