<svg fill="none" height="378" viewBox="0 0 378 378" width="378" xmlns="http://www.w3.org/2000/svg"><path clip-rule="evenodd" d="m189 0c104.382 0 189 84.6182 189 189 0 104.382-84.618 189-189 189-104.3818 0-189-84.618-189-189 0-104.3818 84.6182-189 189-189zm113.4 144.9h-226.8v134.82c0 12.526 10.1542 22.68 22.68 22.68h181.44c12.526 0 22.68-10.154 22.68-22.68v-52.919h-36.632l-.423.848c-14.127 27.903-43.074 47.031-76.488 47.031-40.826 0-74.982-28.553-83.589-66.779h8.132v-.001h189zm-58.384 81.901h-110.318l.363.526c12.069 17.289 32.112 28.599 54.796 28.599 22.913 0 43.131-11.54 55.159-29.125zm-103.526-66.781c17.773 0 32.477 13.143 34.923 30.24h-19.333l-.077-.231c-2.194-6.461-8.311-11.109-15.513-11.109-7.288 0-13.464 4.76-15.59 11.34h-19.333l.077-.512c2.663-16.847 17.25-29.728 34.846-29.728zm97.02 0c17.773 0 32.477 13.143 34.923 30.24h-19.333l-.077-.231c-2.194-6.461-8.311-11.109-15.513-11.109-7.288 0-13.464 4.76-15.59 11.34h-19.333l.077-.512c2.663-16.847 17.25-29.728 34.846-29.728zm42.21-84.42h-181.44c-12.5258 0-22.68 10.1542-22.68 22.68v27.72h226.8v-27.72c0-12.5258-10.154-22.68-22.68-22.68z" fill="#1c68f3" fill-rule="evenodd"/></svg>