<svg fill="none" height="18" viewBox="0 0 119 18" width="119" xmlns="http://www.w3.org/2000/svg"><path d="m17.685.727917v16.499383h-4.0719v-8.27393l-3.63821 5.65343v.0243h-2.26483v-.0243l-3.66228-5.70196.0241 8.32246h-4.07188v-16.499383h3.01174l5.83074 8.807783 5.80662-8.807783zm15.155 4.731453v11.76793h-3.9032v-.6551c-.8673.5581-1.9275.8978-3.2045.8978-3.1563 0-5.8066-2.6448-5.8066-6.1388 0-3.51823 2.6503-6.13873 5.8066-6.13873 1.277 0 2.3372.33969 3.2045.89776v-.63086zm-6.3367 8.78353c.8674 0 1.7107-.2426 2.4335-1.0919v-3.63956c-.7228-.84924-1.5661-1.11614-2.4335-1.11614-1.5902 0-2.7467 1.31025-2.7467 2.9359 0 1.6257 1.1565 2.9117 2.7467 2.9117zm8.192-1.0676 3.4695.0242c.1687 1.0191 1.012 1.4801 2.2408 1.4801 1.036 0 1.6624-.3154 1.6624-.8249 0-.3883-.3614-.7037-1.1324-.825l-2.3612-.4125c-2.0239-.3397-3.4213-1.4801-3.4213-3.54251 0-2.47492 2.0961-3.93075 5.2043-3.93075 2.4816 0 5.3006.97055 5.4693 4.07633h-3.4695c-.0723-.89776-.8915-1.31025-1.9757-1.31025-1.012 0-1.4698.38822-1.4698.84924 0 .38822.2892.75218 1.2047.92202l2.1926.36392c2.1925.4125 3.6382 1.4801 3.6382 3.5668 0 2.7176-2.4335 3.9793-5.4694 3.9793-3.0599 0-5.5416-1.286-5.7825-4.416zm18.8896-.0243-1.6384 1.7713v2.305h-3.9032v-17.2273h3.9032v9.87539l4.0719-4.41602h4.6502l-4.4333 4.80423 4.8188 6.9637h-4.6743zm15.9743-7.91c3.1563 0 5.8067 2.62049 5.8067 6.1145 0 3.5183-2.6504 6.163-5.8067 6.163-1.277 0-2.3371-.3397-3.2045-.8978v.6066h-3.9032v-17.2273h3.9032v6.13876c.8674-.55807 1.9275-.89776 3.2045-.89776zm-.771 9.0504c1.5902 0 2.7467-1.286 2.7467-2.9359 0-1.60142-1.1565-2.91167-2.7467-2.91167-.8674 0-1.7107.2669-2.4335 1.11614v3.63953c.7228.8493 1.5661 1.0919 2.4335 1.0919zm14.5046-9.09893c3.6863 0 6.3367 2.59623 6.3367 6.13873 0 3.5911-2.6504 6.2601-6.3367 6.2601-3.6864 0-6.3367-2.669-6.3367-6.2601 0-3.5425 2.6503-6.13873 6.3367-6.13873zm.0241 9.00193c1.5661 0 2.6262-1.2618 2.6262-2.8389 0-1.52863-1.0601-2.76609-2.6262-2.76609-1.5902 0-2.6504 1.23746-2.6504 2.76609 0 1.5771 1.0602 2.8389 2.6504 2.8389zm14.2636-9.00193c3.6865 0 6.3365 2.59623 6.3365 6.13873 0 3.5911-2.65 6.2601-6.3365 6.2601-3.6864 0-6.3367-2.669-6.3367-6.2601 0-3.5425 2.6503-6.13873 6.3367-6.13873zm.0241 9.00193c1.5661 0 2.6264-1.2618 2.6264-2.8389 0-1.52863-1.0603-2.76609-2.6264-2.76609-1.5902 0-2.6504 1.23746-2.6504 2.76609 0 1.5771 1.0602 2.8389 2.6504 2.8389zm13.9264-1.0434-1.639 1.7713v2.305h-3.903v-17.2273h3.903v9.87539l4.072-4.41602h4.65l-4.433 4.80423 4.819 6.9637h-4.674z" fill="#3b3b3b"/></svg>