<svg fill="none" height="170" viewBox="0 0 88 170" width="88" xmlns="http://www.w3.org/2000/svg"><path clip-rule="evenodd" d="m3 0c46.9442 0 85 38.0558 85 85 0 46.944-38.0558 85-85 85s-85-38.056-85-85c0-46.9442 38.0558-85 85-85zm51 65.1667h-102v60.6333c0 5.633 4.5667 10.2 10.2 10.2h81.6c5.6333 0 10.2-4.567 10.2-10.2v-23.8l-16.4745.001-.1905.381c-6.3535 12.549-19.3719 21.151-34.39945 21.151-18.36065 0-33.72195-12.841-37.59265-30.0326l3.6571-.0001v-.0003h85zm-26.2575 36.8333h-49.6139l.1634.237c5.4279 7.775 14.44171 12.862 24.64355 12.862 10.30485 0 19.39765-5.19 24.80695-13.099zm-46.5592-30.0333c7.9934 0 14.60621 5.9108 15.70603 13.6001h-8.69453l-.0345-.1041c-.987-2.9055-3.7378-4.996-6.977-4.996-3.2777 0-6.0554 2.1406-7.0114 5.1001h-8.6946l.0347-.2302c1.1975-7.5767 7.7579-13.3699 15.6713-13.3699zm43.6334 0c7.9933 0 14.6061 5.9108 15.706 13.6001h-8.6946l-.0345-.1041c-.9869-2.9055-3.7378-4.996-6.9769-4.996-3.2777 0-6.0555 2.1406-7.0115 5.1001h-8.69453l.03464-.2302c1.19759-7.5767 7.75789-13.3699 15.67139-13.3699zm18.9833-37.9667h-81.6c-5.6333 0-10.2 4.5667-10.2 10.2v12.4667h102v-12.4667c0-5.6333-4.5667-10.2-10.2-10.2z" fill="#eaeaea" fill-rule="evenodd"/></svg>