<svg width="154" height="37" viewBox="0 0 154 37" fill="none" xmlns="http://www.w3.org/2000/svg">
<path d="M59.2238 1.4H56.7038L51.8838 8.66L47.0438 1.4H44.5438V15H47.9238L47.9038 8.14L50.9438 12.84V12.86H52.8238V12.84L55.8438 8.18V15H59.2238V1.4ZM71.7941 5.3H68.5541V5.82C67.8341 5.36 66.9541 5.08 65.8941 5.08C63.2741 5.08 61.0741 7.24 61.0741 10.14C61.0741 13.02 63.2741 15.2 65.8941 15.2C66.9541 15.2 67.8341 14.92 68.5541 14.46V15H71.7941V5.3ZM66.5341 12.54C65.2141 12.54 64.2541 11.48 64.2541 10.14C64.2541 8.8 65.2141 7.72 66.5341 7.72C67.2541 7.72 67.9541 7.94 68.5541 8.64V11.64C67.9541 12.34 67.2541 12.54 66.5341 12.54ZM73.3345 11.66C73.5345 14.24 75.5945 15.3 78.1345 15.3C80.6545 15.3 82.6745 14.26 82.6745 12.02C82.6745 10.3 81.4745 9.42 79.6545 9.08L77.8345 8.78C77.0745 8.64 76.8345 8.34 76.8345 8.02C76.8345 7.64 77.2145 7.32 78.0545 7.32C78.9545 7.32 79.6345 7.66 79.6945 8.4H82.5745C82.4345 5.84 80.0945 5.04 78.0345 5.04C75.4545 5.04 73.7145 6.24 73.7145 8.28C73.7145 9.98 74.8745 10.92 76.5545 11.2L78.5145 11.54C79.1545 11.64 79.4545 11.9 79.4545 12.22C79.4545 12.64 78.9345 12.9 78.0745 12.9C77.0545 12.9 76.3545 12.52 76.2145 11.68L73.3345 11.66ZM89.0242 11.64L91.3442 15H95.2242L91.2242 9.26L94.9042 5.3H91.0442L87.6642 8.94V0.799999H84.4242V15H87.6642V13.1L89.0242 11.64ZM57.0638 21.4H53.6838V29.06L47.1238 21.4H44.5438V35H47.9238V27.54L54.4438 35H57.0638V21.4ZM69.0261 29.94C69.0261 27.02 66.8861 25.08 64.0661 25.08C60.9661 25.08 58.9061 27.2 58.9061 30.14C58.9061 33.1 61.0261 35.22 64.2061 35.22C66.6061 35.22 68.4661 33.96 68.9261 31.96H65.7261C65.4461 32.4 64.9261 32.66 64.2461 32.66C63.0061 32.66 62.3261 31.98 62.0661 31.1H68.9861L68.9661 31.04C69.0261 30.68 69.0261 30.3 69.0261 29.94ZM64.0661 27.58C65.1061 27.58 65.8061 28.14 65.9861 29.2H62.0261C62.2661 28.22 62.9661 27.58 64.0661 27.58ZM78.2309 32.08C77.5109 32.22 76.9709 32.32 76.5109 32.32C75.5509 32.32 74.9909 31.84 74.9909 30.86V28.08H78.2909V25.3H74.9909V22H71.7509V25.3H69.8509V28.08H71.7509V30.96C71.7509 33.58 73.3109 35.3 75.6509 35.3C76.6109 35.3 77.3309 35.22 78.5909 34.82L78.2309 32.08ZM94.5567 25.3H91.1767L89.6567 30.46L88.0167 25.3H85.4567L83.8167 30.5L82.2967 25.3H78.8967L82.2367 35H85.1767L86.7367 30L88.2767 35H91.2367L94.5567 25.3ZM100.143 25.08C97.0827 25.08 94.8827 27.22 94.8827 30.14C94.8827 33.1 97.0827 35.3 100.143 35.3C103.203 35.3 105.403 33.1 105.403 30.14C105.403 27.22 103.203 25.08 100.143 25.08ZM100.163 32.5C98.8427 32.5 97.9627 31.46 97.9627 30.16C97.9627 28.9 98.8427 27.88 100.163 27.88C101.463 27.88 102.343 28.9 102.343 30.16C102.343 31.46 101.463 32.5 100.163 32.5ZM113.582 25.14C112.142 25.14 111.102 25.6 110.242 26.34V25.3H107.002V35H110.242V29.46C111.002 28.7 112.002 28.28 113.582 28.22V25.14ZM119.805 31.64L122.125 35H126.005L122.005 29.26L125.685 25.3H121.825L118.445 28.94V20.8H115.205V35H118.445V33.1L119.805 31.64Z" fill="#3333FF"/>
<path d="M17.7526 35.51C27.5571 35.51 35.5052 27.5608 35.5052 17.755C35.5052 7.94918 27.5571 0 17.7526 0C7.94811 0 0 7.94918 0 17.755C0 27.5608 7.94811 35.51 17.7526 35.51Z" fill="#3333FF"/>
<path fill-rule="evenodd" clip-rule="evenodd" d="M28.4039 13.6122V19.5305H10.6513V19.5306L9.88755 19.5306C10.696 23.1216 13.9042 25.804 17.7389 25.804C20.9092 25.804 23.6513 23.9706 24.9632 21.3062L28.4039 21.3061V26.2774C28.4039 27.4541 27.4502 28.408 26.2736 28.408H9.23114C8.0546 28.408 7.10083 27.4541 7.10083 26.2774V13.6122H28.4039ZM22.92 21.3061C21.7902 22.9581 19.8911 24.0422 17.7389 24.0422C15.5867 24.0422 13.6877 22.9581 12.5579 21.3061H22.92ZM13.1959 15.0326C11.5264 15.0326 10.1453 16.2673 9.91563 17.8734L11.7315 17.8734C11.9312 17.2553 12.5113 16.8081 13.1959 16.8081C13.8804 16.8081 14.4606 17.2553 14.6602 17.8734L16.4761 17.8734C16.2464 16.2673 14.8653 15.0326 13.1959 15.0326ZM22.3089 15.0326C20.6394 15.0326 19.2583 16.2673 19.0286 17.8734L20.8445 17.8734C21.0442 17.2553 21.6243 16.8081 22.3089 16.8081C22.9934 16.8081 23.5736 17.2553 23.7732 17.8734L25.5891 17.8734C25.3594 16.2673 23.9783 15.0326 22.3089 15.0326ZM26.2736 7.10205C27.4502 7.10205 28.4039 8.05595 28.4039 9.23265V11.8367H7.10083V9.23265C7.10083 8.05595 8.0546 7.10205 9.23114 7.10205H26.2736Z" fill="white"/>
</svg>
