<svg fill="none" height="40" viewBox="0 0 283 40" width="283" xmlns="http://www.w3.org/2000/svg" xmlns:xlink="http://www.w3.org/1999/xlink"><clipPath id="a"><path d="m.079102 0h282v40h-282z"/></clipPath><g clip-path="url(#a)" fill="#c0c0c0"><path d="m6.0791 8.51655v30.98775h-5.9999984v-35.99793c0-2.886809 3.2979584-4.53239 5.6045484-2.796589l28.50005 21.447519c.8786.6612 1.3954 1.6969 1.3954 2.7965v14.5505h-6v-13.303z"/><path d="m102.843 5.50427c-2.355 0-4.2639 1.90905-4.2639 4.26405v26.95908h5.5369v-23.3569l7.465 12.1817c.85 1.3869 2.36 2.2323 3.987 2.2323 1.622 0 3.129-.8416 3.98-2.2235l7.508-12.1905v23.3569h5.537v-27.15713c0-2.2456-1.82-4.066-4.066-4.066-1.442 0-2.777.7639-3.507 2.00765l-9.346 15.92198-9.14-15.80058c-.762-1.31765-2.169-2.12905-3.691-2.12905z"/><path clip-rule="evenodd" d="m158.165 5.50427c-1.829 0-3.473 1.1171-4.147 2.8181l-11.254 28.40503h5.361l3.494-8.1738h12.744l3.493 8.1738h5.691l-11.233-28.40253c-.673-1.7023-2.318-2.8206-4.149-2.8206zm-.174 6.39403 4.438 11.5796h-8.899z" fill-rule="evenodd"/><path d="m188.53 19.8085 13.505-13.56753c.469-.4716 1.107-.7367 1.773-.7367 2.231 0 3.346 2.6998 1.765 4.27395l-10.715 10.66748 15.798 16.2817h-7.185l-14.941-15.1172v15.1172h-5.537v-28.45458c0-1.52905 1.239-2.76855 2.768-2.76855 1.53 0 2.769 1.2395 2.769 2.76855z"/><path d="m220.454 31.7274c0 2.7614 2.238 5 5 5h14.358c1.407 0 2.548-1.1411 2.548-2.5488s-1.141-2.5489-2.548-2.5489h-13.799v-8.4375h12.59c1.408 0 2.549-1.1411 2.549-2.5488s-1.141-2.5488-2.549-2.5488h-12.59v-7.4927h13.799c1.407 0 2.548-1.14113 2.548-2.54883 0-1.40765-1.141-2.5488-2.548-2.5488h-14.358c-2.762 0-5 2.23855-5 5.00003z"/><path clip-rule="evenodd" d="m279.162 14.4471c0 .9961-.125 1.9483-.374 2.8565-.234.8935-.615 1.7578-1.142 2.5927-.513.835-1.223 1.5821-2.132 2.2413-.893.6591-1.955 1.1718-3.186 1.538l9.427 13.0518h-7.207l-8.745-12.1069h-5.296v12.1069h-5.537v-26.2231c0-2.76148 2.239-5.00003 5-5.00003h8.294c.659 0 1.259.02195 1.801.0659.557.0293 1.223.1172 2 .26365.791.13185 1.487.31495 2.087.54935.615.23435 1.245.5786 1.89 1.0327.659.4541 1.201.98875 1.626 1.604.439.6006.798 1.36963 1.076 2.30713.279.9229.418 1.9629.418 3.1201zm-18.655-3.8672v8.9429h5.098c.879 0 1.655-.0293 2.329-.0879s1.37-.1758 2.087-.3515c.718-.1905 1.304-.4468 1.758-.7691.469-.3222.85-.769 1.143-1.3403.307-.5713.461-1.2451.461-2.0215 0-2.915-2.248-4.3726-6.745-4.3726z" fill-rule="evenodd"/><path d="m69.5791 39.5043v-30.98775l-23.5 17.68475v13.303h-6v-14.5505c0-1.0996.5168-2.1353 1.3955-2.7965l28.5-21.447519c2.3065-1.735801 5.6045-.09022 5.6045 2.796589v35.99793z"/></g></svg>
