<svg width="31" height="289" viewBox="0 0 31 289" fill="none" xmlns="http://www.w3.org/2000/svg">
<path d="M29.2 30.76V31.26H29.7V30.76H29.2ZM29.2 25.72H29.7V25.4518L29.4766 25.3034L29.2 25.72ZM14.68 16.08L14.4027 15.664L13.7773 16.0809L14.4034 16.4966L14.68 16.08ZM29.2 6.4L29.4774 6.81603L29.7 6.66759V6.4H29.2ZM29.2 1.4H29.7V0.9L29.2 0.9V1.4ZM2 1.4V0.9H1.5V1.4H2ZM2 8.16H1.5V8.66146L2.00146 8.66L2 8.16ZM15.72 8.12L15.9916 8.53983L17.4213 7.61504L15.7185 7.62L15.72 8.12ZM6.32 14.2V14.7H6.46761L6.59155 14.6198L6.32 14.2ZM6.28 14.2V13.7H5.78V14.2H6.28ZM6.28 17.96L5.78 17.96V18.46L6.28 18.46V17.96ZM6.32 17.96L6.59192 17.5404L6.46785 17.46H6.32V17.96ZM15.64 24V24.5H17.3309L15.9119 23.5804L15.64 24ZM2 24V23.5H1.5V24H2ZM2 30.76H1.5V31.26H2V30.76ZM29.7 30.76V25.72H28.7V30.76H29.7ZM29.4766 25.3034L14.9566 15.6634L14.4034 16.4966L28.9234 26.1366L29.4766 25.3034ZM14.9573 16.496L29.4774 6.81603L28.9227 5.98397L14.4027 15.664L14.9573 16.496ZM29.7 6.4V1.4H28.7V6.4H29.7ZM29.2 0.9L2 0.9V1.9L29.2 1.9V0.9ZM1.5 1.4V8.16H2.5V1.4L1.5 1.4ZM2.00146 8.66L15.7215 8.62L15.7185 7.62L1.99854 7.66L2.00146 8.66ZM15.4485 7.70017L6.04845 13.7802L6.59155 14.6198L15.9916 8.53983L15.4485 7.70017ZM6.32 13.7H6.28V14.7H6.32V13.7ZM5.78 14.2V17.96L6.78 17.96V14.2H5.78ZM6.28 18.46H6.32V17.46H6.28V18.46ZM6.04808 18.3796L15.3681 24.4196L15.9119 23.5804L6.59192 17.5404L6.04808 18.3796ZM15.64 23.5L2 23.5V24.5L15.64 24.5V23.5ZM1.5 24V30.76H2.5V24H1.5ZM2 31.26H29.2V30.26L2 30.26V31.26ZM21.4 56.7006V57.2006H21.9V56.7006H21.4ZM21.4 50.2206H21.9V49.7206H21.4V50.2206ZM20.36 50.2206L19.9387 49.9514L19.4472 50.7206H20.36V50.2206ZM3.08 50.2206V50.7206H3.99278L3.50135 49.9514L3.08 50.2206ZM2 50.2206V49.7206H1.5V50.2206H2ZM2 56.7006H1.5L1.5 57.2006H2L2 56.7006ZM14.72 50.2206V50.7206H14.905L15.0454 50.6003L14.72 50.2206ZM8.72 50.2206L8.39461 50.6003L8.53504 50.7206H8.72V50.2206ZM21.9 56.7006V50.2206H20.9V56.7006H21.9ZM21.4 49.7206H20.36V50.7206H21.4V49.7206ZM20.7813 50.4898C21.7541 48.9673 22.34 47.1134 22.34 44.9006H21.34C21.34 46.9278 20.8059 48.594 19.9387 49.9514L20.7813 50.4898ZM22.34 44.9006C22.34 39.3713 17.7828 34.7606 11.72 34.7606V35.7606C17.2572 35.7606 21.34 39.9499 21.34 44.9006H22.34ZM11.72 34.7606C5.69851 34.7606 1.1 39.3701 1.1 44.9006H2.1C2.1 39.9512 6.22149 35.7606 11.72 35.7606V34.7606ZM1.1 44.9006C1.1 47.1134 1.68591 48.9673 2.65865 50.4898L3.50135 49.9514C2.63409 48.594 2.1 46.9278 2.1 44.9006H1.1ZM3.08 49.7206H2V50.7206H3.08V49.7206ZM1.5 50.2206V56.7006H2.5V50.2206H1.5ZM2 57.2006H21.4V56.2006H2L2 57.2006ZM7.42 46.1806C7.42 43.8472 9.28469 42.1206 11.72 42.1206V41.1206C8.79531 41.1206 6.42 43.2341 6.42 46.1806H7.42ZM11.72 42.1206C14.1609 42.1206 16.06 43.8524 16.06 46.1806H17.06C17.06 43.2288 14.6391 41.1206 11.72 41.1206V42.1206ZM16.06 46.1806C16.06 47.5007 15.6654 48.7517 14.3946 49.841L15.0454 50.6003C16.5746 49.2895 17.06 47.7406 17.06 46.1806H16.06ZM14.72 49.7206H8.72V50.7206H14.72V49.7206ZM9.0454 49.841C7.78095 48.7572 7.42 47.5107 7.42 46.1806H6.42C6.42 47.7305 6.85905 49.2841 8.39461 50.6003L9.0454 49.841ZM8.68 60.5816L9.17999 60.585L9.18377 60.041L8.64136 60.0831L8.68 60.5816ZM13.84 73.2216L14.3316 73.3134L14.3333 73.3029L13.84 73.2216ZM14.44 69.5816L13.9482 69.491L13.9467 69.5002L14.44 69.5816ZM15.2 73.3016L15.1596 72.8032L14.7 72.8405V73.3016H15.2ZM15.2 79.0616H14.7V79.5897L15.2273 79.5608L15.2 79.0616ZM9.6 67.0216L10.0927 67.107L10.0932 67.1038L9.6 67.0216ZM8.92 70.9416L8.42729 70.8561L8.42599 70.8644L8.92 70.9416ZM8.64 66.3416L8.7222 66.8348L9.13707 66.7656L9.13999 66.345L8.64 66.3416ZM8.64136 60.0831C5.91778 60.2942 3.95709 61.4982 2.69252 63.344C1.44137 65.1701 0.900002 67.5809 0.900002 70.1816H1.9C1.9 67.7022 2.41863 65.513 3.51748 63.9092C4.60291 62.3249 6.28222 61.2689 8.71865 61.0801L8.64136 60.0831ZM0.900002 70.1816C0.900002 72.7599 1.43044 75.1373 2.58241 76.8866C3.74981 78.6593 5.54276 79.7616 7.96 79.7616V78.7616C5.89724 78.7616 4.41019 77.8438 3.41759 76.3366C2.40956 74.8059 1.9 72.6432 1.9 70.1816H0.900002ZM7.96 79.7616C9.81119 79.7616 11.2494 79.1091 12.3057 77.9421C13.3465 76.7923 13.9825 75.1816 14.3315 73.3134L13.3485 73.1297C13.0175 74.9016 12.4335 76.3108 11.5643 77.271C10.7106 78.2141 9.54881 78.7616 7.96 78.7616V79.7616ZM14.3333 73.3029L14.9333 69.6629L13.9467 69.5002L13.3467 73.1402L14.3333 73.3029ZM14.9317 69.6721C15.0637 68.9558 15.2602 68.5527 15.4451 68.3364C15.6134 68.1396 15.7836 68.0816 15.96 68.0816V67.0816C15.4964 67.0816 15.0466 67.2636 14.6849 67.6867C14.3398 68.0904 14.0963 68.6873 13.9483 69.491L14.9317 69.6721ZM15.96 68.0816C16.1491 68.0816 16.3488 68.1665 16.5234 68.4403C16.7089 68.7313 16.86 69.2357 16.86 70.0216H17.86C17.86 69.1274 17.6911 68.4118 17.3666 67.9028C17.0312 67.3766 16.5309 67.0816 15.96 67.0816V68.0816ZM16.86 70.0216C16.86 70.8682 16.6986 71.5566 16.4085 72.0305C16.1313 72.4835 15.73 72.757 15.1596 72.8032L15.2404 73.7999C16.15 73.7262 16.8287 73.2597 17.2615 72.5526C17.6814 71.8665 17.86 70.9749 17.86 70.0216H16.86ZM14.7 73.3016V79.0616H15.7V73.3016H14.7ZM15.2273 79.5608C17.9648 79.4111 19.789 78.0708 20.9079 76.2203C22.0115 74.395 22.42 72.0945 22.42 69.9816H21.42C21.42 71.9886 21.0285 74.0882 20.0521 75.7029C19.091 77.2924 17.5552 78.432 15.1727 78.5623L15.2273 79.5608ZM22.42 69.9816C22.42 67.3316 21.8047 65.0571 20.6133 63.4311C19.41 61.7887 17.6408 60.8416 15.44 60.8416V61.8416C17.3192 61.8416 18.79 62.6345 19.8067 64.0221C20.8353 65.4261 21.42 67.4715 21.42 69.9816H22.42ZM15.44 60.8416C13.6153 60.8416 12.1618 61.4691 11.0952 62.5744C10.0392 63.6687 9.39772 65.1939 9.1068 66.9394L10.0932 67.1038C10.3623 65.4893 10.9408 64.1744 11.8148 63.2688C12.6782 62.3741 13.8647 61.8416 15.44 61.8416V60.8416ZM9.10736 66.9361L8.42736 70.8561L9.41264 71.027L10.0926 67.107L9.10736 66.9361ZM8.42599 70.8644C8.333 71.4595 8.17308 71.8398 8.00655 72.0595C7.85119 72.2645 7.70042 72.3216 7.56 72.3216V73.3216C8.05958 73.3216 8.48881 73.0787 8.80345 72.6636C9.10692 72.2633 9.307 71.7036 9.41401 71.0188L8.42599 70.8644ZM7.56 72.3216C7.39208 72.3216 7.19533 72.2331 7.01315 71.8648C6.82566 71.4859 6.7 70.882 6.7 70.0616H5.7C5.7 70.9611 5.83434 71.7373 6.11685 72.3083C6.40467 72.8901 6.88792 73.3216 7.56 73.3216V72.3216ZM6.7 70.0616C6.7 69.0955 6.88119 68.3391 7.214 67.8066C7.53561 67.292 8.01898 66.952 8.7222 66.8348L8.5578 65.8484C7.58102 66.0112 6.84439 66.5111 6.366 67.2766C5.89881 68.0241 5.7 68.9876 5.7 70.0616H6.7ZM9.13999 66.345L9.17999 60.585L8.18001 60.5781L8.14001 66.3381L9.13999 66.345ZM8.72 92.7609L9.0041 93.1724L9.5159 92.819L9.0608 92.3951L8.72 92.7609ZM2 97.4009L1.7159 96.9895L1.5 97.1386V97.4009H2ZM2 105.161H1.5V106.119L2.28587 105.571L2 105.161ZM13.48 97.1609L13.8204 96.7947L13.525 96.5202L13.1941 96.7507L13.48 97.1609ZM21.4 104.521L21.0596 104.887L21.9 105.668V104.521H21.4ZM21.4 96.8009H21.9V96.5829L21.7402 96.4345L21.4 96.8009ZM14.12 90.0409V89.5409H12.8467L13.7798 90.4073L14.12 90.0409ZM30.4 90.0409V90.5409H30.9V90.0409H30.4ZM30.4 83.5609H30.9V83.0609H30.4V83.5609ZM2 83.5609V83.0609H1.5V83.5609H2ZM2 90.0409H1.5V90.5409H2V90.0409ZM5.8 90.0409L6.1408 89.6751L5.9968 89.5409H5.8V90.0409ZM8.43591 92.3495L1.7159 96.9895L2.2841 97.8124L9.0041 93.1724L8.43591 92.3495ZM1.5 97.4009V105.161H2.5V97.4009H1.5ZM2.28587 105.571L13.7659 97.5712L13.1941 96.7507L1.71413 104.751L2.28587 105.571ZM13.1396 97.5272L21.0596 104.887L21.7404 104.155L13.8204 96.7947L13.1396 97.5272ZM21.9 104.521V96.8009H20.9V104.521H21.9ZM21.7402 96.4345L14.4602 89.6745L13.7798 90.4073L21.0598 97.1673L21.7402 96.4345ZM14.12 90.5409H30.4V89.5409H14.12V90.5409ZM30.9 90.0409V83.5609H29.9V90.0409H30.9ZM30.4 83.0609H2V84.0609H30.4V83.0609ZM1.5 83.5609V90.0409H2.5V83.5609H1.5ZM2 90.5409H5.8V89.5409H2V90.5409ZM5.4592 90.4068L8.3792 93.1268L9.0608 92.3951L6.1408 89.6751L5.4592 90.4068ZM29.2 144.581V145.081H29.7V144.581H29.2ZM29.2 137.821H29.7V137.321H29.2V137.821ZM13.88 137.821L13.5548 137.441L12.5275 138.321H13.88V137.821ZM29.2 124.701L29.5252 125.08L29.7 124.931V124.701H29.2ZM29.2 119.541H29.7V119.041H29.2V119.541ZM2 119.541V119.041H1.5V119.541H2ZM2 126.301H1.5V126.801H2V126.301ZM16.92 126.301L17.249 126.677L18.2519 125.801H16.92V126.301ZM2 139.341L1.67096 138.964L1.5 139.114V139.341H2ZM2 144.581H1.5V145.081H2V144.581ZM29.7 144.581V137.821H28.7V144.581H29.7ZM29.2 137.321H13.88V138.321H29.2V137.321ZM14.2052 138.2L29.5252 125.08L28.8748 124.321L13.5548 137.441L14.2052 138.2ZM29.7 124.701V119.541H28.7V124.701H29.7ZM29.2 119.041H2V120.041H29.2V119.041ZM1.5 119.541V126.301H2.5V119.541H1.5ZM2 126.801H16.92V125.801H2V126.801ZM16.591 125.924L1.67096 138.964L2.32904 139.717L17.249 126.677L16.591 125.924ZM1.5 139.341V144.581H2.5V139.341H1.5ZM2 145.081H29.2V144.081H2V145.081ZM8.08 169.105L7.96793 169.593L8.58 169.733V169.105H8.08ZM8.08 162.705H8.58V162.431L8.34844 162.283L8.08 162.705ZM9.8 155.385H10.3V154.716L9.65833 154.906L9.8 155.385ZM9.8 169.225H9.3V169.919L9.95811 169.7L9.8 169.225ZM9.92 169.185L10.0022 168.692L9.8797 168.672L9.76189 168.711L9.92 169.185ZM13.6 163.225H13.1V163.817L13.6837 163.718L13.6 163.225ZM13.6 155.305L13.7189 154.82L13.1 154.668V155.305H13.6ZM12.12 169.805C15.1676 169.805 17.7309 168.686 19.5311 166.806C21.329 164.929 22.34 162.321 22.34 159.385H21.34C21.34 162.09 20.4111 164.442 18.8089 166.114C17.2091 167.785 14.9124 168.805 12.12 168.805V169.805ZM22.34 159.385C22.34 156.168 21.2378 153.457 19.3395 151.548C17.4416 149.639 14.7796 148.565 11.72 148.565V149.565C14.5404 149.565 16.9384 150.551 18.6305 152.253C20.3222 153.954 21.34 156.402 21.34 159.385H22.34ZM11.72 148.565C8.63681 148.565 5.96339 149.672 4.06117 151.632C2.15961 153.592 1.06 156.372 1.06 159.665H2.06C2.06 156.599 3.08039 154.079 4.77883 152.329C6.47661 150.579 8.88319 149.565 11.72 149.565V148.565ZM1.06 159.665C1.06 164.636 3.68501 168.608 7.96793 169.593L8.19207 168.618C4.47499 167.763 2.06 164.295 2.06 159.665H1.06ZM8.58 169.105V162.705H7.58V169.105H8.58ZM8.34844 162.283C7.64589 161.836 7.18 160.978 7.18 159.745H6.18C6.18 161.233 6.75412 162.454 7.81156 163.127L8.34844 162.283ZM7.18 159.745C7.18 158.601 7.49202 157.754 7.97364 157.139C8.45767 156.521 9.1413 156.101 9.94167 155.865L9.65833 154.906C8.6987 155.189 7.82233 155.71 7.18636 156.522C6.54798 157.337 6.18 158.41 6.18 159.745H7.18ZM9.3 155.385V169.225H10.3V155.385H9.3ZM9.95811 169.7L10.0781 169.66L9.76189 168.711L9.64189 168.751L9.95811 169.7ZM9.8378 169.679C10.6057 169.806 11.4077 169.805 12.12 169.805V168.805C11.3923 168.805 10.6743 168.804 10.0022 168.692L9.8378 169.679ZM16.34 159.385C16.34 160.335 16.0855 161.084 15.6306 161.631C15.1766 162.176 14.4834 162.568 13.5163 162.732L13.6837 163.718C14.8366 163.522 15.7634 163.034 16.3994 162.27C17.0345 161.507 17.34 160.516 17.34 159.385H16.34ZM14.1 163.225V155.305H13.1V163.225H14.1ZM13.4811 155.791C14.3764 156.01 15.0849 156.431 15.5693 157.018C16.0514 157.603 16.34 158.386 16.34 159.385H17.34C17.34 158.184 16.9886 157.168 16.3407 156.382C15.6951 155.599 14.7836 155.08 13.7189 154.82L13.4811 155.791ZM7.84 188.515L7.90513 189.011L8.43229 188.941L8.33081 188.42L7.84 188.515ZM15.84 182.035H16.34V181.535H15.84V182.035ZM15.84 188.635H15.34V189.135H15.84V188.635ZM21.4 188.635V189.135H21.9V188.635H21.4ZM21.4 182.035V181.535H20.9V182.035H21.4ZM28 182.035V182.535H28.5V182.035H28ZM28 175.555H28.5V175.055H28V175.555ZM21.4 175.555H20.9V176.055H21.4V175.555ZM21.4 171.755H21.9V171.255H21.4V171.755ZM15.84 171.755V171.255H15.34V171.755H15.84ZM15.84 175.555V176.055H16.34V175.555H15.84ZM2.36 189.235L1.88344 189.386L2.0101 189.785L2.42513 189.731L2.36 189.235ZM8.33081 188.42C8.04823 186.966 7.86 185.937 7.86 185.075H6.86C6.86 186.053 7.07177 187.184 7.34919 188.61L8.33081 188.42ZM7.86 185.075C7.86 184.192 8.08074 183.573 8.45065 183.176C8.81494 182.785 9.39501 182.535 10.28 182.535V181.535C9.20499 181.535 8.32506 181.845 7.71936 182.494C7.11926 183.137 6.86 184.038 6.86 185.075H7.86ZM10.28 182.535H15.84V181.535H10.28V182.535ZM15.34 182.035V188.635H16.34V182.035H15.34ZM15.84 189.135H21.4V188.135H15.84V189.135ZM21.9 188.635L21.9 182.035H20.9L20.9 188.635H21.9ZM21.4 182.535H28V181.535H21.4V182.535ZM28.5 182.035V175.555H27.5V182.035H28.5ZM28 175.055H21.4V176.055H28V175.055ZM21.9 175.555V171.755H20.9V175.555H21.9ZM21.4 171.255H15.84V172.255H21.4V171.255ZM15.34 171.755V175.555H16.34V171.755H15.34ZM15.84 175.055H10.08V176.055H15.84V175.055ZM10.08 175.055C7.36201 175.055 5.06456 175.865 3.44032 177.329C1.81129 178.796 0.900002 180.886 0.900002 183.355H1.9C1.9 181.144 2.70871 179.334 4.10969 178.071C5.51544 176.805 7.55799 176.055 10.08 176.055V175.055ZM0.900002 183.355C0.900002 185.325 1.06752 186.816 1.88344 189.386L2.83656 189.084C2.05247 186.614 1.9 185.225 1.9 183.355H0.900002ZM2.42513 189.731L7.90513 189.011L7.77487 188.019L2.29486 188.739L2.42513 189.731ZM21.4 221.967L21.2381 222.44L21.9 222.666V221.967H21.4ZM21.4 215.207H21.9V214.833L21.5413 214.727L21.4 215.207ZM11.08 212.167L10.9286 211.69L9.37216 212.185L10.9387 212.646L11.08 212.167ZM21.4 208.887L21.5514 209.363L21.9 209.252V208.887H21.4ZM21.4 203.767H21.9V203.4L21.5504 203.29L21.4 203.767ZM11 200.487L10.8597 200.007L9.28005 200.468L10.8496 200.963L11 200.487ZM21.4 197.447L21.5403 197.926L21.9 197.821V197.447H21.4ZM21.4 190.647H21.9V189.946L21.2372 190.174L21.4 190.647ZM2 197.327L1.83722 196.854L1.5 196.97V197.327H2ZM2 203.207H1.5V203.574L1.85108 203.684L2 203.207ZM12 206.327L12.1472 206.804L13.6886 206.33L12.1489 205.849L12 206.327ZM2 209.407L1.85282 208.929L1.5 209.037V209.407H2ZM2 215.327H1.5V215.684L1.83809 215.8L2 215.327ZM21.9 221.967V215.207H20.9V221.967H21.9ZM21.5413 214.727L11.2213 211.687L10.9387 212.646L21.2587 215.686L21.5413 214.727ZM11.2314 212.643L21.5514 209.363L21.2486 208.41L10.9286 211.69L11.2314 212.643ZM21.9 208.887V203.767H20.9V208.887H21.9ZM21.5504 203.29L11.1504 200.01L10.8496 200.963L21.2496 204.243L21.5504 203.29ZM11.1403 200.966L21.5403 197.926L21.2597 196.967L10.8597 200.007L11.1403 200.966ZM21.9 197.447V190.647H20.9V197.447H21.9ZM21.2372 190.174L1.83722 196.854L2.16278 197.799L21.5628 191.119L21.2372 190.174ZM1.5 197.327V203.207H2.5V197.327H1.5ZM1.85108 203.684L11.8511 206.804L12.1489 205.849L2.14892 202.729L1.85108 203.684ZM11.8528 205.849L1.85282 208.929L2.14718 209.884L12.1472 206.804L11.8528 205.849ZM1.5 209.407V215.327H2.5V209.407H1.5ZM1.83809 215.8L21.2381 222.44L21.5619 221.493L2.16191 214.854L1.83809 215.8ZM22.34 233.938C22.34 227.559 17.8527 222.918 11.72 222.918V223.918C17.2673 223.918 21.34 228.078 21.34 233.938H22.34ZM11.72 222.918C5.51752 222.918 0.900002 227.549 0.900002 233.938H1.9C1.9 228.088 6.08248 223.918 11.72 223.918V222.918ZM0.900002 233.938C0.900002 240.328 5.51752 244.958 11.72 244.958V243.958C6.08248 243.958 1.9 239.789 1.9 233.938H0.900002ZM11.72 244.958C17.8527 244.958 22.34 240.318 22.34 233.938H21.34C21.34 239.799 17.2673 243.958 11.72 243.958V244.958ZM7.5 233.978C7.5 231.657 9.31139 230.078 11.68 230.078V229.078C8.84861 229.078 6.5 231.02 6.5 233.978H7.5ZM11.68 230.078C13.9569 230.078 15.74 231.647 15.74 233.978H16.74C16.74 231.03 14.4431 229.078 11.68 229.078V230.078ZM15.74 233.978C15.74 236.267 13.9601 237.838 11.68 237.838V238.838C14.4399 238.838 16.74 236.889 16.74 233.978H15.74ZM11.68 237.838C9.30819 237.838 7.5 236.257 7.5 233.978H6.5C6.5 236.9 8.85181 238.838 11.68 238.838V237.838ZM21.72 261.618V262.118H22.22V261.618H21.72ZM19.32 254.938V254.438H18.2301L18.941 255.264L19.32 254.938ZM21.4 254.938V255.438H21.9V254.938H21.4ZM21.4 248.458H21.9V247.958H21.4V248.458ZM2 248.458V247.958H1.5V248.458H2ZM2 254.938H1.5V255.438H2V254.938ZM13.08 254.938L13.4336 254.584L13.2871 254.438H13.08V254.938ZM15.56 261.618L15.0604 261.637L15.0786 262.118H15.56V261.618ZM22.22 261.618C22.22 258.613 21.2538 256.419 19.699 254.612L18.941 255.264C20.3462 256.897 21.22 258.862 21.22 261.618H22.22ZM19.32 255.438H21.4V254.438H19.32V255.438ZM21.9 254.938V248.458H20.9V254.938H21.9ZM21.4 247.958H2V248.958H21.4V247.958ZM1.5 248.458V254.938H2.5V248.458H1.5ZM2 255.438H13.08V254.438H2V255.438ZM12.7264 255.291C14.1352 256.7 14.9438 258.568 15.0604 261.637L16.0596 261.599C15.9362 258.348 15.0648 256.215 13.4336 254.584L12.7264 255.291ZM15.56 262.118H21.72V261.118H15.56V262.118ZM8.72 274.864L9.0041 275.276L9.5159 274.922L9.0608 274.498L8.72 274.864ZM2 279.504L1.7159 279.093L1.5 279.242V279.504H2ZM2 287.264H1.5V288.222L2.28587 287.674L2 287.264ZM13.48 279.264L13.8204 278.898L13.525 278.623L13.1941 278.854L13.48 279.264ZM21.4 286.624L21.0596 286.99L21.9 287.771V286.624H21.4ZM21.4 278.904H21.9V278.686L21.7402 278.538L21.4 278.904ZM14.12 272.144V271.644H12.8467L13.7798 272.51L14.12 272.144ZM30.4 272.144V272.644H30.9V272.144H30.4ZM30.4 265.664H30.9V265.164H30.4V265.664ZM2 265.664V265.164H1.5V265.664H2ZM2 272.144H1.5V272.644H2V272.144ZM5.8 272.144L6.1408 271.778L5.9968 271.644H5.8V272.144ZM8.43591 274.453L1.7159 279.093L2.2841 279.915L9.0041 275.276L8.43591 274.453ZM1.5 279.504V287.264H2.5V279.504H1.5ZM2.28587 287.674L13.7659 279.674L13.1941 278.854L1.71413 286.854L2.28587 287.674ZM13.1396 279.63L21.0596 286.99L21.7404 286.258L13.8204 278.898L13.1396 279.63ZM21.9 286.624V278.904H20.9V286.624H21.9ZM21.7402 278.538L14.4602 271.778L13.7798 272.51L21.0598 279.27L21.7402 278.538ZM14.12 272.644H30.4V271.644H14.12V272.644ZM30.9 272.144L30.9 265.664H29.9L29.9 272.144H30.9ZM30.4 265.164H2V266.164H30.4V265.164ZM1.5 265.664V272.144H2.5V265.664H1.5ZM2 272.644H5.8V271.644H2V272.644ZM5.4592 272.51L8.3792 275.23L9.0608 274.498L6.1408 271.778L5.4592 272.51Z" fill="white"/>
</svg>
