<svg fill="none" height="24" viewBox="0 0 24 24" width="24" xmlns="http://www.w3.org/2000/svg"><circle fill="#fff" cx="12" cy="12" r="11"/><path clip-rule="evenodd" d="m12.0002.00195312c-6.62611 0-12.0002 5.37262688-12.0002 12.00014688 0 5.3013 3.43811 9.799 8.20703 11.386.60001.1102.81916-.2604.81916-.5784 0-.2848-.01054-1.0395-.01617-2.041-3.33827.7252-4.04258-1.6085-4.04258-1.6085-.54563-1.3864-1.33221-1.7553-1.33221-1.7553-1.08963-.7439.08227-.7289.08227-.7289 1.20424.0849 1.83824 1.2368 1.83824 1.2368 1.07041 1.8338 2.80857 1.3041 3.49225.9971.10923-.7756.41907-1.3043.76197-1.6044-2.66466-.3028-5.4662-1.3324-5.4662-5.9297 0-1.3099.46758-2.38103 1.23518-3.21987-.12329-.30469-.53509-1.52345.11719-3.17581 0 0 1.00784-.32273 3.30007 1.23001.9572-.26601 1.9838-.39844 3.0043-.40383 1.019.00469 2.0456.13782 3.0042.40383 2.2911-1.55274 3.2968-1.23001 3.2968-1.23001.6547 1.65213.2428 2.87206.1193 3.17581.7693.83884 1.2336 1.90997 1.2336 3.21987 0 4.61-2.8058 5.6251-5.4791 5.9215.4308.3706.8147 1.103.8147 2.2224 0 1.6041-.0148 2.8986-.0148 3.2918 0 .3209.2161.6943.8253.5771 4.7642-1.5898 8.1995-6.0847 8.1995-11.3847.0012-6.62932-5.3722-12.00194688-11.9998-12.00194688z" fill="#3b3b3b" fill-rule="evenodd"/></svg>