<svg fill="none" height="24" viewBox="0 0 24 24" width="24" xmlns="http://www.w3.org/2000/svg"><circle fill="#fff" cx="12" cy="12" r="11"/><path clip-rule="evenodd" d="m12 0c-6.62602 0-12 5.37188-12 12 0 6.6281 5.37398 12 12 12 6.626 0 12-5.373 12-12 0-6.62695-5.373-12-12-12zm3.2238 17.8709c.0926.0658.1999.108.3125.1228.1127.0149.2272.0019.3337-.0378.1057-.0404.1997-.1066.2734-.1925.0737-.086.1247-.189.1485-.2997.5069-2.3807 1.7381-8.41073 2.1979-10.57682.0172-.08059.0122-.16431-.0144-.2423-.0265-.07798-.0737-.14733-.1365-.20067-.0634-.05343-.1398-.08915-.2215-.10356-.0816-.0144-.1656-.00698-.2435.02153-2.4455.90609-9.97898 3.73192-13.05796 4.87082-.09523.0344-.17711.0982-.23389.182-.05679.0839-.08559.1836-.08226.2848.00333.1013.03862.1988.10079.2788.06218.0799.14807.1382.24536.1663 1.38094.4132 3.19289.9881 3.19289.9881s.84703 2.558 1.28906 3.8581c.02613.0807.07194.1537.13332.2124.06137.0586.13637.101.21824.1234.08277.0217.16969.022.2526.0009.08295-.0212.15905-.0631.22135-.1218.7089-.6689 1.8046-1.7039 1.8046-1.7039s2.0839 1.5272 3.2658 2.3691zm-6.42185-5.0625.97805 3.2315.21797-2.0458s3.78303-3.4132 5.94093-5.35808c.0303-.02753.0492-.06551.0527-.10632s-.0085-.08144-.0337-.11376c-.0252-.03248-.0617-.05431-.1022-.06117-.0406-.00686-.0822.00176-.1167.02414z" fill="#3b3b3b" fill-rule="evenodd"/></svg>