<svg width="24" height="24" viewBox="0 0 24 24" fill="none" xmlns="http://www.w3.org/2000/svg">
<circle fill="#fff" cx="12" cy="12" r="11"/>
<path fill-rule="evenodd" clip-rule="evenodd" d="M12 24C18.6274 24 24 18.6274 24 12C24 5.37258 18.6274 0 12 0C5.37258 0 0 5.37258 0 12C0 18.6274 5.37258 24 12 24ZM14.3631 6.02383C15.8208 6.08975 17.2221 6.61307 18.3722 7.52108C19.7168 10.0955 20.4456 12.9529 20.5 15.8637C20.4873 15.8478 20.4362 15.9022 20.342 16.0026C19.9151 16.4576 18.6028 17.856 15.9699 17.9152C15.9699 17.9152 15.4257 17.2804 15.0394 16.7266C16.9179 16.1702 17.6202 15.0579 17.6202 15.0579C17.0915 15.3799 16.5457 15.6723 15.9852 15.9337C15.3063 16.2177 14.6004 16.4308 13.8785 16.5695C12.6339 16.7697 11.3658 16.7697 10.1211 16.5695C9.39696 16.44 8.69004 16.2263 8.01441 15.9327C7.72772 15.7925 7.38314 15.6484 7.03318 15.5021C6.9974 15.4872 6.96155 15.4722 6.92571 15.4572C6.91185 15.4572 6.89818 15.4539 6.88579 15.4476C6.87339 15.4414 6.86261 15.4323 6.8543 15.4211V15.4138C6.84578 15.4029 6.83496 15.3939 6.82261 15.3877C6.81026 15.3814 6.79669 15.378 6.78288 15.3777H6.71147C6.58529 15.2908 6.45413 15.2115 6.31869 15.1402C6.31869 15.1402 7.02105 16.2526 8.82352 16.8086C8.3497 17.3667 7.88122 18 7.88122 18C4.67047 17.9217 3.5 15.854 3.5 15.854C3.55116 12.9444 4.27469 10.0873 5.61277 7.51097C6.77794 6.5858 8.20288 6.05737 9.68334 6.00144L9.84152 6.16211C7.25707 6.79718 6.0841 7.98863 6.0841 7.98863C6.0841 7.98863 6.39796 7.83049 6.94428 7.58931C8.51287 6.95352 9.68334 6.71595 10.2336 6.71595H10.4675C11.4295 6.59733 12.4023 6.59733 13.3644 6.71595C14.8941 6.89383 16.379 7.35163 17.7466 8.06697C17.7466 8.06697 16.5726 6.95352 14.1463 6.24045L14.3631 6.02383ZM14.3695 6.01733L14.3631 6.02383H14.3513L14.3695 6.01733ZM14.4074 6.00361L14.3695 6.01733L14.3827 6.00361H14.4074ZM14.4074 6.00361L14.4181 6V6.00361H14.4074ZM13.5383 13.9436C13.8215 14.2399 14.2075 14.4132 14.6148 14.4271C15.017 14.405 15.3954 14.2279 15.6724 13.9322C15.9493 13.6366 16.1037 13.2448 16.1037 12.8376C16.1037 12.4304 15.9493 12.0387 15.6724 11.743C15.3954 11.4473 15.017 11.2702 14.6148 11.2481V11.2517C14.2075 11.2656 13.8215 11.439 13.5383 11.7352C13.255 12.0314 13.0967 12.4274 13.0967 12.8394C13.0967 13.2515 13.255 13.6474 13.5383 13.9436ZM9.29338 14.4271C8.88651 14.4129 8.50095 14.2396 8.21795 13.9436C7.93469 13.6474 7.77635 13.2515 7.77635 12.8394C7.77635 12.4274 7.93469 12.0314 8.21795 11.7352C8.50121 11.439 8.88722 11.2656 9.2945 11.2517L9.29914 11.2481C9.70015 11.2726 10.0767 11.4512 10.3518 11.7472C10.6269 12.0433 10.7797 12.4345 10.7788 12.8407C10.778 13.2469 10.6237 13.6374 10.3474 13.9324C10.0713 14.2271 9.69424 14.4041 9.29338 14.4271Z" fill="#3b3b3b"/>
</svg>
