<svg fill="none" width="512" height="512" viewBox="0 0 512 512" xmlns="http://www.w3.org/2000/svg"><g><rect fill="none" id="canvas_background" height="402" width="582" y="-1" x="-1"/></g><g><circle r="256" id="ellipse" fill="#3b3b3b" cy="255.117242" cx="254.234483"/><path stroke="null" id="logo" fill="#FFFFFF" d="m395.038065,150.938959c0,0 -40.097793,-31.428 -87.540827,-35.040414l-4.214483,8.549379c42.86731,10.476 62.494758,25.527724 83.085517,43.951034c-35.401655,-18.062069 -70.442068,-35.040414 -131.371447,-35.040414s-95.969792,16.978345 -131.371447,35.040414c20.590758,-18.42331 43.951034,-35.160827 83.085517,-43.951034l-4.214483,-8.549379c-49.730896,4.696138 -87.540827,35.040414 -87.540827,35.040414s-44.793931,65.023448 -52.500413,192.662067c45.155172,52.139172 113.791034,52.500413 113.791034,52.500413l14.329241,-19.145793c-24.323586,-8.428965 -51.898344,-23.601103 -75.619861,-50.935034c28.297241,21.433655 71.164551,43.83062 140.161654,43.83062s111.743999,-22.276552 140.161654,-43.83062c-23.721517,27.333931 -51.296275,42.506069 -75.619861,50.935034l14.329241,19.145793c0,0 68.635862,-0.361241 113.791034,-52.500413c-7.94731,-127.63862 -52.741241,-192.662067 -52.741241,-192.662067zm-197.117378,157.621654c-16.978345,0 -30.705517,-15.653793 -30.705517,-35.040414s13.727172,-35.040414 30.705517,-35.040414c16.978345,0 30.705517,15.653793 30.705517,35.040414s-13.727172,35.040414 -30.705517,35.040414zm113.911447,0c-16.978345,0 -30.705517,-15.653793 -30.705517,-35.040414s13.727172,-35.040414 30.705517,-35.040414s30.705517,15.653793 30.705517,35.040414s-13.847586,35.040414 -30.705517,35.040414z"/></g></svg>