<svg fill="none" height="24" viewBox="0 0 24 24" width="24" xmlns="http://www.w3.org/2000/svg"><circle fill="#fff" cx="12" cy="12" r="11"/><path d="m12 .00610352c-6.62742 0-12 5.37257648-12 11.99999648 0 5.9895 4.3882 10.954 10.125 11.8542v-8.3854h-3.04688v-3.4688h3.04688v-2.64375c0-3.0075 1.7916-4.66875 4.5326-4.66875 1.3125 0 2.6862.23438 2.6862.23438v2.95312h-1.5132c-1.4906 0-1.9556.92508-1.9556 1.875v2.25h3.3281l-.532 3.4688h-2.7961v8.3854c5.7368-.9002 10.125-5.8647 10.125-11.8542 0-6.62742-5.3726-11.99999648-12-11.99999648z" fill="#3b3b3b"/></svg>