<svg height="214" viewBox="0 0 212 214" width="212" xmlns="http://www.w3.org/2000/svg"><g fill="none" fill-rule="evenodd"><circle cx="106" cy="48" fill="#bdbdbd" r="48"/><circle cx="106" cy="164" fill="#868686" r="48"/><circle cx="164" cy="106" fill="#9f9f9f" r="48"/><circle cx="48" cy="106" fill="#797979" r="48"/><path d="m94.6502972 94.6502972c-17.3930786-4.2167439-31.0838505-17.9075158-35.3005944-35.3005944 17.3930786 4.2167439 31.0838505 17.9075158 35.3005944 35.3005944z" fill="#6f6f6f"/><path d="m59.3497028 152.650297c4.2167439-17.393078 17.9075158-31.08385 35.3005944-35.300594-4.2167439 17.393078-17.9075158 31.08385-35.3005944 35.300594z" fill="#616161"/><path d="m117.349703 117.349703c17.393078 4.216744 31.08385 17.907516 35.300594 35.300594-17.393078-4.216744-31.08385-17.907516-35.300594-35.300594z" fill="#6e6e6e"/><path d="m152.650297 59.3497028c-4.216744 17.3930786-17.907516 31.0838505-35.300594 35.3005944 4.216744-17.3930786 17.907516-31.0838505 35.300594-35.3005944z" fill="#868686"/></g></svg>