<svg fill="none" height="40" viewBox="0 0 113 40" width="113" xmlns="http://www.w3.org/2000/svg" xmlns:xlink="http://www.w3.org/1999/xlink"><clipPath id="a"><path d="m.079102 0h112.637v40h-112.637z"/></clipPath><g clip-path="url(#a)" fill="#c0c0c0"><path d="m63.5528 20.0766c.009 1.2787-.2051 2.5492-.6329 3.7542-.4013 1.1368-1.0228 2.1832-1.8288 3.0796-.8244.8984-1.8309 1.6108-2.9523 2.0896-2.5745 1.0328-5.4483 1.0328-8.0229 0-1.1253-.4826-2.1363-1.197-2.9671-2.0965-.8127-.8911-1.435-1.9387-1.8289-3.0786-.8249-2.4308-.8249-5.0658 0-7.4965.3912-1.1462 1.0137-2.1999 1.8289-3.0956.8317-.8967 1.8426-1.6086 2.9671-2.0895 2.5717-1.0319 5.4423-1.0319 8.014 0 1.1222.4805 2.1291 1.1949 2.9532 2.0955.8117.9008 1.4361 1.9541 1.8368 3.0985.4248 1.2007.6389 2.4657.6329 3.7393zm-9.4209 6.61c.8289.0219 1.6517-.1484 2.4039-.4976.6707-.3272 1.2575-.8038 1.7155-1.393.4784-.6244.8287-1.3372 1.0308-2.0975.4507-1.7145.4507-3.5164 0-5.2308-.2013-.7595-.5502-1.4719-1.0269-2.0966-.4579-.5892-1.0447-1.0657-1.7154-1.393-1.5321-.6757-3.2778-.6757-4.8099 0-.6707.3273-1.2575.8038-1.7155 1.393-.4766.6247-.8255 1.3371-1.0268 2.0966-.4508 1.7144-.4508 3.5163 0 5.2308.2031.7544.5523 1.4617 1.0278 2.0816.4576.59 1.0449 1.0667 1.7165 1.393.7509.3542 1.5738.5293 2.4039.5115zm11.8955 2.7552v-18.7284h3.9373v8.999l6.4965-8.999h4.5562l-6.8905 9.2538 7.3692 9.4776h-4.8657l-6.6667-9.196v9.196zm17.0149-18.7284h11.2548v3.1214h-7.3165v4.5274h6.9752v3.1214h-6.9752v4.8378h7.3971v3.1204h-11.3344zm25.2737 0h4.279l-6.156 9.3085 6.276 9.4199h-4.303l-4.043-6.3841-4.045 6.3841h-4.3145l6.2685-9.4209-6.1501-9.3095h4.2791l3.965 6.3304z"/><path d="m17.9667 17.8875c1.41.3452 2.8825.3452 4.2925 0 .8025-3.2663 3.3527-5.8165 6.6189-6.619.8895-3.63796-.5606-7.44728-3.6441-9.57287-3.0836-2.125586-7.1596-2.125586-10.2431 0-3.0835 2.12559-4.5336 5.93491-3.6441 9.57287 3.2666.8022 5.8172 3.3525 6.6199 6.619z"/><path d="m22.2592 22.178c-1.41-.3453-2.8825-.3453-4.2925 0-.8031 3.2659-3.3531 5.8158-6.6189 6.6189-.8895 3.638.5606 7.4474 3.6441 9.5729 3.0835 2.1256 7.1595 2.1256 10.2431 0 3.0835-2.1255 4.5336-5.9349 3.6441-9.5729-3.2666-.8021-5.8172-3.3524-6.6199-6.6189z"/><path d="m31.0234 11.0088c-.7229-.0001-1.4432.0868-2.1453.2587-.8022 3.2658-3.3521 5.8157-6.6179 6.6179-.3453 1.4101-.3453 2.8826 0 4.2926 3.2658.8028 5.8156 3.3529 6.6179 6.6189 3.3829.8263 6.9393-.3677 9.1383-3.0678s2.6481-6.4246 1.154-9.5701-4.6647-5.1506-8.147-5.1522z"/><path d="m17.9667 22.1779c.3452-1.41.3452-2.8825 0-4.2925-3.266-.8023-5.8161-3.3521-6.6189-6.6179-3.63805-.8895-7.44737.5606-9.57296 3.6441-2.125588 3.0836-2.125588 7.1596 0 10.2431 2.12559 3.0835 5.93491 4.5336 9.57296 3.6441.802-3.2668 3.3522-5.8178 6.6189-6.6209z"/><g fill-opacity=".35"><path d="m22.2592 17.8875c3.2659-.8031 5.8158-3.3531 6.6189-6.6189-3.2662.8024-5.8164 3.3526-6.6189 6.6189z"/><path d="m22.2592 22.1781c.8025 3.2662 3.3527 5.8164 6.6189 6.6189-.8031-3.2659-3.353-5.8158-6.6189-6.6189z"/><path d="m17.9667 17.8875c-.8031-3.2659-3.3531-5.8158-6.6189-6.6189.8031 3.2658 3.353 5.8158 6.6189 6.6189z"/><path d="m17.9667 22.1781c-3.2659.8031-5.8158 3.353-6.6189 6.6189 3.2658-.8031 5.8158-3.353 6.6189-6.6189z"/></g></g></svg>