<svg fill="none" height="40" viewBox="0 0 102 40" width="102" xmlns="http://www.w3.org/2000/svg" xmlns:xlink="http://www.w3.org/1999/xlink"><clipPath id="a"><path d="m0 0h102v40h-102z"/></clipPath><g clip-path="url(#a)" fill="#c4c4c4"><path d="m22.0118 32.9588h9.5299v7.0741h-18.137v-39.456484h18.137v6.952944h-9.5299v9.26944h8.9144v6.7082h-8.9144z"/><path d="m45.1267 23.8717v16.16h-8.6071v-39.455284h15.3083c5.0822 0 7.6239 2.683534 7.6239 8.049414v4.57407c0 3.253-1.1683 5.3259-3.5048 6.22 2.0483.733 3.0754 2.4 3.0754 5v15.6118h-8.6071v-14.94c0-.8129-.3902-1.22-1.1683-1.22zm0-17.50117v11.52587h4.5497c.3273 0 .6037-.1223.8302-.3659.2242-.2435.3368-.527.3368-.8541v-9.08704c0-.32471-.1126-.60941-.3368-.85412-.2253-.24353-.5029-.36588-.8302-.36588h-4.5497z"/><path d="m80.784-.032959c5.081 0 7.6239 2.683529 7.6239 8.049409v32.01525h-8.6071v-13.2329h-6.209v13.2329h-8.6071v-32.01525c0-5.36706 2.5405-8.049409 7.6239-8.049409zm-7.1922 20.245859h6.209v-13.23292c0-.3247-.1151-.61059-.3381-.85412-.2265-.2447-.5028-.36705-.8302-.36705h-3.8736c-.3286 0-.6049.12235-.8291.36705-.2265.24353-.338.52942-.338.85412z"/></g></svg>