<svg height="1373" viewBox="0 0 1263 1373" width="1263" xmlns="http://www.w3.org/2000/svg" xmlns:xlink="http://www.w3.org/1999/xlink"><radialGradient id="a" cx="49.530198%" cy="30.774593%" gradientTransform="matrix(0 .919883 -1 0 .803048 -.147874)" r="70.291778%"><stop offset="0" stop-color="#fff" stop-opacity=".133825"/><stop offset="1" stop-color="#fff"/></radialGradient><path d="m380.921712 71.5555556h92.156576c2.525377 5.9771591 3.921712 12.547736 3.921712 19.4444444 0 2.8392684-.236657 5.6232627-.69132 8.3333333h-15.975347-61.663994-8.588132c3.794645 16.8546067 18.854871 29.4444447 36.855612 29.4444447 14.881925 0 27.754014-8.605134 33.911976-21.111111h13.30611c-6.86394 19.419873-25.384591 33.333333-47.154905 33.333333-27.614237 0-50-22.385763-50-50 0-6.8967084 1.396335-13.4672853 3.921719-19.4444455zm4.498005-8.3333334c8.96957-13.3998416 24.244638-22.2222222 41.580283-22.2222222s32.610713 8.8223806 41.580283 22.2222222zm17.196239 44.4444448 48.64172.000001c-5.303228 7.753768-14.21782 12.842111-24.320857 12.842111-10.103038 0-19.017629-5.088343-24.320857-12.842111zm-12.40287-16.1111114h8.524136c.937285-2.9014045 3.66051-5 6.873889-5s5.936604 2.0985955 6.87389 5h8.524135c-1.078288-7.5384315-7.561421-13.3333334-15.398025-13.3333334s-14.319737 5.7949019-15.398025 13.3333334zm42.777778 0h8.524135c.937286-2.9014045 3.660511-5 6.87389-5s5.936604 2.0985955 6.873889 5h8.524136c-1.078288-7.5384315-7.561421-13.3333334-15.398025-13.3333334s-14.319737 5.7949019-15.398025 13.3333334zm-229.069152 150.0000004h92.156576c2.525377 5.977159 3.921712 12.547736 3.921712 19.444444 0 2.839268-.236657 5.623263-.69132 8.333333h-15.975347-61.663994-8.588132c3.794645 16.854607 18.854871 29.444445 36.855612 29.444445 14.881925 0 27.754014-8.605134 33.911976-21.111111h13.30611c-6.86394 19.419873-25.384591 33.333333-47.154905 33.333333-27.614237 0-50-22.385763-50-50 0-6.896708 1.396335-13.467285 3.921719-19.444446zm4.498005-8.333334c8.96957-13.399841 24.244638-22.222222 41.580283-22.222222s32.610713 8.822381 41.580283 22.222222zm17.196239 44.444445 48.64172.000001c-5.303228 7.753768-14.21782 12.842111-24.320857 12.842111-10.103038 0-19.017629-5.088343-24.320857-12.842111zm-12.40287-16.111111h8.524136c.937285-2.901405 3.66051-5 6.873889-5s5.936604 2.098595 6.87389 5h8.524135c-1.078288-7.538432-7.561421-13.333334-15.398025-13.333334s-14.319737 5.794902-15.398025 13.333334zm42.777778 0h8.524135c.937286-2.901405 3.660511-5 6.87389-5s5.936604 2.098595 6.873889 5h8.524136c-1.078288-7.538432-7.561421-13.333334-15.398025-13.333334s-14.319737 5.794902-15.398025 13.333334zm-252.0691522 106h92.1565764c2.5253772 5.977159 3.9217118 12.547736 3.9217118 19.444444 0 2.839268-.2366566 5.623263-.6913203 8.333333h-15.9753464-61.663994-8.588132c3.7946447 16.854607 18.8548711 29.444445 36.8556116 29.444445 14.8819251 0 27.7540136-8.605134 33.9119765-21.111111h13.3061095c-6.8639402 19.419873-25.3845911 33.333333-47.1549049 33.333333-27.6142375 0-50-22.385763-50-50 0-6.896708 1.39633461-13.467285 3.92171855-19.444446zm4.49800507-8.333334c8.96957053-13.399841 24.24463813-22.222222 41.58028313-22.222222s32.6107126 8.822381 41.5802831 22.222222zm17.19623903 44.444445 48.6417197.000001c-5.3032277 7.753768-14.2178191 12.842111-24.3208567 12.842111-10.1030375 0-19.017629-5.088343-24.3208567-12.842111zm-12.4028695-16.111111h8.5241351c.9372856-2.901405 3.660511-5 6.8738896-5 3.2133787 0 5.9366041 2.098595 6.8738896 5h8.5241352c-1.0782882-7.538432-7.5614205-13.333334-15.3980248-13.333334-7.8366042 0-14.3197366 5.794902-15.3980247 13.333334zm42.7777777 0h8.5241352c.9372855-2.901405 3.6605109-5 6.8738896-5 3.2133786 0 5.936604 2.098595 6.8738896 5h8.5241351c-1.0782881-7.538432-7.5614205-13.333334-15.3980247-13.333334-7.8366043 0-14.3197366 5.794902-15.3980248 13.333334zm481.9308479-101h92.156576c2.525377 5.977159 3.921712 12.547736 3.921712 19.444444 0 2.839268-.236657 5.623263-.69132 8.333333h-15.975347-61.663994-8.588132c3.794645 16.854607 18.854871 29.444445 36.855612 29.444445 14.881925 0 27.754014-8.605134 33.911976-21.111111h13.30611c-6.86394 19.419873-25.384591 33.333333-47.154905 33.333333-27.614237 0-50-22.385763-50-50 0-6.896708 1.396335-13.467285 3.921719-19.444446zm4.498005-8.333334c8.96957-13.399841 24.244638-22.222222 41.580283-22.222222s32.610713 8.822381 41.580283 22.222222zm17.196239 44.444445 48.64172.000001c-5.303228 7.753768-14.21782 12.842111-24.320857 12.842111-10.103038 0-19.017629-5.088343-24.320857-12.842111zm-12.40287-16.111111h8.524136c.937285-2.901405 3.66051-5 6.873889-5s5.936604 2.098595 6.87389 5h8.524135c-1.078288-7.538432-7.561421-13.333334-15.398025-13.333334s-14.319737 5.794902-15.398025 13.333334zm42.777778 0h8.524135c.937286-2.901405 3.660511-5 6.87389-5s5.936604 2.098595 6.873889 5h8.524136c-1.078288-7.538432-7.561421-13.333334-15.398025-13.333334s-14.319737 5.794902-15.398025 13.333334zm473.930846-176h92.15658c2.52538 5.977159 3.92171 12.547736 3.92171 19.444444 0 2.839268-.23666 5.623263-.69132 8.333333h-15.97535-61.66399-8.58813c3.79464 16.854607 18.85487 29.444445 36.85561 29.444445 14.88192 0 27.75401-8.605134 33.91198-21.111111h13.3061c-6.86394 19.419873-25.38459 33.333333-47.1549 33.333333-27.61424 0-50-22.385763-50-50 0-6.896708 1.39633-13.467285 3.92172-19.444446zm4.49801-8.333334c8.96957-13.399841 24.24463-22.222222 41.58028-22.222222s32.61071 8.822381 41.58028 22.222222zm17.19624 44.444445 48.64172.000001c-5.30323 7.753768-14.21782 12.842111-24.32086 12.842111s-19.01763-5.088343-24.32086-12.842111zm-12.40287-16.111111h8.52413c.93729-2.901405 3.66051-5 6.87389-5s5.93661 2.098595 6.87389 5h8.52414c-1.07829-7.538432-7.56142-13.333334-15.39803-13.333334-7.8366 0-14.31974 5.794902-15.39802 13.333334zm42.77777 0h8.52414c.93728-2.901405 3.66051-5 6.87389-5s5.9366 2.098595 6.87389 5h8.52413c-1.07828-7.538432-7.56142-13.333334-15.39802-13.333334-7.83661 0-14.31974 5.794902-15.39803 13.333334zm-34.06915 378h92.15658c2.52538 5.977159 3.92171 12.547736 3.92171 19.444444 0 2.839268-.23666 5.623263-.69132 8.333333h-15.97535-61.66399-8.58813c3.79464 16.854607 18.85487 29.444445 36.85561 29.444445 14.88192 0 27.75401-8.605134 33.91198-21.111111h13.3061c-6.86394 19.419873-25.38459 33.333333-47.1549 33.333333-27.61424 0-50-22.385763-50-50 0-6.896708 1.39633-13.467285 3.92172-19.444446zm4.49801-8.333334c8.96957-13.399841 24.24463-22.222222 41.58028-22.222222s32.61071 8.822381 41.58028 22.222222zm17.19624 44.444445 48.64172.000001c-5.30323 7.753768-14.21782 12.842111-24.32086 12.842111s-19.01763-5.088343-24.32086-12.842111zm-12.40287-16.111111h8.52413c.93729-2.901405 3.66051-5 6.87389-5s5.93661 2.098595 6.87389 5h8.52414c-1.07829-7.538432-7.56142-13.333334-15.39803-13.333334-7.8366 0-14.31974 5.794902-15.39802 13.333334zm42.77777 0h8.52414c.93728-2.901405 3.66051-5 6.87389-5s5.9366 2.098595 6.87389 5h8.52413c-1.07828-7.538432-7.56142-13.333334-15.39802-13.333334-7.83661 0-14.31974 5.794902-15.39803 13.333334zm-205.069148-173h92.156578c2.52538 5.977159 3.92171 12.547736 3.92171 19.444444 0 2.839268-.23666 5.623263-.69132 8.333333h-15.97535-61.663991-8.588132c3.794645 16.854607 18.854871 29.444445 36.855612 29.444445 14.881925 0 27.754011-8.605134 33.911981-21.111111h13.3061c-6.86394 19.419873-25.384586 33.333333-47.1549 33.333333-27.614237 0-50-22.385763-50-50 0-6.896708 1.396335-13.467285 3.921719-19.444446zm4.498005-8.333334c8.96957-13.399841 24.244638-22.222222 41.580283-22.222222s32.61071 8.822381 41.58028 22.222222zm17.196239 44.444445 48.64172.000001c-5.303228 7.753768-14.21782 12.842111-24.320857 12.842111-10.103038 0-19.017629-5.088343-24.320857-12.842111zm-12.40287-16.111111h8.524136c.937285-2.901405 3.66051-5 6.873889-5s5.936604 2.098595 6.87389 5h8.524135c-1.078288-7.538432-7.561421-13.333334-15.398025-13.333334s-14.319737 5.794902-15.398025 13.333334zm42.777778 0h8.524135c.937286-2.901405 3.660511-5 6.87389-5s5.936601 2.098595 6.873891 5h8.52413c-1.07828-7.538432-7.56142-13.333334-15.398021-13.333334-7.836604 0-14.319737 5.794902-15.398025 13.333334zm185.930846 8h92.15658c2.52538 5.977159 3.92171 12.547736 3.92171 19.444444 0 2.839268-.23666 5.623263-.69132 8.333333h-15.97535-61.66399-8.58813c3.79464 16.854607 18.85487 29.444445 36.85561 29.444445 14.88192 0 27.75401-8.605134 33.91198-21.111111h13.3061c-6.86394 19.419873-25.38459 33.333333-47.1549 33.333333-27.61424 0-50-22.385763-50-50 0-6.896708 1.39633-13.467285 3.92172-19.444446zm4.49801-8.333334c8.96957-13.399841 24.24463-22.222222 41.58028-22.222222s32.61071 8.822381 41.58028 22.222222zm17.19624 44.444445 48.64172.000001c-5.30323 7.753768-14.21782 12.842111-24.32086 12.842111s-19.01763-5.088343-24.32086-12.842111zm-12.40287-16.111111h8.52413c.93729-2.901405 3.66051-5 6.87389-5s5.93661 2.098595 6.87389 5h8.52414c-1.07829-7.538432-7.56142-13.333334-15.39803-13.333334-7.8366 0-14.31974 5.794902-15.39802 13.333334zm42.77777 0h8.52414c.93728-2.901405 3.66051-5 6.87389-5s5.9366 2.098595 6.87389 5h8.52413c-1.07828-7.538432-7.56142-13.333334-15.39802-13.333334-7.83661 0-14.31974 5.794902-15.39803 13.333334zm-427.069148-232h92.156576c2.525377 5.977159 3.921712 12.547736 3.921712 19.444444 0 2.839268-.236657 5.623263-.69132 8.333333h-15.975347-61.663994-8.588132c3.794645 16.854607 18.854871 29.444445 36.855612 29.444445 14.881925 0 27.754014-8.605134 33.911976-21.111111h13.30611c-6.86394 19.419873-25.384591 33.333333-47.154905 33.333333-27.614237 0-50-22.385763-50-50 0-6.896708 1.396335-13.467285 3.921719-19.444446zm4.498005-8.333334c8.96957-13.399841 24.244638-22.222222 41.580283-22.222222s32.610713 8.822381 41.580283 22.222222zm17.196239 44.444445 48.64172.000001c-5.303228 7.753768-14.21782 12.842111-24.320857 12.842111-10.103038 0-19.017629-5.088343-24.320857-12.842111zm-12.40287-16.111111h8.524136c.937285-2.901405 3.66051-5 6.873889-5s5.936604 2.098595 6.87389 5h8.524135c-1.078288-7.538432-7.561421-13.333334-15.398025-13.333334s-14.319737 5.794902-15.398025 13.333334zm42.777778 0h8.524135c.937286-2.901405 3.660511-5 6.87389-5s5.936604 2.098595 6.873889 5h8.524136c-1.078288-7.538432-7.561421-13.333334-15.398025-13.333334s-14.319737 5.794902-15.398025 13.333334zm-536.069152 247h92.156576c2.525377 5.977159 3.921712 12.547736 3.921712 19.444444 0 2.839268-.236657 5.623263-.69132 8.333333h-15.975347-61.663994-8.588132c3.794645 16.854607 18.854871 29.444445 36.855612 29.444445 14.881925 0 27.754014-8.605134 33.911976-21.111111h13.30611c-6.86394 19.419873-25.384591 33.333333-47.154905 33.333333-27.614237 0-50-22.385763-50-50 0-6.896708 1.396335-13.467285 3.921719-19.444446zm4.498005-8.333334c8.96957-13.399841 24.244638-22.222222 41.580283-22.222222s32.610713 8.822381 41.580283 22.222222zm17.196239 44.444445 48.64172.000001c-5.303228 7.753768-14.21782 12.842111-24.320857 12.842111-10.103038 0-19.017629-5.088343-24.320857-12.842111zm-12.40287-16.111111h8.524136c.937285-2.901405 3.66051-5 6.873889-5s5.936604 2.098595 6.87389 5h8.524135c-1.078288-7.538432-7.561421-13.333334-15.398025-13.333334s-14.319737 5.794902-15.398025 13.333334zm42.777778 0h8.524135c.937286-2.901405 3.660511-5 6.87389-5s5.936604 2.098595 6.873889 5h8.524136c-1.078288-7.538432-7.561421-13.333334-15.398025-13.333334s-14.319737 5.794902-15.398025 13.333334zm-4.069152-154h92.156576c2.525377 5.977159 3.921712 12.547736 3.921712 19.444444 0 2.839268-.236657 5.623263-.69132 8.333333h-15.975347-61.663994-8.588132c3.794645 16.854607 18.854871 29.444445 36.855612 29.444445 14.881925 0 27.754014-8.605134 33.911976-21.111111h13.30611c-6.86394 19.419873-25.384591 33.333333-47.154905 33.333333-27.614237 0-50-22.385763-50-50 0-6.896708 1.396335-13.467285 3.921719-19.444446zm4.498005-8.333334c8.96957-13.399841 24.244638-22.222222 41.580283-22.222222s32.610713 8.822381 41.580283 22.222222zm17.196239 44.444445 48.64172.000001c-5.303228 7.753768-14.21782 12.842111-24.320857 12.842111-10.103038 0-19.017629-5.088343-24.320857-12.842111zm-12.40287-16.111111h8.524136c.937285-2.901405 3.66051-5 6.873889-5s5.936604 2.098595 6.87389 5h8.524135c-1.078288-7.538432-7.561421-13.333334-15.398025-13.333334s-14.319737 5.794902-15.398025 13.333334zm42.777778 0h8.524135c.937286-2.901405 3.660511-5 6.87389-5s5.936604 2.098595 6.873889 5h8.524136c-1.078288-7.538432-7.561421-13.333334-15.398025-13.333334s-14.319737 5.794902-15.398025 13.333334zm-323.0691522-218h92.1565762c2.525377 5.977159 3.921712 12.547736 3.921712 19.444444 0 2.839268-.236657 5.623263-.69132 8.333333h-15.975347-61.663994-8.5881317c3.7946447 16.854607 18.8548707 29.444445 36.8556117 29.444445 14.881925 0 27.754014-8.605134 33.911976-21.111111h13.30611c-6.86394 19.419873-25.384591 33.333333-47.154905 33.333333-27.614237 0-50-22.385763-50-50 0-6.896708 1.3963346-13.467285 3.9217186-19.444446zm4.4980051-8.333334c8.9695705-13.399841 24.2446381-22.222222 41.5802831-22.222222s32.610713 8.822381 41.580283 22.222222zm17.1962391 44.444445 48.64172.000001c-5.303228 7.753768-14.21782 12.842111-24.320857 12.842111-10.103038 0-19.017629-5.088343-24.320857-12.842111zm-12.4028696-16.111111h8.5241356c.937285-2.901405 3.66051-5 6.873889-5s5.936604 2.098595 6.87389 5h8.524135c-1.078288-7.538432-7.561421-13.333334-15.398025-13.333334s-14.3197365 5.794902-15.3980246 13.333334zm42.7777776 0h8.524135c.937286-2.901405 3.660511-5 6.87389-5s5.936604 2.098595 6.873889 5h8.524136c-1.078288-7.538432-7.561421-13.333334-15.398025-13.333334s-14.319737 5.794902-15.398025 13.333334zm-15.069152 332h92.156576c2.525377 5.977159 3.921712 12.547736 3.921712 19.444444 0 2.839268-.236657 5.623263-.69132 8.333333h-15.975347-61.663994-8.588132c3.794645 16.854607 18.854871 29.444445 36.855612 29.444445 14.881925 0 27.754014-8.605134 33.911976-21.111111h13.30611c-6.86394 19.419873-25.384591 33.333333-47.154905 33.333333-27.614237 0-50-22.385763-50-50 0-6.896708 1.396335-13.467285 3.921719-19.444446zm4.498005-8.333334c8.96957-13.399841 24.244638-22.222222 41.580283-22.222222s32.610713 8.822381 41.580283 22.222222zm17.196239 44.444445 48.64172.000001c-5.303228 7.753768-14.21782 12.842111-24.320857 12.842111-10.103038 0-19.017629-5.088343-24.320857-12.842111zm-12.40287-16.111111h8.524136c.937285-2.901405 3.66051-5 6.873889-5s5.936604 2.098595 6.87389 5h8.524135c-1.078288-7.538432-7.561421-13.333334-15.398025-13.333334s-14.319737 5.794902-15.398025 13.333334zm42.777778 0h8.524135c.937286-2.901405 3.660511-5 6.87389-5s5.936604 2.098595 6.873889 5h8.524136c-1.078288-7.538432-7.561421-13.333334-15.398025-13.333334s-14.319737 5.794902-15.398025 13.333334zm119.930848 105h92.156576c2.525377 5.977159 3.921712 12.547736 3.921712 19.444444 0 2.839268-.236657 5.623263-.69132 8.333333h-15.975347-61.663994-8.588132c3.794645 16.854607 18.854871 29.444445 36.855612 29.444445 14.881925 0 27.754014-8.605134 33.911976-21.111111h13.30611c-6.86394 19.419873-25.384591 33.333333-47.154905 33.333333-27.614237 0-50-22.385763-50-50 0-6.896708 1.396335-13.467285 3.921719-19.444446zm4.498005-8.333334c8.96957-13.399841 24.244638-22.222222 41.580283-22.222222s32.610713 8.822381 41.580283 22.222222zm17.196239 44.444445 48.64172.000001c-5.303228 7.753768-14.21782 12.842111-24.320857 12.842111-10.103038 0-19.017629-5.088343-24.320857-12.842111zm-12.40287-16.111111h8.524136c.937285-2.901405 3.66051-5 6.873889-5s5.936604 2.098595 6.87389 5h8.524135c-1.078288-7.538432-7.561421-13.333334-15.398025-13.333334s-14.319737 5.794902-15.398025 13.333334zm42.777778 0h8.524135c.937286-2.901405 3.660511-5 6.87389-5s5.936604 2.098595 6.873889 5h8.524136c-1.078288-7.538432-7.561421-13.333334-15.398025-13.333334s-14.319737 5.794902-15.398025 13.333334zm495.930848-593.0000004h92.156576c2.525377 5.9771591 3.921712 12.547736 3.921712 19.4444444 0 2.8392684-.236657 5.6232627-.69132 8.3333333h-15.975347-61.663994-8.588132c3.794645 16.8546071 18.854871 29.4444445 36.855612 29.4444445 14.881925 0 27.754014-8.6051334 33.911976-21.1111111h13.30611c-6.86394 19.4198728-25.384591 33.3333333-47.154905 33.3333333-27.614237 0-50-22.3857625-50-50 0-6.8967084 1.396335-13.4672853 3.921719-19.4444455zm4.498005-8.3333334c8.96957-13.39984156 24.244638-22.2222222 41.580283-22.2222222s32.610713 8.82238064 41.580283 22.2222222zm17.196239 44.4444445 48.64172.0000013c-5.303228 7.7537678-14.21782 12.8421106-24.320857 12.8421106-10.103038 0-19.017629-5.0883428-24.320857-12.8421106zm-12.40287-16.1111111h8.524136c.937285-2.9014045 3.66051-5 6.873889-5s5.936604 2.0985955 6.87389 5h8.524135c-1.078288-7.5384315-7.561421-13.3333334-15.398025-13.3333334s-14.319737 5.7949019-15.398025 13.3333334zm42.777778 0h8.524135c.937286-2.9014045 3.660511-5 6.87389-5s5.936604 2.0985955 6.873889 5h8.524136c-1.078288-7.5384315-7.561421-13.3333334-15.398025-13.3333334s-14.319737 5.7949019-15.398025 13.3333334zm-175.069152 503.0000004h92.156576c2.525377 5.977159 3.921712 12.547736 3.921712 19.444444 0 2.839268-.236657 5.623263-.69132 8.333333h-15.975347-61.663994-8.588132c3.794645 16.854607 18.854871 29.444445 36.855612 29.444445 14.881925 0 27.754014-8.605134 33.911976-21.111111h13.30611c-6.86394 19.419873-25.384591 33.333333-47.154905 33.333333-27.614237 0-50-22.385763-50-50 0-6.896708 1.396335-13.467285 3.921719-19.444446zm4.498005-8.333334c8.96957-13.399841 24.244638-22.222222 41.580283-22.222222s32.610713 8.822381 41.580283 22.222222zm17.196239 44.444445 48.64172.000001c-5.303228 7.753768-14.21782 12.842111-24.320857 12.842111-10.103038 0-19.017629-5.088343-24.320857-12.842111zm-12.40287-16.111111h8.524136c.937285-2.901405 3.66051-5 6.873889-5s5.936604 2.098595 6.87389 5h8.524135c-1.078288-7.538432-7.561421-13.333334-15.398025-13.333334s-14.319737 5.794902-15.398025 13.333334zm42.777778 0h8.524135c.937286-2.901405 3.660511-5 6.87389-5s5.936604 2.098595 6.873889 5h8.524136c-1.078288-7.538432-7.561421-13.333334-15.398025-13.333334s-14.319737 5.794902-15.398025 13.333334zm-155.030008-476.2777782h46.078288c1.262689 2.9885792 1.960856 6.2738682 1.960856 9.7222222 0 1.419634-.118328 2.811631-.34566 4.166667h-7.987673-30.831997-4.294066c1.897322 8.427303 9.427435 14.722222 18.427805 14.722222 7.440963 0 13.877007-4.302567 16.955989-10.555556h6.653054c-3.43197 9.709937-12.692295 16.666667-23.577452 16.666667-13.807119 0-25-11.192881-25-25 0-3.448354.698167-6.733643 1.960859-9.7222228zm2.249002-4.1666667c4.484786-6.6999208 12.122319-11.1111111 20.790142-11.1111111s16.305356 4.4111903 20.790142 11.1111111zm8.59812 22.2222219 24.32086.000001c-2.651614 3.876884-7.10891 6.421055-12.160429 6.421055-5.051518 0-9.508814-2.544171-12.160428-6.421055zm-6.201435-8.055555h4.262068c.468643-1.450702 1.830255-2.5 3.436945-2.5 1.606689 0 2.968302 1.049298 3.436944 2.5h4.262068c-.539144-3.769216-3.78071-6.666667-7.699012-6.666667-3.918303 0-7.159869 2.897451-7.699013 6.666667zm21.388889 0h4.262068c.468642-1.450702 1.830255-2.5 3.436944-2.5 1.60669 0 2.968302 1.049298 3.436945 2.5h4.262068c-.539144-3.769216-3.78071-6.666667-7.699013-6.666667-3.918302 0-7.159868 2.897451-7.699012 6.666667zm-304.034576 84h46.078288c1.262689 2.988579 1.960856 6.273868 1.960856 9.722222 0 1.419634-.118328 2.811631-.34566 4.166667h-7.987673-30.831997-4.294066c1.897322 8.427303 9.427435 14.722222 18.427805 14.722222 7.440963 0 13.877007-4.302567 16.955989-10.555556h6.653054c-3.43197 9.709937-12.692295 16.666667-23.577452 16.666667-13.807119 0-25-11.192881-25-25 0-3.448354.698167-6.733643 1.960859-9.722223zm2.249002-4.166667c4.484786-6.699921 12.122319-11.111111 20.790142-11.111111s16.305356 4.41119 20.790142 11.111111zm8.59812 22.222222 24.32086.000001c-2.651614 3.876884-7.10891 6.421055-12.160429 6.421055-5.051518 0-9.508814-2.544171-12.160428-6.421055zm-6.201435-8.055555h4.262068c.468643-1.450702 1.830255-2.5 3.436945-2.5 1.606689 0 2.968302 1.049298 3.436944 2.5h4.262068c-.539144-3.769216-3.78071-6.666667-7.699012-6.666667-3.918303 0-7.159869 2.897451-7.699013 6.666667zm21.388889 0h4.262068c.468642-1.450702 1.830255-2.5 3.436944-2.5 1.60669 0 2.968302 1.049298 3.436945 2.5h4.262068c-.539144-3.769216-3.78071-6.666667-7.699013-6.666667-3.918302 0-7.159868 2.897451-7.699012 6.666667zm-140.034576-124.0000002h46.078288c1.262689 2.9885796 1.960856 6.273868 1.960856 9.7222222 0 1.4196342-.118328 2.8116314-.34566 4.1666667h-7.987673-30.831997-4.294066c1.897322 8.4273035 9.427435 14.7222223 18.427805 14.7222223 7.440963 0 13.877007-4.302567 16.955989-10.5555557h6.653054c-3.43197 9.7099367-12.692295 16.6666667-23.577452 16.6666667-13.807119 0-25-11.192881-25-25 0-3.4483542.698167-6.7336426 1.960859-9.7222228zm2.249002-4.1666667c4.484786-6.6999208 12.122319-11.1111111 20.790142-11.1111111s16.305356 4.4111903 20.790142 11.1111111zm8.59812 22.2222222 24.32086.0000007c-2.651614 3.8768839-7.10891 6.421055-12.160429 6.421055-5.051518 0-9.508814-2.5441711-12.160428-6.421055zm-6.201435-8.0555555h4.262068c.468643-1.4507023 1.830255-2.5 3.436945-2.5 1.606689 0 2.968302 1.0492977 3.436944 2.5h4.262068c-.539144-3.7692157-3.78071-6.6666667-7.699012-6.6666667-3.918303 0-7.159869 2.897451-7.699013 6.6666667zm21.388889 0h4.262068c.468642-1.4507023 1.830255-2.5 3.436944-2.5 1.60669 0 2.968302 1.0492977 3.436945 2.5h4.262068c-.539144-3.7692157-3.78071-6.6666667-7.699013-6.6666667-3.918302 0-7.159868 2.897451-7.699012 6.6666667zm-191.0345761 189.0000002h46.0782881c1.262689 2.988579 1.960856 6.273868 1.960856 9.722222 0 1.419634-.118328 2.811631-.34566 4.166667h-7.9876733-30.8319971-4.294066c1.8973224 8.427303 9.4274356 14.722222 18.4278059 14.722222 7.4409625 0 13.8770068-4.302567 16.9559882-10.555556h6.6530543c-3.43197 9.709937-12.6922951 16.666667-23.577452 16.666667-13.8071187 0-25-11.192881-25-25 0-3.448354.6981673-6.733643 1.9608593-9.722223zm2.2490025-4.166667c4.4847853-6.699921 12.1223191-11.111111 20.7901416-11.111111s16.3053563 4.41119 20.790142 11.111111zm8.5981195 22.222222 24.3208599.000001c-2.6516138 3.876884-7.1089096 6.421055-12.1604283 6.421055-5.0515188 0-9.5088145-2.544171-12.1604284-6.421055zm-6.2014347-8.055555h4.2620676c.4686427-1.450702 1.8302554-2.5 3.4369448-2.5 1.6066893 0 2.968302 1.049298 3.4369447 2.5h4.2620676c-.539144-3.769216-3.7807102-6.666667-7.6990123-6.666667-3.9183022 0-7.1598684 2.897451-7.6990124 6.666667zm21.3888889 0h4.2620676c.4686427-1.450702 1.8302554-2.5 3.4369447-2.5 1.6066894 0 2.9683021 1.049298 3.4369448 2.5h4.2620678c-.5391442-3.769216-3.7807104-6.666667-7.6990126-6.666667-3.9183021 0-7.1598683 2.897451-7.6990123 6.666667zm361.9654239 287h46.078288c1.262689 2.988579 1.960856 6.273868 1.960856 9.722222 0 1.419634-.118328 2.811631-.34566 4.166667h-7.987673-30.831997-4.294066c1.897322 8.427303 9.427435 14.722222 18.427805 14.722222 7.440963 0 13.877007-4.302567 16.955989-10.555556h6.653054c-3.43197 9.709937-12.692295 16.666667-23.577452 16.666667-13.807119 0-25-11.192881-25-25 0-3.448354.698167-6.733643 1.960859-9.722223zm2.249002-4.166667c4.484786-6.699921 12.122319-11.111111 20.790142-11.111111s16.305356 4.41119 20.790142 11.111111zm8.59812 22.222222 24.32086.000001c-2.651614 3.876884-7.10891 6.421055-12.160429 6.421055-5.051518 0-9.508814-2.544171-12.160428-6.421055zm-6.201435-8.055555h4.262068c.468643-1.450702 1.830255-2.5 3.436945-2.5 1.606689 0 2.968302 1.049298 3.436944 2.5h4.262068c-.539144-3.769216-3.78071-6.666667-7.699012-6.666667-3.918303 0-7.159869 2.897451-7.699013 6.666667zm21.388889 0h4.262068c.468642-1.450702 1.830255-2.5 3.436944-2.5 1.60669 0 2.968302 1.049298 3.436945 2.5h4.262068c-.539144-3.769216-3.78071-6.666667-7.699013-6.666667-3.918302 0-7.159868 2.897451-7.699012 6.666667zm-429.0345761-10h46.0782882c1.2626886 2.988579 1.9608559 6.273868 1.9608559 9.722222 0 1.419634-.1183283 2.811631-.3456602 4.166667h-7.9876731-30.8319971-4.294066c1.8973224 8.427303 9.4274356 14.722222 18.4278059 14.722222 7.4409625 0 13.8770068-4.302567 16.9559882-10.555556h6.6530547c-3.43197 9.709937-12.6922955 16.666667-23.5774524 16.666667-13.8071187 0-25-11.192881-25-25 0-3.448354.6981673-6.733643 1.9608593-9.722223zm2.2490025-4.166667c4.4847853-6.699921 12.1223191-11.111111 20.7901416-11.111111s16.3053563 4.41119 20.7901416 11.111111zm8.5981195 22.222222 24.3208599.000001c-2.6516138 3.876884-7.1089096 6.421055-12.1604283 6.421055-5.0515188 0-9.5088145-2.544171-12.1604284-6.421055zm-6.2014347-8.055555h4.2620676c.4686427-1.450702 1.8302554-2.5 3.4369448-2.5 1.6066893 0 2.968302 1.049298 3.4369447 2.5h4.2620676c-.539144-3.769216-3.7807102-6.666667-7.6990123-6.666667-3.9183022 0-7.1598684 2.897451-7.6990124 6.666667zm21.3888889 0h4.2620676c.4686427-1.450702 1.8302554-2.5 3.4369447-2.5 1.6066894 0 2.9683021 1.049298 3.4369448 2.5h4.2620676c-.539144-3.769216-3.7807102-6.666667-7.6990124-6.666667-3.9183021 0-7.1598683 2.897451-7.6990123 6.666667zm640.9654239-319h46.078288c1.262689 2.988579 1.960856 6.273868 1.960856 9.722222 0 1.419634-.118328 2.811631-.34566 4.166667h-7.987673-30.831997-4.294066c1.897322 8.427303 9.427435 14.722222 18.427805 14.722222 7.440963 0 13.877007-4.302567 16.955989-10.555556h6.653054c-3.43197 9.709937-12.692295 16.666667-23.577452 16.666667-13.807119 0-25-11.192881-25-25 0-3.448354.698167-6.733643 1.960859-9.722223zm2.249002-4.166667c4.484786-6.699921 12.122319-11.111111 20.790142-11.111111s16.305356 4.41119 20.790142 11.111111zm8.59812 22.222222 24.32086.000001c-2.651614 3.876884-7.10891 6.421055-12.160429 6.421055-5.051518 0-9.508814-2.544171-12.160428-6.421055zm-6.201435-8.055555h4.262068c.468643-1.450702 1.830255-2.5 3.436945-2.5 1.606689 0 2.968302 1.049298 3.436944 2.5h4.262068c-.539144-3.769216-3.78071-6.666667-7.699012-6.666667-3.918303 0-7.159869 2.897451-7.699013 6.666667zm21.388889 0h4.262068c.468642-1.450702 1.830255-2.5 3.436944-2.5 1.60669 0 2.968302 1.049298 3.436945 2.5h4.262068c-.539144-3.769216-3.78071-6.666667-7.699013-6.666667-3.918302 0-7.159868 2.897451-7.699012 6.666667zm-499.034576 80h46.078288c1.262689 2.988579 1.960856 6.273868 1.960856 9.722222 0 1.419634-.118328 2.811631-.34566 4.166667h-7.987673-30.831997-4.294066c1.897322 8.427303 9.427435 14.722222 18.427805 14.722222 7.440963 0 13.877007-4.302567 16.955989-10.555556h6.653054c-3.43197 9.709937-12.692295 16.666667-23.577452 16.666667-13.807119 0-25-11.192881-25-25 0-3.448354.698167-6.733643 1.960859-9.722223zm2.249002-4.166667c4.484786-6.699921 12.122319-11.111111 20.790142-11.111111s16.305356 4.41119 20.790142 11.111111zm8.59812 22.222222 24.32086.000001c-2.651614 3.876884-7.10891 6.421055-12.160429 6.421055-5.051518 0-9.508814-2.544171-12.160428-6.421055zm-6.201435-8.055555h4.262068c.468643-1.450702 1.830255-2.5 3.436945-2.5 1.606689 0 2.968302 1.049298 3.436944 2.5h4.262068c-.539144-3.769216-3.78071-6.666667-7.699012-6.666667-3.918303 0-7.159869 2.897451-7.699013 6.666667zm21.388889 0h4.262068c.468642-1.450702 1.830255-2.5 3.436944-2.5 1.60669 0 2.968302 1.049298 3.436945 2.5h4.262068c-.539144-3.769216-3.78071-6.666667-7.699013-6.666667-3.918302 0-7.159868 2.897451-7.699012 6.666667zm532.965424 64h46.078288c1.262689 2.988579 1.960856 6.273868 1.960856 9.722222 0 1.419634-.118328 2.811631-.34566 4.166667h-7.987673-30.831997-4.294066c1.897322 8.427303 9.427435 14.722222 18.427805 14.722222 7.440963 0 13.877007-4.302567 16.955989-10.555556h6.653054c-3.43197 9.709937-12.692295 16.666667-23.577452 16.666667-13.807119 0-25-11.192881-25-25 0-3.448354.698167-6.733643 1.960859-9.722223zm2.249002-4.166667c4.484786-6.699921 12.122319-11.111111 20.790142-11.111111s16.305356 4.41119 20.790142 11.111111zm8.59812 22.222222 24.32086.000001c-2.651614 3.876884-7.10891 6.421055-12.160429 6.421055-5.051518 0-9.508814-2.544171-12.160428-6.421055zm-6.201435-8.055555h4.262068c.468643-1.450702 1.830255-2.5 3.436945-2.5 1.606689 0 2.968302 1.049298 3.436944 2.5h4.262068c-.539144-3.769216-3.78071-6.666667-7.699012-6.666667-3.918303 0-7.159869 2.897451-7.699013 6.666667zm21.388889 0h4.262068c.468642-1.450702 1.830255-2.5 3.436944-2.5 1.60669 0 2.968302 1.049298 3.436945 2.5h4.262068c-.539144-3.769216-3.78071-6.666667-7.699013-6.666667-3.918302 0-7.159868 2.897451-7.699012 6.666667zm183.965428 160h46.07828c1.26269 2.988579 1.96086 6.273868 1.96086 9.722222 0 1.419634-.11833 2.811631-.34566 4.166667h-7.98767-30.832-4.29407c1.89733 8.427303 9.42744 14.722222 18.42781 14.722222 7.44096 0 13.87701-4.302567 16.95599-10.555556h6.65305c-3.43197 9.709937-12.69229 16.666667-23.57745 16.666667-13.80712 0-25-11.192881-25-25 0-3.448354.69817-6.733643 1.96086-9.722223zm2.249-4.166667c4.48478-6.699921 12.12232-11.111111 20.79014-11.111111s16.30536 4.41119 20.79014 11.111111zm8.59812 22.222222 24.32086.000001c-2.65162 3.876884-7.10891 6.421055-12.16043 6.421055s-9.50882-2.544171-12.16043-6.421055zm-6.20144-8.055555h4.26207c.46864-1.450702 1.83026-2.5 3.43695-2.5 1.60668 0 2.9683 1.049298 3.43694 2.5h4.26207c-.53915-3.769216-3.78071-6.666667-7.69901-6.666667-3.91831 0-7.15987 2.897451-7.69902 6.666667zm21.38889 0h4.26207c.46864-1.450702 1.83026-2.5 3.43694-2.5 1.60669 0 2.96831 1.049298 3.43695 2.5h4.26207c-.53915-3.769216-3.78071-6.666667-7.69902-6.666667-3.9183 0-7.15986 2.897451-7.69901 6.666667zm-141.034574-307h46.078288c1.262689 2.988579 1.960856 6.273868 1.960856 9.722222 0 1.419634-.118328 2.811631-.34566 4.166667h-7.987673-30.831997-4.294066c1.897322 8.427303 9.427435 14.722222 18.427805 14.722222 7.440963 0 13.877007-4.302567 16.955989-10.555556h6.653054c-3.43197 9.709937-12.692295 16.666667-23.577452 16.666667-13.807119 0-25-11.192881-25-25 0-3.448354.698167-6.733643 1.960859-9.722223zm2.249002-4.166667c4.484786-6.699921 12.122319-11.111111 20.790142-11.111111s16.305356 4.41119 20.790142 11.111111zm8.59812 22.222222 24.32086.000001c-2.651614 3.876884-7.10891 6.421055-12.160429 6.421055-5.051518 0-9.508814-2.544171-12.160428-6.421055zm-6.201435-8.055555h4.262068c.468643-1.450702 1.830255-2.5 3.436945-2.5 1.606689 0 2.968302 1.049298 3.436944 2.5h4.262068c-.539144-3.769216-3.78071-6.666667-7.699012-6.666667-3.918303 0-7.159869 2.897451-7.699013 6.666667zm21.388889 0h4.262068c.468642-1.450702 1.830255-2.5 3.436944-2.5 1.60669 0 2.968302 1.049298 3.436945 2.5h4.262068c-.539144-3.769216-3.78071-6.666667-7.699013-6.666667-3.918302 0-7.159868 2.897451-7.699012 6.666667zm38.965424-164h46.078284c1.26269 2.988579 1.96086 6.273868 1.96086 9.722222 0 1.419634-.11833 2.811631-.34566 4.166667h-7.987673-30.831997-4.294066c1.897322 8.427303 9.427435 14.722222 18.427805 14.722222 7.440963 0 13.877007-4.302567 16.955989-10.555556h6.653052c-3.43197 9.709937-12.692293 16.666667-23.57745 16.666667-13.807119 0-25-11.192881-25-25 0-3.448354.698167-6.733643 1.960859-9.722223zm2.249002-4.166667c4.484786-6.699921 12.122319-11.111111 20.790142-11.111111s16.305356 4.41119 20.79014 11.111111zm8.59812 22.222222 24.32086.000001c-2.651614 3.876884-7.10891 6.421055-12.160429 6.421055-5.051518 0-9.508814-2.544171-12.160428-6.421055zm-6.201435-8.055555h4.262068c.468643-1.450702 1.830255-2.5 3.436945-2.5 1.606689 0 2.968302 1.049298 3.436944 2.5h4.262068c-.539144-3.769216-3.78071-6.666667-7.699012-6.666667-3.918303 0-7.159869 2.897451-7.699013 6.666667zm21.388889 0h4.262068c.468642-1.450702 1.830255-2.5 3.436944-2.5 1.60669 0 2.968302 1.049298 3.436945 2.5h4.262068c-.539144-3.769216-3.78071-6.666667-7.699013-6.666667-3.918302 0-7.159868 2.897451-7.699012 6.666667zm213.965428-115.0000002h46.07828c1.26269 2.9885796 1.96086 6.273868 1.96086 9.7222222 0 1.4196342-.11833 2.8116314-.34566 4.1666667h-7.98767-30.832-4.29407c1.89733 8.4273035 9.42744 14.7222222 18.42781 14.7222222 7.44096 0 13.87701-4.3025667 16.95599-10.5555556h6.65305c-3.43197 9.7099365-12.69229 16.6666667-23.57745 16.6666667-13.80712 0-25-11.1928813-25-25 0-3.4483542.69817-6.7336426 1.96086-9.7222228zm2.249-4.1666667c4.48478-6.6999208 12.12232-11.1111111 20.79014-11.1111111s16.30536 4.4111903 20.79014 11.1111111zm8.59812 22.2222222 24.32086.0000007c-2.65162 3.8768839-7.10891 6.4210553-12.16043 6.4210553s-9.50882-2.5441714-12.16043-6.4210553zm-6.20144-8.0555555h4.26207c.46864-1.4507023 1.83026-2.5 3.43695-2.5 1.60668 0 2.9683 1.0492977 3.43694 2.5h4.26207c-.53915-3.7692157-3.78071-6.6666667-7.69901-6.6666667-3.91831 0-7.15987 2.897451-7.69902 6.6666667zm21.38889 0h4.26207c.46864-1.4507023 1.83026-2.5 3.43694-2.5 1.60669 0 2.96831 1.0492977 3.43695 2.5h4.26207c-.53915-3.7692157-3.78071-6.6666667-7.69902-6.6666667-3.9183 0-7.15986 2.897451-7.69901 6.6666667zm-148.03457 247.0000002h46.07828c1.26269 2.988579 1.96086 6.273868 1.96086 9.722222 0 1.419634-.11833 2.811631-.34566 4.166667h-7.98767-30.832-4.29407c1.89733 8.427303 9.42744 14.722222 18.42781 14.722222 7.44096 0 13.87701-4.302567 16.95599-10.555556h6.65305c-3.43197 9.709937-12.69229 16.666667-23.57745 16.666667-13.80712 0-25-11.192881-25-25 0-3.448354.69817-6.733643 1.96086-9.722223zm2.249-4.166667c4.48478-6.699921 12.12232-11.111111 20.79014-11.111111s16.30536 4.41119 20.79014 11.111111zm8.59812 22.222222 24.32086.000001c-2.65162 3.876884-7.10891 6.421055-12.16043 6.421055s-9.50882-2.544171-12.16043-6.421055zm-6.20144-8.055555h4.26207c.46864-1.450702 1.83026-2.5 3.43695-2.5 1.60668 0 2.9683 1.049298 3.43694 2.5h4.26207c-.53915-3.769216-3.78071-6.666667-7.69901-6.666667-3.91831 0-7.15987 2.897451-7.69902 6.666667zm21.38889 0h4.26207c.46864-1.450702 1.83026-2.5 3.43694-2.5 1.60669 0 2.96831 1.049298 3.43695 2.5h4.26207c-.53915-3.769216-3.78071-6.666667-7.69902-6.666667-3.9183 0-7.15986 2.897451-7.69901 6.666667zm-720.073718 462.277778h92.156576c2.525377 5.977159 3.921712 12.547736 3.921712 19.444444 0 2.839268-.236657 5.623263-.69132 8.333333h-15.975347-61.663994-8.588132c3.794645 16.854607 18.854871 29.444445 36.855612 29.444445 14.881925 0 27.754014-8.605134 33.911976-21.111111h13.30611c-6.86394 19.419873-25.384591 33.333333-47.154905 33.333333-27.614237 0-50-22.385763-50-50 0-6.896708 1.396335-13.467285 3.921719-19.444446zm4.498005-8.333334c8.96957-13.399841 24.244638-22.222222 41.580283-22.222222s32.610713 8.822381 41.580283 22.222222zm17.196239 44.444445 48.64172.000001c-5.303228 7.753768-14.21782 12.842111-24.320857 12.842111-10.103038 0-19.017629-5.088343-24.320857-12.842111zm-12.40287-16.111111h8.524136c.937285-2.901405 3.66051-5 6.873889-5s5.936604 2.098595 6.87389 5h8.524135c-1.078288-7.538432-7.561421-13.333334-15.398025-13.333334s-14.319737 5.794902-15.398025 13.333334zm42.777778 0h8.524135c.937286-2.901405 3.660511-5 6.87389-5s5.936604 2.098595 6.873889 5h8.524136c-1.078288-7.538432-7.561421-13.333334-15.398025-13.333334s-14.319737 5.794902-15.398025 13.333334zm-229.069152 150h92.156576c2.525377 5.977159 3.921712 12.547736 3.921712 19.444444 0 2.839268-.236657 5.623263-.69132 8.333333h-15.975347-61.663994-8.588132c3.794645 16.854607 18.854871 29.444445 36.855612 29.444445 14.881925 0 27.754014-8.605134 33.911976-21.111111h13.30611c-6.86394 19.419873-25.384591 33.333333-47.154905 33.333333-27.614237 0-50-22.385763-50-50 0-6.896708 1.396335-13.467285 3.921719-19.444446zm4.498005-8.333334c8.96957-13.399841 24.244638-22.222222 41.580283-22.222222s32.610713 8.822381 41.580283 22.222222zm17.196239 44.444445 48.64172.000001c-5.303228 7.753768-14.21782 12.842111-24.320857 12.842111-10.103038 0-19.017629-5.088343-24.320857-12.842111zm-12.40287-16.111111h8.524136c.937285-2.901405 3.66051-5 6.873889-5s5.936604 2.098595 6.87389 5h8.524135c-1.078288-7.538432-7.561421-13.333334-15.398025-13.333334s-14.319737 5.794902-15.398025 13.333334zm42.777778 0h8.524135c.937286-2.901405 3.660511-5 6.87389-5s5.936604 2.098595 6.873889 5h8.524136c-1.078288-7.538432-7.561421-13.333334-15.398025-13.333334s-14.319737 5.794902-15.398025 13.333334zm-252.0691522 106.000004h92.1565764c2.5253772 5.97715 3.9217118 12.54773 3.9217118 19.44444 0 2.83927-.2366566 5.62326-.6913203 8.33333h-15.9753464-61.663994-8.588132c3.7946447 16.85461 18.8548711 29.44445 36.8556116 29.44445 14.8819251 0 27.7540136-8.60514 33.9119765-21.11111h13.3061095c-6.8639402 19.41987-25.3845911 33.33333-47.1549049 33.33333-27.6142375 0-50-22.38576-50-50 0-6.89671 1.39633461-13.46729 3.92171855-19.44445zm4.49800507-8.33334c8.96957053-13.39984 24.24463813-22.22222 41.58028313-22.22222s32.6107126 8.82238 41.5802831 22.22222zm17.19623903 44.44445h48.6417197c-5.3032277 7.75377-14.2178191 12.84211-24.3208567 12.84211-10.1030375 0-19.017629-5.08834-24.3208567-12.84211zm-12.4028695-16.11111h8.5241351c.9372856-2.90141 3.660511-5 6.8738896-5 3.2133787 0 5.9366041 2.09859 6.8738896 5h8.5241352c-1.0782882-7.53844-7.5614205-13.33334-15.3980248-13.33334-7.8366042 0-14.3197366 5.7949-15.3980247 13.33334zm42.7777777 0h8.5241352c.9372855-2.90141 3.6605109-5 6.8738896-5 3.2133786 0 5.936604 2.09859 6.8738896 5h8.5241351c-1.0782881-7.53844-7.5614205-13.33334-15.3980247-13.33334-7.8366043 0-14.3197366 5.7949-15.3980248 13.33334zm481.9308479-101.000004h92.156576c2.525377 5.977159 3.921712 12.547736 3.921712 19.444444 0 2.83927-.236657 5.62326-.69132 8.33333h-15.975347-61.663994-8.588132c3.794645 16.85461 18.854871 29.44445 36.855612 29.44445 14.881925 0 27.754014-8.60514 33.911976-21.11111h13.30611c-6.86394 19.41987-25.384591 33.33333-47.154905 33.33333-27.614237 0-50-22.38576-50-50 0-6.896708 1.396335-13.467285 3.921719-19.444446zm4.498005-8.333334c8.96957-13.399841 24.244638-22.222222 41.580283-22.222222s32.610713 8.822381 41.580283 22.222222zm17.196239 44.444448h48.64172c-5.303228 7.75377-14.21782 12.84211-24.320857 12.84211-10.103038 0-19.017629-5.08834-24.320857-12.84211zm-12.40287-16.11111h8.524136c.937285-2.90141 3.66051-5 6.873889-5s5.936604 2.09859 6.87389 5h8.524135c-1.078288-7.538436-7.561421-13.333338-15.398025-13.333338s-14.319737 5.794902-15.398025 13.333338zm42.777778 0h8.524135c.937286-2.90141 3.660511-5 6.87389-5s5.936604 2.09859 6.873889 5h8.524136c-1.078288-7.538436-7.561421-13.333338-15.398025-13.333338s-14.319737 5.794902-15.398025 13.333338zm473.930846-176.000004h92.15658c2.52538 5.977159 3.92171 12.547736 3.92171 19.444444 0 2.839268-.23666 5.623263-.69132 8.333333h-15.97535-61.66399-8.58813c3.79464 16.854607 18.85487 29.444445 36.85561 29.444445 14.88192 0 27.75401-8.605134 33.91198-21.111111h13.3061c-6.86394 19.419873-25.38459 33.333333-47.1549 33.333333-27.61424 0-50-22.385763-50-50 0-6.896708 1.39633-13.467285 3.92172-19.444446zm4.49801-8.333334c8.96957-13.399841 24.24463-22.222222 41.58028-22.222222s32.61071 8.822381 41.58028 22.222222zm17.19624 44.444445 48.64172.000001c-5.30323 7.753768-14.21782 12.842111-24.32086 12.842111s-19.01763-5.088343-24.32086-12.842111zm-12.40287-16.111111h8.52413c.93729-2.901405 3.66051-5 6.87389-5s5.93661 2.098595 6.87389 5h8.52414c-1.07829-7.538432-7.56142-13.333334-15.39803-13.333334-7.8366 0-14.31974 5.794902-15.39802 13.333334zm42.77777 0h8.52414c.93728-2.901405 3.66051-5 6.87389-5s5.9366 2.098595 6.87389 5h8.52413c-1.07828-7.538432-7.56142-13.333334-15.39802-13.333334-7.83661 0-14.31974 5.794902-15.39803 13.333334zm-34.06915 378.000004h92.15658c2.52538 5.97715 3.92171 12.54773 3.92171 19.44444 0 2.83927-.23666 5.62326-.69132 8.33333h-15.97535-61.66399-8.58813c3.79464 16.85461 18.85487 29.44445 36.85561 29.44445 14.88192 0 27.75401-8.60514 33.91198-21.11111h13.3061c-6.86394 19.41987-25.38459 33.33333-47.1549 33.33333-27.61424 0-50-22.38576-50-50 0-6.89671 1.39633-13.46729 3.92172-19.44445zm4.49801-8.33334c8.96957-13.39984 24.24463-22.22222 41.58028-22.22222s32.61071 8.82238 41.58028 22.22222zm17.19624 44.44445h48.64172c-5.30323 7.75377-14.21782 12.84211-24.32086 12.84211s-19.01763-5.08834-24.32086-12.84211zm-12.40287-16.11111h8.52413c.93729-2.90141 3.66051-5 6.87389-5s5.93661 2.09859 6.87389 5h8.52414c-1.07829-7.53844-7.56142-13.33334-15.39803-13.33334-7.8366 0-14.31974 5.7949-15.39802 13.33334zm42.77777 0h8.52414c.93728-2.90141 3.66051-5 6.87389-5s5.9366 2.09859 6.87389 5h8.52413c-1.07828-7.53844-7.56142-13.33334-15.39802-13.33334-7.83661 0-14.31974 5.7949-15.39803 13.33334zm-205.069148-173h92.156578c2.52538 5.97715 3.92171 12.54773 3.92171 19.44444 0 2.83927-.23666 5.62326-.69132 8.33333h-15.97535-61.663991-8.588132c3.794645 16.85461 18.854871 29.44445 36.855612 29.44445 14.881925 0 27.754011-8.60514 33.911981-21.11111h13.3061c-6.86394 19.41987-25.384586 33.33333-47.1549 33.33333-27.614237 0-50-22.38576-50-50 0-6.89671 1.396335-13.46729 3.921719-19.44445zm4.498005-8.33334c8.96957-13.39984 24.244638-22.22222 41.580283-22.22222s32.61071 8.82238 41.58028 22.22222zm17.196239 44.44445h48.64172c-5.303228 7.75377-14.21782 12.84211-24.320857 12.84211-10.103038 0-19.017629-5.08834-24.320857-12.84211zm-12.40287-16.11111h8.524136c.937285-2.90141 3.66051-5 6.873889-5s5.936604 2.09859 6.87389 5h8.524135c-1.078288-7.53844-7.561421-13.33334-15.398025-13.33334s-14.319737 5.7949-15.398025 13.33334zm42.777778 0h8.524135c.937286-2.90141 3.660511-5 6.87389-5s5.936601 2.09859 6.873891 5h8.52413c-1.07828-7.53844-7.56142-13.33334-15.398021-13.33334-7.836604 0-14.319737 5.7949-15.398025 13.33334zm185.930846 8h92.15658c2.52538 5.97715 3.92171 12.54773 3.92171 19.44444 0 2.83927-.23666 5.62326-.69132 8.33333h-15.97535-61.66399-8.58813c3.79464 16.85461 18.85487 29.44445 36.85561 29.44445 14.88192 0 27.75401-8.60514 33.91198-21.11111h13.3061c-6.86394 19.41987-25.38459 33.33333-47.1549 33.33333-27.61424 0-50-22.38576-50-50 0-6.89671 1.39633-13.46729 3.92172-19.44445zm4.49801-8.33334c8.96957-13.39984 24.24463-22.22222 41.58028-22.22222s32.61071 8.82238 41.58028 22.22222zm17.19624 44.44445h48.64172c-5.30323 7.75377-14.21782 12.84211-24.32086 12.84211s-19.01763-5.08834-24.32086-12.84211zm-12.40287-16.11111h8.52413c.93729-2.90141 3.66051-5 6.87389-5s5.93661 2.09859 6.87389 5h8.52414c-1.07829-7.53844-7.56142-13.33334-15.39803-13.33334-7.8366 0-14.31974 5.7949-15.39802 13.33334zm42.77777 0h8.52414c.93728-2.90141 3.66051-5 6.87389-5s5.9366 2.09859 6.87389 5h8.52413c-1.07828-7.53844-7.56142-13.33334-15.39802-13.33334-7.83661 0-14.31974 5.7949-15.39803 13.33334zm-427.069148-232.000004h92.156576c2.525377 5.977159 3.921712 12.547736 3.921712 19.444444 0 2.839268-.236657 5.623263-.69132 8.333333h-15.975347-61.663994-8.588132c3.794645 16.854607 18.854871 29.444445 36.855612 29.444445 14.881925 0 27.754014-8.605134 33.911976-21.111111h13.30611c-6.86394 19.419873-25.384591 33.333333-47.154905 33.333333-27.614237 0-50-22.385763-50-50 0-6.896708 1.396335-13.467285 3.921719-19.444446zm4.498005-8.333334c8.96957-13.399841 24.244638-22.222222 41.580283-22.222222s32.610713 8.822381 41.580283 22.222222zm17.196239 44.444445 48.64172.000001c-5.303228 7.753768-14.21782 12.842111-24.320857 12.842111-10.103038 0-19.017629-5.088343-24.320857-12.842111zm-12.40287-16.111111h8.524136c.937285-2.901405 3.66051-5 6.873889-5s5.936604 2.098595 6.87389 5h8.524135c-1.078288-7.538432-7.561421-13.333334-15.398025-13.333334s-14.319737 5.794902-15.398025 13.333334zm42.777778 0h8.524135c.937286-2.901405 3.660511-5 6.87389-5s5.936604 2.098595 6.873889 5h8.524136c-1.078288-7.538432-7.561421-13.333334-15.398025-13.333334s-14.319737 5.794902-15.398025 13.333334zm-536.069152 247.000004h92.156576c2.525377 5.97715 3.921712 12.54773 3.921712 19.44444 0 2.83927-.236657 5.62326-.69132 8.33333h-15.975347-61.663994-8.588132c3.794645 16.85461 18.854871 29.44445 36.855612 29.44445 14.881925 0 27.754014-8.60514 33.911976-21.11111h13.30611c-6.86394 19.41987-25.384591 33.33333-47.154905 33.33333-27.614237 0-50-22.38576-50-50 0-6.89671 1.396335-13.46729 3.921719-19.44445zm4.498005-8.33334c8.96957-13.39984 24.244638-22.22222 41.580283-22.22222s32.610713 8.82238 41.580283 22.22222zm17.196239 44.44445h48.64172c-5.303228 7.75377-14.21782 12.84211-24.320857 12.84211-10.103038 0-19.017629-5.08834-24.320857-12.84211zm-12.40287-16.11111h8.524136c.937285-2.90141 3.66051-5 6.873889-5s5.936604 2.09859 6.87389 5h8.524135c-1.078288-7.53844-7.561421-13.33334-15.398025-13.33334s-14.319737 5.7949-15.398025 13.33334zm42.777778 0h8.524135c.937286-2.90141 3.660511-5 6.87389-5s5.936604 2.09859 6.873889 5h8.524136c-1.078288-7.53844-7.561421-13.33334-15.398025-13.33334s-14.319737 5.7949-15.398025 13.33334zm-4.069152-154h92.156576c2.525377 5.97715 3.921712 12.54773 3.921712 19.44444 0 2.83927-.236657 5.62326-.69132 8.33333h-15.975347-61.663994-8.588132c3.794645 16.85461 18.854871 29.44445 36.855612 29.44445 14.881925 0 27.754014-8.60514 33.911976-21.11111h13.30611c-6.86394 19.41987-25.384591 33.33333-47.154905 33.33333-27.614237 0-50-22.38576-50-50 0-6.89671 1.396335-13.46729 3.921719-19.44445zm4.498005-8.33334c8.96957-13.39984 24.244638-22.22222 41.580283-22.22222s32.610713 8.82238 41.580283 22.22222zm17.196239 44.44445h48.64172c-5.303228 7.75377-14.21782 12.84211-24.320857 12.84211-10.103038 0-19.017629-5.08834-24.320857-12.84211zm-12.40287-16.11111h8.524136c.937285-2.90141 3.66051-5 6.873889-5s5.936604 2.09859 6.87389 5h8.524135c-1.078288-7.53844-7.561421-13.33334-15.398025-13.33334s-14.319737 5.7949-15.398025 13.33334zm42.777778 0h8.524135c.937286-2.90141 3.660511-5 6.87389-5s5.936604 2.09859 6.873889 5h8.524136c-1.078288-7.53844-7.561421-13.33334-15.398025-13.33334s-14.319737 5.7949-15.398025 13.33334zm-323.0691522-218.000004h92.1565762c2.525377 5.977159 3.921712 12.547736 3.921712 19.444444 0 2.839268-.236657 5.623263-.69132 8.333333h-15.975347-61.663994-8.5881317c3.7946447 16.854607 18.8548707 29.444445 36.8556117 29.444445 14.881925 0 27.754014-8.605134 33.911976-21.111111h13.30611c-6.86394 19.419873-25.384591 33.333333-47.154905 33.333333-27.614237 0-50-22.385763-50-50 0-6.896708 1.3963346-13.467285 3.9217186-19.444446zm4.4980051-8.333334c8.9695705-13.399841 24.2446381-22.222222 41.5802831-22.222222s32.610713 8.822381 41.580283 22.222222zm17.1962391 44.444445 48.64172.000001c-5.303228 7.753768-14.21782 12.842111-24.320857 12.842111-10.103038 0-19.017629-5.088343-24.320857-12.842111zm-12.4028696-16.111111h8.5241356c.937285-2.901405 3.66051-5 6.873889-5s5.936604 2.098595 6.87389 5h8.524135c-1.078288-7.538432-7.561421-13.333334-15.398025-13.333334s-14.3197365 5.794902-15.3980246 13.333334zm42.7777776 0h8.524135c.937286-2.901405 3.660511-5 6.87389-5s5.936604 2.098595 6.873889 5h8.524136c-1.078288-7.538432-7.561421-13.333334-15.398025-13.333334s-14.319737 5.794902-15.398025 13.333334zm-15.069152 332.000004h92.156576c2.525377 5.97715 3.921712 12.54773 3.921712 19.44444 0 2.83927-.236657 5.62326-.69132 8.33333h-15.975347-61.663994-8.588132c3.794645 16.85461 18.854871 29.44445 36.855612 29.44445 14.881925 0 27.754014-8.60514 33.911976-21.11111h13.30611c-6.86394 19.41987-25.384591 33.33333-47.154905 33.33333-27.614237 0-50-22.38576-50-50 0-6.89671 1.396335-13.46729 3.921719-19.44445zm4.498005-8.33334c8.96957-13.39984 24.244638-22.22222 41.580283-22.22222s32.610713 8.82238 41.580283 22.22222zm17.196239 44.44445h48.64172c-5.303228 7.75377-14.21782 12.84211-24.320857 12.84211-10.103038 0-19.017629-5.08834-24.320857-12.84211zm-12.40287-16.11111h8.524136c.937285-2.90141 3.66051-5 6.873889-5s5.936604 2.09859 6.87389 5h8.524135c-1.078288-7.53844-7.561421-13.33334-15.398025-13.33334s-14.319737 5.7949-15.398025 13.33334zm42.777778 0h8.524135c.937286-2.90141 3.660511-5 6.87389-5s5.936604 2.09859 6.873889 5h8.524136c-1.078288-7.53844-7.561421-13.33334-15.398025-13.33334s-14.319737 5.7949-15.398025 13.33334zm119.930848 105h92.156576c2.525377 5.97715 3.921712 12.54773 3.921712 19.44444 0 2.83927-.236657 5.62326-.69132 8.33333h-15.975347-61.663994-8.588132c3.794645 16.85461 18.854871 29.44445 36.855612 29.44445 14.881925 0 27.754014-8.60514 33.911976-21.11111h13.30611c-6.86394 19.41987-25.384591 33.33333-47.154905 33.33333-27.614237 0-50-22.38576-50-50 0-6.89671 1.396335-13.46729 3.921719-19.44445zm4.498005-8.33334c8.96957-13.39984 24.244638-22.22222 41.580283-22.22222s32.610713 8.82238 41.580283 22.22222zm17.196239 44.44445h48.64172c-5.303228 7.75377-14.21782 12.84211-24.320857 12.84211-10.103038 0-19.017629-5.08834-24.320857-12.84211zm-12.40287-16.11111h8.524136c.937285-2.90141 3.66051-5 6.873889-5s5.936604 2.09859 6.87389 5h8.524135c-1.078288-7.53844-7.561421-13.33334-15.398025-13.33334s-14.319737 5.7949-15.398025 13.33334zm42.777778 0h8.524135c.937286-2.90141 3.660511-5 6.87389-5s5.936604 2.09859 6.873889 5h8.524136c-1.078288-7.53844-7.561421-13.33334-15.398025-13.33334s-14.319737 5.7949-15.398025 13.33334zm495.930848-593.000004h92.156576c2.525377 5.977159 3.921712 12.547736 3.921712 19.444444 0 2.839268-.236657 5.623263-.69132 8.333333h-15.975347-61.663994-8.588132c3.794645 16.854607 18.854871 29.444445 36.855612 29.444445 14.881925 0 27.754014-8.605134 33.911976-21.111111h13.30611c-6.86394 19.419873-25.384591 33.333333-47.154905 33.333333-27.614237 0-50-22.385763-50-50 0-6.896708 1.396335-13.467285 3.921719-19.444446zm4.498005-8.333334c8.96957-13.399841 24.244638-22.222222 41.580283-22.222222s32.610713 8.822381 41.580283 22.222222zm17.196239 44.444445 48.64172.000001c-5.303228 7.753768-14.21782 12.842111-24.320857 12.842111-10.103038 0-19.017629-5.088343-24.320857-12.842111zm-12.40287-16.111111h8.524136c.937285-2.901405 3.66051-5 6.873889-5s5.936604 2.098595 6.87389 5h8.524135c-1.078288-7.538432-7.561421-13.333334-15.398025-13.333334s-14.319737 5.794902-15.398025 13.333334zm42.777778 0h8.524135c.937286-2.901405 3.660511-5 6.87389-5s5.936604 2.098595 6.873889 5h8.524136c-1.078288-7.538432-7.561421-13.333334-15.398025-13.333334s-14.319737 5.794902-15.398025 13.333334zm-175.069152 503.000004h92.156576c2.525377 5.97715 3.921712 12.54773 3.921712 19.44444 0 2.83927-.236657 5.62326-.69132 8.33333h-15.975347-61.663994-8.588132c3.794645 16.85461 18.854871 29.44445 36.855612 29.44445 14.881925 0 27.754014-8.60514 33.911976-21.11111h13.30611c-6.86394 19.41987-25.384591 33.33333-47.154905 33.33333-27.614237 0-50-22.38576-50-50 0-6.89671 1.396335-13.46729 3.921719-19.44445zm4.498005-8.33334c8.96957-13.39984 24.244638-22.22222 41.580283-22.22222s32.610713 8.82238 41.580283 22.22222zm17.196239 44.44445h48.64172c-5.303228 7.75377-14.21782 12.84211-24.320857 12.84211-10.103038 0-19.017629-5.08834-24.320857-12.84211zm-12.40287-16.11111h8.524136c.937285-2.90141 3.66051-5 6.873889-5s5.936604 2.09859 6.87389 5h8.524135c-1.078288-7.53844-7.561421-13.33334-15.398025-13.33334s-14.319737 5.7949-15.398025 13.33334zm42.777778 0h8.524135c.937286-2.90141 3.660511-5 6.87389-5s5.936604 2.09859 6.873889 5h8.524136c-1.078288-7.53844-7.561421-13.33334-15.398025-13.33334s-14.319737 5.7949-15.398025 13.33334zm-155.030008-476.277782h46.078288c1.262689 2.988579 1.960856 6.273868 1.960856 9.722222 0 1.419634-.118328 2.811631-.34566 4.166667h-7.987673-30.831997-4.294066c1.897322 8.427303 9.427435 14.722222 18.427805 14.722222 7.440963 0 13.877007-4.302567 16.955989-10.555556h6.653054c-3.43197 9.709937-12.692295 16.666667-23.577452 16.666667-13.807119 0-25-11.192881-25-25 0-3.448354.698167-6.733643 1.960859-9.722223zm2.249002-4.166667c4.484786-6.699921 12.122319-11.111111 20.790142-11.111111s16.305356 4.41119 20.790142 11.111111zm8.59812 22.222222 24.32086.000001c-2.651614 3.876884-7.10891 6.421055-12.160429 6.421055-5.051518 0-9.508814-2.544171-12.160428-6.421055zm-6.201435-8.055555h4.262068c.468643-1.450702 1.830255-2.5 3.436945-2.5 1.606689 0 2.968302 1.049298 3.436944 2.5h4.262068c-.539144-3.769216-3.78071-6.666667-7.699012-6.666667-3.918303 0-7.159869 2.897451-7.699013 6.666667zm21.388889 0h4.262068c.468642-1.450702 1.830255-2.5 3.436944-2.5 1.60669 0 2.968302 1.049298 3.436945 2.5h4.262068c-.539144-3.769216-3.78071-6.666667-7.699013-6.666667-3.918302 0-7.159868 2.897451-7.699012 6.666667zm-304.034576 84h46.078288c1.262689 2.988579 1.960856 6.273868 1.960856 9.722222 0 1.419634-.118328 2.811631-.34566 4.166667h-7.987673-30.831997-4.294066c1.897322 8.427303 9.427435 14.722222 18.427805 14.722222 7.440963 0 13.877007-4.302567 16.955989-10.555556h6.653054c-3.43197 9.709937-12.692295 16.666667-23.577452 16.666667-13.807119 0-25-11.192881-25-25 0-3.448354.698167-6.733643 1.960859-9.722223zm2.249002-4.166667c4.484786-6.699921 12.122319-11.111111 20.790142-11.111111s16.305356 4.41119 20.790142 11.111111zm8.59812 22.222222 24.32086.000001c-2.651614 3.876884-7.10891 6.421055-12.160429 6.421055-5.051518 0-9.508814-2.544171-12.160428-6.421055zm-6.201435-8.055555h4.262068c.468643-1.450702 1.830255-2.5 3.436945-2.5 1.606689 0 2.968302 1.049298 3.436944 2.5h4.262068c-.539144-3.769216-3.78071-6.666667-7.699012-6.666667-3.918303 0-7.159869 2.897451-7.699013 6.666667zm21.388889 0h4.262068c.468642-1.450702 1.830255-2.5 3.436944-2.5 1.60669 0 2.968302 1.049298 3.436945 2.5h4.262068c-.539144-3.769216-3.78071-6.666667-7.699013-6.666667-3.918302 0-7.159868 2.897451-7.699012 6.666667zm-140.034576-124h46.078288c1.262689 2.988579 1.960856 6.273868 1.960856 9.722222 0 1.419634-.118328 2.811631-.34566 4.166667h-7.987673-30.831997-4.294066c1.897322 8.427303 9.427435 14.722222 18.427805 14.722222 7.440963 0 13.877007-4.302567 16.955989-10.555556h6.653054c-3.43197 9.709937-12.692295 16.666667-23.577452 16.666667-13.807119 0-25-11.192881-25-25 0-3.448354.698167-6.733643 1.960859-9.722223zm2.249002-4.166667c4.484786-6.699921 12.122319-11.111111 20.790142-11.111111s16.305356 4.41119 20.790142 11.111111zm8.59812 22.222222 24.32086.000001c-2.651614 3.876884-7.10891 6.421055-12.160429 6.421055-5.051518 0-9.508814-2.544171-12.160428-6.421055zm-6.201435-8.055555h4.262068c.468643-1.450702 1.830255-2.5 3.436945-2.5 1.606689 0 2.968302 1.049298 3.436944 2.5h4.262068c-.539144-3.769216-3.78071-6.666667-7.699012-6.666667-3.918303 0-7.159869 2.897451-7.699013 6.666667zm21.388889 0h4.262068c.468642-1.450702 1.830255-2.5 3.436944-2.5 1.60669 0 2.968302 1.049298 3.436945 2.5h4.262068c-.539144-3.769216-3.78071-6.666667-7.699013-6.666667-3.918302 0-7.159868 2.897451-7.699012 6.666667zm-191.0345761 189h46.0782881c1.262689 2.988579 1.960856 6.273868 1.960856 9.722222 0 1.419634-.118328 2.811631-.34566 4.166667h-7.9876733-30.8319971-4.294066c1.8973224 8.427303 9.4274356 14.722223 18.4278059 14.722223 7.4409625 0 13.8770068-4.30257 16.9559882-10.555557h6.6530543c-3.43197 9.709937-12.6922951 16.666667-23.577452 16.666667-13.8071187 0-25-11.192881-25-25 0-3.448354.6981673-6.733643 1.9608593-9.722223zm2.2490025-4.166667c4.4847853-6.699921 12.1223191-11.111111 20.7901416-11.111111s16.3053563 4.41119 20.790142 11.111111zm8.5981195 22.222222 24.3208599.000001c-2.6516138 3.876884-7.1089096 6.421056-12.1604283 6.421056-5.0515188 0-9.5088145-2.544172-12.1604284-6.421056zm-6.2014347-8.055555h4.2620676c.4686427-1.450702 1.8302554-2.5 3.4369448-2.5 1.6066893 0 2.968302 1.049298 3.4369447 2.5h4.2620676c-.539144-3.769216-3.7807102-6.666667-7.6990123-6.666667-3.9183022 0-7.1598684 2.897451-7.6990124 6.666667zm21.3888889 0h4.2620676c.4686427-1.450702 1.8302554-2.5 3.4369447-2.5 1.6066894 0 2.9683021 1.049298 3.4369448 2.5h4.2620678c-.5391442-3.769216-3.7807104-6.666667-7.6990126-6.666667-3.9183021 0-7.1598683 2.897451-7.6990123 6.666667zm361.9654239 287.000002h46.078288c1.262689 2.98858 1.960856 6.27387 1.960856 9.72222 0 1.41963-.118328 2.81163-.34566 4.16667h-7.987673-30.831997-4.294066c1.897322 8.4273 9.427435 14.72222 18.427805 14.72222 7.440963 0 13.877007-4.30257 16.955989-10.55556h6.653054c-3.43197 9.70994-12.692295 16.66667-23.577452 16.66667-13.807119 0-25-11.19288-25-25 0-3.44835.698167-6.73364 1.960859-9.72222zm2.249002-4.16667c4.484786-6.69992 12.122319-11.11111 20.790142-11.11111s16.305356 4.41119 20.790142 11.11111zm8.59812 22.22222h24.32086c-2.651614 3.87689-7.10891 6.42106-12.160429 6.42106-5.051518 0-9.508814-2.54417-12.160428-6.42106zm-6.201435-8.05555h4.262068c.468643-1.4507 1.830255-2.5 3.436945-2.5 1.606689 0 2.968302 1.0493 3.436944 2.5h4.262068c-.539144-3.76922-3.78071-6.66667-7.699012-6.66667-3.918303 0-7.159869 2.89745-7.699013 6.66667zm21.388889 0h4.262068c.468642-1.4507 1.830255-2.5 3.436944-2.5 1.60669 0 2.968302 1.0493 3.436945 2.5h4.262068c-.539144-3.76922-3.78071-6.66667-7.699013-6.66667-3.918302 0-7.159868 2.89745-7.699012 6.66667zm-429.0345761-10h46.0782882c1.2626886 2.98858 1.9608559 6.27387 1.9608559 9.72222 0 1.41963-.1183283 2.81163-.3456602 4.16667h-7.9876731-30.8319971-4.294066c1.8973224 8.4273 9.4274356 14.72222 18.4278059 14.72222 7.4409625 0 13.8770068-4.30257 16.9559882-10.55556h6.6530547c-3.43197 9.70994-12.6922955 16.66667-23.5774524 16.66667-13.8071187 0-25-11.19288-25-25 0-3.44835.6981673-6.73364 1.9608593-9.72222zm2.2490025-4.16667c4.4847853-6.69992 12.1223191-11.11111 20.7901416-11.11111s16.3053563 4.41119 20.7901416 11.11111zm8.5981195 22.22222h24.3208599c-2.6516138 3.87689-7.1089096 6.42106-12.1604283 6.42106-5.0515188 0-9.5088145-2.54417-12.1604284-6.42106zm-6.2014347-8.05555h4.2620676c.4686427-1.4507 1.8302554-2.5 3.4369448-2.5 1.6066893 0 2.968302 1.0493 3.4369447 2.5h4.2620676c-.539144-3.76922-3.7807102-6.66667-7.6990123-6.66667-3.9183022 0-7.1598684 2.89745-7.6990124 6.66667zm21.3888889 0h4.2620676c.4686427-1.4507 1.8302554-2.5 3.4369447-2.5 1.6066894 0 2.9683021 1.0493 3.4369448 2.5h4.2620676c-.539144-3.76922-3.7807102-6.66667-7.6990124-6.66667-3.9183021 0-7.1598683 2.89745-7.6990123 6.66667zm640.9654239-319.000002h46.078288c1.262689 2.988579 1.960856 6.273868 1.960856 9.722222 0 1.419634-.118328 2.811631-.34566 4.166667h-7.987673-30.831997-4.294066c1.897322 8.427303 9.427435 14.722222 18.427805 14.722222 7.440963 0 13.877007-4.302567 16.955989-10.555556h6.653054c-3.43197 9.709937-12.692295 16.666667-23.577452 16.666667-13.807119 0-25-11.192881-25-25 0-3.448354.698167-6.733643 1.960859-9.722223zm2.249002-4.166667c4.484786-6.699921 12.122319-11.111111 20.790142-11.111111s16.305356 4.41119 20.790142 11.111111zm8.59812 22.222222 24.32086.000001c-2.651614 3.876884-7.10891 6.421055-12.160429 6.421055-5.051518 0-9.508814-2.544171-12.160428-6.421055zm-6.201435-8.055555h4.262068c.468643-1.450702 1.830255-2.5 3.436945-2.5 1.606689 0 2.968302 1.049298 3.436944 2.5h4.262068c-.539144-3.769216-3.78071-6.666667-7.699012-6.666667-3.918303 0-7.159869 2.897451-7.699013 6.666667zm21.388889 0h4.262068c.468642-1.450702 1.830255-2.5 3.436944-2.5 1.60669 0 2.968302 1.049298 3.436945 2.5h4.262068c-.539144-3.769216-3.78071-6.666667-7.699013-6.666667-3.918302 0-7.159868 2.897451-7.699012 6.666667zm-499.034576 80.000002h46.078288c1.262689 2.98858 1.960856 6.27387 1.960856 9.72222 0 1.41963-.118328 2.81163-.34566 4.16667h-7.987673-30.831997-4.294066c1.897322 8.4273 9.427435 14.72222 18.427805 14.72222 7.440963 0 13.877007-4.30257 16.955989-10.55556h6.653054c-3.43197 9.70994-12.692295 16.66667-23.577452 16.66667-13.807119 0-25-11.19288-25-25 0-3.44835.698167-6.73364 1.960859-9.72222zm2.249002-4.16667c4.484786-6.69992 12.122319-11.11111 20.790142-11.11111s16.305356 4.41119 20.790142 11.11111zm8.59812 22.22222h24.32086c-2.651614 3.87689-7.10891 6.42106-12.160429 6.42106-5.051518 0-9.508814-2.54417-12.160428-6.42106zm-6.201435-8.05555h4.262068c.468643-1.4507 1.830255-2.5 3.436945-2.5 1.606689 0 2.968302 1.0493 3.436944 2.5h4.262068c-.539144-3.76922-3.78071-6.66667-7.699012-6.66667-3.918303 0-7.159869 2.89745-7.699013 6.66667zm21.388889 0h4.262068c.468642-1.4507 1.830255-2.5 3.436944-2.5 1.60669 0 2.968302 1.0493 3.436945 2.5h4.262068c-.539144-3.76922-3.78071-6.66667-7.699013-6.66667-3.918302 0-7.159868 2.89745-7.699012 6.66667zm532.965424 64h46.078288c1.262689 2.98858 1.960856 6.27387 1.960856 9.72222 0 1.41963-.118328 2.81163-.34566 4.16667h-7.987673-30.831997-4.294066c1.897322 8.4273 9.427435 14.72222 18.427805 14.72222 7.440963 0 13.877007-4.30257 16.955989-10.55556h6.653054c-3.43197 9.70994-12.692295 16.66667-23.577452 16.66667-13.807119 0-25-11.19288-25-25 0-3.44835.698167-6.73364 1.960859-9.72222zm2.249002-4.16667c4.484786-6.69992 12.122319-11.11111 20.790142-11.11111s16.305356 4.41119 20.790142 11.11111zm8.59812 22.22222h24.32086c-2.651614 3.87689-7.10891 6.42106-12.160429 6.42106-5.051518 0-9.508814-2.54417-12.160428-6.42106zm-6.201435-8.05555h4.262068c.468643-1.4507 1.830255-2.5 3.436945-2.5 1.606689 0 2.968302 1.0493 3.436944 2.5h4.262068c-.539144-3.76922-3.78071-6.66667-7.699012-6.66667-3.918303 0-7.159869 2.89745-7.699013 6.66667zm21.388889 0h4.262068c.468642-1.4507 1.830255-2.5 3.436944-2.5 1.60669 0 2.968302 1.0493 3.436945 2.5h4.262068c-.539144-3.76922-3.78071-6.66667-7.699013-6.66667-3.918302 0-7.159868 2.89745-7.699012 6.66667zm183.965428 160h46.07828c1.26269 2.98858 1.96086 6.27387 1.96086 9.72222 0 1.41963-.11833 2.81163-.34566 4.16667h-7.98767-30.832-4.29407c1.89733 8.4273 9.42744 14.72222 18.42781 14.72222 7.44096 0 13.87701-4.30257 16.95599-10.55556h6.65305c-3.43197 9.70994-12.69229 16.66667-23.57745 16.66667-13.80712 0-25-11.19288-25-25 0-3.44835.69817-6.73364 1.96086-9.72222zm2.249-4.16667c4.48478-6.69992 12.12232-11.11111 20.79014-11.11111s16.30536 4.41119 20.79014 11.11111zm8.59812 22.22222h24.32086c-2.65162 3.87689-7.10891 6.42106-12.16043 6.42106s-9.50882-2.54417-12.16043-6.42106zm-6.20144-8.05555h4.26207c.46864-1.4507 1.83026-2.5 3.43695-2.5 1.60668 0 2.9683 1.0493 3.43694 2.5h4.26207c-.53915-3.76922-3.78071-6.66667-7.69901-6.66667-3.91831 0-7.15987 2.89745-7.69902 6.66667zm21.38889 0h4.26207c.46864-1.4507 1.83026-2.5 3.43694-2.5 1.60669 0 2.96831 1.0493 3.43695 2.5h4.26207c-.53915-3.76922-3.78071-6.66667-7.69902-6.66667-3.9183 0-7.15986 2.89745-7.69901 6.66667zm-141.034574-307h46.078288c1.262689 2.98858 1.960856 6.27387 1.960856 9.72222 0 1.41963-.118328 2.81163-.34566 4.16667h-7.987673-30.831997-4.294066c1.897322 8.4273 9.427435 14.72222 18.427805 14.72222 7.440963 0 13.877007-4.30257 16.955989-10.55556h6.653054c-3.43197 9.70994-12.692295 16.66667-23.577452 16.66667-13.807119 0-25-11.19288-25-25 0-3.44835.698167-6.73364 1.960859-9.72222zm2.249002-4.166669c4.484786-6.699921 12.122319-11.111111 20.790142-11.111111s16.305356 4.41119 20.790142 11.111111zm8.59812 22.222219h24.32086c-2.651614 3.87689-7.10891 6.42106-12.160429 6.42106-5.051518 0-9.508814-2.54417-12.160428-6.42106zm-6.201435-8.05555h4.262068c.468643-1.4507 1.830255-2.5 3.436945-2.5 1.606689 0 2.968302 1.0493 3.436944 2.5h4.262068c-.539144-3.76922-3.78071-6.66667-7.699012-6.66667-3.918303 0-7.159869 2.89745-7.699013 6.66667zm21.388889 0h4.262068c.468642-1.4507 1.830255-2.5 3.436944-2.5 1.60669 0 2.968302 1.0493 3.436945 2.5h4.262068c-.539144-3.76922-3.78071-6.66667-7.699013-6.66667-3.918302 0-7.159868 2.89745-7.699012 6.66667zm38.965424-164.000002h46.078284c1.26269 2.988579 1.96086 6.273868 1.96086 9.722222 0 1.419634-.11833 2.811631-.34566 4.166667h-7.987673-30.831997-4.294066c1.897322 8.427303 9.427435 14.722222 18.427805 14.722222 7.440963 0 13.877007-4.302567 16.955989-10.555556h6.653052c-3.43197 9.709937-12.692293 16.666667-23.57745 16.666667-13.807119 0-25-11.192881-25-25 0-3.448354.698167-6.733643 1.960859-9.722223zm2.249002-4.166667c4.484786-6.699921 12.122319-11.111111 20.790142-11.111111s16.305356 4.41119 20.79014 11.111111zm8.59812 22.222222 24.32086.000001c-2.651614 3.876884-7.10891 6.421055-12.160429 6.421055-5.051518 0-9.508814-2.544171-12.160428-6.421055zm-6.201435-8.055555h4.262068c.468643-1.450702 1.830255-2.5 3.436945-2.5 1.606689 0 2.968302 1.049298 3.436944 2.5h4.262068c-.539144-3.769216-3.78071-6.666667-7.699012-6.666667-3.918303 0-7.159869 2.897451-7.699013 6.666667zm21.388889 0h4.262068c.468642-1.450702 1.830255-2.5 3.436944-2.5 1.60669 0 2.968302 1.049298 3.436945 2.5h4.262068c-.539144-3.769216-3.78071-6.666667-7.699013-6.666667-3.918302 0-7.159868 2.897451-7.699012 6.666667zm213.965428-115h46.07828c1.26269 2.988579 1.96086 6.273868 1.96086 9.722222 0 1.419634-.11833 2.811631-.34566 4.166667h-7.98767-30.832-4.29407c1.89733 8.427303 9.42744 14.722222 18.42781 14.722222 7.44096 0 13.87701-4.302567 16.95599-10.555556h6.65305c-3.43197 9.709937-12.69229 16.666667-23.57745 16.666667-13.80712 0-25-11.192881-25-25 0-3.448354.69817-6.733643 1.96086-9.722223zm2.249-4.166667c4.48478-6.699921 12.12232-11.111111 20.79014-11.111111s16.30536 4.41119 20.79014 11.111111zm8.59812 22.222222 24.32086.000001c-2.65162 3.876884-7.10891 6.421055-12.16043 6.421055s-9.50882-2.544171-12.16043-6.421055zm-6.20144-8.055555h4.26207c.46864-1.450702 1.83026-2.5 3.43695-2.5 1.60668 0 2.9683 1.049298 3.43694 2.5h4.26207c-.53915-3.769216-3.78071-6.666667-7.69901-6.666667-3.91831 0-7.15987 2.897451-7.69902 6.666667zm21.38889 0h4.26207c.46864-1.450702 1.83026-2.5 3.43694-2.5 1.60669 0 2.96831 1.049298 3.43695 2.5h4.26207c-.53915-3.769216-3.78071-6.666667-7.69902-6.666667-3.9183 0-7.15986 2.897451-7.69901 6.666667zm-148.03457 247h46.07828c1.26269 2.988582 1.96086 6.273872 1.96086 9.722222 0 1.41963-.11833 2.81163-.34566 4.16667h-7.98767-30.832-4.29407c1.89733 8.4273 9.42744 14.72222 18.42781 14.72222 7.44096 0 13.87701-4.30257 16.95599-10.55556h6.65305c-3.43197 9.70994-12.69229 16.66667-23.57745 16.66667-13.80712 0-25-11.19288-25-25 0-3.44835.69817-6.73364 1.96086-9.722223zm2.249-4.166667c4.48478-6.699921 12.12232-11.111111 20.79014-11.111111s16.30536 4.41119 20.79014 11.111111zm8.59812 22.222219h24.32086c-2.65162 3.87689-7.10891 6.42106-12.16043 6.42106s-9.50882-2.54417-12.16043-6.42106zm-6.20144-8.05555h4.26207c.46864-1.4507 1.83026-2.5 3.43695-2.5 1.60668 0 2.9683 1.0493 3.43694 2.5h4.26207c-.53915-3.76922-3.78071-6.66667-7.69901-6.66667-3.91831 0-7.15987 2.89745-7.69902 6.66667zm21.38889 0h4.26207c.46864-1.4507 1.83026-2.5 3.43694-2.5 1.60669 0 2.96831 1.0493 3.43695 2.5h4.26207c-.53915-3.76922-3.78071-6.66667-7.69902-6.66667-3.9183 0-7.15986 2.89745-7.69901 6.66667z" fill="url(#a)" fill-rule="evenodd" opacity=".15"/></svg>