<?xml version="1.0" encoding="UTF-8"?>
<svg width="1200px" height="510px" viewBox="0 0 1200 510" version="1.1" xmlns="http://www.w3.org/2000/svg" xmlns:xlink="http://www.w3.org/1999/xlink">
    <!-- Generator: Sketch 55 (78076) - https://sketchapp.com -->
    <title>bg--white-lines</title>
    <desc>Created with Sketch.</desc>
    <defs>
        <path d="M344.78868,-8.52651283e-14 L1200,-8.52651283e-14 L1200,283.23044 C1165.39279,282.66471 1132.50431,280.825777 1119.32825,280.481662 C1090.22687,279.721629 1060.88908,280.426551 1032.10596,276.067679 C962.832255,265.576975 928.133777,247.038139 862.683837,230.481462 C848.204665,226.818709 818.830881,221.349876 801.601299,225.663488 C786.945354,229.332762 773.373782,236.549064 758.862974,240.755817 C729.826043,249.173766 693.957739,255.211683 663.595761,250.132413 C535.275411,228.665643 494.82969,143.879596 408.412698,60.3012321 C378.486152,31.3577138 358.467589,12.5278475 344.78868,-1.73567827e-11 Z" id="path-1"></path>
    </defs>
    <g id="bg--white-lines" stroke="none" stroke-width="1" fill="none" fill-rule="evenodd">
        <mask id="mask-2" fill="white">
            <use xlink:href="#path-1"></use>
        </mask>
        <use id="Combined-Shape" fill="#000000" opacity="0" xlink:href="#path-1"></use>
        <g id="Group-2" opacity="0.049999997" mask="url(#mask-2)" stroke="#FFFFFF" stroke-linecap="square">
            <g transform="translate(880.500000, 167.000000) rotate(-20.000000) translate(-880.500000, -167.000000) translate(320.000000, -210.500000)" id="Line">
                <path d="M0.5,0 L0.5,755"></path>
                <path d="M10.5,0 L10.5,755"></path>
                <path d="M20.5,0 L20.5,755"></path>
                <path d="M30.5,0 L30.5,755"></path>
                <path d="M40.5,0 L40.5,755"></path>
                <path d="M50.5,0 L50.5,755"></path>
                <path d="M60.5,0 L60.5,755"></path>
                <path d="M70.5,0 L70.5,755"></path>
                <path d="M80.5,0 L80.5,755"></path>
                <path d="M90.5,0 L90.5,755"></path>
                <path d="M100.5,0 L100.5,755"></path>
                <path d="M110.5,0 L110.5,755"></path>
                <path d="M120.5,0 L120.5,755"></path>
                <path d="M130.5,0 L130.5,755"></path>
                <path d="M140.5,0 L140.5,755"></path>
                <path d="M150.5,0 L150.5,755"></path>
                <path d="M160.5,0 L160.5,755"></path>
                <path d="M160.5,0 L160.5,755"></path>
                <path d="M170.5,0 L170.5,755"></path>
                <path d="M180.5,0 L180.5,755"></path>
                <path d="M190.5,0 L190.5,755"></path>
                <path d="M200.5,0 L200.5,755"></path>
                <path d="M210.5,0 L210.5,755"></path>
                <path d="M220.5,0 L220.5,755"></path>
                <path d="M230.5,0 L230.5,755"></path>
                <path d="M240.5,0 L240.5,755"></path>
                <path d="M250.5,0 L250.5,755"></path>
                <path d="M260.5,0 L260.5,755"></path>
                <path d="M270.5,0 L270.5,755"></path>
                <path d="M280.5,0 L280.5,755"></path>
                <path d="M290.5,0 L290.5,755"></path>
                <path d="M300.5,0 L300.5,755"></path>
                <path d="M310.5,0 L310.5,755"></path>
                <path d="M320.5,0 L320.5,755"></path>
                <path d="M320.5,0 L320.5,755"></path>
                <path d="M330.5,0 L330.5,755"></path>
                <path d="M340.5,0 L340.5,755"></path>
                <path d="M350.5,0 L350.5,755"></path>
                <path d="M360.5,0 L360.5,755"></path>
                <path d="M370.5,0 L370.5,755"></path>
                <path d="M380.5,0 L380.5,755"></path>
                <path d="M390.5,0 L390.5,755"></path>
                <path d="M400.5,0 L400.5,755"></path>
                <path d="M410.5,0 L410.5,755"></path>
                <path d="M420.5,0 L420.5,755"></path>
                <path d="M430.5,0 L430.5,755"></path>
                <path d="M440.5,0 L440.5,755"></path>
                <path d="M450.5,0 L450.5,755"></path>
                <path d="M460.5,0 L460.5,755"></path>
                <path d="M470.5,0 L470.5,755"></path>
                <path d="M480.5,0 L480.5,755"></path>
                <path d="M480.5,0 L480.5,755"></path>
                <path d="M490.5,0 L490.5,755"></path>
                <path d="M500.5,0 L500.5,755"></path>
                <path d="M510.5,0 L510.5,755"></path>
                <path d="M520.5,0 L520.5,755"></path>
                <path d="M530.5,0 L530.5,755"></path>
                <path d="M540.5,0 L540.5,755"></path>
                <path d="M550.5,0 L550.5,755"></path>
                <path d="M560.5,0 L560.5,755"></path>
                <path d="M570.5,0 L570.5,755"></path>
                <path d="M580.5,0 L580.5,755"></path>
                <path d="M590.5,0 L590.5,755"></path>
                <path d="M600.5,0 L600.5,755"></path>
                <path d="M610.5,0 L610.5,755"></path>
                <path d="M620.5,0 L620.5,755"></path>
                <path d="M630.5,0 L630.5,755"></path>
                <path d="M640.5,0 L640.5,755"></path>
                <path d="M640.5,0 L640.5,755"></path>
                <path d="M650.5,0 L650.5,755"></path>
                <path d="M660.5,0 L660.5,755"></path>
                <path d="M670.5,0 L670.5,755"></path>
                <path d="M680.5,0 L680.5,755"></path>
                <path d="M690.5,0 L690.5,755"></path>
                <path d="M700.5,0 L700.5,755"></path>
                <path d="M710.5,0 L710.5,755"></path>
                <path d="M720.5,0 L720.5,755"></path>
                <path d="M730.5,0 L730.5,755"></path>
                <path d="M740.5,0 L740.5,755"></path>
                <path d="M750.5,0 L750.5,755"></path>
                <path d="M760.5,0 L760.5,755"></path>
                <path d="M770.5,0 L770.5,755"></path>
                <path d="M780.5,0 L780.5,755"></path>
                <path d="M790.5,0 L790.5,755"></path>
                <path d="M800.5,0 L800.5,755"></path>
                <path d="M800.5,0 L800.5,755"></path>
                <path d="M810.5,0 L810.5,755"></path>
                <path d="M820.5,0 L820.5,755"></path>
                <path d="M830.5,0 L830.5,755"></path>
                <path d="M840.5,0 L840.5,755"></path>
                <path d="M850.5,0 L850.5,755"></path>
                <path d="M860.5,0 L860.5,755"></path>
                <path d="M870.5,0 L870.5,755"></path>
                <path d="M880.5,0 L880.5,755"></path>
                <path d="M890.5,0 L890.5,755"></path>
                <path d="M900.5,0 L900.5,755"></path>
                <path d="M910.5,0 L910.5,755"></path>
                <path d="M920.5,0 L920.5,755"></path>
                <path d="M930.5,0 L930.5,755"></path>
                <path d="M940.5,0 L940.5,755"></path>
                <path d="M950.5,0 L950.5,755"></path>
                <path d="M960.5,0 L960.5,755"></path>
                <path d="M960.5,0 L960.5,755"></path>
                <path d="M970.5,0 L970.5,755"></path>
                <path d="M980.5,0 L980.5,755"></path>
                <path d="M990.5,0 L990.5,755"></path>
                <path d="M1000.5,0 L1000.5,755"></path>
                <path d="M1010.5,0 L1010.5,755"></path>
                <path d="M1020.5,0 L1020.5,755"></path>
                <path d="M1030.5,0 L1030.5,755"></path>
            </g>
        </g>
    </g>
</svg>