<svg height="510" viewBox="0 0 1200 510" width="1200" xmlns="http://www.w3.org/2000/svg" xmlns:xlink="http://www.w3.org/1999/xlink"><defs><path id="a" d="m344.78868 0h855.21132v283.23044c-34.60721-.56573-67.49569-2.404663-80.67175-2.748778-29.10138-.760033-58.43917-.055111-87.22229-4.413983-69.273705-10.490704-103.972183-29.02954-169.422123-45.586217-14.479172-3.662753-43.852956-9.131586-61.082538-4.817974-14.655945 3.669274-28.227517 10.885576-42.738325 15.092329-29.036931 8.417949-64.905235 14.455866-95.267213 9.376596-128.32035-21.46677-168.766071-106.252817-255.183063-189.8311809-29.926546-28.9435183-49.945109-47.7733846-63.624018-60.3012321z"/><mask id="b" fill="#fff"><use fill="#fff" fill-rule="evenodd" xlink:href="#a"/></mask></defs><g fill="none" fill-rule="evenodd"><use fill="#000" opacity="0" xlink:href="#a"/><g mask="url(#b)" opacity=".05" stroke="#fff" stroke-linecap="square"><g transform="matrix(.93969262 -.34202014 .34202014 .93969262 224.689682 3.968326)"><path d="m.5 0v755"/><path d="m10.5 0v755"/><path d="m20.5 0v755"/><path d="m30.5 0v755"/><path d="m40.5 0v755"/><path d="m50.5 0v755"/><path d="m60.5 0v755"/><path d="m70.5 0v755"/><path d="m80.5 0v755"/><path d="m90.5 0v755"/><path d="m100.5 0v755"/><path d="m110.5 0v755"/><path d="m120.5 0v755"/><path d="m130.5 0v755"/><path d="m140.5 0v755"/><path d="m150.5 0v755"/><path d="m160.5 0v755"/><path d="m160.5 0v755"/><path d="m170.5 0v755"/><path d="m180.5 0v755"/><path d="m190.5 0v755"/><path d="m200.5 0v755"/><path d="m210.5 0v755"/><path d="m220.5 0v755"/><path d="m230.5 0v755"/><path d="m240.5 0v755"/><path d="m250.5 0v755"/><path d="m260.5 0v755"/><path d="m270.5 0v755"/><path d="m280.5 0v755"/><path d="m290.5 0v755"/><path d="m300.5 0v755"/><path d="m310.5 0v755"/><path d="m320.5 0v755"/><path d="m320.5 0v755"/><path d="m330.5 0v755"/><path d="m340.5 0v755"/><path d="m350.5 0v755"/><path d="m360.5 0v755"/><path d="m370.5 0v755"/><path d="m380.5 0v755"/><path d="m390.5 0v755"/><path d="m400.5 0v755"/><path d="m410.5 0v755"/><path d="m420.5 0v755"/><path d="m430.5 0v755"/><path d="m440.5 0v755"/><path d="m450.5 0v755"/><path d="m460.5 0v755"/><path d="m470.5 0v755"/><path d="m480.5 0v755"/><path d="m480.5 0v755"/><path d="m490.5 0v755"/><path d="m500.5 0v755"/><path d="m510.5 0v755"/><path d="m520.5 0v755"/><path d="m530.5 0v755"/><path d="m540.5 0v755"/><path d="m550.5 0v755"/><path d="m560.5 0v755"/><path d="m570.5 0v755"/><path d="m580.5 0v755"/><path d="m590.5 0v755"/><path d="m600.5 0v755"/><path d="m610.5 0v755"/><path d="m620.5 0v755"/><path d="m630.5 0v755"/><path d="m640.5 0v755"/><path d="m640.5 0v755"/><path d="m650.5 0v755"/><path d="m660.5 0v755"/><path d="m670.5 0v755"/><path d="m680.5 0v755"/><path d="m690.5 0v755"/><path d="m700.5 0v755"/><path d="m710.5 0v755"/><path d="m720.5 0v755"/><path d="m730.5 0v755"/><path d="m740.5 0v755"/><path d="m750.5 0v755"/><path d="m760.5 0v755"/><path d="m770.5 0v755"/><path d="m780.5 0v755"/><path d="m790.5 0v755"/><path d="m800.5 0v755"/><path d="m800.5 0v755"/><path d="m810.5 0v755"/><path d="m820.5 0v755"/><path d="m830.5 0v755"/><path d="m840.5 0v755"/><path d="m850.5 0v755"/><path d="m860.5 0v755"/><path d="m870.5 0v755"/><path d="m880.5 0v755"/><path d="m890.5 0v755"/><path d="m900.5 0v755"/><path d="m910.5 0v755"/><path d="m920.5 0v755"/><path d="m930.5 0v755"/><path d="m940.5 0v755"/><path d="m950.5 0v755"/><path d="m960.5 0v755"/><path d="m960.5 0v755"/><path d="m970.5 0v755"/><path d="m980.5 0v755"/><path d="m990.5 0v755"/><path d="m1000.5 0v755"/><path d="m1010.5 0v755"/><path d="m1020.5 0v755"/><path d="m1030.5 0v755"/></g></g></g></svg>