<?xml version="1.0" encoding="UTF-8"?>
<svg width="1263px" height="1373px" viewBox="0 0 1263 1373" version="1.1" xmlns="http://www.w3.org/2000/svg" xmlns:xlink="http://www.w3.org/1999/xlink">
    <!-- Generator: Sketch 53.2 (72643) - https://sketchapp.com -->
    <title>bg--warai-kamen</title>
    <desc>Created with Sketch.</desc>
    <defs>
        <radialGradient cx="49.5301984%" cy="30.7745926%" fx="49.5301984%" fy="30.7745926%" r="70.291778%" gradientTransform="translate(0.495302,0.307746),scale(1.000000,0.919883),rotate(90.000000),translate(-0.495302,-0.307746)" id="radialGradient-1">
            <stop stop-color="#FFFFFF" stop-opacity="0.133825319" offset="0%"></stop>
            <stop stop-color="#FFFFFF" offset="100%"></stop>
        </radialGradient>
    </defs>
    <g id="Page-1" stroke="none" stroke-width="1" fill="none" fill-rule="evenodd" opacity="0.149999991">
        <g id="bg--warai-kamen" fill="url(#radialGradient-1)">
            <path d="M380.921712,71.5555556 L473.078288,71.5555556 C475.603665,77.5327147 477,84.1032916 477,91 C477,93.8392684 476.763343,96.6232627 476.30868,99.3333333 L460.333333,99.3333333 L398.669339,99.3333333 L390.081207,99.3333333 C393.875852,116.18794 408.936078,128.777778 426.936819,128.777778 C441.818744,128.777778 454.690833,120.172644 460.848795,107.666667 L474.154905,107.666667 C467.290965,127.08654 448.770314,141 427,141 C399.385763,141 377,118.614237 377,91 C377,84.1032916 378.396335,77.5327147 380.921719,71.5555545 Z M385.419717,63.2222222 C394.389287,49.8223806 409.664355,41 427,41 C444.335645,41 459.610713,49.8223806 468.580283,63.2222222 L385.419717,63.2222222 Z M402.615956,107.666667 L451.257676,107.666668 C445.954448,115.420436 437.039856,120.508779 426.936819,120.508779 C416.833781,120.508779 407.91919,115.420436 402.615962,107.666668 Z M390.213086,91.5555556 L398.737222,91.5555556 C399.674507,88.6541511 402.397732,86.5555556 405.611111,86.5555556 C408.82449,86.5555556 411.547715,88.6541511 412.485001,91.5555556 L421.009136,91.5555556 C419.930848,84.0171241 413.447715,78.2222222 405.611111,78.2222222 C397.774507,78.2222222 391.291374,84.0171241 390.213086,91.5555556 Z M432.990864,91.5555556 L441.514999,91.5555556 C442.452285,88.6541511 445.17551,86.5555556 448.388889,86.5555556 C451.602268,86.5555556 454.325493,88.6541511 455.262778,91.5555556 L463.786914,91.5555556 C462.708626,84.0171241 456.225493,78.2222222 448.388889,78.2222222 C440.552285,78.2222222 434.069152,84.0171241 432.990864,91.5555556 Z M203.921712,241.555556 L296.078288,241.555556 C298.603665,247.532715 300,254.103292 300,261 C300,263.839268 299.763343,266.623263 299.30868,269.333333 L283.333333,269.333333 L221.669339,269.333333 L213.081207,269.333333 C216.875852,286.18794 231.936078,298.777778 249.936819,298.777778 C264.818744,298.777778 277.690833,290.172644 283.848795,277.666667 L297.154905,277.666667 C290.290965,297.08654 271.770314,311 250,311 C222.385763,311 200,288.614237 200,261 C200,254.103292 201.396335,247.532715 203.921719,241.555554 Z M208.419717,233.222222 C217.389287,219.822381 232.664355,211 250,211 C267.335645,211 282.610713,219.822381 291.580283,233.222222 L208.419717,233.222222 Z M225.615956,277.666667 L274.257676,277.666668 C268.954448,285.420436 260.039856,290.508779 249.936819,290.508779 C239.833781,290.508779 230.91919,285.420436 225.615962,277.666668 Z M213.213086,261.555556 L221.737222,261.555556 C222.674507,258.654151 225.397732,256.555556 228.611111,256.555556 C231.82449,256.555556 234.547715,258.654151 235.485001,261.555556 L244.009136,261.555556 C242.930848,254.017124 236.447715,248.222222 228.611111,248.222222 C220.774507,248.222222 214.291374,254.017124 213.213086,261.555556 Z M255.990864,261.555556 L264.514999,261.555556 C265.452285,258.654151 268.17551,256.555556 271.388889,256.555556 C274.602268,256.555556 277.325493,258.654151 278.262778,261.555556 L286.786914,261.555556 C285.708626,254.017124 279.225493,248.222222 271.388889,248.222222 C263.552285,248.222222 257.069152,254.017124 255.990864,261.555556 Z M3.9217118,367.555556 L96.0782882,367.555556 C98.6036654,373.532715 100,380.103292 100,387 C100,389.839268 99.7633434,392.623263 99.3086797,395.333333 L83.3333333,395.333333 L21.6693393,395.333333 L13.0812073,395.333333 C16.875852,412.18794 31.9360784,424.777778 49.9368189,424.777778 C64.818744,424.777778 77.6908325,416.172644 83.8487954,403.666667 L97.1549049,403.666667 C90.2909647,423.08654 71.7703138,437 50,437 C22.3857625,437 0,414.614237 0,387 C0,380.103292 1.39633461,373.532715 3.92171855,367.555554 Z M8.41971687,359.222222 C17.3892874,345.822381 32.664355,337 50,337 C67.335645,337 82.6107126,345.822381 91.5802831,359.222222 L8.41971687,359.222222 Z M25.6159559,403.666667 L74.2576756,403.666668 C68.9544479,411.420436 60.0398565,416.508779 49.9368189,416.508779 C39.8337814,416.508779 30.9191899,411.420436 25.6159622,403.666668 Z M13.2130864,387.555556 L21.7372215,387.555556 C22.6745071,384.654151 25.3977325,382.555556 28.6111111,382.555556 C31.8244898,382.555556 34.5477152,384.654151 35.4850007,387.555556 L44.0091359,387.555556 C42.9308477,380.017124 36.4477154,374.222222 28.6111111,374.222222 C20.7745069,374.222222 14.2913745,380.017124 13.2130864,387.555556 Z M55.9908641,387.555556 L64.5149993,387.555556 C65.4522848,384.654151 68.1755102,382.555556 71.3888889,382.555556 C74.6022675,382.555556 77.3254929,384.654151 78.2627785,387.555556 L86.7869136,387.555556 C85.7086255,380.017124 79.2254931,374.222222 71.3888889,374.222222 C63.5522846,374.222222 57.0691523,380.017124 55.9908641,387.555556 Z M537.921712,286.555556 L630.078288,286.555556 C632.603665,292.532715 634,299.103292 634,306 C634,308.839268 633.763343,311.623263 633.30868,314.333333 L617.333333,314.333333 L555.669339,314.333333 L547.081207,314.333333 C550.875852,331.18794 565.936078,343.777778 583.936819,343.777778 C598.818744,343.777778 611.690833,335.172644 617.848795,322.666667 L631.154905,322.666667 C624.290965,342.08654 605.770314,356 584,356 C556.385763,356 534,333.614237 534,306 C534,299.103292 535.396335,292.532715 537.921719,286.555554 Z M542.419717,278.222222 C551.389287,264.822381 566.664355,256 584,256 C601.335645,256 616.610713,264.822381 625.580283,278.222222 L542.419717,278.222222 Z M559.615956,322.666667 L608.257676,322.666668 C602.954448,330.420436 594.039856,335.508779 583.936819,335.508779 C573.833781,335.508779 564.91919,330.420436 559.615962,322.666668 Z M547.213086,306.555556 L555.737222,306.555556 C556.674507,303.654151 559.397732,301.555556 562.611111,301.555556 C565.82449,301.555556 568.547715,303.654151 569.485001,306.555556 L578.009136,306.555556 C576.930848,299.017124 570.447715,293.222222 562.611111,293.222222 C554.774507,293.222222 548.291374,299.017124 547.213086,306.555556 Z M589.990864,306.555556 L598.514999,306.555556 C599.452285,303.654151 602.17551,301.555556 605.388889,301.555556 C608.602268,301.555556 611.325493,303.654151 612.262778,306.555556 L620.786914,306.555556 C619.708626,299.017124 613.225493,293.222222 605.388889,293.222222 C597.552285,293.222222 591.069152,299.017124 589.990864,306.555556 Z M1063.92171,130.555556 L1156.07829,130.555556 C1158.60367,136.532715 1160,143.103292 1160,150 C1160,152.839268 1159.76334,155.623263 1159.30868,158.333333 L1143.33333,158.333333 L1081.66934,158.333333 L1073.08121,158.333333 C1076.87585,175.18794 1091.93608,187.777778 1109.93682,187.777778 C1124.81874,187.777778 1137.69083,179.172644 1143.8488,166.666667 L1157.1549,166.666667 C1150.29096,186.08654 1131.77031,200 1110,200 C1082.38576,200 1060,177.614237 1060,150 C1060,143.103292 1061.39633,136.532715 1063.92172,130.555554 Z M1068.41972,122.222222 C1077.38929,108.822381 1092.66435,100 1110,100 C1127.33565,100 1142.61071,108.822381 1151.58028,122.222222 L1068.41972,122.222222 Z M1085.61596,166.666667 L1134.25768,166.666668 C1128.95445,174.420436 1120.03986,179.508779 1109.93682,179.508779 C1099.83378,179.508779 1090.91919,174.420436 1085.61596,166.666668 Z M1073.21309,150.555556 L1081.73722,150.555556 C1082.67451,147.654151 1085.39773,145.555556 1088.61111,145.555556 C1091.82449,145.555556 1094.54772,147.654151 1095.485,150.555556 L1104.00914,150.555556 C1102.93085,143.017124 1096.44772,137.222222 1088.61111,137.222222 C1080.77451,137.222222 1074.29137,143.017124 1073.21309,150.555556 Z M1115.99086,150.555556 L1124.515,150.555556 C1125.45228,147.654151 1128.17551,145.555556 1131.38889,145.555556 C1134.60227,145.555556 1137.32549,147.654151 1138.26278,150.555556 L1146.78691,150.555556 C1145.70863,143.017124 1139.22549,137.222222 1131.38889,137.222222 C1123.55228,137.222222 1117.06915,143.017124 1115.99086,150.555556 Z M1081.92171,528.555556 L1174.07829,528.555556 C1176.60367,534.532715 1178,541.103292 1178,548 C1178,550.839268 1177.76334,553.623263 1177.30868,556.333333 L1161.33333,556.333333 L1099.66934,556.333333 L1091.08121,556.333333 C1094.87585,573.18794 1109.93608,585.777778 1127.93682,585.777778 C1142.81874,585.777778 1155.69083,577.172644 1161.8488,564.666667 L1175.1549,564.666667 C1168.29096,584.08654 1149.77031,598 1128,598 C1100.38576,598 1078,575.614237 1078,548 C1078,541.103292 1079.39633,534.532715 1081.92172,528.555554 Z M1086.41972,520.222222 C1095.38929,506.822381 1110.66435,498 1128,498 C1145.33565,498 1160.61071,506.822381 1169.58028,520.222222 L1086.41972,520.222222 Z M1103.61596,564.666667 L1152.25768,564.666668 C1146.95445,572.420436 1138.03986,577.508779 1127.93682,577.508779 C1117.83378,577.508779 1108.91919,572.420436 1103.61596,564.666668 Z M1091.21309,548.555556 L1099.73722,548.555556 C1100.67451,545.654151 1103.39773,543.555556 1106.61111,543.555556 C1109.82449,543.555556 1112.54772,545.654151 1113.485,548.555556 L1122.00914,548.555556 C1120.93085,541.017124 1114.44772,535.222222 1106.61111,535.222222 C1098.77451,535.222222 1092.29137,541.017124 1091.21309,548.555556 Z M1133.99086,548.555556 L1142.515,548.555556 C1143.45228,545.654151 1146.17551,543.555556 1149.38889,543.555556 C1152.60227,543.555556 1155.32549,545.654151 1156.26278,548.555556 L1164.78691,548.555556 C1163.70863,541.017124 1157.22549,535.222222 1149.38889,535.222222 C1141.55228,535.222222 1135.06915,541.017124 1133.99086,548.555556 Z M928.921712,375.555556 L1021.07829,375.555556 C1023.60367,381.532715 1025,388.103292 1025,395 C1025,397.839268 1024.76334,400.623263 1024.30868,403.333333 L1008.33333,403.333333 L946.669339,403.333333 L938.081207,403.333333 C941.875852,420.18794 956.936078,432.777778 974.936819,432.777778 C989.818744,432.777778 1002.69083,424.172644 1008.8488,411.666667 L1022.1549,411.666667 C1015.29096,431.08654 996.770314,445 975,445 C947.385763,445 925,422.614237 925,395 C925,388.103292 926.396335,381.532715 928.921719,375.555554 Z M933.419717,367.222222 C942.389287,353.822381 957.664355,345 975,345 C992.335645,345 1007.61071,353.822381 1016.58028,367.222222 L933.419717,367.222222 Z M950.615956,411.666667 L999.257676,411.666668 C993.954448,419.420436 985.039856,424.508779 974.936819,424.508779 C964.833781,424.508779 955.91919,419.420436 950.615962,411.666668 Z M938.213086,395.555556 L946.737222,395.555556 C947.674507,392.654151 950.397732,390.555556 953.611111,390.555556 C956.82449,390.555556 959.547715,392.654151 960.485001,395.555556 L969.009136,395.555556 C967.930848,388.017124 961.447715,382.222222 953.611111,382.222222 C945.774507,382.222222 939.291374,388.017124 938.213086,395.555556 Z M980.990864,395.555556 L989.514999,395.555556 C990.452285,392.654151 993.17551,390.555556 996.388889,390.555556 C999.602268,390.555556 1002.32549,392.654151 1003.26278,395.555556 L1011.78691,395.555556 C1010.70863,388.017124 1004.22549,382.222222 996.388889,382.222222 C988.552285,382.222222 982.069152,388.017124 980.990864,395.555556 Z M1166.92171,403.555556 L1259.07829,403.555556 C1261.60367,409.532715 1263,416.103292 1263,423 C1263,425.839268 1262.76334,428.623263 1262.30868,431.333333 L1246.33333,431.333333 L1184.66934,431.333333 L1176.08121,431.333333 C1179.87585,448.18794 1194.93608,460.777778 1212.93682,460.777778 C1227.81874,460.777778 1240.69083,452.172644 1246.8488,439.666667 L1260.1549,439.666667 C1253.29096,459.08654 1234.77031,473 1213,473 C1185.38576,473 1163,450.614237 1163,423 C1163,416.103292 1164.39633,409.532715 1166.92172,403.555554 Z M1171.41972,395.222222 C1180.38929,381.822381 1195.66435,373 1213,373 C1230.33565,373 1245.61071,381.822381 1254.58028,395.222222 L1171.41972,395.222222 Z M1188.61596,439.666667 L1237.25768,439.666668 C1231.95445,447.420436 1223.03986,452.508779 1212.93682,452.508779 C1202.83378,452.508779 1193.91919,447.420436 1188.61596,439.666668 Z M1176.21309,423.555556 L1184.73722,423.555556 C1185.67451,420.654151 1188.39773,418.555556 1191.61111,418.555556 C1194.82449,418.555556 1197.54772,420.654151 1198.485,423.555556 L1207.00914,423.555556 C1205.93085,416.017124 1199.44772,410.222222 1191.61111,410.222222 C1183.77451,410.222222 1177.29137,416.017124 1176.21309,423.555556 Z M1218.99086,423.555556 L1227.515,423.555556 C1228.45228,420.654151 1231.17551,418.555556 1234.38889,418.555556 C1237.60227,418.555556 1240.32549,420.654151 1241.26278,423.555556 L1249.78691,423.555556 C1248.70863,416.017124 1242.22549,410.222222 1234.38889,410.222222 C1226.55228,410.222222 1220.06915,416.017124 1218.99086,423.555556 Z M791.921712,191.555556 L884.078288,191.555556 C886.603665,197.532715 888,204.103292 888,211 C888,213.839268 887.763343,216.623263 887.30868,219.333333 L871.333333,219.333333 L809.669339,219.333333 L801.081207,219.333333 C804.875852,236.18794 819.936078,248.777778 837.936819,248.777778 C852.818744,248.777778 865.690833,240.172644 871.848795,227.666667 L885.154905,227.666667 C878.290965,247.08654 859.770314,261 838,261 C810.385763,261 788,238.614237 788,211 C788,204.103292 789.396335,197.532715 791.921719,191.555554 Z M796.419717,183.222222 C805.389287,169.822381 820.664355,161 838,161 C855.335645,161 870.610713,169.822381 879.580283,183.222222 L796.419717,183.222222 Z M813.615956,227.666667 L862.257676,227.666668 C856.954448,235.420436 848.039856,240.508779 837.936819,240.508779 C827.833781,240.508779 818.91919,235.420436 813.615962,227.666668 Z M801.213086,211.555556 L809.737222,211.555556 C810.674507,208.654151 813.397732,206.555556 816.611111,206.555556 C819.82449,206.555556 822.547715,208.654151 823.485001,211.555556 L832.009136,211.555556 C830.930848,204.017124 824.447715,198.222222 816.611111,198.222222 C808.774507,198.222222 802.291374,204.017124 801.213086,211.555556 Z M843.990864,211.555556 L852.514999,211.555556 C853.452285,208.654151 856.17551,206.555556 859.388889,206.555556 C862.602268,206.555556 865.325493,208.654151 866.262778,211.555556 L874.786914,211.555556 C873.708626,204.017124 867.225493,198.222222 859.388889,198.222222 C851.552285,198.222222 845.069152,204.017124 843.990864,211.555556 Z M307.921712,458.555556 L400.078288,458.555556 C402.603665,464.532715 404,471.103292 404,478 C404,480.839268 403.763343,483.623263 403.30868,486.333333 L387.333333,486.333333 L325.669339,486.333333 L317.081207,486.333333 C320.875852,503.18794 335.936078,515.777778 353.936819,515.777778 C368.818744,515.777778 381.690833,507.172644 387.848795,494.666667 L401.154905,494.666667 C394.290965,514.08654 375.770314,528 354,528 C326.385763,528 304,505.614237 304,478 C304,471.103292 305.396335,464.532715 307.921719,458.555554 Z M312.419717,450.222222 C321.389287,436.822381 336.664355,428 354,428 C371.335645,428 386.610713,436.822381 395.580283,450.222222 L312.419717,450.222222 Z M329.615956,494.666667 L378.257676,494.666668 C372.954448,502.420436 364.039856,507.508779 353.936819,507.508779 C343.833781,507.508779 334.91919,502.420436 329.615962,494.666668 Z M317.213086,478.555556 L325.737222,478.555556 C326.674507,475.654151 329.397732,473.555556 332.611111,473.555556 C335.82449,473.555556 338.547715,475.654151 339.485001,478.555556 L348.009136,478.555556 C346.930848,471.017124 340.447715,465.222222 332.611111,465.222222 C324.774507,465.222222 318.291374,471.017124 317.213086,478.555556 Z M359.990864,478.555556 L368.514999,478.555556 C369.452285,475.654151 372.17551,473.555556 375.388889,473.555556 C378.602268,473.555556 381.325493,475.654151 382.262778,478.555556 L390.786914,478.555556 C389.708626,471.017124 383.225493,465.222222 375.388889,465.222222 C367.552285,465.222222 361.069152,471.017124 359.990864,478.555556 Z M355.921712,324.555556 L448.078288,324.555556 C450.603665,330.532715 452,337.103292 452,344 C452,346.839268 451.763343,349.623263 451.30868,352.333333 L435.333333,352.333333 L373.669339,352.333333 L365.081207,352.333333 C368.875852,369.18794 383.936078,381.777778 401.936819,381.777778 C416.818744,381.777778 429.690833,373.172644 435.848795,360.666667 L449.154905,360.666667 C442.290965,380.08654 423.770314,394 402,394 C374.385763,394 352,371.614237 352,344 C352,337.103292 353.396335,330.532715 355.921719,324.555554 Z M360.419717,316.222222 C369.389287,302.822381 384.664355,294 402,294 C419.335645,294 434.610713,302.822381 443.580283,316.222222 L360.419717,316.222222 Z M377.615956,360.666667 L426.257676,360.666668 C420.954448,368.420436 412.039856,373.508779 401.936819,373.508779 C391.833781,373.508779 382.91919,368.420436 377.615962,360.666668 Z M365.213086,344.555556 L373.737222,344.555556 C374.674507,341.654151 377.397732,339.555556 380.611111,339.555556 C383.82449,339.555556 386.547715,341.654151 387.485001,344.555556 L396.009136,344.555556 C394.930848,337.017124 388.447715,331.222222 380.611111,331.222222 C372.774507,331.222222 366.291374,337.017124 365.213086,344.555556 Z M407.990864,344.555556 L416.514999,344.555556 C417.452285,341.654151 420.17551,339.555556 423.388889,339.555556 C426.602268,339.555556 429.325493,341.654151 430.262778,344.555556 L438.786914,344.555556 C437.708626,337.017124 431.225493,331.222222 423.388889,331.222222 C415.552285,331.222222 409.069152,337.017124 407.990864,344.555556 Z M84.9217118,126.555556 L177.078288,126.555556 C179.603665,132.532715 181,139.103292 181,146 C181,148.839268 180.763343,151.623263 180.30868,154.333333 L164.333333,154.333333 L102.669339,154.333333 L94.0812073,154.333333 C97.875852,171.18794 112.936078,183.777778 130.936819,183.777778 C145.818744,183.777778 158.690833,175.172644 164.848795,162.666667 L178.154905,162.666667 C171.290965,182.08654 152.770314,196 131,196 C103.385763,196 81,173.614237 81,146 C81,139.103292 82.3963346,132.532715 84.9217186,126.555554 Z M89.4197169,118.222222 C98.3892874,104.822381 113.664355,96 131,96 C148.335645,96 163.610713,104.822381 172.580283,118.222222 L89.4197169,118.222222 Z M106.615956,162.666667 L155.257676,162.666668 C149.954448,170.420436 141.039856,175.508779 130.936819,175.508779 C120.833781,175.508779 111.91919,170.420436 106.615962,162.666668 Z M94.2130864,146.555556 L102.737222,146.555556 C103.674507,143.654151 106.397732,141.555556 109.611111,141.555556 C112.82449,141.555556 115.547715,143.654151 116.485001,146.555556 L125.009136,146.555556 C123.930848,139.017124 117.447715,133.222222 109.611111,133.222222 C101.774507,133.222222 95.2913745,139.017124 94.2130864,146.555556 Z M136.990864,146.555556 L145.514999,146.555556 C146.452285,143.654151 149.17551,141.555556 152.388889,141.555556 C155.602268,141.555556 158.325493,143.654151 159.262778,146.555556 L167.786914,146.555556 C166.708626,139.017124 160.225493,133.222222 152.388889,133.222222 C144.552285,133.222222 138.069152,139.017124 136.990864,146.555556 Z M121.921712,478.555556 L214.078288,478.555556 C216.603665,484.532715 218,491.103292 218,498 C218,500.839268 217.763343,503.623263 217.30868,506.333333 L201.333333,506.333333 L139.669339,506.333333 L131.081207,506.333333 C134.875852,523.18794 149.936078,535.777778 167.936819,535.777778 C182.818744,535.777778 195.690833,527.172644 201.848795,514.666667 L215.154905,514.666667 C208.290965,534.08654 189.770314,548 168,548 C140.385763,548 118,525.614237 118,498 C118,491.103292 119.396335,484.532715 121.921719,478.555554 Z M126.419717,470.222222 C135.389287,456.822381 150.664355,448 168,448 C185.335645,448 200.610713,456.822381 209.580283,470.222222 L126.419717,470.222222 Z M143.615956,514.666667 L192.257676,514.666668 C186.954448,522.420436 178.039856,527.508779 167.936819,527.508779 C157.833781,527.508779 148.91919,522.420436 143.615962,514.666668 Z M131.213086,498.555556 L139.737222,498.555556 C140.674507,495.654151 143.397732,493.555556 146.611111,493.555556 C149.82449,493.555556 152.547715,495.654151 153.485001,498.555556 L162.009136,498.555556 C160.930848,491.017124 154.447715,485.222222 146.611111,485.222222 C138.774507,485.222222 132.291374,491.017124 131.213086,498.555556 Z M173.990864,498.555556 L182.514999,498.555556 C183.452285,495.654151 186.17551,493.555556 189.388889,493.555556 C192.602268,493.555556 195.325493,495.654151 196.262778,498.555556 L204.786914,498.555556 C203.708626,491.017124 197.225493,485.222222 189.388889,485.222222 C181.552285,485.222222 175.069152,491.017124 173.990864,498.555556 Z M293.921712,603.555556 L386.078288,603.555556 C388.603665,609.532715 390,616.103292 390,623 C390,625.839268 389.763343,628.623263 389.30868,631.333333 L373.333333,631.333333 L311.669339,631.333333 L303.081207,631.333333 C306.875852,648.18794 321.936078,660.777778 339.936819,660.777778 C354.818744,660.777778 367.690833,652.172644 373.848795,639.666667 L387.154905,639.666667 C380.290965,659.08654 361.770314,673 340,673 C312.385763,673 290,650.614237 290,623 C290,616.103292 291.396335,609.532715 293.921719,603.555554 Z M298.419717,595.222222 C307.389287,581.822381 322.664355,573 340,573 C357.335645,573 372.610713,581.822381 381.580283,595.222222 L298.419717,595.222222 Z M315.615956,639.666667 L364.257676,639.666668 C358.954448,647.420436 350.039856,652.508779 339.936819,652.508779 C329.833781,652.508779 320.91919,647.420436 315.615962,639.666668 Z M303.213086,623.555556 L311.737222,623.555556 C312.674507,620.654151 315.397732,618.555556 318.611111,618.555556 C321.82449,618.555556 324.547715,620.654151 325.485001,623.555556 L334.009136,623.555556 C332.930848,616.017124 326.447715,610.222222 318.611111,610.222222 C310.774507,610.222222 304.291374,616.017124 303.213086,623.555556 Z M345.990864,623.555556 L354.514999,623.555556 C355.452285,620.654151 358.17551,618.555556 361.388889,618.555556 C364.602268,618.555556 367.325493,620.654151 368.262778,623.555556 L376.786914,623.555556 C375.708626,616.017124 369.225493,610.222222 361.388889,610.222222 C353.552285,610.222222 347.069152,616.017124 345.990864,623.555556 Z M841.921712,30.5555556 L934.078288,30.5555556 C936.603665,36.5327147 938,43.1032916 938,50 C938,52.8392684 937.763343,55.6232627 937.30868,58.3333333 L921.333333,58.3333333 L859.669339,58.3333333 L851.081207,58.3333333 C854.875852,75.1879404 869.936078,87.7777778 887.936819,87.7777778 C902.818744,87.7777778 915.690833,79.1726444 921.848795,66.6666667 L935.154905,66.6666667 C928.290965,86.0865395 909.770314,100 888,100 C860.385763,100 838,77.6142375 838,50 C838,43.1032916 839.396335,36.5327147 841.921719,30.5555545 Z M846.419717,22.2222222 C855.389287,8.82238064 870.664355,0 888,0 C905.335645,0 920.610713,8.82238064 929.580283,22.2222222 L846.419717,22.2222222 Z M863.615956,66.6666667 L912.257676,66.666668 C906.954448,74.4204358 898.039856,79.5087786 887.936819,79.5087786 C877.833781,79.5087786 868.91919,74.4204358 863.615962,66.666668 Z M851.213086,50.5555556 L859.737222,50.5555556 C860.674507,47.6541511 863.397732,45.5555556 866.611111,45.5555556 C869.82449,45.5555556 872.547715,47.6541511 873.485001,50.5555556 L882.009136,50.5555556 C880.930848,43.0171241 874.447715,37.2222222 866.611111,37.2222222 C858.774507,37.2222222 852.291374,43.0171241 851.213086,50.5555556 Z M893.990864,50.5555556 L902.514999,50.5555556 C903.452285,47.6541511 906.17551,45.5555556 909.388889,45.5555556 C912.602268,45.5555556 915.325493,47.6541511 916.262778,50.5555556 L924.786914,50.5555556 C923.708626,43.0171241 917.225493,37.2222222 909.388889,37.2222222 C901.552285,37.2222222 895.069152,43.0171241 893.990864,50.5555556 Z M718.921712,553.555556 L811.078288,553.555556 C813.603665,559.532715 815,566.103292 815,573 C815,575.839268 814.763343,578.623263 814.30868,581.333333 L798.333333,581.333333 L736.669339,581.333333 L728.081207,581.333333 C731.875852,598.18794 746.936078,610.777778 764.936819,610.777778 C779.818744,610.777778 792.690833,602.172644 798.848795,589.666667 L812.154905,589.666667 C805.290965,609.08654 786.770314,623 765,623 C737.385763,623 715,600.614237 715,573 C715,566.103292 716.396335,559.532715 718.921719,553.555554 Z M723.419717,545.222222 C732.389287,531.822381 747.664355,523 765,523 C782.335645,523 797.610713,531.822381 806.580283,545.222222 L723.419717,545.222222 Z M740.615956,589.666667 L789.257676,589.666668 C783.954448,597.420436 775.039856,602.508779 764.936819,602.508779 C754.833781,602.508779 745.91919,597.420436 740.615962,589.666668 Z M728.213086,573.555556 L736.737222,573.555556 C737.674507,570.654151 740.397732,568.555556 743.611111,568.555556 C746.82449,568.555556 749.547715,570.654151 750.485001,573.555556 L759.009136,573.555556 C757.930848,566.017124 751.447715,560.222222 743.611111,560.222222 C735.774507,560.222222 729.291374,566.017124 728.213086,573.555556 Z M770.990864,573.555556 L779.514999,573.555556 C780.452285,570.654151 783.17551,568.555556 786.388889,568.555556 C789.602268,568.555556 792.325493,570.654151 793.262778,573.555556 L801.786914,573.555556 C800.708626,566.017124 794.225493,560.222222 786.388889,560.222222 C778.552285,560.222222 772.069152,566.017124 770.990864,573.555556 Z M615.960856,97.2777778 L662.039144,97.2777778 C663.301833,100.266357 664,103.551646 664,107 C664,108.419634 663.881672,109.811631 663.65434,111.166667 L655.666667,111.166667 L624.83467,111.166667 L620.540604,111.166667 C622.437926,119.59397 629.968039,125.888889 638.968409,125.888889 C646.409372,125.888889 652.845416,121.586322 655.924398,115.333333 L662.577452,115.333333 C659.145482,125.04327 649.885157,132 639,132 C625.192881,132 614,120.807119 614,107 C614,103.551646 614.698167,100.266357 615.960859,97.2777772 Z M618.209858,93.1111111 C622.694644,86.4111903 630.332177,82 639,82 C647.667823,82 655.305356,86.4111903 659.790142,93.1111111 L618.209858,93.1111111 Z M626.807978,115.333333 L651.128838,115.333334 C648.477224,119.210218 644.019928,121.754389 638.968409,121.754389 C633.916891,121.754389 629.459595,119.210218 626.807981,115.333334 Z M620.606543,107.277778 L624.868611,107.277778 C625.337254,105.827076 626.698866,104.777778 628.305556,104.777778 C629.912245,104.777778 631.273858,105.827076 631.7425,107.277778 L636.004568,107.277778 C635.465424,103.508562 632.223858,100.611111 628.305556,100.611111 C624.387253,100.611111 621.145687,103.508562 620.606543,107.277778 Z M641.995432,107.277778 L646.2575,107.277778 C646.726142,105.827076 648.087755,104.777778 649.694444,104.777778 C651.301134,104.777778 652.662746,105.827076 653.131389,107.277778 L657.393457,107.277778 C656.854313,103.508562 653.612747,100.611111 649.694444,100.611111 C645.776142,100.611111 642.534576,103.508562 641.995432,107.277778 Z M337.960856,191.277778 L384.039144,191.277778 C385.301833,194.266357 386,197.551646 386,201 C386,202.419634 385.881672,203.811631 385.65434,205.166667 L377.666667,205.166667 L346.83467,205.166667 L342.540604,205.166667 C344.437926,213.59397 351.968039,219.888889 360.968409,219.888889 C368.409372,219.888889 374.845416,215.586322 377.924398,209.333333 L384.577452,209.333333 C381.145482,219.04327 371.885157,226 361,226 C347.192881,226 336,214.807119 336,201 C336,197.551646 336.698167,194.266357 337.960859,191.277777 Z M340.209858,187.111111 C344.694644,180.41119 352.332177,176 361,176 C369.667823,176 377.305356,180.41119 381.790142,187.111111 L340.209858,187.111111 Z M348.807978,209.333333 L373.128838,209.333334 C370.477224,213.210218 366.019928,215.754389 360.968409,215.754389 C355.916891,215.754389 351.459595,213.210218 348.807981,209.333334 Z M342.606543,201.277778 L346.868611,201.277778 C347.337254,199.827076 348.698866,198.777778 350.305556,198.777778 C351.912245,198.777778 353.273858,199.827076 353.7425,201.277778 L358.004568,201.277778 C357.465424,197.508562 354.223858,194.611111 350.305556,194.611111 C346.387253,194.611111 343.145687,197.508562 342.606543,201.277778 Z M363.995432,201.277778 L368.2575,201.277778 C368.726142,199.827076 370.087755,198.777778 371.694444,198.777778 C373.301134,198.777778 374.662746,199.827076 375.131389,201.277778 L379.393457,201.277778 C378.854313,197.508562 375.612747,194.611111 371.694444,194.611111 C367.776142,194.611111 364.534576,197.508562 363.995432,201.277778 Z M223.960856,77.2777778 L270.039144,77.2777778 C271.301833,80.2663574 272,83.5516458 272,87 C272,88.4196342 271.881672,89.8116314 271.65434,91.1666667 L263.666667,91.1666667 L232.83467,91.1666667 L228.540604,91.1666667 C230.437926,99.5939702 237.968039,105.888889 246.968409,105.888889 C254.409372,105.888889 260.845416,101.586322 263.924398,95.3333333 L270.577452,95.3333333 C267.145482,105.04327 257.885157,112 247,112 C233.192881,112 222,100.807119 222,87 C222,83.5516458 222.698167,80.2663574 223.960859,77.2777772 Z M226.209858,73.1111111 C230.694644,66.4111903 238.332177,62 247,62 C255.667823,62 263.305356,66.4111903 267.790142,73.1111111 L226.209858,73.1111111 Z M234.807978,95.3333333 L259.128838,95.333334 C256.477224,99.2102179 252.019928,101.754389 246.968409,101.754389 C241.916891,101.754389 237.459595,99.2102179 234.807981,95.333334 Z M228.606543,87.2777778 L232.868611,87.2777778 C233.337254,85.8270755 234.698866,84.7777778 236.305556,84.7777778 C237.912245,84.7777778 239.273858,85.8270755 239.7425,87.2777778 L244.004568,87.2777778 C243.465424,83.5085621 240.223858,80.6111111 236.305556,80.6111111 C232.387253,80.6111111 229.145687,83.5085621 228.606543,87.2777778 Z M249.995432,87.2777778 L254.2575,87.2777778 C254.726142,85.8270755 256.087755,84.7777778 257.694444,84.7777778 C259.301134,84.7777778 260.662746,85.8270755 261.131389,87.2777778 L265.393457,87.2777778 C264.854313,83.5085621 261.612747,80.6111111 257.694444,80.6111111 C253.776142,80.6111111 250.534576,83.5085621 249.995432,87.2777778 Z M58.9608559,276.277778 L105.039144,276.277778 C106.301833,279.266357 107,282.551646 107,286 C107,287.419634 106.881672,288.811631 106.65434,290.166667 L98.6666667,290.166667 L67.8346696,290.166667 L63.5406036,290.166667 C65.437926,298.59397 72.9680392,304.888889 81.9684095,304.888889 C89.409372,304.888889 95.8454163,300.586322 98.9243977,294.333333 L105.577452,294.333333 C102.145482,304.04327 92.8851569,311 82,311 C68.1928813,311 57,299.807119 57,286 C57,282.551646 57.6981673,279.266357 58.9608593,276.277777 Z M61.2098584,272.111111 C65.6946437,265.41119 73.3321775,261 82,261 C90.6678225,261 98.3053563,265.41119 102.790142,272.111111 L61.2098584,272.111111 Z M69.8079779,294.333333 L94.1288378,294.333334 C91.477224,298.210218 87.0199282,300.754389 81.9684095,300.754389 C76.9168907,300.754389 72.459595,298.210218 69.8079811,294.333334 Z M63.6065432,286.277778 L67.8686108,286.277778 C68.3372535,284.827076 69.6988662,283.777778 71.3055556,283.777778 C72.9122449,283.777778 74.2738576,284.827076 74.7425003,286.277778 L79.0045679,286.277778 C78.4654239,282.508562 75.2238577,279.611111 71.3055556,279.611111 C67.3872534,279.611111 64.1456872,282.508562 63.6065432,286.277778 Z M84.9954321,286.277778 L89.2574997,286.277778 C89.7261424,284.827076 91.0877551,283.777778 92.6944444,283.777778 C94.3011338,283.777778 95.6627465,284.827076 96.1313892,286.277778 L100.393457,286.277778 C99.8543128,282.508562 96.6127466,279.611111 92.6944444,279.611111 C88.7761423,279.611111 85.5345761,282.508562 84.9954321,286.277778 Z M446.960856,573.277778 L493.039144,573.277778 C494.301833,576.266357 495,579.551646 495,583 C495,584.419634 494.881672,585.811631 494.65434,587.166667 L486.666667,587.166667 L455.83467,587.166667 L451.540604,587.166667 C453.437926,595.59397 460.968039,601.888889 469.968409,601.888889 C477.409372,601.888889 483.845416,597.586322 486.924398,591.333333 L493.577452,591.333333 C490.145482,601.04327 480.885157,608 470,608 C456.192881,608 445,596.807119 445,583 C445,579.551646 445.698167,576.266357 446.960859,573.277777 Z M449.209858,569.111111 C453.694644,562.41119 461.332177,558 470,558 C478.667823,558 486.305356,562.41119 490.790142,569.111111 L449.209858,569.111111 Z M457.807978,591.333333 L482.128838,591.333334 C479.477224,595.210218 475.019928,597.754389 469.968409,597.754389 C464.916891,597.754389 460.459595,595.210218 457.807981,591.333334 Z M451.606543,583.277778 L455.868611,583.277778 C456.337254,581.827076 457.698866,580.777778 459.305556,580.777778 C460.912245,580.777778 462.273858,581.827076 462.7425,583.277778 L467.004568,583.277778 C466.465424,579.508562 463.223858,576.611111 459.305556,576.611111 C455.387253,576.611111 452.145687,579.508562 451.606543,583.277778 Z M472.995432,583.277778 L477.2575,583.277778 C477.726142,581.827076 479.087755,580.777778 480.694444,580.777778 C482.301134,580.777778 483.662746,581.827076 484.131389,583.277778 L488.393457,583.277778 C487.854313,579.508562 484.612747,576.611111 480.694444,576.611111 C476.776142,576.611111 473.534576,579.508562 472.995432,583.277778 Z M43.9608559,573.277778 L90.0391441,573.277778 C91.3018327,576.266357 92,579.551646 92,583 C92,584.419634 91.8816717,585.811631 91.6543398,587.166667 L83.6666667,587.166667 L52.8346696,587.166667 L48.5406036,587.166667 C50.437926,595.59397 57.9680392,601.888889 66.9684095,601.888889 C74.409372,601.888889 80.8454163,597.586322 83.9243977,591.333333 L90.5774524,591.333333 C87.1454824,601.04327 77.8851569,608 67,608 C53.1928813,608 42,596.807119 42,583 C42,579.551646 42.6981673,576.266357 43.9608593,573.277777 Z M46.2098584,569.111111 C50.6946437,562.41119 58.3321775,558 67,558 C75.6678225,558 83.3053563,562.41119 87.7901416,569.111111 L46.2098584,569.111111 Z M54.8079779,591.333333 L79.1288378,591.333334 C76.477224,595.210218 72.0199282,597.754389 66.9684095,597.754389 C61.9168907,597.754389 57.459595,595.210218 54.8079811,591.333334 Z M48.6065432,583.277778 L52.8686108,583.277778 C53.3372535,581.827076 54.6988662,580.777778 56.3055556,580.777778 C57.9122449,580.777778 59.2738576,581.827076 59.7425003,583.277778 L64.0045679,583.277778 C63.4654239,579.508562 60.2238577,576.611111 56.3055556,576.611111 C52.3872534,576.611111 49.1456872,579.508562 48.6065432,583.277778 Z M69.9954321,583.277778 L74.2574997,583.277778 C74.7261424,581.827076 76.0877551,580.777778 77.6944444,580.777778 C79.3011338,580.777778 80.6627465,581.827076 81.1313892,583.277778 L85.3934568,583.277778 C84.8543128,579.508562 81.6127466,576.611111 77.6944444,576.611111 C73.7761423,576.611111 70.5345761,579.508562 69.9954321,583.277778 Z M710.960856,264.277778 L757.039144,264.277778 C758.301833,267.266357 759,270.551646 759,274 C759,275.419634 758.881672,276.811631 758.65434,278.166667 L750.666667,278.166667 L719.83467,278.166667 L715.540604,278.166667 C717.437926,286.59397 724.968039,292.888889 733.968409,292.888889 C741.409372,292.888889 747.845416,288.586322 750.924398,282.333333 L757.577452,282.333333 C754.145482,292.04327 744.885157,299 734,299 C720.192881,299 709,287.807119 709,274 C709,270.551646 709.698167,267.266357 710.960859,264.277777 Z M713.209858,260.111111 C717.694644,253.41119 725.332177,249 734,249 C742.667823,249 750.305356,253.41119 754.790142,260.111111 L713.209858,260.111111 Z M721.807978,282.333333 L746.128838,282.333334 C743.477224,286.210218 739.019928,288.754389 733.968409,288.754389 C728.916891,288.754389 724.459595,286.210218 721.807981,282.333334 Z M715.606543,274.277778 L719.868611,274.277778 C720.337254,272.827076 721.698866,271.777778 723.305556,271.777778 C724.912245,271.777778 726.273858,272.827076 726.7425,274.277778 L731.004568,274.277778 C730.465424,270.508562 727.223858,267.611111 723.305556,267.611111 C719.387253,267.611111 716.145687,270.508562 715.606543,274.277778 Z M736.995432,274.277778 L741.2575,274.277778 C741.726142,272.827076 743.087755,271.777778 744.694444,271.777778 C746.301134,271.777778 747.662746,272.827076 748.131389,274.277778 L752.393457,274.277778 C751.854313,270.508562 748.612747,267.611111 744.694444,267.611111 C740.776142,267.611111 737.534576,270.508562 736.995432,274.277778 Z M237.960856,354.277778 L284.039144,354.277778 C285.301833,357.266357 286,360.551646 286,364 C286,365.419634 285.881672,366.811631 285.65434,368.166667 L277.666667,368.166667 L246.83467,368.166667 L242.540604,368.166667 C244.437926,376.59397 251.968039,382.888889 260.968409,382.888889 C268.409372,382.888889 274.845416,378.586322 277.924398,372.333333 L284.577452,372.333333 C281.145482,382.04327 271.885157,389 261,389 C247.192881,389 236,377.807119 236,364 C236,360.551646 236.698167,357.266357 237.960859,354.277777 Z M240.209858,350.111111 C244.694644,343.41119 252.332177,339 261,339 C269.667823,339 277.305356,343.41119 281.790142,350.111111 L240.209858,350.111111 Z M248.807978,372.333333 L273.128838,372.333334 C270.477224,376.210218 266.019928,378.754389 260.968409,378.754389 C255.916891,378.754389 251.459595,376.210218 248.807981,372.333334 Z M242.606543,364.277778 L246.868611,364.277778 C247.337254,362.827076 248.698866,361.777778 250.305556,361.777778 C251.912245,361.777778 253.273858,362.827076 253.7425,364.277778 L258.004568,364.277778 C257.465424,360.508562 254.223858,357.611111 250.305556,357.611111 C246.387253,357.611111 243.145687,360.508562 242.606543,364.277778 Z M263.995432,364.277778 L268.2575,364.277778 C268.726142,362.827076 270.087755,361.777778 271.694444,361.777778 C273.301134,361.777778 274.662746,362.827076 275.131389,364.277778 L279.393457,364.277778 C278.854313,360.508562 275.612747,357.611111 271.694444,357.611111 C267.776142,357.611111 264.534576,360.508562 263.995432,364.277778 Z M796.960856,428.277778 L843.039144,428.277778 C844.301833,431.266357 845,434.551646 845,438 C845,439.419634 844.881672,440.811631 844.65434,442.166667 L836.666667,442.166667 L805.83467,442.166667 L801.540604,442.166667 C803.437926,450.59397 810.968039,456.888889 819.968409,456.888889 C827.409372,456.888889 833.845416,452.586322 836.924398,446.333333 L843.577452,446.333333 C840.145482,456.04327 830.885157,463 820,463 C806.192881,463 795,451.807119 795,438 C795,434.551646 795.698167,431.266357 796.960859,428.277777 Z M799.209858,424.111111 C803.694644,417.41119 811.332177,413 820,413 C828.667823,413 836.305356,417.41119 840.790142,424.111111 L799.209858,424.111111 Z M807.807978,446.333333 L832.128838,446.333334 C829.477224,450.210218 825.019928,452.754389 819.968409,452.754389 C814.916891,452.754389 810.459595,450.210218 807.807981,446.333334 Z M801.606543,438.277778 L805.868611,438.277778 C806.337254,436.827076 807.698866,435.777778 809.305556,435.777778 C810.912245,435.777778 812.273858,436.827076 812.7425,438.277778 L817.004568,438.277778 C816.465424,434.508562 813.223858,431.611111 809.305556,431.611111 C805.387253,431.611111 802.145687,434.508562 801.606543,438.277778 Z M822.995432,438.277778 L827.2575,438.277778 C827.726142,436.827076 829.087755,435.777778 830.694444,435.777778 C832.301134,435.777778 833.662746,436.827076 834.131389,438.277778 L838.393457,438.277778 C837.854313,434.508562 834.612747,431.611111 830.694444,431.611111 C826.776142,431.611111 823.534576,434.508562 822.995432,438.277778 Z M1006.96086,598.277778 L1053.03914,598.277778 C1054.30183,601.266357 1055,604.551646 1055,608 C1055,609.419634 1054.88167,610.811631 1054.65434,612.166667 L1046.66667,612.166667 L1015.83467,612.166667 L1011.5406,612.166667 C1013.43793,620.59397 1020.96804,626.888889 1029.96841,626.888889 C1037.40937,626.888889 1043.84542,622.586322 1046.9244,616.333333 L1053.57745,616.333333 C1050.14548,626.04327 1040.88516,633 1030,633 C1016.19288,633 1005,621.807119 1005,608 C1005,604.551646 1005.69817,601.266357 1006.96086,598.277777 Z M1009.20986,594.111111 C1013.69464,587.41119 1021.33218,583 1030,583 C1038.66782,583 1046.30536,587.41119 1050.79014,594.111111 L1009.20986,594.111111 Z M1017.80798,616.333333 L1042.12884,616.333334 C1039.47722,620.210218 1035.01993,622.754389 1029.96841,622.754389 C1024.91689,622.754389 1020.45959,620.210218 1017.80798,616.333334 Z M1011.60654,608.277778 L1015.86861,608.277778 C1016.33725,606.827076 1017.69887,605.777778 1019.30556,605.777778 C1020.91224,605.777778 1022.27386,606.827076 1022.7425,608.277778 L1027.00457,608.277778 C1026.46542,604.508562 1023.22386,601.611111 1019.30556,601.611111 C1015.38725,601.611111 1012.14569,604.508562 1011.60654,608.277778 Z M1032.99543,608.277778 L1037.2575,608.277778 C1037.72614,606.827076 1039.08776,605.777778 1040.69444,605.777778 C1042.30113,605.777778 1043.66275,606.827076 1044.13139,608.277778 L1048.39346,608.277778 C1047.85431,604.508562 1044.61275,601.611111 1040.69444,601.611111 C1036.77614,601.611111 1033.53458,604.508562 1032.99543,608.277778 Z M891.960856,301.277778 L938.039144,301.277778 C939.301833,304.266357 940,307.551646 940,311 C940,312.419634 939.881672,313.811631 939.65434,315.166667 L931.666667,315.166667 L900.83467,315.166667 L896.540604,315.166667 C898.437926,323.59397 905.968039,329.888889 914.968409,329.888889 C922.409372,329.888889 928.845416,325.586322 931.924398,319.333333 L938.577452,319.333333 C935.145482,329.04327 925.885157,336 915,336 C901.192881,336 890,324.807119 890,311 C890,307.551646 890.698167,304.266357 891.960859,301.277777 Z M894.209858,297.111111 C898.694644,290.41119 906.332177,286 915,286 C923.667823,286 931.305356,290.41119 935.790142,297.111111 L894.209858,297.111111 Z M902.807978,319.333333 L927.128838,319.333334 C924.477224,323.210218 920.019928,325.754389 914.968409,325.754389 C909.916891,325.754389 905.459595,323.210218 902.807981,319.333334 Z M896.606543,311.277778 L900.868611,311.277778 C901.337254,309.827076 902.698866,308.777778 904.305556,308.777778 C905.912245,308.777778 907.273858,309.827076 907.7425,311.277778 L912.004568,311.277778 C911.465424,307.508562 908.223858,304.611111 904.305556,304.611111 C900.387253,304.611111 897.145687,307.508562 896.606543,311.277778 Z M917.995432,311.277778 L922.2575,311.277778 C922.726142,309.827076 924.087755,308.777778 925.694444,308.777778 C927.301134,308.777778 928.662746,309.827076 929.131389,311.277778 L933.393457,311.277778 C932.854313,307.508562 929.612747,304.611111 925.694444,304.611111 C921.776142,304.611111 918.534576,307.508562 917.995432,311.277778 Z M956.960856,147.277778 L1003.03914,147.277778 C1004.30183,150.266357 1005,153.551646 1005,157 C1005,158.419634 1004.88167,159.811631 1004.65434,161.166667 L996.666667,161.166667 L965.83467,161.166667 L961.540604,161.166667 C963.437926,169.59397 970.968039,175.888889 979.968409,175.888889 C987.409372,175.888889 993.845416,171.586322 996.924398,165.333333 L1003.57745,165.333333 C1000.14548,175.04327 990.885157,182 980,182 C966.192881,182 955,170.807119 955,157 C955,153.551646 955.698167,150.266357 956.960859,147.277777 Z M959.209858,143.111111 C963.694644,136.41119 971.332177,132 980,132 C988.667823,132 996.305356,136.41119 1000.79014,143.111111 L959.209858,143.111111 Z M967.807978,165.333333 L992.128838,165.333334 C989.477224,169.210218 985.019928,171.754389 979.968409,171.754389 C974.916891,171.754389 970.459595,169.210218 967.807981,165.333334 Z M961.606543,157.277778 L965.868611,157.277778 C966.337254,155.827076 967.698866,154.777778 969.305556,154.777778 C970.912245,154.777778 972.273858,155.827076 972.7425,157.277778 L977.004568,157.277778 C976.465424,153.508562 973.223858,150.611111 969.305556,150.611111 C965.387253,150.611111 962.145687,153.508562 961.606543,157.277778 Z M982.995432,157.277778 L987.2575,157.277778 C987.726142,155.827076 989.087755,154.777778 990.694444,154.777778 C992.301134,154.777778 993.662746,155.827076 994.131389,157.277778 L998.393457,157.277778 C997.854313,153.508562 994.612747,150.611111 990.694444,150.611111 C986.776142,150.611111 983.534576,153.508562 982.995432,157.277778 Z M1196.96086,42.2777778 L1243.03914,42.2777778 C1244.30183,45.2663574 1245,48.5516458 1245,52 C1245,53.4196342 1244.88167,54.8116314 1244.65434,56.1666667 L1236.66667,56.1666667 L1205.83467,56.1666667 L1201.5406,56.1666667 C1203.43793,64.5939702 1210.96804,70.8888889 1219.96841,70.8888889 C1227.40937,70.8888889 1233.84542,66.5863222 1236.9244,60.3333333 L1243.57745,60.3333333 C1240.14548,70.0432698 1230.88516,77 1220,77 C1206.19288,77 1195,65.8071187 1195,52 C1195,48.5516458 1195.69817,45.2663574 1196.96086,42.2777772 Z M1199.20986,38.1111111 C1203.69464,31.4111903 1211.33218,27 1220,27 C1228.66782,27 1236.30536,31.4111903 1240.79014,38.1111111 L1199.20986,38.1111111 Z M1207.80798,60.3333333 L1232.12884,60.333334 C1229.47722,64.2102179 1225.01993,66.7543893 1219.96841,66.7543893 C1214.91689,66.7543893 1210.45959,64.2102179 1207.80798,60.333334 Z M1201.60654,52.2777778 L1205.86861,52.2777778 C1206.33725,50.8270755 1207.69887,49.7777778 1209.30556,49.7777778 C1210.91224,49.7777778 1212.27386,50.8270755 1212.7425,52.2777778 L1217.00457,52.2777778 C1216.46542,48.5085621 1213.22386,45.6111111 1209.30556,45.6111111 C1205.38725,45.6111111 1202.14569,48.5085621 1201.60654,52.2777778 Z M1222.99543,52.2777778 L1227.2575,52.2777778 C1227.72614,50.8270755 1229.08776,49.7777778 1230.69444,49.7777778 C1232.30113,49.7777778 1233.66275,50.8270755 1234.13139,52.2777778 L1238.39346,52.2777778 C1237.85431,48.5085621 1234.61275,45.6111111 1230.69444,45.6111111 C1226.77614,45.6111111 1223.53458,48.5085621 1222.99543,52.2777778 Z M1074.96086,299.277778 L1121.03914,299.277778 C1122.30183,302.266357 1123,305.551646 1123,309 C1123,310.419634 1122.88167,311.811631 1122.65434,313.166667 L1114.66667,313.166667 L1083.83467,313.166667 L1079.5406,313.166667 C1081.43793,321.59397 1088.96804,327.888889 1097.96841,327.888889 C1105.40937,327.888889 1111.84542,323.586322 1114.9244,317.333333 L1121.57745,317.333333 C1118.14548,327.04327 1108.88516,334 1098,334 C1084.19288,334 1073,322.807119 1073,309 C1073,305.551646 1073.69817,302.266357 1074.96086,299.277777 Z M1077.20986,295.111111 C1081.69464,288.41119 1089.33218,284 1098,284 C1106.66782,284 1114.30536,288.41119 1118.79014,295.111111 L1077.20986,295.111111 Z M1085.80798,317.333333 L1110.12884,317.333334 C1107.47722,321.210218 1103.01993,323.754389 1097.96841,323.754389 C1092.91689,323.754389 1088.45959,321.210218 1085.80798,317.333334 Z M1079.60654,309.277778 L1083.86861,309.277778 C1084.33725,307.827076 1085.69887,306.777778 1087.30556,306.777778 C1088.91224,306.777778 1090.27386,307.827076 1090.7425,309.277778 L1095.00457,309.277778 C1094.46542,305.508562 1091.22386,302.611111 1087.30556,302.611111 C1083.38725,302.611111 1080.14569,305.508562 1079.60654,309.277778 Z M1100.99543,309.277778 L1105.2575,309.277778 C1105.72614,307.827076 1107.08776,306.777778 1108.69444,306.777778 C1110.30113,306.777778 1111.66275,307.827076 1112.13139,309.277778 L1116.39346,309.277778 C1115.85431,305.508562 1112.61275,302.611111 1108.69444,302.611111 C1104.77614,302.611111 1101.53458,305.508562 1100.99543,309.277778 Z M380.921712,771.555556 L473.078288,771.555556 C475.603665,777.532715 477,784.103292 477,791 C477,793.839268 476.763343,796.623263 476.30868,799.333333 L460.333333,799.333333 L398.669339,799.333333 L390.081207,799.333333 C393.875852,816.18794 408.936078,828.777778 426.936819,828.777778 C441.818744,828.777778 454.690833,820.172644 460.848795,807.666667 L474.154905,807.666667 C467.290965,827.08654 448.770314,841 427,841 C399.385763,841 377,818.614237 377,791 C377,784.103292 378.396335,777.532715 380.921719,771.555554 Z M385.419717,763.222222 C394.389287,749.822381 409.664355,741 427,741 C444.335645,741 459.610713,749.822381 468.580283,763.222222 L385.419717,763.222222 Z M402.615956,807.666667 L451.257676,807.666668 C445.954448,815.420436 437.039856,820.508779 426.936819,820.508779 C416.833781,820.508779 407.91919,815.420436 402.615962,807.666668 Z M390.213086,791.555556 L398.737222,791.555556 C399.674507,788.654151 402.397732,786.555556 405.611111,786.555556 C408.82449,786.555556 411.547715,788.654151 412.485001,791.555556 L421.009136,791.555556 C419.930848,784.017124 413.447715,778.222222 405.611111,778.222222 C397.774507,778.222222 391.291374,784.017124 390.213086,791.555556 Z M432.990864,791.555556 L441.514999,791.555556 C442.452285,788.654151 445.17551,786.555556 448.388889,786.555556 C451.602268,786.555556 454.325493,788.654151 455.262778,791.555556 L463.786914,791.555556 C462.708626,784.017124 456.225493,778.222222 448.388889,778.222222 C440.552285,778.222222 434.069152,784.017124 432.990864,791.555556 Z M203.921712,941.555556 L296.078288,941.555556 C298.603665,947.532715 300,954.103292 300,961 C300,963.839268 299.763343,966.623263 299.30868,969.333333 L283.333333,969.333333 L221.669339,969.333333 L213.081207,969.333333 C216.875852,986.18794 231.936078,998.777778 249.936819,998.777778 C264.818744,998.777778 277.690833,990.172644 283.848795,977.666667 L297.154905,977.666667 C290.290965,997.08654 271.770314,1011 250,1011 C222.385763,1011 200,988.614237 200,961 C200,954.103292 201.396335,947.532715 203.921719,941.555554 Z M208.419717,933.222222 C217.389287,919.822381 232.664355,911 250,911 C267.335645,911 282.610713,919.822381 291.580283,933.222222 L208.419717,933.222222 Z M225.615956,977.666667 L274.257676,977.666668 C268.954448,985.420436 260.039856,990.508779 249.936819,990.508779 C239.833781,990.508779 230.91919,985.420436 225.615962,977.666668 Z M213.213086,961.555556 L221.737222,961.555556 C222.674507,958.654151 225.397732,956.555556 228.611111,956.555556 C231.82449,956.555556 234.547715,958.654151 235.485001,961.555556 L244.009136,961.555556 C242.930848,954.017124 236.447715,948.222222 228.611111,948.222222 C220.774507,948.222222 214.291374,954.017124 213.213086,961.555556 Z M255.990864,961.555556 L264.514999,961.555556 C265.452285,958.654151 268.17551,956.555556 271.388889,956.555556 C274.602268,956.555556 277.325493,958.654151 278.262778,961.555556 L286.786914,961.555556 C285.708626,954.017124 279.225493,948.222222 271.388889,948.222222 C263.552285,948.222222 257.069152,954.017124 255.990864,961.555556 Z M3.9217118,1067.55556 L96.0782882,1067.55556 C98.6036654,1073.53271 100,1080.10329 100,1087 C100,1089.83927 99.7633434,1092.62326 99.3086797,1095.33333 L83.3333333,1095.33333 L21.6693393,1095.33333 L13.0812073,1095.33333 C16.875852,1112.18794 31.9360784,1124.77778 49.9368189,1124.77778 C64.818744,1124.77778 77.6908325,1116.17264 83.8487954,1103.66667 L97.1549049,1103.66667 C90.2909647,1123.08654 71.7703138,1137 50,1137 C22.3857625,1137 0,1114.61424 0,1087 C0,1080.10329 1.39633461,1073.53271 3.92171855,1067.55555 Z M8.41971687,1059.22222 C17.3892874,1045.82238 32.664355,1037 50,1037 C67.335645,1037 82.6107126,1045.82238 91.5802831,1059.22222 L8.41971687,1059.22222 Z M25.6159559,1103.66667 L74.2576756,1103.66667 C68.9544479,1111.42044 60.0398565,1116.50878 49.9368189,1116.50878 C39.8337814,1116.50878 30.9191899,1111.42044 25.6159622,1103.66667 Z M13.2130864,1087.55556 L21.7372215,1087.55556 C22.6745071,1084.65415 25.3977325,1082.55556 28.6111111,1082.55556 C31.8244898,1082.55556 34.5477152,1084.65415 35.4850007,1087.55556 L44.0091359,1087.55556 C42.9308477,1080.01712 36.4477154,1074.22222 28.6111111,1074.22222 C20.7745069,1074.22222 14.2913745,1080.01712 13.2130864,1087.55556 Z M55.9908641,1087.55556 L64.5149993,1087.55556 C65.4522848,1084.65415 68.1755102,1082.55556 71.3888889,1082.55556 C74.6022675,1082.55556 77.3254929,1084.65415 78.2627785,1087.55556 L86.7869136,1087.55556 C85.7086255,1080.01712 79.2254931,1074.22222 71.3888889,1074.22222 C63.5522846,1074.22222 57.0691523,1080.01712 55.9908641,1087.55556 Z M537.921712,986.555556 L630.078288,986.555556 C632.603665,992.532715 634,999.103292 634,1006 C634,1008.83927 633.763343,1011.62326 633.30868,1014.33333 L617.333333,1014.33333 L555.669339,1014.33333 L547.081207,1014.33333 C550.875852,1031.18794 565.936078,1043.77778 583.936819,1043.77778 C598.818744,1043.77778 611.690833,1035.17264 617.848795,1022.66667 L631.154905,1022.66667 C624.290965,1042.08654 605.770314,1056 584,1056 C556.385763,1056 534,1033.61424 534,1006 C534,999.103292 535.396335,992.532715 537.921719,986.555554 Z M542.419717,978.222222 C551.389287,964.822381 566.664355,956 584,956 C601.335645,956 616.610713,964.822381 625.580283,978.222222 L542.419717,978.222222 Z M559.615956,1022.66667 L608.257676,1022.66667 C602.954448,1030.42044 594.039856,1035.50878 583.936819,1035.50878 C573.833781,1035.50878 564.91919,1030.42044 559.615962,1022.66667 Z M547.213086,1006.55556 L555.737222,1006.55556 C556.674507,1003.65415 559.397732,1001.55556 562.611111,1001.55556 C565.82449,1001.55556 568.547715,1003.65415 569.485001,1006.55556 L578.009136,1006.55556 C576.930848,999.017124 570.447715,993.222222 562.611111,993.222222 C554.774507,993.222222 548.291374,999.017124 547.213086,1006.55556 Z M589.990864,1006.55556 L598.514999,1006.55556 C599.452285,1003.65415 602.17551,1001.55556 605.388889,1001.55556 C608.602268,1001.55556 611.325493,1003.65415 612.262778,1006.55556 L620.786914,1006.55556 C619.708626,999.017124 613.225493,993.222222 605.388889,993.222222 C597.552285,993.222222 591.069152,999.017124 589.990864,1006.55556 Z M1063.92171,830.555556 L1156.07829,830.555556 C1158.60367,836.532715 1160,843.103292 1160,850 C1160,852.839268 1159.76334,855.623263 1159.30868,858.333333 L1143.33333,858.333333 L1081.66934,858.333333 L1073.08121,858.333333 C1076.87585,875.18794 1091.93608,887.777778 1109.93682,887.777778 C1124.81874,887.777778 1137.69083,879.172644 1143.8488,866.666667 L1157.1549,866.666667 C1150.29096,886.08654 1131.77031,900 1110,900 C1082.38576,900 1060,877.614237 1060,850 C1060,843.103292 1061.39633,836.532715 1063.92172,830.555554 Z M1068.41972,822.222222 C1077.38929,808.822381 1092.66435,800 1110,800 C1127.33565,800 1142.61071,808.822381 1151.58028,822.222222 L1068.41972,822.222222 Z M1085.61596,866.666667 L1134.25768,866.666668 C1128.95445,874.420436 1120.03986,879.508779 1109.93682,879.508779 C1099.83378,879.508779 1090.91919,874.420436 1085.61596,866.666668 Z M1073.21309,850.555556 L1081.73722,850.555556 C1082.67451,847.654151 1085.39773,845.555556 1088.61111,845.555556 C1091.82449,845.555556 1094.54772,847.654151 1095.485,850.555556 L1104.00914,850.555556 C1102.93085,843.017124 1096.44772,837.222222 1088.61111,837.222222 C1080.77451,837.222222 1074.29137,843.017124 1073.21309,850.555556 Z M1115.99086,850.555556 L1124.515,850.555556 C1125.45228,847.654151 1128.17551,845.555556 1131.38889,845.555556 C1134.60227,845.555556 1137.32549,847.654151 1138.26278,850.555556 L1146.78691,850.555556 C1145.70863,843.017124 1139.22549,837.222222 1131.38889,837.222222 C1123.55228,837.222222 1117.06915,843.017124 1115.99086,850.555556 Z M1081.92171,1228.55556 L1174.07829,1228.55556 C1176.60367,1234.53271 1178,1241.10329 1178,1248 C1178,1250.83927 1177.76334,1253.62326 1177.30868,1256.33333 L1161.33333,1256.33333 L1099.66934,1256.33333 L1091.08121,1256.33333 C1094.87585,1273.18794 1109.93608,1285.77778 1127.93682,1285.77778 C1142.81874,1285.77778 1155.69083,1277.17264 1161.8488,1264.66667 L1175.1549,1264.66667 C1168.29096,1284.08654 1149.77031,1298 1128,1298 C1100.38576,1298 1078,1275.61424 1078,1248 C1078,1241.10329 1079.39633,1234.53271 1081.92172,1228.55555 Z M1086.41972,1220.22222 C1095.38929,1206.82238 1110.66435,1198 1128,1198 C1145.33565,1198 1160.61071,1206.82238 1169.58028,1220.22222 L1086.41972,1220.22222 Z M1103.61596,1264.66667 L1152.25768,1264.66667 C1146.95445,1272.42044 1138.03986,1277.50878 1127.93682,1277.50878 C1117.83378,1277.50878 1108.91919,1272.42044 1103.61596,1264.66667 Z M1091.21309,1248.55556 L1099.73722,1248.55556 C1100.67451,1245.65415 1103.39773,1243.55556 1106.61111,1243.55556 C1109.82449,1243.55556 1112.54772,1245.65415 1113.485,1248.55556 L1122.00914,1248.55556 C1120.93085,1241.01712 1114.44772,1235.22222 1106.61111,1235.22222 C1098.77451,1235.22222 1092.29137,1241.01712 1091.21309,1248.55556 Z M1133.99086,1248.55556 L1142.515,1248.55556 C1143.45228,1245.65415 1146.17551,1243.55556 1149.38889,1243.55556 C1152.60227,1243.55556 1155.32549,1245.65415 1156.26278,1248.55556 L1164.78691,1248.55556 C1163.70863,1241.01712 1157.22549,1235.22222 1149.38889,1235.22222 C1141.55228,1235.22222 1135.06915,1241.01712 1133.99086,1248.55556 Z M928.921712,1075.55556 L1021.07829,1075.55556 C1023.60367,1081.53271 1025,1088.10329 1025,1095 C1025,1097.83927 1024.76334,1100.62326 1024.30868,1103.33333 L1008.33333,1103.33333 L946.669339,1103.33333 L938.081207,1103.33333 C941.875852,1120.18794 956.936078,1132.77778 974.936819,1132.77778 C989.818744,1132.77778 1002.69083,1124.17264 1008.8488,1111.66667 L1022.1549,1111.66667 C1015.29096,1131.08654 996.770314,1145 975,1145 C947.385763,1145 925,1122.61424 925,1095 C925,1088.10329 926.396335,1081.53271 928.921719,1075.55555 Z M933.419717,1067.22222 C942.389287,1053.82238 957.664355,1045 975,1045 C992.335645,1045 1007.61071,1053.82238 1016.58028,1067.22222 L933.419717,1067.22222 Z M950.615956,1111.66667 L999.257676,1111.66667 C993.954448,1119.42044 985.039856,1124.50878 974.936819,1124.50878 C964.833781,1124.50878 955.91919,1119.42044 950.615962,1111.66667 Z M938.213086,1095.55556 L946.737222,1095.55556 C947.674507,1092.65415 950.397732,1090.55556 953.611111,1090.55556 C956.82449,1090.55556 959.547715,1092.65415 960.485001,1095.55556 L969.009136,1095.55556 C967.930848,1088.01712 961.447715,1082.22222 953.611111,1082.22222 C945.774507,1082.22222 939.291374,1088.01712 938.213086,1095.55556 Z M980.990864,1095.55556 L989.514999,1095.55556 C990.452285,1092.65415 993.17551,1090.55556 996.388889,1090.55556 C999.602268,1090.55556 1002.32549,1092.65415 1003.26278,1095.55556 L1011.78691,1095.55556 C1010.70863,1088.01712 1004.22549,1082.22222 996.388889,1082.22222 C988.552285,1082.22222 982.069152,1088.01712 980.990864,1095.55556 Z M1166.92171,1103.55556 L1259.07829,1103.55556 C1261.60367,1109.53271 1263,1116.10329 1263,1123 C1263,1125.83927 1262.76334,1128.62326 1262.30868,1131.33333 L1246.33333,1131.33333 L1184.66934,1131.33333 L1176.08121,1131.33333 C1179.87585,1148.18794 1194.93608,1160.77778 1212.93682,1160.77778 C1227.81874,1160.77778 1240.69083,1152.17264 1246.8488,1139.66667 L1260.1549,1139.66667 C1253.29096,1159.08654 1234.77031,1173 1213,1173 C1185.38576,1173 1163,1150.61424 1163,1123 C1163,1116.10329 1164.39633,1109.53271 1166.92172,1103.55555 Z M1171.41972,1095.22222 C1180.38929,1081.82238 1195.66435,1073 1213,1073 C1230.33565,1073 1245.61071,1081.82238 1254.58028,1095.22222 L1171.41972,1095.22222 Z M1188.61596,1139.66667 L1237.25768,1139.66667 C1231.95445,1147.42044 1223.03986,1152.50878 1212.93682,1152.50878 C1202.83378,1152.50878 1193.91919,1147.42044 1188.61596,1139.66667 Z M1176.21309,1123.55556 L1184.73722,1123.55556 C1185.67451,1120.65415 1188.39773,1118.55556 1191.61111,1118.55556 C1194.82449,1118.55556 1197.54772,1120.65415 1198.485,1123.55556 L1207.00914,1123.55556 C1205.93085,1116.01712 1199.44772,1110.22222 1191.61111,1110.22222 C1183.77451,1110.22222 1177.29137,1116.01712 1176.21309,1123.55556 Z M1218.99086,1123.55556 L1227.515,1123.55556 C1228.45228,1120.65415 1231.17551,1118.55556 1234.38889,1118.55556 C1237.60227,1118.55556 1240.32549,1120.65415 1241.26278,1123.55556 L1249.78691,1123.55556 C1248.70863,1116.01712 1242.22549,1110.22222 1234.38889,1110.22222 C1226.55228,1110.22222 1220.06915,1116.01712 1218.99086,1123.55556 Z M791.921712,891.555556 L884.078288,891.555556 C886.603665,897.532715 888,904.103292 888,911 C888,913.839268 887.763343,916.623263 887.30868,919.333333 L871.333333,919.333333 L809.669339,919.333333 L801.081207,919.333333 C804.875852,936.18794 819.936078,948.777778 837.936819,948.777778 C852.818744,948.777778 865.690833,940.172644 871.848795,927.666667 L885.154905,927.666667 C878.290965,947.08654 859.770314,961 838,961 C810.385763,961 788,938.614237 788,911 C788,904.103292 789.396335,897.532715 791.921719,891.555554 Z M796.419717,883.222222 C805.389287,869.822381 820.664355,861 838,861 C855.335645,861 870.610713,869.822381 879.580283,883.222222 L796.419717,883.222222 Z M813.615956,927.666667 L862.257676,927.666668 C856.954448,935.420436 848.039856,940.508779 837.936819,940.508779 C827.833781,940.508779 818.91919,935.420436 813.615962,927.666668 Z M801.213086,911.555556 L809.737222,911.555556 C810.674507,908.654151 813.397732,906.555556 816.611111,906.555556 C819.82449,906.555556 822.547715,908.654151 823.485001,911.555556 L832.009136,911.555556 C830.930848,904.017124 824.447715,898.222222 816.611111,898.222222 C808.774507,898.222222 802.291374,904.017124 801.213086,911.555556 Z M843.990864,911.555556 L852.514999,911.555556 C853.452285,908.654151 856.17551,906.555556 859.388889,906.555556 C862.602268,906.555556 865.325493,908.654151 866.262778,911.555556 L874.786914,911.555556 C873.708626,904.017124 867.225493,898.222222 859.388889,898.222222 C851.552285,898.222222 845.069152,904.017124 843.990864,911.555556 Z M307.921712,1158.55556 L400.078288,1158.55556 C402.603665,1164.53271 404,1171.10329 404,1178 C404,1180.83927 403.763343,1183.62326 403.30868,1186.33333 L387.333333,1186.33333 L325.669339,1186.33333 L317.081207,1186.33333 C320.875852,1203.18794 335.936078,1215.77778 353.936819,1215.77778 C368.818744,1215.77778 381.690833,1207.17264 387.848795,1194.66667 L401.154905,1194.66667 C394.290965,1214.08654 375.770314,1228 354,1228 C326.385763,1228 304,1205.61424 304,1178 C304,1171.10329 305.396335,1164.53271 307.921719,1158.55555 Z M312.419717,1150.22222 C321.389287,1136.82238 336.664355,1128 354,1128 C371.335645,1128 386.610713,1136.82238 395.580283,1150.22222 L312.419717,1150.22222 Z M329.615956,1194.66667 L378.257676,1194.66667 C372.954448,1202.42044 364.039856,1207.50878 353.936819,1207.50878 C343.833781,1207.50878 334.91919,1202.42044 329.615962,1194.66667 Z M317.213086,1178.55556 L325.737222,1178.55556 C326.674507,1175.65415 329.397732,1173.55556 332.611111,1173.55556 C335.82449,1173.55556 338.547715,1175.65415 339.485001,1178.55556 L348.009136,1178.55556 C346.930848,1171.01712 340.447715,1165.22222 332.611111,1165.22222 C324.774507,1165.22222 318.291374,1171.01712 317.213086,1178.55556 Z M359.990864,1178.55556 L368.514999,1178.55556 C369.452285,1175.65415 372.17551,1173.55556 375.388889,1173.55556 C378.602268,1173.55556 381.325493,1175.65415 382.262778,1178.55556 L390.786914,1178.55556 C389.708626,1171.01712 383.225493,1165.22222 375.388889,1165.22222 C367.552285,1165.22222 361.069152,1171.01712 359.990864,1178.55556 Z M355.921712,1024.55556 L448.078288,1024.55556 C450.603665,1030.53271 452,1037.10329 452,1044 C452,1046.83927 451.763343,1049.62326 451.30868,1052.33333 L435.333333,1052.33333 L373.669339,1052.33333 L365.081207,1052.33333 C368.875852,1069.18794 383.936078,1081.77778 401.936819,1081.77778 C416.818744,1081.77778 429.690833,1073.17264 435.848795,1060.66667 L449.154905,1060.66667 C442.290965,1080.08654 423.770314,1094 402,1094 C374.385763,1094 352,1071.61424 352,1044 C352,1037.10329 353.396335,1030.53271 355.921719,1024.55555 Z M360.419717,1016.22222 C369.389287,1002.82238 384.664355,994 402,994 C419.335645,994 434.610713,1002.82238 443.580283,1016.22222 L360.419717,1016.22222 Z M377.615956,1060.66667 L426.257676,1060.66667 C420.954448,1068.42044 412.039856,1073.50878 401.936819,1073.50878 C391.833781,1073.50878 382.91919,1068.42044 377.615962,1060.66667 Z M365.213086,1044.55556 L373.737222,1044.55556 C374.674507,1041.65415 377.397732,1039.55556 380.611111,1039.55556 C383.82449,1039.55556 386.547715,1041.65415 387.485001,1044.55556 L396.009136,1044.55556 C394.930848,1037.01712 388.447715,1031.22222 380.611111,1031.22222 C372.774507,1031.22222 366.291374,1037.01712 365.213086,1044.55556 Z M407.990864,1044.55556 L416.514999,1044.55556 C417.452285,1041.65415 420.17551,1039.55556 423.388889,1039.55556 C426.602268,1039.55556 429.325493,1041.65415 430.262778,1044.55556 L438.786914,1044.55556 C437.708626,1037.01712 431.225493,1031.22222 423.388889,1031.22222 C415.552285,1031.22222 409.069152,1037.01712 407.990864,1044.55556 Z M84.9217118,826.555556 L177.078288,826.555556 C179.603665,832.532715 181,839.103292 181,846 C181,848.839268 180.763343,851.623263 180.30868,854.333333 L164.333333,854.333333 L102.669339,854.333333 L94.0812073,854.333333 C97.875852,871.18794 112.936078,883.777778 130.936819,883.777778 C145.818744,883.777778 158.690833,875.172644 164.848795,862.666667 L178.154905,862.666667 C171.290965,882.08654 152.770314,896 131,896 C103.385763,896 81,873.614237 81,846 C81,839.103292 82.3963346,832.532715 84.9217186,826.555554 Z M89.4197169,818.222222 C98.3892874,804.822381 113.664355,796 131,796 C148.335645,796 163.610713,804.822381 172.580283,818.222222 L89.4197169,818.222222 Z M106.615956,862.666667 L155.257676,862.666668 C149.954448,870.420436 141.039856,875.508779 130.936819,875.508779 C120.833781,875.508779 111.91919,870.420436 106.615962,862.666668 Z M94.2130864,846.555556 L102.737222,846.555556 C103.674507,843.654151 106.397732,841.555556 109.611111,841.555556 C112.82449,841.555556 115.547715,843.654151 116.485001,846.555556 L125.009136,846.555556 C123.930848,839.017124 117.447715,833.222222 109.611111,833.222222 C101.774507,833.222222 95.2913745,839.017124 94.2130864,846.555556 Z M136.990864,846.555556 L145.514999,846.555556 C146.452285,843.654151 149.17551,841.555556 152.388889,841.555556 C155.602268,841.555556 158.325493,843.654151 159.262778,846.555556 L167.786914,846.555556 C166.708626,839.017124 160.225493,833.222222 152.388889,833.222222 C144.552285,833.222222 138.069152,839.017124 136.990864,846.555556 Z M121.921712,1178.55556 L214.078288,1178.55556 C216.603665,1184.53271 218,1191.10329 218,1198 C218,1200.83927 217.763343,1203.62326 217.30868,1206.33333 L201.333333,1206.33333 L139.669339,1206.33333 L131.081207,1206.33333 C134.875852,1223.18794 149.936078,1235.77778 167.936819,1235.77778 C182.818744,1235.77778 195.690833,1227.17264 201.848795,1214.66667 L215.154905,1214.66667 C208.290965,1234.08654 189.770314,1248 168,1248 C140.385763,1248 118,1225.61424 118,1198 C118,1191.10329 119.396335,1184.53271 121.921719,1178.55555 Z M126.419717,1170.22222 C135.389287,1156.82238 150.664355,1148 168,1148 C185.335645,1148 200.610713,1156.82238 209.580283,1170.22222 L126.419717,1170.22222 Z M143.615956,1214.66667 L192.257676,1214.66667 C186.954448,1222.42044 178.039856,1227.50878 167.936819,1227.50878 C157.833781,1227.50878 148.91919,1222.42044 143.615962,1214.66667 Z M131.213086,1198.55556 L139.737222,1198.55556 C140.674507,1195.65415 143.397732,1193.55556 146.611111,1193.55556 C149.82449,1193.55556 152.547715,1195.65415 153.485001,1198.55556 L162.009136,1198.55556 C160.930848,1191.01712 154.447715,1185.22222 146.611111,1185.22222 C138.774507,1185.22222 132.291374,1191.01712 131.213086,1198.55556 Z M173.990864,1198.55556 L182.514999,1198.55556 C183.452285,1195.65415 186.17551,1193.55556 189.388889,1193.55556 C192.602268,1193.55556 195.325493,1195.65415 196.262778,1198.55556 L204.786914,1198.55556 C203.708626,1191.01712 197.225493,1185.22222 189.388889,1185.22222 C181.552285,1185.22222 175.069152,1191.01712 173.990864,1198.55556 Z M293.921712,1303.55556 L386.078288,1303.55556 C388.603665,1309.53271 390,1316.10329 390,1323 C390,1325.83927 389.763343,1328.62326 389.30868,1331.33333 L373.333333,1331.33333 L311.669339,1331.33333 L303.081207,1331.33333 C306.875852,1348.18794 321.936078,1360.77778 339.936819,1360.77778 C354.818744,1360.77778 367.690833,1352.17264 373.848795,1339.66667 L387.154905,1339.66667 C380.290965,1359.08654 361.770314,1373 340,1373 C312.385763,1373 290,1350.61424 290,1323 C290,1316.10329 291.396335,1309.53271 293.921719,1303.55555 Z M298.419717,1295.22222 C307.389287,1281.82238 322.664355,1273 340,1273 C357.335645,1273 372.610713,1281.82238 381.580283,1295.22222 L298.419717,1295.22222 Z M315.615956,1339.66667 L364.257676,1339.66667 C358.954448,1347.42044 350.039856,1352.50878 339.936819,1352.50878 C329.833781,1352.50878 320.91919,1347.42044 315.615962,1339.66667 Z M303.213086,1323.55556 L311.737222,1323.55556 C312.674507,1320.65415 315.397732,1318.55556 318.611111,1318.55556 C321.82449,1318.55556 324.547715,1320.65415 325.485001,1323.55556 L334.009136,1323.55556 C332.930848,1316.01712 326.447715,1310.22222 318.611111,1310.22222 C310.774507,1310.22222 304.291374,1316.01712 303.213086,1323.55556 Z M345.990864,1323.55556 L354.514999,1323.55556 C355.452285,1320.65415 358.17551,1318.55556 361.388889,1318.55556 C364.602268,1318.55556 367.325493,1320.65415 368.262778,1323.55556 L376.786914,1323.55556 C375.708626,1316.01712 369.225493,1310.22222 361.388889,1310.22222 C353.552285,1310.22222 347.069152,1316.01712 345.990864,1323.55556 Z M841.921712,730.555556 L934.078288,730.555556 C936.603665,736.532715 938,743.103292 938,750 C938,752.839268 937.763343,755.623263 937.30868,758.333333 L921.333333,758.333333 L859.669339,758.333333 L851.081207,758.333333 C854.875852,775.18794 869.936078,787.777778 887.936819,787.777778 C902.818744,787.777778 915.690833,779.172644 921.848795,766.666667 L935.154905,766.666667 C928.290965,786.08654 909.770314,800 888,800 C860.385763,800 838,777.614237 838,750 C838,743.103292 839.396335,736.532715 841.921719,730.555554 Z M846.419717,722.222222 C855.389287,708.822381 870.664355,700 888,700 C905.335645,700 920.610713,708.822381 929.580283,722.222222 L846.419717,722.222222 Z M863.615956,766.666667 L912.257676,766.666668 C906.954448,774.420436 898.039856,779.508779 887.936819,779.508779 C877.833781,779.508779 868.91919,774.420436 863.615962,766.666668 Z M851.213086,750.555556 L859.737222,750.555556 C860.674507,747.654151 863.397732,745.555556 866.611111,745.555556 C869.82449,745.555556 872.547715,747.654151 873.485001,750.555556 L882.009136,750.555556 C880.930848,743.017124 874.447715,737.222222 866.611111,737.222222 C858.774507,737.222222 852.291374,743.017124 851.213086,750.555556 Z M893.990864,750.555556 L902.514999,750.555556 C903.452285,747.654151 906.17551,745.555556 909.388889,745.555556 C912.602268,745.555556 915.325493,747.654151 916.262778,750.555556 L924.786914,750.555556 C923.708626,743.017124 917.225493,737.222222 909.388889,737.222222 C901.552285,737.222222 895.069152,743.017124 893.990864,750.555556 Z M718.921712,1253.55556 L811.078288,1253.55556 C813.603665,1259.53271 815,1266.10329 815,1273 C815,1275.83927 814.763343,1278.62326 814.30868,1281.33333 L798.333333,1281.33333 L736.669339,1281.33333 L728.081207,1281.33333 C731.875852,1298.18794 746.936078,1310.77778 764.936819,1310.77778 C779.818744,1310.77778 792.690833,1302.17264 798.848795,1289.66667 L812.154905,1289.66667 C805.290965,1309.08654 786.770314,1323 765,1323 C737.385763,1323 715,1300.61424 715,1273 C715,1266.10329 716.396335,1259.53271 718.921719,1253.55555 Z M723.419717,1245.22222 C732.389287,1231.82238 747.664355,1223 765,1223 C782.335645,1223 797.610713,1231.82238 806.580283,1245.22222 L723.419717,1245.22222 Z M740.615956,1289.66667 L789.257676,1289.66667 C783.954448,1297.42044 775.039856,1302.50878 764.936819,1302.50878 C754.833781,1302.50878 745.91919,1297.42044 740.615962,1289.66667 Z M728.213086,1273.55556 L736.737222,1273.55556 C737.674507,1270.65415 740.397732,1268.55556 743.611111,1268.55556 C746.82449,1268.55556 749.547715,1270.65415 750.485001,1273.55556 L759.009136,1273.55556 C757.930848,1266.01712 751.447715,1260.22222 743.611111,1260.22222 C735.774507,1260.22222 729.291374,1266.01712 728.213086,1273.55556 Z M770.990864,1273.55556 L779.514999,1273.55556 C780.452285,1270.65415 783.17551,1268.55556 786.388889,1268.55556 C789.602268,1268.55556 792.325493,1270.65415 793.262778,1273.55556 L801.786914,1273.55556 C800.708626,1266.01712 794.225493,1260.22222 786.388889,1260.22222 C778.552285,1260.22222 772.069152,1266.01712 770.990864,1273.55556 Z M615.960856,797.277778 L662.039144,797.277778 C663.301833,800.266357 664,803.551646 664,807 C664,808.419634 663.881672,809.811631 663.65434,811.166667 L655.666667,811.166667 L624.83467,811.166667 L620.540604,811.166667 C622.437926,819.59397 629.968039,825.888889 638.968409,825.888889 C646.409372,825.888889 652.845416,821.586322 655.924398,815.333333 L662.577452,815.333333 C659.145482,825.04327 649.885157,832 639,832 C625.192881,832 614,820.807119 614,807 C614,803.551646 614.698167,800.266357 615.960859,797.277777 Z M618.209858,793.111111 C622.694644,786.41119 630.332177,782 639,782 C647.667823,782 655.305356,786.41119 659.790142,793.111111 L618.209858,793.111111 Z M626.807978,815.333333 L651.128838,815.333334 C648.477224,819.210218 644.019928,821.754389 638.968409,821.754389 C633.916891,821.754389 629.459595,819.210218 626.807981,815.333334 Z M620.606543,807.277778 L624.868611,807.277778 C625.337254,805.827076 626.698866,804.777778 628.305556,804.777778 C629.912245,804.777778 631.273858,805.827076 631.7425,807.277778 L636.004568,807.277778 C635.465424,803.508562 632.223858,800.611111 628.305556,800.611111 C624.387253,800.611111 621.145687,803.508562 620.606543,807.277778 Z M641.995432,807.277778 L646.2575,807.277778 C646.726142,805.827076 648.087755,804.777778 649.694444,804.777778 C651.301134,804.777778 652.662746,805.827076 653.131389,807.277778 L657.393457,807.277778 C656.854313,803.508562 653.612747,800.611111 649.694444,800.611111 C645.776142,800.611111 642.534576,803.508562 641.995432,807.277778 Z M337.960856,891.277778 L384.039144,891.277778 C385.301833,894.266357 386,897.551646 386,901 C386,902.419634 385.881672,903.811631 385.65434,905.166667 L377.666667,905.166667 L346.83467,905.166667 L342.540604,905.166667 C344.437926,913.59397 351.968039,919.888889 360.968409,919.888889 C368.409372,919.888889 374.845416,915.586322 377.924398,909.333333 L384.577452,909.333333 C381.145482,919.04327 371.885157,926 361,926 C347.192881,926 336,914.807119 336,901 C336,897.551646 336.698167,894.266357 337.960859,891.277777 Z M340.209858,887.111111 C344.694644,880.41119 352.332177,876 361,876 C369.667823,876 377.305356,880.41119 381.790142,887.111111 L340.209858,887.111111 Z M348.807978,909.333333 L373.128838,909.333334 C370.477224,913.210218 366.019928,915.754389 360.968409,915.754389 C355.916891,915.754389 351.459595,913.210218 348.807981,909.333334 Z M342.606543,901.277778 L346.868611,901.277778 C347.337254,899.827076 348.698866,898.777778 350.305556,898.777778 C351.912245,898.777778 353.273858,899.827076 353.7425,901.277778 L358.004568,901.277778 C357.465424,897.508562 354.223858,894.611111 350.305556,894.611111 C346.387253,894.611111 343.145687,897.508562 342.606543,901.277778 Z M363.995432,901.277778 L368.2575,901.277778 C368.726142,899.827076 370.087755,898.777778 371.694444,898.777778 C373.301134,898.777778 374.662746,899.827076 375.131389,901.277778 L379.393457,901.277778 C378.854313,897.508562 375.612747,894.611111 371.694444,894.611111 C367.776142,894.611111 364.534576,897.508562 363.995432,901.277778 Z M223.960856,777.277778 L270.039144,777.277778 C271.301833,780.266357 272,783.551646 272,787 C272,788.419634 271.881672,789.811631 271.65434,791.166667 L263.666667,791.166667 L232.83467,791.166667 L228.540604,791.166667 C230.437926,799.59397 237.968039,805.888889 246.968409,805.888889 C254.409372,805.888889 260.845416,801.586322 263.924398,795.333333 L270.577452,795.333333 C267.145482,805.04327 257.885157,812 247,812 C233.192881,812 222,800.807119 222,787 C222,783.551646 222.698167,780.266357 223.960859,777.277777 Z M226.209858,773.111111 C230.694644,766.41119 238.332177,762 247,762 C255.667823,762 263.305356,766.41119 267.790142,773.111111 L226.209858,773.111111 Z M234.807978,795.333333 L259.128838,795.333334 C256.477224,799.210218 252.019928,801.754389 246.968409,801.754389 C241.916891,801.754389 237.459595,799.210218 234.807981,795.333334 Z M228.606543,787.277778 L232.868611,787.277778 C233.337254,785.827076 234.698866,784.777778 236.305556,784.777778 C237.912245,784.777778 239.273858,785.827076 239.7425,787.277778 L244.004568,787.277778 C243.465424,783.508562 240.223858,780.611111 236.305556,780.611111 C232.387253,780.611111 229.145687,783.508562 228.606543,787.277778 Z M249.995432,787.277778 L254.2575,787.277778 C254.726142,785.827076 256.087755,784.777778 257.694444,784.777778 C259.301134,784.777778 260.662746,785.827076 261.131389,787.277778 L265.393457,787.277778 C264.854313,783.508562 261.612747,780.611111 257.694444,780.611111 C253.776142,780.611111 250.534576,783.508562 249.995432,787.277778 Z M58.9608559,976.277778 L105.039144,976.277778 C106.301833,979.266357 107,982.551646 107,986 C107,987.419634 106.881672,988.811631 106.65434,990.166667 L98.6666667,990.166667 L67.8346696,990.166667 L63.5406036,990.166667 C65.437926,998.59397 72.9680392,1004.88889 81.9684095,1004.88889 C89.409372,1004.88889 95.8454163,1000.58632 98.9243977,994.333333 L105.577452,994.333333 C102.145482,1004.04327 92.8851569,1011 82,1011 C68.1928813,1011 57,999.807119 57,986 C57,982.551646 57.6981673,979.266357 58.9608593,976.277777 Z M61.2098584,972.111111 C65.6946437,965.41119 73.3321775,961 82,961 C90.6678225,961 98.3053563,965.41119 102.790142,972.111111 L61.2098584,972.111111 Z M69.8079779,994.333333 L94.1288378,994.333334 C91.477224,998.210218 87.0199282,1000.75439 81.9684095,1000.75439 C76.9168907,1000.75439 72.459595,998.210218 69.8079811,994.333334 Z M63.6065432,986.277778 L67.8686108,986.277778 C68.3372535,984.827076 69.6988662,983.777778 71.3055556,983.777778 C72.9122449,983.777778 74.2738576,984.827076 74.7425003,986.277778 L79.0045679,986.277778 C78.4654239,982.508562 75.2238577,979.611111 71.3055556,979.611111 C67.3872534,979.611111 64.1456872,982.508562 63.6065432,986.277778 Z M84.9954321,986.277778 L89.2574997,986.277778 C89.7261424,984.827076 91.0877551,983.777778 92.6944444,983.777778 C94.3011338,983.777778 95.6627465,984.827076 96.1313892,986.277778 L100.393457,986.277778 C99.8543128,982.508562 96.6127466,979.611111 92.6944444,979.611111 C88.7761423,979.611111 85.5345761,982.508562 84.9954321,986.277778 Z M446.960856,1273.27778 L493.039144,1273.27778 C494.301833,1276.26636 495,1279.55165 495,1283 C495,1284.41963 494.881672,1285.81163 494.65434,1287.16667 L486.666667,1287.16667 L455.83467,1287.16667 L451.540604,1287.16667 C453.437926,1295.59397 460.968039,1301.88889 469.968409,1301.88889 C477.409372,1301.88889 483.845416,1297.58632 486.924398,1291.33333 L493.577452,1291.33333 C490.145482,1301.04327 480.885157,1308 470,1308 C456.192881,1308 445,1296.80712 445,1283 C445,1279.55165 445.698167,1276.26636 446.960859,1273.27778 Z M449.209858,1269.11111 C453.694644,1262.41119 461.332177,1258 470,1258 C478.667823,1258 486.305356,1262.41119 490.790142,1269.11111 L449.209858,1269.11111 Z M457.807978,1291.33333 L482.128838,1291.33333 C479.477224,1295.21022 475.019928,1297.75439 469.968409,1297.75439 C464.916891,1297.75439 460.459595,1295.21022 457.807981,1291.33333 Z M451.606543,1283.27778 L455.868611,1283.27778 C456.337254,1281.82708 457.698866,1280.77778 459.305556,1280.77778 C460.912245,1280.77778 462.273858,1281.82708 462.7425,1283.27778 L467.004568,1283.27778 C466.465424,1279.50856 463.223858,1276.61111 459.305556,1276.61111 C455.387253,1276.61111 452.145687,1279.50856 451.606543,1283.27778 Z M472.995432,1283.27778 L477.2575,1283.27778 C477.726142,1281.82708 479.087755,1280.77778 480.694444,1280.77778 C482.301134,1280.77778 483.662746,1281.82708 484.131389,1283.27778 L488.393457,1283.27778 C487.854313,1279.50856 484.612747,1276.61111 480.694444,1276.61111 C476.776142,1276.61111 473.534576,1279.50856 472.995432,1283.27778 Z M43.9608559,1273.27778 L90.0391441,1273.27778 C91.3018327,1276.26636 92,1279.55165 92,1283 C92,1284.41963 91.8816717,1285.81163 91.6543398,1287.16667 L83.6666667,1287.16667 L52.8346696,1287.16667 L48.5406036,1287.16667 C50.437926,1295.59397 57.9680392,1301.88889 66.9684095,1301.88889 C74.409372,1301.88889 80.8454163,1297.58632 83.9243977,1291.33333 L90.5774524,1291.33333 C87.1454824,1301.04327 77.8851569,1308 67,1308 C53.1928813,1308 42,1296.80712 42,1283 C42,1279.55165 42.6981673,1276.26636 43.9608593,1273.27778 Z M46.2098584,1269.11111 C50.6946437,1262.41119 58.3321775,1258 67,1258 C75.6678225,1258 83.3053563,1262.41119 87.7901416,1269.11111 L46.2098584,1269.11111 Z M54.8079779,1291.33333 L79.1288378,1291.33333 C76.477224,1295.21022 72.0199282,1297.75439 66.9684095,1297.75439 C61.9168907,1297.75439 57.459595,1295.21022 54.8079811,1291.33333 Z M48.6065432,1283.27778 L52.8686108,1283.27778 C53.3372535,1281.82708 54.6988662,1280.77778 56.3055556,1280.77778 C57.9122449,1280.77778 59.2738576,1281.82708 59.7425003,1283.27778 L64.0045679,1283.27778 C63.4654239,1279.50856 60.2238577,1276.61111 56.3055556,1276.61111 C52.3872534,1276.61111 49.1456872,1279.50856 48.6065432,1283.27778 Z M69.9954321,1283.27778 L74.2574997,1283.27778 C74.7261424,1281.82708 76.0877551,1280.77778 77.6944444,1280.77778 C79.3011338,1280.77778 80.6627465,1281.82708 81.1313892,1283.27778 L85.3934568,1283.27778 C84.8543128,1279.50856 81.6127466,1276.61111 77.6944444,1276.61111 C73.7761423,1276.61111 70.5345761,1279.50856 69.9954321,1283.27778 Z M710.960856,964.277778 L757.039144,964.277778 C758.301833,967.266357 759,970.551646 759,974 C759,975.419634 758.881672,976.811631 758.65434,978.166667 L750.666667,978.166667 L719.83467,978.166667 L715.540604,978.166667 C717.437926,986.59397 724.968039,992.888889 733.968409,992.888889 C741.409372,992.888889 747.845416,988.586322 750.924398,982.333333 L757.577452,982.333333 C754.145482,992.04327 744.885157,999 734,999 C720.192881,999 709,987.807119 709,974 C709,970.551646 709.698167,967.266357 710.960859,964.277777 Z M713.209858,960.111111 C717.694644,953.41119 725.332177,949 734,949 C742.667823,949 750.305356,953.41119 754.790142,960.111111 L713.209858,960.111111 Z M721.807978,982.333333 L746.128838,982.333334 C743.477224,986.210218 739.019928,988.754389 733.968409,988.754389 C728.916891,988.754389 724.459595,986.210218 721.807981,982.333334 Z M715.606543,974.277778 L719.868611,974.277778 C720.337254,972.827076 721.698866,971.777778 723.305556,971.777778 C724.912245,971.777778 726.273858,972.827076 726.7425,974.277778 L731.004568,974.277778 C730.465424,970.508562 727.223858,967.611111 723.305556,967.611111 C719.387253,967.611111 716.145687,970.508562 715.606543,974.277778 Z M736.995432,974.277778 L741.2575,974.277778 C741.726142,972.827076 743.087755,971.777778 744.694444,971.777778 C746.301134,971.777778 747.662746,972.827076 748.131389,974.277778 L752.393457,974.277778 C751.854313,970.508562 748.612747,967.611111 744.694444,967.611111 C740.776142,967.611111 737.534576,970.508562 736.995432,974.277778 Z M237.960856,1054.27778 L284.039144,1054.27778 C285.301833,1057.26636 286,1060.55165 286,1064 C286,1065.41963 285.881672,1066.81163 285.65434,1068.16667 L277.666667,1068.16667 L246.83467,1068.16667 L242.540604,1068.16667 C244.437926,1076.59397 251.968039,1082.88889 260.968409,1082.88889 C268.409372,1082.88889 274.845416,1078.58632 277.924398,1072.33333 L284.577452,1072.33333 C281.145482,1082.04327 271.885157,1089 261,1089 C247.192881,1089 236,1077.80712 236,1064 C236,1060.55165 236.698167,1057.26636 237.960859,1054.27778 Z M240.209858,1050.11111 C244.694644,1043.41119 252.332177,1039 261,1039 C269.667823,1039 277.305356,1043.41119 281.790142,1050.11111 L240.209858,1050.11111 Z M248.807978,1072.33333 L273.128838,1072.33333 C270.477224,1076.21022 266.019928,1078.75439 260.968409,1078.75439 C255.916891,1078.75439 251.459595,1076.21022 248.807981,1072.33333 Z M242.606543,1064.27778 L246.868611,1064.27778 C247.337254,1062.82708 248.698866,1061.77778 250.305556,1061.77778 C251.912245,1061.77778 253.273858,1062.82708 253.7425,1064.27778 L258.004568,1064.27778 C257.465424,1060.50856 254.223858,1057.61111 250.305556,1057.61111 C246.387253,1057.61111 243.145687,1060.50856 242.606543,1064.27778 Z M263.995432,1064.27778 L268.2575,1064.27778 C268.726142,1062.82708 270.087755,1061.77778 271.694444,1061.77778 C273.301134,1061.77778 274.662746,1062.82708 275.131389,1064.27778 L279.393457,1064.27778 C278.854313,1060.50856 275.612747,1057.61111 271.694444,1057.61111 C267.776142,1057.61111 264.534576,1060.50856 263.995432,1064.27778 Z M796.960856,1128.27778 L843.039144,1128.27778 C844.301833,1131.26636 845,1134.55165 845,1138 C845,1139.41963 844.881672,1140.81163 844.65434,1142.16667 L836.666667,1142.16667 L805.83467,1142.16667 L801.540604,1142.16667 C803.437926,1150.59397 810.968039,1156.88889 819.968409,1156.88889 C827.409372,1156.88889 833.845416,1152.58632 836.924398,1146.33333 L843.577452,1146.33333 C840.145482,1156.04327 830.885157,1163 820,1163 C806.192881,1163 795,1151.80712 795,1138 C795,1134.55165 795.698167,1131.26636 796.960859,1128.27778 Z M799.209858,1124.11111 C803.694644,1117.41119 811.332177,1113 820,1113 C828.667823,1113 836.305356,1117.41119 840.790142,1124.11111 L799.209858,1124.11111 Z M807.807978,1146.33333 L832.128838,1146.33333 C829.477224,1150.21022 825.019928,1152.75439 819.968409,1152.75439 C814.916891,1152.75439 810.459595,1150.21022 807.807981,1146.33333 Z M801.606543,1138.27778 L805.868611,1138.27778 C806.337254,1136.82708 807.698866,1135.77778 809.305556,1135.77778 C810.912245,1135.77778 812.273858,1136.82708 812.7425,1138.27778 L817.004568,1138.27778 C816.465424,1134.50856 813.223858,1131.61111 809.305556,1131.61111 C805.387253,1131.61111 802.145687,1134.50856 801.606543,1138.27778 Z M822.995432,1138.27778 L827.2575,1138.27778 C827.726142,1136.82708 829.087755,1135.77778 830.694444,1135.77778 C832.301134,1135.77778 833.662746,1136.82708 834.131389,1138.27778 L838.393457,1138.27778 C837.854313,1134.50856 834.612747,1131.61111 830.694444,1131.61111 C826.776142,1131.61111 823.534576,1134.50856 822.995432,1138.27778 Z M1006.96086,1298.27778 L1053.03914,1298.27778 C1054.30183,1301.26636 1055,1304.55165 1055,1308 C1055,1309.41963 1054.88167,1310.81163 1054.65434,1312.16667 L1046.66667,1312.16667 L1015.83467,1312.16667 L1011.5406,1312.16667 C1013.43793,1320.59397 1020.96804,1326.88889 1029.96841,1326.88889 C1037.40937,1326.88889 1043.84542,1322.58632 1046.9244,1316.33333 L1053.57745,1316.33333 C1050.14548,1326.04327 1040.88516,1333 1030,1333 C1016.19288,1333 1005,1321.80712 1005,1308 C1005,1304.55165 1005.69817,1301.26636 1006.96086,1298.27778 Z M1009.20986,1294.11111 C1013.69464,1287.41119 1021.33218,1283 1030,1283 C1038.66782,1283 1046.30536,1287.41119 1050.79014,1294.11111 L1009.20986,1294.11111 Z M1017.80798,1316.33333 L1042.12884,1316.33333 C1039.47722,1320.21022 1035.01993,1322.75439 1029.96841,1322.75439 C1024.91689,1322.75439 1020.45959,1320.21022 1017.80798,1316.33333 Z M1011.60654,1308.27778 L1015.86861,1308.27778 C1016.33725,1306.82708 1017.69887,1305.77778 1019.30556,1305.77778 C1020.91224,1305.77778 1022.27386,1306.82708 1022.7425,1308.27778 L1027.00457,1308.27778 C1026.46542,1304.50856 1023.22386,1301.61111 1019.30556,1301.61111 C1015.38725,1301.61111 1012.14569,1304.50856 1011.60654,1308.27778 Z M1032.99543,1308.27778 L1037.2575,1308.27778 C1037.72614,1306.82708 1039.08776,1305.77778 1040.69444,1305.77778 C1042.30113,1305.77778 1043.66275,1306.82708 1044.13139,1308.27778 L1048.39346,1308.27778 C1047.85431,1304.50856 1044.61275,1301.61111 1040.69444,1301.61111 C1036.77614,1301.61111 1033.53458,1304.50856 1032.99543,1308.27778 Z M891.960856,1001.27778 L938.039144,1001.27778 C939.301833,1004.26636 940,1007.55165 940,1011 C940,1012.41963 939.881672,1013.81163 939.65434,1015.16667 L931.666667,1015.16667 L900.83467,1015.16667 L896.540604,1015.16667 C898.437926,1023.59397 905.968039,1029.88889 914.968409,1029.88889 C922.409372,1029.88889 928.845416,1025.58632 931.924398,1019.33333 L938.577452,1019.33333 C935.145482,1029.04327 925.885157,1036 915,1036 C901.192881,1036 890,1024.80712 890,1011 C890,1007.55165 890.698167,1004.26636 891.960859,1001.27778 Z M894.209858,997.111111 C898.694644,990.41119 906.332177,986 915,986 C923.667823,986 931.305356,990.41119 935.790142,997.111111 L894.209858,997.111111 Z M902.807978,1019.33333 L927.128838,1019.33333 C924.477224,1023.21022 920.019928,1025.75439 914.968409,1025.75439 C909.916891,1025.75439 905.459595,1023.21022 902.807981,1019.33333 Z M896.606543,1011.27778 L900.868611,1011.27778 C901.337254,1009.82708 902.698866,1008.77778 904.305556,1008.77778 C905.912245,1008.77778 907.273858,1009.82708 907.7425,1011.27778 L912.004568,1011.27778 C911.465424,1007.50856 908.223858,1004.61111 904.305556,1004.61111 C900.387253,1004.61111 897.145687,1007.50856 896.606543,1011.27778 Z M917.995432,1011.27778 L922.2575,1011.27778 C922.726142,1009.82708 924.087755,1008.77778 925.694444,1008.77778 C927.301134,1008.77778 928.662746,1009.82708 929.131389,1011.27778 L933.393457,1011.27778 C932.854313,1007.50856 929.612747,1004.61111 925.694444,1004.61111 C921.776142,1004.61111 918.534576,1007.50856 917.995432,1011.27778 Z M956.960856,847.277778 L1003.03914,847.277778 C1004.30183,850.266357 1005,853.551646 1005,857 C1005,858.419634 1004.88167,859.811631 1004.65434,861.166667 L996.666667,861.166667 L965.83467,861.166667 L961.540604,861.166667 C963.437926,869.59397 970.968039,875.888889 979.968409,875.888889 C987.409372,875.888889 993.845416,871.586322 996.924398,865.333333 L1003.57745,865.333333 C1000.14548,875.04327 990.885157,882 980,882 C966.192881,882 955,870.807119 955,857 C955,853.551646 955.698167,850.266357 956.960859,847.277777 Z M959.209858,843.111111 C963.694644,836.41119 971.332177,832 980,832 C988.667823,832 996.305356,836.41119 1000.79014,843.111111 L959.209858,843.111111 Z M967.807978,865.333333 L992.128838,865.333334 C989.477224,869.210218 985.019928,871.754389 979.968409,871.754389 C974.916891,871.754389 970.459595,869.210218 967.807981,865.333334 Z M961.606543,857.277778 L965.868611,857.277778 C966.337254,855.827076 967.698866,854.777778 969.305556,854.777778 C970.912245,854.777778 972.273858,855.827076 972.7425,857.277778 L977.004568,857.277778 C976.465424,853.508562 973.223858,850.611111 969.305556,850.611111 C965.387253,850.611111 962.145687,853.508562 961.606543,857.277778 Z M982.995432,857.277778 L987.2575,857.277778 C987.726142,855.827076 989.087755,854.777778 990.694444,854.777778 C992.301134,854.777778 993.662746,855.827076 994.131389,857.277778 L998.393457,857.277778 C997.854313,853.508562 994.612747,850.611111 990.694444,850.611111 C986.776142,850.611111 983.534576,853.508562 982.995432,857.277778 Z M1196.96086,742.277778 L1243.03914,742.277778 C1244.30183,745.266357 1245,748.551646 1245,752 C1245,753.419634 1244.88167,754.811631 1244.65434,756.166667 L1236.66667,756.166667 L1205.83467,756.166667 L1201.5406,756.166667 C1203.43793,764.59397 1210.96804,770.888889 1219.96841,770.888889 C1227.40937,770.888889 1233.84542,766.586322 1236.9244,760.333333 L1243.57745,760.333333 C1240.14548,770.04327 1230.88516,777 1220,777 C1206.19288,777 1195,765.807119 1195,752 C1195,748.551646 1195.69817,745.266357 1196.96086,742.277777 Z M1199.20986,738.111111 C1203.69464,731.41119 1211.33218,727 1220,727 C1228.66782,727 1236.30536,731.41119 1240.79014,738.111111 L1199.20986,738.111111 Z M1207.80798,760.333333 L1232.12884,760.333334 C1229.47722,764.210218 1225.01993,766.754389 1219.96841,766.754389 C1214.91689,766.754389 1210.45959,764.210218 1207.80798,760.333334 Z M1201.60654,752.277778 L1205.86861,752.277778 C1206.33725,750.827076 1207.69887,749.777778 1209.30556,749.777778 C1210.91224,749.777778 1212.27386,750.827076 1212.7425,752.277778 L1217.00457,752.277778 C1216.46542,748.508562 1213.22386,745.611111 1209.30556,745.611111 C1205.38725,745.611111 1202.14569,748.508562 1201.60654,752.277778 Z M1222.99543,752.277778 L1227.2575,752.277778 C1227.72614,750.827076 1229.08776,749.777778 1230.69444,749.777778 C1232.30113,749.777778 1233.66275,750.827076 1234.13139,752.277778 L1238.39346,752.277778 C1237.85431,748.508562 1234.61275,745.611111 1230.69444,745.611111 C1226.77614,745.611111 1223.53458,748.508562 1222.99543,752.277778 Z M1074.96086,999.277778 L1121.03914,999.277778 C1122.30183,1002.26636 1123,1005.55165 1123,1009 C1123,1010.41963 1122.88167,1011.81163 1122.65434,1013.16667 L1114.66667,1013.16667 L1083.83467,1013.16667 L1079.5406,1013.16667 C1081.43793,1021.59397 1088.96804,1027.88889 1097.96841,1027.88889 C1105.40937,1027.88889 1111.84542,1023.58632 1114.9244,1017.33333 L1121.57745,1017.33333 C1118.14548,1027.04327 1108.88516,1034 1098,1034 C1084.19288,1034 1073,1022.80712 1073,1009 C1073,1005.55165 1073.69817,1002.26636 1074.96086,999.277777 Z M1077.20986,995.111111 C1081.69464,988.41119 1089.33218,984 1098,984 C1106.66782,984 1114.30536,988.41119 1118.79014,995.111111 L1077.20986,995.111111 Z M1085.80798,1017.33333 L1110.12884,1017.33333 C1107.47722,1021.21022 1103.01993,1023.75439 1097.96841,1023.75439 C1092.91689,1023.75439 1088.45959,1021.21022 1085.80798,1017.33333 Z M1079.60654,1009.27778 L1083.86861,1009.27778 C1084.33725,1007.82708 1085.69887,1006.77778 1087.30556,1006.77778 C1088.91224,1006.77778 1090.27386,1007.82708 1090.7425,1009.27778 L1095.00457,1009.27778 C1094.46542,1005.50856 1091.22386,1002.61111 1087.30556,1002.61111 C1083.38725,1002.61111 1080.14569,1005.50856 1079.60654,1009.27778 Z M1100.99543,1009.27778 L1105.2575,1009.27778 C1105.72614,1007.82708 1107.08776,1006.77778 1108.69444,1006.77778 C1110.30113,1006.77778 1111.66275,1007.82708 1112.13139,1009.27778 L1116.39346,1009.27778 C1115.85431,1005.50856 1112.61275,1002.61111 1108.69444,1002.61111 C1104.77614,1002.61111 1101.53458,1005.50856 1100.99543,1009.27778 Z" id="Combined-Shape"></path>
        </g>
    </g>
</svg>