<svg height="550" viewBox="0 0 490 550" width="490" xmlns="http://www.w3.org/2000/svg"><g fill="#fff" fill-rule="evenodd" opacity=".1"><path d="m260 111.111111h-140v-17.111111c0-7.7319865 6.268014-14 14-14h112c7.731986 0 14 6.2680135 14 14zm0 11.666667v38.888889h-23.333333-89.831463-8.521514c5.312503 23.59645 26.39682 41.222222 51.597856 41.222222 20.834696 0 38.85562-12.047187 47.476768-29.555556h22.611686v32.666667c0 7.731986-6.268014 14-14 14h-112c-7.731986 0-14-6.268014-14-14v-83.222222zm-104.137662 50.555555 68.098408.000002c-7.424519 10.855275-19.904947 17.978955-34.0492 17.978955-14.144252 0-26.62468-7.12368-34.049199-17.978955zm-17.364017-22.555555h11.933789c1.3122-4.061966 5.124715-7 9.623446-7 4.49873 0 8.311245 2.938034 9.623445 7h11.933789c-1.509603-10.553804-10.585989-18.666667-21.557234-18.666667-10.971246 0-20.047632 8.112863-21.557235 18.666667zm59.888889 0h11.933789c1.3122-4.061966 5.124715-7 9.623445-7 4.498731 0 8.311246 2.938034 9.623446 7h11.933789c-1.509603-10.553804-10.585989-18.666667-21.557235-18.666667-10.971245 0-20.047631 8.112863-21.557234 18.666667z"/><path d="m380 441.111111h-140v-17.111111c0-7.731986 6.268014-14 14-14h112c7.731986 0 14 6.268014 14 14zm0 11.666667v38.888889h-23.333333-89.831463-8.521514c5.312503 23.59645 26.39682 41.222222 51.597856 41.222222 20.834696 0 38.85562-12.047187 47.476768-29.555556h22.611686v32.666667c0 7.731986-6.268014 14-14 14h-112c-7.731986 0-14-6.268014-14-14v-83.222222zm-104.137662 50.555555 68.098408.000002c-7.424519 10.855275-19.904947 17.978955-34.0492 17.978955-14.144252 0-26.62468-7.12368-34.049199-17.978955zm-17.364017-22.555555h11.933789c1.3122-4.061966 5.124715-7 9.623446-7 4.49873 0 8.311245 2.938034 9.623445 7h11.933789c-1.509603-10.553804-10.585989-18.666667-21.557234-18.666667-10.971246 0-20.047632 8.112863-21.557235 18.666667zm59.888889 0h11.933789c1.3122-4.061966 5.124715-7 9.623445-7 4.498731 0 8.311246 2.938034 9.623446 7h11.933789c-1.509603-10.553804-10.585989-18.666667-21.557235-18.666667-10.971245 0-20.047631 8.112863-21.557234 18.666667z"/><path d="m159 307.777778h-80v-9.777778c0-4.418278 3.581722-8 8-8h64c4.418278 0 8 3.581722 8 8zm0 6.666666v22.222223h-13.333333-51.3322646-4.8694366c3.0357158 13.483685 15.0838972 23.555555 29.4844892 23.555555 11.90554 0 22.203211-6.884106 27.129581-16.888889h12.920964v18.666667c0 4.418278-3.581722 8-8 8h-64c-4.418278 0-8-3.581722-8-8v-47.555556zm-59.5072353 28.888889 38.9133753.000001c-4.242582 6.203015-11.374255 10.273689-19.456685 10.273689s-15.214103-4.070674-19.4566852-10.273689zm-9.9222956-12.888889h6.8193081c.7498285-2.321123 2.9284088-4 5.4991118-4s4.749283 1.678877 5.499112 4h6.819308c-.862631-6.030745-6.049137-10.666666-12.31842-10.666666-6.2692835 0-11.4557894 4.635921-12.3184199 10.666666zm34.2222219 0h6.819308c.749829-2.321123 2.928409-4 5.499112-4s4.749283 1.678877 5.499112 4h6.819308c-.862631-6.030745-6.049136-10.666666-12.31842-10.666666-6.269283 0-11.455789 4.635921-12.31842 10.666666z"/><path d="m390 247.777778h-80v-9.777778c0-4.418278 3.581722-8 8-8h64c4.418278 0 8 3.581722 8 8zm0 6.666666v22.222223h-13.333333-51.332265-4.869436c3.035716 13.483685 15.083897 23.555555 29.484489 23.555555 11.90554 0 22.203211-6.884106 27.129581-16.888889h12.920964v18.666667c0 4.418278-3.581722 8-8 8h-64c-4.418278 0-8-3.581722-8-8v-47.555556zm-59.507235 28.888889 38.913375.000001c-4.242582 6.203015-11.374255 10.273689-19.456685 10.273689s-15.214103-4.070674-19.456685-10.273689zm-9.922296-12.888889h6.819308c.749829-2.321123 2.928409-4 5.499112-4s4.749283 1.678877 5.499112 4h6.819308c-.862631-6.030745-6.049137-10.666666-12.31842-10.666666-6.269284 0-11.455789 4.635921-12.31842 10.666666zm34.222222 0h6.819308c.749829-2.321123 2.928409-4 5.499112-4s4.749283 1.678877 5.499112 4h6.819308c-.862631-6.030745-6.049136-10.666666-12.31842-10.666666-6.269283 0-11.455789 4.635921-12.31842 10.666666z"/><path d="m490 17.7777778h-80v-9.7777778c0-4.418278 3.581722-8 8-8h64c4.418278 0 8 3.581722 8 8zm0 6.6666666v22.2222223h-13.333333-51.332265-4.869436c3.035716 13.4836856 15.083897 23.5555555 29.484489 23.5555555 11.90554 0 22.203211-6.8841067 27.129581-16.8888889h12.920964v18.6666667c0 4.418278-3.581722 8-8 8h-64c-4.418278 0-8-3.581722-8-8v-47.5555556zm-59.507235 28.8888889 38.913375.0000011c-4.242582 6.2030143-11.374255 10.2736885-19.456685 10.2736885s-15.214103-4.0706742-19.456685-10.2736885zm-9.922296-12.8888889h6.819308c.749829-2.3211235 2.928409-4 5.499112-4s4.749283 1.6788765 5.499112 4h6.819308c-.862631-6.0307451-6.049137-10.6666666-12.31842-10.6666666-6.269284 0-11.455789 4.6359215-12.31842 10.6666666zm34.222222 0h6.819308c.749829-2.3211235 2.928409-4 5.499112-4s4.749283 1.6788765 5.499112 4h6.819308c-.862631-6.0307451-6.049136-10.6666666-12.31842-10.6666666-6.269283 0-11.455789 4.6359215-12.31842 10.6666666z"/><path d="m80 127.777778h-80v-9.777778c0-4.418278 3.581722-8 8-8h64c4.418278 0 8 3.581722 8 8zm0 6.666666v22.222223h-13.3333333-51.3322643-4.8694366c3.0357158 13.483685 15.0838969 23.555555 29.4844893 23.555555 11.9055401 0 22.2032109-6.884106 27.1295812-16.888889h12.9209637v18.666667c0 4.418278-3.581722 8-8 8h-64c-4.418278 0-8-3.581722-8-8v-47.555556zm-59.5072353 28.888889 38.9133758.000001c-4.2425822 6.203015-11.3742553 10.273689-19.4566854 10.273689-8.08243 0-15.2141031-4.070674-19.4566853-10.273689zm-9.9222956-12.888889h6.8193081c.7498285-2.321123 2.9284088-4 5.4991117-4s4.7492832 1.678877 5.4991117 4h6.8193081c-.8626305-6.030745-6.0491364-10.666666-12.3184198-10.666666s-11.4557893 4.635921-12.3184198 10.666666zm34.2222222 0h6.8193081c.7498285-2.321123 2.9284088-4 5.4991117-4s4.7492832 1.678877 5.4991117 4h6.8193081c-.8626305-6.030745-6.0491364-10.666666-12.3184198-10.666666s-11.4557893 4.635921-12.3184198 10.666666z"/></g></svg>